<?xml version="1.0" encoding="utf-8" standalone="no"?>
<!DOCTYPE svg PUBLIC "-//W3C//DTD SVG 1.1//EN"
  "http://www.w3.org/Graphics/SVG/1.1/DTD/svg11.dtd">
<svg xmlns:xlink="http://www.w3.org/1999/xlink" width="408.0715pt" height="398.34866pt" viewBox="0 0 408.0715 398.34866" xmlns="http://www.w3.org/2000/svg" version="1.1">
 <metadata>
  <rdf:RDF xmlns:dc="http://purl.org/dc/elements/1.1/" xmlns:cc="http://creativecommons.org/ns#" xmlns:rdf="http://www.w3.org/1999/02/22-rdf-syntax-ns#">
   <cc:Work>
    <dc:type rdf:resource="http://purl.org/dc/dcmitype/StillImage"/>
    <dc:date>2024-10-01T11:03:48.948994</dc:date>
    <dc:format>image/svg+xml</dc:format>
    <dc:creator>
     <cc:Agent>
      <dc:title>Matplotlib v3.8.0, https://matplotlib.org/</dc:title>
     </cc:Agent>
    </dc:creator>
   </cc:Work>
  </rdf:RDF>
 </metadata>
 <defs>
  <style type="text/css">*{stroke-linejoin: round; stroke-linecap: butt}</style>
 </defs>
 <g id="figure_1">
  <g id="patch_1">
   <path d="M 0 398.34866 
L 408.0715 398.34866 
L 408.0715 0 
L 0 0 
z
" style="fill: #ffffff"/>
  </g>
  <g id="axes_1">
   <g id="patch_2">
    <path d="M 66.0715 343.23316 
L 400.8715 343.23316 
L 400.8715 10.59316 
L 66.0715 10.59316 
z
" style="fill: #ffffff"/>
   </g>
   <g id="PolyCollection_1"/>
   <g id="PolyCollection_2"/>
   <g id="PolyCollection_3"/>
   <g id="PolyCollection_4">
    <defs>
     <path id="m9b77ca43aa" d="M 66.578005 -387.7555 
L 66.578005 -55.1155 
L 69.110532 -55.1155 
L 69.110532 -387.7555 
L 69.110532 -387.7555 
L 66.578005 -387.7555 
z
"/>
    </defs>
    <g clip-path="url(#pb62af22703)">
     <use xlink:href="#m9b77ca43aa" x="0" y="398.34866" style="fill: #1b9e77; fill-opacity: 0.2"/>
    </g>
   </g>
   <g id="PolyCollection_5">
    <defs>
     <path id="m473e4155a4" d="M 69.110532 -387.7555 
L 69.110532 -55.1155 
L 71.643058 -55.1155 
L 71.643058 -387.7555 
L 71.643058 -387.7555 
L 69.110532 -387.7555 
z
"/>
    </defs>
    <g clip-path="url(#pb62af22703)">
     <use xlink:href="#m473e4155a4" x="0" y="398.34866" style="fill: #1b9e77; fill-opacity: 0.2"/>
    </g>
   </g>
   <g id="PolyCollection_6">
    <defs>
     <path id="m4060ea5848" d="M 71.643058 -387.7555 
L 71.643058 -55.1155 
L 74.175585 -55.1155 
L 74.175585 -387.7555 
L 74.175585 -387.7555 
L 71.643058 -387.7555 
z
"/>
    </defs>
    <g clip-path="url(#pb62af22703)">
     <use xlink:href="#m4060ea5848" x="0" y="398.34866" style="fill: #1b9e77; fill-opacity: 0.2"/>
    </g>
   </g>
   <g id="PolyCollection_7">
    <defs>
     <path id="mf34c12dd21" d="M 74.175585 -387.7555 
L 74.175585 -55.1155 
L 76.708111 -55.1155 
L 76.708111 -387.7555 
L 76.708111 -387.7555 
L 74.175585 -387.7555 
z
"/>
    </defs>
    <g clip-path="url(#pb62af22703)">
     <use xlink:href="#mf34c12dd21" x="0" y="398.34866" style="fill: #d95f02; fill-opacity: 0.2"/>
    </g>
   </g>
   <g id="PolyCollection_8">
    <defs>
     <path id="m7a754f4971" d="M 76.708111 -387.7555 
L 76.708111 -55.1155 
L 79.240638 -55.1155 
L 79.240638 -387.7555 
L 79.240638 -387.7555 
L 76.708111 -387.7555 
z
"/>
    </defs>
    <g clip-path="url(#pb62af22703)">
     <use xlink:href="#m7a754f4971" x="0" y="398.34866" style="fill: #d95f02; fill-opacity: 0.2"/>
    </g>
   </g>
   <g id="PolyCollection_9">
    <defs>
     <path id="mb346df918a" d="M 79.240638 -387.7555 
L 79.240638 -55.1155 
L 81.773164 -55.1155 
L 81.773164 -387.7555 
L 81.773164 -387.7555 
L 79.240638 -387.7555 
z
"/>
    </defs>
    <g clip-path="url(#pb62af22703)">
     <use xlink:href="#mb346df918a" x="0" y="398.34866" style="fill: #d95f02; fill-opacity: 0.2"/>
    </g>
   </g>
   <g id="PolyCollection_10">
    <defs>
     <path id="m4de8696832" d="M 81.773164 -387.7555 
L 81.773164 -55.1155 
L 84.305691 -55.1155 
L 84.305691 -387.7555 
L 84.305691 -387.7555 
L 81.773164 -387.7555 
z
"/>
    </defs>
    <g clip-path="url(#pb62af22703)">
     <use xlink:href="#m4de8696832" x="0" y="398.34866" style="fill: #d95f02; fill-opacity: 0.2"/>
    </g>
   </g>
   <g id="PolyCollection_11">
    <defs>
     <path id="m9cc9a34615" d="M 84.305691 -387.7555 
L 84.305691 -55.1155 
L 86.838217 -55.1155 
L 86.838217 -387.7555 
L 86.838217 -387.7555 
L 84.305691 -387.7555 
z
"/>
    </defs>
    <g clip-path="url(#pb62af22703)">
     <use xlink:href="#m9cc9a34615" x="0" y="398.34866" style="fill: #d95f02; fill-opacity: 0.2"/>
    </g>
   </g>
   <g id="PolyCollection_12">
    <defs>
     <path id="m24e70d70b3" d="M 86.838217 -387.7555 
L 86.838217 -55.1155 
L 89.370744 -55.1155 
L 89.370744 -387.7555 
L 89.370744 -387.7555 
L 86.838217 -387.7555 
z
"/>
    </defs>
    <g clip-path="url(#pb62af22703)">
     <use xlink:href="#m24e70d70b3" x="0" y="398.34866" style="fill: #d95f02; fill-opacity: 0.2"/>
    </g>
   </g>
   <g id="PolyCollection_13">
    <defs>
     <path id="m6aabba3504" d="M 89.370744 -387.7555 
L 89.370744 -55.1155 
L 91.90327 -55.1155 
L 91.90327 -387.7555 
L 91.90327 -387.7555 
L 89.370744 -387.7555 
z
"/>
    </defs>
    <g clip-path="url(#pb62af22703)">
     <use xlink:href="#m6aabba3504" x="0" y="398.34866" style="fill: #d95f02; fill-opacity: 0.2"/>
    </g>
   </g>
   <g id="PolyCollection_14">
    <defs>
     <path id="m6c8658d8ad" d="M 91.90327 -387.7555 
L 91.90327 -55.1155 
L 94.435797 -55.1155 
L 94.435797 -387.7555 
L 94.435797 -387.7555 
L 91.90327 -387.7555 
z
"/>
    </defs>
    <g clip-path="url(#pb62af22703)">
     <use xlink:href="#m6c8658d8ad" x="0" y="398.34866" style="fill: #d95f02; fill-opacity: 0.2"/>
    </g>
   </g>
   <g id="PolyCollection_15">
    <defs>
     <path id="m671e033718" d="M 94.435797 -387.7555 
L 94.435797 -55.1155 
L 96.968323 -55.1155 
L 96.968323 -387.7555 
L 96.968323 -387.7555 
L 94.435797 -387.7555 
z
"/>
    </defs>
    <g clip-path="url(#pb62af22703)">
     <use xlink:href="#m671e033718" x="0" y="398.34866" style="fill: #d95f02; fill-opacity: 0.2"/>
    </g>
   </g>
   <g id="PolyCollection_16">
    <defs>
     <path id="m8fea819d21" d="M 96.968323 -387.7555 
L 96.968323 -55.1155 
L 99.500849 -55.1155 
L 99.500849 -387.7555 
L 99.500849 -387.7555 
L 96.968323 -387.7555 
z
"/>
    </defs>
    <g clip-path="url(#pb62af22703)">
     <use xlink:href="#m8fea819d21" x="0" y="398.34866" style="fill: #d95f02; fill-opacity: 0.2"/>
    </g>
   </g>
   <g id="PolyCollection_17">
    <defs>
     <path id="m8698cb6134" d="M 99.500849 -387.7555 
L 99.500849 -55.1155 
L 102.033376 -55.1155 
L 102.033376 -387.7555 
L 102.033376 -387.7555 
L 99.500849 -387.7555 
z
"/>
    </defs>
    <g clip-path="url(#pb62af22703)">
     <use xlink:href="#m8698cb6134" x="0" y="398.34866" style="fill: #d95f02; fill-opacity: 0.2"/>
    </g>
   </g>
   <g id="PolyCollection_18">
    <defs>
     <path id="m1f5ded56a8" d="M 102.033376 -387.7555 
L 102.033376 -55.1155 
L 104.565902 -55.1155 
L 104.565902 -387.7555 
L 104.565902 -387.7555 
L 102.033376 -387.7555 
z
"/>
    </defs>
    <g clip-path="url(#pb62af22703)">
     <use xlink:href="#m1f5ded56a8" x="0" y="398.34866" style="fill: #1b9e77; fill-opacity: 0.2"/>
    </g>
   </g>
   <g id="PolyCollection_19">
    <defs>
     <path id="mfcf39c405c" d="M 104.565902 -387.7555 
L 104.565902 -55.1155 
L 107.098429 -55.1155 
L 107.098429 -387.7555 
L 107.098429 -387.7555 
L 104.565902 -387.7555 
z
"/>
    </defs>
    <g clip-path="url(#pb62af22703)">
     <use xlink:href="#mfcf39c405c" x="0" y="398.34866" style="fill: #d95f02; fill-opacity: 0.2"/>
    </g>
   </g>
   <g id="PolyCollection_20">
    <defs>
     <path id="m4341c93e56" d="M 107.098429 -387.7555 
L 107.098429 -55.1155 
L 109.630955 -55.1155 
L 109.630955 -387.7555 
L 109.630955 -387.7555 
L 107.098429 -387.7555 
z
"/>
    </defs>
    <g clip-path="url(#pb62af22703)">
     <use xlink:href="#m4341c93e56" x="0" y="398.34866" style="fill: #d95f02; fill-opacity: 0.2"/>
    </g>
   </g>
   <g id="PolyCollection_21">
    <defs>
     <path id="m4eb306d481" d="M 109.630955 -387.7555 
L 109.630955 -55.1155 
L 112.163482 -55.1155 
L 112.163482 -387.7555 
L 112.163482 -387.7555 
L 109.630955 -387.7555 
z
"/>
    </defs>
    <g clip-path="url(#pb62af22703)">
     <use xlink:href="#m4eb306d481" x="0" y="398.34866" style="fill: #d95f02; fill-opacity: 0.2"/>
    </g>
   </g>
   <g id="PolyCollection_22">
    <defs>
     <path id="m2ad1b377a0" d="M 112.163482 -387.7555 
L 112.163482 -55.1155 
L 114.696008 -55.1155 
L 114.696008 -387.7555 
L 114.696008 -387.7555 
L 112.163482 -387.7555 
z
"/>
    </defs>
    <g clip-path="url(#pb62af22703)">
     <use xlink:href="#m2ad1b377a0" x="0" y="398.34866" style="fill: #d95f02; fill-opacity: 0.2"/>
    </g>
   </g>
   <g id="PolyCollection_23">
    <defs>
     <path id="m76c623a47b" d="M 114.696008 -387.7555 
L 114.696008 -55.1155 
L 117.228535 -55.1155 
L 117.228535 -387.7555 
L 117.228535 -387.7555 
L 114.696008 -387.7555 
z
"/>
    </defs>
    <g clip-path="url(#pb62af22703)">
     <use xlink:href="#m76c623a47b" x="0" y="398.34866" style="fill: #d95f02; fill-opacity: 0.2"/>
    </g>
   </g>
   <g id="PolyCollection_24">
    <defs>
     <path id="m99c56bbe54" d="M 117.228535 -387.7555 
L 117.228535 -55.1155 
L 119.761061 -55.1155 
L 119.761061 -387.7555 
L 119.761061 -387.7555 
L 117.228535 -387.7555 
z
"/>
    </defs>
    <g clip-path="url(#pb62af22703)">
     <use xlink:href="#m99c56bbe54" x="0" y="398.34866" style="fill: #d95f02; fill-opacity: 0.2"/>
    </g>
   </g>
   <g id="PolyCollection_25">
    <defs>
     <path id="m89e1b3bf4d" d="M 119.761061 -387.7555 
L 119.761061 -55.1155 
L 122.293588 -55.1155 
L 122.293588 -387.7555 
L 122.293588 -387.7555 
L 119.761061 -387.7555 
z
"/>
    </defs>
    <g clip-path="url(#pb62af22703)">
     <use xlink:href="#m89e1b3bf4d" x="0" y="398.34866" style="fill: #d95f02; fill-opacity: 0.2"/>
    </g>
   </g>
   <g id="PolyCollection_26">
    <defs>
     <path id="mf4ed661032" d="M 122.293588 -387.7555 
L 122.293588 -55.1155 
L 124.826114 -55.1155 
L 124.826114 -387.7555 
L 124.826114 -387.7555 
L 122.293588 -387.7555 
z
"/>
    </defs>
    <g clip-path="url(#pb62af22703)">
     <use xlink:href="#mf4ed661032" x="0" y="398.34866" style="fill: #d95f02; fill-opacity: 0.2"/>
    </g>
   </g>
   <g id="PolyCollection_27">
    <defs>
     <path id="m96e72c3a04" d="M 124.826114 -387.7555 
L 124.826114 -55.1155 
L 127.358641 -55.1155 
L 127.358641 -387.7555 
L 127.358641 -387.7555 
L 124.826114 -387.7555 
z
"/>
    </defs>
    <g clip-path="url(#pb62af22703)">
     <use xlink:href="#m96e72c3a04" x="0" y="398.34866" style="fill: #d95f02; fill-opacity: 0.2"/>
    </g>
   </g>
   <g id="PolyCollection_28">
    <defs>
     <path id="m047dedc0ee" d="M 127.358641 -387.7555 
L 127.358641 -55.1155 
L 129.891167 -55.1155 
L 129.891167 -387.7555 
L 129.891167 -387.7555 
L 127.358641 -387.7555 
z
"/>
    </defs>
    <g clip-path="url(#pb62af22703)">
     <use xlink:href="#m047dedc0ee" x="0" y="398.34866" style="fill: #d95f02; fill-opacity: 0.2"/>
    </g>
   </g>
   <g id="PolyCollection_29">
    <defs>
     <path id="m129fb71de3" d="M 129.891167 -387.7555 
L 129.891167 -55.1155 
L 132.423694 -55.1155 
L 132.423694 -387.7555 
L 132.423694 -387.7555 
L 129.891167 -387.7555 
z
"/>
    </defs>
    <g clip-path="url(#pb62af22703)">
     <use xlink:href="#m129fb71de3" x="0" y="398.34866" style="fill: #d95f02; fill-opacity: 0.2"/>
    </g>
   </g>
   <g id="PolyCollection_30">
    <defs>
     <path id="mc60e0fa66d" d="M 132.423694 -387.7555 
L 132.423694 -55.1155 
L 134.95622 -55.1155 
L 134.95622 -387.7555 
L 134.95622 -387.7555 
L 132.423694 -387.7555 
z
"/>
    </defs>
    <g clip-path="url(#pb62af22703)">
     <use xlink:href="#mc60e0fa66d" x="0" y="398.34866" style="fill: #d95f02; fill-opacity: 0.2"/>
    </g>
   </g>
   <g id="PolyCollection_31">
    <defs>
     <path id="md801816bcd" d="M 134.95622 -387.7555 
L 134.95622 -55.1155 
L 137.488747 -55.1155 
L 137.488747 -387.7555 
L 137.488747 -387.7555 
L 134.95622 -387.7555 
z
"/>
    </defs>
    <g clip-path="url(#pb62af22703)">
     <use xlink:href="#md801816bcd" x="0" y="398.34866" style="fill: #d95f02; fill-opacity: 0.2"/>
    </g>
   </g>
   <g id="PolyCollection_32">
    <defs>
     <path id="m39ea56b580" d="M 137.488747 -387.7555 
L 137.488747 -55.1155 
L 140.021273 -55.1155 
L 140.021273 -387.7555 
L 140.021273 -387.7555 
L 137.488747 -387.7555 
z
"/>
    </defs>
    <g clip-path="url(#pb62af22703)">
     <use xlink:href="#m39ea56b580" x="0" y="398.34866" style="fill: #d95f02; fill-opacity: 0.2"/>
    </g>
   </g>
   <g id="PolyCollection_33">
    <defs>
     <path id="me1b60e2d46" d="M 140.021273 -387.7555 
L 140.021273 -55.1155 
L 142.5538 -55.1155 
L 142.5538 -387.7555 
L 142.5538 -387.7555 
L 140.021273 -387.7555 
z
"/>
    </defs>
    <g clip-path="url(#pb62af22703)">
     <use xlink:href="#me1b60e2d46" x="0" y="398.34866" style="fill: #1b9e77; fill-opacity: 0.2"/>
    </g>
   </g>
   <g id="PolyCollection_34">
    <defs>
     <path id="m3966987f89" d="M 142.5538 -387.7555 
L 142.5538 -55.1155 
L 145.086326 -55.1155 
L 145.086326 -387.7555 
L 145.086326 -387.7555 
L 142.5538 -387.7555 
z
"/>
    </defs>
    <g clip-path="url(#pb62af22703)">
     <use xlink:href="#m3966987f89" x="0" y="398.34866" style="fill: #1b9e77; fill-opacity: 0.2"/>
    </g>
   </g>
   <g id="PolyCollection_35">
    <defs>
     <path id="mad57bc31c9" d="M 145.086326 -387.7555 
L 145.086326 -55.1155 
L 147.618852 -55.1155 
L 147.618852 -387.7555 
L 147.618852 -387.7555 
L 145.086326 -387.7555 
z
"/>
    </defs>
    <g clip-path="url(#pb62af22703)">
     <use xlink:href="#mad57bc31c9" x="0" y="398.34866" style="fill: #d95f02; fill-opacity: 0.2"/>
    </g>
   </g>
   <g id="PolyCollection_36">
    <defs>
     <path id="m6655ff0ba9" d="M 147.618852 -387.7555 
L 147.618852 -55.1155 
L 150.151379 -55.1155 
L 150.151379 -387.7555 
L 150.151379 -387.7555 
L 147.618852 -387.7555 
z
"/>
    </defs>
    <g clip-path="url(#pb62af22703)">
     <use xlink:href="#m6655ff0ba9" x="0" y="398.34866" style="fill: #d95f02; fill-opacity: 0.2"/>
    </g>
   </g>
   <g id="PolyCollection_37">
    <defs>
     <path id="me9e122e8f1" d="M 150.151379 -387.7555 
L 150.151379 -55.1155 
L 152.683905 -55.1155 
L 152.683905 -387.7555 
L 152.683905 -387.7555 
L 150.151379 -387.7555 
z
"/>
    </defs>
    <g clip-path="url(#pb62af22703)">
     <use xlink:href="#me9e122e8f1" x="0" y="398.34866" style="fill: #d95f02; fill-opacity: 0.2"/>
    </g>
   </g>
   <g id="PolyCollection_38">
    <defs>
     <path id="md531955666" d="M 152.683905 -387.7555 
L 152.683905 -55.1155 
L 155.216432 -55.1155 
L 155.216432 -387.7555 
L 155.216432 -387.7555 
L 152.683905 -387.7555 
z
"/>
    </defs>
    <g clip-path="url(#pb62af22703)">
     <use xlink:href="#md531955666" x="0" y="398.34866" style="fill: #d95f02; fill-opacity: 0.2"/>
    </g>
   </g>
   <g id="PolyCollection_39">
    <defs>
     <path id="mdc47cc7439" d="M 155.216432 -387.7555 
L 155.216432 -55.1155 
L 157.748958 -55.1155 
L 157.748958 -387.7555 
L 157.748958 -387.7555 
L 155.216432 -387.7555 
z
"/>
    </defs>
    <g clip-path="url(#pb62af22703)">
     <use xlink:href="#mdc47cc7439" x="0" y="398.34866" style="fill: #d95f02; fill-opacity: 0.2"/>
    </g>
   </g>
   <g id="PolyCollection_40">
    <defs>
     <path id="m2fb8f50e28" d="M 157.748958 -387.7555 
L 157.748958 -55.1155 
L 160.281485 -55.1155 
L 160.281485 -387.7555 
L 160.281485 -387.7555 
L 157.748958 -387.7555 
z
"/>
    </defs>
    <g clip-path="url(#pb62af22703)">
     <use xlink:href="#m2fb8f50e28" x="0" y="398.34866" style="fill: #d95f02; fill-opacity: 0.2"/>
    </g>
   </g>
   <g id="PolyCollection_41">
    <defs>
     <path id="m11df1a8e60" d="M 160.281485 -387.7555 
L 160.281485 -55.1155 
L 162.814011 -55.1155 
L 162.814011 -387.7555 
L 162.814011 -387.7555 
L 160.281485 -387.7555 
z
"/>
    </defs>
    <g clip-path="url(#pb62af22703)">
     <use xlink:href="#m11df1a8e60" x="0" y="398.34866" style="fill: #d95f02; fill-opacity: 0.2"/>
    </g>
   </g>
   <g id="PolyCollection_42">
    <defs>
     <path id="m22232094fd" d="M 162.814011 -387.7555 
L 162.814011 -55.1155 
L 165.346538 -55.1155 
L 165.346538 -387.7555 
L 165.346538 -387.7555 
L 162.814011 -387.7555 
z
"/>
    </defs>
    <g clip-path="url(#pb62af22703)">
     <use xlink:href="#m22232094fd" x="0" y="398.34866" style="fill: #d95f02; fill-opacity: 0.2"/>
    </g>
   </g>
   <g id="PolyCollection_43">
    <defs>
     <path id="m12235edc15" d="M 165.346538 -387.7555 
L 165.346538 -55.1155 
L 167.879064 -55.1155 
L 167.879064 -387.7555 
L 167.879064 -387.7555 
L 165.346538 -387.7555 
z
"/>
    </defs>
    <g clip-path="url(#pb62af22703)">
     <use xlink:href="#m12235edc15" x="0" y="398.34866" style="fill: #d95f02; fill-opacity: 0.2"/>
    </g>
   </g>
   <g id="PolyCollection_44">
    <defs>
     <path id="m3d56e70b45" d="M 167.879064 -387.7555 
L 167.879064 -55.1155 
L 170.411591 -55.1155 
L 170.411591 -387.7555 
L 170.411591 -387.7555 
L 167.879064 -387.7555 
z
"/>
    </defs>
    <g clip-path="url(#pb62af22703)">
     <use xlink:href="#m3d56e70b45" x="0" y="398.34866" style="fill: #d95f02; fill-opacity: 0.2"/>
    </g>
   </g>
   <g id="PolyCollection_45">
    <defs>
     <path id="m45a3524d78" d="M 170.411591 -387.7555 
L 170.411591 -55.1155 
L 172.944117 -55.1155 
L 172.944117 -387.7555 
L 172.944117 -387.7555 
L 170.411591 -387.7555 
z
"/>
    </defs>
    <g clip-path="url(#pb62af22703)">
     <use xlink:href="#m45a3524d78" x="0" y="398.34866" style="fill: #d95f02; fill-opacity: 0.2"/>
    </g>
   </g>
   <g id="PolyCollection_46">
    <defs>
     <path id="m30508bc797" d="M 172.944117 -387.7555 
L 172.944117 -55.1155 
L 175.476644 -55.1155 
L 175.476644 -387.7555 
L 175.476644 -387.7555 
L 172.944117 -387.7555 
z
"/>
    </defs>
    <g clip-path="url(#pb62af22703)">
     <use xlink:href="#m30508bc797" x="0" y="398.34866" style="fill: #d95f02; fill-opacity: 0.2"/>
    </g>
   </g>
   <g id="PolyCollection_47">
    <defs>
     <path id="m1e0f466d02" d="M 175.476644 -387.7555 
L 175.476644 -55.1155 
L 178.00917 -55.1155 
L 178.00917 -387.7555 
L 178.00917 -387.7555 
L 175.476644 -387.7555 
z
"/>
    </defs>
    <g clip-path="url(#pb62af22703)">
     <use xlink:href="#m1e0f466d02" x="0" y="398.34866" style="fill: #d95f02; fill-opacity: 0.2"/>
    </g>
   </g>
   <g id="PolyCollection_48">
    <defs>
     <path id="m8753dd9c18" d="M 178.00917 -387.7555 
L 178.00917 -55.1155 
L 180.541697 -55.1155 
L 180.541697 -387.7555 
L 180.541697 -387.7555 
L 178.00917 -387.7555 
z
"/>
    </defs>
    <g clip-path="url(#pb62af22703)">
     <use xlink:href="#m8753dd9c18" x="0" y="398.34866" style="fill: #d95f02; fill-opacity: 0.2"/>
    </g>
   </g>
   <g id="PolyCollection_49">
    <defs>
     <path id="m4a5561d943" d="M 180.541697 -387.7555 
L 180.541697 -55.1155 
L 183.074223 -55.1155 
L 183.074223 -387.7555 
L 183.074223 -387.7555 
L 180.541697 -387.7555 
z
"/>
    </defs>
    <g clip-path="url(#pb62af22703)">
     <use xlink:href="#m4a5561d943" x="0" y="398.34866" style="fill: #d95f02; fill-opacity: 0.2"/>
    </g>
   </g>
   <g id="PolyCollection_50">
    <defs>
     <path id="mf0729e644c" d="M 183.074223 -387.7555 
L 183.074223 -55.1155 
L 185.60675 -55.1155 
L 185.60675 -387.7555 
L 185.60675 -387.7555 
L 183.074223 -387.7555 
z
"/>
    </defs>
    <g clip-path="url(#pb62af22703)">
     <use xlink:href="#mf0729e644c" x="0" y="398.34866" style="fill: #d95f02; fill-opacity: 0.2"/>
    </g>
   </g>
   <g id="PolyCollection_51">
    <defs>
     <path id="md71efa7e55" d="M 185.60675 -387.7555 
L 185.60675 -55.1155 
L 188.139276 -55.1155 
L 188.139276 -387.7555 
L 188.139276 -387.7555 
L 185.60675 -387.7555 
z
"/>
    </defs>
    <g clip-path="url(#pb62af22703)">
     <use xlink:href="#md71efa7e55" x="0" y="398.34866" style="fill: #d95f02; fill-opacity: 0.2"/>
    </g>
   </g>
   <g id="PolyCollection_52">
    <defs>
     <path id="m14ea896240" d="M 188.139276 -387.7555 
L 188.139276 -55.1155 
L 190.671803 -55.1155 
L 190.671803 -387.7555 
L 190.671803 -387.7555 
L 188.139276 -387.7555 
z
"/>
    </defs>
    <g clip-path="url(#pb62af22703)">
     <use xlink:href="#m14ea896240" x="0" y="398.34866" style="fill: #d95f02; fill-opacity: 0.2"/>
    </g>
   </g>
   <g id="PolyCollection_53">
    <defs>
     <path id="mac7c6fec32" d="M 190.671803 -387.7555 
L 190.671803 -55.1155 
L 193.204329 -55.1155 
L 193.204329 -387.7555 
L 193.204329 -387.7555 
L 190.671803 -387.7555 
z
"/>
    </defs>
    <g clip-path="url(#pb62af22703)">
     <use xlink:href="#mac7c6fec32" x="0" y="398.34866" style="fill: #d95f02; fill-opacity: 0.2"/>
    </g>
   </g>
   <g id="PolyCollection_54">
    <defs>
     <path id="m19a226a80d" d="M 193.204329 -387.7555 
L 193.204329 -55.1155 
L 195.736856 -55.1155 
L 195.736856 -387.7555 
L 195.736856 -387.7555 
L 193.204329 -387.7555 
z
"/>
    </defs>
    <g clip-path="url(#pb62af22703)">
     <use xlink:href="#m19a226a80d" x="0" y="398.34866" style="fill: #d95f02; fill-opacity: 0.2"/>
    </g>
   </g>
   <g id="PolyCollection_55">
    <defs>
     <path id="m75a905b628" d="M 195.736856 -387.7555 
L 195.736856 -55.1155 
L 198.269382 -55.1155 
L 198.269382 -387.7555 
L 198.269382 -387.7555 
L 195.736856 -387.7555 
z
"/>
    </defs>
    <g clip-path="url(#pb62af22703)">
     <use xlink:href="#m75a905b628" x="0" y="398.34866" style="fill: #1b9e77; fill-opacity: 0.2"/>
    </g>
   </g>
   <g id="PolyCollection_56">
    <defs>
     <path id="m3ff83151be" d="M 198.269382 -387.7555 
L 198.269382 -55.1155 
L 200.801908 -55.1155 
L 200.801908 -387.7555 
L 200.801908 -387.7555 
L 198.269382 -387.7555 
z
"/>
    </defs>
    <g clip-path="url(#pb62af22703)">
     <use xlink:href="#m3ff83151be" x="0" y="398.34866" style="fill: #d95f02; fill-opacity: 0.2"/>
    </g>
   </g>
   <g id="PolyCollection_57">
    <defs>
     <path id="m777c992bc9" d="M 200.801908 -387.7555 
L 200.801908 -55.1155 
L 203.334435 -55.1155 
L 203.334435 -387.7555 
L 203.334435 -387.7555 
L 200.801908 -387.7555 
z
"/>
    </defs>
    <g clip-path="url(#pb62af22703)">
     <use xlink:href="#m777c992bc9" x="0" y="398.34866" style="fill: #d95f02; fill-opacity: 0.2"/>
    </g>
   </g>
   <g id="PolyCollection_58">
    <defs>
     <path id="m75e5cd374c" d="M 203.334435 -387.7555 
L 203.334435 -55.1155 
L 205.866961 -55.1155 
L 205.866961 -387.7555 
L 205.866961 -387.7555 
L 203.334435 -387.7555 
z
"/>
    </defs>
    <g clip-path="url(#pb62af22703)">
     <use xlink:href="#m75e5cd374c" x="0" y="398.34866" style="fill: #d95f02; fill-opacity: 0.2"/>
    </g>
   </g>
   <g id="PolyCollection_59">
    <defs>
     <path id="ma5d606cf23" d="M 205.866961 -387.7555 
L 205.866961 -55.1155 
L 208.399488 -55.1155 
L 208.399488 -387.7555 
L 208.399488 -387.7555 
L 205.866961 -387.7555 
z
"/>
    </defs>
    <g clip-path="url(#pb62af22703)">
     <use xlink:href="#ma5d606cf23" x="0" y="398.34866" style="fill: #d95f02; fill-opacity: 0.2"/>
    </g>
   </g>
   <g id="PolyCollection_60">
    <defs>
     <path id="m8189ec5df2" d="M 208.399488 -387.7555 
L 208.399488 -55.1155 
L 210.932014 -55.1155 
L 210.932014 -387.7555 
L 210.932014 -387.7555 
L 208.399488 -387.7555 
z
"/>
    </defs>
    <g clip-path="url(#pb62af22703)">
     <use xlink:href="#m8189ec5df2" x="0" y="398.34866" style="fill: #d95f02; fill-opacity: 0.2"/>
    </g>
   </g>
   <g id="PolyCollection_61">
    <defs>
     <path id="m07d8d6bccc" d="M 210.932014 -387.7555 
L 210.932014 -55.1155 
L 213.464541 -55.1155 
L 213.464541 -387.7555 
L 213.464541 -387.7555 
L 210.932014 -387.7555 
z
"/>
    </defs>
    <g clip-path="url(#pb62af22703)">
     <use xlink:href="#m07d8d6bccc" x="0" y="398.34866" style="fill: #d95f02; fill-opacity: 0.2"/>
    </g>
   </g>
   <g id="PolyCollection_62">
    <defs>
     <path id="mf00aac294f" d="M 213.464541 -387.7555 
L 213.464541 -55.1155 
L 215.997067 -55.1155 
L 215.997067 -387.7555 
L 215.997067 -387.7555 
L 213.464541 -387.7555 
z
"/>
    </defs>
    <g clip-path="url(#pb62af22703)">
     <use xlink:href="#mf00aac294f" x="0" y="398.34866" style="fill: #d95f02; fill-opacity: 0.2"/>
    </g>
   </g>
   <g id="PolyCollection_63">
    <defs>
     <path id="md85925aadb" d="M 215.997067 -387.7555 
L 215.997067 -55.1155 
L 218.529594 -55.1155 
L 218.529594 -387.7555 
L 218.529594 -387.7555 
L 215.997067 -387.7555 
z
"/>
    </defs>
    <g clip-path="url(#pb62af22703)">
     <use xlink:href="#md85925aadb" x="0" y="398.34866" style="fill: #d95f02; fill-opacity: 0.2"/>
    </g>
   </g>
   <g id="PolyCollection_64">
    <defs>
     <path id="mdde0064da1" d="M 218.529594 -387.7555 
L 218.529594 -55.1155 
L 221.06212 -55.1155 
L 221.06212 -387.7555 
L 221.06212 -387.7555 
L 218.529594 -387.7555 
z
"/>
    </defs>
    <g clip-path="url(#pb62af22703)">
     <use xlink:href="#mdde0064da1" x="0" y="398.34866" style="fill: #d95f02; fill-opacity: 0.2"/>
    </g>
   </g>
   <g id="PolyCollection_65">
    <defs>
     <path id="m5b07c8c018" d="M 221.06212 -387.7555 
L 221.06212 -55.1155 
L 223.594647 -55.1155 
L 223.594647 -387.7555 
L 223.594647 -387.7555 
L 221.06212 -387.7555 
z
"/>
    </defs>
    <g clip-path="url(#pb62af22703)">
     <use xlink:href="#m5b07c8c018" x="0" y="398.34866" style="fill: #d95f02; fill-opacity: 0.2"/>
    </g>
   </g>
   <g id="PolyCollection_66">
    <defs>
     <path id="m4ad05447c5" d="M 223.594647 -387.7555 
L 223.594647 -55.1155 
L 226.127173 -55.1155 
L 226.127173 -387.7555 
L 226.127173 -387.7555 
L 223.594647 -387.7555 
z
"/>
    </defs>
    <g clip-path="url(#pb62af22703)">
     <use xlink:href="#m4ad05447c5" x="0" y="398.34866" style="fill: #d95f02; fill-opacity: 0.2"/>
    </g>
   </g>
   <g id="PolyCollection_67">
    <defs>
     <path id="m8848ed0161" d="M 226.127173 -387.7555 
L 226.127173 -55.1155 
L 228.6597 -55.1155 
L 228.6597 -387.7555 
L 228.6597 -387.7555 
L 226.127173 -387.7555 
z
"/>
    </defs>
    <g clip-path="url(#pb62af22703)">
     <use xlink:href="#m8848ed0161" x="0" y="398.34866" style="fill: #d95f02; fill-opacity: 0.2"/>
    </g>
   </g>
   <g id="PolyCollection_68">
    <defs>
     <path id="m87e7520b5e" d="M 228.6597 -387.7555 
L 228.6597 -55.1155 
L 231.192226 -55.1155 
L 231.192226 -387.7555 
L 231.192226 -387.7555 
L 228.6597 -387.7555 
z
"/>
    </defs>
    <g clip-path="url(#pb62af22703)">
     <use xlink:href="#m87e7520b5e" x="0" y="398.34866" style="fill: #1b9e77; fill-opacity: 0.2"/>
    </g>
   </g>
   <g id="PolyCollection_69">
    <defs>
     <path id="m8b70d6a978" d="M 231.192226 -387.7555 
L 231.192226 -55.1155 
L 233.724753 -55.1155 
L 233.724753 -387.7555 
L 233.724753 -387.7555 
L 231.192226 -387.7555 
z
"/>
    </defs>
    <g clip-path="url(#pb62af22703)">
     <use xlink:href="#m8b70d6a978" x="0" y="398.34866" style="fill: #d95f02; fill-opacity: 0.2"/>
    </g>
   </g>
   <g id="PolyCollection_70">
    <defs>
     <path id="m9b0aa27865" d="M 233.724753 -387.7555 
L 233.724753 -55.1155 
L 236.257279 -55.1155 
L 236.257279 -387.7555 
L 236.257279 -387.7555 
L 233.724753 -387.7555 
z
"/>
    </defs>
    <g clip-path="url(#pb62af22703)">
     <use xlink:href="#m9b0aa27865" x="0" y="398.34866" style="fill: #d95f02; fill-opacity: 0.2"/>
    </g>
   </g>
   <g id="PolyCollection_71">
    <defs>
     <path id="m4519437d65" d="M 236.257279 -387.7555 
L 236.257279 -55.1155 
L 238.789806 -55.1155 
L 238.789806 -387.7555 
L 238.789806 -387.7555 
L 236.257279 -387.7555 
z
"/>
    </defs>
    <g clip-path="url(#pb62af22703)">
     <use xlink:href="#m4519437d65" x="0" y="398.34866" style="fill: #d95f02; fill-opacity: 0.2"/>
    </g>
   </g>
   <g id="PolyCollection_72">
    <defs>
     <path id="m51ae5ba4b9" d="M 238.789806 -387.7555 
L 238.789806 -55.1155 
L 241.322332 -55.1155 
L 241.322332 -387.7555 
L 241.322332 -387.7555 
L 238.789806 -387.7555 
z
"/>
    </defs>
    <g clip-path="url(#pb62af22703)">
     <use xlink:href="#m51ae5ba4b9" x="0" y="398.34866" style="fill: #d95f02; fill-opacity: 0.2"/>
    </g>
   </g>
   <g id="PolyCollection_73">
    <defs>
     <path id="mc70b535422" d="M 241.322332 -387.7555 
L 241.322332 -55.1155 
L 243.854859 -55.1155 
L 243.854859 -387.7555 
L 243.854859 -387.7555 
L 241.322332 -387.7555 
z
"/>
    </defs>
    <g clip-path="url(#pb62af22703)">
     <use xlink:href="#mc70b535422" x="0" y="398.34866" style="fill: #d95f02; fill-opacity: 0.2"/>
    </g>
   </g>
   <g id="PolyCollection_74">
    <defs>
     <path id="ma784fcbd90" d="M 243.854859 -387.7555 
L 243.854859 -55.1155 
L 246.387385 -55.1155 
L 246.387385 -387.7555 
L 246.387385 -387.7555 
L 243.854859 -387.7555 
z
"/>
    </defs>
    <g clip-path="url(#pb62af22703)">
     <use xlink:href="#ma784fcbd90" x="0" y="398.34866" style="fill: #d95f02; fill-opacity: 0.2"/>
    </g>
   </g>
   <g id="PolyCollection_75">
    <defs>
     <path id="mf9ac9c8f51" d="M 246.387385 -387.7555 
L 246.387385 -55.1155 
L 248.919911 -55.1155 
L 248.919911 -387.7555 
L 248.919911 -387.7555 
L 246.387385 -387.7555 
z
"/>
    </defs>
    <g clip-path="url(#pb62af22703)">
     <use xlink:href="#mf9ac9c8f51" x="0" y="398.34866" style="fill: #1b9e77; fill-opacity: 0.2"/>
    </g>
   </g>
   <g id="PolyCollection_76">
    <defs>
     <path id="med6a2a695d" d="M 248.919911 -387.7555 
L 248.919911 -55.1155 
L 251.452438 -55.1155 
L 251.452438 -387.7555 
L 251.452438 -387.7555 
L 248.919911 -387.7555 
z
"/>
    </defs>
    <g clip-path="url(#pb62af22703)">
     <use xlink:href="#med6a2a695d" x="0" y="398.34866" style="fill: #d95f02; fill-opacity: 0.2"/>
    </g>
   </g>
   <g id="PolyCollection_77">
    <defs>
     <path id="m2401b01ce7" d="M 251.452438 -387.7555 
L 251.452438 -55.1155 
L 253.984964 -55.1155 
L 253.984964 -387.7555 
L 253.984964 -387.7555 
L 251.452438 -387.7555 
z
"/>
    </defs>
    <g clip-path="url(#pb62af22703)">
     <use xlink:href="#m2401b01ce7" x="0" y="398.34866" style="fill: #d95f02; fill-opacity: 0.2"/>
    </g>
   </g>
   <g id="PolyCollection_78">
    <defs>
     <path id="ma896c62672" d="M 253.984964 -387.7555 
L 253.984964 -55.1155 
L 256.517491 -55.1155 
L 256.517491 -387.7555 
L 256.517491 -387.7555 
L 253.984964 -387.7555 
z
"/>
    </defs>
    <g clip-path="url(#pb62af22703)">
     <use xlink:href="#ma896c62672" x="0" y="398.34866" style="fill: #d95f02; fill-opacity: 0.2"/>
    </g>
   </g>
   <g id="PolyCollection_79">
    <defs>
     <path id="ma5d6088a01" d="M 256.517491 -387.7555 
L 256.517491 -55.1155 
L 259.050017 -55.1155 
L 259.050017 -387.7555 
L 259.050017 -387.7555 
L 256.517491 -387.7555 
z
"/>
    </defs>
    <g clip-path="url(#pb62af22703)">
     <use xlink:href="#ma5d6088a01" x="0" y="398.34866" style="fill: #d95f02; fill-opacity: 0.2"/>
    </g>
   </g>
   <g id="PolyCollection_80">
    <defs>
     <path id="me7195f451f" d="M 259.050017 -387.7555 
L 259.050017 -55.1155 
L 261.582544 -55.1155 
L 261.582544 -387.7555 
L 261.582544 -387.7555 
L 259.050017 -387.7555 
z
"/>
    </defs>
    <g clip-path="url(#pb62af22703)">
     <use xlink:href="#me7195f451f" x="0" y="398.34866" style="fill: #d95f02; fill-opacity: 0.2"/>
    </g>
   </g>
   <g id="PolyCollection_81">
    <defs>
     <path id="m03b80107b1" d="M 261.582544 -387.7555 
L 261.582544 -55.1155 
L 264.11507 -55.1155 
L 264.11507 -387.7555 
L 264.11507 -387.7555 
L 261.582544 -387.7555 
z
"/>
    </defs>
    <g clip-path="url(#pb62af22703)">
     <use xlink:href="#m03b80107b1" x="0" y="398.34866" style="fill: #d95f02; fill-opacity: 0.2"/>
    </g>
   </g>
   <g id="PolyCollection_82">
    <defs>
     <path id="m1416e0eab3" d="M 264.11507 -387.7555 
L 264.11507 -55.1155 
L 266.647597 -55.1155 
L 266.647597 -387.7555 
L 266.647597 -387.7555 
L 264.11507 -387.7555 
z
"/>
    </defs>
    <g clip-path="url(#pb62af22703)">
     <use xlink:href="#m1416e0eab3" x="0" y="398.34866" style="fill: #1b9e77; fill-opacity: 0.2"/>
    </g>
   </g>
   <g id="PolyCollection_83">
    <defs>
     <path id="mcf92fedc2d" d="M 266.647597 -387.7555 
L 266.647597 -55.1155 
L 269.180123 -55.1155 
L 269.180123 -387.7555 
L 269.180123 -387.7555 
L 266.647597 -387.7555 
z
"/>
    </defs>
    <g clip-path="url(#pb62af22703)">
     <use xlink:href="#mcf92fedc2d" x="0" y="398.34866" style="fill: #d95f02; fill-opacity: 0.2"/>
    </g>
   </g>
   <g id="PolyCollection_84">
    <defs>
     <path id="m921ce630d9" d="M 269.180123 -387.7555 
L 269.180123 -55.1155 
L 271.71265 -55.1155 
L 271.71265 -387.7555 
L 271.71265 -387.7555 
L 269.180123 -387.7555 
z
"/>
    </defs>
    <g clip-path="url(#pb62af22703)">
     <use xlink:href="#m921ce630d9" x="0" y="398.34866" style="fill: #1b9e77; fill-opacity: 0.2"/>
    </g>
   </g>
   <g id="PolyCollection_85">
    <defs>
     <path id="mdee6b9f26a" d="M 271.71265 -387.7555 
L 271.71265 -55.1155 
L 274.245176 -55.1155 
L 274.245176 -387.7555 
L 274.245176 -387.7555 
L 271.71265 -387.7555 
z
"/>
    </defs>
    <g clip-path="url(#pb62af22703)">
     <use xlink:href="#mdee6b9f26a" x="0" y="398.34866" style="fill: #1b9e77; fill-opacity: 0.2"/>
    </g>
   </g>
   <g id="PolyCollection_86">
    <defs>
     <path id="m430b0ba459" d="M 274.245176 -387.7555 
L 274.245176 -55.1155 
L 276.777703 -55.1155 
L 276.777703 -387.7555 
L 276.777703 -387.7555 
L 274.245176 -387.7555 
z
"/>
    </defs>
    <g clip-path="url(#pb62af22703)">
     <use xlink:href="#m430b0ba459" x="0" y="398.34866" style="fill: #d95f02; fill-opacity: 0.2"/>
    </g>
   </g>
   <g id="PolyCollection_87">
    <defs>
     <path id="m7f96cde5d9" d="M 276.777703 -387.7555 
L 276.777703 -55.1155 
L 279.310229 -55.1155 
L 279.310229 -387.7555 
L 279.310229 -387.7555 
L 276.777703 -387.7555 
z
"/>
    </defs>
    <g clip-path="url(#pb62af22703)">
     <use xlink:href="#m7f96cde5d9" x="0" y="398.34866" style="fill: #d95f02; fill-opacity: 0.2"/>
    </g>
   </g>
   <g id="PolyCollection_88">
    <defs>
     <path id="m5782f29eb7" d="M 279.310229 -387.7555 
L 279.310229 -55.1155 
L 281.842756 -55.1155 
L 281.842756 -387.7555 
L 281.842756 -387.7555 
L 279.310229 -387.7555 
z
"/>
    </defs>
    <g clip-path="url(#pb62af22703)">
     <use xlink:href="#m5782f29eb7" x="0" y="398.34866" style="fill: #d95f02; fill-opacity: 0.2"/>
    </g>
   </g>
   <g id="PolyCollection_89">
    <defs>
     <path id="ma3484b92af" d="M 281.842756 -387.7555 
L 281.842756 -55.1155 
L 284.375282 -55.1155 
L 284.375282 -387.7555 
L 284.375282 -387.7555 
L 281.842756 -387.7555 
z
"/>
    </defs>
    <g clip-path="url(#pb62af22703)">
     <use xlink:href="#ma3484b92af" x="0" y="398.34866" style="fill: #d95f02; fill-opacity: 0.2"/>
    </g>
   </g>
   <g id="PolyCollection_90">
    <defs>
     <path id="m0b1e0f4e14" d="M 284.375282 -387.7555 
L 284.375282 -55.1155 
L 286.907809 -55.1155 
L 286.907809 -387.7555 
L 286.907809 -387.7555 
L 284.375282 -387.7555 
z
"/>
    </defs>
    <g clip-path="url(#pb62af22703)">
     <use xlink:href="#m0b1e0f4e14" x="0" y="398.34866" style="fill: #d95f02; fill-opacity: 0.2"/>
    </g>
   </g>
   <g id="PolyCollection_91">
    <defs>
     <path id="m479d41aff2" d="M 286.907809 -387.7555 
L 286.907809 -55.1155 
L 289.440335 -55.1155 
L 289.440335 -387.7555 
L 289.440335 -387.7555 
L 286.907809 -387.7555 
z
"/>
    </defs>
    <g clip-path="url(#pb62af22703)">
     <use xlink:href="#m479d41aff2" x="0" y="398.34866" style="fill: #d95f02; fill-opacity: 0.2"/>
    </g>
   </g>
   <g id="PolyCollection_92">
    <defs>
     <path id="m7ffa8b3055" d="M 289.440335 -387.7555 
L 289.440335 -55.1155 
L 291.972862 -55.1155 
L 291.972862 -387.7555 
L 291.972862 -387.7555 
L 289.440335 -387.7555 
z
"/>
    </defs>
    <g clip-path="url(#pb62af22703)">
     <use xlink:href="#m7ffa8b3055" x="0" y="398.34866" style="fill: #1b9e77; fill-opacity: 0.2"/>
    </g>
   </g>
   <g id="PolyCollection_93">
    <defs>
     <path id="m7f51e4d089" d="M 291.972862 -387.7555 
L 291.972862 -55.1155 
L 294.505388 -55.1155 
L 294.505388 -387.7555 
L 294.505388 -387.7555 
L 291.972862 -387.7555 
z
"/>
    </defs>
    <g clip-path="url(#pb62af22703)">
     <use xlink:href="#m7f51e4d089" x="0" y="398.34866" style="fill: #1b9e77; fill-opacity: 0.2"/>
    </g>
   </g>
   <g id="PolyCollection_94">
    <defs>
     <path id="m37bdf3f38e" d="M 294.505388 -387.7555 
L 294.505388 -55.1155 
L 297.037915 -55.1155 
L 297.037915 -387.7555 
L 297.037915 -387.7555 
L 294.505388 -387.7555 
z
"/>
    </defs>
    <g clip-path="url(#pb62af22703)">
     <use xlink:href="#m37bdf3f38e" x="0" y="398.34866" style="fill: #1b9e77; fill-opacity: 0.2"/>
    </g>
   </g>
   <g id="PolyCollection_95">
    <defs>
     <path id="m127ef0c955" d="M 297.037915 -387.7555 
L 297.037915 -55.1155 
L 299.570441 -55.1155 
L 299.570441 -387.7555 
L 299.570441 -387.7555 
L 297.037915 -387.7555 
z
"/>
    </defs>
    <g clip-path="url(#pb62af22703)">
     <use xlink:href="#m127ef0c955" x="0" y="398.34866" style="fill: #1b9e77; fill-opacity: 0.2"/>
    </g>
   </g>
   <g id="PolyCollection_96">
    <defs>
     <path id="m61550273d6" d="M 299.570441 -387.7555 
L 299.570441 -55.1155 
L 302.102967 -55.1155 
L 302.102967 -387.7555 
L 302.102967 -387.7555 
L 299.570441 -387.7555 
z
"/>
    </defs>
    <g clip-path="url(#pb62af22703)">
     <use xlink:href="#m61550273d6" x="0" y="398.34866" style="fill: #d95f02; fill-opacity: 0.2"/>
    </g>
   </g>
   <g id="PolyCollection_97">
    <defs>
     <path id="mc6918ad730" d="M 302.102967 -387.7555 
L 302.102967 -55.1155 
L 304.635494 -55.1155 
L 304.635494 -387.7555 
L 304.635494 -387.7555 
L 302.102967 -387.7555 
z
"/>
    </defs>
    <g clip-path="url(#pb62af22703)">
     <use xlink:href="#mc6918ad730" x="0" y="398.34866" style="fill: #1b9e77; fill-opacity: 0.2"/>
    </g>
   </g>
   <g id="PolyCollection_98">
    <defs>
     <path id="m61c1670de4" d="M 304.635494 -387.7555 
L 304.635494 -55.1155 
L 307.16802 -55.1155 
L 307.16802 -387.7555 
L 307.16802 -387.7555 
L 304.635494 -387.7555 
z
"/>
    </defs>
    <g clip-path="url(#pb62af22703)">
     <use xlink:href="#m61c1670de4" x="0" y="398.34866" style="fill: #d95f02; fill-opacity: 0.2"/>
    </g>
   </g>
   <g id="PolyCollection_99">
    <defs>
     <path id="m483bf7494b" d="M 307.16802 -387.7555 
L 307.16802 -55.1155 
L 309.700547 -55.1155 
L 309.700547 -387.7555 
L 309.700547 -387.7555 
L 307.16802 -387.7555 
z
"/>
    </defs>
    <g clip-path="url(#pb62af22703)">
     <use xlink:href="#m483bf7494b" x="0" y="398.34866" style="fill: #1b9e77; fill-opacity: 0.2"/>
    </g>
   </g>
   <g id="PolyCollection_100">
    <defs>
     <path id="mfef23bdd42" d="M 309.700547 -387.7555 
L 309.700547 -55.1155 
L 312.233073 -55.1155 
L 312.233073 -387.7555 
L 312.233073 -387.7555 
L 309.700547 -387.7555 
z
"/>
    </defs>
    <g clip-path="url(#pb62af22703)">
     <use xlink:href="#mfef23bdd42" x="0" y="398.34866" style="fill: #d95f02; fill-opacity: 0.2"/>
    </g>
   </g>
   <g id="PolyCollection_101">
    <defs>
     <path id="meb00ffbe8c" d="M 312.233073 -387.7555 
L 312.233073 -55.1155 
L 314.7656 -55.1155 
L 314.7656 -387.7555 
L 314.7656 -387.7555 
L 312.233073 -387.7555 
z
"/>
    </defs>
    <g clip-path="url(#pb62af22703)">
     <use xlink:href="#meb00ffbe8c" x="0" y="398.34866" style="fill: #1b9e77; fill-opacity: 0.2"/>
    </g>
   </g>
   <g id="PolyCollection_102">
    <defs>
     <path id="m715c311eb4" d="M 314.7656 -387.7555 
L 314.7656 -55.1155 
L 317.298126 -55.1155 
L 317.298126 -387.7555 
L 317.298126 -387.7555 
L 314.7656 -387.7555 
z
"/>
    </defs>
    <g clip-path="url(#pb62af22703)">
     <use xlink:href="#m715c311eb4" x="0" y="398.34866" style="fill: #d95f02; fill-opacity: 0.2"/>
    </g>
   </g>
   <g id="PolyCollection_103">
    <defs>
     <path id="m4f01a13f3d" d="M 317.298126 -387.7555 
L 317.298126 -55.1155 
L 319.830653 -55.1155 
L 319.830653 -387.7555 
L 319.830653 -387.7555 
L 317.298126 -387.7555 
z
"/>
    </defs>
    <g clip-path="url(#pb62af22703)">
     <use xlink:href="#m4f01a13f3d" x="0" y="398.34866" style="fill: #d95f02; fill-opacity: 0.2"/>
    </g>
   </g>
   <g id="PolyCollection_104">
    <defs>
     <path id="me0ca82fd02" d="M 319.830653 -387.7555 
L 319.830653 -55.1155 
L 322.363179 -55.1155 
L 322.363179 -387.7555 
L 322.363179 -387.7555 
L 319.830653 -387.7555 
z
"/>
    </defs>
    <g clip-path="url(#pb62af22703)">
     <use xlink:href="#me0ca82fd02" x="0" y="398.34866" style="fill: #d95f02; fill-opacity: 0.2"/>
    </g>
   </g>
   <g id="PolyCollection_105">
    <defs>
     <path id="m234821125d" d="M 322.363179 -387.7555 
L 322.363179 -55.1155 
L 324.895706 -55.1155 
L 324.895706 -387.7555 
L 324.895706 -387.7555 
L 322.363179 -387.7555 
z
"/>
    </defs>
    <g clip-path="url(#pb62af22703)">
     <use xlink:href="#m234821125d" x="0" y="398.34866" style="fill: #d95f02; fill-opacity: 0.2"/>
    </g>
   </g>
   <g id="PolyCollection_106">
    <defs>
     <path id="me39d010fb2" d="M 324.895706 -387.7555 
L 324.895706 -55.1155 
L 327.428232 -55.1155 
L 327.428232 -387.7555 
L 327.428232 -387.7555 
L 324.895706 -387.7555 
z
"/>
    </defs>
    <g clip-path="url(#pb62af22703)">
     <use xlink:href="#me39d010fb2" x="0" y="398.34866" style="fill: #d95f02; fill-opacity: 0.2"/>
    </g>
   </g>
   <g id="PolyCollection_107">
    <defs>
     <path id="m7f885b2ca9" d="M 327.428232 -387.7555 
L 327.428232 -55.1155 
L 329.960759 -55.1155 
L 329.960759 -387.7555 
L 329.960759 -387.7555 
L 327.428232 -387.7555 
z
"/>
    </defs>
    <g clip-path="url(#pb62af22703)">
     <use xlink:href="#m7f885b2ca9" x="0" y="398.34866" style="fill: #d95f02; fill-opacity: 0.2"/>
    </g>
   </g>
   <g id="PolyCollection_108">
    <defs>
     <path id="m3898a43fca" d="M 329.960759 -387.7555 
L 329.960759 -55.1155 
L 332.493285 -55.1155 
L 332.493285 -387.7555 
L 332.493285 -387.7555 
L 329.960759 -387.7555 
z
"/>
    </defs>
    <g clip-path="url(#pb62af22703)">
     <use xlink:href="#m3898a43fca" x="0" y="398.34866" style="fill: #d95f02; fill-opacity: 0.2"/>
    </g>
   </g>
   <g id="PolyCollection_109">
    <defs>
     <path id="m215722c06a" d="M 332.493285 -387.7555 
L 332.493285 -55.1155 
L 335.025812 -55.1155 
L 335.025812 -387.7555 
L 335.025812 -387.7555 
L 332.493285 -387.7555 
z
"/>
    </defs>
    <g clip-path="url(#pb62af22703)">
     <use xlink:href="#m215722c06a" x="0" y="398.34866" style="fill: #d95f02; fill-opacity: 0.2"/>
    </g>
   </g>
   <g id="PolyCollection_110">
    <defs>
     <path id="m13b62299e2" d="M 335.025812 -387.7555 
L 335.025812 -55.1155 
L 337.558338 -55.1155 
L 337.558338 -387.7555 
L 337.558338 -387.7555 
L 335.025812 -387.7555 
z
"/>
    </defs>
    <g clip-path="url(#pb62af22703)">
     <use xlink:href="#m13b62299e2" x="0" y="398.34866" style="fill: #1b9e77; fill-opacity: 0.2"/>
    </g>
   </g>
   <g id="PolyCollection_111">
    <defs>
     <path id="mcefb170d08" d="M 337.558338 -387.7555 
L 337.558338 -55.1155 
L 340.090865 -55.1155 
L 340.090865 -387.7555 
L 340.090865 -387.7555 
L 337.558338 -387.7555 
z
"/>
    </defs>
    <g clip-path="url(#pb62af22703)">
     <use xlink:href="#mcefb170d08" x="0" y="398.34866" style="fill: #d95f02; fill-opacity: 0.2"/>
    </g>
   </g>
   <g id="PolyCollection_112">
    <defs>
     <path id="m6a072f2142" d="M 340.090865 -387.7555 
L 340.090865 -55.1155 
L 342.623391 -55.1155 
L 342.623391 -387.7555 
L 342.623391 -387.7555 
L 340.090865 -387.7555 
z
"/>
    </defs>
    <g clip-path="url(#pb62af22703)">
     <use xlink:href="#m6a072f2142" x="0" y="398.34866" style="fill: #d95f02; fill-opacity: 0.2"/>
    </g>
   </g>
   <g id="PolyCollection_113">
    <defs>
     <path id="m583d2a5f77" d="M 342.623391 -387.7555 
L 342.623391 -55.1155 
L 345.155918 -55.1155 
L 345.155918 -387.7555 
L 345.155918 -387.7555 
L 342.623391 -387.7555 
z
"/>
    </defs>
    <g clip-path="url(#pb62af22703)">
     <use xlink:href="#m583d2a5f77" x="0" y="398.34866" style="fill: #d95f02; fill-opacity: 0.2"/>
    </g>
   </g>
   <g id="PolyCollection_114">
    <defs>
     <path id="maf5988ae80" d="M 345.155918 -387.7555 
L 345.155918 -55.1155 
L 347.688444 -55.1155 
L 347.688444 -387.7555 
L 347.688444 -387.7555 
L 345.155918 -387.7555 
z
"/>
    </defs>
    <g clip-path="url(#pb62af22703)">
     <use xlink:href="#maf5988ae80" x="0" y="398.34866" style="fill: #d95f02; fill-opacity: 0.2"/>
    </g>
   </g>
   <g id="PolyCollection_115">
    <defs>
     <path id="m3adaf83ae1" d="M 347.688444 -387.7555 
L 347.688444 -55.1155 
L 350.22097 -55.1155 
L 350.22097 -387.7555 
L 350.22097 -387.7555 
L 347.688444 -387.7555 
z
"/>
    </defs>
    <g clip-path="url(#pb62af22703)">
     <use xlink:href="#m3adaf83ae1" x="0" y="398.34866" style="fill: #d95f02; fill-opacity: 0.2"/>
    </g>
   </g>
   <g id="PolyCollection_116">
    <defs>
     <path id="mc9bbb945a0" d="M 350.22097 -387.7555 
L 350.22097 -55.1155 
L 352.753497 -55.1155 
L 352.753497 -387.7555 
L 352.753497 -387.7555 
L 350.22097 -387.7555 
z
"/>
    </defs>
    <g clip-path="url(#pb62af22703)">
     <use xlink:href="#mc9bbb945a0" x="0" y="398.34866" style="fill: #d95f02; fill-opacity: 0.2"/>
    </g>
   </g>
   <g id="PolyCollection_117">
    <defs>
     <path id="m1285da0503" d="M 352.753497 -387.7555 
L 352.753497 -55.1155 
L 355.286023 -55.1155 
L 355.286023 -387.7555 
L 355.286023 -387.7555 
L 352.753497 -387.7555 
z
"/>
    </defs>
    <g clip-path="url(#pb62af22703)">
     <use xlink:href="#m1285da0503" x="0" y="398.34866" style="fill: #1b9e77; fill-opacity: 0.2"/>
    </g>
   </g>
   <g id="PolyCollection_118">
    <defs>
     <path id="m749a328d6b" d="M 355.286023 -387.7555 
L 355.286023 -55.1155 
L 357.81855 -55.1155 
L 357.81855 -387.7555 
L 357.81855 -387.7555 
L 355.286023 -387.7555 
z
"/>
    </defs>
    <g clip-path="url(#pb62af22703)">
     <use xlink:href="#m749a328d6b" x="0" y="398.34866" style="fill: #d95f02; fill-opacity: 0.2"/>
    </g>
   </g>
   <g id="PolyCollection_119">
    <defs>
     <path id="ma3dcebaafb" d="M 357.81855 -387.7555 
L 357.81855 -55.1155 
L 360.351076 -55.1155 
L 360.351076 -387.7555 
L 360.351076 -387.7555 
L 357.81855 -387.7555 
z
"/>
    </defs>
    <g clip-path="url(#pb62af22703)">
     <use xlink:href="#ma3dcebaafb" x="0" y="398.34866" style="fill: #1b9e77; fill-opacity: 0.2"/>
    </g>
   </g>
   <g id="PolyCollection_120">
    <defs>
     <path id="mc8c2adf77b" d="M 360.351076 -387.7555 
L 360.351076 -55.1155 
L 362.883603 -55.1155 
L 362.883603 -387.7555 
L 362.883603 -387.7555 
L 360.351076 -387.7555 
z
"/>
    </defs>
    <g clip-path="url(#pb62af22703)">
     <use xlink:href="#mc8c2adf77b" x="0" y="398.34866" style="fill: #1b9e77; fill-opacity: 0.2"/>
    </g>
   </g>
   <g id="PolyCollection_121">
    <defs>
     <path id="m5e863d2011" d="M 362.883603 -387.7555 
L 362.883603 -55.1155 
L 365.416129 -55.1155 
L 365.416129 -387.7555 
L 365.416129 -387.7555 
L 362.883603 -387.7555 
z
"/>
    </defs>
    <g clip-path="url(#pb62af22703)">
     <use xlink:href="#m5e863d2011" x="0" y="398.34866" style="fill: #d95f02; fill-opacity: 0.2"/>
    </g>
   </g>
   <g id="PolyCollection_122">
    <defs>
     <path id="mb22f0e003d" d="M 365.416129 -387.7555 
L 365.416129 -55.1155 
L 367.948656 -55.1155 
L 367.948656 -387.7555 
L 367.948656 -387.7555 
L 365.416129 -387.7555 
z
"/>
    </defs>
    <g clip-path="url(#pb62af22703)">
     <use xlink:href="#mb22f0e003d" x="0" y="398.34866" style="fill: #d95f02; fill-opacity: 0.2"/>
    </g>
   </g>
   <g id="PolyCollection_123">
    <defs>
     <path id="mdd19550fed" d="M 367.948656 -387.7555 
L 367.948656 -55.1155 
L 370.481182 -55.1155 
L 370.481182 -387.7555 
L 370.481182 -387.7555 
L 367.948656 -387.7555 
z
"/>
    </defs>
    <g clip-path="url(#pb62af22703)">
     <use xlink:href="#mdd19550fed" x="0" y="398.34866" style="fill: #d95f02; fill-opacity: 0.2"/>
    </g>
   </g>
   <g id="PolyCollection_124">
    <defs>
     <path id="m145cae554d" d="M 370.481182 -387.7555 
L 370.481182 -55.1155 
L 373.013709 -55.1155 
L 373.013709 -387.7555 
L 373.013709 -387.7555 
L 370.481182 -387.7555 
z
"/>
    </defs>
    <g clip-path="url(#pb62af22703)">
     <use xlink:href="#m145cae554d" x="0" y="398.34866" style="fill: #1b9e77; fill-opacity: 0.2"/>
    </g>
   </g>
   <g id="PolyCollection_125">
    <defs>
     <path id="m02e5a4f3c6" d="M 373.013709 -387.7555 
L 373.013709 -55.1155 
L 375.546235 -55.1155 
L 375.546235 -387.7555 
L 375.546235 -387.7555 
L 373.013709 -387.7555 
z
"/>
    </defs>
    <g clip-path="url(#pb62af22703)">
     <use xlink:href="#m02e5a4f3c6" x="0" y="398.34866" style="fill: #1b9e77; fill-opacity: 0.2"/>
    </g>
   </g>
   <g id="PolyCollection_126">
    <defs>
     <path id="ma074b94aa5" d="M 375.546235 -387.7555 
L 375.546235 -55.1155 
L 378.078762 -55.1155 
L 378.078762 -387.7555 
L 378.078762 -387.7555 
L 375.546235 -387.7555 
z
"/>
    </defs>
    <g clip-path="url(#pb62af22703)">
     <use xlink:href="#ma074b94aa5" x="0" y="398.34866" style="fill: #1b9e77; fill-opacity: 0.2"/>
    </g>
   </g>
   <g id="PolyCollection_127">
    <defs>
     <path id="m8a36d1f338" d="M 378.078762 -387.7555 
L 378.078762 -55.1155 
L 380.611288 -55.1155 
L 380.611288 -387.7555 
L 380.611288 -387.7555 
L 378.078762 -387.7555 
z
"/>
    </defs>
    <g clip-path="url(#pb62af22703)">
     <use xlink:href="#m8a36d1f338" x="0" y="398.34866" style="fill: #1b9e77; fill-opacity: 0.2"/>
    </g>
   </g>
   <g id="PolyCollection_128">
    <defs>
     <path id="m16392699a7" d="M 380.611288 -387.7555 
L 380.611288 -55.1155 
L 383.143815 -55.1155 
L 383.143815 -387.7555 
L 383.143815 -387.7555 
L 380.611288 -387.7555 
z
"/>
    </defs>
    <g clip-path="url(#pb62af22703)">
     <use xlink:href="#m16392699a7" x="0" y="398.34866" style="fill: #d95f02; fill-opacity: 0.2"/>
    </g>
   </g>
   <g id="PolyCollection_129">
    <defs>
     <path id="m49ca9ccc63" d="M 383.143815 -387.7555 
L 383.143815 -55.1155 
L 385.676341 -55.1155 
L 385.676341 -387.7555 
L 385.676341 -387.7555 
L 383.143815 -387.7555 
z
"/>
    </defs>
    <g clip-path="url(#pb62af22703)">
     <use xlink:href="#m49ca9ccc63" x="0" y="398.34866" style="fill: #1b9e77; fill-opacity: 0.2"/>
    </g>
   </g>
   <g id="PolyCollection_130">
    <defs>
     <path id="ma031a582f1" d="M 385.676341 -387.7555 
L 385.676341 -55.1155 
L 388.208868 -55.1155 
L 388.208868 -387.7555 
L 388.208868 -387.7555 
L 385.676341 -387.7555 
z
"/>
    </defs>
    <g clip-path="url(#pb62af22703)">
     <use xlink:href="#ma031a582f1" x="0" y="398.34866" style="fill: #d95f02; fill-opacity: 0.2"/>
    </g>
   </g>
   <g id="PolyCollection_131">
    <defs>
     <path id="m1f099d92df" d="M 388.208868 -387.7555 
L 388.208868 -55.1155 
L 390.741394 -55.1155 
L 390.741394 -387.7555 
L 390.741394 -387.7555 
L 388.208868 -387.7555 
z
"/>
    </defs>
    <g clip-path="url(#pb62af22703)">
     <use xlink:href="#m1f099d92df" x="0" y="398.34866" style="fill: #d95f02; fill-opacity: 0.2"/>
    </g>
   </g>
   <g id="PolyCollection_132">
    <defs>
     <path id="m9fe165cd05" d="M 390.741394 -387.7555 
L 390.741394 -55.1155 
L 393.273921 -55.1155 
L 393.273921 -387.7555 
L 393.273921 -387.7555 
L 390.741394 -387.7555 
z
"/>
    </defs>
    <g clip-path="url(#pb62af22703)">
     <use xlink:href="#m9fe165cd05" x="0" y="398.34866" style="fill: #d95f02; fill-opacity: 0.2"/>
    </g>
   </g>
   <g id="PolyCollection_133">
    <defs>
     <path id="m2d7167183f" d="M 393.273921 -387.7555 
L 393.273921 -55.1155 
L 395.806447 -55.1155 
L 395.806447 -387.7555 
L 395.806447 -387.7555 
L 393.273921 -387.7555 
z
"/>
    </defs>
    <g clip-path="url(#pb62af22703)">
     <use xlink:href="#m2d7167183f" x="0" y="398.34866" style="fill: #d95f02; fill-opacity: 0.2"/>
    </g>
   </g>
   <g id="PolyCollection_134">
    <defs>
     <path id="mf293024c19" d="M 395.806447 -387.7555 
L 395.806447 -55.1155 
L 398.338974 -55.1155 
L 398.338974 -387.7555 
L 398.338974 -387.7555 
L 395.806447 -387.7555 
z
"/>
    </defs>
    <g clip-path="url(#pb62af22703)">
     <use xlink:href="#mf293024c19" x="0" y="398.34866" style="fill: #1b9e77; fill-opacity: 0.2"/>
    </g>
   </g>
   <g id="PolyCollection_135">
    <defs>
     <path id="m99080cd5f4" d="M 398.338974 -387.7555 
L 398.338974 -55.1155 
L 400.8715 -55.1155 
L 400.8715 -387.7555 
L 400.8715 -387.7555 
L 398.338974 -387.7555 
z
"/>
    </defs>
    <g clip-path="url(#pb62af22703)">
     <use xlink:href="#m99080cd5f4" x="0" y="398.34866" style="fill: #d95f02; fill-opacity: 0.2"/>
    </g>
   </g>
   <g id="matplotlib.axis_1">
    <g id="xtick_1">
     <g id="line2d_1">
      <defs>
       <path id="m5ce24fb3ac" d="M 0 0 
L 0 4.8 
" style="stroke: #000000"/>
      </defs>
      <g>
       <use xlink:href="#m5ce24fb3ac" x="66.578005" y="343.23316" style="stroke: #000000"/>
      </g>
     </g>
     <g id="text_1">
      <!-- 0 -->
      <g transform="translate(60.979005 364.90641) scale(0.176 -0.176)">
       <defs>
        <path id="DejaVuSans-30" d="M 2034 4250 
Q 1547 4250 1301 3770 
Q 1056 3291 1056 2328 
Q 1056 1369 1301 889 
Q 1547 409 2034 409 
Q 2525 409 2770 889 
Q 3016 1369 3016 2328 
Q 3016 3291 2770 3770 
Q 2525 4250 2034 4250 
z
M 2034 4750 
Q 2819 4750 3233 4129 
Q 3647 3509 3647 2328 
Q 3647 1150 3233 529 
Q 2819 -91 2034 -91 
Q 1250 -91 836 529 
Q 422 1150 422 2328 
Q 422 3509 836 4129 
Q 1250 4750 2034 4750 
z
" transform="scale(0.015625)"/>
       </defs>
       <use xlink:href="#DejaVuSans-30"/>
      </g>
     </g>
    </g>
    <g id="xtick_2">
     <g id="line2d_2">
      <g>
       <use xlink:href="#m5ce24fb3ac" x="129.891167" y="343.23316" style="stroke: #000000"/>
      </g>
     </g>
     <g id="text_2">
      <!-- 25 -->
      <g transform="translate(118.693167 364.90641) scale(0.176 -0.176)">
       <defs>
        <path id="DejaVuSans-32" d="M 1228 531 
L 3431 531 
L 3431 0 
L 469 0 
L 469 531 
Q 828 903 1448 1529 
Q 2069 2156 2228 2338 
Q 2531 2678 2651 2914 
Q 2772 3150 2772 3378 
Q 2772 3750 2511 3984 
Q 2250 4219 1831 4219 
Q 1534 4219 1204 4116 
Q 875 4013 500 3803 
L 500 4441 
Q 881 4594 1212 4672 
Q 1544 4750 1819 4750 
Q 2544 4750 2975 4387 
Q 3406 4025 3406 3419 
Q 3406 3131 3298 2873 
Q 3191 2616 2906 2266 
Q 2828 2175 2409 1742 
Q 1991 1309 1228 531 
z
" transform="scale(0.015625)"/>
        <path id="DejaVuSans-35" d="M 691 4666 
L 3169 4666 
L 3169 4134 
L 1269 4134 
L 1269 2991 
Q 1406 3038 1543 3061 
Q 1681 3084 1819 3084 
Q 2600 3084 3056 2656 
Q 3513 2228 3513 1497 
Q 3513 744 3044 326 
Q 2575 -91 1722 -91 
Q 1428 -91 1123 -41 
Q 819 9 494 109 
L 494 744 
Q 775 591 1075 516 
Q 1375 441 1709 441 
Q 2250 441 2565 725 
Q 2881 1009 2881 1497 
Q 2881 1984 2565 2268 
Q 2250 2553 1709 2553 
Q 1456 2553 1204 2497 
Q 953 2441 691 2322 
L 691 4666 
z
" transform="scale(0.015625)"/>
       </defs>
       <use xlink:href="#DejaVuSans-32"/>
       <use xlink:href="#DejaVuSans-35" x="63.623047"/>
      </g>
     </g>
    </g>
    <g id="xtick_3">
     <g id="line2d_3">
      <g>
       <use xlink:href="#m5ce24fb3ac" x="193.204329" y="343.23316" style="stroke: #000000"/>
      </g>
     </g>
     <g id="text_3">
      <!-- 50 -->
      <g transform="translate(182.006329 364.90641) scale(0.176 -0.176)">
       <use xlink:href="#DejaVuSans-35"/>
       <use xlink:href="#DejaVuSans-30" x="63.623047"/>
      </g>
     </g>
    </g>
    <g id="xtick_4">
     <g id="line2d_4">
      <g>
       <use xlink:href="#m5ce24fb3ac" x="256.517491" y="343.23316" style="stroke: #000000"/>
      </g>
     </g>
     <g id="text_4">
      <!-- 75 -->
      <g transform="translate(245.319491 364.90641) scale(0.176 -0.176)">
       <defs>
        <path id="DejaVuSans-37" d="M 525 4666 
L 3525 4666 
L 3525 4397 
L 1831 0 
L 1172 0 
L 2766 4134 
L 525 4134 
L 525 4666 
z
" transform="scale(0.015625)"/>
       </defs>
       <use xlink:href="#DejaVuSans-37"/>
       <use xlink:href="#DejaVuSans-35" x="63.623047"/>
      </g>
     </g>
    </g>
    <g id="xtick_5">
     <g id="line2d_5">
      <g>
       <use xlink:href="#m5ce24fb3ac" x="319.830653" y="343.23316" style="stroke: #000000"/>
      </g>
     </g>
     <g id="text_5">
      <!-- 100 -->
      <g transform="translate(303.033653 364.90641) scale(0.176 -0.176)">
       <defs>
        <path id="DejaVuSans-31" d="M 794 531 
L 1825 531 
L 1825 4091 
L 703 3866 
L 703 4441 
L 1819 4666 
L 2450 4666 
L 2450 531 
L 3481 531 
L 3481 0 
L 794 0 
L 794 531 
z
" transform="scale(0.015625)"/>
       </defs>
       <use xlink:href="#DejaVuSans-31"/>
       <use xlink:href="#DejaVuSans-30" x="63.623047"/>
       <use xlink:href="#DejaVuSans-30" x="127.246094"/>
      </g>
     </g>
    </g>
    <g id="xtick_6">
     <g id="line2d_6">
      <g>
       <use xlink:href="#m5ce24fb3ac" x="383.143815" y="343.23316" style="stroke: #000000"/>
      </g>
     </g>
     <g id="text_6">
      <!-- 125 -->
      <g transform="translate(366.346815 364.90641) scale(0.176 -0.176)">
       <use xlink:href="#DejaVuSans-31"/>
       <use xlink:href="#DejaVuSans-32" x="63.623047"/>
       <use xlink:href="#DejaVuSans-35" x="127.246094"/>
      </g>
     </g>
    </g>
    <g id="text_7">
     <!-- State -->
     <g transform="translate(208.06 387.15566) scale(0.192 -0.192)">
      <defs>
       <path id="DejaVuSans-53" d="M 3425 4513 
L 3425 3897 
Q 3066 4069 2747 4153 
Q 2428 4238 2131 4238 
Q 1616 4238 1336 4038 
Q 1056 3838 1056 3469 
Q 1056 3159 1242 3001 
Q 1428 2844 1947 2747 
L 2328 2669 
Q 3034 2534 3370 2195 
Q 3706 1856 3706 1288 
Q 3706 609 3251 259 
Q 2797 -91 1919 -91 
Q 1588 -91 1214 -16 
Q 841 59 441 206 
L 441 856 
Q 825 641 1194 531 
Q 1563 422 1919 422 
Q 2459 422 2753 634 
Q 3047 847 3047 1241 
Q 3047 1584 2836 1778 
Q 2625 1972 2144 2069 
L 1759 2144 
Q 1053 2284 737 2584 
Q 422 2884 422 3419 
Q 422 4038 858 4394 
Q 1294 4750 2059 4750 
Q 2388 4750 2728 4690 
Q 3069 4631 3425 4513 
z
" transform="scale(0.015625)"/>
       <path id="DejaVuSans-74" d="M 1172 4494 
L 1172 3500 
L 2356 3500 
L 2356 3053 
L 1172 3053 
L 1172 1153 
Q 1172 725 1289 603 
Q 1406 481 1766 481 
L 2356 481 
L 2356 0 
L 1766 0 
Q 1100 0 847 248 
Q 594 497 594 1153 
L 594 3053 
L 172 3053 
L 172 3500 
L 594 3500 
L 594 4494 
L 1172 4494 
z
" transform="scale(0.015625)"/>
       <path id="DejaVuSans-61" d="M 2194 1759 
Q 1497 1759 1228 1600 
Q 959 1441 959 1056 
Q 959 750 1161 570 
Q 1363 391 1709 391 
Q 2188 391 2477 730 
Q 2766 1069 2766 1631 
L 2766 1759 
L 2194 1759 
z
M 3341 1997 
L 3341 0 
L 2766 0 
L 2766 531 
Q 2569 213 2275 61 
Q 1981 -91 1556 -91 
Q 1019 -91 701 211 
Q 384 513 384 1019 
Q 384 1609 779 1909 
Q 1175 2209 1959 2209 
L 2766 2209 
L 2766 2266 
Q 2766 2663 2505 2880 
Q 2244 3097 1772 3097 
Q 1472 3097 1187 3025 
Q 903 2953 641 2809 
L 641 3341 
Q 956 3463 1253 3523 
Q 1550 3584 1831 3584 
Q 2591 3584 2966 3190 
Q 3341 2797 3341 1997 
z
" transform="scale(0.015625)"/>
       <path id="DejaVuSans-65" d="M 3597 1894 
L 3597 1613 
L 953 1613 
Q 991 1019 1311 708 
Q 1631 397 2203 397 
Q 2534 397 2845 478 
Q 3156 559 3463 722 
L 3463 178 
Q 3153 47 2828 -22 
Q 2503 -91 2169 -91 
Q 1331 -91 842 396 
Q 353 884 353 1716 
Q 353 2575 817 3079 
Q 1281 3584 2069 3584 
Q 2775 3584 3186 3129 
Q 3597 2675 3597 1894 
z
M 3022 2063 
Q 3016 2534 2758 2815 
Q 2500 3097 2075 3097 
Q 1594 3097 1305 2825 
Q 1016 2553 972 2059 
L 3022 2063 
z
" transform="scale(0.015625)"/>
      </defs>
      <use xlink:href="#DejaVuSans-53"/>
      <use xlink:href="#DejaVuSans-74" x="63.476562"/>
      <use xlink:href="#DejaVuSans-61" x="102.685547"/>
      <use xlink:href="#DejaVuSans-74" x="163.964844"/>
      <use xlink:href="#DejaVuSans-65" x="203.173828"/>
     </g>
    </g>
   </g>
   <g id="matplotlib.axis_2">
    <g id="ytick_1">
     <g id="line2d_7">
      <defs>
       <path id="m9f42ae68a6" d="M 0 0 
L -4.8 0 
" style="stroke: #000000"/>
      </defs>
      <g>
       <use xlink:href="#m9f42ae68a6" x="66.0715" y="343.23316" style="stroke: #000000"/>
      </g>
     </g>
     <g id="text_8">
      <!-- 0.0 -->
      <g transform="translate(29.782 349.919785) scale(0.176 -0.176)">
       <defs>
        <path id="DejaVuSans-2e" d="M 684 794 
L 1344 794 
L 1344 0 
L 684 0 
L 684 794 
z
" transform="scale(0.015625)"/>
       </defs>
       <use xlink:href="#DejaVuSans-30"/>
       <use xlink:href="#DejaVuSans-2e" x="63.623047"/>
       <use xlink:href="#DejaVuSans-30" x="95.410156"/>
      </g>
     </g>
    </g>
    <g id="ytick_2">
     <g id="line2d_8">
      <g>
       <use xlink:href="#m9f42ae68a6" x="66.0715" y="277.363853" style="stroke: #000000"/>
      </g>
     </g>
     <g id="text_9">
      <!-- 0.2 -->
      <g transform="translate(29.782 284.050478) scale(0.176 -0.176)">
       <use xlink:href="#DejaVuSans-30"/>
       <use xlink:href="#DejaVuSans-2e" x="63.623047"/>
       <use xlink:href="#DejaVuSans-32" x="95.410156"/>
      </g>
     </g>
    </g>
    <g id="ytick_3">
     <g id="line2d_9">
      <g>
       <use xlink:href="#m9f42ae68a6" x="66.0715" y="211.494546" style="stroke: #000000"/>
      </g>
     </g>
     <g id="text_10">
      <!-- 0.4 -->
      <g transform="translate(29.782 218.181171) scale(0.176 -0.176)">
       <defs>
        <path id="DejaVuSans-34" d="M 2419 4116 
L 825 1625 
L 2419 1625 
L 2419 4116 
z
M 2253 4666 
L 3047 4666 
L 3047 1625 
L 3713 1625 
L 3713 1100 
L 3047 1100 
L 3047 0 
L 2419 0 
L 2419 1100 
L 313 1100 
L 313 1709 
L 2253 4666 
z
" transform="scale(0.015625)"/>
       </defs>
       <use xlink:href="#DejaVuSans-30"/>
       <use xlink:href="#DejaVuSans-2e" x="63.623047"/>
       <use xlink:href="#DejaVuSans-34" x="95.410156"/>
      </g>
     </g>
    </g>
    <g id="ytick_4">
     <g id="line2d_10">
      <g>
       <use xlink:href="#m9f42ae68a6" x="66.0715" y="145.625239" style="stroke: #000000"/>
      </g>
     </g>
     <g id="text_11">
      <!-- 0.6 -->
      <g transform="translate(29.782 152.311864) scale(0.176 -0.176)">
       <defs>
        <path id="DejaVuSans-36" d="M 2113 2584 
Q 1688 2584 1439 2293 
Q 1191 2003 1191 1497 
Q 1191 994 1439 701 
Q 1688 409 2113 409 
Q 2538 409 2786 701 
Q 3034 994 3034 1497 
Q 3034 2003 2786 2293 
Q 2538 2584 2113 2584 
z
M 3366 4563 
L 3366 3988 
Q 3128 4100 2886 4159 
Q 2644 4219 2406 4219 
Q 1781 4219 1451 3797 
Q 1122 3375 1075 2522 
Q 1259 2794 1537 2939 
Q 1816 3084 2150 3084 
Q 2853 3084 3261 2657 
Q 3669 2231 3669 1497 
Q 3669 778 3244 343 
Q 2819 -91 2113 -91 
Q 1303 -91 875 529 
Q 447 1150 447 2328 
Q 447 3434 972 4092 
Q 1497 4750 2381 4750 
Q 2619 4750 2861 4703 
Q 3103 4656 3366 4563 
z
" transform="scale(0.015625)"/>
       </defs>
       <use xlink:href="#DejaVuSans-30"/>
       <use xlink:href="#DejaVuSans-2e" x="63.623047"/>
       <use xlink:href="#DejaVuSans-36" x="95.410156"/>
      </g>
     </g>
    </g>
    <g id="ytick_5">
     <g id="line2d_11">
      <g>
       <use xlink:href="#m9f42ae68a6" x="66.0715" y="79.755932" style="stroke: #000000"/>
      </g>
     </g>
     <g id="text_12">
      <!-- 0.8 -->
      <g transform="translate(29.782 86.442557) scale(0.176 -0.176)">
       <defs>
        <path id="DejaVuSans-38" d="M 2034 2216 
Q 1584 2216 1326 1975 
Q 1069 1734 1069 1313 
Q 1069 891 1326 650 
Q 1584 409 2034 409 
Q 2484 409 2743 651 
Q 3003 894 3003 1313 
Q 3003 1734 2745 1975 
Q 2488 2216 2034 2216 
z
M 1403 2484 
Q 997 2584 770 2862 
Q 544 3141 544 3541 
Q 544 4100 942 4425 
Q 1341 4750 2034 4750 
Q 2731 4750 3128 4425 
Q 3525 4100 3525 3541 
Q 3525 3141 3298 2862 
Q 3072 2584 2669 2484 
Q 3125 2378 3379 2068 
Q 3634 1759 3634 1313 
Q 3634 634 3220 271 
Q 2806 -91 2034 -91 
Q 1263 -91 848 271 
Q 434 634 434 1313 
Q 434 1759 690 2068 
Q 947 2378 1403 2484 
z
M 1172 3481 
Q 1172 3119 1398 2916 
Q 1625 2713 2034 2713 
Q 2441 2713 2670 2916 
Q 2900 3119 2900 3481 
Q 2900 3844 2670 4047 
Q 2441 4250 2034 4250 
Q 1625 4250 1398 4047 
Q 1172 3844 1172 3481 
z
" transform="scale(0.015625)"/>
       </defs>
       <use xlink:href="#DejaVuSans-30"/>
       <use xlink:href="#DejaVuSans-2e" x="63.623047"/>
       <use xlink:href="#DejaVuSans-38" x="95.410156"/>
      </g>
     </g>
    </g>
    <g id="ytick_6">
     <g id="line2d_12">
      <g>
       <use xlink:href="#m9f42ae68a6" x="66.0715" y="13.886625" style="stroke: #000000"/>
      </g>
     </g>
     <g id="text_13">
      <!-- 1.0 -->
      <g transform="translate(29.782 20.57325) scale(0.176 -0.176)">
       <use xlink:href="#DejaVuSans-31"/>
       <use xlink:href="#DejaVuSans-2e" x="63.623047"/>
       <use xlink:href="#DejaVuSans-30" x="95.410156"/>
      </g>
     </g>
    </g>
    <g id="text_14">
     <!-- Score -->
     <g transform="translate(21.789 203.79766) rotate(-90) scale(0.192 -0.192)">
      <defs>
       <path id="DejaVuSans-63" d="M 3122 3366 
L 3122 2828 
Q 2878 2963 2633 3030 
Q 2388 3097 2138 3097 
Q 1578 3097 1268 2742 
Q 959 2388 959 1747 
Q 959 1106 1268 751 
Q 1578 397 2138 397 
Q 2388 397 2633 464 
Q 2878 531 3122 666 
L 3122 134 
Q 2881 22 2623 -34 
Q 2366 -91 2075 -91 
Q 1284 -91 818 406 
Q 353 903 353 1747 
Q 353 2603 823 3093 
Q 1294 3584 2113 3584 
Q 2378 3584 2631 3529 
Q 2884 3475 3122 3366 
z
" transform="scale(0.015625)"/>
       <path id="DejaVuSans-6f" d="M 1959 3097 
Q 1497 3097 1228 2736 
Q 959 2375 959 1747 
Q 959 1119 1226 758 
Q 1494 397 1959 397 
Q 2419 397 2687 759 
Q 2956 1122 2956 1747 
Q 2956 2369 2687 2733 
Q 2419 3097 1959 3097 
z
M 1959 3584 
Q 2709 3584 3137 3096 
Q 3566 2609 3566 1747 
Q 3566 888 3137 398 
Q 2709 -91 1959 -91 
Q 1206 -91 779 398 
Q 353 888 353 1747 
Q 353 2609 779 3096 
Q 1206 3584 1959 3584 
z
" transform="scale(0.015625)"/>
       <path id="DejaVuSans-72" d="M 2631 2963 
Q 2534 3019 2420 3045 
Q 2306 3072 2169 3072 
Q 1681 3072 1420 2755 
Q 1159 2438 1159 1844 
L 1159 0 
L 581 0 
L 581 3500 
L 1159 3500 
L 1159 2956 
Q 1341 3275 1631 3429 
Q 1922 3584 2338 3584 
Q 2397 3584 2469 3576 
Q 2541 3569 2628 3553 
L 2631 2963 
z
" transform="scale(0.015625)"/>
      </defs>
      <use xlink:href="#DejaVuSans-53"/>
      <use xlink:href="#DejaVuSans-63" x="63.476562"/>
      <use xlink:href="#DejaVuSans-6f" x="118.457031"/>
      <use xlink:href="#DejaVuSans-72" x="179.638672"/>
      <use xlink:href="#DejaVuSans-65" x="218.501953"/>
     </g>
    </g>
   </g>
   <g id="line2d_13">
    <path d="M 69.110532 185.327287 
L 71.643058 185.327287 
L 74.175585 179.212494 
L 76.708111 173.842104 
L 79.240638 173.378654 
L 81.773164 172.208857 
L 84.305691 169.868803 
L 86.838217 167.427052 
L 89.370744 110.860882 
L 91.90327 89.070783 
L 94.435797 83.294366 
L 96.968323 64.891619 
L 102.033376 62.406427 
L 104.565902 62.298365 
L 107.098429 55.898939 
L 109.630955 43.613866 
L 112.163482 32.544187 
L 114.696008 22.266944 
L 119.761061 20.625173 
L 122.293588 17.28195 
L 124.826114 14.742071 
L 127.358641 13.886625 
L 129.891167 13.886625 
L 132.423694 13.886625 
L 134.95622 13.886625 
L 137.488747 13.886625 
L 140.021273 13.886625 
L 142.5538 13.886625 
L 145.086326 13.886625 
L 147.618852 13.886625 
L 157.748958 13.886625 
L 160.281485 13.886625 
L 165.346538 13.886625 
L 172.944117 13.886625 
L 175.476644 13.886625 
L 178.00917 13.886625 
L 180.541697 13.886625 
L 183.074223 13.886625 
L 188.139276 13.886625 
L 190.671803 13.886625 
L 193.204329 13.886625 
L 195.736856 13.886625 
L 198.269382 13.886625 
L 200.801908 13.886625 
L 203.334435 13.886625 
L 205.866961 13.886625 
L 208.399488 13.886625 
L 210.932014 13.886625 
L 213.464541 13.886625 
L 218.529594 13.886625 
L 221.06212 13.886625 
L 226.127173 13.886625 
L 228.6597 13.886625 
L 231.192226 13.886625 
L 233.724753 13.886625 
L 238.789806 13.886625 
L 243.854859 13.886625 
L 246.387385 13.886625 
L 248.919911 13.886625 
L 251.452438 13.886625 
L 256.517491 13.886625 
L 266.647597 13.886625 
L 269.180123 13.886625 
L 271.71265 13.886625 
L 274.245176 13.886625 
L 279.310229 13.886625 
L 281.842756 13.886625 
L 284.375282 13.886625 
L 286.907809 13.886625 
L 291.972862 13.886625 
L 294.505388 13.886625 
L 297.037915 13.886625 
L 299.570441 13.886625 
L 302.102967 13.886625 
L 304.635494 13.886625 
L 309.700547 24.243434 
L 312.233073 13.886625 
L 314.7656 13.886625 
L 317.298126 13.886625 
L 319.830653 13.886625 
L 322.363179 13.886625 
L 327.428232 13.886625 
L 329.960759 13.886625 
L 332.493285 13.886625 
L 335.025812 13.886625 
L 337.558338 13.886625 
L 340.090865 13.886625 
L 342.623391 13.886625 
L 345.155918 13.886625 
L 347.688444 13.886625 
L 355.286023 13.886625 
L 357.81855 13.886625 
L 360.351076 13.886625 
L 362.883603 13.886625 
L 365.416129 13.886625 
L 370.481182 13.886625 
L 373.013709 13.886625 
L 375.546235 13.886625 
L 378.078762 13.886625 
L 380.611288 13.886625 
L 383.143815 13.886625 
L 385.676341 13.886625 
L 388.208868 13.886625 
L 393.273921 13.886625 
L 395.806447 13.886625 
L 398.338974 14.651066 
L 400.8715 13.886625 
" clip-path="url(#pb62af22703)" style="fill: none; stroke-dasharray: 2,3.3; stroke-dashoffset: 0; stroke: #e41a1c; stroke-width: 2"/>
   </g>
   <g id="line2d_14">
    <path d="M 66.578005 343.23316 
L 69.110532 298.554366 
L 71.643058 298.554366 
L 74.175585 295.107716 
L 76.708111 295.107716 
L 79.240638 295.107716 
L 81.773164 295.107716 
L 84.305691 294.852409 
L 86.838217 294.852409 
L 89.370744 294.597102 
L 91.90327 294.469448 
L 94.435797 294.469448 
L 96.968323 294.469448 
L 102.033376 294.469448 
L 104.565902 294.341794 
L 107.098429 294.341794 
L 109.630955 294.341794 
L 112.163482 294.341794 
L 114.696008 294.341794 
L 119.761061 294.341794 
L 122.293588 294.214141 
L 124.826114 294.214141 
L 127.358641 293.958833 
L 129.891167 293.958833 
L 132.423694 293.958833 
L 134.95622 293.958833 
L 137.488747 293.958833 
L 140.021273 293.958833 
L 142.5538 293.958833 
L 145.086326 293.958833 
L 147.618852 293.958833 
L 157.748958 293.958833 
L 160.281485 293.958833 
L 165.346538 293.958833 
L 172.944117 293.958833 
L 175.476644 293.958833 
L 178.00917 293.958833 
L 180.541697 293.958833 
L 183.074223 293.958833 
L 188.139276 293.958833 
L 190.671803 293.958833 
L 193.204329 293.958833 
L 195.736856 293.958833 
L 198.269382 293.958833 
L 200.801908 293.958833 
L 203.334435 293.958833 
L 205.866961 293.958833 
L 208.399488 293.958833 
L 210.932014 293.958833 
L 213.464541 293.958833 
L 218.529594 293.958833 
L 221.06212 293.958833 
L 226.127173 293.958833 
L 228.6597 293.958833 
L 231.192226 293.958833 
L 233.724753 293.958833 
L 238.789806 293.958833 
L 243.854859 293.958833 
L 246.387385 293.958833 
L 248.919911 293.958833 
L 251.452438 293.958833 
L 256.517491 293.958833 
L 266.647597 293.958833 
L 269.180123 293.958833 
L 271.71265 293.958833 
L 274.245176 293.958833 
L 279.310229 293.958833 
L 281.842756 293.958833 
L 284.375282 293.958833 
L 286.907809 293.958833 
L 291.972862 293.958833 
L 294.505388 293.958833 
L 297.037915 293.958833 
L 299.570441 293.831179 
L 302.102967 293.831179 
L 304.635494 291.022798 
L 309.700547 284.257152 
L 312.233073 284.257152 
L 314.7656 284.129499 
L 317.298126 284.129499 
L 319.830653 284.129499 
L 322.363179 284.129499 
L 327.428232 284.129499 
L 329.960759 284.129499 
L 332.493285 284.129499 
L 335.025812 284.129499 
L 337.558338 270.342899 
L 340.090865 270.342899 
L 342.623391 270.342899 
L 345.155918 270.342899 
L 347.688444 270.342899 
L 355.286023 270.342899 
L 357.81855 270.342899 
L 360.351076 239.578359 
L 362.883603 223.749301 
L 365.416129 223.749301 
L 370.481182 223.749301 
L 373.013709 223.749301 
L 375.546235 208.686164 
L 378.078762 202.048172 
L 380.611288 50.778543 
L 383.143815 50.778543 
L 385.676341 43.75759 
L 388.208868 43.75759 
L 393.273921 43.75759 
L 395.806447 43.75759 
L 398.338974 14.014279 
L 400.8715 13.886625 
" clip-path="url(#pb62af22703)" style="fill: none; stroke-dasharray: 7.4,3.2; stroke-dashoffset: 0; stroke: #377eb8; stroke-width: 2"/>
   </g>
   <g id="line2d_15">
    <path d="M 69.110532 273.582835 
L 71.643058 273.582835 
L 74.175585 268.816831 
L 76.708111 268.277745 
L 79.240638 268.232469 
L 81.773164 268.119038 
L 84.305691 267.583259 
L 86.838217 267.35332 
L 89.370744 262.796602 
L 91.90327 261.405273 
L 94.435797 261.111504 
L 96.968323 260.244785 
L 102.033376 260.135157 
L 104.565902 259.945129 
L 107.098429 259.669249 
L 109.630955 259.168033 
L 112.163482 258.745736 
L 114.696008 258.376299 
L 119.761061 258.319176 
L 122.293588 258.011415 
L 124.826114 257.925187 
L 127.358641 257.509787 
L 129.891167 257.509787 
L 132.423694 257.509787 
L 134.95622 257.509787 
L 137.488747 257.509787 
L 140.021273 257.509787 
L 142.5538 257.509787 
L 145.086326 257.509787 
L 147.618852 257.509787 
L 157.748958 257.509787 
L 160.281485 257.509787 
L 165.346538 257.509787 
L 172.944117 257.509787 
L 175.476644 257.509787 
L 178.00917 257.509787 
L 180.541697 257.509787 
L 183.074223 257.509787 
L 188.139276 257.509787 
L 190.671803 257.509787 
L 193.204329 257.509787 
L 195.736856 257.509787 
L 198.269382 257.509787 
L 200.801908 257.509787 
L 203.334435 257.509787 
L 205.866961 257.509787 
L 208.399488 257.509787 
L 210.932014 257.509787 
L 213.464541 257.509787 
L 218.529594 257.509787 
L 221.06212 257.509787 
L 226.127173 257.509787 
L 228.6597 257.509787 
L 231.192226 257.509787 
L 233.724753 257.509787 
L 238.789806 257.509787 
L 243.854859 257.509787 
L 246.387385 257.509787 
L 248.919911 257.509787 
L 251.452438 257.509787 
L 256.517491 257.509787 
L 266.647597 257.509787 
L 269.180123 257.509787 
L 271.71265 257.509787 
L 274.245176 257.509787 
L 279.310229 257.509787 
L 281.842756 257.509787 
L 284.375282 257.509787 
L 286.907809 257.509787 
L 291.972862 257.509787 
L 294.505388 257.509787 
L 297.037915 257.509787 
L 299.570441 257.316672 
L 302.102967 257.316672 
L 304.635494 253.100853 
L 309.700547 243.685826 
L 312.233073 243.194962 
L 314.7656 243.011375 
L 317.298126 243.011375 
L 319.830653 243.011375 
L 322.363179 243.011375 
L 327.428232 243.011375 
L 329.960759 243.011375 
L 332.493285 243.011375 
L 335.025812 243.011375 
L 337.558338 223.869865 
L 340.090865 223.869865 
L 342.623391 223.869865 
L 345.155918 223.869865 
L 347.688444 223.869865 
L 355.286023 223.869865 
L 357.81855 223.869865 
L 360.351076 185.550739 
L 362.883603 167.881421 
L 365.416129 167.881421 
L 370.481182 167.881421 
L 373.013709 167.881421 
L 375.546235 152.186793 
L 378.078762 145.589499 
L 380.611288 33.426996 
L 383.143815 33.426996 
L 385.676341 29.531588 
L 388.208868 29.531588 
L 393.273921 29.531588 
L 395.806447 29.531588 
L 398.338974 14.33298 
L 400.8715 13.886625 
" clip-path="url(#pb62af22703)" style="fill: none; stroke: #984ea3; stroke-width: 3; stroke-linecap: square"/>
   </g>
   <g id="patch_3">
    <path d="M 66.0715 343.23316 
L 66.0715 10.59316 
" style="fill: none; stroke: #000000; stroke-linejoin: miter; stroke-linecap: square"/>
   </g>
   <g id="patch_4">
    <path d="M 66.0715 343.23316 
L 400.8715 343.23316 
" style="fill: none; stroke: #000000; stroke-linejoin: miter; stroke-linecap: square"/>
   </g>
   <g id="legend_1">
    <g id="patch_5">
     <path d="M 166.051125 102.17366 
L 300.891875 102.17366 
Q 304.411875 102.17366 304.411875 98.65366 
L 304.411875 22.91316 
Q 304.411875 19.39316 300.891875 19.39316 
L 166.051125 19.39316 
Q 162.531125 19.39316 162.531125 22.91316 
L 162.531125 98.65366 
Q 162.531125 102.17366 166.051125 102.17366 
z
" style="fill: #ffffff; opacity: 0.8; stroke: #cccccc; stroke-width: 0.8; stroke-linejoin: miter"/>
    </g>
    <g id="line2d_16">
     <path d="M 169.571125 33.64641 
L 187.171125 33.64641 
L 204.771125 33.64641 
" style="fill: none; stroke-dasharray: 2,3.3; stroke-dashoffset: 0; stroke: #e41a1c; stroke-width: 2"/>
    </g>
    <g id="text_15">
     <!-- Precision -->
     <g transform="translate(218.851125 39.80641) scale(0.176 -0.176)">
      <defs>
       <path id="DejaVuSans-50" d="M 1259 4147 
L 1259 2394 
L 2053 2394 
Q 2494 2394 2734 2622 
Q 2975 2850 2975 3272 
Q 2975 3691 2734 3919 
Q 2494 4147 2053 4147 
L 1259 4147 
z
M 628 4666 
L 2053 4666 
Q 2838 4666 3239 4311 
Q 3641 3956 3641 3272 
Q 3641 2581 3239 2228 
Q 2838 1875 2053 1875 
L 1259 1875 
L 1259 0 
L 628 0 
L 628 4666 
z
" transform="scale(0.015625)"/>
       <path id="DejaVuSans-69" d="M 603 3500 
L 1178 3500 
L 1178 0 
L 603 0 
L 603 3500 
z
M 603 4863 
L 1178 4863 
L 1178 4134 
L 603 4134 
L 603 4863 
z
" transform="scale(0.015625)"/>
       <path id="DejaVuSans-73" d="M 2834 3397 
L 2834 2853 
Q 2591 2978 2328 3040 
Q 2066 3103 1784 3103 
Q 1356 3103 1142 2972 
Q 928 2841 928 2578 
Q 928 2378 1081 2264 
Q 1234 2150 1697 2047 
L 1894 2003 
Q 2506 1872 2764 1633 
Q 3022 1394 3022 966 
Q 3022 478 2636 193 
Q 2250 -91 1575 -91 
Q 1294 -91 989 -36 
Q 684 19 347 128 
L 347 722 
Q 666 556 975 473 
Q 1284 391 1588 391 
Q 1994 391 2212 530 
Q 2431 669 2431 922 
Q 2431 1156 2273 1281 
Q 2116 1406 1581 1522 
L 1381 1569 
Q 847 1681 609 1914 
Q 372 2147 372 2553 
Q 372 3047 722 3315 
Q 1072 3584 1716 3584 
Q 2034 3584 2315 3537 
Q 2597 3491 2834 3397 
z
" transform="scale(0.015625)"/>
       <path id="DejaVuSans-6e" d="M 3513 2113 
L 3513 0 
L 2938 0 
L 2938 2094 
Q 2938 2591 2744 2837 
Q 2550 3084 2163 3084 
Q 1697 3084 1428 2787 
Q 1159 2491 1159 1978 
L 1159 0 
L 581 0 
L 581 3500 
L 1159 3500 
L 1159 2956 
Q 1366 3272 1645 3428 
Q 1925 3584 2291 3584 
Q 2894 3584 3203 3211 
Q 3513 2838 3513 2113 
z
" transform="scale(0.015625)"/>
      </defs>
      <use xlink:href="#DejaVuSans-50"/>
      <use xlink:href="#DejaVuSans-72" x="58.552734"/>
      <use xlink:href="#DejaVuSans-65" x="97.416016"/>
      <use xlink:href="#DejaVuSans-63" x="158.939453"/>
      <use xlink:href="#DejaVuSans-69" x="213.919922"/>
      <use xlink:href="#DejaVuSans-73" x="241.703125"/>
      <use xlink:href="#DejaVuSans-69" x="293.802734"/>
      <use xlink:href="#DejaVuSans-6f" x="321.585938"/>
      <use xlink:href="#DejaVuSans-6e" x="382.767578"/>
     </g>
    </g>
    <g id="line2d_17">
     <path d="M 169.571125 59.47991 
L 187.171125 59.47991 
L 204.771125 59.47991 
" style="fill: none; stroke-dasharray: 7.4,3.2; stroke-dashoffset: 0; stroke: #377eb8; stroke-width: 2"/>
    </g>
    <g id="text_16">
     <!-- Recall -->
     <g transform="translate(218.851125 65.63991) scale(0.176 -0.176)">
      <defs>
       <path id="DejaVuSans-52" d="M 2841 2188 
Q 3044 2119 3236 1894 
Q 3428 1669 3622 1275 
L 4263 0 
L 3584 0 
L 2988 1197 
Q 2756 1666 2539 1819 
Q 2322 1972 1947 1972 
L 1259 1972 
L 1259 0 
L 628 0 
L 628 4666 
L 2053 4666 
Q 2853 4666 3247 4331 
Q 3641 3997 3641 3322 
Q 3641 2881 3436 2590 
Q 3231 2300 2841 2188 
z
M 1259 4147 
L 1259 2491 
L 2053 2491 
Q 2509 2491 2742 2702 
Q 2975 2913 2975 3322 
Q 2975 3731 2742 3939 
Q 2509 4147 2053 4147 
L 1259 4147 
z
" transform="scale(0.015625)"/>
       <path id="DejaVuSans-6c" d="M 603 4863 
L 1178 4863 
L 1178 0 
L 603 0 
L 603 4863 
z
" transform="scale(0.015625)"/>
      </defs>
      <use xlink:href="#DejaVuSans-52"/>
      <use xlink:href="#DejaVuSans-65" x="64.982422"/>
      <use xlink:href="#DejaVuSans-63" x="126.505859"/>
      <use xlink:href="#DejaVuSans-61" x="181.486328"/>
      <use xlink:href="#DejaVuSans-6c" x="242.765625"/>
      <use xlink:href="#DejaVuSans-6c" x="270.548828"/>
     </g>
    </g>
    <g id="line2d_18">
     <path d="M 169.571125 85.31341 
L 187.171125 85.31341 
L 204.771125 85.31341 
" style="fill: none; stroke: #984ea3; stroke-width: 3; stroke-linecap: square"/>
    </g>
    <g id="text_17">
     <!-- F1 -->
     <g transform="translate(218.851125 91.47341) scale(0.176 -0.176)">
      <defs>
       <path id="DejaVuSans-46" d="M 628 4666 
L 3309 4666 
L 3309 4134 
L 1259 4134 
L 1259 2759 
L 3109 2759 
L 3109 2228 
L 1259 2228 
L 1259 0 
L 628 0 
L 628 4666 
z
" transform="scale(0.015625)"/>
      </defs>
      <use xlink:href="#DejaVuSans-46"/>
      <use xlink:href="#DejaVuSans-31" x="57.519531"/>
     </g>
    </g>
   </g>
  </g>
 </g>
 <defs>
  <clipPath id="pb62af22703">
   <rect x="66.0715" y="10.59316" width="334.8" height="332.64"/>
  </clipPath>
 </defs>
</svg>
