<?xml version="1.0" encoding="utf-8" standalone="no"?>
<!DOCTYPE svg PUBLIC "-//W3C//DTD SVG 1.1//EN"
  "http://www.w3.org/Graphics/SVG/1.1/DTD/svg11.dtd">
<svg xmlns:xlink="http://www.w3.org/1999/xlink" width="408.0715pt" height="398.34866pt" viewBox="0 0 408.0715 398.34866" xmlns="http://www.w3.org/2000/svg" version="1.1">
 <metadata>
  <rdf:RDF xmlns:dc="http://purl.org/dc/elements/1.1/" xmlns:cc="http://creativecommons.org/ns#" xmlns:rdf="http://www.w3.org/1999/02/22-rdf-syntax-ns#">
   <cc:Work>
    <dc:type rdf:resource="http://purl.org/dc/dcmitype/StillImage"/>
    <dc:date>2024-09-30T11:39:02.551025</dc:date>
    <dc:format>image/svg+xml</dc:format>
    <dc:creator>
     <cc:Agent>
      <dc:title>Matplotlib v3.8.0, https://matplotlib.org/</dc:title>
     </cc:Agent>
    </dc:creator>
   </cc:Work>
  </rdf:RDF>
 </metadata>
 <defs>
  <style type="text/css">*{stroke-linejoin: round; stroke-linecap: butt}</style>
 </defs>
 <g id="figure_1">
  <g id="patch_1">
   <path d="M 0 398.34866 
L 408.0715 398.34866 
L 408.0715 0 
L 0 0 
z
" style="fill: #ffffff"/>
  </g>
  <g id="axes_1">
   <g id="patch_2">
    <path d="M 66.0715 343.23316 
L 400.8715 343.23316 
L 400.8715 10.59316 
L 66.0715 10.59316 
z
" style="fill: #ffffff"/>
   </g>
   <g id="PolyCollection_1"/>
   <g id="PolyCollection_2"/>
   <g id="PolyCollection_3"/>
   <g id="PolyCollection_4">
    <defs>
     <path id="m2d27a8958d" d="M 67.6215 -387.7555 
L 67.6215 -55.1155 
L 75.3715 -55.1155 
L 75.3715 -387.7555 
L 75.3715 -387.7555 
L 67.6215 -387.7555 
z
"/>
    </defs>
    <g clip-path="url(#p460ae7060f)">
     <use xlink:href="#m2d27a8958d" x="0" y="398.34866" style="fill: #1b9e77; fill-opacity: 0.2"/>
    </g>
   </g>
   <g id="PolyCollection_5">
    <defs>
     <path id="md2baa053b0" d="M 75.3715 -387.7555 
L 75.3715 -55.1155 
L 83.1215 -55.1155 
L 83.1215 -387.7555 
L 83.1215 -387.7555 
L 75.3715 -387.7555 
z
"/>
    </defs>
    <g clip-path="url(#p460ae7060f)">
     <use xlink:href="#md2baa053b0" x="0" y="398.34866" style="fill: #1b9e77; fill-opacity: 0.2"/>
    </g>
   </g>
   <g id="PolyCollection_6">
    <defs>
     <path id="mcaa5034abb" d="M 83.1215 -387.7555 
L 83.1215 -55.1155 
L 90.8715 -55.1155 
L 90.8715 -387.7555 
L 90.8715 -387.7555 
L 83.1215 -387.7555 
z
"/>
    </defs>
    <g clip-path="url(#p460ae7060f)">
     <use xlink:href="#mcaa5034abb" x="0" y="398.34866" style="fill: #1b9e77; fill-opacity: 0.2"/>
    </g>
   </g>
   <g id="PolyCollection_7">
    <defs>
     <path id="mc5555509c6" d="M 90.8715 -387.7555 
L 90.8715 -55.1155 
L 98.6215 -55.1155 
L 98.6215 -387.7555 
L 98.6215 -387.7555 
L 90.8715 -387.7555 
z
"/>
    </defs>
    <g clip-path="url(#p460ae7060f)">
     <use xlink:href="#mc5555509c6" x="0" y="398.34866" style="fill: #d95f02; fill-opacity: 0.2"/>
    </g>
   </g>
   <g id="PolyCollection_8">
    <defs>
     <path id="mda7820eedd" d="M 98.6215 -387.7555 
L 98.6215 -55.1155 
L 106.3715 -55.1155 
L 106.3715 -387.7555 
L 106.3715 -387.7555 
L 98.6215 -387.7555 
z
"/>
    </defs>
    <g clip-path="url(#p460ae7060f)">
     <use xlink:href="#mda7820eedd" x="0" y="398.34866" style="fill: #d95f02; fill-opacity: 0.2"/>
    </g>
   </g>
   <g id="PolyCollection_9">
    <defs>
     <path id="mf35cae9b6a" d="M 106.3715 -387.7555 
L 106.3715 -55.1155 
L 114.1215 -55.1155 
L 114.1215 -387.7555 
L 114.1215 -387.7555 
L 106.3715 -387.7555 
z
"/>
    </defs>
    <g clip-path="url(#p460ae7060f)">
     <use xlink:href="#mf35cae9b6a" x="0" y="398.34866" style="fill: #d95f02; fill-opacity: 0.2"/>
    </g>
   </g>
   <g id="PolyCollection_10">
    <defs>
     <path id="m9982a1f786" d="M 114.1215 -387.7555 
L 114.1215 -55.1155 
L 121.8715 -55.1155 
L 121.8715 -387.7555 
L 121.8715 -387.7555 
L 114.1215 -387.7555 
z
"/>
    </defs>
    <g clip-path="url(#p460ae7060f)">
     <use xlink:href="#m9982a1f786" x="0" y="398.34866" style="fill: #d95f02; fill-opacity: 0.2"/>
    </g>
   </g>
   <g id="PolyCollection_11">
    <defs>
     <path id="m561b91c0c3" d="M 121.8715 -387.7555 
L 121.8715 -55.1155 
L 129.6215 -55.1155 
L 129.6215 -387.7555 
L 129.6215 -387.7555 
L 121.8715 -387.7555 
z
"/>
    </defs>
    <g clip-path="url(#p460ae7060f)">
     <use xlink:href="#m561b91c0c3" x="0" y="398.34866" style="fill: #d95f02; fill-opacity: 0.2"/>
    </g>
   </g>
   <g id="PolyCollection_12">
    <defs>
     <path id="m8f031f43ac" d="M 129.6215 -387.7555 
L 129.6215 -55.1155 
L 137.3715 -55.1155 
L 137.3715 -387.7555 
L 137.3715 -387.7555 
L 129.6215 -387.7555 
z
"/>
    </defs>
    <g clip-path="url(#p460ae7060f)">
     <use xlink:href="#m8f031f43ac" x="0" y="398.34866" style="fill: #1b9e77; fill-opacity: 0.2"/>
    </g>
   </g>
   <g id="PolyCollection_13">
    <defs>
     <path id="m9c487d676a" d="M 137.3715 -387.7555 
L 137.3715 -55.1155 
L 145.1215 -55.1155 
L 145.1215 -387.7555 
L 145.1215 -387.7555 
L 137.3715 -387.7555 
z
"/>
    </defs>
    <g clip-path="url(#p460ae7060f)">
     <use xlink:href="#m9c487d676a" x="0" y="398.34866" style="fill: #d95f02; fill-opacity: 0.2"/>
    </g>
   </g>
   <g id="PolyCollection_14">
    <defs>
     <path id="me220a51e28" d="M 145.1215 -387.7555 
L 145.1215 -55.1155 
L 152.8715 -55.1155 
L 152.8715 -387.7555 
L 152.8715 -387.7555 
L 145.1215 -387.7555 
z
"/>
    </defs>
    <g clip-path="url(#p460ae7060f)">
     <use xlink:href="#me220a51e28" x="0" y="398.34866" style="fill: #d95f02; fill-opacity: 0.2"/>
    </g>
   </g>
   <g id="PolyCollection_15">
    <defs>
     <path id="meeb6d3ca53" d="M 152.8715 -387.7555 
L 152.8715 -55.1155 
L 160.6215 -55.1155 
L 160.6215 -387.7555 
L 160.6215 -387.7555 
L 152.8715 -387.7555 
z
"/>
    </defs>
    <g clip-path="url(#p460ae7060f)">
     <use xlink:href="#meeb6d3ca53" x="0" y="398.34866" style="fill: #d95f02; fill-opacity: 0.2"/>
    </g>
   </g>
   <g id="PolyCollection_16">
    <defs>
     <path id="ma7369960e2" d="M 160.6215 -387.7555 
L 160.6215 -55.1155 
L 168.3715 -55.1155 
L 168.3715 -387.7555 
L 168.3715 -387.7555 
L 160.6215 -387.7555 
z
"/>
    </defs>
    <g clip-path="url(#p460ae7060f)">
     <use xlink:href="#ma7369960e2" x="0" y="398.34866" style="fill: #1b9e77; fill-opacity: 0.2"/>
    </g>
   </g>
   <g id="PolyCollection_17">
    <defs>
     <path id="mf7023ac143" d="M 168.3715 -387.7555 
L 168.3715 -55.1155 
L 176.1215 -55.1155 
L 176.1215 -387.7555 
L 176.1215 -387.7555 
L 168.3715 -387.7555 
z
"/>
    </defs>
    <g clip-path="url(#p460ae7060f)">
     <use xlink:href="#mf7023ac143" x="0" y="398.34866" style="fill: #1b9e77; fill-opacity: 0.2"/>
    </g>
   </g>
   <g id="PolyCollection_18">
    <defs>
     <path id="mea29b88c92" d="M 176.1215 -387.7555 
L 176.1215 -55.1155 
L 183.8715 -55.1155 
L 183.8715 -387.7555 
L 183.8715 -387.7555 
L 176.1215 -387.7555 
z
"/>
    </defs>
    <g clip-path="url(#p460ae7060f)">
     <use xlink:href="#mea29b88c92" x="0" y="398.34866" style="fill: #d95f02; fill-opacity: 0.2"/>
    </g>
   </g>
   <g id="PolyCollection_19">
    <defs>
     <path id="ma261b29793" d="M 183.8715 -387.7555 
L 183.8715 -55.1155 
L 191.6215 -55.1155 
L 191.6215 -387.7555 
L 191.6215 -387.7555 
L 183.8715 -387.7555 
z
"/>
    </defs>
    <g clip-path="url(#p460ae7060f)">
     <use xlink:href="#ma261b29793" x="0" y="398.34866" style="fill: #d95f02; fill-opacity: 0.2"/>
    </g>
   </g>
   <g id="PolyCollection_20">
    <defs>
     <path id="m23aac3f4ca" d="M 191.6215 -387.7555 
L 191.6215 -55.1155 
L 199.3715 -55.1155 
L 199.3715 -387.7555 
L 199.3715 -387.7555 
L 191.6215 -387.7555 
z
"/>
    </defs>
    <g clip-path="url(#p460ae7060f)">
     <use xlink:href="#m23aac3f4ca" x="0" y="398.34866" style="fill: #d95f02; fill-opacity: 0.2"/>
    </g>
   </g>
   <g id="PolyCollection_21">
    <defs>
     <path id="mbbba814dff" d="M 199.3715 -387.7555 
L 199.3715 -55.1155 
L 207.1215 -55.1155 
L 207.1215 -387.7555 
L 207.1215 -387.7555 
L 199.3715 -387.7555 
z
"/>
    </defs>
    <g clip-path="url(#p460ae7060f)">
     <use xlink:href="#mbbba814dff" x="0" y="398.34866" style="fill: #1b9e77; fill-opacity: 0.2"/>
    </g>
   </g>
   <g id="PolyCollection_22">
    <defs>
     <path id="mac0d7ab627" d="M 207.1215 -387.7555 
L 207.1215 -55.1155 
L 214.8715 -55.1155 
L 214.8715 -387.7555 
L 214.8715 -387.7555 
L 207.1215 -387.7555 
z
"/>
    </defs>
    <g clip-path="url(#p460ae7060f)">
     <use xlink:href="#mac0d7ab627" x="0" y="398.34866" style="fill: #1b9e77; fill-opacity: 0.2"/>
    </g>
   </g>
   <g id="PolyCollection_23">
    <defs>
     <path id="m1509bcb24a" d="M 214.8715 -387.7555 
L 214.8715 -55.1155 
L 222.6215 -55.1155 
L 222.6215 -387.7555 
L 222.6215 -387.7555 
L 214.8715 -387.7555 
z
"/>
    </defs>
    <g clip-path="url(#p460ae7060f)">
     <use xlink:href="#m1509bcb24a" x="0" y="398.34866" style="fill: #1b9e77; fill-opacity: 0.2"/>
    </g>
   </g>
   <g id="PolyCollection_24">
    <defs>
     <path id="maad78af922" d="M 222.6215 -387.7555 
L 222.6215 -55.1155 
L 230.3715 -55.1155 
L 230.3715 -387.7555 
L 230.3715 -387.7555 
L 222.6215 -387.7555 
z
"/>
    </defs>
    <g clip-path="url(#p460ae7060f)">
     <use xlink:href="#maad78af922" x="0" y="398.34866" style="fill: #d95f02; fill-opacity: 0.2"/>
    </g>
   </g>
   <g id="PolyCollection_25">
    <defs>
     <path id="m27f142de40" d="M 230.3715 -387.7555 
L 230.3715 -55.1155 
L 238.1215 -55.1155 
L 238.1215 -387.7555 
L 238.1215 -387.7555 
L 230.3715 -387.7555 
z
"/>
    </defs>
    <g clip-path="url(#p460ae7060f)">
     <use xlink:href="#m27f142de40" x="0" y="398.34866" style="fill: #d95f02; fill-opacity: 0.2"/>
    </g>
   </g>
   <g id="PolyCollection_26">
    <defs>
     <path id="m87aad62536" d="M 238.1215 -387.7555 
L 238.1215 -55.1155 
L 245.8715 -55.1155 
L 245.8715 -387.7555 
L 245.8715 -387.7555 
L 238.1215 -387.7555 
z
"/>
    </defs>
    <g clip-path="url(#p460ae7060f)">
     <use xlink:href="#m87aad62536" x="0" y="398.34866" style="fill: #d95f02; fill-opacity: 0.2"/>
    </g>
   </g>
   <g id="PolyCollection_27">
    <defs>
     <path id="m871f9cfee0" d="M 245.8715 -387.7555 
L 245.8715 -55.1155 
L 253.6215 -55.1155 
L 253.6215 -387.7555 
L 253.6215 -387.7555 
L 245.8715 -387.7555 
z
"/>
    </defs>
    <g clip-path="url(#p460ae7060f)">
     <use xlink:href="#m871f9cfee0" x="0" y="398.34866" style="fill: #1b9e77; fill-opacity: 0.2"/>
    </g>
   </g>
   <g id="PolyCollection_28">
    <defs>
     <path id="mfda286302c" d="M 253.6215 -387.7555 
L 253.6215 -55.1155 
L 261.3715 -55.1155 
L 261.3715 -387.7555 
L 261.3715 -387.7555 
L 253.6215 -387.7555 
z
"/>
    </defs>
    <g clip-path="url(#p460ae7060f)">
     <use xlink:href="#mfda286302c" x="0" y="398.34866" style="fill: #1b9e77; fill-opacity: 0.2"/>
    </g>
   </g>
   <g id="PolyCollection_29">
    <defs>
     <path id="mdb6e50d3f7" d="M 261.3715 -387.7555 
L 261.3715 -55.1155 
L 269.1215 -55.1155 
L 269.1215 -387.7555 
L 269.1215 -387.7555 
L 261.3715 -387.7555 
z
"/>
    </defs>
    <g clip-path="url(#p460ae7060f)">
     <use xlink:href="#mdb6e50d3f7" x="0" y="398.34866" style="fill: #d95f02; fill-opacity: 0.2"/>
    </g>
   </g>
   <g id="PolyCollection_30">
    <defs>
     <path id="mb768c359ff" d="M 269.1215 -387.7555 
L 269.1215 -55.1155 
L 276.8715 -55.1155 
L 276.8715 -387.7555 
L 276.8715 -387.7555 
L 269.1215 -387.7555 
z
"/>
    </defs>
    <g clip-path="url(#p460ae7060f)">
     <use xlink:href="#mb768c359ff" x="0" y="398.34866" style="fill: #d95f02; fill-opacity: 0.2"/>
    </g>
   </g>
   <g id="PolyCollection_31">
    <defs>
     <path id="mf0ae7362b2" d="M 276.8715 -387.7555 
L 276.8715 -55.1155 
L 284.6215 -55.1155 
L 284.6215 -387.7555 
L 284.6215 -387.7555 
L 276.8715 -387.7555 
z
"/>
    </defs>
    <g clip-path="url(#p460ae7060f)">
     <use xlink:href="#mf0ae7362b2" x="0" y="398.34866" style="fill: #1b9e77; fill-opacity: 0.2"/>
    </g>
   </g>
   <g id="PolyCollection_32">
    <defs>
     <path id="mee5f279007" d="M 284.6215 -387.7555 
L 284.6215 -55.1155 
L 292.3715 -55.1155 
L 292.3715 -387.7555 
L 292.3715 -387.7555 
L 284.6215 -387.7555 
z
"/>
    </defs>
    <g clip-path="url(#p460ae7060f)">
     <use xlink:href="#mee5f279007" x="0" y="398.34866" style="fill: #d95f02; fill-opacity: 0.2"/>
    </g>
   </g>
   <g id="PolyCollection_33">
    <defs>
     <path id="m7ac726f7de" d="M 292.3715 -387.7555 
L 292.3715 -55.1155 
L 300.1215 -55.1155 
L 300.1215 -387.7555 
L 300.1215 -387.7555 
L 292.3715 -387.7555 
z
"/>
    </defs>
    <g clip-path="url(#p460ae7060f)">
     <use xlink:href="#m7ac726f7de" x="0" y="398.34866" style="fill: #1b9e77; fill-opacity: 0.2"/>
    </g>
   </g>
   <g id="PolyCollection_34">
    <defs>
     <path id="mcc407c7ca8" d="M 300.1215 -387.7555 
L 300.1215 -55.1155 
L 307.8715 -55.1155 
L 307.8715 -387.7555 
L 307.8715 -387.7555 
L 300.1215 -387.7555 
z
"/>
    </defs>
    <g clip-path="url(#p460ae7060f)">
     <use xlink:href="#mcc407c7ca8" x="0" y="398.34866" style="fill: #1b9e77; fill-opacity: 0.2"/>
    </g>
   </g>
   <g id="PolyCollection_35">
    <defs>
     <path id="m778ff6ef99" d="M 307.8715 -387.7555 
L 307.8715 -55.1155 
L 315.6215 -55.1155 
L 315.6215 -387.7555 
L 315.6215 -387.7555 
L 307.8715 -387.7555 
z
"/>
    </defs>
    <g clip-path="url(#p460ae7060f)">
     <use xlink:href="#m778ff6ef99" x="0" y="398.34866" style="fill: #1b9e77; fill-opacity: 0.2"/>
    </g>
   </g>
   <g id="PolyCollection_36">
    <defs>
     <path id="m31d213eaa6" d="M 315.6215 -387.7555 
L 315.6215 -55.1155 
L 323.3715 -55.1155 
L 323.3715 -387.7555 
L 323.3715 -387.7555 
L 315.6215 -387.7555 
z
"/>
    </defs>
    <g clip-path="url(#p460ae7060f)">
     <use xlink:href="#m31d213eaa6" x="0" y="398.34866" style="fill: #1b9e77; fill-opacity: 0.2"/>
    </g>
   </g>
   <g id="PolyCollection_37">
    <defs>
     <path id="m6c05963347" d="M 323.3715 -387.7555 
L 323.3715 -55.1155 
L 331.1215 -55.1155 
L 331.1215 -387.7555 
L 331.1215 -387.7555 
L 323.3715 -387.7555 
z
"/>
    </defs>
    <g clip-path="url(#p460ae7060f)">
     <use xlink:href="#m6c05963347" x="0" y="398.34866" style="fill: #1b9e77; fill-opacity: 0.2"/>
    </g>
   </g>
   <g id="PolyCollection_38">
    <defs>
     <path id="m3bd865b597" d="M 331.1215 -387.7555 
L 331.1215 -55.1155 
L 338.8715 -55.1155 
L 338.8715 -387.7555 
L 338.8715 -387.7555 
L 331.1215 -387.7555 
z
"/>
    </defs>
    <g clip-path="url(#p460ae7060f)">
     <use xlink:href="#m3bd865b597" x="0" y="398.34866" style="fill: #1b9e77; fill-opacity: 0.2"/>
    </g>
   </g>
   <g id="PolyCollection_39">
    <defs>
     <path id="m5c04091a88" d="M 338.8715 -387.7555 
L 338.8715 -55.1155 
L 346.6215 -55.1155 
L 346.6215 -387.7555 
L 346.6215 -387.7555 
L 338.8715 -387.7555 
z
"/>
    </defs>
    <g clip-path="url(#p460ae7060f)">
     <use xlink:href="#m5c04091a88" x="0" y="398.34866" style="fill: #1b9e77; fill-opacity: 0.2"/>
    </g>
   </g>
   <g id="PolyCollection_40">
    <defs>
     <path id="m7ef547b622" d="M 346.6215 -387.7555 
L 346.6215 -55.1155 
L 354.3715 -55.1155 
L 354.3715 -387.7555 
L 354.3715 -387.7555 
L 346.6215 -387.7555 
z
"/>
    </defs>
    <g clip-path="url(#p460ae7060f)">
     <use xlink:href="#m7ef547b622" x="0" y="398.34866" style="fill: #1b9e77; fill-opacity: 0.2"/>
    </g>
   </g>
   <g id="PolyCollection_41">
    <defs>
     <path id="m870aa2ab7c" d="M 354.3715 -387.7555 
L 354.3715 -55.1155 
L 362.1215 -55.1155 
L 362.1215 -387.7555 
L 362.1215 -387.7555 
L 354.3715 -387.7555 
z
"/>
    </defs>
    <g clip-path="url(#p460ae7060f)">
     <use xlink:href="#m870aa2ab7c" x="0" y="398.34866" style="fill: #1b9e77; fill-opacity: 0.2"/>
    </g>
   </g>
   <g id="PolyCollection_42">
    <defs>
     <path id="m383f2b381b" d="M 362.1215 -387.7555 
L 362.1215 -55.1155 
L 369.8715 -55.1155 
L 369.8715 -387.7555 
L 369.8715 -387.7555 
L 362.1215 -387.7555 
z
"/>
    </defs>
    <g clip-path="url(#p460ae7060f)">
     <use xlink:href="#m383f2b381b" x="0" y="398.34866" style="fill: #d95f02; fill-opacity: 0.2"/>
    </g>
   </g>
   <g id="PolyCollection_43">
    <defs>
     <path id="m8488d4b6c4" d="M 369.8715 -387.7555 
L 369.8715 -55.1155 
L 377.6215 -55.1155 
L 377.6215 -387.7555 
L 377.6215 -387.7555 
L 369.8715 -387.7555 
z
"/>
    </defs>
    <g clip-path="url(#p460ae7060f)">
     <use xlink:href="#m8488d4b6c4" x="0" y="398.34866" style="fill: #1b9e77; fill-opacity: 0.2"/>
    </g>
   </g>
   <g id="PolyCollection_44">
    <defs>
     <path id="m2e570e2510" d="M 377.6215 -387.7555 
L 377.6215 -55.1155 
L 385.3715 -55.1155 
L 385.3715 -387.7555 
L 385.3715 -387.7555 
L 377.6215 -387.7555 
z
"/>
    </defs>
    <g clip-path="url(#p460ae7060f)">
     <use xlink:href="#m2e570e2510" x="0" y="398.34866" style="fill: #1b9e77; fill-opacity: 0.2"/>
    </g>
   </g>
   <g id="PolyCollection_45">
    <defs>
     <path id="m5a334cc4d0" d="M 385.3715 -387.7555 
L 385.3715 -55.1155 
L 393.1215 -55.1155 
L 393.1215 -387.7555 
L 393.1215 -387.7555 
L 385.3715 -387.7555 
z
"/>
    </defs>
    <g clip-path="url(#p460ae7060f)">
     <use xlink:href="#m5a334cc4d0" x="0" y="398.34866" style="fill: #d95f02; fill-opacity: 0.2"/>
    </g>
   </g>
   <g id="PolyCollection_46">
    <defs>
     <path id="m952b872470" d="M 393.1215 -387.7555 
L 393.1215 -55.1155 
L 400.8715 -55.1155 
L 400.8715 -387.7555 
L 400.8715 -387.7555 
L 393.1215 -387.7555 
z
"/>
    </defs>
    <g clip-path="url(#p460ae7060f)">
     <use xlink:href="#m952b872470" x="0" y="398.34866" style="fill: #1b9e77; fill-opacity: 0.2"/>
    </g>
   </g>
   <g id="PolyCollection_47">
    <defs>
     <path id="m3fa67c7806" d="M 400.8715 -387.7555 
L 400.8715 -55.1155 
L 408.6215 -55.1155 
L 408.6215 -387.7555 
L 408.6215 -387.7555 
L 400.8715 -387.7555 
z
"/>
    </defs>
    <g clip-path="url(#p460ae7060f)">
     <use xlink:href="#m3fa67c7806" x="0" y="398.34866" style="fill: #1b9e77; fill-opacity: 0.2"/>
    </g>
   </g>
   <g id="PolyCollection_48">
    <defs>
     <path id="m8e92ba4216" d="M 408.6215 -387.7555 
L 408.6215 -55.1155 
L 416.3715 -55.1155 
L 416.3715 -387.7555 
L 416.3715 -387.7555 
L 408.6215 -387.7555 
z
"/>
    </defs>
    <g clip-path="url(#p460ae7060f)">
     <use xlink:href="#m8e92ba4216" x="0" y="398.34866" style="fill: #d95f02; fill-opacity: 0.2"/>
    </g>
   </g>
   <g id="PolyCollection_49">
    <defs>
     <path id="m7f30bb5cef" d="M 416.3715 -387.7555 
L 416.3715 -55.1155 
L 424.1215 -55.1155 
L 424.1215 -387.7555 
L 424.1215 -387.7555 
L 416.3715 -387.7555 
z
"/>
    </defs>
    <g clip-path="url(#p460ae7060f)">
     <use xlink:href="#m7f30bb5cef" x="0" y="398.34866" style="fill: #d95f02; fill-opacity: 0.2"/>
    </g>
   </g>
   <g id="PolyCollection_50">
    <defs>
     <path id="m4b7ed9c504" d="M 424.1215 -387.7555 
L 424.1215 -55.1155 
L 431.8715 -55.1155 
L 431.8715 -387.7555 
L 431.8715 -387.7555 
L 424.1215 -387.7555 
z
"/>
    </defs>
    <g clip-path="url(#p460ae7060f)">
     <use xlink:href="#m4b7ed9c504" x="0" y="398.34866" style="fill: #1b9e77; fill-opacity: 0.2"/>
    </g>
   </g>
   <g id="PolyCollection_51">
    <defs>
     <path id="m5b8e429fdc" d="M 431.8715 -387.7555 
L 431.8715 -55.1155 
L 439.6215 -55.1155 
L 439.6215 -387.7555 
L 439.6215 -387.7555 
L 431.8715 -387.7555 
z
"/>
    </defs>
    <g clip-path="url(#p460ae7060f)">
     <use xlink:href="#m5b8e429fdc" x="0" y="398.34866" style="fill: #1b9e77; fill-opacity: 0.2"/>
    </g>
   </g>
   <g id="PolyCollection_52">
    <defs>
     <path id="ma6c616e15e" d="M 439.6215 -387.7555 
L 439.6215 -55.1155 
L 447.3715 -55.1155 
L 447.3715 -387.7555 
L 447.3715 -387.7555 
L 439.6215 -387.7555 
z
"/>
    </defs>
    <g clip-path="url(#p460ae7060f)">
     <use xlink:href="#ma6c616e15e" x="0" y="398.34866" style="fill: #d95f02; fill-opacity: 0.2"/>
    </g>
   </g>
   <g id="PolyCollection_53">
    <defs>
     <path id="m756201891e" d="M 447.3715 -387.7555 
L 447.3715 -55.1155 
L 455.1215 -55.1155 
L 455.1215 -387.7555 
L 455.1215 -387.7555 
L 447.3715 -387.7555 
z
"/>
    </defs>
    <g clip-path="url(#p460ae7060f)">
     <use xlink:href="#m756201891e" x="0" y="398.34866" style="fill: #1b9e77; fill-opacity: 0.2"/>
    </g>
   </g>
   <g id="PolyCollection_54">
    <defs>
     <path id="m5d82220244" d="M 455.1215 -387.7555 
L 455.1215 -55.1155 
L 462.8715 -55.1155 
L 462.8715 -387.7555 
L 462.8715 -387.7555 
L 455.1215 -387.7555 
z
"/>
    </defs>
    <g clip-path="url(#p460ae7060f)">
     <use xlink:href="#m5d82220244" x="0" y="398.34866" style="fill: #1b9e77; fill-opacity: 0.2"/>
    </g>
   </g>
   <g id="PolyCollection_55">
    <defs>
     <path id="m039dc7b062" d="M 462.8715 -387.7555 
L 462.8715 -55.1155 
L 470.6215 -55.1155 
L 470.6215 -387.7555 
L 470.6215 -387.7555 
L 462.8715 -387.7555 
z
"/>
    </defs>
    <g clip-path="url(#p460ae7060f)">
     <use xlink:href="#m039dc7b062" x="0" y="398.34866" style="fill: #1b9e77; fill-opacity: 0.2"/>
    </g>
   </g>
   <g id="PolyCollection_56">
    <defs>
     <path id="m39ca97e8a8" d="M 470.6215 -387.7555 
L 470.6215 -55.1155 
L 478.3715 -55.1155 
L 478.3715 -387.7555 
L 478.3715 -387.7555 
L 470.6215 -387.7555 
z
"/>
    </defs>
    <g clip-path="url(#p460ae7060f)">
     <use xlink:href="#m39ca97e8a8" x="0" y="398.34866" style="fill: #1b9e77; fill-opacity: 0.2"/>
    </g>
   </g>
   <g id="PolyCollection_57">
    <defs>
     <path id="m9bb1c22629" d="M 478.3715 -387.7555 
L 478.3715 -55.1155 
L 486.1215 -55.1155 
L 486.1215 -387.7555 
L 486.1215 -387.7555 
L 478.3715 -387.7555 
z
"/>
    </defs>
    <g clip-path="url(#p460ae7060f)">
     <use xlink:href="#m9bb1c22629" x="0" y="398.34866" style="fill: #d95f02; fill-opacity: 0.2"/>
    </g>
   </g>
   <g id="PolyCollection_58">
    <defs>
     <path id="m11d70dd1c2" d="M 486.1215 -387.7555 
L 486.1215 -55.1155 
L 493.8715 -55.1155 
L 493.8715 -387.7555 
L 493.8715 -387.7555 
L 486.1215 -387.7555 
z
"/>
    </defs>
    <g clip-path="url(#p460ae7060f)">
     <use xlink:href="#m11d70dd1c2" x="0" y="398.34866" style="fill: #1b9e77; fill-opacity: 0.2"/>
    </g>
   </g>
   <g id="matplotlib.axis_1">
    <g id="xtick_1">
     <g id="line2d_1">
      <defs>
       <path id="m5435933468" d="M 0 0 
L 0 4.8 
" style="stroke: #000000"/>
      </defs>
      <g>
       <use xlink:href="#m5435933468" x="67.6215" y="343.23316" style="stroke: #000000"/>
      </g>
     </g>
     <g id="text_1">
      <!-- 0 -->
      <g transform="translate(62.0225 364.90641) scale(0.176 -0.176)">
       <defs>
        <path id="DejaVuSans-30" d="M 2034 4250 
Q 1547 4250 1301 3770 
Q 1056 3291 1056 2328 
Q 1056 1369 1301 889 
Q 1547 409 2034 409 
Q 2525 409 2770 889 
Q 3016 1369 3016 2328 
Q 3016 3291 2770 3770 
Q 2525 4250 2034 4250 
z
M 2034 4750 
Q 2819 4750 3233 4129 
Q 3647 3509 3647 2328 
Q 3647 1150 3233 529 
Q 2819 -91 2034 -91 
Q 1250 -91 836 529 
Q 422 1150 422 2328 
Q 422 3509 836 4129 
Q 1250 4750 2034 4750 
z
" transform="scale(0.015625)"/>
       </defs>
       <use xlink:href="#DejaVuSans-30"/>
      </g>
     </g>
    </g>
    <g id="xtick_2">
     <g id="line2d_2">
      <g>
       <use xlink:href="#m5435933468" x="145.1215" y="343.23316" style="stroke: #000000"/>
      </g>
     </g>
     <g id="text_2">
      <!-- 10 -->
      <g transform="translate(133.9235 364.90641) scale(0.176 -0.176)">
       <defs>
        <path id="DejaVuSans-31" d="M 794 531 
L 1825 531 
L 1825 4091 
L 703 3866 
L 703 4441 
L 1819 4666 
L 2450 4666 
L 2450 531 
L 3481 531 
L 3481 0 
L 794 0 
L 794 531 
z
" transform="scale(0.015625)"/>
       </defs>
       <use xlink:href="#DejaVuSans-31"/>
       <use xlink:href="#DejaVuSans-30" x="63.623047"/>
      </g>
     </g>
    </g>
    <g id="xtick_3">
     <g id="line2d_3">
      <g>
       <use xlink:href="#m5435933468" x="222.6215" y="343.23316" style="stroke: #000000"/>
      </g>
     </g>
     <g id="text_3">
      <!-- 20 -->
      <g transform="translate(211.4235 364.90641) scale(0.176 -0.176)">
       <defs>
        <path id="DejaVuSans-32" d="M 1228 531 
L 3431 531 
L 3431 0 
L 469 0 
L 469 531 
Q 828 903 1448 1529 
Q 2069 2156 2228 2338 
Q 2531 2678 2651 2914 
Q 2772 3150 2772 3378 
Q 2772 3750 2511 3984 
Q 2250 4219 1831 4219 
Q 1534 4219 1204 4116 
Q 875 4013 500 3803 
L 500 4441 
Q 881 4594 1212 4672 
Q 1544 4750 1819 4750 
Q 2544 4750 2975 4387 
Q 3406 4025 3406 3419 
Q 3406 3131 3298 2873 
Q 3191 2616 2906 2266 
Q 2828 2175 2409 1742 
Q 1991 1309 1228 531 
z
" transform="scale(0.015625)"/>
       </defs>
       <use xlink:href="#DejaVuSans-32"/>
       <use xlink:href="#DejaVuSans-30" x="63.623047"/>
      </g>
     </g>
    </g>
    <g id="xtick_4">
     <g id="line2d_4">
      <g>
       <use xlink:href="#m5435933468" x="300.1215" y="343.23316" style="stroke: #000000"/>
      </g>
     </g>
     <g id="text_4">
      <!-- 30 -->
      <g transform="translate(288.9235 364.90641) scale(0.176 -0.176)">
       <defs>
        <path id="DejaVuSans-33" d="M 2597 2516 
Q 3050 2419 3304 2112 
Q 3559 1806 3559 1356 
Q 3559 666 3084 287 
Q 2609 -91 1734 -91 
Q 1441 -91 1130 -33 
Q 819 25 488 141 
L 488 750 
Q 750 597 1062 519 
Q 1375 441 1716 441 
Q 2309 441 2620 675 
Q 2931 909 2931 1356 
Q 2931 1769 2642 2001 
Q 2353 2234 1838 2234 
L 1294 2234 
L 1294 2753 
L 1863 2753 
Q 2328 2753 2575 2939 
Q 2822 3125 2822 3475 
Q 2822 3834 2567 4026 
Q 2313 4219 1838 4219 
Q 1578 4219 1281 4162 
Q 984 4106 628 3988 
L 628 4550 
Q 988 4650 1302 4700 
Q 1616 4750 1894 4750 
Q 2613 4750 3031 4423 
Q 3450 4097 3450 3541 
Q 3450 3153 3228 2886 
Q 3006 2619 2597 2516 
z
" transform="scale(0.015625)"/>
       </defs>
       <use xlink:href="#DejaVuSans-33"/>
       <use xlink:href="#DejaVuSans-30" x="63.623047"/>
      </g>
     </g>
    </g>
    <g id="xtick_5">
     <g id="line2d_5">
      <g>
       <use xlink:href="#m5435933468" x="377.6215" y="343.23316" style="stroke: #000000"/>
      </g>
     </g>
     <g id="text_5">
      <!-- 40 -->
      <g transform="translate(366.4235 364.90641) scale(0.176 -0.176)">
       <defs>
        <path id="DejaVuSans-34" d="M 2419 4116 
L 825 1625 
L 2419 1625 
L 2419 4116 
z
M 2253 4666 
L 3047 4666 
L 3047 1625 
L 3713 1625 
L 3713 1100 
L 3047 1100 
L 3047 0 
L 2419 0 
L 2419 1100 
L 313 1100 
L 313 1709 
L 2253 4666 
z
" transform="scale(0.015625)"/>
       </defs>
       <use xlink:href="#DejaVuSans-34"/>
       <use xlink:href="#DejaVuSans-30" x="63.623047"/>
      </g>
     </g>
    </g>
    <g id="text_6">
     <!-- State -->
     <g transform="translate(208.06 387.15566) scale(0.192 -0.192)">
      <defs>
       <path id="DejaVuSans-53" d="M 3425 4513 
L 3425 3897 
Q 3066 4069 2747 4153 
Q 2428 4238 2131 4238 
Q 1616 4238 1336 4038 
Q 1056 3838 1056 3469 
Q 1056 3159 1242 3001 
Q 1428 2844 1947 2747 
L 2328 2669 
Q 3034 2534 3370 2195 
Q 3706 1856 3706 1288 
Q 3706 609 3251 259 
Q 2797 -91 1919 -91 
Q 1588 -91 1214 -16 
Q 841 59 441 206 
L 441 856 
Q 825 641 1194 531 
Q 1563 422 1919 422 
Q 2459 422 2753 634 
Q 3047 847 3047 1241 
Q 3047 1584 2836 1778 
Q 2625 1972 2144 2069 
L 1759 2144 
Q 1053 2284 737 2584 
Q 422 2884 422 3419 
Q 422 4038 858 4394 
Q 1294 4750 2059 4750 
Q 2388 4750 2728 4690 
Q 3069 4631 3425 4513 
z
" transform="scale(0.015625)"/>
       <path id="DejaVuSans-74" d="M 1172 4494 
L 1172 3500 
L 2356 3500 
L 2356 3053 
L 1172 3053 
L 1172 1153 
Q 1172 725 1289 603 
Q 1406 481 1766 481 
L 2356 481 
L 2356 0 
L 1766 0 
Q 1100 0 847 248 
Q 594 497 594 1153 
L 594 3053 
L 172 3053 
L 172 3500 
L 594 3500 
L 594 4494 
L 1172 4494 
z
" transform="scale(0.015625)"/>
       <path id="DejaVuSans-61" d="M 2194 1759 
Q 1497 1759 1228 1600 
Q 959 1441 959 1056 
Q 959 750 1161 570 
Q 1363 391 1709 391 
Q 2188 391 2477 730 
Q 2766 1069 2766 1631 
L 2766 1759 
L 2194 1759 
z
M 3341 1997 
L 3341 0 
L 2766 0 
L 2766 531 
Q 2569 213 2275 61 
Q 1981 -91 1556 -91 
Q 1019 -91 701 211 
Q 384 513 384 1019 
Q 384 1609 779 1909 
Q 1175 2209 1959 2209 
L 2766 2209 
L 2766 2266 
Q 2766 2663 2505 2880 
Q 2244 3097 1772 3097 
Q 1472 3097 1187 3025 
Q 903 2953 641 2809 
L 641 3341 
Q 956 3463 1253 3523 
Q 1550 3584 1831 3584 
Q 2591 3584 2966 3190 
Q 3341 2797 3341 1997 
z
" transform="scale(0.015625)"/>
       <path id="DejaVuSans-65" d="M 3597 1894 
L 3597 1613 
L 953 1613 
Q 991 1019 1311 708 
Q 1631 397 2203 397 
Q 2534 397 2845 478 
Q 3156 559 3463 722 
L 3463 178 
Q 3153 47 2828 -22 
Q 2503 -91 2169 -91 
Q 1331 -91 842 396 
Q 353 884 353 1716 
Q 353 2575 817 3079 
Q 1281 3584 2069 3584 
Q 2775 3584 3186 3129 
Q 3597 2675 3597 1894 
z
M 3022 2063 
Q 3016 2534 2758 2815 
Q 2500 3097 2075 3097 
Q 1594 3097 1305 2825 
Q 1016 2553 972 2059 
L 3022 2063 
z
" transform="scale(0.015625)"/>
      </defs>
      <use xlink:href="#DejaVuSans-53"/>
      <use xlink:href="#DejaVuSans-74" x="63.476562"/>
      <use xlink:href="#DejaVuSans-61" x="102.685547"/>
      <use xlink:href="#DejaVuSans-74" x="163.964844"/>
      <use xlink:href="#DejaVuSans-65" x="203.173828"/>
     </g>
    </g>
   </g>
   <g id="matplotlib.axis_2">
    <g id="ytick_1">
     <g id="line2d_6">
      <defs>
       <path id="m4fd929305a" d="M 0 0 
L -4.8 0 
" style="stroke: #000000"/>
      </defs>
      <g>
       <use xlink:href="#m4fd929305a" x="66.0715" y="343.23316" style="stroke: #000000"/>
      </g>
     </g>
     <g id="text_7">
      <!-- 0.0 -->
      <g transform="translate(29.782 349.919785) scale(0.176 -0.176)">
       <defs>
        <path id="DejaVuSans-2e" d="M 684 794 
L 1344 794 
L 1344 0 
L 684 0 
L 684 794 
z
" transform="scale(0.015625)"/>
       </defs>
       <use xlink:href="#DejaVuSans-30"/>
       <use xlink:href="#DejaVuSans-2e" x="63.623047"/>
       <use xlink:href="#DejaVuSans-30" x="95.410156"/>
      </g>
     </g>
    </g>
    <g id="ytick_2">
     <g id="line2d_7">
      <g>
       <use xlink:href="#m4fd929305a" x="66.0715" y="277.363853" style="stroke: #000000"/>
      </g>
     </g>
     <g id="text_8">
      <!-- 0.2 -->
      <g transform="translate(29.782 284.050478) scale(0.176 -0.176)">
       <use xlink:href="#DejaVuSans-30"/>
       <use xlink:href="#DejaVuSans-2e" x="63.623047"/>
       <use xlink:href="#DejaVuSans-32" x="95.410156"/>
      </g>
     </g>
    </g>
    <g id="ytick_3">
     <g id="line2d_8">
      <g>
       <use xlink:href="#m4fd929305a" x="66.0715" y="211.494546" style="stroke: #000000"/>
      </g>
     </g>
     <g id="text_9">
      <!-- 0.4 -->
      <g transform="translate(29.782 218.181171) scale(0.176 -0.176)">
       <use xlink:href="#DejaVuSans-30"/>
       <use xlink:href="#DejaVuSans-2e" x="63.623047"/>
       <use xlink:href="#DejaVuSans-34" x="95.410156"/>
      </g>
     </g>
    </g>
    <g id="ytick_4">
     <g id="line2d_9">
      <g>
       <use xlink:href="#m4fd929305a" x="66.0715" y="145.625239" style="stroke: #000000"/>
      </g>
     </g>
     <g id="text_10">
      <!-- 0.6 -->
      <g transform="translate(29.782 152.311864) scale(0.176 -0.176)">
       <defs>
        <path id="DejaVuSans-36" d="M 2113 2584 
Q 1688 2584 1439 2293 
Q 1191 2003 1191 1497 
Q 1191 994 1439 701 
Q 1688 409 2113 409 
Q 2538 409 2786 701 
Q 3034 994 3034 1497 
Q 3034 2003 2786 2293 
Q 2538 2584 2113 2584 
z
M 3366 4563 
L 3366 3988 
Q 3128 4100 2886 4159 
Q 2644 4219 2406 4219 
Q 1781 4219 1451 3797 
Q 1122 3375 1075 2522 
Q 1259 2794 1537 2939 
Q 1816 3084 2150 3084 
Q 2853 3084 3261 2657 
Q 3669 2231 3669 1497 
Q 3669 778 3244 343 
Q 2819 -91 2113 -91 
Q 1303 -91 875 529 
Q 447 1150 447 2328 
Q 447 3434 972 4092 
Q 1497 4750 2381 4750 
Q 2619 4750 2861 4703 
Q 3103 4656 3366 4563 
z
" transform="scale(0.015625)"/>
       </defs>
       <use xlink:href="#DejaVuSans-30"/>
       <use xlink:href="#DejaVuSans-2e" x="63.623047"/>
       <use xlink:href="#DejaVuSans-36" x="95.410156"/>
      </g>
     </g>
    </g>
    <g id="ytick_5">
     <g id="line2d_10">
      <g>
       <use xlink:href="#m4fd929305a" x="66.0715" y="79.755932" style="stroke: #000000"/>
      </g>
     </g>
     <g id="text_11">
      <!-- 0.8 -->
      <g transform="translate(29.782 86.442557) scale(0.176 -0.176)">
       <defs>
        <path id="DejaVuSans-38" d="M 2034 2216 
Q 1584 2216 1326 1975 
Q 1069 1734 1069 1313 
Q 1069 891 1326 650 
Q 1584 409 2034 409 
Q 2484 409 2743 651 
Q 3003 894 3003 1313 
Q 3003 1734 2745 1975 
Q 2488 2216 2034 2216 
z
M 1403 2484 
Q 997 2584 770 2862 
Q 544 3141 544 3541 
Q 544 4100 942 4425 
Q 1341 4750 2034 4750 
Q 2731 4750 3128 4425 
Q 3525 4100 3525 3541 
Q 3525 3141 3298 2862 
Q 3072 2584 2669 2484 
Q 3125 2378 3379 2068 
Q 3634 1759 3634 1313 
Q 3634 634 3220 271 
Q 2806 -91 2034 -91 
Q 1263 -91 848 271 
Q 434 634 434 1313 
Q 434 1759 690 2068 
Q 947 2378 1403 2484 
z
M 1172 3481 
Q 1172 3119 1398 2916 
Q 1625 2713 2034 2713 
Q 2441 2713 2670 2916 
Q 2900 3119 2900 3481 
Q 2900 3844 2670 4047 
Q 2441 4250 2034 4250 
Q 1625 4250 1398 4047 
Q 1172 3844 1172 3481 
z
" transform="scale(0.015625)"/>
       </defs>
       <use xlink:href="#DejaVuSans-30"/>
       <use xlink:href="#DejaVuSans-2e" x="63.623047"/>
       <use xlink:href="#DejaVuSans-38" x="95.410156"/>
      </g>
     </g>
    </g>
    <g id="ytick_6">
     <g id="line2d_11">
      <g>
       <use xlink:href="#m4fd929305a" x="66.0715" y="13.886625" style="stroke: #000000"/>
      </g>
     </g>
     <g id="text_12">
      <!-- 1.0 -->
      <g transform="translate(29.782 20.57325) scale(0.176 -0.176)">
       <use xlink:href="#DejaVuSans-31"/>
       <use xlink:href="#DejaVuSans-2e" x="63.623047"/>
       <use xlink:href="#DejaVuSans-30" x="95.410156"/>
      </g>
     </g>
    </g>
    <g id="text_13">
     <!-- Score -->
     <g transform="translate(21.789 203.79766) rotate(-90) scale(0.192 -0.192)">
      <defs>
       <path id="DejaVuSans-63" d="M 3122 3366 
L 3122 2828 
Q 2878 2963 2633 3030 
Q 2388 3097 2138 3097 
Q 1578 3097 1268 2742 
Q 959 2388 959 1747 
Q 959 1106 1268 751 
Q 1578 397 2138 397 
Q 2388 397 2633 464 
Q 2878 531 3122 666 
L 3122 134 
Q 2881 22 2623 -34 
Q 2366 -91 2075 -91 
Q 1284 -91 818 406 
Q 353 903 353 1747 
Q 353 2603 823 3093 
Q 1294 3584 2113 3584 
Q 2378 3584 2631 3529 
Q 2884 3475 3122 3366 
z
" transform="scale(0.015625)"/>
       <path id="DejaVuSans-6f" d="M 1959 3097 
Q 1497 3097 1228 2736 
Q 959 2375 959 1747 
Q 959 1119 1226 758 
Q 1494 397 1959 397 
Q 2419 397 2687 759 
Q 2956 1122 2956 1747 
Q 2956 2369 2687 2733 
Q 2419 3097 1959 3097 
z
M 1959 3584 
Q 2709 3584 3137 3096 
Q 3566 2609 3566 1747 
Q 3566 888 3137 398 
Q 2709 -91 1959 -91 
Q 1206 -91 779 398 
Q 353 888 353 1747 
Q 353 2609 779 3096 
Q 1206 3584 1959 3584 
z
" transform="scale(0.015625)"/>
       <path id="DejaVuSans-72" d="M 2631 2963 
Q 2534 3019 2420 3045 
Q 2306 3072 2169 3072 
Q 1681 3072 1420 2755 
Q 1159 2438 1159 1844 
L 1159 0 
L 581 0 
L 581 3500 
L 1159 3500 
L 1159 2956 
Q 1341 3275 1631 3429 
Q 1922 3584 2338 3584 
Q 2397 3584 2469 3576 
Q 2541 3569 2628 3553 
L 2631 2963 
z
" transform="scale(0.015625)"/>
      </defs>
      <use xlink:href="#DejaVuSans-53"/>
      <use xlink:href="#DejaVuSans-63" x="63.476562"/>
      <use xlink:href="#DejaVuSans-6f" x="118.457031"/>
      <use xlink:href="#DejaVuSans-72" x="179.638672"/>
      <use xlink:href="#DejaVuSans-65" x="218.501953"/>
     </g>
    </g>
   </g>
   <g id="line2d_12">
    <path d="M 67.6215 328.111412 
L 75.3715 328.111412 
L 83.1215 328.111412 
L 90.8715 326.893487 
L 98.6215 326.893487 
L 106.3715 140.558369 
L 114.1215 140.558369 
L 121.8715 135.061293 
L 129.6215 108.486162 
L 137.3715 108.486162 
L 160.6215 108.486162 
L 168.3715 97.77678 
L 176.1215 96.99276 
L 191.6215 13.886625 
L 199.3715 13.886625 
L 207.1215 13.886625 
L 214.8715 13.886625 
L 222.6215 13.886625 
L 245.8715 13.886625 
L 253.6215 13.886625 
L 261.3715 22.172072 
L 269.1215 15.984374 
L 276.8715 13.886625 
L 284.6215 13.886625 
L 300.1215 13.886625 
L 307.8715 13.886625 
L 315.6215 13.886625 
L 323.3715 13.886625 
L 331.1215 13.886625 
L 338.8715 13.886625 
L 362.1215 13.886625 
L 377.6215 13.886625 
L 385.3715 13.886625 
L 393.1215 13.886625 
L 400.8715 13.886625 
L 408.6215 13.886625 
L 409.0715 13.886625 
" clip-path="url(#p460ae7060f)" style="fill: none; stroke-dasharray: 2,3.3; stroke-dashoffset: 0; stroke: #e41a1c; stroke-width: 2"/>
   </g>
   <g id="line2d_13">
    <path d="M 67.6215 250.702467 
L 75.3715 250.702467 
L 83.1215 250.702467 
L 90.8715 242.860882 
L 98.6215 242.860882 
L 106.3715 242.860882 
L 114.1215 242.860882 
L 121.8715 238.155932 
L 129.6215 238.155932 
L 137.3715 238.155932 
L 160.6215 238.155932 
L 168.3715 219.33613 
L 176.1215 217.767813 
L 191.6215 216.199496 
L 199.3715 216.199496 
L 207.1215 211.494546 
L 214.8715 211.494546 
L 222.6215 202.084645 
L 245.8715 202.084645 
L 253.6215 191.106427 
L 261.3715 100.144051 
L 269.1215 98.575734 
L 276.8715 98.575734 
L 284.6215 97.007417 
L 300.1215 97.007417 
L 307.8715 97.007417 
L 315.6215 97.007417 
L 323.3715 97.007417 
L 331.1215 97.007417 
L 338.8715 97.007417 
L 362.1215 38.979694 
L 377.6215 38.979694 
L 385.3715 37.411377 
L 393.1215 37.411377 
L 400.8715 35.843061 
L 408.6215 35.843061 
L 409.0715 35.751997 
" clip-path="url(#p460ae7060f)" style="fill: none; stroke-dasharray: 7.4,3.2; stroke-dashoffset: 0; stroke: #377eb8; stroke-width: 2"/>
   </g>
   <g id="line2d_14">
    <path d="M 67.6215 317.237915 
L 75.3715 317.237915 
L 83.1215 317.237915 
L 90.8715 315.128922 
L 98.6215 315.128922 
L 106.3715 208.977247 
L 114.1215 208.977247 
L 121.8715 203.573553 
L 129.6215 198.060674 
L 137.3715 198.060674 
L 160.6215 198.060674 
L 168.3715 178.559892 
L 176.1215 177.00147 
L 191.6215 159.885604 
L 199.3715 159.885604 
L 207.1215 155.03514 
L 214.8715 155.03514 
L 222.6215 145.625239 
L 245.8715 145.625239 
L 253.6215 135.111897 
L 261.3715 66.546369 
L 269.1215 63.243735 
L 276.8715 62.478737 
L 284.6215 61.448931 
L 300.1215 61.448931 
L 307.8715 61.448931 
L 315.6215 61.448931 
L 323.3715 61.448931 
L 331.1215 61.448931 
L 338.8715 61.448931 
L 362.1215 26.930052 
L 377.6215 26.930052 
L 385.3715 26.084645 
L 393.1215 26.084645 
L 400.8715 25.243402 
L 408.6215 25.243402 
L 409.0715 25.194796 
" clip-path="url(#p460ae7060f)" style="fill: none; stroke: #984ea3; stroke-width: 3; stroke-linecap: square"/>
   </g>
   <g id="patch_3">
    <path d="M 66.0715 343.23316 
L 66.0715 10.59316 
" style="fill: none; stroke: #000000; stroke-linejoin: miter; stroke-linecap: square"/>
   </g>
   <g id="patch_4">
    <path d="M 66.0715 343.23316 
L 400.8715 343.23316 
" style="fill: none; stroke: #000000; stroke-linejoin: miter; stroke-linecap: square"/>
   </g>
   <g id="legend_1">
    <g id="patch_5">
     <path d="M 253.71075 334.43316 
L 388.5515 334.43316 
Q 392.0715 334.43316 392.0715 330.91316 
L 392.0715 255.17266 
Q 392.0715 251.65266 388.5515 251.65266 
L 253.71075 251.65266 
Q 250.19075 251.65266 250.19075 255.17266 
L 250.19075 330.91316 
Q 250.19075 334.43316 253.71075 334.43316 
z
" style="fill: #ffffff; opacity: 0.8; stroke: #cccccc; stroke-width: 0.8; stroke-linejoin: miter"/>
    </g>
    <g id="line2d_15">
     <path d="M 257.23075 265.90591 
L 274.83075 265.90591 
L 292.43075 265.90591 
" style="fill: none; stroke-dasharray: 2,3.3; stroke-dashoffset: 0; stroke: #e41a1c; stroke-width: 2"/>
    </g>
    <g id="text_14">
     <!-- Precision -->
     <g transform="translate(306.51075 272.06591) scale(0.176 -0.176)">
      <defs>
       <path id="DejaVuSans-50" d="M 1259 4147 
L 1259 2394 
L 2053 2394 
Q 2494 2394 2734 2622 
Q 2975 2850 2975 3272 
Q 2975 3691 2734 3919 
Q 2494 4147 2053 4147 
L 1259 4147 
z
M 628 4666 
L 2053 4666 
Q 2838 4666 3239 4311 
Q 3641 3956 3641 3272 
Q 3641 2581 3239 2228 
Q 2838 1875 2053 1875 
L 1259 1875 
L 1259 0 
L 628 0 
L 628 4666 
z
" transform="scale(0.015625)"/>
       <path id="DejaVuSans-69" d="M 603 3500 
L 1178 3500 
L 1178 0 
L 603 0 
L 603 3500 
z
M 603 4863 
L 1178 4863 
L 1178 4134 
L 603 4134 
L 603 4863 
z
" transform="scale(0.015625)"/>
       <path id="DejaVuSans-73" d="M 2834 3397 
L 2834 2853 
Q 2591 2978 2328 3040 
Q 2066 3103 1784 3103 
Q 1356 3103 1142 2972 
Q 928 2841 928 2578 
Q 928 2378 1081 2264 
Q 1234 2150 1697 2047 
L 1894 2003 
Q 2506 1872 2764 1633 
Q 3022 1394 3022 966 
Q 3022 478 2636 193 
Q 2250 -91 1575 -91 
Q 1294 -91 989 -36 
Q 684 19 347 128 
L 347 722 
Q 666 556 975 473 
Q 1284 391 1588 391 
Q 1994 391 2212 530 
Q 2431 669 2431 922 
Q 2431 1156 2273 1281 
Q 2116 1406 1581 1522 
L 1381 1569 
Q 847 1681 609 1914 
Q 372 2147 372 2553 
Q 372 3047 722 3315 
Q 1072 3584 1716 3584 
Q 2034 3584 2315 3537 
Q 2597 3491 2834 3397 
z
" transform="scale(0.015625)"/>
       <path id="DejaVuSans-6e" d="M 3513 2113 
L 3513 0 
L 2938 0 
L 2938 2094 
Q 2938 2591 2744 2837 
Q 2550 3084 2163 3084 
Q 1697 3084 1428 2787 
Q 1159 2491 1159 1978 
L 1159 0 
L 581 0 
L 581 3500 
L 1159 3500 
L 1159 2956 
Q 1366 3272 1645 3428 
Q 1925 3584 2291 3584 
Q 2894 3584 3203 3211 
Q 3513 2838 3513 2113 
z
" transform="scale(0.015625)"/>
      </defs>
      <use xlink:href="#DejaVuSans-50"/>
      <use xlink:href="#DejaVuSans-72" x="58.552734"/>
      <use xlink:href="#DejaVuSans-65" x="97.416016"/>
      <use xlink:href="#DejaVuSans-63" x="158.939453"/>
      <use xlink:href="#DejaVuSans-69" x="213.919922"/>
      <use xlink:href="#DejaVuSans-73" x="241.703125"/>
      <use xlink:href="#DejaVuSans-69" x="293.802734"/>
      <use xlink:href="#DejaVuSans-6f" x="321.585938"/>
      <use xlink:href="#DejaVuSans-6e" x="382.767578"/>
     </g>
    </g>
    <g id="line2d_16">
     <path d="M 257.23075 291.73941 
L 274.83075 291.73941 
L 292.43075 291.73941 
" style="fill: none; stroke-dasharray: 7.4,3.2; stroke-dashoffset: 0; stroke: #377eb8; stroke-width: 2"/>
    </g>
    <g id="text_15">
     <!-- Recall -->
     <g transform="translate(306.51075 297.89941) scale(0.176 -0.176)">
      <defs>
       <path id="DejaVuSans-52" d="M 2841 2188 
Q 3044 2119 3236 1894 
Q 3428 1669 3622 1275 
L 4263 0 
L 3584 0 
L 2988 1197 
Q 2756 1666 2539 1819 
Q 2322 1972 1947 1972 
L 1259 1972 
L 1259 0 
L 628 0 
L 628 4666 
L 2053 4666 
Q 2853 4666 3247 4331 
Q 3641 3997 3641 3322 
Q 3641 2881 3436 2590 
Q 3231 2300 2841 2188 
z
M 1259 4147 
L 1259 2491 
L 2053 2491 
Q 2509 2491 2742 2702 
Q 2975 2913 2975 3322 
Q 2975 3731 2742 3939 
Q 2509 4147 2053 4147 
L 1259 4147 
z
" transform="scale(0.015625)"/>
       <path id="DejaVuSans-6c" d="M 603 4863 
L 1178 4863 
L 1178 0 
L 603 0 
L 603 4863 
z
" transform="scale(0.015625)"/>
      </defs>
      <use xlink:href="#DejaVuSans-52"/>
      <use xlink:href="#DejaVuSans-65" x="64.982422"/>
      <use xlink:href="#DejaVuSans-63" x="126.505859"/>
      <use xlink:href="#DejaVuSans-61" x="181.486328"/>
      <use xlink:href="#DejaVuSans-6c" x="242.765625"/>
      <use xlink:href="#DejaVuSans-6c" x="270.548828"/>
     </g>
    </g>
    <g id="line2d_17">
     <path d="M 257.23075 317.57291 
L 274.83075 317.57291 
L 292.43075 317.57291 
" style="fill: none; stroke: #984ea3; stroke-width: 3; stroke-linecap: square"/>
    </g>
    <g id="text_16">
     <!-- F1 -->
     <g transform="translate(306.51075 323.73291) scale(0.176 -0.176)">
      <defs>
       <path id="DejaVuSans-46" d="M 628 4666 
L 3309 4666 
L 3309 4134 
L 1259 4134 
L 1259 2759 
L 3109 2759 
L 3109 2228 
L 1259 2228 
L 1259 0 
L 628 0 
L 628 4666 
z
" transform="scale(0.015625)"/>
      </defs>
      <use xlink:href="#DejaVuSans-46"/>
      <use xlink:href="#DejaVuSans-31" x="57.519531"/>
     </g>
    </g>
   </g>
  </g>
 </g>
 <defs>
  <clipPath id="p460ae7060f">
   <rect x="66.0715" y="10.59316" width="334.8" height="332.64"/>
  </clipPath>
 </defs>
</svg>
