<?xml version="1.0" encoding="utf-8" standalone="no"?>
<!DOCTYPE svg PUBLIC "-//W3C//DTD SVG 1.1//EN"
  "http://www.w3.org/Graphics/SVG/1.1/DTD/svg11.dtd">
<svg xmlns:xlink="http://www.w3.org/1999/xlink" width="408.0715pt" height="398.34866pt" viewBox="0 0 408.0715 398.34866" xmlns="http://www.w3.org/2000/svg" version="1.1">
 <metadata>
  <rdf:RDF xmlns:dc="http://purl.org/dc/elements/1.1/" xmlns:cc="http://creativecommons.org/ns#" xmlns:rdf="http://www.w3.org/1999/02/22-rdf-syntax-ns#">
   <cc:Work>
    <dc:type rdf:resource="http://purl.org/dc/dcmitype/StillImage"/>
    <dc:date>2024-10-01T11:03:50.836450</dc:date>
    <dc:format>image/svg+xml</dc:format>
    <dc:creator>
     <cc:Agent>
      <dc:title>Matplotlib v3.8.0, https://matplotlib.org/</dc:title>
     </cc:Agent>
    </dc:creator>
   </cc:Work>
  </rdf:RDF>
 </metadata>
 <defs>
  <style type="text/css">*{stroke-linejoin: round; stroke-linecap: butt}</style>
 </defs>
 <g id="figure_1">
  <g id="patch_1">
   <path d="M 0 398.34866 
L 408.0715 398.34866 
L 408.0715 0 
L 0 0 
z
" style="fill: #ffffff"/>
  </g>
  <g id="axes_1">
   <g id="patch_2">
    <path d="M 66.0715 343.23316 
L 400.8715 343.23316 
L 400.8715 10.59316 
L 66.0715 10.59316 
z
" style="fill: #ffffff"/>
   </g>
   <g id="PolyCollection_1"/>
   <g id="PolyCollection_2"/>
   <g id="PolyCollection_3"/>
   <g id="PolyCollection_4">
    <defs>
     <path id="mbe87534873" d="M 66.486885 -387.7555 
L 66.486885 -55.1155 
L 68.563808 -55.1155 
L 68.563808 -387.7555 
L 68.563808 -387.7555 
L 66.486885 -387.7555 
z
"/>
    </defs>
    <g clip-path="url(#pb4092cd714)">
     <use xlink:href="#mbe87534873" x="0" y="398.34866" style="fill: #d95f02; fill-opacity: 0.2"/>
    </g>
   </g>
   <g id="PolyCollection_5">
    <defs>
     <path id="m40c065c1f1" d="M 68.563808 -387.7555 
L 68.563808 -55.1155 
L 70.640731 -55.1155 
L 70.640731 -387.7555 
L 70.640731 -387.7555 
L 68.563808 -387.7555 
z
"/>
    </defs>
    <g clip-path="url(#pb4092cd714)">
     <use xlink:href="#m40c065c1f1" x="0" y="398.34866" style="fill: #d95f02; fill-opacity: 0.2"/>
    </g>
   </g>
   <g id="PolyCollection_6">
    <defs>
     <path id="m5b214f66df" d="M 70.640731 -387.7555 
L 70.640731 -55.1155 
L 72.717654 -55.1155 
L 72.717654 -387.7555 
L 72.717654 -387.7555 
L 70.640731 -387.7555 
z
"/>
    </defs>
    <g clip-path="url(#pb4092cd714)">
     <use xlink:href="#m5b214f66df" x="0" y="398.34866" style="fill: #d95f02; fill-opacity: 0.2"/>
    </g>
   </g>
   <g id="PolyCollection_7">
    <defs>
     <path id="m998e805614" d="M 72.717654 -387.7555 
L 72.717654 -55.1155 
L 74.794577 -55.1155 
L 74.794577 -387.7555 
L 74.794577 -387.7555 
L 72.717654 -387.7555 
z
"/>
    </defs>
    <g clip-path="url(#pb4092cd714)">
     <use xlink:href="#m998e805614" x="0" y="398.34866" style="fill: #d95f02; fill-opacity: 0.2"/>
    </g>
   </g>
   <g id="PolyCollection_8">
    <defs>
     <path id="me9c16f1527" d="M 74.794577 -387.7555 
L 74.794577 -55.1155 
L 76.8715 -55.1155 
L 76.8715 -387.7555 
L 76.8715 -387.7555 
L 74.794577 -387.7555 
z
"/>
    </defs>
    <g clip-path="url(#pb4092cd714)">
     <use xlink:href="#me9c16f1527" x="0" y="398.34866" style="fill: #1b9e77; fill-opacity: 0.2"/>
    </g>
   </g>
   <g id="PolyCollection_9">
    <defs>
     <path id="m7eab6294e8" d="M 76.8715 -387.7555 
L 76.8715 -55.1155 
L 78.948423 -55.1155 
L 78.948423 -387.7555 
L 78.948423 -387.7555 
L 76.8715 -387.7555 
z
"/>
    </defs>
    <g clip-path="url(#pb4092cd714)">
     <use xlink:href="#m7eab6294e8" x="0" y="398.34866" style="fill: #1b9e77; fill-opacity: 0.2"/>
    </g>
   </g>
   <g id="PolyCollection_10">
    <defs>
     <path id="m676b50cc30" d="M 78.948423 -387.7555 
L 78.948423 -55.1155 
L 81.025346 -55.1155 
L 81.025346 -387.7555 
L 81.025346 -387.7555 
L 78.948423 -387.7555 
z
"/>
    </defs>
    <g clip-path="url(#pb4092cd714)">
     <use xlink:href="#m676b50cc30" x="0" y="398.34866" style="fill: #d95f02; fill-opacity: 0.2"/>
    </g>
   </g>
   <g id="PolyCollection_11">
    <defs>
     <path id="mde7a5be16b" d="M 81.025346 -387.7555 
L 81.025346 -55.1155 
L 83.102269 -55.1155 
L 83.102269 -387.7555 
L 83.102269 -387.7555 
L 81.025346 -387.7555 
z
"/>
    </defs>
    <g clip-path="url(#pb4092cd714)">
     <use xlink:href="#mde7a5be16b" x="0" y="398.34866" style="fill: #1b9e77; fill-opacity: 0.2"/>
    </g>
   </g>
   <g id="PolyCollection_12">
    <defs>
     <path id="m252dc0e333" d="M 83.102269 -387.7555 
L 83.102269 -55.1155 
L 85.179192 -55.1155 
L 85.179192 -387.7555 
L 85.179192 -387.7555 
L 83.102269 -387.7555 
z
"/>
    </defs>
    <g clip-path="url(#pb4092cd714)">
     <use xlink:href="#m252dc0e333" x="0" y="398.34866" style="fill: #d95f02; fill-opacity: 0.2"/>
    </g>
   </g>
   <g id="PolyCollection_13">
    <defs>
     <path id="mf974377d53" d="M 85.179192 -387.7555 
L 85.179192 -55.1155 
L 87.256115 -55.1155 
L 87.256115 -387.7555 
L 87.256115 -387.7555 
L 85.179192 -387.7555 
z
"/>
    </defs>
    <g clip-path="url(#pb4092cd714)">
     <use xlink:href="#mf974377d53" x="0" y="398.34866" style="fill: #1b9e77; fill-opacity: 0.2"/>
    </g>
   </g>
   <g id="PolyCollection_14">
    <defs>
     <path id="m608f23aac3" d="M 87.256115 -387.7555 
L 87.256115 -55.1155 
L 89.333038 -55.1155 
L 89.333038 -387.7555 
L 89.333038 -387.7555 
L 87.256115 -387.7555 
z
"/>
    </defs>
    <g clip-path="url(#pb4092cd714)">
     <use xlink:href="#m608f23aac3" x="0" y="398.34866" style="fill: #1b9e77; fill-opacity: 0.2"/>
    </g>
   </g>
   <g id="PolyCollection_15">
    <defs>
     <path id="med6ccfad92" d="M 89.333038 -387.7555 
L 89.333038 -55.1155 
L 91.409962 -55.1155 
L 91.409962 -387.7555 
L 91.409962 -387.7555 
L 89.333038 -387.7555 
z
"/>
    </defs>
    <g clip-path="url(#pb4092cd714)">
     <use xlink:href="#med6ccfad92" x="0" y="398.34866" style="fill: #d95f02; fill-opacity: 0.2"/>
    </g>
   </g>
   <g id="PolyCollection_16">
    <defs>
     <path id="m1d73f305fb" d="M 91.409962 -387.7555 
L 91.409962 -55.1155 
L 93.486885 -55.1155 
L 93.486885 -387.7555 
L 93.486885 -387.7555 
L 91.409962 -387.7555 
z
"/>
    </defs>
    <g clip-path="url(#pb4092cd714)">
     <use xlink:href="#m1d73f305fb" x="0" y="398.34866" style="fill: #d95f02; fill-opacity: 0.2"/>
    </g>
   </g>
   <g id="PolyCollection_17">
    <defs>
     <path id="m95d08e533b" d="M 93.486885 -387.7555 
L 93.486885 -55.1155 
L 95.563808 -55.1155 
L 95.563808 -387.7555 
L 95.563808 -387.7555 
L 93.486885 -387.7555 
z
"/>
    </defs>
    <g clip-path="url(#pb4092cd714)">
     <use xlink:href="#m95d08e533b" x="0" y="398.34866" style="fill: #d95f02; fill-opacity: 0.2"/>
    </g>
   </g>
   <g id="PolyCollection_18">
    <defs>
     <path id="m232a9ba433" d="M 95.563808 -387.7555 
L 95.563808 -55.1155 
L 97.640731 -55.1155 
L 97.640731 -387.7555 
L 97.640731 -387.7555 
L 95.563808 -387.7555 
z
"/>
    </defs>
    <g clip-path="url(#pb4092cd714)">
     <use xlink:href="#m232a9ba433" x="0" y="398.34866" style="fill: #d95f02; fill-opacity: 0.2"/>
    </g>
   </g>
   <g id="PolyCollection_19">
    <defs>
     <path id="m23336c2c64" d="M 97.640731 -387.7555 
L 97.640731 -55.1155 
L 99.717654 -55.1155 
L 99.717654 -387.7555 
L 99.717654 -387.7555 
L 97.640731 -387.7555 
z
"/>
    </defs>
    <g clip-path="url(#pb4092cd714)">
     <use xlink:href="#m23336c2c64" x="0" y="398.34866" style="fill: #1b9e77; fill-opacity: 0.2"/>
    </g>
   </g>
   <g id="PolyCollection_20">
    <defs>
     <path id="m9ce4a9628f" d="M 99.717654 -387.7555 
L 99.717654 -55.1155 
L 101.794577 -55.1155 
L 101.794577 -387.7555 
L 101.794577 -387.7555 
L 99.717654 -387.7555 
z
"/>
    </defs>
    <g clip-path="url(#pb4092cd714)">
     <use xlink:href="#m9ce4a9628f" x="0" y="398.34866" style="fill: #d95f02; fill-opacity: 0.2"/>
    </g>
   </g>
   <g id="PolyCollection_21">
    <defs>
     <path id="macb61be4c0" d="M 101.794577 -387.7555 
L 101.794577 -55.1155 
L 103.8715 -55.1155 
L 103.8715 -387.7555 
L 103.8715 -387.7555 
L 101.794577 -387.7555 
z
"/>
    </defs>
    <g clip-path="url(#pb4092cd714)">
     <use xlink:href="#macb61be4c0" x="0" y="398.34866" style="fill: #d95f02; fill-opacity: 0.2"/>
    </g>
   </g>
   <g id="PolyCollection_22">
    <defs>
     <path id="m69116355ca" d="M 103.8715 -387.7555 
L 103.8715 -55.1155 
L 105.948423 -55.1155 
L 105.948423 -387.7555 
L 105.948423 -387.7555 
L 103.8715 -387.7555 
z
"/>
    </defs>
    <g clip-path="url(#pb4092cd714)">
     <use xlink:href="#m69116355ca" x="0" y="398.34866" style="fill: #d95f02; fill-opacity: 0.2"/>
    </g>
   </g>
   <g id="PolyCollection_23">
    <defs>
     <path id="m0c8bca803c" d="M 105.948423 -387.7555 
L 105.948423 -55.1155 
L 108.025346 -55.1155 
L 108.025346 -387.7555 
L 108.025346 -387.7555 
L 105.948423 -387.7555 
z
"/>
    </defs>
    <g clip-path="url(#pb4092cd714)">
     <use xlink:href="#m0c8bca803c" x="0" y="398.34866" style="fill: #d95f02; fill-opacity: 0.2"/>
    </g>
   </g>
   <g id="PolyCollection_24">
    <defs>
     <path id="m1e28361a69" d="M 108.025346 -387.7555 
L 108.025346 -55.1155 
L 110.102269 -55.1155 
L 110.102269 -387.7555 
L 110.102269 -387.7555 
L 108.025346 -387.7555 
z
"/>
    </defs>
    <g clip-path="url(#pb4092cd714)">
     <use xlink:href="#m1e28361a69" x="0" y="398.34866" style="fill: #d95f02; fill-opacity: 0.2"/>
    </g>
   </g>
   <g id="PolyCollection_25">
    <defs>
     <path id="m9dc8aff641" d="M 110.102269 -387.7555 
L 110.102269 -55.1155 
L 112.179192 -55.1155 
L 112.179192 -387.7555 
L 112.179192 -387.7555 
L 110.102269 -387.7555 
z
"/>
    </defs>
    <g clip-path="url(#pb4092cd714)">
     <use xlink:href="#m9dc8aff641" x="0" y="398.34866" style="fill: #d95f02; fill-opacity: 0.2"/>
    </g>
   </g>
   <g id="PolyCollection_26">
    <defs>
     <path id="m3592667764" d="M 112.179192 -387.7555 
L 112.179192 -55.1155 
L 114.256115 -55.1155 
L 114.256115 -387.7555 
L 114.256115 -387.7555 
L 112.179192 -387.7555 
z
"/>
    </defs>
    <g clip-path="url(#pb4092cd714)">
     <use xlink:href="#m3592667764" x="0" y="398.34866" style="fill: #d95f02; fill-opacity: 0.2"/>
    </g>
   </g>
   <g id="PolyCollection_27">
    <defs>
     <path id="m878abe3182" d="M 114.256115 -387.7555 
L 114.256115 -55.1155 
L 116.333038 -55.1155 
L 116.333038 -387.7555 
L 116.333038 -387.7555 
L 114.256115 -387.7555 
z
"/>
    </defs>
    <g clip-path="url(#pb4092cd714)">
     <use xlink:href="#m878abe3182" x="0" y="398.34866" style="fill: #1b9e77; fill-opacity: 0.2"/>
    </g>
   </g>
   <g id="PolyCollection_28">
    <defs>
     <path id="m3d3783b730" d="M 116.333038 -387.7555 
L 116.333038 -55.1155 
L 118.409962 -55.1155 
L 118.409962 -387.7555 
L 118.409962 -387.7555 
L 116.333038 -387.7555 
z
"/>
    </defs>
    <g clip-path="url(#pb4092cd714)">
     <use xlink:href="#m3d3783b730" x="0" y="398.34866" style="fill: #1b9e77; fill-opacity: 0.2"/>
    </g>
   </g>
   <g id="PolyCollection_29">
    <defs>
     <path id="mfb7552d887" d="M 118.409962 -387.7555 
L 118.409962 -55.1155 
L 120.486885 -55.1155 
L 120.486885 -387.7555 
L 120.486885 -387.7555 
L 118.409962 -387.7555 
z
"/>
    </defs>
    <g clip-path="url(#pb4092cd714)">
     <use xlink:href="#mfb7552d887" x="0" y="398.34866" style="fill: #1b9e77; fill-opacity: 0.2"/>
    </g>
   </g>
   <g id="PolyCollection_30">
    <defs>
     <path id="m770d2b6a23" d="M 120.486885 -387.7555 
L 120.486885 -55.1155 
L 122.563808 -55.1155 
L 122.563808 -387.7555 
L 122.563808 -387.7555 
L 120.486885 -387.7555 
z
"/>
    </defs>
    <g clip-path="url(#pb4092cd714)">
     <use xlink:href="#m770d2b6a23" x="0" y="398.34866" style="fill: #d95f02; fill-opacity: 0.2"/>
    </g>
   </g>
   <g id="PolyCollection_31">
    <defs>
     <path id="mf604d18e98" d="M 122.563808 -387.7555 
L 122.563808 -55.1155 
L 124.640731 -55.1155 
L 124.640731 -387.7555 
L 124.640731 -387.7555 
L 122.563808 -387.7555 
z
"/>
    </defs>
    <g clip-path="url(#pb4092cd714)">
     <use xlink:href="#mf604d18e98" x="0" y="398.34866" style="fill: #d95f02; fill-opacity: 0.2"/>
    </g>
   </g>
   <g id="PolyCollection_32">
    <defs>
     <path id="ma3000ee958" d="M 124.640731 -387.7555 
L 124.640731 -55.1155 
L 126.717654 -55.1155 
L 126.717654 -387.7555 
L 126.717654 -387.7555 
L 124.640731 -387.7555 
z
"/>
    </defs>
    <g clip-path="url(#pb4092cd714)">
     <use xlink:href="#ma3000ee958" x="0" y="398.34866" style="fill: #d95f02; fill-opacity: 0.2"/>
    </g>
   </g>
   <g id="PolyCollection_33">
    <defs>
     <path id="m5ad8e9057d" d="M 126.717654 -387.7555 
L 126.717654 -55.1155 
L 128.794577 -55.1155 
L 128.794577 -387.7555 
L 128.794577 -387.7555 
L 126.717654 -387.7555 
z
"/>
    </defs>
    <g clip-path="url(#pb4092cd714)">
     <use xlink:href="#m5ad8e9057d" x="0" y="398.34866" style="fill: #d95f02; fill-opacity: 0.2"/>
    </g>
   </g>
   <g id="PolyCollection_34">
    <defs>
     <path id="mbbf327f8e4" d="M 128.794577 -387.7555 
L 128.794577 -55.1155 
L 130.8715 -55.1155 
L 130.8715 -387.7555 
L 130.8715 -387.7555 
L 128.794577 -387.7555 
z
"/>
    </defs>
    <g clip-path="url(#pb4092cd714)">
     <use xlink:href="#mbbf327f8e4" x="0" y="398.34866" style="fill: #d95f02; fill-opacity: 0.2"/>
    </g>
   </g>
   <g id="PolyCollection_35">
    <defs>
     <path id="m2d18400cee" d="M 130.8715 -387.7555 
L 130.8715 -55.1155 
L 132.948423 -55.1155 
L 132.948423 -387.7555 
L 132.948423 -387.7555 
L 130.8715 -387.7555 
z
"/>
    </defs>
    <g clip-path="url(#pb4092cd714)">
     <use xlink:href="#m2d18400cee" x="0" y="398.34866" style="fill: #1b9e77; fill-opacity: 0.2"/>
    </g>
   </g>
   <g id="PolyCollection_36">
    <defs>
     <path id="m2f9cd89483" d="M 132.948423 -387.7555 
L 132.948423 -55.1155 
L 135.025346 -55.1155 
L 135.025346 -387.7555 
L 135.025346 -387.7555 
L 132.948423 -387.7555 
z
"/>
    </defs>
    <g clip-path="url(#pb4092cd714)">
     <use xlink:href="#m2f9cd89483" x="0" y="398.34866" style="fill: #d95f02; fill-opacity: 0.2"/>
    </g>
   </g>
   <g id="PolyCollection_37">
    <defs>
     <path id="m7ca8872405" d="M 135.025346 -387.7555 
L 135.025346 -55.1155 
L 137.102269 -55.1155 
L 137.102269 -387.7555 
L 137.102269 -387.7555 
L 135.025346 -387.7555 
z
"/>
    </defs>
    <g clip-path="url(#pb4092cd714)">
     <use xlink:href="#m7ca8872405" x="0" y="398.34866" style="fill: #d95f02; fill-opacity: 0.2"/>
    </g>
   </g>
   <g id="PolyCollection_38">
    <defs>
     <path id="mcff9764e0d" d="M 137.102269 -387.7555 
L 137.102269 -55.1155 
L 139.179192 -55.1155 
L 139.179192 -387.7555 
L 139.179192 -387.7555 
L 137.102269 -387.7555 
z
"/>
    </defs>
    <g clip-path="url(#pb4092cd714)">
     <use xlink:href="#mcff9764e0d" x="0" y="398.34866" style="fill: #1b9e77; fill-opacity: 0.2"/>
    </g>
   </g>
   <g id="PolyCollection_39">
    <defs>
     <path id="m1c8bc38190" d="M 139.179192 -387.7555 
L 139.179192 -55.1155 
L 141.256115 -55.1155 
L 141.256115 -387.7555 
L 141.256115 -387.7555 
L 139.179192 -387.7555 
z
"/>
    </defs>
    <g clip-path="url(#pb4092cd714)">
     <use xlink:href="#m1c8bc38190" x="0" y="398.34866" style="fill: #1b9e77; fill-opacity: 0.2"/>
    </g>
   </g>
   <g id="PolyCollection_40">
    <defs>
     <path id="m6f3e221fa1" d="M 141.256115 -387.7555 
L 141.256115 -55.1155 
L 143.333038 -55.1155 
L 143.333038 -387.7555 
L 143.333038 -387.7555 
L 141.256115 -387.7555 
z
"/>
    </defs>
    <g clip-path="url(#pb4092cd714)">
     <use xlink:href="#m6f3e221fa1" x="0" y="398.34866" style="fill: #1b9e77; fill-opacity: 0.2"/>
    </g>
   </g>
   <g id="PolyCollection_41">
    <defs>
     <path id="m25ea382071" d="M 143.333038 -387.7555 
L 143.333038 -55.1155 
L 145.409962 -55.1155 
L 145.409962 -387.7555 
L 145.409962 -387.7555 
L 143.333038 -387.7555 
z
"/>
    </defs>
    <g clip-path="url(#pb4092cd714)">
     <use xlink:href="#m25ea382071" x="0" y="398.34866" style="fill: #1b9e77; fill-opacity: 0.2"/>
    </g>
   </g>
   <g id="PolyCollection_42">
    <defs>
     <path id="m850684bdea" d="M 145.409962 -387.7555 
L 145.409962 -55.1155 
L 147.486885 -55.1155 
L 147.486885 -387.7555 
L 147.486885 -387.7555 
L 145.409962 -387.7555 
z
"/>
    </defs>
    <g clip-path="url(#pb4092cd714)">
     <use xlink:href="#m850684bdea" x="0" y="398.34866" style="fill: #1b9e77; fill-opacity: 0.2"/>
    </g>
   </g>
   <g id="PolyCollection_43">
    <defs>
     <path id="m275ec906b5" d="M 147.486885 -387.7555 
L 147.486885 -55.1155 
L 149.563808 -55.1155 
L 149.563808 -387.7555 
L 149.563808 -387.7555 
L 147.486885 -387.7555 
z
"/>
    </defs>
    <g clip-path="url(#pb4092cd714)">
     <use xlink:href="#m275ec906b5" x="0" y="398.34866" style="fill: #1b9e77; fill-opacity: 0.2"/>
    </g>
   </g>
   <g id="PolyCollection_44">
    <defs>
     <path id="m320c78f11c" d="M 149.563808 -387.7555 
L 149.563808 -55.1155 
L 151.640731 -55.1155 
L 151.640731 -387.7555 
L 151.640731 -387.7555 
L 149.563808 -387.7555 
z
"/>
    </defs>
    <g clip-path="url(#pb4092cd714)">
     <use xlink:href="#m320c78f11c" x="0" y="398.34866" style="fill: #1b9e77; fill-opacity: 0.2"/>
    </g>
   </g>
   <g id="PolyCollection_45">
    <defs>
     <path id="m517cc88892" d="M 151.640731 -387.7555 
L 151.640731 -55.1155 
L 153.717654 -55.1155 
L 153.717654 -387.7555 
L 153.717654 -387.7555 
L 151.640731 -387.7555 
z
"/>
    </defs>
    <g clip-path="url(#pb4092cd714)">
     <use xlink:href="#m517cc88892" x="0" y="398.34866" style="fill: #d95f02; fill-opacity: 0.2"/>
    </g>
   </g>
   <g id="PolyCollection_46">
    <defs>
     <path id="mf9540450dc" d="M 153.717654 -387.7555 
L 153.717654 -55.1155 
L 155.794577 -55.1155 
L 155.794577 -387.7555 
L 155.794577 -387.7555 
L 153.717654 -387.7555 
z
"/>
    </defs>
    <g clip-path="url(#pb4092cd714)">
     <use xlink:href="#mf9540450dc" x="0" y="398.34866" style="fill: #1b9e77; fill-opacity: 0.2"/>
    </g>
   </g>
   <g id="PolyCollection_47">
    <defs>
     <path id="medbe72cc05" d="M 155.794577 -387.7555 
L 155.794577 -55.1155 
L 157.8715 -55.1155 
L 157.8715 -387.7555 
L 157.8715 -387.7555 
L 155.794577 -387.7555 
z
"/>
    </defs>
    <g clip-path="url(#pb4092cd714)">
     <use xlink:href="#medbe72cc05" x="0" y="398.34866" style="fill: #d95f02; fill-opacity: 0.2"/>
    </g>
   </g>
   <g id="PolyCollection_48">
    <defs>
     <path id="mb93507fa61" d="M 157.8715 -387.7555 
L 157.8715 -55.1155 
L 159.948423 -55.1155 
L 159.948423 -387.7555 
L 159.948423 -387.7555 
L 157.8715 -387.7555 
z
"/>
    </defs>
    <g clip-path="url(#pb4092cd714)">
     <use xlink:href="#mb93507fa61" x="0" y="398.34866" style="fill: #d95f02; fill-opacity: 0.2"/>
    </g>
   </g>
   <g id="PolyCollection_49">
    <defs>
     <path id="m2bca454287" d="M 159.948423 -387.7555 
L 159.948423 -55.1155 
L 162.025346 -55.1155 
L 162.025346 -387.7555 
L 162.025346 -387.7555 
L 159.948423 -387.7555 
z
"/>
    </defs>
    <g clip-path="url(#pb4092cd714)">
     <use xlink:href="#m2bca454287" x="0" y="398.34866" style="fill: #d95f02; fill-opacity: 0.2"/>
    </g>
   </g>
   <g id="PolyCollection_50">
    <defs>
     <path id="m9c55a20aa9" d="M 162.025346 -387.7555 
L 162.025346 -55.1155 
L 164.102269 -55.1155 
L 164.102269 -387.7555 
L 164.102269 -387.7555 
L 162.025346 -387.7555 
z
"/>
    </defs>
    <g clip-path="url(#pb4092cd714)">
     <use xlink:href="#m9c55a20aa9" x="0" y="398.34866" style="fill: #d95f02; fill-opacity: 0.2"/>
    </g>
   </g>
   <g id="PolyCollection_51">
    <defs>
     <path id="mc97057c9f3" d="M 164.102269 -387.7555 
L 164.102269 -55.1155 
L 166.179192 -55.1155 
L 166.179192 -387.7555 
L 166.179192 -387.7555 
L 164.102269 -387.7555 
z
"/>
    </defs>
    <g clip-path="url(#pb4092cd714)">
     <use xlink:href="#mc97057c9f3" x="0" y="398.34866" style="fill: #d95f02; fill-opacity: 0.2"/>
    </g>
   </g>
   <g id="PolyCollection_52">
    <defs>
     <path id="m84277f9d8d" d="M 166.179192 -387.7555 
L 166.179192 -55.1155 
L 168.256115 -55.1155 
L 168.256115 -387.7555 
L 168.256115 -387.7555 
L 166.179192 -387.7555 
z
"/>
    </defs>
    <g clip-path="url(#pb4092cd714)">
     <use xlink:href="#m84277f9d8d" x="0" y="398.34866" style="fill: #d95f02; fill-opacity: 0.2"/>
    </g>
   </g>
   <g id="PolyCollection_53">
    <defs>
     <path id="mbda2e786f1" d="M 168.256115 -387.7555 
L 168.256115 -55.1155 
L 170.333038 -55.1155 
L 170.333038 -387.7555 
L 170.333038 -387.7555 
L 168.256115 -387.7555 
z
"/>
    </defs>
    <g clip-path="url(#pb4092cd714)">
     <use xlink:href="#mbda2e786f1" x="0" y="398.34866" style="fill: #d95f02; fill-opacity: 0.2"/>
    </g>
   </g>
   <g id="PolyCollection_54">
    <defs>
     <path id="m4efda9a55c" d="M 170.333038 -387.7555 
L 170.333038 -55.1155 
L 172.409962 -55.1155 
L 172.409962 -387.7555 
L 172.409962 -387.7555 
L 170.333038 -387.7555 
z
"/>
    </defs>
    <g clip-path="url(#pb4092cd714)">
     <use xlink:href="#m4efda9a55c" x="0" y="398.34866" style="fill: #1b9e77; fill-opacity: 0.2"/>
    </g>
   </g>
   <g id="PolyCollection_55">
    <defs>
     <path id="m88434a216f" d="M 172.409962 -387.7555 
L 172.409962 -55.1155 
L 174.486885 -55.1155 
L 174.486885 -387.7555 
L 174.486885 -387.7555 
L 172.409962 -387.7555 
z
"/>
    </defs>
    <g clip-path="url(#pb4092cd714)">
     <use xlink:href="#m88434a216f" x="0" y="398.34866" style="fill: #d95f02; fill-opacity: 0.2"/>
    </g>
   </g>
   <g id="PolyCollection_56">
    <defs>
     <path id="mc0f0a7d750" d="M 174.486885 -387.7555 
L 174.486885 -55.1155 
L 176.563808 -55.1155 
L 176.563808 -387.7555 
L 176.563808 -387.7555 
L 174.486885 -387.7555 
z
"/>
    </defs>
    <g clip-path="url(#pb4092cd714)">
     <use xlink:href="#mc0f0a7d750" x="0" y="398.34866" style="fill: #d95f02; fill-opacity: 0.2"/>
    </g>
   </g>
   <g id="PolyCollection_57">
    <defs>
     <path id="m75b97706da" d="M 176.563808 -387.7555 
L 176.563808 -55.1155 
L 178.640731 -55.1155 
L 178.640731 -387.7555 
L 178.640731 -387.7555 
L 176.563808 -387.7555 
z
"/>
    </defs>
    <g clip-path="url(#pb4092cd714)">
     <use xlink:href="#m75b97706da" x="0" y="398.34866" style="fill: #d95f02; fill-opacity: 0.2"/>
    </g>
   </g>
   <g id="PolyCollection_58">
    <defs>
     <path id="md1e57b6f77" d="M 178.640731 -387.7555 
L 178.640731 -55.1155 
L 180.717654 -55.1155 
L 180.717654 -387.7555 
L 180.717654 -387.7555 
L 178.640731 -387.7555 
z
"/>
    </defs>
    <g clip-path="url(#pb4092cd714)">
     <use xlink:href="#md1e57b6f77" x="0" y="398.34866" style="fill: #d95f02; fill-opacity: 0.2"/>
    </g>
   </g>
   <g id="PolyCollection_59">
    <defs>
     <path id="mf5bbbeaa9a" d="M 180.717654 -387.7555 
L 180.717654 -55.1155 
L 182.794577 -55.1155 
L 182.794577 -387.7555 
L 182.794577 -387.7555 
L 180.717654 -387.7555 
z
"/>
    </defs>
    <g clip-path="url(#pb4092cd714)">
     <use xlink:href="#mf5bbbeaa9a" x="0" y="398.34866" style="fill: #1b9e77; fill-opacity: 0.2"/>
    </g>
   </g>
   <g id="PolyCollection_60">
    <defs>
     <path id="mb89a74aea0" d="M 182.794577 -387.7555 
L 182.794577 -55.1155 
L 184.8715 -55.1155 
L 184.8715 -387.7555 
L 184.8715 -387.7555 
L 182.794577 -387.7555 
z
"/>
    </defs>
    <g clip-path="url(#pb4092cd714)">
     <use xlink:href="#mb89a74aea0" x="0" y="398.34866" style="fill: #d95f02; fill-opacity: 0.2"/>
    </g>
   </g>
   <g id="PolyCollection_61">
    <defs>
     <path id="m4abe4cf556" d="M 184.8715 -387.7555 
L 184.8715 -55.1155 
L 186.948423 -55.1155 
L 186.948423 -387.7555 
L 186.948423 -387.7555 
L 184.8715 -387.7555 
z
"/>
    </defs>
    <g clip-path="url(#pb4092cd714)">
     <use xlink:href="#m4abe4cf556" x="0" y="398.34866" style="fill: #1b9e77; fill-opacity: 0.2"/>
    </g>
   </g>
   <g id="PolyCollection_62">
    <defs>
     <path id="m47156ec97d" d="M 186.948423 -387.7555 
L 186.948423 -55.1155 
L 189.025346 -55.1155 
L 189.025346 -387.7555 
L 189.025346 -387.7555 
L 186.948423 -387.7555 
z
"/>
    </defs>
    <g clip-path="url(#pb4092cd714)">
     <use xlink:href="#m47156ec97d" x="0" y="398.34866" style="fill: #d95f02; fill-opacity: 0.2"/>
    </g>
   </g>
   <g id="PolyCollection_63">
    <defs>
     <path id="m54479ac93e" d="M 189.025346 -387.7555 
L 189.025346 -55.1155 
L 191.102269 -55.1155 
L 191.102269 -387.7555 
L 191.102269 -387.7555 
L 189.025346 -387.7555 
z
"/>
    </defs>
    <g clip-path="url(#pb4092cd714)">
     <use xlink:href="#m54479ac93e" x="0" y="398.34866" style="fill: #d95f02; fill-opacity: 0.2"/>
    </g>
   </g>
   <g id="PolyCollection_64">
    <defs>
     <path id="ma3a6b1007e" d="M 191.102269 -387.7555 
L 191.102269 -55.1155 
L 193.179192 -55.1155 
L 193.179192 -387.7555 
L 193.179192 -387.7555 
L 191.102269 -387.7555 
z
"/>
    </defs>
    <g clip-path="url(#pb4092cd714)">
     <use xlink:href="#ma3a6b1007e" x="0" y="398.34866" style="fill: #d95f02; fill-opacity: 0.2"/>
    </g>
   </g>
   <g id="PolyCollection_65">
    <defs>
     <path id="m646d325b29" d="M 193.179192 -387.7555 
L 193.179192 -55.1155 
L 195.256115 -55.1155 
L 195.256115 -387.7555 
L 195.256115 -387.7555 
L 193.179192 -387.7555 
z
"/>
    </defs>
    <g clip-path="url(#pb4092cd714)">
     <use xlink:href="#m646d325b29" x="0" y="398.34866" style="fill: #d95f02; fill-opacity: 0.2"/>
    </g>
   </g>
   <g id="PolyCollection_66">
    <defs>
     <path id="m64ddcf140f" d="M 195.256115 -387.7555 
L 195.256115 -55.1155 
L 197.333038 -55.1155 
L 197.333038 -387.7555 
L 197.333038 -387.7555 
L 195.256115 -387.7555 
z
"/>
    </defs>
    <g clip-path="url(#pb4092cd714)">
     <use xlink:href="#m64ddcf140f" x="0" y="398.34866" style="fill: #d95f02; fill-opacity: 0.2"/>
    </g>
   </g>
   <g id="PolyCollection_67">
    <defs>
     <path id="m2aaee4fcd7" d="M 197.333038 -387.7555 
L 197.333038 -55.1155 
L 199.409962 -55.1155 
L 199.409962 -387.7555 
L 199.409962 -387.7555 
L 197.333038 -387.7555 
z
"/>
    </defs>
    <g clip-path="url(#pb4092cd714)">
     <use xlink:href="#m2aaee4fcd7" x="0" y="398.34866" style="fill: #1b9e77; fill-opacity: 0.2"/>
    </g>
   </g>
   <g id="PolyCollection_68">
    <defs>
     <path id="me629fbb5b0" d="M 199.409962 -387.7555 
L 199.409962 -55.1155 
L 201.486885 -55.1155 
L 201.486885 -387.7555 
L 201.486885 -387.7555 
L 199.409962 -387.7555 
z
"/>
    </defs>
    <g clip-path="url(#pb4092cd714)">
     <use xlink:href="#me629fbb5b0" x="0" y="398.34866" style="fill: #1b9e77; fill-opacity: 0.2"/>
    </g>
   </g>
   <g id="PolyCollection_69">
    <defs>
     <path id="m797ff312a6" d="M 201.486885 -387.7555 
L 201.486885 -55.1155 
L 203.563808 -55.1155 
L 203.563808 -387.7555 
L 203.563808 -387.7555 
L 201.486885 -387.7555 
z
"/>
    </defs>
    <g clip-path="url(#pb4092cd714)">
     <use xlink:href="#m797ff312a6" x="0" y="398.34866" style="fill: #d95f02; fill-opacity: 0.2"/>
    </g>
   </g>
   <g id="PolyCollection_70">
    <defs>
     <path id="m212b3d7b0c" d="M 203.563808 -387.7555 
L 203.563808 -55.1155 
L 205.640731 -55.1155 
L 205.640731 -387.7555 
L 205.640731 -387.7555 
L 203.563808 -387.7555 
z
"/>
    </defs>
    <g clip-path="url(#pb4092cd714)">
     <use xlink:href="#m212b3d7b0c" x="0" y="398.34866" style="fill: #d95f02; fill-opacity: 0.2"/>
    </g>
   </g>
   <g id="PolyCollection_71">
    <defs>
     <path id="m51cfe0c9ba" d="M 205.640731 -387.7555 
L 205.640731 -55.1155 
L 207.717654 -55.1155 
L 207.717654 -387.7555 
L 207.717654 -387.7555 
L 205.640731 -387.7555 
z
"/>
    </defs>
    <g clip-path="url(#pb4092cd714)">
     <use xlink:href="#m51cfe0c9ba" x="0" y="398.34866" style="fill: #d95f02; fill-opacity: 0.2"/>
    </g>
   </g>
   <g id="PolyCollection_72">
    <defs>
     <path id="ma08987bc98" d="M 207.717654 -387.7555 
L 207.717654 -55.1155 
L 209.794577 -55.1155 
L 209.794577 -387.7555 
L 209.794577 -387.7555 
L 207.717654 -387.7555 
z
"/>
    </defs>
    <g clip-path="url(#pb4092cd714)">
     <use xlink:href="#ma08987bc98" x="0" y="398.34866" style="fill: #d95f02; fill-opacity: 0.2"/>
    </g>
   </g>
   <g id="PolyCollection_73">
    <defs>
     <path id="med00b120a2" d="M 209.794577 -387.7555 
L 209.794577 -55.1155 
L 211.8715 -55.1155 
L 211.8715 -387.7555 
L 211.8715 -387.7555 
L 209.794577 -387.7555 
z
"/>
    </defs>
    <g clip-path="url(#pb4092cd714)">
     <use xlink:href="#med00b120a2" x="0" y="398.34866" style="fill: #d95f02; fill-opacity: 0.2"/>
    </g>
   </g>
   <g id="PolyCollection_74">
    <defs>
     <path id="m8c3b18d02a" d="M 211.8715 -387.7555 
L 211.8715 -55.1155 
L 213.948423 -55.1155 
L 213.948423 -387.7555 
L 213.948423 -387.7555 
L 211.8715 -387.7555 
z
"/>
    </defs>
    <g clip-path="url(#pb4092cd714)">
     <use xlink:href="#m8c3b18d02a" x="0" y="398.34866" style="fill: #d95f02; fill-opacity: 0.2"/>
    </g>
   </g>
   <g id="PolyCollection_75">
    <defs>
     <path id="m16b183bb07" d="M 213.948423 -387.7555 
L 213.948423 -55.1155 
L 216.025346 -55.1155 
L 216.025346 -387.7555 
L 216.025346 -387.7555 
L 213.948423 -387.7555 
z
"/>
    </defs>
    <g clip-path="url(#pb4092cd714)">
     <use xlink:href="#m16b183bb07" x="0" y="398.34866" style="fill: #d95f02; fill-opacity: 0.2"/>
    </g>
   </g>
   <g id="PolyCollection_76">
    <defs>
     <path id="m1d45fbc0c1" d="M 216.025346 -387.7555 
L 216.025346 -55.1155 
L 218.102269 -55.1155 
L 218.102269 -387.7555 
L 218.102269 -387.7555 
L 216.025346 -387.7555 
z
"/>
    </defs>
    <g clip-path="url(#pb4092cd714)">
     <use xlink:href="#m1d45fbc0c1" x="0" y="398.34866" style="fill: #d95f02; fill-opacity: 0.2"/>
    </g>
   </g>
   <g id="PolyCollection_77">
    <defs>
     <path id="m312ff2a67d" d="M 218.102269 -387.7555 
L 218.102269 -55.1155 
L 220.179192 -55.1155 
L 220.179192 -387.7555 
L 220.179192 -387.7555 
L 218.102269 -387.7555 
z
"/>
    </defs>
    <g clip-path="url(#pb4092cd714)">
     <use xlink:href="#m312ff2a67d" x="0" y="398.34866" style="fill: #1b9e77; fill-opacity: 0.2"/>
    </g>
   </g>
   <g id="PolyCollection_78">
    <defs>
     <path id="ma9548bb4fa" d="M 220.179192 -387.7555 
L 220.179192 -55.1155 
L 222.256115 -55.1155 
L 222.256115 -387.7555 
L 222.256115 -387.7555 
L 220.179192 -387.7555 
z
"/>
    </defs>
    <g clip-path="url(#pb4092cd714)">
     <use xlink:href="#ma9548bb4fa" x="0" y="398.34866" style="fill: #d95f02; fill-opacity: 0.2"/>
    </g>
   </g>
   <g id="PolyCollection_79">
    <defs>
     <path id="mcd14737ed4" d="M 222.256115 -387.7555 
L 222.256115 -55.1155 
L 224.333038 -55.1155 
L 224.333038 -387.7555 
L 224.333038 -387.7555 
L 222.256115 -387.7555 
z
"/>
    </defs>
    <g clip-path="url(#pb4092cd714)">
     <use xlink:href="#mcd14737ed4" x="0" y="398.34866" style="fill: #d95f02; fill-opacity: 0.2"/>
    </g>
   </g>
   <g id="PolyCollection_80">
    <defs>
     <path id="m6759ff89e3" d="M 224.333038 -387.7555 
L 224.333038 -55.1155 
L 226.409962 -55.1155 
L 226.409962 -387.7555 
L 226.409962 -387.7555 
L 224.333038 -387.7555 
z
"/>
    </defs>
    <g clip-path="url(#pb4092cd714)">
     <use xlink:href="#m6759ff89e3" x="0" y="398.34866" style="fill: #d95f02; fill-opacity: 0.2"/>
    </g>
   </g>
   <g id="PolyCollection_81">
    <defs>
     <path id="m9668305005" d="M 226.409962 -387.7555 
L 226.409962 -55.1155 
L 228.486885 -55.1155 
L 228.486885 -387.7555 
L 228.486885 -387.7555 
L 226.409962 -387.7555 
z
"/>
    </defs>
    <g clip-path="url(#pb4092cd714)">
     <use xlink:href="#m9668305005" x="0" y="398.34866" style="fill: #d95f02; fill-opacity: 0.2"/>
    </g>
   </g>
   <g id="PolyCollection_82">
    <defs>
     <path id="mbbf60193d8" d="M 228.486885 -387.7555 
L 228.486885 -55.1155 
L 230.563808 -55.1155 
L 230.563808 -387.7555 
L 230.563808 -387.7555 
L 228.486885 -387.7555 
z
"/>
    </defs>
    <g clip-path="url(#pb4092cd714)">
     <use xlink:href="#mbbf60193d8" x="0" y="398.34866" style="fill: #d95f02; fill-opacity: 0.2"/>
    </g>
   </g>
   <g id="PolyCollection_83">
    <defs>
     <path id="medac2f23d9" d="M 230.563808 -387.7555 
L 230.563808 -55.1155 
L 232.640731 -55.1155 
L 232.640731 -387.7555 
L 232.640731 -387.7555 
L 230.563808 -387.7555 
z
"/>
    </defs>
    <g clip-path="url(#pb4092cd714)">
     <use xlink:href="#medac2f23d9" x="0" y="398.34866" style="fill: #d95f02; fill-opacity: 0.2"/>
    </g>
   </g>
   <g id="PolyCollection_84">
    <defs>
     <path id="m161f5e8336" d="M 232.640731 -387.7555 
L 232.640731 -55.1155 
L 234.717654 -55.1155 
L 234.717654 -387.7555 
L 234.717654 -387.7555 
L 232.640731 -387.7555 
z
"/>
    </defs>
    <g clip-path="url(#pb4092cd714)">
     <use xlink:href="#m161f5e8336" x="0" y="398.34866" style="fill: #d95f02; fill-opacity: 0.2"/>
    </g>
   </g>
   <g id="PolyCollection_85">
    <defs>
     <path id="m5948cfce9c" d="M 234.717654 -387.7555 
L 234.717654 -55.1155 
L 236.794577 -55.1155 
L 236.794577 -387.7555 
L 236.794577 -387.7555 
L 234.717654 -387.7555 
z
"/>
    </defs>
    <g clip-path="url(#pb4092cd714)">
     <use xlink:href="#m5948cfce9c" x="0" y="398.34866" style="fill: #d95f02; fill-opacity: 0.2"/>
    </g>
   </g>
   <g id="PolyCollection_86">
    <defs>
     <path id="ma79012bad7" d="M 236.794577 -387.7555 
L 236.794577 -55.1155 
L 238.8715 -55.1155 
L 238.8715 -387.7555 
L 238.8715 -387.7555 
L 236.794577 -387.7555 
z
"/>
    </defs>
    <g clip-path="url(#pb4092cd714)">
     <use xlink:href="#ma79012bad7" x="0" y="398.34866" style="fill: #d95f02; fill-opacity: 0.2"/>
    </g>
   </g>
   <g id="PolyCollection_87">
    <defs>
     <path id="m56df277514" d="M 238.8715 -387.7555 
L 238.8715 -55.1155 
L 240.948423 -55.1155 
L 240.948423 -387.7555 
L 240.948423 -387.7555 
L 238.8715 -387.7555 
z
"/>
    </defs>
    <g clip-path="url(#pb4092cd714)">
     <use xlink:href="#m56df277514" x="0" y="398.34866" style="fill: #d95f02; fill-opacity: 0.2"/>
    </g>
   </g>
   <g id="PolyCollection_88">
    <defs>
     <path id="m657b264ebb" d="M 240.948423 -387.7555 
L 240.948423 -55.1155 
L 243.025346 -55.1155 
L 243.025346 -387.7555 
L 243.025346 -387.7555 
L 240.948423 -387.7555 
z
"/>
    </defs>
    <g clip-path="url(#pb4092cd714)">
     <use xlink:href="#m657b264ebb" x="0" y="398.34866" style="fill: #d95f02; fill-opacity: 0.2"/>
    </g>
   </g>
   <g id="PolyCollection_89">
    <defs>
     <path id="m460f60fb88" d="M 243.025346 -387.7555 
L 243.025346 -55.1155 
L 245.102269 -55.1155 
L 245.102269 -387.7555 
L 245.102269 -387.7555 
L 243.025346 -387.7555 
z
"/>
    </defs>
    <g clip-path="url(#pb4092cd714)">
     <use xlink:href="#m460f60fb88" x="0" y="398.34866" style="fill: #d95f02; fill-opacity: 0.2"/>
    </g>
   </g>
   <g id="PolyCollection_90">
    <defs>
     <path id="m5afff19388" d="M 245.102269 -387.7555 
L 245.102269 -55.1155 
L 247.179192 -55.1155 
L 247.179192 -387.7555 
L 247.179192 -387.7555 
L 245.102269 -387.7555 
z
"/>
    </defs>
    <g clip-path="url(#pb4092cd714)">
     <use xlink:href="#m5afff19388" x="0" y="398.34866" style="fill: #d95f02; fill-opacity: 0.2"/>
    </g>
   </g>
   <g id="PolyCollection_91">
    <defs>
     <path id="m0df6c59e72" d="M 247.179192 -387.7555 
L 247.179192 -55.1155 
L 249.256115 -55.1155 
L 249.256115 -387.7555 
L 249.256115 -387.7555 
L 247.179192 -387.7555 
z
"/>
    </defs>
    <g clip-path="url(#pb4092cd714)">
     <use xlink:href="#m0df6c59e72" x="0" y="398.34866" style="fill: #d95f02; fill-opacity: 0.2"/>
    </g>
   </g>
   <g id="PolyCollection_92">
    <defs>
     <path id="m29c6fda2c8" d="M 249.256115 -387.7555 
L 249.256115 -55.1155 
L 251.333038 -55.1155 
L 251.333038 -387.7555 
L 251.333038 -387.7555 
L 249.256115 -387.7555 
z
"/>
    </defs>
    <g clip-path="url(#pb4092cd714)">
     <use xlink:href="#m29c6fda2c8" x="0" y="398.34866" style="fill: #d95f02; fill-opacity: 0.2"/>
    </g>
   </g>
   <g id="PolyCollection_93">
    <defs>
     <path id="m58b5dae33c" d="M 251.333038 -387.7555 
L 251.333038 -55.1155 
L 253.409962 -55.1155 
L 253.409962 -387.7555 
L 253.409962 -387.7555 
L 251.333038 -387.7555 
z
"/>
    </defs>
    <g clip-path="url(#pb4092cd714)">
     <use xlink:href="#m58b5dae33c" x="0" y="398.34866" style="fill: #d95f02; fill-opacity: 0.2"/>
    </g>
   </g>
   <g id="PolyCollection_94">
    <defs>
     <path id="mead249e06b" d="M 253.409962 -387.7555 
L 253.409962 -55.1155 
L 255.486885 -55.1155 
L 255.486885 -387.7555 
L 255.486885 -387.7555 
L 253.409962 -387.7555 
z
"/>
    </defs>
    <g clip-path="url(#pb4092cd714)">
     <use xlink:href="#mead249e06b" x="0" y="398.34866" style="fill: #d95f02; fill-opacity: 0.2"/>
    </g>
   </g>
   <g id="PolyCollection_95">
    <defs>
     <path id="m5aad9099aa" d="M 255.486885 -387.7555 
L 255.486885 -55.1155 
L 257.563808 -55.1155 
L 257.563808 -387.7555 
L 257.563808 -387.7555 
L 255.486885 -387.7555 
z
"/>
    </defs>
    <g clip-path="url(#pb4092cd714)">
     <use xlink:href="#m5aad9099aa" x="0" y="398.34866" style="fill: #d95f02; fill-opacity: 0.2"/>
    </g>
   </g>
   <g id="PolyCollection_96">
    <defs>
     <path id="m8bf63438d6" d="M 257.563808 -387.7555 
L 257.563808 -55.1155 
L 259.640731 -55.1155 
L 259.640731 -387.7555 
L 259.640731 -387.7555 
L 257.563808 -387.7555 
z
"/>
    </defs>
    <g clip-path="url(#pb4092cd714)">
     <use xlink:href="#m8bf63438d6" x="0" y="398.34866" style="fill: #d95f02; fill-opacity: 0.2"/>
    </g>
   </g>
   <g id="PolyCollection_97">
    <defs>
     <path id="mc5b6e88a55" d="M 259.640731 -387.7555 
L 259.640731 -55.1155 
L 261.717654 -55.1155 
L 261.717654 -387.7555 
L 261.717654 -387.7555 
L 259.640731 -387.7555 
z
"/>
    </defs>
    <g clip-path="url(#pb4092cd714)">
     <use xlink:href="#mc5b6e88a55" x="0" y="398.34866" style="fill: #d95f02; fill-opacity: 0.2"/>
    </g>
   </g>
   <g id="PolyCollection_98">
    <defs>
     <path id="mab0ea9f7b0" d="M 261.717654 -387.7555 
L 261.717654 -55.1155 
L 263.794577 -55.1155 
L 263.794577 -387.7555 
L 263.794577 -387.7555 
L 261.717654 -387.7555 
z
"/>
    </defs>
    <g clip-path="url(#pb4092cd714)">
     <use xlink:href="#mab0ea9f7b0" x="0" y="398.34866" style="fill: #d95f02; fill-opacity: 0.2"/>
    </g>
   </g>
   <g id="PolyCollection_99">
    <defs>
     <path id="maa0113e520" d="M 263.794577 -387.7555 
L 263.794577 -55.1155 
L 265.8715 -55.1155 
L 265.8715 -387.7555 
L 265.8715 -387.7555 
L 263.794577 -387.7555 
z
"/>
    </defs>
    <g clip-path="url(#pb4092cd714)">
     <use xlink:href="#maa0113e520" x="0" y="398.34866" style="fill: #d95f02; fill-opacity: 0.2"/>
    </g>
   </g>
   <g id="PolyCollection_100">
    <defs>
     <path id="m426739a888" d="M 265.8715 -387.7555 
L 265.8715 -55.1155 
L 267.948423 -55.1155 
L 267.948423 -387.7555 
L 267.948423 -387.7555 
L 265.8715 -387.7555 
z
"/>
    </defs>
    <g clip-path="url(#pb4092cd714)">
     <use xlink:href="#m426739a888" x="0" y="398.34866" style="fill: #d95f02; fill-opacity: 0.2"/>
    </g>
   </g>
   <g id="PolyCollection_101">
    <defs>
     <path id="m5ac6a5c532" d="M 267.948423 -387.7555 
L 267.948423 -55.1155 
L 270.025346 -55.1155 
L 270.025346 -387.7555 
L 270.025346 -387.7555 
L 267.948423 -387.7555 
z
"/>
    </defs>
    <g clip-path="url(#pb4092cd714)">
     <use xlink:href="#m5ac6a5c532" x="0" y="398.34866" style="fill: #d95f02; fill-opacity: 0.2"/>
    </g>
   </g>
   <g id="PolyCollection_102">
    <defs>
     <path id="mc1f81de6f5" d="M 270.025346 -387.7555 
L 270.025346 -55.1155 
L 272.102269 -55.1155 
L 272.102269 -387.7555 
L 272.102269 -387.7555 
L 270.025346 -387.7555 
z
"/>
    </defs>
    <g clip-path="url(#pb4092cd714)">
     <use xlink:href="#mc1f81de6f5" x="0" y="398.34866" style="fill: #d95f02; fill-opacity: 0.2"/>
    </g>
   </g>
   <g id="PolyCollection_103">
    <defs>
     <path id="mb3532c08fb" d="M 272.102269 -387.7555 
L 272.102269 -55.1155 
L 274.179192 -55.1155 
L 274.179192 -387.7555 
L 274.179192 -387.7555 
L 272.102269 -387.7555 
z
"/>
    </defs>
    <g clip-path="url(#pb4092cd714)">
     <use xlink:href="#mb3532c08fb" x="0" y="398.34866" style="fill: #d95f02; fill-opacity: 0.2"/>
    </g>
   </g>
   <g id="PolyCollection_104">
    <defs>
     <path id="me20b4a7819" d="M 274.179192 -387.7555 
L 274.179192 -55.1155 
L 276.256115 -55.1155 
L 276.256115 -387.7555 
L 276.256115 -387.7555 
L 274.179192 -387.7555 
z
"/>
    </defs>
    <g clip-path="url(#pb4092cd714)">
     <use xlink:href="#me20b4a7819" x="0" y="398.34866" style="fill: #d95f02; fill-opacity: 0.2"/>
    </g>
   </g>
   <g id="PolyCollection_105">
    <defs>
     <path id="m785332c24e" d="M 276.256115 -387.7555 
L 276.256115 -55.1155 
L 278.333038 -55.1155 
L 278.333038 -387.7555 
L 278.333038 -387.7555 
L 276.256115 -387.7555 
z
"/>
    </defs>
    <g clip-path="url(#pb4092cd714)">
     <use xlink:href="#m785332c24e" x="0" y="398.34866" style="fill: #d95f02; fill-opacity: 0.2"/>
    </g>
   </g>
   <g id="PolyCollection_106">
    <defs>
     <path id="m9f36a826c5" d="M 278.333038 -387.7555 
L 278.333038 -55.1155 
L 280.409962 -55.1155 
L 280.409962 -387.7555 
L 280.409962 -387.7555 
L 278.333038 -387.7555 
z
"/>
    </defs>
    <g clip-path="url(#pb4092cd714)">
     <use xlink:href="#m9f36a826c5" x="0" y="398.34866" style="fill: #d95f02; fill-opacity: 0.2"/>
    </g>
   </g>
   <g id="PolyCollection_107">
    <defs>
     <path id="mc48b25f0d7" d="M 280.409962 -387.7555 
L 280.409962 -55.1155 
L 282.486885 -55.1155 
L 282.486885 -387.7555 
L 282.486885 -387.7555 
L 280.409962 -387.7555 
z
"/>
    </defs>
    <g clip-path="url(#pb4092cd714)">
     <use xlink:href="#mc48b25f0d7" x="0" y="398.34866" style="fill: #d95f02; fill-opacity: 0.2"/>
    </g>
   </g>
   <g id="PolyCollection_108">
    <defs>
     <path id="me2217944bf" d="M 282.486885 -387.7555 
L 282.486885 -55.1155 
L 284.563808 -55.1155 
L 284.563808 -387.7555 
L 284.563808 -387.7555 
L 282.486885 -387.7555 
z
"/>
    </defs>
    <g clip-path="url(#pb4092cd714)">
     <use xlink:href="#me2217944bf" x="0" y="398.34866" style="fill: #d95f02; fill-opacity: 0.2"/>
    </g>
   </g>
   <g id="PolyCollection_109">
    <defs>
     <path id="m9fcd1754ed" d="M 284.563808 -387.7555 
L 284.563808 -55.1155 
L 286.640731 -55.1155 
L 286.640731 -387.7555 
L 286.640731 -387.7555 
L 284.563808 -387.7555 
z
"/>
    </defs>
    <g clip-path="url(#pb4092cd714)">
     <use xlink:href="#m9fcd1754ed" x="0" y="398.34866" style="fill: #d95f02; fill-opacity: 0.2"/>
    </g>
   </g>
   <g id="PolyCollection_110">
    <defs>
     <path id="ma098a36c6e" d="M 286.640731 -387.7555 
L 286.640731 -55.1155 
L 288.717654 -55.1155 
L 288.717654 -387.7555 
L 288.717654 -387.7555 
L 286.640731 -387.7555 
z
"/>
    </defs>
    <g clip-path="url(#pb4092cd714)">
     <use xlink:href="#ma098a36c6e" x="0" y="398.34866" style="fill: #d95f02; fill-opacity: 0.2"/>
    </g>
   </g>
   <g id="PolyCollection_111">
    <defs>
     <path id="m21ab98fb1a" d="M 288.717654 -387.7555 
L 288.717654 -55.1155 
L 290.794577 -55.1155 
L 290.794577 -387.7555 
L 290.794577 -387.7555 
L 288.717654 -387.7555 
z
"/>
    </defs>
    <g clip-path="url(#pb4092cd714)">
     <use xlink:href="#m21ab98fb1a" x="0" y="398.34866" style="fill: #d95f02; fill-opacity: 0.2"/>
    </g>
   </g>
   <g id="PolyCollection_112">
    <defs>
     <path id="m2abbfeb282" d="M 290.794577 -387.7555 
L 290.794577 -55.1155 
L 292.8715 -55.1155 
L 292.8715 -387.7555 
L 292.8715 -387.7555 
L 290.794577 -387.7555 
z
"/>
    </defs>
    <g clip-path="url(#pb4092cd714)">
     <use xlink:href="#m2abbfeb282" x="0" y="398.34866" style="fill: #d95f02; fill-opacity: 0.2"/>
    </g>
   </g>
   <g id="PolyCollection_113">
    <defs>
     <path id="mb7fb9cad8d" d="M 292.8715 -387.7555 
L 292.8715 -55.1155 
L 294.948423 -55.1155 
L 294.948423 -387.7555 
L 294.948423 -387.7555 
L 292.8715 -387.7555 
z
"/>
    </defs>
    <g clip-path="url(#pb4092cd714)">
     <use xlink:href="#mb7fb9cad8d" x="0" y="398.34866" style="fill: #d95f02; fill-opacity: 0.2"/>
    </g>
   </g>
   <g id="PolyCollection_114">
    <defs>
     <path id="m8cc1dae3b1" d="M 294.948423 -387.7555 
L 294.948423 -55.1155 
L 297.025346 -55.1155 
L 297.025346 -387.7555 
L 297.025346 -387.7555 
L 294.948423 -387.7555 
z
"/>
    </defs>
    <g clip-path="url(#pb4092cd714)">
     <use xlink:href="#m8cc1dae3b1" x="0" y="398.34866" style="fill: #d95f02; fill-opacity: 0.2"/>
    </g>
   </g>
   <g id="PolyCollection_115">
    <defs>
     <path id="m723342007e" d="M 297.025346 -387.7555 
L 297.025346 -55.1155 
L 299.102269 -55.1155 
L 299.102269 -387.7555 
L 299.102269 -387.7555 
L 297.025346 -387.7555 
z
"/>
    </defs>
    <g clip-path="url(#pb4092cd714)">
     <use xlink:href="#m723342007e" x="0" y="398.34866" style="fill: #d95f02; fill-opacity: 0.2"/>
    </g>
   </g>
   <g id="PolyCollection_116">
    <defs>
     <path id="m3c7681a020" d="M 299.102269 -387.7555 
L 299.102269 -55.1155 
L 301.179192 -55.1155 
L 301.179192 -387.7555 
L 301.179192 -387.7555 
L 299.102269 -387.7555 
z
"/>
    </defs>
    <g clip-path="url(#pb4092cd714)">
     <use xlink:href="#m3c7681a020" x="0" y="398.34866" style="fill: #d95f02; fill-opacity: 0.2"/>
    </g>
   </g>
   <g id="PolyCollection_117">
    <defs>
     <path id="m5d7970a308" d="M 301.179192 -387.7555 
L 301.179192 -55.1155 
L 303.256115 -55.1155 
L 303.256115 -387.7555 
L 303.256115 -387.7555 
L 301.179192 -387.7555 
z
"/>
    </defs>
    <g clip-path="url(#pb4092cd714)">
     <use xlink:href="#m5d7970a308" x="0" y="398.34866" style="fill: #d95f02; fill-opacity: 0.2"/>
    </g>
   </g>
   <g id="PolyCollection_118">
    <defs>
     <path id="m0d93f22863" d="M 303.256115 -387.7555 
L 303.256115 -55.1155 
L 305.333038 -55.1155 
L 305.333038 -387.7555 
L 305.333038 -387.7555 
L 303.256115 -387.7555 
z
"/>
    </defs>
    <g clip-path="url(#pb4092cd714)">
     <use xlink:href="#m0d93f22863" x="0" y="398.34866" style="fill: #d95f02; fill-opacity: 0.2"/>
    </g>
   </g>
   <g id="PolyCollection_119">
    <defs>
     <path id="m0f63cf8f02" d="M 305.333038 -387.7555 
L 305.333038 -55.1155 
L 307.409962 -55.1155 
L 307.409962 -387.7555 
L 307.409962 -387.7555 
L 305.333038 -387.7555 
z
"/>
    </defs>
    <g clip-path="url(#pb4092cd714)">
     <use xlink:href="#m0f63cf8f02" x="0" y="398.34866" style="fill: #d95f02; fill-opacity: 0.2"/>
    </g>
   </g>
   <g id="PolyCollection_120">
    <defs>
     <path id="m43d5656a97" d="M 307.409962 -387.7555 
L 307.409962 -55.1155 
L 309.486885 -55.1155 
L 309.486885 -387.7555 
L 309.486885 -387.7555 
L 307.409962 -387.7555 
z
"/>
    </defs>
    <g clip-path="url(#pb4092cd714)">
     <use xlink:href="#m43d5656a97" x="0" y="398.34866" style="fill: #d95f02; fill-opacity: 0.2"/>
    </g>
   </g>
   <g id="PolyCollection_121">
    <defs>
     <path id="m22bda20a6c" d="M 309.486885 -387.7555 
L 309.486885 -55.1155 
L 311.563808 -55.1155 
L 311.563808 -387.7555 
L 311.563808 -387.7555 
L 309.486885 -387.7555 
z
"/>
    </defs>
    <g clip-path="url(#pb4092cd714)">
     <use xlink:href="#m22bda20a6c" x="0" y="398.34866" style="fill: #d95f02; fill-opacity: 0.2"/>
    </g>
   </g>
   <g id="PolyCollection_122">
    <defs>
     <path id="m8235be094b" d="M 311.563808 -387.7555 
L 311.563808 -55.1155 
L 313.640731 -55.1155 
L 313.640731 -387.7555 
L 313.640731 -387.7555 
L 311.563808 -387.7555 
z
"/>
    </defs>
    <g clip-path="url(#pb4092cd714)">
     <use xlink:href="#m8235be094b" x="0" y="398.34866" style="fill: #d95f02; fill-opacity: 0.2"/>
    </g>
   </g>
   <g id="PolyCollection_123">
    <defs>
     <path id="me56ff9672b" d="M 313.640731 -387.7555 
L 313.640731 -55.1155 
L 315.717654 -55.1155 
L 315.717654 -387.7555 
L 315.717654 -387.7555 
L 313.640731 -387.7555 
z
"/>
    </defs>
    <g clip-path="url(#pb4092cd714)">
     <use xlink:href="#me56ff9672b" x="0" y="398.34866" style="fill: #d95f02; fill-opacity: 0.2"/>
    </g>
   </g>
   <g id="PolyCollection_124">
    <defs>
     <path id="mca0a5a3bfc" d="M 315.717654 -387.7555 
L 315.717654 -55.1155 
L 317.794577 -55.1155 
L 317.794577 -387.7555 
L 317.794577 -387.7555 
L 315.717654 -387.7555 
z
"/>
    </defs>
    <g clip-path="url(#pb4092cd714)">
     <use xlink:href="#mca0a5a3bfc" x="0" y="398.34866" style="fill: #1b9e77; fill-opacity: 0.2"/>
    </g>
   </g>
   <g id="PolyCollection_125">
    <defs>
     <path id="m946c67a40a" d="M 317.794577 -387.7555 
L 317.794577 -55.1155 
L 319.8715 -55.1155 
L 319.8715 -387.7555 
L 319.8715 -387.7555 
L 317.794577 -387.7555 
z
"/>
    </defs>
    <g clip-path="url(#pb4092cd714)">
     <use xlink:href="#m946c67a40a" x="0" y="398.34866" style="fill: #d95f02; fill-opacity: 0.2"/>
    </g>
   </g>
   <g id="PolyCollection_126">
    <defs>
     <path id="mfa099748cd" d="M 319.8715 -387.7555 
L 319.8715 -55.1155 
L 321.948423 -55.1155 
L 321.948423 -387.7555 
L 321.948423 -387.7555 
L 319.8715 -387.7555 
z
"/>
    </defs>
    <g clip-path="url(#pb4092cd714)">
     <use xlink:href="#mfa099748cd" x="0" y="398.34866" style="fill: #1b9e77; fill-opacity: 0.2"/>
    </g>
   </g>
   <g id="PolyCollection_127">
    <defs>
     <path id="mfdc48e02a0" d="M 321.948423 -387.7555 
L 321.948423 -55.1155 
L 324.025346 -55.1155 
L 324.025346 -387.7555 
L 324.025346 -387.7555 
L 321.948423 -387.7555 
z
"/>
    </defs>
    <g clip-path="url(#pb4092cd714)">
     <use xlink:href="#mfdc48e02a0" x="0" y="398.34866" style="fill: #d95f02; fill-opacity: 0.2"/>
    </g>
   </g>
   <g id="PolyCollection_128">
    <defs>
     <path id="macbc50f4ca" d="M 324.025346 -387.7555 
L 324.025346 -55.1155 
L 326.102269 -55.1155 
L 326.102269 -387.7555 
L 326.102269 -387.7555 
L 324.025346 -387.7555 
z
"/>
    </defs>
    <g clip-path="url(#pb4092cd714)">
     <use xlink:href="#macbc50f4ca" x="0" y="398.34866" style="fill: #d95f02; fill-opacity: 0.2"/>
    </g>
   </g>
   <g id="PolyCollection_129">
    <defs>
     <path id="m9002eb9e82" d="M 326.102269 -387.7555 
L 326.102269 -55.1155 
L 328.179192 -55.1155 
L 328.179192 -387.7555 
L 328.179192 -387.7555 
L 326.102269 -387.7555 
z
"/>
    </defs>
    <g clip-path="url(#pb4092cd714)">
     <use xlink:href="#m9002eb9e82" x="0" y="398.34866" style="fill: #1b9e77; fill-opacity: 0.2"/>
    </g>
   </g>
   <g id="PolyCollection_130">
    <defs>
     <path id="mf2c9633175" d="M 328.179192 -387.7555 
L 328.179192 -55.1155 
L 330.256115 -55.1155 
L 330.256115 -387.7555 
L 330.256115 -387.7555 
L 328.179192 -387.7555 
z
"/>
    </defs>
    <g clip-path="url(#pb4092cd714)">
     <use xlink:href="#mf2c9633175" x="0" y="398.34866" style="fill: #d95f02; fill-opacity: 0.2"/>
    </g>
   </g>
   <g id="PolyCollection_131">
    <defs>
     <path id="m8a5ff1f041" d="M 330.256115 -387.7555 
L 330.256115 -55.1155 
L 332.333038 -55.1155 
L 332.333038 -387.7555 
L 332.333038 -387.7555 
L 330.256115 -387.7555 
z
"/>
    </defs>
    <g clip-path="url(#pb4092cd714)">
     <use xlink:href="#m8a5ff1f041" x="0" y="398.34866" style="fill: #d95f02; fill-opacity: 0.2"/>
    </g>
   </g>
   <g id="PolyCollection_132">
    <defs>
     <path id="md952d867c5" d="M 332.333038 -387.7555 
L 332.333038 -55.1155 
L 334.409962 -55.1155 
L 334.409962 -387.7555 
L 334.409962 -387.7555 
L 332.333038 -387.7555 
z
"/>
    </defs>
    <g clip-path="url(#pb4092cd714)">
     <use xlink:href="#md952d867c5" x="0" y="398.34866" style="fill: #d95f02; fill-opacity: 0.2"/>
    </g>
   </g>
   <g id="PolyCollection_133">
    <defs>
     <path id="mbfc28829ce" d="M 334.409962 -387.7555 
L 334.409962 -55.1155 
L 336.486885 -55.1155 
L 336.486885 -387.7555 
L 336.486885 -387.7555 
L 334.409962 -387.7555 
z
"/>
    </defs>
    <g clip-path="url(#pb4092cd714)">
     <use xlink:href="#mbfc28829ce" x="0" y="398.34866" style="fill: #d95f02; fill-opacity: 0.2"/>
    </g>
   </g>
   <g id="PolyCollection_134">
    <defs>
     <path id="maf60f01ffa" d="M 336.486885 -387.7555 
L 336.486885 -55.1155 
L 338.563808 -55.1155 
L 338.563808 -387.7555 
L 338.563808 -387.7555 
L 336.486885 -387.7555 
z
"/>
    </defs>
    <g clip-path="url(#pb4092cd714)">
     <use xlink:href="#maf60f01ffa" x="0" y="398.34866" style="fill: #d95f02; fill-opacity: 0.2"/>
    </g>
   </g>
   <g id="PolyCollection_135">
    <defs>
     <path id="me0292b659f" d="M 338.563808 -387.7555 
L 338.563808 -55.1155 
L 340.640731 -55.1155 
L 340.640731 -387.7555 
L 340.640731 -387.7555 
L 338.563808 -387.7555 
z
"/>
    </defs>
    <g clip-path="url(#pb4092cd714)">
     <use xlink:href="#me0292b659f" x="0" y="398.34866" style="fill: #d95f02; fill-opacity: 0.2"/>
    </g>
   </g>
   <g id="PolyCollection_136">
    <defs>
     <path id="mae8d3443bf" d="M 340.640731 -387.7555 
L 340.640731 -55.1155 
L 342.717654 -55.1155 
L 342.717654 -387.7555 
L 342.717654 -387.7555 
L 340.640731 -387.7555 
z
"/>
    </defs>
    <g clip-path="url(#pb4092cd714)">
     <use xlink:href="#mae8d3443bf" x="0" y="398.34866" style="fill: #1b9e77; fill-opacity: 0.2"/>
    </g>
   </g>
   <g id="PolyCollection_137">
    <defs>
     <path id="m39d904d04c" d="M 342.717654 -387.7555 
L 342.717654 -55.1155 
L 344.794577 -55.1155 
L 344.794577 -387.7555 
L 344.794577 -387.7555 
L 342.717654 -387.7555 
z
"/>
    </defs>
    <g clip-path="url(#pb4092cd714)">
     <use xlink:href="#m39d904d04c" x="0" y="398.34866" style="fill: #1b9e77; fill-opacity: 0.2"/>
    </g>
   </g>
   <g id="PolyCollection_138">
    <defs>
     <path id="m0699807f92" d="M 344.794577 -387.7555 
L 344.794577 -55.1155 
L 346.8715 -55.1155 
L 346.8715 -387.7555 
L 346.8715 -387.7555 
L 344.794577 -387.7555 
z
"/>
    </defs>
    <g clip-path="url(#pb4092cd714)">
     <use xlink:href="#m0699807f92" x="0" y="398.34866" style="fill: #1b9e77; fill-opacity: 0.2"/>
    </g>
   </g>
   <g id="PolyCollection_139">
    <defs>
     <path id="me03da6ec83" d="M 346.8715 -387.7555 
L 346.8715 -55.1155 
L 348.948423 -55.1155 
L 348.948423 -387.7555 
L 348.948423 -387.7555 
L 346.8715 -387.7555 
z
"/>
    </defs>
    <g clip-path="url(#pb4092cd714)">
     <use xlink:href="#me03da6ec83" x="0" y="398.34866" style="fill: #d95f02; fill-opacity: 0.2"/>
    </g>
   </g>
   <g id="PolyCollection_140">
    <defs>
     <path id="m6e984c84a5" d="M 348.948423 -387.7555 
L 348.948423 -55.1155 
L 351.025346 -55.1155 
L 351.025346 -387.7555 
L 351.025346 -387.7555 
L 348.948423 -387.7555 
z
"/>
    </defs>
    <g clip-path="url(#pb4092cd714)">
     <use xlink:href="#m6e984c84a5" x="0" y="398.34866" style="fill: #d95f02; fill-opacity: 0.2"/>
    </g>
   </g>
   <g id="PolyCollection_141">
    <defs>
     <path id="mee101f6c37" d="M 351.025346 -387.7555 
L 351.025346 -55.1155 
L 353.102269 -55.1155 
L 353.102269 -387.7555 
L 353.102269 -387.7555 
L 351.025346 -387.7555 
z
"/>
    </defs>
    <g clip-path="url(#pb4092cd714)">
     <use xlink:href="#mee101f6c37" x="0" y="398.34866" style="fill: #d95f02; fill-opacity: 0.2"/>
    </g>
   </g>
   <g id="PolyCollection_142">
    <defs>
     <path id="mf814523a2b" d="M 353.102269 -387.7555 
L 353.102269 -55.1155 
L 355.179192 -55.1155 
L 355.179192 -387.7555 
L 355.179192 -387.7555 
L 353.102269 -387.7555 
z
"/>
    </defs>
    <g clip-path="url(#pb4092cd714)">
     <use xlink:href="#mf814523a2b" x="0" y="398.34866" style="fill: #d95f02; fill-opacity: 0.2"/>
    </g>
   </g>
   <g id="PolyCollection_143">
    <defs>
     <path id="m4f62e7a51f" d="M 355.179192 -387.7555 
L 355.179192 -55.1155 
L 357.256115 -55.1155 
L 357.256115 -387.7555 
L 357.256115 -387.7555 
L 355.179192 -387.7555 
z
"/>
    </defs>
    <g clip-path="url(#pb4092cd714)">
     <use xlink:href="#m4f62e7a51f" x="0" y="398.34866" style="fill: #d95f02; fill-opacity: 0.2"/>
    </g>
   </g>
   <g id="PolyCollection_144">
    <defs>
     <path id="mc329486682" d="M 357.256115 -387.7555 
L 357.256115 -55.1155 
L 359.333038 -55.1155 
L 359.333038 -387.7555 
L 359.333038 -387.7555 
L 357.256115 -387.7555 
z
"/>
    </defs>
    <g clip-path="url(#pb4092cd714)">
     <use xlink:href="#mc329486682" x="0" y="398.34866" style="fill: #d95f02; fill-opacity: 0.2"/>
    </g>
   </g>
   <g id="PolyCollection_145">
    <defs>
     <path id="m53203ec153" d="M 359.333038 -387.7555 
L 359.333038 -55.1155 
L 361.409962 -55.1155 
L 361.409962 -387.7555 
L 361.409962 -387.7555 
L 359.333038 -387.7555 
z
"/>
    </defs>
    <g clip-path="url(#pb4092cd714)">
     <use xlink:href="#m53203ec153" x="0" y="398.34866" style="fill: #d95f02; fill-opacity: 0.2"/>
    </g>
   </g>
   <g id="PolyCollection_146">
    <defs>
     <path id="maead2dc5ce" d="M 361.409962 -387.7555 
L 361.409962 -55.1155 
L 363.486885 -55.1155 
L 363.486885 -387.7555 
L 363.486885 -387.7555 
L 361.409962 -387.7555 
z
"/>
    </defs>
    <g clip-path="url(#pb4092cd714)">
     <use xlink:href="#maead2dc5ce" x="0" y="398.34866" style="fill: #d95f02; fill-opacity: 0.2"/>
    </g>
   </g>
   <g id="PolyCollection_147">
    <defs>
     <path id="m99cd963933" d="M 363.486885 -387.7555 
L 363.486885 -55.1155 
L 365.563808 -55.1155 
L 365.563808 -387.7555 
L 365.563808 -387.7555 
L 363.486885 -387.7555 
z
"/>
    </defs>
    <g clip-path="url(#pb4092cd714)">
     <use xlink:href="#m99cd963933" x="0" y="398.34866" style="fill: #d95f02; fill-opacity: 0.2"/>
    </g>
   </g>
   <g id="PolyCollection_148">
    <defs>
     <path id="mfd6c6d47c7" d="M 365.563808 -387.7555 
L 365.563808 -55.1155 
L 367.640731 -55.1155 
L 367.640731 -387.7555 
L 367.640731 -387.7555 
L 365.563808 -387.7555 
z
"/>
    </defs>
    <g clip-path="url(#pb4092cd714)">
     <use xlink:href="#mfd6c6d47c7" x="0" y="398.34866" style="fill: #d95f02; fill-opacity: 0.2"/>
    </g>
   </g>
   <g id="PolyCollection_149">
    <defs>
     <path id="m55309db9ee" d="M 367.640731 -387.7555 
L 367.640731 -55.1155 
L 369.717654 -55.1155 
L 369.717654 -387.7555 
L 369.717654 -387.7555 
L 367.640731 -387.7555 
z
"/>
    </defs>
    <g clip-path="url(#pb4092cd714)">
     <use xlink:href="#m55309db9ee" x="0" y="398.34866" style="fill: #d95f02; fill-opacity: 0.2"/>
    </g>
   </g>
   <g id="PolyCollection_150">
    <defs>
     <path id="mb9fdc97ec7" d="M 369.717654 -387.7555 
L 369.717654 -55.1155 
L 371.794577 -55.1155 
L 371.794577 -387.7555 
L 371.794577 -387.7555 
L 369.717654 -387.7555 
z
"/>
    </defs>
    <g clip-path="url(#pb4092cd714)">
     <use xlink:href="#mb9fdc97ec7" x="0" y="398.34866" style="fill: #d95f02; fill-opacity: 0.2"/>
    </g>
   </g>
   <g id="PolyCollection_151">
    <defs>
     <path id="m00b847a54a" d="M 371.794577 -387.7555 
L 371.794577 -55.1155 
L 373.8715 -55.1155 
L 373.8715 -387.7555 
L 373.8715 -387.7555 
L 371.794577 -387.7555 
z
"/>
    </defs>
    <g clip-path="url(#pb4092cd714)">
     <use xlink:href="#m00b847a54a" x="0" y="398.34866" style="fill: #1b9e77; fill-opacity: 0.2"/>
    </g>
   </g>
   <g id="PolyCollection_152">
    <defs>
     <path id="m496b2fe32f" d="M 373.8715 -387.7555 
L 373.8715 -55.1155 
L 375.948423 -55.1155 
L 375.948423 -387.7555 
L 375.948423 -387.7555 
L 373.8715 -387.7555 
z
"/>
    </defs>
    <g clip-path="url(#pb4092cd714)">
     <use xlink:href="#m496b2fe32f" x="0" y="398.34866" style="fill: #1b9e77; fill-opacity: 0.2"/>
    </g>
   </g>
   <g id="PolyCollection_153">
    <defs>
     <path id="mfc2e959f33" d="M 375.948423 -387.7555 
L 375.948423 -55.1155 
L 378.025346 -55.1155 
L 378.025346 -387.7555 
L 378.025346 -387.7555 
L 375.948423 -387.7555 
z
"/>
    </defs>
    <g clip-path="url(#pb4092cd714)">
     <use xlink:href="#mfc2e959f33" x="0" y="398.34866" style="fill: #1b9e77; fill-opacity: 0.2"/>
    </g>
   </g>
   <g id="PolyCollection_154">
    <defs>
     <path id="mb1520bb80d" d="M 378.025346 -387.7555 
L 378.025346 -55.1155 
L 380.102269 -55.1155 
L 380.102269 -387.7555 
L 380.102269 -387.7555 
L 378.025346 -387.7555 
z
"/>
    </defs>
    <g clip-path="url(#pb4092cd714)">
     <use xlink:href="#mb1520bb80d" x="0" y="398.34866" style="fill: #1b9e77; fill-opacity: 0.2"/>
    </g>
   </g>
   <g id="PolyCollection_155">
    <defs>
     <path id="mb98fd0b676" d="M 380.102269 -387.7555 
L 380.102269 -55.1155 
L 382.179192 -55.1155 
L 382.179192 -387.7555 
L 382.179192 -387.7555 
L 380.102269 -387.7555 
z
"/>
    </defs>
    <g clip-path="url(#pb4092cd714)">
     <use xlink:href="#mb98fd0b676" x="0" y="398.34866" style="fill: #1b9e77; fill-opacity: 0.2"/>
    </g>
   </g>
   <g id="PolyCollection_156">
    <defs>
     <path id="mad51d6aaad" d="M 382.179192 -387.7555 
L 382.179192 -55.1155 
L 384.256115 -55.1155 
L 384.256115 -387.7555 
L 384.256115 -387.7555 
L 382.179192 -387.7555 
z
"/>
    </defs>
    <g clip-path="url(#pb4092cd714)">
     <use xlink:href="#mad51d6aaad" x="0" y="398.34866" style="fill: #1b9e77; fill-opacity: 0.2"/>
    </g>
   </g>
   <g id="PolyCollection_157">
    <defs>
     <path id="m9e686d359e" d="M 384.256115 -387.7555 
L 384.256115 -55.1155 
L 386.333038 -55.1155 
L 386.333038 -387.7555 
L 386.333038 -387.7555 
L 384.256115 -387.7555 
z
"/>
    </defs>
    <g clip-path="url(#pb4092cd714)">
     <use xlink:href="#m9e686d359e" x="0" y="398.34866" style="fill: #1b9e77; fill-opacity: 0.2"/>
    </g>
   </g>
   <g id="PolyCollection_158">
    <defs>
     <path id="m5112cf7416" d="M 386.333038 -387.7555 
L 386.333038 -55.1155 
L 388.409962 -55.1155 
L 388.409962 -387.7555 
L 388.409962 -387.7555 
L 386.333038 -387.7555 
z
"/>
    </defs>
    <g clip-path="url(#pb4092cd714)">
     <use xlink:href="#m5112cf7416" x="0" y="398.34866" style="fill: #d95f02; fill-opacity: 0.2"/>
    </g>
   </g>
   <g id="PolyCollection_159">
    <defs>
     <path id="mafb9cd1365" d="M 388.409962 -387.7555 
L 388.409962 -55.1155 
L 390.486885 -55.1155 
L 390.486885 -387.7555 
L 390.486885 -387.7555 
L 388.409962 -387.7555 
z
"/>
    </defs>
    <g clip-path="url(#pb4092cd714)">
     <use xlink:href="#mafb9cd1365" x="0" y="398.34866" style="fill: #1b9e77; fill-opacity: 0.2"/>
    </g>
   </g>
   <g id="PolyCollection_160">
    <defs>
     <path id="mc824efdf23" d="M 390.486885 -387.7555 
L 390.486885 -55.1155 
L 392.563808 -55.1155 
L 392.563808 -387.7555 
L 392.563808 -387.7555 
L 390.486885 -387.7555 
z
"/>
    </defs>
    <g clip-path="url(#pb4092cd714)">
     <use xlink:href="#mc824efdf23" x="0" y="398.34866" style="fill: #1b9e77; fill-opacity: 0.2"/>
    </g>
   </g>
   <g id="PolyCollection_161">
    <defs>
     <path id="mdcd0f29ab8" d="M 392.563808 -387.7555 
L 392.563808 -55.1155 
L 394.640731 -55.1155 
L 394.640731 -387.7555 
L 394.640731 -387.7555 
L 392.563808 -387.7555 
z
"/>
    </defs>
    <g clip-path="url(#pb4092cd714)">
     <use xlink:href="#mdcd0f29ab8" x="0" y="398.34866" style="fill: #d95f02; fill-opacity: 0.2"/>
    </g>
   </g>
   <g id="PolyCollection_162">
    <defs>
     <path id="m68ef6ecd4f" d="M 394.640731 -387.7555 
L 394.640731 -55.1155 
L 396.717654 -55.1155 
L 396.717654 -387.7555 
L 396.717654 -387.7555 
L 394.640731 -387.7555 
z
"/>
    </defs>
    <g clip-path="url(#pb4092cd714)">
     <use xlink:href="#m68ef6ecd4f" x="0" y="398.34866" style="fill: #1b9e77; fill-opacity: 0.2"/>
    </g>
   </g>
   <g id="PolyCollection_163">
    <defs>
     <path id="maa577ab4ab" d="M 396.717654 -387.7555 
L 396.717654 -55.1155 
L 398.794577 -55.1155 
L 398.794577 -387.7555 
L 398.794577 -387.7555 
L 396.717654 -387.7555 
z
"/>
    </defs>
    <g clip-path="url(#pb4092cd714)">
     <use xlink:href="#maa577ab4ab" x="0" y="398.34866" style="fill: #1b9e77; fill-opacity: 0.2"/>
    </g>
   </g>
   <g id="PolyCollection_164">
    <defs>
     <path id="m039211b672" d="M 398.794577 -387.7555 
L 398.794577 -55.1155 
L 400.8715 -55.1155 
L 400.8715 -387.7555 
L 400.8715 -387.7555 
L 398.794577 -387.7555 
z
"/>
    </defs>
    <g clip-path="url(#pb4092cd714)">
     <use xlink:href="#m039211b672" x="0" y="398.34866" style="fill: #d95f02; fill-opacity: 0.2"/>
    </g>
   </g>
   <g id="matplotlib.axis_1">
    <g id="xtick_1">
     <g id="line2d_1">
      <defs>
       <path id="m04e525d191" d="M 0 0 
L 0 4.8 
" style="stroke: #000000"/>
      </defs>
      <g>
       <use xlink:href="#m04e525d191" x="66.486885" y="343.23316" style="stroke: #000000"/>
      </g>
     </g>
     <g id="text_1">
      <!-- 0 -->
      <g transform="translate(60.887885 364.90641) scale(0.176 -0.176)">
       <defs>
        <path id="DejaVuSans-30" d="M 2034 4250 
Q 1547 4250 1301 3770 
Q 1056 3291 1056 2328 
Q 1056 1369 1301 889 
Q 1547 409 2034 409 
Q 2525 409 2770 889 
Q 3016 1369 3016 2328 
Q 3016 3291 2770 3770 
Q 2525 4250 2034 4250 
z
M 2034 4750 
Q 2819 4750 3233 4129 
Q 3647 3509 3647 2328 
Q 3647 1150 3233 529 
Q 2819 -91 2034 -91 
Q 1250 -91 836 529 
Q 422 1150 422 2328 
Q 422 3509 836 4129 
Q 1250 4750 2034 4750 
z
" transform="scale(0.015625)"/>
       </defs>
       <use xlink:href="#DejaVuSans-30"/>
      </g>
     </g>
    </g>
    <g id="xtick_2">
     <g id="line2d_2">
      <g>
       <use xlink:href="#m04e525d191" x="170.333038" y="343.23316" style="stroke: #000000"/>
      </g>
     </g>
     <g id="text_2">
      <!-- 50 -->
      <g transform="translate(159.135038 364.90641) scale(0.176 -0.176)">
       <defs>
        <path id="DejaVuSans-35" d="M 691 4666 
L 3169 4666 
L 3169 4134 
L 1269 4134 
L 1269 2991 
Q 1406 3038 1543 3061 
Q 1681 3084 1819 3084 
Q 2600 3084 3056 2656 
Q 3513 2228 3513 1497 
Q 3513 744 3044 326 
Q 2575 -91 1722 -91 
Q 1428 -91 1123 -41 
Q 819 9 494 109 
L 494 744 
Q 775 591 1075 516 
Q 1375 441 1709 441 
Q 2250 441 2565 725 
Q 2881 1009 2881 1497 
Q 2881 1984 2565 2268 
Q 2250 2553 1709 2553 
Q 1456 2553 1204 2497 
Q 953 2441 691 2322 
L 691 4666 
z
" transform="scale(0.015625)"/>
       </defs>
       <use xlink:href="#DejaVuSans-35"/>
       <use xlink:href="#DejaVuSans-30" x="63.623047"/>
      </g>
     </g>
    </g>
    <g id="xtick_3">
     <g id="line2d_3">
      <g>
       <use xlink:href="#m04e525d191" x="274.179192" y="343.23316" style="stroke: #000000"/>
      </g>
     </g>
     <g id="text_3">
      <!-- 100 -->
      <g transform="translate(257.382192 364.90641) scale(0.176 -0.176)">
       <defs>
        <path id="DejaVuSans-31" d="M 794 531 
L 1825 531 
L 1825 4091 
L 703 3866 
L 703 4441 
L 1819 4666 
L 2450 4666 
L 2450 531 
L 3481 531 
L 3481 0 
L 794 0 
L 794 531 
z
" transform="scale(0.015625)"/>
       </defs>
       <use xlink:href="#DejaVuSans-31"/>
       <use xlink:href="#DejaVuSans-30" x="63.623047"/>
       <use xlink:href="#DejaVuSans-30" x="127.246094"/>
      </g>
     </g>
    </g>
    <g id="xtick_4">
     <g id="line2d_4">
      <g>
       <use xlink:href="#m04e525d191" x="378.025346" y="343.23316" style="stroke: #000000"/>
      </g>
     </g>
     <g id="text_4">
      <!-- 150 -->
      <g transform="translate(361.228346 364.90641) scale(0.176 -0.176)">
       <use xlink:href="#DejaVuSans-31"/>
       <use xlink:href="#DejaVuSans-35" x="63.623047"/>
       <use xlink:href="#DejaVuSans-30" x="127.246094"/>
      </g>
     </g>
    </g>
    <g id="text_5">
     <!-- State -->
     <g transform="translate(208.06 387.15566) scale(0.192 -0.192)">
      <defs>
       <path id="DejaVuSans-53" d="M 3425 4513 
L 3425 3897 
Q 3066 4069 2747 4153 
Q 2428 4238 2131 4238 
Q 1616 4238 1336 4038 
Q 1056 3838 1056 3469 
Q 1056 3159 1242 3001 
Q 1428 2844 1947 2747 
L 2328 2669 
Q 3034 2534 3370 2195 
Q 3706 1856 3706 1288 
Q 3706 609 3251 259 
Q 2797 -91 1919 -91 
Q 1588 -91 1214 -16 
Q 841 59 441 206 
L 441 856 
Q 825 641 1194 531 
Q 1563 422 1919 422 
Q 2459 422 2753 634 
Q 3047 847 3047 1241 
Q 3047 1584 2836 1778 
Q 2625 1972 2144 2069 
L 1759 2144 
Q 1053 2284 737 2584 
Q 422 2884 422 3419 
Q 422 4038 858 4394 
Q 1294 4750 2059 4750 
Q 2388 4750 2728 4690 
Q 3069 4631 3425 4513 
z
" transform="scale(0.015625)"/>
       <path id="DejaVuSans-74" d="M 1172 4494 
L 1172 3500 
L 2356 3500 
L 2356 3053 
L 1172 3053 
L 1172 1153 
Q 1172 725 1289 603 
Q 1406 481 1766 481 
L 2356 481 
L 2356 0 
L 1766 0 
Q 1100 0 847 248 
Q 594 497 594 1153 
L 594 3053 
L 172 3053 
L 172 3500 
L 594 3500 
L 594 4494 
L 1172 4494 
z
" transform="scale(0.015625)"/>
       <path id="DejaVuSans-61" d="M 2194 1759 
Q 1497 1759 1228 1600 
Q 959 1441 959 1056 
Q 959 750 1161 570 
Q 1363 391 1709 391 
Q 2188 391 2477 730 
Q 2766 1069 2766 1631 
L 2766 1759 
L 2194 1759 
z
M 3341 1997 
L 3341 0 
L 2766 0 
L 2766 531 
Q 2569 213 2275 61 
Q 1981 -91 1556 -91 
Q 1019 -91 701 211 
Q 384 513 384 1019 
Q 384 1609 779 1909 
Q 1175 2209 1959 2209 
L 2766 2209 
L 2766 2266 
Q 2766 2663 2505 2880 
Q 2244 3097 1772 3097 
Q 1472 3097 1187 3025 
Q 903 2953 641 2809 
L 641 3341 
Q 956 3463 1253 3523 
Q 1550 3584 1831 3584 
Q 2591 3584 2966 3190 
Q 3341 2797 3341 1997 
z
" transform="scale(0.015625)"/>
       <path id="DejaVuSans-65" d="M 3597 1894 
L 3597 1613 
L 953 1613 
Q 991 1019 1311 708 
Q 1631 397 2203 397 
Q 2534 397 2845 478 
Q 3156 559 3463 722 
L 3463 178 
Q 3153 47 2828 -22 
Q 2503 -91 2169 -91 
Q 1331 -91 842 396 
Q 353 884 353 1716 
Q 353 2575 817 3079 
Q 1281 3584 2069 3584 
Q 2775 3584 3186 3129 
Q 3597 2675 3597 1894 
z
M 3022 2063 
Q 3016 2534 2758 2815 
Q 2500 3097 2075 3097 
Q 1594 3097 1305 2825 
Q 1016 2553 972 2059 
L 3022 2063 
z
" transform="scale(0.015625)"/>
      </defs>
      <use xlink:href="#DejaVuSans-53"/>
      <use xlink:href="#DejaVuSans-74" x="63.476562"/>
      <use xlink:href="#DejaVuSans-61" x="102.685547"/>
      <use xlink:href="#DejaVuSans-74" x="163.964844"/>
      <use xlink:href="#DejaVuSans-65" x="203.173828"/>
     </g>
    </g>
   </g>
   <g id="matplotlib.axis_2">
    <g id="ytick_1">
     <g id="line2d_5">
      <defs>
       <path id="m4420f9ff28" d="M 0 0 
L -4.8 0 
" style="stroke: #000000"/>
      </defs>
      <g>
       <use xlink:href="#m4420f9ff28" x="66.0715" y="343.23316" style="stroke: #000000"/>
      </g>
     </g>
     <g id="text_6">
      <!-- 0.0 -->
      <g transform="translate(29.782 349.919785) scale(0.176 -0.176)">
       <defs>
        <path id="DejaVuSans-2e" d="M 684 794 
L 1344 794 
L 1344 0 
L 684 0 
L 684 794 
z
" transform="scale(0.015625)"/>
       </defs>
       <use xlink:href="#DejaVuSans-30"/>
       <use xlink:href="#DejaVuSans-2e" x="63.623047"/>
       <use xlink:href="#DejaVuSans-30" x="95.410156"/>
      </g>
     </g>
    </g>
    <g id="ytick_2">
     <g id="line2d_6">
      <g>
       <use xlink:href="#m4420f9ff28" x="66.0715" y="277.363853" style="stroke: #000000"/>
      </g>
     </g>
     <g id="text_7">
      <!-- 0.2 -->
      <g transform="translate(29.782 284.050478) scale(0.176 -0.176)">
       <defs>
        <path id="DejaVuSans-32" d="M 1228 531 
L 3431 531 
L 3431 0 
L 469 0 
L 469 531 
Q 828 903 1448 1529 
Q 2069 2156 2228 2338 
Q 2531 2678 2651 2914 
Q 2772 3150 2772 3378 
Q 2772 3750 2511 3984 
Q 2250 4219 1831 4219 
Q 1534 4219 1204 4116 
Q 875 4013 500 3803 
L 500 4441 
Q 881 4594 1212 4672 
Q 1544 4750 1819 4750 
Q 2544 4750 2975 4387 
Q 3406 4025 3406 3419 
Q 3406 3131 3298 2873 
Q 3191 2616 2906 2266 
Q 2828 2175 2409 1742 
Q 1991 1309 1228 531 
z
" transform="scale(0.015625)"/>
       </defs>
       <use xlink:href="#DejaVuSans-30"/>
       <use xlink:href="#DejaVuSans-2e" x="63.623047"/>
       <use xlink:href="#DejaVuSans-32" x="95.410156"/>
      </g>
     </g>
    </g>
    <g id="ytick_3">
     <g id="line2d_7">
      <g>
       <use xlink:href="#m4420f9ff28" x="66.0715" y="211.494546" style="stroke: #000000"/>
      </g>
     </g>
     <g id="text_8">
      <!-- 0.4 -->
      <g transform="translate(29.782 218.181171) scale(0.176 -0.176)">
       <defs>
        <path id="DejaVuSans-34" d="M 2419 4116 
L 825 1625 
L 2419 1625 
L 2419 4116 
z
M 2253 4666 
L 3047 4666 
L 3047 1625 
L 3713 1625 
L 3713 1100 
L 3047 1100 
L 3047 0 
L 2419 0 
L 2419 1100 
L 313 1100 
L 313 1709 
L 2253 4666 
z
" transform="scale(0.015625)"/>
       </defs>
       <use xlink:href="#DejaVuSans-30"/>
       <use xlink:href="#DejaVuSans-2e" x="63.623047"/>
       <use xlink:href="#DejaVuSans-34" x="95.410156"/>
      </g>
     </g>
    </g>
    <g id="ytick_4">
     <g id="line2d_8">
      <g>
       <use xlink:href="#m4420f9ff28" x="66.0715" y="145.625239" style="stroke: #000000"/>
      </g>
     </g>
     <g id="text_9">
      <!-- 0.6 -->
      <g transform="translate(29.782 152.311864) scale(0.176 -0.176)">
       <defs>
        <path id="DejaVuSans-36" d="M 2113 2584 
Q 1688 2584 1439 2293 
Q 1191 2003 1191 1497 
Q 1191 994 1439 701 
Q 1688 409 2113 409 
Q 2538 409 2786 701 
Q 3034 994 3034 1497 
Q 3034 2003 2786 2293 
Q 2538 2584 2113 2584 
z
M 3366 4563 
L 3366 3988 
Q 3128 4100 2886 4159 
Q 2644 4219 2406 4219 
Q 1781 4219 1451 3797 
Q 1122 3375 1075 2522 
Q 1259 2794 1537 2939 
Q 1816 3084 2150 3084 
Q 2853 3084 3261 2657 
Q 3669 2231 3669 1497 
Q 3669 778 3244 343 
Q 2819 -91 2113 -91 
Q 1303 -91 875 529 
Q 447 1150 447 2328 
Q 447 3434 972 4092 
Q 1497 4750 2381 4750 
Q 2619 4750 2861 4703 
Q 3103 4656 3366 4563 
z
" transform="scale(0.015625)"/>
       </defs>
       <use xlink:href="#DejaVuSans-30"/>
       <use xlink:href="#DejaVuSans-2e" x="63.623047"/>
       <use xlink:href="#DejaVuSans-36" x="95.410156"/>
      </g>
     </g>
    </g>
    <g id="ytick_5">
     <g id="line2d_9">
      <g>
       <use xlink:href="#m4420f9ff28" x="66.0715" y="79.755932" style="stroke: #000000"/>
      </g>
     </g>
     <g id="text_10">
      <!-- 0.8 -->
      <g transform="translate(29.782 86.442557) scale(0.176 -0.176)">
       <defs>
        <path id="DejaVuSans-38" d="M 2034 2216 
Q 1584 2216 1326 1975 
Q 1069 1734 1069 1313 
Q 1069 891 1326 650 
Q 1584 409 2034 409 
Q 2484 409 2743 651 
Q 3003 894 3003 1313 
Q 3003 1734 2745 1975 
Q 2488 2216 2034 2216 
z
M 1403 2484 
Q 997 2584 770 2862 
Q 544 3141 544 3541 
Q 544 4100 942 4425 
Q 1341 4750 2034 4750 
Q 2731 4750 3128 4425 
Q 3525 4100 3525 3541 
Q 3525 3141 3298 2862 
Q 3072 2584 2669 2484 
Q 3125 2378 3379 2068 
Q 3634 1759 3634 1313 
Q 3634 634 3220 271 
Q 2806 -91 2034 -91 
Q 1263 -91 848 271 
Q 434 634 434 1313 
Q 434 1759 690 2068 
Q 947 2378 1403 2484 
z
M 1172 3481 
Q 1172 3119 1398 2916 
Q 1625 2713 2034 2713 
Q 2441 2713 2670 2916 
Q 2900 3119 2900 3481 
Q 2900 3844 2670 4047 
Q 2441 4250 2034 4250 
Q 1625 4250 1398 4047 
Q 1172 3844 1172 3481 
z
" transform="scale(0.015625)"/>
       </defs>
       <use xlink:href="#DejaVuSans-30"/>
       <use xlink:href="#DejaVuSans-2e" x="63.623047"/>
       <use xlink:href="#DejaVuSans-38" x="95.410156"/>
      </g>
     </g>
    </g>
    <g id="ytick_6">
     <g id="line2d_10">
      <g>
       <use xlink:href="#m4420f9ff28" x="66.0715" y="13.886625" style="stroke: #000000"/>
      </g>
     </g>
     <g id="text_11">
      <!-- 1.0 -->
      <g transform="translate(29.782 20.57325) scale(0.176 -0.176)">
       <use xlink:href="#DejaVuSans-31"/>
       <use xlink:href="#DejaVuSans-2e" x="63.623047"/>
       <use xlink:href="#DejaVuSans-30" x="95.410156"/>
      </g>
     </g>
    </g>
    <g id="text_12">
     <!-- Score -->
     <g transform="translate(21.789 203.79766) rotate(-90) scale(0.192 -0.192)">
      <defs>
       <path id="DejaVuSans-63" d="M 3122 3366 
L 3122 2828 
Q 2878 2963 2633 3030 
Q 2388 3097 2138 3097 
Q 1578 3097 1268 2742 
Q 959 2388 959 1747 
Q 959 1106 1268 751 
Q 1578 397 2138 397 
Q 2388 397 2633 464 
Q 2878 531 3122 666 
L 3122 134 
Q 2881 22 2623 -34 
Q 2366 -91 2075 -91 
Q 1284 -91 818 406 
Q 353 903 353 1747 
Q 353 2603 823 3093 
Q 1294 3584 2113 3584 
Q 2378 3584 2631 3529 
Q 2884 3475 3122 3366 
z
" transform="scale(0.015625)"/>
       <path id="DejaVuSans-6f" d="M 1959 3097 
Q 1497 3097 1228 2736 
Q 959 2375 959 1747 
Q 959 1119 1226 758 
Q 1494 397 1959 397 
Q 2419 397 2687 759 
Q 2956 1122 2956 1747 
Q 2956 2369 2687 2733 
Q 2419 3097 1959 3097 
z
M 1959 3584 
Q 2709 3584 3137 3096 
Q 3566 2609 3566 1747 
Q 3566 888 3137 398 
Q 2709 -91 1959 -91 
Q 1206 -91 779 398 
Q 353 888 353 1747 
Q 353 2609 779 3096 
Q 1206 3584 1959 3584 
z
" transform="scale(0.015625)"/>
       <path id="DejaVuSans-72" d="M 2631 2963 
Q 2534 3019 2420 3045 
Q 2306 3072 2169 3072 
Q 1681 3072 1420 2755 
Q 1159 2438 1159 1844 
L 1159 0 
L 581 0 
L 581 3500 
L 1159 3500 
L 1159 2956 
Q 1341 3275 1631 3429 
Q 1922 3584 2338 3584 
Q 2397 3584 2469 3576 
Q 2541 3569 2628 3553 
L 2631 2963 
z
" transform="scale(0.015625)"/>
      </defs>
      <use xlink:href="#DejaVuSans-53"/>
      <use xlink:href="#DejaVuSans-63" x="63.476562"/>
      <use xlink:href="#DejaVuSans-6f" x="118.457031"/>
      <use xlink:href="#DejaVuSans-72" x="179.638672"/>
      <use xlink:href="#DejaVuSans-65" x="218.501953"/>
     </g>
    </g>
   </g>
   <g id="line2d_11">
    <path d="M 66.486885 331.92139 
L 68.563808 331.92139 
L 72.717654 326.072819 
L 74.794577 83.748011 
L 76.8715 83.748011 
L 78.948423 83.748011 
L 85.179192 61.977048 
L 87.256115 61.977048 
L 89.333038 61.977048 
L 91.409962 61.977048 
L 95.563808 61.977048 
L 99.717654 61.977048 
L 101.794577 61.977048 
L 108.025346 61.977048 
L 110.102269 61.977048 
L 114.256115 61.977048 
L 116.333038 126.654227 
L 118.409962 165.949226 
L 120.486885 176.853434 
L 122.563808 176.853434 
L 124.640731 176.637636 
L 126.717654 176.529528 
L 128.794577 176.529528 
L 130.8715 176.529528 
L 132.948423 176.529528 
L 135.025346 176.529528 
L 137.102269 176.529528 
L 139.179192 176.529528 
L 143.333038 176.529528 
L 145.409962 176.529528 
L 147.486885 176.529528 
L 149.563808 176.529528 
L 151.640731 176.529528 
L 153.717654 176.529528 
L 155.794577 176.213512 
L 157.8715 176.213512 
L 159.948423 175.88836 
L 162.025346 175.88836 
L 164.102269 175.561939 
L 172.409962 175.234243 
L 178.640731 165.017308 
L 182.794577 164.438533 
L 184.8715 164.334489 
L 186.948423 164.334489 
L 189.025346 161.317224 
L 191.102269 160.675772 
L 195.256115 160.675772 
L 199.409962 161.572545 
L 201.486885 158.926208 
L 203.563808 158.926208 
L 205.640731 158.926208 
L 209.794577 158.7991 
L 211.8715 157.260012 
L 213.948423 157.000997 
L 220.179192 168.510345 
L 222.256115 168.099703 
L 224.333038 167.820331 
L 228.486885 162.491711 
L 230.563808 162.37931 
L 234.717654 150.514147 
L 236.794577 149.564267 
L 238.8715 149.177445 
L 240.948423 146.469148 
L 243.025346 146.070302 
L 245.102269 120.999328 
L 247.179192 119.398101 
L 249.256115 118.986547 
L 251.333038 118.735712 
L 253.409962 118.735712 
L 255.486885 118.405274 
L 257.563808 112.972956 
L 261.717654 112.639285 
L 263.794577 99.944306 
L 265.8715 96.29193 
L 267.948423 80.689421 
L 272.102269 80.86249 
L 274.179192 80.57129 
L 278.333038 78.170842 
L 280.409962 78.113598 
L 282.486885 76.927912 
L 286.640731 76.927912 
L 288.717654 69.030203 
L 290.794577 68.777714 
L 292.8715 68.727216 
L 294.948423 69.079313 
L 297.025346 64.224772 
L 299.102269 58.570263 
L 301.179192 57.17217 
L 303.256115 31.615424 
L 305.333038 31.615424 
L 309.486885 31.615424 
L 311.563808 31.615424 
L 319.8715 31.615424 
L 321.948423 31.524133 
L 328.179192 30.201004 
L 330.256115 26.593426 
L 342.717654 39.546329 
L 346.8715 39.371774 
L 348.948423 31.099859 
L 351.025346 29.980347 
L 353.102269 27.199402 
L 355.179192 24.105711 
L 357.256115 24.096659 
L 359.333038 23.813737 
L 361.409962 22.953892 
L 363.486885 22.669199 
L 365.563808 14.487074 
L 369.717654 14.487074 
L 371.794577 14.487074 
L 373.8715 14.474219 
L 384.256115 14.470573 
L 386.333038 14.470573 
L 390.486885 14.470573 
L 392.563808 14.470573 
L 394.640731 14.470573 
L 396.717654 14.470573 
L 398.794577 14.463414 
L 400.8715 13.886625 
" clip-path="url(#pb4092cd714)" style="fill: none; stroke-dasharray: 2,3.3; stroke-dashoffset: 0; stroke: #e41a1c; stroke-width: 2"/>
   </g>
   <g id="line2d_12">
    <path d="M 66.486885 335.721747 
L 68.563808 335.721747 
L 72.717654 335.721747 
L 74.794577 335.721747 
L 76.8715 335.721747 
L 78.948423 335.721747 
L 85.179192 287.475369 
L 87.256115 287.475369 
L 89.333038 287.475369 
L 91.409962 287.475369 
L 95.563808 287.475369 
L 99.717654 287.475369 
L 101.794577 287.475369 
L 108.025346 287.475369 
L 110.102269 287.475369 
L 114.256115 287.475369 
L 116.333038 189.53811 
L 118.409962 134.06922 
L 120.486885 117.890794 
L 122.563808 117.890794 
L 124.640731 117.890794 
L 126.717654 117.890794 
L 128.794577 117.890794 
L 130.8715 117.890794 
L 132.948423 117.890794 
L 135.025346 117.890794 
L 137.102269 117.890794 
L 139.179192 117.890794 
L 143.333038 117.890794 
L 145.409962 117.890794 
L 147.486885 117.890794 
L 149.563808 117.890794 
L 151.640731 117.890794 
L 153.717654 117.890794 
L 155.794577 117.024092 
L 157.8715 117.024092 
L 159.948423 117.024092 
L 162.025346 117.024092 
L 164.102269 117.024092 
L 172.409962 117.024092 
L 178.640731 117.024092 
L 182.794577 116.446291 
L 184.8715 116.157391 
L 186.948423 116.157391 
L 189.025346 116.157391 
L 191.102269 116.157391 
L 195.256115 116.157391 
L 199.409962 116.157391 
L 201.486885 108.645979 
L 203.563808 108.645979 
L 205.640731 108.645979 
L 209.794577 108.645979 
L 211.8715 108.645979 
L 213.948423 108.645979 
L 220.179192 89.578548 
L 222.256115 89.289647 
L 224.333038 88.422946 
L 228.486885 88.134046 
L 230.563808 88.134046 
L 234.717654 88.134046 
L 236.794577 87.556245 
L 238.8715 87.556245 
L 240.948423 87.267344 
L 243.025346 87.267344 
L 245.102269 86.689543 
L 247.179192 85.822842 
L 249.256115 84.95614 
L 251.333038 84.66724 
L 253.409962 84.66724 
L 255.486885 84.089439 
L 257.563808 84.089439 
L 261.717654 83.511638 
L 263.794577 83.511638 
L 265.8715 83.511638 
L 267.948423 83.222738 
L 272.102269 82.933837 
L 274.179192 82.644937 
L 278.333038 82.356036 
L 280.409962 82.067136 
L 282.486885 82.067136 
L 286.640731 82.067136 
L 288.717654 81.778235 
L 290.794577 81.778235 
L 292.8715 81.489335 
L 294.948423 80.622633 
L 297.025346 80.622633 
L 299.102269 80.044832 
L 301.179192 79.755932 
L 303.256115 79.178131 
L 305.333038 79.178131 
L 309.486885 79.178131 
L 311.563808 79.178131 
L 319.8715 79.178131 
L 321.948423 77.733629 
L 328.179192 77.155828 
L 330.256115 76.866927 
L 342.717654 32.087355 
L 346.8715 29.776151 
L 348.948423 28.909449 
L 351.025346 28.331648 
L 353.102269 27.753848 
L 355.179192 27.464947 
L 357.256115 27.176047 
L 359.333038 27.176047 
L 361.409962 26.887146 
L 363.486885 26.887146 
L 365.563808 26.887146 
L 369.717654 26.887146 
L 371.794577 26.887146 
L 373.8715 19.953535 
L 384.256115 17.931232 
L 386.333038 17.931232 
L 390.486885 17.931232 
L 392.563808 17.931232 
L 394.640731 17.931232 
L 396.717654 17.931232 
L 398.794577 13.886625 
L 400.8715 13.886625 
" clip-path="url(#pb4092cd714)" style="fill: none; stroke-dasharray: 7.4,3.2; stroke-dashoffset: 0; stroke: #377eb8; stroke-width: 2"/>
   </g>
   <g id="line2d_13">
    <path d="M 66.486885 334.20521 
L 68.563808 334.20521 
L 72.717654 332.784093 
L 74.794577 328.632972 
L 76.8715 328.632972 
L 78.948423 328.632972 
L 85.179192 250.167448 
L 87.256115 250.167448 
L 89.333038 250.167448 
L 91.409962 250.167448 
L 95.563808 250.167448 
L 99.717654 250.167448 
L 101.794577 250.167448 
L 108.025346 250.167448 
L 110.102269 250.167448 
L 114.256115 250.167448 
L 116.333038 163.435975 
L 118.409962 151.324193 
L 120.486885 151.809689 
L 122.563808 151.809689 
L 124.640731 151.666943 
L 126.717654 151.595489 
L 128.794577 151.595489 
L 130.8715 151.595489 
L 132.948423 151.595489 
L 135.025346 151.595489 
L 137.102269 151.595489 
L 139.179192 151.595489 
L 143.333038 151.595489 
L 145.409962 151.595489 
L 147.486885 151.595489 
L 149.563808 151.595489 
L 151.640731 151.595489 
L 153.717654 151.595489 
L 155.794577 151.073445 
L 157.8715 151.073445 
L 159.948423 150.858421 
L 162.025346 150.858421 
L 164.102269 150.642916 
L 172.409962 150.426927 
L 178.640731 143.868385 
L 182.794577 143.281861 
L 184.8715 143.104535 
L 186.948423 143.104535 
L 189.025346 141.230525 
L 191.102269 140.83568 
L 195.256115 140.83568 
L 199.409962 141.388032 
L 201.486885 136.803684 
L 203.563808 136.803684 
L 205.640731 136.803684 
L 209.794577 136.723981 
L 211.8715 135.762728 
L 213.948423 135.601649 
L 220.179192 136.316339 
L 222.256115 135.932333 
L 224.333038 135.448007 
L 228.486885 131.655866 
L 230.563808 131.578873 
L 234.717654 123.668803 
L 236.794577 122.838692 
L 238.8715 122.588434 
L 240.948423 120.739046 
L 243.025346 120.484282 
L 245.102269 105.073776 
L 247.179192 103.781701 
L 249.256115 103.171356 
L 251.333038 102.902831 
L 253.409962 102.902831 
L 255.486885 102.463933 
L 257.563808 99.383517 
L 261.717654 98.940639 
L 263.794577 91.996389 
L 265.8715 90.062972 
L 267.948423 81.96222 
L 272.102269 81.902268 
L 274.179192 81.612222 
L 278.333038 80.280091 
L 280.409962 80.105217 
L 282.486885 79.52256 
L 286.640731 79.52256 
L 288.717654 75.555913 
L 290.794577 75.435663 
L 292.8715 75.260137 
L 294.948423 74.975095 
L 297.025346 72.671931 
L 299.102269 69.728426 
L 301.179192 68.928101 
L 303.256115 57.361619 
L 305.333038 57.361619 
L 309.486885 57.361619 
L 311.563808 57.361619 
L 319.8715 57.361619 
L 321.948423 56.478574 
L 328.179192 55.58199 
L 330.256115 53.897757 
L 342.717654 35.862087 
L 346.8715 34.64854 
L 348.948423 30.008483 
L 351.025346 29.158162 
L 353.102269 27.476868 
L 355.179192 25.794216 
L 357.256115 25.643817 
L 359.333038 25.503787 
L 361.409962 24.932669 
L 363.486885 24.792139 
L 365.563808 20.806288 
L 369.717654 20.806288 
L 371.794577 20.806288 
L 373.8715 17.236899 
L 384.256115 16.210057 
L 386.333038 16.210057 
L 390.486885 16.210057 
L 392.563808 16.210057 
L 394.640731 16.210057 
L 396.717654 16.210057 
L 398.794577 14.175272 
L 400.8715 13.886625 
" clip-path="url(#pb4092cd714)" style="fill: none; stroke: #984ea3; stroke-width: 3; stroke-linecap: square"/>
   </g>
   <g id="patch_3">
    <path d="M 66.0715 343.23316 
L 66.0715 10.59316 
" style="fill: none; stroke: #000000; stroke-linejoin: miter; stroke-linecap: square"/>
   </g>
   <g id="patch_4">
    <path d="M 66.0715 343.23316 
L 400.8715 343.23316 
" style="fill: none; stroke: #000000; stroke-linejoin: miter; stroke-linecap: square"/>
   </g>
   <g id="legend_1">
    <g id="patch_5">
     <path d="M 253.71075 334.43316 
L 388.5515 334.43316 
Q 392.0715 334.43316 392.0715 330.91316 
L 392.0715 255.17266 
Q 392.0715 251.65266 388.5515 251.65266 
L 253.71075 251.65266 
Q 250.19075 251.65266 250.19075 255.17266 
L 250.19075 330.91316 
Q 250.19075 334.43316 253.71075 334.43316 
z
" style="fill: #ffffff; opacity: 0.8; stroke: #cccccc; stroke-width: 0.8; stroke-linejoin: miter"/>
    </g>
    <g id="line2d_14">
     <path d="M 257.23075 265.90591 
L 274.83075 265.90591 
L 292.43075 265.90591 
" style="fill: none; stroke-dasharray: 2,3.3; stroke-dashoffset: 0; stroke: #e41a1c; stroke-width: 2"/>
    </g>
    <g id="text_13">
     <!-- Precision -->
     <g transform="translate(306.51075 272.06591) scale(0.176 -0.176)">
      <defs>
       <path id="DejaVuSans-50" d="M 1259 4147 
L 1259 2394 
L 2053 2394 
Q 2494 2394 2734 2622 
Q 2975 2850 2975 3272 
Q 2975 3691 2734 3919 
Q 2494 4147 2053 4147 
L 1259 4147 
z
M 628 4666 
L 2053 4666 
Q 2838 4666 3239 4311 
Q 3641 3956 3641 3272 
Q 3641 2581 3239 2228 
Q 2838 1875 2053 1875 
L 1259 1875 
L 1259 0 
L 628 0 
L 628 4666 
z
" transform="scale(0.015625)"/>
       <path id="DejaVuSans-69" d="M 603 3500 
L 1178 3500 
L 1178 0 
L 603 0 
L 603 3500 
z
M 603 4863 
L 1178 4863 
L 1178 4134 
L 603 4134 
L 603 4863 
z
" transform="scale(0.015625)"/>
       <path id="DejaVuSans-73" d="M 2834 3397 
L 2834 2853 
Q 2591 2978 2328 3040 
Q 2066 3103 1784 3103 
Q 1356 3103 1142 2972 
Q 928 2841 928 2578 
Q 928 2378 1081 2264 
Q 1234 2150 1697 2047 
L 1894 2003 
Q 2506 1872 2764 1633 
Q 3022 1394 3022 966 
Q 3022 478 2636 193 
Q 2250 -91 1575 -91 
Q 1294 -91 989 -36 
Q 684 19 347 128 
L 347 722 
Q 666 556 975 473 
Q 1284 391 1588 391 
Q 1994 391 2212 530 
Q 2431 669 2431 922 
Q 2431 1156 2273 1281 
Q 2116 1406 1581 1522 
L 1381 1569 
Q 847 1681 609 1914 
Q 372 2147 372 2553 
Q 372 3047 722 3315 
Q 1072 3584 1716 3584 
Q 2034 3584 2315 3537 
Q 2597 3491 2834 3397 
z
" transform="scale(0.015625)"/>
       <path id="DejaVuSans-6e" d="M 3513 2113 
L 3513 0 
L 2938 0 
L 2938 2094 
Q 2938 2591 2744 2837 
Q 2550 3084 2163 3084 
Q 1697 3084 1428 2787 
Q 1159 2491 1159 1978 
L 1159 0 
L 581 0 
L 581 3500 
L 1159 3500 
L 1159 2956 
Q 1366 3272 1645 3428 
Q 1925 3584 2291 3584 
Q 2894 3584 3203 3211 
Q 3513 2838 3513 2113 
z
" transform="scale(0.015625)"/>
      </defs>
      <use xlink:href="#DejaVuSans-50"/>
      <use xlink:href="#DejaVuSans-72" x="58.552734"/>
      <use xlink:href="#DejaVuSans-65" x="97.416016"/>
      <use xlink:href="#DejaVuSans-63" x="158.939453"/>
      <use xlink:href="#DejaVuSans-69" x="213.919922"/>
      <use xlink:href="#DejaVuSans-73" x="241.703125"/>
      <use xlink:href="#DejaVuSans-69" x="293.802734"/>
      <use xlink:href="#DejaVuSans-6f" x="321.585938"/>
      <use xlink:href="#DejaVuSans-6e" x="382.767578"/>
     </g>
    </g>
    <g id="line2d_15">
     <path d="M 257.23075 291.73941 
L 274.83075 291.73941 
L 292.43075 291.73941 
" style="fill: none; stroke-dasharray: 7.4,3.2; stroke-dashoffset: 0; stroke: #377eb8; stroke-width: 2"/>
    </g>
    <g id="text_14">
     <!-- Recall -->
     <g transform="translate(306.51075 297.89941) scale(0.176 -0.176)">
      <defs>
       <path id="DejaVuSans-52" d="M 2841 2188 
Q 3044 2119 3236 1894 
Q 3428 1669 3622 1275 
L 4263 0 
L 3584 0 
L 2988 1197 
Q 2756 1666 2539 1819 
Q 2322 1972 1947 1972 
L 1259 1972 
L 1259 0 
L 628 0 
L 628 4666 
L 2053 4666 
Q 2853 4666 3247 4331 
Q 3641 3997 3641 3322 
Q 3641 2881 3436 2590 
Q 3231 2300 2841 2188 
z
M 1259 4147 
L 1259 2491 
L 2053 2491 
Q 2509 2491 2742 2702 
Q 2975 2913 2975 3322 
Q 2975 3731 2742 3939 
Q 2509 4147 2053 4147 
L 1259 4147 
z
" transform="scale(0.015625)"/>
       <path id="DejaVuSans-6c" d="M 603 4863 
L 1178 4863 
L 1178 0 
L 603 0 
L 603 4863 
z
" transform="scale(0.015625)"/>
      </defs>
      <use xlink:href="#DejaVuSans-52"/>
      <use xlink:href="#DejaVuSans-65" x="64.982422"/>
      <use xlink:href="#DejaVuSans-63" x="126.505859"/>
      <use xlink:href="#DejaVuSans-61" x="181.486328"/>
      <use xlink:href="#DejaVuSans-6c" x="242.765625"/>
      <use xlink:href="#DejaVuSans-6c" x="270.548828"/>
     </g>
    </g>
    <g id="line2d_16">
     <path d="M 257.23075 317.57291 
L 274.83075 317.57291 
L 292.43075 317.57291 
" style="fill: none; stroke: #984ea3; stroke-width: 3; stroke-linecap: square"/>
    </g>
    <g id="text_15">
     <!-- F1 -->
     <g transform="translate(306.51075 323.73291) scale(0.176 -0.176)">
      <defs>
       <path id="DejaVuSans-46" d="M 628 4666 
L 3309 4666 
L 3309 4134 
L 1259 4134 
L 1259 2759 
L 3109 2759 
L 3109 2228 
L 1259 2228 
L 1259 0 
L 628 0 
L 628 4666 
z
" transform="scale(0.015625)"/>
      </defs>
      <use xlink:href="#DejaVuSans-46"/>
      <use xlink:href="#DejaVuSans-31" x="57.519531"/>
     </g>
    </g>
   </g>
  </g>
 </g>
 <defs>
  <clipPath id="pb4092cd714">
   <rect x="66.0715" y="10.59316" width="334.8" height="332.64"/>
  </clipPath>
 </defs>
</svg>
