<?xml version="1.0" encoding="utf-8" standalone="no"?>
<!DOCTYPE svg PUBLIC "-//W3C//DTD SVG 1.1//EN"
  "http://www.w3.org/Graphics/SVG/1.1/DTD/svg11.dtd">
<svg xmlns:xlink="http://www.w3.org/1999/xlink" width="408.0715pt" height="398.34866pt" viewBox="0 0 408.0715 398.34866" xmlns="http://www.w3.org/2000/svg" version="1.1">
 <metadata>
  <rdf:RDF xmlns:dc="http://purl.org/dc/elements/1.1/" xmlns:cc="http://creativecommons.org/ns#" xmlns:rdf="http://www.w3.org/1999/02/22-rdf-syntax-ns#">
   <cc:Work>
    <dc:type rdf:resource="http://purl.org/dc/dcmitype/StillImage"/>
    <dc:date>2024-10-01T11:02:32.646992</dc:date>
    <dc:format>image/svg+xml</dc:format>
    <dc:creator>
     <cc:Agent>
      <dc:title>Matplotlib v3.8.0, https://matplotlib.org/</dc:title>
     </cc:Agent>
    </dc:creator>
   </cc:Work>
  </rdf:RDF>
 </metadata>
 <defs>
  <style type="text/css">*{stroke-linejoin: round; stroke-linecap: butt}</style>
 </defs>
 <g id="figure_1">
  <g id="patch_1">
   <path d="M 0 398.34866 
L 408.0715 398.34866 
L 408.0715 0 
L 0 0 
z
" style="fill: #ffffff"/>
  </g>
  <g id="axes_1">
   <g id="patch_2">
    <path d="M 66.0715 343.23316 
L 400.8715 343.23316 
L 400.8715 10.59316 
L 66.0715 10.59316 
z
" style="fill: #ffffff"/>
   </g>
   <g id="PolyCollection_1"/>
   <g id="PolyCollection_2"/>
   <g id="PolyCollection_3"/>
   <g id="PolyCollection_4">
    <defs>
     <path id="m078d942ad6" d="M 67.03913 -387.7555 
L 67.03913 -55.1155 
L 71.87728 -55.1155 
L 71.87728 -387.7555 
L 71.87728 -387.7555 
L 67.03913 -387.7555 
z
"/>
    </defs>
    <g clip-path="url(#p9d6f3199dd)">
     <use xlink:href="#m078d942ad6" x="0" y="398.34866" style="fill: #1b9e77; fill-opacity: 0.2"/>
    </g>
   </g>
   <g id="PolyCollection_5">
    <defs>
     <path id="m9762f1f5cf" d="M 71.87728 -387.7555 
L 71.87728 -55.1155 
L 76.715431 -55.1155 
L 76.715431 -387.7555 
L 76.715431 -387.7555 
L 71.87728 -387.7555 
z
"/>
    </defs>
    <g clip-path="url(#p9d6f3199dd)">
     <use xlink:href="#m9762f1f5cf" x="0" y="398.34866" style="fill: #1b9e77; fill-opacity: 0.2"/>
    </g>
   </g>
   <g id="PolyCollection_6">
    <defs>
     <path id="mcf94bb5a9a" d="M 76.715431 -387.7555 
L 76.715431 -55.1155 
L 81.553581 -55.1155 
L 81.553581 -387.7555 
L 81.553581 -387.7555 
L 76.715431 -387.7555 
z
"/>
    </defs>
    <g clip-path="url(#p9d6f3199dd)">
     <use xlink:href="#mcf94bb5a9a" x="0" y="398.34866" style="fill: #1b9e77; fill-opacity: 0.2"/>
    </g>
   </g>
   <g id="PolyCollection_7">
    <defs>
     <path id="m1b3e327034" d="M 81.553581 -387.7555 
L 81.553581 -55.1155 
L 86.391731 -55.1155 
L 86.391731 -387.7555 
L 86.391731 -387.7555 
L 81.553581 -387.7555 
z
"/>
    </defs>
    <g clip-path="url(#p9d6f3199dd)">
     <use xlink:href="#m1b3e327034" x="0" y="398.34866" style="fill: #d95f02; fill-opacity: 0.2"/>
    </g>
   </g>
   <g id="PolyCollection_8">
    <defs>
     <path id="md01c44abdc" d="M 86.391731 -387.7555 
L 86.391731 -55.1155 
L 91.229882 -55.1155 
L 91.229882 -387.7555 
L 91.229882 -387.7555 
L 86.391731 -387.7555 
z
"/>
    </defs>
    <g clip-path="url(#p9d6f3199dd)">
     <use xlink:href="#md01c44abdc" x="0" y="398.34866" style="fill: #d95f02; fill-opacity: 0.2"/>
    </g>
   </g>
   <g id="PolyCollection_9">
    <defs>
     <path id="me196f9b290" d="M 91.229882 -387.7555 
L 91.229882 -55.1155 
L 96.068032 -55.1155 
L 96.068032 -387.7555 
L 96.068032 -387.7555 
L 91.229882 -387.7555 
z
"/>
    </defs>
    <g clip-path="url(#p9d6f3199dd)">
     <use xlink:href="#me196f9b290" x="0" y="398.34866" style="fill: #d95f02; fill-opacity: 0.2"/>
    </g>
   </g>
   <g id="PolyCollection_10">
    <defs>
     <path id="m3c69a6a031" d="M 96.068032 -387.7555 
L 96.068032 -55.1155 
L 100.906182 -55.1155 
L 100.906182 -387.7555 
L 100.906182 -387.7555 
L 96.068032 -387.7555 
z
"/>
    </defs>
    <g clip-path="url(#p9d6f3199dd)">
     <use xlink:href="#m3c69a6a031" x="0" y="398.34866" style="fill: #d95f02; fill-opacity: 0.2"/>
    </g>
   </g>
   <g id="PolyCollection_11">
    <defs>
     <path id="me11c91a8e6" d="M 100.906182 -387.7555 
L 100.906182 -55.1155 
L 105.744332 -55.1155 
L 105.744332 -387.7555 
L 105.744332 -387.7555 
L 100.906182 -387.7555 
z
"/>
    </defs>
    <g clip-path="url(#p9d6f3199dd)">
     <use xlink:href="#me11c91a8e6" x="0" y="398.34866" style="fill: #1b9e77; fill-opacity: 0.2"/>
    </g>
   </g>
   <g id="PolyCollection_12">
    <defs>
     <path id="mda278dad6f" d="M 105.744332 -387.7555 
L 105.744332 -55.1155 
L 110.582483 -55.1155 
L 110.582483 -387.7555 
L 110.582483 -387.7555 
L 105.744332 -387.7555 
z
"/>
    </defs>
    <g clip-path="url(#p9d6f3199dd)">
     <use xlink:href="#mda278dad6f" x="0" y="398.34866" style="fill: #d95f02; fill-opacity: 0.2"/>
    </g>
   </g>
   <g id="PolyCollection_13">
    <defs>
     <path id="m397bff75ba" d="M 110.582483 -387.7555 
L 110.582483 -55.1155 
L 115.420633 -55.1155 
L 115.420633 -387.7555 
L 115.420633 -387.7555 
L 110.582483 -387.7555 
z
"/>
    </defs>
    <g clip-path="url(#p9d6f3199dd)">
     <use xlink:href="#m397bff75ba" x="0" y="398.34866" style="fill: #d95f02; fill-opacity: 0.2"/>
    </g>
   </g>
   <g id="PolyCollection_14">
    <defs>
     <path id="m76edf55542" d="M 115.420633 -387.7555 
L 115.420633 -55.1155 
L 120.258783 -55.1155 
L 120.258783 -387.7555 
L 120.258783 -387.7555 
L 115.420633 -387.7555 
z
"/>
    </defs>
    <g clip-path="url(#p9d6f3199dd)">
     <use xlink:href="#m76edf55542" x="0" y="398.34866" style="fill: #d95f02; fill-opacity: 0.2"/>
    </g>
   </g>
   <g id="PolyCollection_15">
    <defs>
     <path id="m609da5d4fa" d="M 120.258783 -387.7555 
L 120.258783 -55.1155 
L 125.096934 -55.1155 
L 125.096934 -387.7555 
L 125.096934 -387.7555 
L 120.258783 -387.7555 
z
"/>
    </defs>
    <g clip-path="url(#p9d6f3199dd)">
     <use xlink:href="#m609da5d4fa" x="0" y="398.34866" style="fill: #d95f02; fill-opacity: 0.2"/>
    </g>
   </g>
   <g id="PolyCollection_16">
    <defs>
     <path id="m15d3abb5ce" d="M 125.096934 -387.7555 
L 125.096934 -55.1155 
L 129.935084 -55.1155 
L 129.935084 -387.7555 
L 129.935084 -387.7555 
L 125.096934 -387.7555 
z
"/>
    </defs>
    <g clip-path="url(#p9d6f3199dd)">
     <use xlink:href="#m15d3abb5ce" x="0" y="398.34866" style="fill: #d95f02; fill-opacity: 0.2"/>
    </g>
   </g>
   <g id="PolyCollection_17">
    <defs>
     <path id="m0ad1cf4919" d="M 129.935084 -387.7555 
L 129.935084 -55.1155 
L 134.773234 -55.1155 
L 134.773234 -387.7555 
L 134.773234 -387.7555 
L 129.935084 -387.7555 
z
"/>
    </defs>
    <g clip-path="url(#p9d6f3199dd)">
     <use xlink:href="#m0ad1cf4919" x="0" y="398.34866" style="fill: #d95f02; fill-opacity: 0.2"/>
    </g>
   </g>
   <g id="PolyCollection_18">
    <defs>
     <path id="mdcceb13441" d="M 134.773234 -387.7555 
L 134.773234 -55.1155 
L 139.611384 -55.1155 
L 139.611384 -387.7555 
L 139.611384 -387.7555 
L 134.773234 -387.7555 
z
"/>
    </defs>
    <g clip-path="url(#p9d6f3199dd)">
     <use xlink:href="#mdcceb13441" x="0" y="398.34866" style="fill: #d95f02; fill-opacity: 0.2"/>
    </g>
   </g>
   <g id="PolyCollection_19">
    <defs>
     <path id="mb2891fabf3" d="M 139.611384 -387.7555 
L 139.611384 -55.1155 
L 144.449535 -55.1155 
L 144.449535 -387.7555 
L 144.449535 -387.7555 
L 139.611384 -387.7555 
z
"/>
    </defs>
    <g clip-path="url(#p9d6f3199dd)">
     <use xlink:href="#mb2891fabf3" x="0" y="398.34866" style="fill: #d95f02; fill-opacity: 0.2"/>
    </g>
   </g>
   <g id="PolyCollection_20">
    <defs>
     <path id="mf0ab96ea4c" d="M 144.449535 -387.7555 
L 144.449535 -55.1155 
L 149.287685 -55.1155 
L 149.287685 -387.7555 
L 149.287685 -387.7555 
L 144.449535 -387.7555 
z
"/>
    </defs>
    <g clip-path="url(#p9d6f3199dd)">
     <use xlink:href="#mf0ab96ea4c" x="0" y="398.34866" style="fill: #d95f02; fill-opacity: 0.2"/>
    </g>
   </g>
   <g id="PolyCollection_21">
    <defs>
     <path id="ma2d74122b3" d="M 149.287685 -387.7555 
L 149.287685 -55.1155 
L 154.125835 -55.1155 
L 154.125835 -387.7555 
L 154.125835 -387.7555 
L 149.287685 -387.7555 
z
"/>
    </defs>
    <g clip-path="url(#p9d6f3199dd)">
     <use xlink:href="#ma2d74122b3" x="0" y="398.34866" style="fill: #1b9e77; fill-opacity: 0.2"/>
    </g>
   </g>
   <g id="PolyCollection_22">
    <defs>
     <path id="m7911874295" d="M 154.125835 -387.7555 
L 154.125835 -55.1155 
L 158.963986 -55.1155 
L 158.963986 -387.7555 
L 158.963986 -387.7555 
L 154.125835 -387.7555 
z
"/>
    </defs>
    <g clip-path="url(#p9d6f3199dd)">
     <use xlink:href="#m7911874295" x="0" y="398.34866" style="fill: #d95f02; fill-opacity: 0.2"/>
    </g>
   </g>
   <g id="PolyCollection_23">
    <defs>
     <path id="m1e33042857" d="M 158.963986 -387.7555 
L 158.963986 -55.1155 
L 163.802136 -55.1155 
L 163.802136 -387.7555 
L 163.802136 -387.7555 
L 158.963986 -387.7555 
z
"/>
    </defs>
    <g clip-path="url(#p9d6f3199dd)">
     <use xlink:href="#m1e33042857" x="0" y="398.34866" style="fill: #d95f02; fill-opacity: 0.2"/>
    </g>
   </g>
   <g id="PolyCollection_24">
    <defs>
     <path id="m9041338b67" d="M 163.802136 -387.7555 
L 163.802136 -55.1155 
L 168.640286 -55.1155 
L 168.640286 -387.7555 
L 168.640286 -387.7555 
L 163.802136 -387.7555 
z
"/>
    </defs>
    <g clip-path="url(#p9d6f3199dd)">
     <use xlink:href="#m9041338b67" x="0" y="398.34866" style="fill: #1b9e77; fill-opacity: 0.2"/>
    </g>
   </g>
   <g id="PolyCollection_25">
    <defs>
     <path id="m5baeb50d97" d="M 168.640286 -387.7555 
L 168.640286 -55.1155 
L 173.478436 -55.1155 
L 173.478436 -387.7555 
L 173.478436 -387.7555 
L 168.640286 -387.7555 
z
"/>
    </defs>
    <g clip-path="url(#p9d6f3199dd)">
     <use xlink:href="#m5baeb50d97" x="0" y="398.34866" style="fill: #1b9e77; fill-opacity: 0.2"/>
    </g>
   </g>
   <g id="PolyCollection_26">
    <defs>
     <path id="m7909e6116d" d="M 173.478436 -387.7555 
L 173.478436 -55.1155 
L 178.316587 -55.1155 
L 178.316587 -387.7555 
L 178.316587 -387.7555 
L 173.478436 -387.7555 
z
"/>
    </defs>
    <g clip-path="url(#p9d6f3199dd)">
     <use xlink:href="#m7909e6116d" x="0" y="398.34866" style="fill: #1b9e77; fill-opacity: 0.2"/>
    </g>
   </g>
   <g id="PolyCollection_27">
    <defs>
     <path id="m511fa7c7d7" d="M 178.316587 -387.7555 
L 178.316587 -55.1155 
L 183.154737 -55.1155 
L 183.154737 -387.7555 
L 183.154737 -387.7555 
L 178.316587 -387.7555 
z
"/>
    </defs>
    <g clip-path="url(#p9d6f3199dd)">
     <use xlink:href="#m511fa7c7d7" x="0" y="398.34866" style="fill: #d95f02; fill-opacity: 0.2"/>
    </g>
   </g>
   <g id="PolyCollection_28">
    <defs>
     <path id="m24f5ff69e4" d="M 183.154737 -387.7555 
L 183.154737 -55.1155 
L 187.992887 -55.1155 
L 187.992887 -387.7555 
L 187.992887 -387.7555 
L 183.154737 -387.7555 
z
"/>
    </defs>
    <g clip-path="url(#p9d6f3199dd)">
     <use xlink:href="#m24f5ff69e4" x="0" y="398.34866" style="fill: #1b9e77; fill-opacity: 0.2"/>
    </g>
   </g>
   <g id="PolyCollection_29">
    <defs>
     <path id="m90c2b47545" d="M 187.992887 -387.7555 
L 187.992887 -55.1155 
L 192.831038 -55.1155 
L 192.831038 -387.7555 
L 192.831038 -387.7555 
L 187.992887 -387.7555 
z
"/>
    </defs>
    <g clip-path="url(#p9d6f3199dd)">
     <use xlink:href="#m90c2b47545" x="0" y="398.34866" style="fill: #1b9e77; fill-opacity: 0.2"/>
    </g>
   </g>
   <g id="PolyCollection_30">
    <defs>
     <path id="m0126851444" d="M 192.831038 -387.7555 
L 192.831038 -55.1155 
L 197.669188 -55.1155 
L 197.669188 -387.7555 
L 197.669188 -387.7555 
L 192.831038 -387.7555 
z
"/>
    </defs>
    <g clip-path="url(#p9d6f3199dd)">
     <use xlink:href="#m0126851444" x="0" y="398.34866" style="fill: #1b9e77; fill-opacity: 0.2"/>
    </g>
   </g>
   <g id="PolyCollection_31">
    <defs>
     <path id="m82c934dc7c" d="M 197.669188 -387.7555 
L 197.669188 -55.1155 
L 202.507338 -55.1155 
L 202.507338 -387.7555 
L 202.507338 -387.7555 
L 197.669188 -387.7555 
z
"/>
    </defs>
    <g clip-path="url(#p9d6f3199dd)">
     <use xlink:href="#m82c934dc7c" x="0" y="398.34866" style="fill: #1b9e77; fill-opacity: 0.2"/>
    </g>
   </g>
   <g id="PolyCollection_32">
    <defs>
     <path id="mc240a1aad3" d="M 202.507338 -387.7555 
L 202.507338 -55.1155 
L 207.345488 -55.1155 
L 207.345488 -387.7555 
L 207.345488 -387.7555 
L 202.507338 -387.7555 
z
"/>
    </defs>
    <g clip-path="url(#p9d6f3199dd)">
     <use xlink:href="#mc240a1aad3" x="0" y="398.34866" style="fill: #d95f02; fill-opacity: 0.2"/>
    </g>
   </g>
   <g id="PolyCollection_33">
    <defs>
     <path id="m56cb230890" d="M 207.345488 -387.7555 
L 207.345488 -55.1155 
L 212.183639 -55.1155 
L 212.183639 -387.7555 
L 212.183639 -387.7555 
L 207.345488 -387.7555 
z
"/>
    </defs>
    <g clip-path="url(#p9d6f3199dd)">
     <use xlink:href="#m56cb230890" x="0" y="398.34866" style="fill: #d95f02; fill-opacity: 0.2"/>
    </g>
   </g>
   <g id="PolyCollection_34">
    <defs>
     <path id="md09752dce4" d="M 212.183639 -387.7555 
L 212.183639 -55.1155 
L 217.021789 -55.1155 
L 217.021789 -387.7555 
L 217.021789 -387.7555 
L 212.183639 -387.7555 
z
"/>
    </defs>
    <g clip-path="url(#p9d6f3199dd)">
     <use xlink:href="#md09752dce4" x="0" y="398.34866" style="fill: #d95f02; fill-opacity: 0.2"/>
    </g>
   </g>
   <g id="PolyCollection_35">
    <defs>
     <path id="me351f2ecb6" d="M 217.021789 -387.7555 
L 217.021789 -55.1155 
L 221.859939 -55.1155 
L 221.859939 -387.7555 
L 221.859939 -387.7555 
L 217.021789 -387.7555 
z
"/>
    </defs>
    <g clip-path="url(#p9d6f3199dd)">
     <use xlink:href="#me351f2ecb6" x="0" y="398.34866" style="fill: #d95f02; fill-opacity: 0.2"/>
    </g>
   </g>
   <g id="PolyCollection_36">
    <defs>
     <path id="m9ee061d4d6" d="M 221.859939 -387.7555 
L 221.859939 -55.1155 
L 226.69809 -55.1155 
L 226.69809 -387.7555 
L 226.69809 -387.7555 
L 221.859939 -387.7555 
z
"/>
    </defs>
    <g clip-path="url(#p9d6f3199dd)">
     <use xlink:href="#m9ee061d4d6" x="0" y="398.34866" style="fill: #d95f02; fill-opacity: 0.2"/>
    </g>
   </g>
   <g id="PolyCollection_37">
    <defs>
     <path id="m2b08faf194" d="M 226.69809 -387.7555 
L 226.69809 -55.1155 
L 231.53624 -55.1155 
L 231.53624 -387.7555 
L 231.53624 -387.7555 
L 226.69809 -387.7555 
z
"/>
    </defs>
    <g clip-path="url(#p9d6f3199dd)">
     <use xlink:href="#m2b08faf194" x="0" y="398.34866" style="fill: #1b9e77; fill-opacity: 0.2"/>
    </g>
   </g>
   <g id="PolyCollection_38">
    <defs>
     <path id="m5d43e1103e" d="M 231.53624 -387.7555 
L 231.53624 -55.1155 
L 236.37439 -55.1155 
L 236.37439 -387.7555 
L 236.37439 -387.7555 
L 231.53624 -387.7555 
z
"/>
    </defs>
    <g clip-path="url(#p9d6f3199dd)">
     <use xlink:href="#m5d43e1103e" x="0" y="398.34866" style="fill: #1b9e77; fill-opacity: 0.2"/>
    </g>
   </g>
   <g id="PolyCollection_39">
    <defs>
     <path id="mb664d0e35b" d="M 236.37439 -387.7555 
L 236.37439 -55.1155 
L 241.21254 -55.1155 
L 241.21254 -387.7555 
L 241.21254 -387.7555 
L 236.37439 -387.7555 
z
"/>
    </defs>
    <g clip-path="url(#p9d6f3199dd)">
     <use xlink:href="#mb664d0e35b" x="0" y="398.34866" style="fill: #1b9e77; fill-opacity: 0.2"/>
    </g>
   </g>
   <g id="PolyCollection_40">
    <defs>
     <path id="m05a925e1e1" d="M 241.21254 -387.7555 
L 241.21254 -55.1155 
L 246.050691 -55.1155 
L 246.050691 -387.7555 
L 246.050691 -387.7555 
L 241.21254 -387.7555 
z
"/>
    </defs>
    <g clip-path="url(#p9d6f3199dd)">
     <use xlink:href="#m05a925e1e1" x="0" y="398.34866" style="fill: #1b9e77; fill-opacity: 0.2"/>
    </g>
   </g>
   <g id="PolyCollection_41">
    <defs>
     <path id="m158a25d0d0" d="M 246.050691 -387.7555 
L 246.050691 -55.1155 
L 250.888841 -55.1155 
L 250.888841 -387.7555 
L 250.888841 -387.7555 
L 246.050691 -387.7555 
z
"/>
    </defs>
    <g clip-path="url(#p9d6f3199dd)">
     <use xlink:href="#m158a25d0d0" x="0" y="398.34866" style="fill: #1b9e77; fill-opacity: 0.2"/>
    </g>
   </g>
   <g id="PolyCollection_42">
    <defs>
     <path id="m78d764f0c0" d="M 250.888841 -387.7555 
L 250.888841 -55.1155 
L 255.726991 -55.1155 
L 255.726991 -387.7555 
L 255.726991 -387.7555 
L 250.888841 -387.7555 
z
"/>
    </defs>
    <g clip-path="url(#p9d6f3199dd)">
     <use xlink:href="#m78d764f0c0" x="0" y="398.34866" style="fill: #1b9e77; fill-opacity: 0.2"/>
    </g>
   </g>
   <g id="PolyCollection_43">
    <defs>
     <path id="m6f60048247" d="M 255.726991 -387.7555 
L 255.726991 -55.1155 
L 260.565142 -55.1155 
L 260.565142 -387.7555 
L 260.565142 -387.7555 
L 255.726991 -387.7555 
z
"/>
    </defs>
    <g clip-path="url(#p9d6f3199dd)">
     <use xlink:href="#m6f60048247" x="0" y="398.34866" style="fill: #d95f02; fill-opacity: 0.2"/>
    </g>
   </g>
   <g id="PolyCollection_44">
    <defs>
     <path id="mc683eb109b" d="M 260.565142 -387.7555 
L 260.565142 -55.1155 
L 265.403292 -55.1155 
L 265.403292 -387.7555 
L 265.403292 -387.7555 
L 260.565142 -387.7555 
z
"/>
    </defs>
    <g clip-path="url(#p9d6f3199dd)">
     <use xlink:href="#mc683eb109b" x="0" y="398.34866" style="fill: #1b9e77; fill-opacity: 0.2"/>
    </g>
   </g>
   <g id="PolyCollection_45">
    <defs>
     <path id="ma05711ee55" d="M 265.403292 -387.7555 
L 265.403292 -55.1155 
L 270.241442 -55.1155 
L 270.241442 -387.7555 
L 270.241442 -387.7555 
L 265.403292 -387.7555 
z
"/>
    </defs>
    <g clip-path="url(#p9d6f3199dd)">
     <use xlink:href="#ma05711ee55" x="0" y="398.34866" style="fill: #1b9e77; fill-opacity: 0.2"/>
    </g>
   </g>
   <g id="PolyCollection_46">
    <defs>
     <path id="m155dedb550" d="M 270.241442 -387.7555 
L 270.241442 -55.1155 
L 275.079592 -55.1155 
L 275.079592 -387.7555 
L 275.079592 -387.7555 
L 270.241442 -387.7555 
z
"/>
    </defs>
    <g clip-path="url(#p9d6f3199dd)">
     <use xlink:href="#m155dedb550" x="0" y="398.34866" style="fill: #1b9e77; fill-opacity: 0.2"/>
    </g>
   </g>
   <g id="PolyCollection_47">
    <defs>
     <path id="mcf54168ba7" d="M 275.079592 -387.7555 
L 275.079592 -55.1155 
L 279.917743 -55.1155 
L 279.917743 -387.7555 
L 279.917743 -387.7555 
L 275.079592 -387.7555 
z
"/>
    </defs>
    <g clip-path="url(#p9d6f3199dd)">
     <use xlink:href="#mcf54168ba7" x="0" y="398.34866" style="fill: #1b9e77; fill-opacity: 0.2"/>
    </g>
   </g>
   <g id="PolyCollection_48">
    <defs>
     <path id="m2eddcad741" d="M 279.917743 -387.7555 
L 279.917743 -55.1155 
L 284.755893 -55.1155 
L 284.755893 -387.7555 
L 284.755893 -387.7555 
L 279.917743 -387.7555 
z
"/>
    </defs>
    <g clip-path="url(#p9d6f3199dd)">
     <use xlink:href="#m2eddcad741" x="0" y="398.34866" style="fill: #1b9e77; fill-opacity: 0.2"/>
    </g>
   </g>
   <g id="PolyCollection_49">
    <defs>
     <path id="m39967731b1" d="M 284.755893 -387.7555 
L 284.755893 -55.1155 
L 289.594043 -55.1155 
L 289.594043 -387.7555 
L 289.594043 -387.7555 
L 284.755893 -387.7555 
z
"/>
    </defs>
    <g clip-path="url(#p9d6f3199dd)">
     <use xlink:href="#m39967731b1" x="0" y="398.34866" style="fill: #1b9e77; fill-opacity: 0.2"/>
    </g>
   </g>
   <g id="PolyCollection_50">
    <defs>
     <path id="mb74e901ef6" d="M 289.594043 -387.7555 
L 289.594043 -55.1155 
L 294.432194 -55.1155 
L 294.432194 -387.7555 
L 294.432194 -387.7555 
L 289.594043 -387.7555 
z
"/>
    </defs>
    <g clip-path="url(#p9d6f3199dd)">
     <use xlink:href="#mb74e901ef6" x="0" y="398.34866" style="fill: #1b9e77; fill-opacity: 0.2"/>
    </g>
   </g>
   <g id="PolyCollection_51">
    <defs>
     <path id="m93edbba412" d="M 294.432194 -387.7555 
L 294.432194 -55.1155 
L 299.270344 -55.1155 
L 299.270344 -387.7555 
L 299.270344 -387.7555 
L 294.432194 -387.7555 
z
"/>
    </defs>
    <g clip-path="url(#p9d6f3199dd)">
     <use xlink:href="#m93edbba412" x="0" y="398.34866" style="fill: #d95f02; fill-opacity: 0.2"/>
    </g>
   </g>
   <g id="PolyCollection_52">
    <defs>
     <path id="m3d3020cd34" d="M 299.270344 -387.7555 
L 299.270344 -55.1155 
L 304.108494 -55.1155 
L 304.108494 -387.7555 
L 304.108494 -387.7555 
L 299.270344 -387.7555 
z
"/>
    </defs>
    <g clip-path="url(#p9d6f3199dd)">
     <use xlink:href="#m3d3020cd34" x="0" y="398.34866" style="fill: #d95f02; fill-opacity: 0.2"/>
    </g>
   </g>
   <g id="PolyCollection_53">
    <defs>
     <path id="m17d8d4aa26" d="M 304.108494 -387.7555 
L 304.108494 -55.1155 
L 308.946645 -55.1155 
L 308.946645 -387.7555 
L 308.946645 -387.7555 
L 304.108494 -387.7555 
z
"/>
    </defs>
    <g clip-path="url(#p9d6f3199dd)">
     <use xlink:href="#m17d8d4aa26" x="0" y="398.34866" style="fill: #d95f02; fill-opacity: 0.2"/>
    </g>
   </g>
   <g id="PolyCollection_54">
    <defs>
     <path id="m89960a9728" d="M 308.946645 -387.7555 
L 308.946645 -55.1155 
L 313.784795 -55.1155 
L 313.784795 -387.7555 
L 313.784795 -387.7555 
L 308.946645 -387.7555 
z
"/>
    </defs>
    <g clip-path="url(#p9d6f3199dd)">
     <use xlink:href="#m89960a9728" x="0" y="398.34866" style="fill: #1b9e77; fill-opacity: 0.2"/>
    </g>
   </g>
   <g id="PolyCollection_55">
    <defs>
     <path id="ma5e9fa1a2f" d="M 313.784795 -387.7555 
L 313.784795 -55.1155 
L 318.622945 -55.1155 
L 318.622945 -387.7555 
L 318.622945 -387.7555 
L 313.784795 -387.7555 
z
"/>
    </defs>
    <g clip-path="url(#p9d6f3199dd)">
     <use xlink:href="#ma5e9fa1a2f" x="0" y="398.34866" style="fill: #d95f02; fill-opacity: 0.2"/>
    </g>
   </g>
   <g id="PolyCollection_56">
    <defs>
     <path id="mb8ef710a21" d="M 318.622945 -387.7555 
L 318.622945 -55.1155 
L 323.461095 -55.1155 
L 323.461095 -387.7555 
L 323.461095 -387.7555 
L 318.622945 -387.7555 
z
"/>
    </defs>
    <g clip-path="url(#p9d6f3199dd)">
     <use xlink:href="#mb8ef710a21" x="0" y="398.34866" style="fill: #1b9e77; fill-opacity: 0.2"/>
    </g>
   </g>
   <g id="PolyCollection_57">
    <defs>
     <path id="mdd63db73b6" d="M 323.461095 -387.7555 
L 323.461095 -55.1155 
L 328.299246 -55.1155 
L 328.299246 -387.7555 
L 328.299246 -387.7555 
L 323.461095 -387.7555 
z
"/>
    </defs>
    <g clip-path="url(#p9d6f3199dd)">
     <use xlink:href="#mdd63db73b6" x="0" y="398.34866" style="fill: #1b9e77; fill-opacity: 0.2"/>
    </g>
   </g>
   <g id="PolyCollection_58">
    <defs>
     <path id="md19a3d0a44" d="M 328.299246 -387.7555 
L 328.299246 -55.1155 
L 333.137396 -55.1155 
L 333.137396 -387.7555 
L 333.137396 -387.7555 
L 328.299246 -387.7555 
z
"/>
    </defs>
    <g clip-path="url(#p9d6f3199dd)">
     <use xlink:href="#md19a3d0a44" x="0" y="398.34866" style="fill: #1b9e77; fill-opacity: 0.2"/>
    </g>
   </g>
   <g id="PolyCollection_59">
    <defs>
     <path id="m2c68092534" d="M 333.137396 -387.7555 
L 333.137396 -55.1155 
L 337.975546 -55.1155 
L 337.975546 -387.7555 
L 337.975546 -387.7555 
L 333.137396 -387.7555 
z
"/>
    </defs>
    <g clip-path="url(#p9d6f3199dd)">
     <use xlink:href="#m2c68092534" x="0" y="398.34866" style="fill: #1b9e77; fill-opacity: 0.2"/>
    </g>
   </g>
   <g id="PolyCollection_60">
    <defs>
     <path id="m7aaa27826b" d="M 337.975546 -387.7555 
L 337.975546 -55.1155 
L 342.813697 -55.1155 
L 342.813697 -387.7555 
L 342.813697 -387.7555 
L 337.975546 -387.7555 
z
"/>
    </defs>
    <g clip-path="url(#p9d6f3199dd)">
     <use xlink:href="#m7aaa27826b" x="0" y="398.34866" style="fill: #1b9e77; fill-opacity: 0.2"/>
    </g>
   </g>
   <g id="PolyCollection_61">
    <defs>
     <path id="m918d728922" d="M 342.813697 -387.7555 
L 342.813697 -55.1155 
L 347.651847 -55.1155 
L 347.651847 -387.7555 
L 347.651847 -387.7555 
L 342.813697 -387.7555 
z
"/>
    </defs>
    <g clip-path="url(#p9d6f3199dd)">
     <use xlink:href="#m918d728922" x="0" y="398.34866" style="fill: #1b9e77; fill-opacity: 0.2"/>
    </g>
   </g>
   <g id="PolyCollection_62">
    <defs>
     <path id="m1197382365" d="M 347.651847 -387.7555 
L 347.651847 -55.1155 
L 352.489997 -55.1155 
L 352.489997 -387.7555 
L 352.489997 -387.7555 
L 347.651847 -387.7555 
z
"/>
    </defs>
    <g clip-path="url(#p9d6f3199dd)">
     <use xlink:href="#m1197382365" x="0" y="398.34866" style="fill: #1b9e77; fill-opacity: 0.2"/>
    </g>
   </g>
   <g id="PolyCollection_63">
    <defs>
     <path id="m0f92570971" d="M 352.489997 -387.7555 
L 352.489997 -55.1155 
L 357.328147 -55.1155 
L 357.328147 -387.7555 
L 357.328147 -387.7555 
L 352.489997 -387.7555 
z
"/>
    </defs>
    <g clip-path="url(#p9d6f3199dd)">
     <use xlink:href="#m0f92570971" x="0" y="398.34866" style="fill: #1b9e77; fill-opacity: 0.2"/>
    </g>
   </g>
   <g id="PolyCollection_64">
    <defs>
     <path id="me393caad7c" d="M 357.328147 -387.7555 
L 357.328147 -55.1155 
L 362.166298 -55.1155 
L 362.166298 -387.7555 
L 362.166298 -387.7555 
L 357.328147 -387.7555 
z
"/>
    </defs>
    <g clip-path="url(#p9d6f3199dd)">
     <use xlink:href="#me393caad7c" x="0" y="398.34866" style="fill: #1b9e77; fill-opacity: 0.2"/>
    </g>
   </g>
   <g id="PolyCollection_65">
    <defs>
     <path id="m602155848c" d="M 362.166298 -387.7555 
L 362.166298 -55.1155 
L 367.004448 -55.1155 
L 367.004448 -387.7555 
L 367.004448 -387.7555 
L 362.166298 -387.7555 
z
"/>
    </defs>
    <g clip-path="url(#p9d6f3199dd)">
     <use xlink:href="#m602155848c" x="0" y="398.34866" style="fill: #d95f02; fill-opacity: 0.2"/>
    </g>
   </g>
   <g id="PolyCollection_66">
    <defs>
     <path id="mec2cb9845f" d="M 367.004448 -387.7555 
L 367.004448 -55.1155 
L 371.842598 -55.1155 
L 371.842598 -387.7555 
L 371.842598 -387.7555 
L 367.004448 -387.7555 
z
"/>
    </defs>
    <g clip-path="url(#p9d6f3199dd)">
     <use xlink:href="#mec2cb9845f" x="0" y="398.34866" style="fill: #d95f02; fill-opacity: 0.2"/>
    </g>
   </g>
   <g id="PolyCollection_67">
    <defs>
     <path id="m554ce8eade" d="M 371.842598 -387.7555 
L 371.842598 -55.1155 
L 376.680749 -55.1155 
L 376.680749 -387.7555 
L 376.680749 -387.7555 
L 371.842598 -387.7555 
z
"/>
    </defs>
    <g clip-path="url(#p9d6f3199dd)">
     <use xlink:href="#m554ce8eade" x="0" y="398.34866" style="fill: #1b9e77; fill-opacity: 0.2"/>
    </g>
   </g>
   <g id="PolyCollection_68">
    <defs>
     <path id="me944d50a0d" d="M 376.680749 -387.7555 
L 376.680749 -55.1155 
L 381.518899 -55.1155 
L 381.518899 -387.7555 
L 381.518899 -387.7555 
L 376.680749 -387.7555 
z
"/>
    </defs>
    <g clip-path="url(#p9d6f3199dd)">
     <use xlink:href="#me944d50a0d" x="0" y="398.34866" style="fill: #1b9e77; fill-opacity: 0.2"/>
    </g>
   </g>
   <g id="PolyCollection_69">
    <defs>
     <path id="m8bb3bda338" d="M 381.518899 -387.7555 
L 381.518899 -55.1155 
L 386.357049 -55.1155 
L 386.357049 -387.7555 
L 386.357049 -387.7555 
L 381.518899 -387.7555 
z
"/>
    </defs>
    <g clip-path="url(#p9d6f3199dd)">
     <use xlink:href="#m8bb3bda338" x="0" y="398.34866" style="fill: #1b9e77; fill-opacity: 0.2"/>
    </g>
   </g>
   <g id="PolyCollection_70">
    <defs>
     <path id="m841966c11c" d="M 386.357049 -387.7555 
L 386.357049 -55.1155 
L 391.195199 -55.1155 
L 391.195199 -387.7555 
L 391.195199 -387.7555 
L 386.357049 -387.7555 
z
"/>
    </defs>
    <g clip-path="url(#p9d6f3199dd)">
     <use xlink:href="#m841966c11c" x="0" y="398.34866" style="fill: #1b9e77; fill-opacity: 0.2"/>
    </g>
   </g>
   <g id="PolyCollection_71">
    <defs>
     <path id="m607efe59f1" d="M 391.195199 -387.7555 
L 391.195199 -55.1155 
L 396.03335 -55.1155 
L 396.03335 -387.7555 
L 396.03335 -387.7555 
L 391.195199 -387.7555 
z
"/>
    </defs>
    <g clip-path="url(#p9d6f3199dd)">
     <use xlink:href="#m607efe59f1" x="0" y="398.34866" style="fill: #1b9e77; fill-opacity: 0.2"/>
    </g>
   </g>
   <g id="PolyCollection_72">
    <defs>
     <path id="mb4c35adb4f" d="M 396.03335 -387.7555 
L 396.03335 -55.1155 
L 400.8715 -55.1155 
L 400.8715 -387.7555 
L 400.8715 -387.7555 
L 396.03335 -387.7555 
z
"/>
    </defs>
    <g clip-path="url(#p9d6f3199dd)">
     <use xlink:href="#mb4c35adb4f" x="0" y="398.34866" style="fill: #1b9e77; fill-opacity: 0.2"/>
    </g>
   </g>
   <g id="matplotlib.axis_1">
    <g id="xtick_1">
     <g id="line2d_1">
      <defs>
       <path id="m18fd665bcd" d="M 0 0 
L 0 4.8 
" style="stroke: #000000"/>
      </defs>
      <g>
       <use xlink:href="#m18fd665bcd" x="67.03913" y="343.23316" style="stroke: #000000"/>
      </g>
     </g>
     <g id="text_1">
      <!-- 0 -->
      <g transform="translate(61.44013 364.90641) scale(0.176 -0.176)">
       <defs>
        <path id="DejaVuSans-30" d="M 2034 4250 
Q 1547 4250 1301 3770 
Q 1056 3291 1056 2328 
Q 1056 1369 1301 889 
Q 1547 409 2034 409 
Q 2525 409 2770 889 
Q 3016 1369 3016 2328 
Q 3016 3291 2770 3770 
Q 2525 4250 2034 4250 
z
M 2034 4750 
Q 2819 4750 3233 4129 
Q 3647 3509 3647 2328 
Q 3647 1150 3233 529 
Q 2819 -91 2034 -91 
Q 1250 -91 836 529 
Q 422 1150 422 2328 
Q 422 3509 836 4129 
Q 1250 4750 2034 4750 
z
" transform="scale(0.015625)"/>
       </defs>
       <use xlink:href="#DejaVuSans-30"/>
      </g>
     </g>
    </g>
    <g id="xtick_2">
     <g id="line2d_2">
      <g>
       <use xlink:href="#m18fd665bcd" x="163.802136" y="343.23316" style="stroke: #000000"/>
      </g>
     </g>
     <g id="text_2">
      <!-- 20 -->
      <g transform="translate(152.604136 364.90641) scale(0.176 -0.176)">
       <defs>
        <path id="DejaVuSans-32" d="M 1228 531 
L 3431 531 
L 3431 0 
L 469 0 
L 469 531 
Q 828 903 1448 1529 
Q 2069 2156 2228 2338 
Q 2531 2678 2651 2914 
Q 2772 3150 2772 3378 
Q 2772 3750 2511 3984 
Q 2250 4219 1831 4219 
Q 1534 4219 1204 4116 
Q 875 4013 500 3803 
L 500 4441 
Q 881 4594 1212 4672 
Q 1544 4750 1819 4750 
Q 2544 4750 2975 4387 
Q 3406 4025 3406 3419 
Q 3406 3131 3298 2873 
Q 3191 2616 2906 2266 
Q 2828 2175 2409 1742 
Q 1991 1309 1228 531 
z
" transform="scale(0.015625)"/>
       </defs>
       <use xlink:href="#DejaVuSans-32"/>
       <use xlink:href="#DejaVuSans-30" x="63.623047"/>
      </g>
     </g>
    </g>
    <g id="xtick_3">
     <g id="line2d_3">
      <g>
       <use xlink:href="#m18fd665bcd" x="260.565142" y="343.23316" style="stroke: #000000"/>
      </g>
     </g>
     <g id="text_3">
      <!-- 40 -->
      <g transform="translate(249.367142 364.90641) scale(0.176 -0.176)">
       <defs>
        <path id="DejaVuSans-34" d="M 2419 4116 
L 825 1625 
L 2419 1625 
L 2419 4116 
z
M 2253 4666 
L 3047 4666 
L 3047 1625 
L 3713 1625 
L 3713 1100 
L 3047 1100 
L 3047 0 
L 2419 0 
L 2419 1100 
L 313 1100 
L 313 1709 
L 2253 4666 
z
" transform="scale(0.015625)"/>
       </defs>
       <use xlink:href="#DejaVuSans-34"/>
       <use xlink:href="#DejaVuSans-30" x="63.623047"/>
      </g>
     </g>
    </g>
    <g id="xtick_4">
     <g id="line2d_4">
      <g>
       <use xlink:href="#m18fd665bcd" x="357.328147" y="343.23316" style="stroke: #000000"/>
      </g>
     </g>
     <g id="text_4">
      <!-- 60 -->
      <g transform="translate(346.130147 364.90641) scale(0.176 -0.176)">
       <defs>
        <path id="DejaVuSans-36" d="M 2113 2584 
Q 1688 2584 1439 2293 
Q 1191 2003 1191 1497 
Q 1191 994 1439 701 
Q 1688 409 2113 409 
Q 2538 409 2786 701 
Q 3034 994 3034 1497 
Q 3034 2003 2786 2293 
Q 2538 2584 2113 2584 
z
M 3366 4563 
L 3366 3988 
Q 3128 4100 2886 4159 
Q 2644 4219 2406 4219 
Q 1781 4219 1451 3797 
Q 1122 3375 1075 2522 
Q 1259 2794 1537 2939 
Q 1816 3084 2150 3084 
Q 2853 3084 3261 2657 
Q 3669 2231 3669 1497 
Q 3669 778 3244 343 
Q 2819 -91 2113 -91 
Q 1303 -91 875 529 
Q 447 1150 447 2328 
Q 447 3434 972 4092 
Q 1497 4750 2381 4750 
Q 2619 4750 2861 4703 
Q 3103 4656 3366 4563 
z
" transform="scale(0.015625)"/>
       </defs>
       <use xlink:href="#DejaVuSans-36"/>
       <use xlink:href="#DejaVuSans-30" x="63.623047"/>
      </g>
     </g>
    </g>
    <g id="text_5">
     <!-- State -->
     <g transform="translate(208.06 387.15566) scale(0.192 -0.192)">
      <defs>
       <path id="DejaVuSans-53" d="M 3425 4513 
L 3425 3897 
Q 3066 4069 2747 4153 
Q 2428 4238 2131 4238 
Q 1616 4238 1336 4038 
Q 1056 3838 1056 3469 
Q 1056 3159 1242 3001 
Q 1428 2844 1947 2747 
L 2328 2669 
Q 3034 2534 3370 2195 
Q 3706 1856 3706 1288 
Q 3706 609 3251 259 
Q 2797 -91 1919 -91 
Q 1588 -91 1214 -16 
Q 841 59 441 206 
L 441 856 
Q 825 641 1194 531 
Q 1563 422 1919 422 
Q 2459 422 2753 634 
Q 3047 847 3047 1241 
Q 3047 1584 2836 1778 
Q 2625 1972 2144 2069 
L 1759 2144 
Q 1053 2284 737 2584 
Q 422 2884 422 3419 
Q 422 4038 858 4394 
Q 1294 4750 2059 4750 
Q 2388 4750 2728 4690 
Q 3069 4631 3425 4513 
z
" transform="scale(0.015625)"/>
       <path id="DejaVuSans-74" d="M 1172 4494 
L 1172 3500 
L 2356 3500 
L 2356 3053 
L 1172 3053 
L 1172 1153 
Q 1172 725 1289 603 
Q 1406 481 1766 481 
L 2356 481 
L 2356 0 
L 1766 0 
Q 1100 0 847 248 
Q 594 497 594 1153 
L 594 3053 
L 172 3053 
L 172 3500 
L 594 3500 
L 594 4494 
L 1172 4494 
z
" transform="scale(0.015625)"/>
       <path id="DejaVuSans-61" d="M 2194 1759 
Q 1497 1759 1228 1600 
Q 959 1441 959 1056 
Q 959 750 1161 570 
Q 1363 391 1709 391 
Q 2188 391 2477 730 
Q 2766 1069 2766 1631 
L 2766 1759 
L 2194 1759 
z
M 3341 1997 
L 3341 0 
L 2766 0 
L 2766 531 
Q 2569 213 2275 61 
Q 1981 -91 1556 -91 
Q 1019 -91 701 211 
Q 384 513 384 1019 
Q 384 1609 779 1909 
Q 1175 2209 1959 2209 
L 2766 2209 
L 2766 2266 
Q 2766 2663 2505 2880 
Q 2244 3097 1772 3097 
Q 1472 3097 1187 3025 
Q 903 2953 641 2809 
L 641 3341 
Q 956 3463 1253 3523 
Q 1550 3584 1831 3584 
Q 2591 3584 2966 3190 
Q 3341 2797 3341 1997 
z
" transform="scale(0.015625)"/>
       <path id="DejaVuSans-65" d="M 3597 1894 
L 3597 1613 
L 953 1613 
Q 991 1019 1311 708 
Q 1631 397 2203 397 
Q 2534 397 2845 478 
Q 3156 559 3463 722 
L 3463 178 
Q 3153 47 2828 -22 
Q 2503 -91 2169 -91 
Q 1331 -91 842 396 
Q 353 884 353 1716 
Q 353 2575 817 3079 
Q 1281 3584 2069 3584 
Q 2775 3584 3186 3129 
Q 3597 2675 3597 1894 
z
M 3022 2063 
Q 3016 2534 2758 2815 
Q 2500 3097 2075 3097 
Q 1594 3097 1305 2825 
Q 1016 2553 972 2059 
L 3022 2063 
z
" transform="scale(0.015625)"/>
      </defs>
      <use xlink:href="#DejaVuSans-53"/>
      <use xlink:href="#DejaVuSans-74" x="63.476562"/>
      <use xlink:href="#DejaVuSans-61" x="102.685547"/>
      <use xlink:href="#DejaVuSans-74" x="163.964844"/>
      <use xlink:href="#DejaVuSans-65" x="203.173828"/>
     </g>
    </g>
   </g>
   <g id="matplotlib.axis_2">
    <g id="ytick_1">
     <g id="line2d_5">
      <defs>
       <path id="meebddbd3b1" d="M 0 0 
L -4.8 0 
" style="stroke: #000000"/>
      </defs>
      <g>
       <use xlink:href="#meebddbd3b1" x="66.0715" y="343.23316" style="stroke: #000000"/>
      </g>
     </g>
     <g id="text_6">
      <!-- 0.0 -->
      <g transform="translate(29.782 349.919785) scale(0.176 -0.176)">
       <defs>
        <path id="DejaVuSans-2e" d="M 684 794 
L 1344 794 
L 1344 0 
L 684 0 
L 684 794 
z
" transform="scale(0.015625)"/>
       </defs>
       <use xlink:href="#DejaVuSans-30"/>
       <use xlink:href="#DejaVuSans-2e" x="63.623047"/>
       <use xlink:href="#DejaVuSans-30" x="95.410156"/>
      </g>
     </g>
    </g>
    <g id="ytick_2">
     <g id="line2d_6">
      <g>
       <use xlink:href="#meebddbd3b1" x="66.0715" y="277.363853" style="stroke: #000000"/>
      </g>
     </g>
     <g id="text_7">
      <!-- 0.2 -->
      <g transform="translate(29.782 284.050478) scale(0.176 -0.176)">
       <use xlink:href="#DejaVuSans-30"/>
       <use xlink:href="#DejaVuSans-2e" x="63.623047"/>
       <use xlink:href="#DejaVuSans-32" x="95.410156"/>
      </g>
     </g>
    </g>
    <g id="ytick_3">
     <g id="line2d_7">
      <g>
       <use xlink:href="#meebddbd3b1" x="66.0715" y="211.494546" style="stroke: #000000"/>
      </g>
     </g>
     <g id="text_8">
      <!-- 0.4 -->
      <g transform="translate(29.782 218.181171) scale(0.176 -0.176)">
       <use xlink:href="#DejaVuSans-30"/>
       <use xlink:href="#DejaVuSans-2e" x="63.623047"/>
       <use xlink:href="#DejaVuSans-34" x="95.410156"/>
      </g>
     </g>
    </g>
    <g id="ytick_4">
     <g id="line2d_8">
      <g>
       <use xlink:href="#meebddbd3b1" x="66.0715" y="145.625239" style="stroke: #000000"/>
      </g>
     </g>
     <g id="text_9">
      <!-- 0.6 -->
      <g transform="translate(29.782 152.311864) scale(0.176 -0.176)">
       <use xlink:href="#DejaVuSans-30"/>
       <use xlink:href="#DejaVuSans-2e" x="63.623047"/>
       <use xlink:href="#DejaVuSans-36" x="95.410156"/>
      </g>
     </g>
    </g>
    <g id="ytick_5">
     <g id="line2d_9">
      <g>
       <use xlink:href="#meebddbd3b1" x="66.0715" y="79.755932" style="stroke: #000000"/>
      </g>
     </g>
     <g id="text_10">
      <!-- 0.8 -->
      <g transform="translate(29.782 86.442557) scale(0.176 -0.176)">
       <defs>
        <path id="DejaVuSans-38" d="M 2034 2216 
Q 1584 2216 1326 1975 
Q 1069 1734 1069 1313 
Q 1069 891 1326 650 
Q 1584 409 2034 409 
Q 2484 409 2743 651 
Q 3003 894 3003 1313 
Q 3003 1734 2745 1975 
Q 2488 2216 2034 2216 
z
M 1403 2484 
Q 997 2584 770 2862 
Q 544 3141 544 3541 
Q 544 4100 942 4425 
Q 1341 4750 2034 4750 
Q 2731 4750 3128 4425 
Q 3525 4100 3525 3541 
Q 3525 3141 3298 2862 
Q 3072 2584 2669 2484 
Q 3125 2378 3379 2068 
Q 3634 1759 3634 1313 
Q 3634 634 3220 271 
Q 2806 -91 2034 -91 
Q 1263 -91 848 271 
Q 434 634 434 1313 
Q 434 1759 690 2068 
Q 947 2378 1403 2484 
z
M 1172 3481 
Q 1172 3119 1398 2916 
Q 1625 2713 2034 2713 
Q 2441 2713 2670 2916 
Q 2900 3119 2900 3481 
Q 2900 3844 2670 4047 
Q 2441 4250 2034 4250 
Q 1625 4250 1398 4047 
Q 1172 3844 1172 3481 
z
" transform="scale(0.015625)"/>
       </defs>
       <use xlink:href="#DejaVuSans-30"/>
       <use xlink:href="#DejaVuSans-2e" x="63.623047"/>
       <use xlink:href="#DejaVuSans-38" x="95.410156"/>
      </g>
     </g>
    </g>
    <g id="ytick_6">
     <g id="line2d_10">
      <g>
       <use xlink:href="#meebddbd3b1" x="66.0715" y="13.886625" style="stroke: #000000"/>
      </g>
     </g>
     <g id="text_11">
      <!-- 1.0 -->
      <g transform="translate(29.782 20.57325) scale(0.176 -0.176)">
       <defs>
        <path id="DejaVuSans-31" d="M 794 531 
L 1825 531 
L 1825 4091 
L 703 3866 
L 703 4441 
L 1819 4666 
L 2450 4666 
L 2450 531 
L 3481 531 
L 3481 0 
L 794 0 
L 794 531 
z
" transform="scale(0.015625)"/>
       </defs>
       <use xlink:href="#DejaVuSans-31"/>
       <use xlink:href="#DejaVuSans-2e" x="63.623047"/>
       <use xlink:href="#DejaVuSans-30" x="95.410156"/>
      </g>
     </g>
    </g>
    <g id="text_12">
     <!-- Score -->
     <g transform="translate(21.789 203.79766) rotate(-90) scale(0.192 -0.192)">
      <defs>
       <path id="DejaVuSans-63" d="M 3122 3366 
L 3122 2828 
Q 2878 2963 2633 3030 
Q 2388 3097 2138 3097 
Q 1578 3097 1268 2742 
Q 959 2388 959 1747 
Q 959 1106 1268 751 
Q 1578 397 2138 397 
Q 2388 397 2633 464 
Q 2878 531 3122 666 
L 3122 134 
Q 2881 22 2623 -34 
Q 2366 -91 2075 -91 
Q 1284 -91 818 406 
Q 353 903 353 1747 
Q 353 2603 823 3093 
Q 1294 3584 2113 3584 
Q 2378 3584 2631 3529 
Q 2884 3475 3122 3366 
z
" transform="scale(0.015625)"/>
       <path id="DejaVuSans-6f" d="M 1959 3097 
Q 1497 3097 1228 2736 
Q 959 2375 959 1747 
Q 959 1119 1226 758 
Q 1494 397 1959 397 
Q 2419 397 2687 759 
Q 2956 1122 2956 1747 
Q 2956 2369 2687 2733 
Q 2419 3097 1959 3097 
z
M 1959 3584 
Q 2709 3584 3137 3096 
Q 3566 2609 3566 1747 
Q 3566 888 3137 398 
Q 2709 -91 1959 -91 
Q 1206 -91 779 398 
Q 353 888 353 1747 
Q 353 2609 779 3096 
Q 1206 3584 1959 3584 
z
" transform="scale(0.015625)"/>
       <path id="DejaVuSans-72" d="M 2631 2963 
Q 2534 3019 2420 3045 
Q 2306 3072 2169 3072 
Q 1681 3072 1420 2755 
Q 1159 2438 1159 1844 
L 1159 0 
L 581 0 
L 581 3500 
L 1159 3500 
L 1159 2956 
Q 1341 3275 1631 3429 
Q 1922 3584 2338 3584 
Q 2397 3584 2469 3576 
Q 2541 3569 2628 3553 
L 2631 2963 
z
" transform="scale(0.015625)"/>
      </defs>
      <use xlink:href="#DejaVuSans-53"/>
      <use xlink:href="#DejaVuSans-63" x="63.476562"/>
      <use xlink:href="#DejaVuSans-6f" x="118.457031"/>
      <use xlink:href="#DejaVuSans-72" x="179.638672"/>
      <use xlink:href="#DejaVuSans-65" x="218.501953"/>
     </g>
    </g>
   </g>
   <g id="line2d_11">
    <path d="M 71.87728 312.207761 
L 76.715431 312.207761 
L 81.553581 312.207761 
L 86.391731 312.207761 
L 91.229882 312.207761 
L 96.068032 312.207761 
L 100.906182 312.207761 
L 105.744332 312.207761 
L 110.582483 157.080771 
L 115.420633 157.080771 
L 120.258783 157.080771 
L 125.096934 157.080771 
L 129.935084 157.080771 
L 134.773234 157.080771 
L 139.611384 157.080771 
L 144.449535 157.080771 
L 149.287685 157.080771 
L 154.125835 157.080771 
L 158.963986 157.080771 
L 163.802136 157.080771 
L 168.640286 140.558369 
L 173.478436 140.558369 
L 178.316587 140.558369 
L 183.154737 140.558369 
L 187.992887 140.558369 
L 192.831038 140.558369 
L 197.669188 140.558369 
L 202.507338 140.558369 
L 207.345488 140.558369 
L 212.183639 140.558369 
L 217.021789 140.558369 
L 221.859939 140.558369 
L 226.69809 140.558369 
L 231.53624 140.558369 
L 236.37439 140.558369 
L 241.21254 140.558369 
L 246.050691 140.558369 
L 250.888841 140.558369 
L 255.726991 127.454396 
L 260.565142 127.454396 
L 265.403292 127.454396 
L 270.241442 127.454396 
L 275.079592 127.454396 
L 279.917743 127.454396 
L 284.755893 73.767813 
L 289.594043 53.56693 
L 294.432194 103.708407 
L 299.270344 93.997944 
L 304.108494 40.882243 
L 308.946645 13.886625 
L 313.784795 13.886625 
L 318.622945 13.886625 
L 323.461095 13.886625 
L 328.299246 13.886625 
L 333.137396 13.886625 
L 337.975546 13.886625 
L 342.813697 13.886625 
L 347.651847 13.886625 
L 352.489997 13.886625 
L 357.328147 13.886625 
L 362.166298 13.886625 
L 367.004448 13.886625 
L 371.842598 13.886625 
L 376.680749 13.886625 
L 381.518899 13.886625 
L 386.357049 13.886625 
L 391.195199 13.886625 
L 396.03335 13.886625 
L 400.8715 13.886625 
" clip-path="url(#p9d6f3199dd)" style="fill: none; stroke-dasharray: 2,3.3; stroke-dashoffset: 0; stroke: #e41a1c; stroke-width: 2"/>
   </g>
   <g id="line2d_12">
    <path d="M 67.03913 343.23316 
L 71.87728 315.431179 
L 76.715431 315.431179 
L 81.553581 315.431179 
L 86.391731 315.431179 
L 91.229882 315.431179 
L 96.068032 315.431179 
L 100.906182 315.431179 
L 105.744332 315.431179 
L 110.582483 315.431179 
L 115.420633 315.431179 
L 120.258783 315.431179 
L 125.096934 315.431179 
L 129.935084 315.431179 
L 134.773234 315.431179 
L 139.611384 315.431179 
L 144.449535 315.431179 
L 149.287685 315.431179 
L 154.125835 315.431179 
L 158.963986 315.431179 
L 163.802136 315.431179 
L 168.640286 309.015338 
L 173.478436 309.015338 
L 178.316587 309.015338 
L 183.154737 309.015338 
L 187.992887 309.015338 
L 192.831038 309.015338 
L 197.669188 309.015338 
L 202.507338 309.015338 
L 207.345488 309.015338 
L 212.183639 309.015338 
L 217.021789 309.015338 
L 221.859939 309.015338 
L 226.69809 309.015338 
L 231.53624 309.015338 
L 236.37439 309.015338 
L 241.21254 309.015338 
L 246.050691 309.015338 
L 250.888841 309.015338 
L 255.726991 302.599496 
L 260.565142 302.599496 
L 265.403292 302.599496 
L 270.241442 302.599496 
L 275.079592 302.599496 
L 279.917743 302.599496 
L 284.755893 246.995536 
L 289.594043 187.114348 
L 294.432194 103.708407 
L 299.270344 103.708407 
L 304.108494 103.708407 
L 308.946645 103.708407 
L 313.784795 101.569793 
L 318.622945 101.569793 
L 323.461095 101.569793 
L 328.299246 101.569793 
L 333.137396 101.569793 
L 337.975546 101.569793 
L 342.813697 101.569793 
L 347.651847 54.520288 
L 352.489997 45.965833 
L 357.328147 37.411377 
L 362.166298 37.411377 
L 367.004448 37.411377 
L 371.842598 37.411377 
L 376.680749 37.411377 
L 381.518899 37.411377 
L 386.357049 37.411377 
L 391.195199 37.411377 
L 396.03335 35.272764 
L 400.8715 13.886625 
" clip-path="url(#p9d6f3199dd)" style="fill: none; stroke-dasharray: 7.4,3.2; stroke-dashoffset: 0; stroke: #377eb8; stroke-width: 2"/>
   </g>
   <g id="line2d_13">
    <path d="M 71.87728 313.907783 
L 76.715431 313.907783 
L 81.553581 313.907783 
L 86.391731 313.907783 
L 91.229882 313.907783 
L 96.068032 313.907783 
L 100.906182 313.907783 
L 105.744332 313.907783 
L 110.582483 294.854573 
L 115.420633 294.854573 
L 120.258783 294.854573 
L 125.096934 294.854573 
L 129.935084 294.854573 
L 134.773234 294.854573 
L 139.611384 294.854573 
L 144.449535 294.854573 
L 149.287685 294.854573 
L 154.125835 294.854573 
L 158.963986 294.854573 
L 163.802136 294.854573 
L 168.640286 284.682665 
L 173.478436 284.682665 
L 178.316587 284.682665 
L 183.154737 284.682665 
L 187.992887 284.682665 
L 192.831038 284.682665 
L 197.669188 284.682665 
L 202.507338 284.682665 
L 207.345488 284.682665 
L 212.183639 284.682665 
L 217.021789 284.682665 
L 221.859939 284.682665 
L 226.69809 284.682665 
L 231.53624 284.682665 
L 236.37439 284.682665 
L 241.21254 284.682665 
L 246.050691 284.682665 
L 250.888841 284.682665 
L 255.726991 274.844262 
L 260.565142 274.844262 
L 265.403292 274.844262 
L 270.241442 274.844262 
L 275.079592 274.844262 
L 279.917743 274.844262 
L 284.755893 201.409293 
L 289.594043 140.344577 
L 294.432194 103.708407 
L 299.270344 98.949637 
L 304.108494 75.937421 
L 308.946645 65.888709 
L 313.784795 64.460437 
L 318.622945 64.460437 
L 323.461095 64.460437 
L 328.299246 64.460437 
L 333.137396 64.460437 
L 337.975546 64.460437 
L 342.813697 64.460437 
L 347.651847 35.539165 
L 352.489997 30.747369 
L 357.328147 26.084645 
L 362.166298 26.084645 
L 367.004448 26.084645 
L 371.842598 26.084645 
L 376.680749 26.084645 
L 381.518899 26.084645 
L 386.357049 26.084645 
L 391.195199 26.084645 
L 396.03335 24.938522 
L 400.8715 13.886625 
" clip-path="url(#p9d6f3199dd)" style="fill: none; stroke: #984ea3; stroke-width: 3; stroke-linecap: square"/>
   </g>
   <g id="patch_3">
    <path d="M 66.0715 343.23316 
L 66.0715 10.59316 
" style="fill: none; stroke: #000000; stroke-linejoin: miter; stroke-linecap: square"/>
   </g>
   <g id="patch_4">
    <path d="M 66.0715 343.23316 
L 400.8715 343.23316 
" style="fill: none; stroke: #000000; stroke-linejoin: miter; stroke-linecap: square"/>
   </g>
   <g id="legend_1">
    <g id="patch_5">
     <path d="M 78.3915 102.17366 
L 213.23225 102.17366 
Q 216.75225 102.17366 216.75225 98.65366 
L 216.75225 22.91316 
Q 216.75225 19.39316 213.23225 19.39316 
L 78.3915 19.39316 
Q 74.8715 19.39316 74.8715 22.91316 
L 74.8715 98.65366 
Q 74.8715 102.17366 78.3915 102.17366 
z
" style="fill: #ffffff; opacity: 0.8; stroke: #cccccc; stroke-width: 0.8; stroke-linejoin: miter"/>
    </g>
    <g id="line2d_14">
     <path d="M 81.9115 33.64641 
L 99.5115 33.64641 
L 117.1115 33.64641 
" style="fill: none; stroke-dasharray: 2,3.3; stroke-dashoffset: 0; stroke: #e41a1c; stroke-width: 2"/>
    </g>
    <g id="text_13">
     <!-- Precision -->
     <g transform="translate(131.1915 39.80641) scale(0.176 -0.176)">
      <defs>
       <path id="DejaVuSans-50" d="M 1259 4147 
L 1259 2394 
L 2053 2394 
Q 2494 2394 2734 2622 
Q 2975 2850 2975 3272 
Q 2975 3691 2734 3919 
Q 2494 4147 2053 4147 
L 1259 4147 
z
M 628 4666 
L 2053 4666 
Q 2838 4666 3239 4311 
Q 3641 3956 3641 3272 
Q 3641 2581 3239 2228 
Q 2838 1875 2053 1875 
L 1259 1875 
L 1259 0 
L 628 0 
L 628 4666 
z
" transform="scale(0.015625)"/>
       <path id="DejaVuSans-69" d="M 603 3500 
L 1178 3500 
L 1178 0 
L 603 0 
L 603 3500 
z
M 603 4863 
L 1178 4863 
L 1178 4134 
L 603 4134 
L 603 4863 
z
" transform="scale(0.015625)"/>
       <path id="DejaVuSans-73" d="M 2834 3397 
L 2834 2853 
Q 2591 2978 2328 3040 
Q 2066 3103 1784 3103 
Q 1356 3103 1142 2972 
Q 928 2841 928 2578 
Q 928 2378 1081 2264 
Q 1234 2150 1697 2047 
L 1894 2003 
Q 2506 1872 2764 1633 
Q 3022 1394 3022 966 
Q 3022 478 2636 193 
Q 2250 -91 1575 -91 
Q 1294 -91 989 -36 
Q 684 19 347 128 
L 347 722 
Q 666 556 975 473 
Q 1284 391 1588 391 
Q 1994 391 2212 530 
Q 2431 669 2431 922 
Q 2431 1156 2273 1281 
Q 2116 1406 1581 1522 
L 1381 1569 
Q 847 1681 609 1914 
Q 372 2147 372 2553 
Q 372 3047 722 3315 
Q 1072 3584 1716 3584 
Q 2034 3584 2315 3537 
Q 2597 3491 2834 3397 
z
" transform="scale(0.015625)"/>
       <path id="DejaVuSans-6e" d="M 3513 2113 
L 3513 0 
L 2938 0 
L 2938 2094 
Q 2938 2591 2744 2837 
Q 2550 3084 2163 3084 
Q 1697 3084 1428 2787 
Q 1159 2491 1159 1978 
L 1159 0 
L 581 0 
L 581 3500 
L 1159 3500 
L 1159 2956 
Q 1366 3272 1645 3428 
Q 1925 3584 2291 3584 
Q 2894 3584 3203 3211 
Q 3513 2838 3513 2113 
z
" transform="scale(0.015625)"/>
      </defs>
      <use xlink:href="#DejaVuSans-50"/>
      <use xlink:href="#DejaVuSans-72" x="58.552734"/>
      <use xlink:href="#DejaVuSans-65" x="97.416016"/>
      <use xlink:href="#DejaVuSans-63" x="158.939453"/>
      <use xlink:href="#DejaVuSans-69" x="213.919922"/>
      <use xlink:href="#DejaVuSans-73" x="241.703125"/>
      <use xlink:href="#DejaVuSans-69" x="293.802734"/>
      <use xlink:href="#DejaVuSans-6f" x="321.585938"/>
      <use xlink:href="#DejaVuSans-6e" x="382.767578"/>
     </g>
    </g>
    <g id="line2d_15">
     <path d="M 81.9115 59.47991 
L 99.5115 59.47991 
L 117.1115 59.47991 
" style="fill: none; stroke-dasharray: 7.4,3.2; stroke-dashoffset: 0; stroke: #377eb8; stroke-width: 2"/>
    </g>
    <g id="text_14">
     <!-- Recall -->
     <g transform="translate(131.1915 65.63991) scale(0.176 -0.176)">
      <defs>
       <path id="DejaVuSans-52" d="M 2841 2188 
Q 3044 2119 3236 1894 
Q 3428 1669 3622 1275 
L 4263 0 
L 3584 0 
L 2988 1197 
Q 2756 1666 2539 1819 
Q 2322 1972 1947 1972 
L 1259 1972 
L 1259 0 
L 628 0 
L 628 4666 
L 2053 4666 
Q 2853 4666 3247 4331 
Q 3641 3997 3641 3322 
Q 3641 2881 3436 2590 
Q 3231 2300 2841 2188 
z
M 1259 4147 
L 1259 2491 
L 2053 2491 
Q 2509 2491 2742 2702 
Q 2975 2913 2975 3322 
Q 2975 3731 2742 3939 
Q 2509 4147 2053 4147 
L 1259 4147 
z
" transform="scale(0.015625)"/>
       <path id="DejaVuSans-6c" d="M 603 4863 
L 1178 4863 
L 1178 0 
L 603 0 
L 603 4863 
z
" transform="scale(0.015625)"/>
      </defs>
      <use xlink:href="#DejaVuSans-52"/>
      <use xlink:href="#DejaVuSans-65" x="64.982422"/>
      <use xlink:href="#DejaVuSans-63" x="126.505859"/>
      <use xlink:href="#DejaVuSans-61" x="181.486328"/>
      <use xlink:href="#DejaVuSans-6c" x="242.765625"/>
      <use xlink:href="#DejaVuSans-6c" x="270.548828"/>
     </g>
    </g>
    <g id="line2d_16">
     <path d="M 81.9115 85.31341 
L 99.5115 85.31341 
L 117.1115 85.31341 
" style="fill: none; stroke: #984ea3; stroke-width: 3; stroke-linecap: square"/>
    </g>
    <g id="text_15">
     <!-- F1 -->
     <g transform="translate(131.1915 91.47341) scale(0.176 -0.176)">
      <defs>
       <path id="DejaVuSans-46" d="M 628 4666 
L 3309 4666 
L 3309 4134 
L 1259 4134 
L 1259 2759 
L 3109 2759 
L 3109 2228 
L 1259 2228 
L 1259 0 
L 628 0 
L 628 4666 
z
" transform="scale(0.015625)"/>
      </defs>
      <use xlink:href="#DejaVuSans-46"/>
      <use xlink:href="#DejaVuSans-31" x="57.519531"/>
     </g>
    </g>
   </g>
  </g>
 </g>
 <defs>
  <clipPath id="p9d6f3199dd">
   <rect x="66.0715" y="10.59316" width="334.8" height="332.64"/>
  </clipPath>
 </defs>
</svg>
