<?xml version="1.0" encoding="utf-8" standalone="no"?>
<!DOCTYPE svg PUBLIC "-//W3C//DTD SVG 1.1//EN"
  "http://www.w3.org/Graphics/SVG/1.1/DTD/svg11.dtd">
<svg xmlns:xlink="http://www.w3.org/1999/xlink" width="408.0715pt" height="398.34866pt" viewBox="0 0 408.0715 398.34866" xmlns="http://www.w3.org/2000/svg" version="1.1">
 <metadata>
  <rdf:RDF xmlns:dc="http://purl.org/dc/elements/1.1/" xmlns:cc="http://creativecommons.org/ns#" xmlns:rdf="http://www.w3.org/1999/02/22-rdf-syntax-ns#">
   <cc:Work>
    <dc:type rdf:resource="http://purl.org/dc/dcmitype/StillImage"/>
    <dc:date>2024-10-01T11:03:46.345173</dc:date>
    <dc:format>image/svg+xml</dc:format>
    <dc:creator>
     <cc:Agent>
      <dc:title>Matplotlib v3.8.0, https://matplotlib.org/</dc:title>
     </cc:Agent>
    </dc:creator>
   </cc:Work>
  </rdf:RDF>
 </metadata>
 <defs>
  <style type="text/css">*{stroke-linejoin: round; stroke-linecap: butt}</style>
 </defs>
 <g id="figure_1">
  <g id="patch_1">
   <path d="M 0 398.34866 
L 408.0715 398.34866 
L 408.0715 0 
L 0 0 
z
" style="fill: #ffffff"/>
  </g>
  <g id="axes_1">
   <g id="patch_2">
    <path d="M 66.0715 343.23316 
L 400.8715 343.23316 
L 400.8715 10.59316 
L 66.0715 10.59316 
z
" style="fill: #ffffff"/>
   </g>
   <g id="PolyCollection_1"/>
   <g id="PolyCollection_2"/>
   <g id="PolyCollection_3"/>
   <g id="PolyCollection_4">
    <defs>
     <path id="m9f4a991b6c" d="M 66.797747 -387.7555 
L 66.797747 -55.1155 
L 70.428984 -55.1155 
L 70.428984 -387.7555 
L 70.428984 -387.7555 
L 66.797747 -387.7555 
z
"/>
    </defs>
    <g clip-path="url(#p544581f7fd)">
     <use xlink:href="#m9f4a991b6c" x="0" y="398.34866" style="fill: #d95f02; fill-opacity: 0.2"/>
    </g>
   </g>
   <g id="PolyCollection_5">
    <defs>
     <path id="m0e52de30c2" d="M 70.428984 -387.7555 
L 70.428984 -55.1155 
L 74.06022 -55.1155 
L 74.06022 -387.7555 
L 74.06022 -387.7555 
L 70.428984 -387.7555 
z
"/>
    </defs>
    <g clip-path="url(#p544581f7fd)">
     <use xlink:href="#m0e52de30c2" x="0" y="398.34866" style="fill: #1b9e77; fill-opacity: 0.2"/>
    </g>
   </g>
   <g id="PolyCollection_6">
    <defs>
     <path id="m35bce36405" d="M 74.06022 -387.7555 
L 74.06022 -55.1155 
L 77.691457 -55.1155 
L 77.691457 -387.7555 
L 77.691457 -387.7555 
L 74.06022 -387.7555 
z
"/>
    </defs>
    <g clip-path="url(#p544581f7fd)">
     <use xlink:href="#m35bce36405" x="0" y="398.34866" style="fill: #d95f02; fill-opacity: 0.2"/>
    </g>
   </g>
   <g id="PolyCollection_7">
    <defs>
     <path id="m861402b406" d="M 77.691457 -387.7555 
L 77.691457 -55.1155 
L 81.322693 -55.1155 
L 81.322693 -387.7555 
L 81.322693 -387.7555 
L 77.691457 -387.7555 
z
"/>
    </defs>
    <g clip-path="url(#p544581f7fd)">
     <use xlink:href="#m861402b406" x="0" y="398.34866" style="fill: #d95f02; fill-opacity: 0.2"/>
    </g>
   </g>
   <g id="PolyCollection_8">
    <defs>
     <path id="m9ce5d54ceb" d="M 81.322693 -387.7555 
L 81.322693 -55.1155 
L 84.95393 -55.1155 
L 84.95393 -387.7555 
L 84.95393 -387.7555 
L 81.322693 -387.7555 
z
"/>
    </defs>
    <g clip-path="url(#p544581f7fd)">
     <use xlink:href="#m9ce5d54ceb" x="0" y="398.34866" style="fill: #d95f02; fill-opacity: 0.2"/>
    </g>
   </g>
   <g id="PolyCollection_9">
    <defs>
     <path id="m458281310b" d="M 84.95393 -387.7555 
L 84.95393 -55.1155 
L 88.585166 -55.1155 
L 88.585166 -387.7555 
L 88.585166 -387.7555 
L 84.95393 -387.7555 
z
"/>
    </defs>
    <g clip-path="url(#p544581f7fd)">
     <use xlink:href="#m458281310b" x="0" y="398.34866" style="fill: #d95f02; fill-opacity: 0.2"/>
    </g>
   </g>
   <g id="PolyCollection_10">
    <defs>
     <path id="mcdc84a8daf" d="M 88.585166 -387.7555 
L 88.585166 -55.1155 
L 92.216402 -55.1155 
L 92.216402 -387.7555 
L 92.216402 -387.7555 
L 88.585166 -387.7555 
z
"/>
    </defs>
    <g clip-path="url(#p544581f7fd)">
     <use xlink:href="#mcdc84a8daf" x="0" y="398.34866" style="fill: #d95f02; fill-opacity: 0.2"/>
    </g>
   </g>
   <g id="PolyCollection_11">
    <defs>
     <path id="m3cabe1433c" d="M 92.216402 -387.7555 
L 92.216402 -55.1155 
L 95.847639 -55.1155 
L 95.847639 -387.7555 
L 95.847639 -387.7555 
L 92.216402 -387.7555 
z
"/>
    </defs>
    <g clip-path="url(#p544581f7fd)">
     <use xlink:href="#m3cabe1433c" x="0" y="398.34866" style="fill: #d95f02; fill-opacity: 0.2"/>
    </g>
   </g>
   <g id="PolyCollection_12">
    <defs>
     <path id="m537af9381d" d="M 95.847639 -387.7555 
L 95.847639 -55.1155 
L 99.478875 -55.1155 
L 99.478875 -387.7555 
L 99.478875 -387.7555 
L 95.847639 -387.7555 
z
"/>
    </defs>
    <g clip-path="url(#p544581f7fd)">
     <use xlink:href="#m537af9381d" x="0" y="398.34866" style="fill: #d95f02; fill-opacity: 0.2"/>
    </g>
   </g>
   <g id="PolyCollection_13">
    <defs>
     <path id="m6f8958299b" d="M 99.478875 -387.7555 
L 99.478875 -55.1155 
L 103.110112 -55.1155 
L 103.110112 -387.7555 
L 103.110112 -387.7555 
L 99.478875 -387.7555 
z
"/>
    </defs>
    <g clip-path="url(#p544581f7fd)">
     <use xlink:href="#m6f8958299b" x="0" y="398.34866" style="fill: #d95f02; fill-opacity: 0.2"/>
    </g>
   </g>
   <g id="PolyCollection_14">
    <defs>
     <path id="me4c9e4b790" d="M 103.110112 -387.7555 
L 103.110112 -55.1155 
L 106.741348 -55.1155 
L 106.741348 -387.7555 
L 106.741348 -387.7555 
L 103.110112 -387.7555 
z
"/>
    </defs>
    <g clip-path="url(#p544581f7fd)">
     <use xlink:href="#me4c9e4b790" x="0" y="398.34866" style="fill: #d95f02; fill-opacity: 0.2"/>
    </g>
   </g>
   <g id="PolyCollection_15">
    <defs>
     <path id="m4185fbcc7e" d="M 106.741348 -387.7555 
L 106.741348 -55.1155 
L 110.372585 -55.1155 
L 110.372585 -387.7555 
L 110.372585 -387.7555 
L 106.741348 -387.7555 
z
"/>
    </defs>
    <g clip-path="url(#p544581f7fd)">
     <use xlink:href="#m4185fbcc7e" x="0" y="398.34866" style="fill: #d95f02; fill-opacity: 0.2"/>
    </g>
   </g>
   <g id="PolyCollection_16">
    <defs>
     <path id="m5db6d7f679" d="M 110.372585 -387.7555 
L 110.372585 -55.1155 
L 114.003821 -55.1155 
L 114.003821 -387.7555 
L 114.003821 -387.7555 
L 110.372585 -387.7555 
z
"/>
    </defs>
    <g clip-path="url(#p544581f7fd)">
     <use xlink:href="#m5db6d7f679" x="0" y="398.34866" style="fill: #d95f02; fill-opacity: 0.2"/>
    </g>
   </g>
   <g id="PolyCollection_17">
    <defs>
     <path id="m275875f6ce" d="M 114.003821 -387.7555 
L 114.003821 -55.1155 
L 117.635057 -55.1155 
L 117.635057 -387.7555 
L 117.635057 -387.7555 
L 114.003821 -387.7555 
z
"/>
    </defs>
    <g clip-path="url(#p544581f7fd)">
     <use xlink:href="#m275875f6ce" x="0" y="398.34866" style="fill: #d95f02; fill-opacity: 0.2"/>
    </g>
   </g>
   <g id="PolyCollection_18">
    <defs>
     <path id="m64975afaf1" d="M 117.635057 -387.7555 
L 117.635057 -55.1155 
L 121.266294 -55.1155 
L 121.266294 -387.7555 
L 121.266294 -387.7555 
L 117.635057 -387.7555 
z
"/>
    </defs>
    <g clip-path="url(#p544581f7fd)">
     <use xlink:href="#m64975afaf1" x="0" y="398.34866" style="fill: #d95f02; fill-opacity: 0.2"/>
    </g>
   </g>
   <g id="PolyCollection_19">
    <defs>
     <path id="macd2f83232" d="M 121.266294 -387.7555 
L 121.266294 -55.1155 
L 124.89753 -55.1155 
L 124.89753 -387.7555 
L 124.89753 -387.7555 
L 121.266294 -387.7555 
z
"/>
    </defs>
    <g clip-path="url(#p544581f7fd)">
     <use xlink:href="#macd2f83232" x="0" y="398.34866" style="fill: #d95f02; fill-opacity: 0.2"/>
    </g>
   </g>
   <g id="PolyCollection_20">
    <defs>
     <path id="m2cda177881" d="M 124.89753 -387.7555 
L 124.89753 -55.1155 
L 128.528767 -55.1155 
L 128.528767 -387.7555 
L 128.528767 -387.7555 
L 124.89753 -387.7555 
z
"/>
    </defs>
    <g clip-path="url(#p544581f7fd)">
     <use xlink:href="#m2cda177881" x="0" y="398.34866" style="fill: #d95f02; fill-opacity: 0.2"/>
    </g>
   </g>
   <g id="PolyCollection_21">
    <defs>
     <path id="m2362ef654a" d="M 128.528767 -387.7555 
L 128.528767 -55.1155 
L 132.160003 -55.1155 
L 132.160003 -387.7555 
L 132.160003 -387.7555 
L 128.528767 -387.7555 
z
"/>
    </defs>
    <g clip-path="url(#p544581f7fd)">
     <use xlink:href="#m2362ef654a" x="0" y="398.34866" style="fill: #d95f02; fill-opacity: 0.2"/>
    </g>
   </g>
   <g id="PolyCollection_22">
    <defs>
     <path id="m052960613b" d="M 132.160003 -387.7555 
L 132.160003 -55.1155 
L 135.79124 -55.1155 
L 135.79124 -387.7555 
L 135.79124 -387.7555 
L 132.160003 -387.7555 
z
"/>
    </defs>
    <g clip-path="url(#p544581f7fd)">
     <use xlink:href="#m052960613b" x="0" y="398.34866" style="fill: #d95f02; fill-opacity: 0.2"/>
    </g>
   </g>
   <g id="PolyCollection_23">
    <defs>
     <path id="mfe20c3aa5d" d="M 135.79124 -387.7555 
L 135.79124 -55.1155 
L 139.422476 -55.1155 
L 139.422476 -387.7555 
L 139.422476 -387.7555 
L 135.79124 -387.7555 
z
"/>
    </defs>
    <g clip-path="url(#p544581f7fd)">
     <use xlink:href="#mfe20c3aa5d" x="0" y="398.34866" style="fill: #d95f02; fill-opacity: 0.2"/>
    </g>
   </g>
   <g id="PolyCollection_24">
    <defs>
     <path id="m545d5cfd04" d="M 139.422476 -387.7555 
L 139.422476 -55.1155 
L 143.053713 -55.1155 
L 143.053713 -387.7555 
L 143.053713 -387.7555 
L 139.422476 -387.7555 
z
"/>
    </defs>
    <g clip-path="url(#p544581f7fd)">
     <use xlink:href="#m545d5cfd04" x="0" y="398.34866" style="fill: #d95f02; fill-opacity: 0.2"/>
    </g>
   </g>
   <g id="PolyCollection_25">
    <defs>
     <path id="mbad4a18868" d="M 143.053713 -387.7555 
L 143.053713 -55.1155 
L 146.684949 -55.1155 
L 146.684949 -387.7555 
L 146.684949 -387.7555 
L 143.053713 -387.7555 
z
"/>
    </defs>
    <g clip-path="url(#p544581f7fd)">
     <use xlink:href="#mbad4a18868" x="0" y="398.34866" style="fill: #d95f02; fill-opacity: 0.2"/>
    </g>
   </g>
   <g id="PolyCollection_26">
    <defs>
     <path id="m43e98d6a82" d="M 146.684949 -387.7555 
L 146.684949 -55.1155 
L 150.316185 -55.1155 
L 150.316185 -387.7555 
L 150.316185 -387.7555 
L 146.684949 -387.7555 
z
"/>
    </defs>
    <g clip-path="url(#p544581f7fd)">
     <use xlink:href="#m43e98d6a82" x="0" y="398.34866" style="fill: #d95f02; fill-opacity: 0.2"/>
    </g>
   </g>
   <g id="PolyCollection_27">
    <defs>
     <path id="m6d7378479c" d="M 150.316185 -387.7555 
L 150.316185 -55.1155 
L 153.947422 -55.1155 
L 153.947422 -387.7555 
L 153.947422 -387.7555 
L 150.316185 -387.7555 
z
"/>
    </defs>
    <g clip-path="url(#p544581f7fd)">
     <use xlink:href="#m6d7378479c" x="0" y="398.34866" style="fill: #d95f02; fill-opacity: 0.2"/>
    </g>
   </g>
   <g id="PolyCollection_28">
    <defs>
     <path id="m12c126db2a" d="M 153.947422 -387.7555 
L 153.947422 -55.1155 
L 157.578658 -55.1155 
L 157.578658 -387.7555 
L 157.578658 -387.7555 
L 153.947422 -387.7555 
z
"/>
    </defs>
    <g clip-path="url(#p544581f7fd)">
     <use xlink:href="#m12c126db2a" x="0" y="398.34866" style="fill: #d95f02; fill-opacity: 0.2"/>
    </g>
   </g>
   <g id="PolyCollection_29">
    <defs>
     <path id="m8103c36a63" d="M 157.578658 -387.7555 
L 157.578658 -55.1155 
L 161.209895 -55.1155 
L 161.209895 -387.7555 
L 161.209895 -387.7555 
L 157.578658 -387.7555 
z
"/>
    </defs>
    <g clip-path="url(#p544581f7fd)">
     <use xlink:href="#m8103c36a63" x="0" y="398.34866" style="fill: #d95f02; fill-opacity: 0.2"/>
    </g>
   </g>
   <g id="PolyCollection_30">
    <defs>
     <path id="m09c66895b1" d="M 161.209895 -387.7555 
L 161.209895 -55.1155 
L 164.841131 -55.1155 
L 164.841131 -387.7555 
L 164.841131 -387.7555 
L 161.209895 -387.7555 
z
"/>
    </defs>
    <g clip-path="url(#p544581f7fd)">
     <use xlink:href="#m09c66895b1" x="0" y="398.34866" style="fill: #d95f02; fill-opacity: 0.2"/>
    </g>
   </g>
   <g id="PolyCollection_31">
    <defs>
     <path id="m5ac16591ef" d="M 164.841131 -387.7555 
L 164.841131 -55.1155 
L 168.472368 -55.1155 
L 168.472368 -387.7555 
L 168.472368 -387.7555 
L 164.841131 -387.7555 
z
"/>
    </defs>
    <g clip-path="url(#p544581f7fd)">
     <use xlink:href="#m5ac16591ef" x="0" y="398.34866" style="fill: #d95f02; fill-opacity: 0.2"/>
    </g>
   </g>
   <g id="PolyCollection_32">
    <defs>
     <path id="m72fa420538" d="M 168.472368 -387.7555 
L 168.472368 -55.1155 
L 172.103604 -55.1155 
L 172.103604 -387.7555 
L 172.103604 -387.7555 
L 168.472368 -387.7555 
z
"/>
    </defs>
    <g clip-path="url(#p544581f7fd)">
     <use xlink:href="#m72fa420538" x="0" y="398.34866" style="fill: #d95f02; fill-opacity: 0.2"/>
    </g>
   </g>
   <g id="PolyCollection_33">
    <defs>
     <path id="m1082ea4bd1" d="M 172.103604 -387.7555 
L 172.103604 -55.1155 
L 175.734841 -55.1155 
L 175.734841 -387.7555 
L 175.734841 -387.7555 
L 172.103604 -387.7555 
z
"/>
    </defs>
    <g clip-path="url(#p544581f7fd)">
     <use xlink:href="#m1082ea4bd1" x="0" y="398.34866" style="fill: #d95f02; fill-opacity: 0.2"/>
    </g>
   </g>
   <g id="PolyCollection_34">
    <defs>
     <path id="m3e4f607258" d="M 175.734841 -387.7555 
L 175.734841 -55.1155 
L 179.366077 -55.1155 
L 179.366077 -387.7555 
L 179.366077 -387.7555 
L 175.734841 -387.7555 
z
"/>
    </defs>
    <g clip-path="url(#p544581f7fd)">
     <use xlink:href="#m3e4f607258" x="0" y="398.34866" style="fill: #d95f02; fill-opacity: 0.2"/>
    </g>
   </g>
   <g id="PolyCollection_35">
    <defs>
     <path id="m0d7e826b3a" d="M 179.366077 -387.7555 
L 179.366077 -55.1155 
L 182.997313 -55.1155 
L 182.997313 -387.7555 
L 182.997313 -387.7555 
L 179.366077 -387.7555 
z
"/>
    </defs>
    <g clip-path="url(#p544581f7fd)">
     <use xlink:href="#m0d7e826b3a" x="0" y="398.34866" style="fill: #d95f02; fill-opacity: 0.2"/>
    </g>
   </g>
   <g id="PolyCollection_36">
    <defs>
     <path id="ma369fb0a84" d="M 182.997313 -387.7555 
L 182.997313 -55.1155 
L 186.62855 -55.1155 
L 186.62855 -387.7555 
L 186.62855 -387.7555 
L 182.997313 -387.7555 
z
"/>
    </defs>
    <g clip-path="url(#p544581f7fd)">
     <use xlink:href="#ma369fb0a84" x="0" y="398.34866" style="fill: #d95f02; fill-opacity: 0.2"/>
    </g>
   </g>
   <g id="PolyCollection_37">
    <defs>
     <path id="m7a9a2597f3" d="M 186.62855 -387.7555 
L 186.62855 -55.1155 
L 190.259786 -55.1155 
L 190.259786 -387.7555 
L 190.259786 -387.7555 
L 186.62855 -387.7555 
z
"/>
    </defs>
    <g clip-path="url(#p544581f7fd)">
     <use xlink:href="#m7a9a2597f3" x="0" y="398.34866" style="fill: #d95f02; fill-opacity: 0.2"/>
    </g>
   </g>
   <g id="PolyCollection_38">
    <defs>
     <path id="m5644cde6a7" d="M 190.259786 -387.7555 
L 190.259786 -55.1155 
L 193.891023 -55.1155 
L 193.891023 -387.7555 
L 193.891023 -387.7555 
L 190.259786 -387.7555 
z
"/>
    </defs>
    <g clip-path="url(#p544581f7fd)">
     <use xlink:href="#m5644cde6a7" x="0" y="398.34866" style="fill: #d95f02; fill-opacity: 0.2"/>
    </g>
   </g>
   <g id="PolyCollection_39">
    <defs>
     <path id="m43bad445be" d="M 193.891023 -387.7555 
L 193.891023 -55.1155 
L 197.522259 -55.1155 
L 197.522259 -387.7555 
L 197.522259 -387.7555 
L 193.891023 -387.7555 
z
"/>
    </defs>
    <g clip-path="url(#p544581f7fd)">
     <use xlink:href="#m43bad445be" x="0" y="398.34866" style="fill: #d95f02; fill-opacity: 0.2"/>
    </g>
   </g>
   <g id="PolyCollection_40">
    <defs>
     <path id="m96681e54d4" d="M 197.522259 -387.7555 
L 197.522259 -55.1155 
L 201.153496 -55.1155 
L 201.153496 -387.7555 
L 201.153496 -387.7555 
L 197.522259 -387.7555 
z
"/>
    </defs>
    <g clip-path="url(#p544581f7fd)">
     <use xlink:href="#m96681e54d4" x="0" y="398.34866" style="fill: #d95f02; fill-opacity: 0.2"/>
    </g>
   </g>
   <g id="PolyCollection_41">
    <defs>
     <path id="m1d8097bb94" d="M 201.153496 -387.7555 
L 201.153496 -55.1155 
L 204.784732 -55.1155 
L 204.784732 -387.7555 
L 204.784732 -387.7555 
L 201.153496 -387.7555 
z
"/>
    </defs>
    <g clip-path="url(#p544581f7fd)">
     <use xlink:href="#m1d8097bb94" x="0" y="398.34866" style="fill: #d95f02; fill-opacity: 0.2"/>
    </g>
   </g>
   <g id="PolyCollection_42">
    <defs>
     <path id="m4eb449f747" d="M 204.784732 -387.7555 
L 204.784732 -55.1155 
L 208.415969 -55.1155 
L 208.415969 -387.7555 
L 208.415969 -387.7555 
L 204.784732 -387.7555 
z
"/>
    </defs>
    <g clip-path="url(#p544581f7fd)">
     <use xlink:href="#m4eb449f747" x="0" y="398.34866" style="fill: #d95f02; fill-opacity: 0.2"/>
    </g>
   </g>
   <g id="PolyCollection_43">
    <defs>
     <path id="m92fbcf62b1" d="M 208.415969 -387.7555 
L 208.415969 -55.1155 
L 212.047205 -55.1155 
L 212.047205 -387.7555 
L 212.047205 -387.7555 
L 208.415969 -387.7555 
z
"/>
    </defs>
    <g clip-path="url(#p544581f7fd)">
     <use xlink:href="#m92fbcf62b1" x="0" y="398.34866" style="fill: #d95f02; fill-opacity: 0.2"/>
    </g>
   </g>
   <g id="PolyCollection_44">
    <defs>
     <path id="m42dfe46449" d="M 212.047205 -387.7555 
L 212.047205 -55.1155 
L 215.678441 -55.1155 
L 215.678441 -387.7555 
L 215.678441 -387.7555 
L 212.047205 -387.7555 
z
"/>
    </defs>
    <g clip-path="url(#p544581f7fd)">
     <use xlink:href="#m42dfe46449" x="0" y="398.34866" style="fill: #d95f02; fill-opacity: 0.2"/>
    </g>
   </g>
   <g id="PolyCollection_45">
    <defs>
     <path id="mdc1d851471" d="M 215.678441 -387.7555 
L 215.678441 -55.1155 
L 219.309678 -55.1155 
L 219.309678 -387.7555 
L 219.309678 -387.7555 
L 215.678441 -387.7555 
z
"/>
    </defs>
    <g clip-path="url(#p544581f7fd)">
     <use xlink:href="#mdc1d851471" x="0" y="398.34866" style="fill: #d95f02; fill-opacity: 0.2"/>
    </g>
   </g>
   <g id="PolyCollection_46">
    <defs>
     <path id="m1149d6a216" d="M 219.309678 -387.7555 
L 219.309678 -55.1155 
L 222.940914 -55.1155 
L 222.940914 -387.7555 
L 222.940914 -387.7555 
L 219.309678 -387.7555 
z
"/>
    </defs>
    <g clip-path="url(#p544581f7fd)">
     <use xlink:href="#m1149d6a216" x="0" y="398.34866" style="fill: #d95f02; fill-opacity: 0.2"/>
    </g>
   </g>
   <g id="PolyCollection_47">
    <defs>
     <path id="m5857d90c73" d="M 222.940914 -387.7555 
L 222.940914 -55.1155 
L 226.572151 -55.1155 
L 226.572151 -387.7555 
L 226.572151 -387.7555 
L 222.940914 -387.7555 
z
"/>
    </defs>
    <g clip-path="url(#p544581f7fd)">
     <use xlink:href="#m5857d90c73" x="0" y="398.34866" style="fill: #d95f02; fill-opacity: 0.2"/>
    </g>
   </g>
   <g id="PolyCollection_48">
    <defs>
     <path id="m28cfeef967" d="M 226.572151 -387.7555 
L 226.572151 -55.1155 
L 230.203387 -55.1155 
L 230.203387 -387.7555 
L 230.203387 -387.7555 
L 226.572151 -387.7555 
z
"/>
    </defs>
    <g clip-path="url(#p544581f7fd)">
     <use xlink:href="#m28cfeef967" x="0" y="398.34866" style="fill: #d95f02; fill-opacity: 0.2"/>
    </g>
   </g>
   <g id="PolyCollection_49">
    <defs>
     <path id="ma9a31c567e" d="M 230.203387 -387.7555 
L 230.203387 -55.1155 
L 233.834624 -55.1155 
L 233.834624 -387.7555 
L 233.834624 -387.7555 
L 230.203387 -387.7555 
z
"/>
    </defs>
    <g clip-path="url(#p544581f7fd)">
     <use xlink:href="#ma9a31c567e" x="0" y="398.34866" style="fill: #d95f02; fill-opacity: 0.2"/>
    </g>
   </g>
   <g id="PolyCollection_50">
    <defs>
     <path id="m835abad96b" d="M 233.834624 -387.7555 
L 233.834624 -55.1155 
L 237.46586 -55.1155 
L 237.46586 -387.7555 
L 237.46586 -387.7555 
L 233.834624 -387.7555 
z
"/>
    </defs>
    <g clip-path="url(#p544581f7fd)">
     <use xlink:href="#m835abad96b" x="0" y="398.34866" style="fill: #d95f02; fill-opacity: 0.2"/>
    </g>
   </g>
   <g id="PolyCollection_51">
    <defs>
     <path id="ma0283991d8" d="M 237.46586 -387.7555 
L 237.46586 -55.1155 
L 241.097097 -55.1155 
L 241.097097 -387.7555 
L 241.097097 -387.7555 
L 237.46586 -387.7555 
z
"/>
    </defs>
    <g clip-path="url(#p544581f7fd)">
     <use xlink:href="#ma0283991d8" x="0" y="398.34866" style="fill: #d95f02; fill-opacity: 0.2"/>
    </g>
   </g>
   <g id="PolyCollection_52">
    <defs>
     <path id="m8f80954293" d="M 241.097097 -387.7555 
L 241.097097 -55.1155 
L 244.728333 -55.1155 
L 244.728333 -387.7555 
L 244.728333 -387.7555 
L 241.097097 -387.7555 
z
"/>
    </defs>
    <g clip-path="url(#p544581f7fd)">
     <use xlink:href="#m8f80954293" x="0" y="398.34866" style="fill: #d95f02; fill-opacity: 0.2"/>
    </g>
   </g>
   <g id="PolyCollection_53">
    <defs>
     <path id="m9fee796635" d="M 244.728333 -387.7555 
L 244.728333 -55.1155 
L 248.359569 -55.1155 
L 248.359569 -387.7555 
L 248.359569 -387.7555 
L 244.728333 -387.7555 
z
"/>
    </defs>
    <g clip-path="url(#p544581f7fd)">
     <use xlink:href="#m9fee796635" x="0" y="398.34866" style="fill: #1b9e77; fill-opacity: 0.2"/>
    </g>
   </g>
   <g id="PolyCollection_54">
    <defs>
     <path id="m2188f673fe" d="M 248.359569 -387.7555 
L 248.359569 -55.1155 
L 251.990806 -55.1155 
L 251.990806 -387.7555 
L 251.990806 -387.7555 
L 248.359569 -387.7555 
z
"/>
    </defs>
    <g clip-path="url(#p544581f7fd)">
     <use xlink:href="#m2188f673fe" x="0" y="398.34866" style="fill: #d95f02; fill-opacity: 0.2"/>
    </g>
   </g>
   <g id="PolyCollection_55">
    <defs>
     <path id="mcaa5ebff78" d="M 251.990806 -387.7555 
L 251.990806 -55.1155 
L 255.622042 -55.1155 
L 255.622042 -387.7555 
L 255.622042 -387.7555 
L 251.990806 -387.7555 
z
"/>
    </defs>
    <g clip-path="url(#p544581f7fd)">
     <use xlink:href="#mcaa5ebff78" x="0" y="398.34866" style="fill: #d95f02; fill-opacity: 0.2"/>
    </g>
   </g>
   <g id="PolyCollection_56">
    <defs>
     <path id="m5bfb8d9eac" d="M 255.622042 -387.7555 
L 255.622042 -55.1155 
L 259.253279 -55.1155 
L 259.253279 -387.7555 
L 259.253279 -387.7555 
L 255.622042 -387.7555 
z
"/>
    </defs>
    <g clip-path="url(#p544581f7fd)">
     <use xlink:href="#m5bfb8d9eac" x="0" y="398.34866" style="fill: #d95f02; fill-opacity: 0.2"/>
    </g>
   </g>
   <g id="PolyCollection_57">
    <defs>
     <path id="mc420db4556" d="M 259.253279 -387.7555 
L 259.253279 -55.1155 
L 262.884515 -55.1155 
L 262.884515 -387.7555 
L 262.884515 -387.7555 
L 259.253279 -387.7555 
z
"/>
    </defs>
    <g clip-path="url(#p544581f7fd)">
     <use xlink:href="#mc420db4556" x="0" y="398.34866" style="fill: #d95f02; fill-opacity: 0.2"/>
    </g>
   </g>
   <g id="PolyCollection_58">
    <defs>
     <path id="m8925120867" d="M 262.884515 -387.7555 
L 262.884515 -55.1155 
L 266.515752 -55.1155 
L 266.515752 -387.7555 
L 266.515752 -387.7555 
L 262.884515 -387.7555 
z
"/>
    </defs>
    <g clip-path="url(#p544581f7fd)">
     <use xlink:href="#m8925120867" x="0" y="398.34866" style="fill: #1b9e77; fill-opacity: 0.2"/>
    </g>
   </g>
   <g id="PolyCollection_59">
    <defs>
     <path id="m114febd6a9" d="M 266.515752 -387.7555 
L 266.515752 -55.1155 
L 270.146988 -55.1155 
L 270.146988 -387.7555 
L 270.146988 -387.7555 
L 266.515752 -387.7555 
z
"/>
    </defs>
    <g clip-path="url(#p544581f7fd)">
     <use xlink:href="#m114febd6a9" x="0" y="398.34866" style="fill: #d95f02; fill-opacity: 0.2"/>
    </g>
   </g>
   <g id="PolyCollection_60">
    <defs>
     <path id="med22f2c126" d="M 270.146988 -387.7555 
L 270.146988 -55.1155 
L 273.778225 -55.1155 
L 273.778225 -387.7555 
L 273.778225 -387.7555 
L 270.146988 -387.7555 
z
"/>
    </defs>
    <g clip-path="url(#p544581f7fd)">
     <use xlink:href="#med22f2c126" x="0" y="398.34866" style="fill: #d95f02; fill-opacity: 0.2"/>
    </g>
   </g>
   <g id="PolyCollection_61">
    <defs>
     <path id="m5001e2ecc3" d="M 273.778225 -387.7555 
L 273.778225 -55.1155 
L 277.409461 -55.1155 
L 277.409461 -387.7555 
L 277.409461 -387.7555 
L 273.778225 -387.7555 
z
"/>
    </defs>
    <g clip-path="url(#p544581f7fd)">
     <use xlink:href="#m5001e2ecc3" x="0" y="398.34866" style="fill: #d95f02; fill-opacity: 0.2"/>
    </g>
   </g>
   <g id="PolyCollection_62">
    <defs>
     <path id="m68b8a6645d" d="M 277.409461 -387.7555 
L 277.409461 -55.1155 
L 281.040697 -55.1155 
L 281.040697 -387.7555 
L 281.040697 -387.7555 
L 277.409461 -387.7555 
z
"/>
    </defs>
    <g clip-path="url(#p544581f7fd)">
     <use xlink:href="#m68b8a6645d" x="0" y="398.34866" style="fill: #d95f02; fill-opacity: 0.2"/>
    </g>
   </g>
   <g id="PolyCollection_63">
    <defs>
     <path id="mdc52de0b50" d="M 281.040697 -387.7555 
L 281.040697 -55.1155 
L 284.671934 -55.1155 
L 284.671934 -387.7555 
L 284.671934 -387.7555 
L 281.040697 -387.7555 
z
"/>
    </defs>
    <g clip-path="url(#p544581f7fd)">
     <use xlink:href="#mdc52de0b50" x="0" y="398.34866" style="fill: #d95f02; fill-opacity: 0.2"/>
    </g>
   </g>
   <g id="PolyCollection_64">
    <defs>
     <path id="mc1e8b028b7" d="M 284.671934 -387.7555 
L 284.671934 -55.1155 
L 288.30317 -55.1155 
L 288.30317 -387.7555 
L 288.30317 -387.7555 
L 284.671934 -387.7555 
z
"/>
    </defs>
    <g clip-path="url(#p544581f7fd)">
     <use xlink:href="#mc1e8b028b7" x="0" y="398.34866" style="fill: #d95f02; fill-opacity: 0.2"/>
    </g>
   </g>
   <g id="PolyCollection_65">
    <defs>
     <path id="m8f8d91afbf" d="M 288.30317 -387.7555 
L 288.30317 -55.1155 
L 291.934407 -55.1155 
L 291.934407 -387.7555 
L 291.934407 -387.7555 
L 288.30317 -387.7555 
z
"/>
    </defs>
    <g clip-path="url(#p544581f7fd)">
     <use xlink:href="#m8f8d91afbf" x="0" y="398.34866" style="fill: #1b9e77; fill-opacity: 0.2"/>
    </g>
   </g>
   <g id="PolyCollection_66">
    <defs>
     <path id="m2cef5fd955" d="M 291.934407 -387.7555 
L 291.934407 -55.1155 
L 295.565643 -55.1155 
L 295.565643 -387.7555 
L 295.565643 -387.7555 
L 291.934407 -387.7555 
z
"/>
    </defs>
    <g clip-path="url(#p544581f7fd)">
     <use xlink:href="#m2cef5fd955" x="0" y="398.34866" style="fill: #d95f02; fill-opacity: 0.2"/>
    </g>
   </g>
   <g id="PolyCollection_67">
    <defs>
     <path id="macd880b253" d="M 295.565643 -387.7555 
L 295.565643 -55.1155 
L 299.19688 -55.1155 
L 299.19688 -387.7555 
L 299.19688 -387.7555 
L 295.565643 -387.7555 
z
"/>
    </defs>
    <g clip-path="url(#p544581f7fd)">
     <use xlink:href="#macd880b253" x="0" y="398.34866" style="fill: #d95f02; fill-opacity: 0.2"/>
    </g>
   </g>
   <g id="PolyCollection_68">
    <defs>
     <path id="ma7c8d30729" d="M 299.19688 -387.7555 
L 299.19688 -55.1155 
L 302.828116 -55.1155 
L 302.828116 -387.7555 
L 302.828116 -387.7555 
L 299.19688 -387.7555 
z
"/>
    </defs>
    <g clip-path="url(#p544581f7fd)">
     <use xlink:href="#ma7c8d30729" x="0" y="398.34866" style="fill: #d95f02; fill-opacity: 0.2"/>
    </g>
   </g>
   <g id="PolyCollection_69">
    <defs>
     <path id="m0fa43cb10a" d="M 302.828116 -387.7555 
L 302.828116 -55.1155 
L 306.459352 -55.1155 
L 306.459352 -387.7555 
L 306.459352 -387.7555 
L 302.828116 -387.7555 
z
"/>
    </defs>
    <g clip-path="url(#p544581f7fd)">
     <use xlink:href="#m0fa43cb10a" x="0" y="398.34866" style="fill: #d95f02; fill-opacity: 0.2"/>
    </g>
   </g>
   <g id="PolyCollection_70">
    <defs>
     <path id="m4c597bdb0b" d="M 306.459352 -387.7555 
L 306.459352 -55.1155 
L 310.090589 -55.1155 
L 310.090589 -387.7555 
L 310.090589 -387.7555 
L 306.459352 -387.7555 
z
"/>
    </defs>
    <g clip-path="url(#p544581f7fd)">
     <use xlink:href="#m4c597bdb0b" x="0" y="398.34866" style="fill: #d95f02; fill-opacity: 0.2"/>
    </g>
   </g>
   <g id="PolyCollection_71">
    <defs>
     <path id="mc208c7d0e3" d="M 310.090589 -387.7555 
L 310.090589 -55.1155 
L 313.721825 -55.1155 
L 313.721825 -387.7555 
L 313.721825 -387.7555 
L 310.090589 -387.7555 
z
"/>
    </defs>
    <g clip-path="url(#p544581f7fd)">
     <use xlink:href="#mc208c7d0e3" x="0" y="398.34866" style="fill: #1b9e77; fill-opacity: 0.2"/>
    </g>
   </g>
   <g id="PolyCollection_72">
    <defs>
     <path id="m6926e77c71" d="M 313.721825 -387.7555 
L 313.721825 -55.1155 
L 317.353062 -55.1155 
L 317.353062 -387.7555 
L 317.353062 -387.7555 
L 313.721825 -387.7555 
z
"/>
    </defs>
    <g clip-path="url(#p544581f7fd)">
     <use xlink:href="#m6926e77c71" x="0" y="398.34866" style="fill: #1b9e77; fill-opacity: 0.2"/>
    </g>
   </g>
   <g id="PolyCollection_73">
    <defs>
     <path id="ma971bf3784" d="M 317.353062 -387.7555 
L 317.353062 -55.1155 
L 320.984298 -55.1155 
L 320.984298 -387.7555 
L 320.984298 -387.7555 
L 317.353062 -387.7555 
z
"/>
    </defs>
    <g clip-path="url(#p544581f7fd)">
     <use xlink:href="#ma971bf3784" x="0" y="398.34866" style="fill: #d95f02; fill-opacity: 0.2"/>
    </g>
   </g>
   <g id="PolyCollection_74">
    <defs>
     <path id="m72e9391e5f" d="M 320.984298 -387.7555 
L 320.984298 -55.1155 
L 324.615535 -55.1155 
L 324.615535 -387.7555 
L 324.615535 -387.7555 
L 320.984298 -387.7555 
z
"/>
    </defs>
    <g clip-path="url(#p544581f7fd)">
     <use xlink:href="#m72e9391e5f" x="0" y="398.34866" style="fill: #1b9e77; fill-opacity: 0.2"/>
    </g>
   </g>
   <g id="PolyCollection_75">
    <defs>
     <path id="m871f2e2c67" d="M 324.615535 -387.7555 
L 324.615535 -55.1155 
L 328.246771 -55.1155 
L 328.246771 -387.7555 
L 328.246771 -387.7555 
L 324.615535 -387.7555 
z
"/>
    </defs>
    <g clip-path="url(#p544581f7fd)">
     <use xlink:href="#m871f2e2c67" x="0" y="398.34866" style="fill: #d95f02; fill-opacity: 0.2"/>
    </g>
   </g>
   <g id="PolyCollection_76">
    <defs>
     <path id="m75dd283e7e" d="M 328.246771 -387.7555 
L 328.246771 -55.1155 
L 331.878008 -55.1155 
L 331.878008 -387.7555 
L 331.878008 -387.7555 
L 328.246771 -387.7555 
z
"/>
    </defs>
    <g clip-path="url(#p544581f7fd)">
     <use xlink:href="#m75dd283e7e" x="0" y="398.34866" style="fill: #d95f02; fill-opacity: 0.2"/>
    </g>
   </g>
   <g id="PolyCollection_77">
    <defs>
     <path id="m49b94ad282" d="M 331.878008 -387.7555 
L 331.878008 -55.1155 
L 335.509244 -55.1155 
L 335.509244 -387.7555 
L 335.509244 -387.7555 
L 331.878008 -387.7555 
z
"/>
    </defs>
    <g clip-path="url(#p544581f7fd)">
     <use xlink:href="#m49b94ad282" x="0" y="398.34866" style="fill: #d95f02; fill-opacity: 0.2"/>
    </g>
   </g>
   <g id="PolyCollection_78">
    <defs>
     <path id="m6c9303b621" d="M 335.509244 -387.7555 
L 335.509244 -55.1155 
L 339.14048 -55.1155 
L 339.14048 -387.7555 
L 339.14048 -387.7555 
L 335.509244 -387.7555 
z
"/>
    </defs>
    <g clip-path="url(#p544581f7fd)">
     <use xlink:href="#m6c9303b621" x="0" y="398.34866" style="fill: #d95f02; fill-opacity: 0.2"/>
    </g>
   </g>
   <g id="PolyCollection_79">
    <defs>
     <path id="m6f518ff8c7" d="M 339.14048 -387.7555 
L 339.14048 -55.1155 
L 342.771717 -55.1155 
L 342.771717 -387.7555 
L 342.771717 -387.7555 
L 339.14048 -387.7555 
z
"/>
    </defs>
    <g clip-path="url(#p544581f7fd)">
     <use xlink:href="#m6f518ff8c7" x="0" y="398.34866" style="fill: #d95f02; fill-opacity: 0.2"/>
    </g>
   </g>
   <g id="PolyCollection_80">
    <defs>
     <path id="m2555a5d01f" d="M 342.771717 -387.7555 
L 342.771717 -55.1155 
L 346.402953 -55.1155 
L 346.402953 -387.7555 
L 346.402953 -387.7555 
L 342.771717 -387.7555 
z
"/>
    </defs>
    <g clip-path="url(#p544581f7fd)">
     <use xlink:href="#m2555a5d01f" x="0" y="398.34866" style="fill: #d95f02; fill-opacity: 0.2"/>
    </g>
   </g>
   <g id="PolyCollection_81">
    <defs>
     <path id="mec12ddf7a2" d="M 346.402953 -387.7555 
L 346.402953 -55.1155 
L 350.03419 -55.1155 
L 350.03419 -387.7555 
L 350.03419 -387.7555 
L 346.402953 -387.7555 
z
"/>
    </defs>
    <g clip-path="url(#p544581f7fd)">
     <use xlink:href="#mec12ddf7a2" x="0" y="398.34866" style="fill: #1b9e77; fill-opacity: 0.2"/>
    </g>
   </g>
   <g id="PolyCollection_82">
    <defs>
     <path id="mcd99e00978" d="M 350.03419 -387.7555 
L 350.03419 -55.1155 
L 353.665426 -55.1155 
L 353.665426 -387.7555 
L 353.665426 -387.7555 
L 350.03419 -387.7555 
z
"/>
    </defs>
    <g clip-path="url(#p544581f7fd)">
     <use xlink:href="#mcd99e00978" x="0" y="398.34866" style="fill: #d95f02; fill-opacity: 0.2"/>
    </g>
   </g>
   <g id="PolyCollection_83">
    <defs>
     <path id="mc240fa6e15" d="M 353.665426 -387.7555 
L 353.665426 -55.1155 
L 357.296663 -55.1155 
L 357.296663 -387.7555 
L 357.296663 -387.7555 
L 353.665426 -387.7555 
z
"/>
    </defs>
    <g clip-path="url(#p544581f7fd)">
     <use xlink:href="#mc240fa6e15" x="0" y="398.34866" style="fill: #1b9e77; fill-opacity: 0.2"/>
    </g>
   </g>
   <g id="PolyCollection_84">
    <defs>
     <path id="md21bf8bea5" d="M 357.296663 -387.7555 
L 357.296663 -55.1155 
L 360.927899 -55.1155 
L 360.927899 -387.7555 
L 360.927899 -387.7555 
L 357.296663 -387.7555 
z
"/>
    </defs>
    <g clip-path="url(#p544581f7fd)">
     <use xlink:href="#md21bf8bea5" x="0" y="398.34866" style="fill: #d95f02; fill-opacity: 0.2"/>
    </g>
   </g>
   <g id="PolyCollection_85">
    <defs>
     <path id="medc390eb0d" d="M 360.927899 -387.7555 
L 360.927899 -55.1155 
L 364.559136 -55.1155 
L 364.559136 -387.7555 
L 364.559136 -387.7555 
L 360.927899 -387.7555 
z
"/>
    </defs>
    <g clip-path="url(#p544581f7fd)">
     <use xlink:href="#medc390eb0d" x="0" y="398.34866" style="fill: #1b9e77; fill-opacity: 0.2"/>
    </g>
   </g>
   <g id="PolyCollection_86">
    <defs>
     <path id="m0cf80aee47" d="M 364.559136 -387.7555 
L 364.559136 -55.1155 
L 368.190372 -55.1155 
L 368.190372 -387.7555 
L 368.190372 -387.7555 
L 364.559136 -387.7555 
z
"/>
    </defs>
    <g clip-path="url(#p544581f7fd)">
     <use xlink:href="#m0cf80aee47" x="0" y="398.34866" style="fill: #1b9e77; fill-opacity: 0.2"/>
    </g>
   </g>
   <g id="PolyCollection_87">
    <defs>
     <path id="m210b4d79eb" d="M 368.190372 -387.7555 
L 368.190372 -55.1155 
L 371.821608 -55.1155 
L 371.821608 -387.7555 
L 371.821608 -387.7555 
L 368.190372 -387.7555 
z
"/>
    </defs>
    <g clip-path="url(#p544581f7fd)">
     <use xlink:href="#m210b4d79eb" x="0" y="398.34866" style="fill: #1b9e77; fill-opacity: 0.2"/>
    </g>
   </g>
   <g id="PolyCollection_88">
    <defs>
     <path id="m3deed0d9a7" d="M 371.821608 -387.7555 
L 371.821608 -55.1155 
L 375.452845 -55.1155 
L 375.452845 -387.7555 
L 375.452845 -387.7555 
L 371.821608 -387.7555 
z
"/>
    </defs>
    <g clip-path="url(#p544581f7fd)">
     <use xlink:href="#m3deed0d9a7" x="0" y="398.34866" style="fill: #d95f02; fill-opacity: 0.2"/>
    </g>
   </g>
   <g id="PolyCollection_89">
    <defs>
     <path id="m13952da0d9" d="M 375.452845 -387.7555 
L 375.452845 -55.1155 
L 379.084081 -55.1155 
L 379.084081 -387.7555 
L 379.084081 -387.7555 
L 375.452845 -387.7555 
z
"/>
    </defs>
    <g clip-path="url(#p544581f7fd)">
     <use xlink:href="#m13952da0d9" x="0" y="398.34866" style="fill: #d95f02; fill-opacity: 0.2"/>
    </g>
   </g>
   <g id="PolyCollection_90">
    <defs>
     <path id="m698408a482" d="M 379.084081 -387.7555 
L 379.084081 -55.1155 
L 382.715318 -55.1155 
L 382.715318 -387.7555 
L 382.715318 -387.7555 
L 379.084081 -387.7555 
z
"/>
    </defs>
    <g clip-path="url(#p544581f7fd)">
     <use xlink:href="#m698408a482" x="0" y="398.34866" style="fill: #d95f02; fill-opacity: 0.2"/>
    </g>
   </g>
   <g id="PolyCollection_91">
    <defs>
     <path id="m68fc7cd948" d="M 382.715318 -387.7555 
L 382.715318 -55.1155 
L 386.346554 -55.1155 
L 386.346554 -387.7555 
L 386.346554 -387.7555 
L 382.715318 -387.7555 
z
"/>
    </defs>
    <g clip-path="url(#p544581f7fd)">
     <use xlink:href="#m68fc7cd948" x="0" y="398.34866" style="fill: #d95f02; fill-opacity: 0.2"/>
    </g>
   </g>
   <g id="PolyCollection_92">
    <defs>
     <path id="mf1420f396f" d="M 386.346554 -387.7555 
L 386.346554 -55.1155 
L 389.977791 -55.1155 
L 389.977791 -387.7555 
L 389.977791 -387.7555 
L 386.346554 -387.7555 
z
"/>
    </defs>
    <g clip-path="url(#p544581f7fd)">
     <use xlink:href="#mf1420f396f" x="0" y="398.34866" style="fill: #1b9e77; fill-opacity: 0.2"/>
    </g>
   </g>
   <g id="PolyCollection_93">
    <defs>
     <path id="m7166b2b0bb" d="M 389.977791 -387.7555 
L 389.977791 -55.1155 
L 393.609027 -55.1155 
L 393.609027 -387.7555 
L 393.609027 -387.7555 
L 389.977791 -387.7555 
z
"/>
    </defs>
    <g clip-path="url(#p544581f7fd)">
     <use xlink:href="#m7166b2b0bb" x="0" y="398.34866" style="fill: #d95f02; fill-opacity: 0.2"/>
    </g>
   </g>
   <g id="PolyCollection_94">
    <defs>
     <path id="m267b98cd43" d="M 393.609027 -387.7555 
L 393.609027 -55.1155 
L 397.240264 -55.1155 
L 397.240264 -387.7555 
L 397.240264 -387.7555 
L 393.609027 -387.7555 
z
"/>
    </defs>
    <g clip-path="url(#p544581f7fd)">
     <use xlink:href="#m267b98cd43" x="0" y="398.34866" style="fill: #d95f02; fill-opacity: 0.2"/>
    </g>
   </g>
   <g id="PolyCollection_95">
    <defs>
     <path id="m395b1d9242" d="M 397.240264 -387.7555 
L 397.240264 -55.1155 
L 400.8715 -55.1155 
L 400.8715 -387.7555 
L 400.8715 -387.7555 
L 397.240264 -387.7555 
z
"/>
    </defs>
    <g clip-path="url(#p544581f7fd)">
     <use xlink:href="#m395b1d9242" x="0" y="398.34866" style="fill: #d95f02; fill-opacity: 0.2"/>
    </g>
   </g>
   <g id="matplotlib.axis_1">
    <g id="xtick_1">
     <g id="line2d_1">
      <defs>
       <path id="mbf7a6d0a2e" d="M 0 0 
L 0 4.8 
" style="stroke: #000000"/>
      </defs>
      <g>
       <use xlink:href="#mbf7a6d0a2e" x="66.797747" y="343.23316" style="stroke: #000000"/>
      </g>
     </g>
     <g id="text_1">
      <!-- 0 -->
      <g transform="translate(61.198747 364.90641) scale(0.176 -0.176)">
       <defs>
        <path id="DejaVuSans-30" d="M 2034 4250 
Q 1547 4250 1301 3770 
Q 1056 3291 1056 2328 
Q 1056 1369 1301 889 
Q 1547 409 2034 409 
Q 2525 409 2770 889 
Q 3016 1369 3016 2328 
Q 3016 3291 2770 3770 
Q 2525 4250 2034 4250 
z
M 2034 4750 
Q 2819 4750 3233 4129 
Q 3647 3509 3647 2328 
Q 3647 1150 3233 529 
Q 2819 -91 2034 -91 
Q 1250 -91 836 529 
Q 422 1150 422 2328 
Q 422 3509 836 4129 
Q 1250 4750 2034 4750 
z
" transform="scale(0.015625)"/>
       </defs>
       <use xlink:href="#DejaVuSans-30"/>
      </g>
     </g>
    </g>
    <g id="xtick_2">
     <g id="line2d_2">
      <g>
       <use xlink:href="#mbf7a6d0a2e" x="139.422476" y="343.23316" style="stroke: #000000"/>
      </g>
     </g>
     <g id="text_2">
      <!-- 20 -->
      <g transform="translate(128.224476 364.90641) scale(0.176 -0.176)">
       <defs>
        <path id="DejaVuSans-32" d="M 1228 531 
L 3431 531 
L 3431 0 
L 469 0 
L 469 531 
Q 828 903 1448 1529 
Q 2069 2156 2228 2338 
Q 2531 2678 2651 2914 
Q 2772 3150 2772 3378 
Q 2772 3750 2511 3984 
Q 2250 4219 1831 4219 
Q 1534 4219 1204 4116 
Q 875 4013 500 3803 
L 500 4441 
Q 881 4594 1212 4672 
Q 1544 4750 1819 4750 
Q 2544 4750 2975 4387 
Q 3406 4025 3406 3419 
Q 3406 3131 3298 2873 
Q 3191 2616 2906 2266 
Q 2828 2175 2409 1742 
Q 1991 1309 1228 531 
z
" transform="scale(0.015625)"/>
       </defs>
       <use xlink:href="#DejaVuSans-32"/>
       <use xlink:href="#DejaVuSans-30" x="63.623047"/>
      </g>
     </g>
    </g>
    <g id="xtick_3">
     <g id="line2d_3">
      <g>
       <use xlink:href="#mbf7a6d0a2e" x="212.047205" y="343.23316" style="stroke: #000000"/>
      </g>
     </g>
     <g id="text_3">
      <!-- 40 -->
      <g transform="translate(200.849205 364.90641) scale(0.176 -0.176)">
       <defs>
        <path id="DejaVuSans-34" d="M 2419 4116 
L 825 1625 
L 2419 1625 
L 2419 4116 
z
M 2253 4666 
L 3047 4666 
L 3047 1625 
L 3713 1625 
L 3713 1100 
L 3047 1100 
L 3047 0 
L 2419 0 
L 2419 1100 
L 313 1100 
L 313 1709 
L 2253 4666 
z
" transform="scale(0.015625)"/>
       </defs>
       <use xlink:href="#DejaVuSans-34"/>
       <use xlink:href="#DejaVuSans-30" x="63.623047"/>
      </g>
     </g>
    </g>
    <g id="xtick_4">
     <g id="line2d_4">
      <g>
       <use xlink:href="#mbf7a6d0a2e" x="284.671934" y="343.23316" style="stroke: #000000"/>
      </g>
     </g>
     <g id="text_4">
      <!-- 60 -->
      <g transform="translate(273.473934 364.90641) scale(0.176 -0.176)">
       <defs>
        <path id="DejaVuSans-36" d="M 2113 2584 
Q 1688 2584 1439 2293 
Q 1191 2003 1191 1497 
Q 1191 994 1439 701 
Q 1688 409 2113 409 
Q 2538 409 2786 701 
Q 3034 994 3034 1497 
Q 3034 2003 2786 2293 
Q 2538 2584 2113 2584 
z
M 3366 4563 
L 3366 3988 
Q 3128 4100 2886 4159 
Q 2644 4219 2406 4219 
Q 1781 4219 1451 3797 
Q 1122 3375 1075 2522 
Q 1259 2794 1537 2939 
Q 1816 3084 2150 3084 
Q 2853 3084 3261 2657 
Q 3669 2231 3669 1497 
Q 3669 778 3244 343 
Q 2819 -91 2113 -91 
Q 1303 -91 875 529 
Q 447 1150 447 2328 
Q 447 3434 972 4092 
Q 1497 4750 2381 4750 
Q 2619 4750 2861 4703 
Q 3103 4656 3366 4563 
z
" transform="scale(0.015625)"/>
       </defs>
       <use xlink:href="#DejaVuSans-36"/>
       <use xlink:href="#DejaVuSans-30" x="63.623047"/>
      </g>
     </g>
    </g>
    <g id="xtick_5">
     <g id="line2d_5">
      <g>
       <use xlink:href="#mbf7a6d0a2e" x="357.296663" y="343.23316" style="stroke: #000000"/>
      </g>
     </g>
     <g id="text_5">
      <!-- 80 -->
      <g transform="translate(346.098663 364.90641) scale(0.176 -0.176)">
       <defs>
        <path id="DejaVuSans-38" d="M 2034 2216 
Q 1584 2216 1326 1975 
Q 1069 1734 1069 1313 
Q 1069 891 1326 650 
Q 1584 409 2034 409 
Q 2484 409 2743 651 
Q 3003 894 3003 1313 
Q 3003 1734 2745 1975 
Q 2488 2216 2034 2216 
z
M 1403 2484 
Q 997 2584 770 2862 
Q 544 3141 544 3541 
Q 544 4100 942 4425 
Q 1341 4750 2034 4750 
Q 2731 4750 3128 4425 
Q 3525 4100 3525 3541 
Q 3525 3141 3298 2862 
Q 3072 2584 2669 2484 
Q 3125 2378 3379 2068 
Q 3634 1759 3634 1313 
Q 3634 634 3220 271 
Q 2806 -91 2034 -91 
Q 1263 -91 848 271 
Q 434 634 434 1313 
Q 434 1759 690 2068 
Q 947 2378 1403 2484 
z
M 1172 3481 
Q 1172 3119 1398 2916 
Q 1625 2713 2034 2713 
Q 2441 2713 2670 2916 
Q 2900 3119 2900 3481 
Q 2900 3844 2670 4047 
Q 2441 4250 2034 4250 
Q 1625 4250 1398 4047 
Q 1172 3844 1172 3481 
z
" transform="scale(0.015625)"/>
       </defs>
       <use xlink:href="#DejaVuSans-38"/>
       <use xlink:href="#DejaVuSans-30" x="63.623047"/>
      </g>
     </g>
    </g>
    <g id="text_6">
     <!-- State -->
     <g transform="translate(208.06 387.15566) scale(0.192 -0.192)">
      <defs>
       <path id="DejaVuSans-53" d="M 3425 4513 
L 3425 3897 
Q 3066 4069 2747 4153 
Q 2428 4238 2131 4238 
Q 1616 4238 1336 4038 
Q 1056 3838 1056 3469 
Q 1056 3159 1242 3001 
Q 1428 2844 1947 2747 
L 2328 2669 
Q 3034 2534 3370 2195 
Q 3706 1856 3706 1288 
Q 3706 609 3251 259 
Q 2797 -91 1919 -91 
Q 1588 -91 1214 -16 
Q 841 59 441 206 
L 441 856 
Q 825 641 1194 531 
Q 1563 422 1919 422 
Q 2459 422 2753 634 
Q 3047 847 3047 1241 
Q 3047 1584 2836 1778 
Q 2625 1972 2144 2069 
L 1759 2144 
Q 1053 2284 737 2584 
Q 422 2884 422 3419 
Q 422 4038 858 4394 
Q 1294 4750 2059 4750 
Q 2388 4750 2728 4690 
Q 3069 4631 3425 4513 
z
" transform="scale(0.015625)"/>
       <path id="DejaVuSans-74" d="M 1172 4494 
L 1172 3500 
L 2356 3500 
L 2356 3053 
L 1172 3053 
L 1172 1153 
Q 1172 725 1289 603 
Q 1406 481 1766 481 
L 2356 481 
L 2356 0 
L 1766 0 
Q 1100 0 847 248 
Q 594 497 594 1153 
L 594 3053 
L 172 3053 
L 172 3500 
L 594 3500 
L 594 4494 
L 1172 4494 
z
" transform="scale(0.015625)"/>
       <path id="DejaVuSans-61" d="M 2194 1759 
Q 1497 1759 1228 1600 
Q 959 1441 959 1056 
Q 959 750 1161 570 
Q 1363 391 1709 391 
Q 2188 391 2477 730 
Q 2766 1069 2766 1631 
L 2766 1759 
L 2194 1759 
z
M 3341 1997 
L 3341 0 
L 2766 0 
L 2766 531 
Q 2569 213 2275 61 
Q 1981 -91 1556 -91 
Q 1019 -91 701 211 
Q 384 513 384 1019 
Q 384 1609 779 1909 
Q 1175 2209 1959 2209 
L 2766 2209 
L 2766 2266 
Q 2766 2663 2505 2880 
Q 2244 3097 1772 3097 
Q 1472 3097 1187 3025 
Q 903 2953 641 2809 
L 641 3341 
Q 956 3463 1253 3523 
Q 1550 3584 1831 3584 
Q 2591 3584 2966 3190 
Q 3341 2797 3341 1997 
z
" transform="scale(0.015625)"/>
       <path id="DejaVuSans-65" d="M 3597 1894 
L 3597 1613 
L 953 1613 
Q 991 1019 1311 708 
Q 1631 397 2203 397 
Q 2534 397 2845 478 
Q 3156 559 3463 722 
L 3463 178 
Q 3153 47 2828 -22 
Q 2503 -91 2169 -91 
Q 1331 -91 842 396 
Q 353 884 353 1716 
Q 353 2575 817 3079 
Q 1281 3584 2069 3584 
Q 2775 3584 3186 3129 
Q 3597 2675 3597 1894 
z
M 3022 2063 
Q 3016 2534 2758 2815 
Q 2500 3097 2075 3097 
Q 1594 3097 1305 2825 
Q 1016 2553 972 2059 
L 3022 2063 
z
" transform="scale(0.015625)"/>
      </defs>
      <use xlink:href="#DejaVuSans-53"/>
      <use xlink:href="#DejaVuSans-74" x="63.476562"/>
      <use xlink:href="#DejaVuSans-61" x="102.685547"/>
      <use xlink:href="#DejaVuSans-74" x="163.964844"/>
      <use xlink:href="#DejaVuSans-65" x="203.173828"/>
     </g>
    </g>
   </g>
   <g id="matplotlib.axis_2">
    <g id="ytick_1">
     <g id="line2d_6">
      <defs>
       <path id="ma170243537" d="M 0 0 
L -4.8 0 
" style="stroke: #000000"/>
      </defs>
      <g>
       <use xlink:href="#ma170243537" x="66.0715" y="343.23316" style="stroke: #000000"/>
      </g>
     </g>
     <g id="text_7">
      <!-- 0.0 -->
      <g transform="translate(29.782 349.919785) scale(0.176 -0.176)">
       <defs>
        <path id="DejaVuSans-2e" d="M 684 794 
L 1344 794 
L 1344 0 
L 684 0 
L 684 794 
z
" transform="scale(0.015625)"/>
       </defs>
       <use xlink:href="#DejaVuSans-30"/>
       <use xlink:href="#DejaVuSans-2e" x="63.623047"/>
       <use xlink:href="#DejaVuSans-30" x="95.410156"/>
      </g>
     </g>
    </g>
    <g id="ytick_2">
     <g id="line2d_7">
      <g>
       <use xlink:href="#ma170243537" x="66.0715" y="277.363853" style="stroke: #000000"/>
      </g>
     </g>
     <g id="text_8">
      <!-- 0.2 -->
      <g transform="translate(29.782 284.050478) scale(0.176 -0.176)">
       <use xlink:href="#DejaVuSans-30"/>
       <use xlink:href="#DejaVuSans-2e" x="63.623047"/>
       <use xlink:href="#DejaVuSans-32" x="95.410156"/>
      </g>
     </g>
    </g>
    <g id="ytick_3">
     <g id="line2d_8">
      <g>
       <use xlink:href="#ma170243537" x="66.0715" y="211.494546" style="stroke: #000000"/>
      </g>
     </g>
     <g id="text_9">
      <!-- 0.4 -->
      <g transform="translate(29.782 218.181171) scale(0.176 -0.176)">
       <use xlink:href="#DejaVuSans-30"/>
       <use xlink:href="#DejaVuSans-2e" x="63.623047"/>
       <use xlink:href="#DejaVuSans-34" x="95.410156"/>
      </g>
     </g>
    </g>
    <g id="ytick_4">
     <g id="line2d_9">
      <g>
       <use xlink:href="#ma170243537" x="66.0715" y="145.625239" style="stroke: #000000"/>
      </g>
     </g>
     <g id="text_10">
      <!-- 0.6 -->
      <g transform="translate(29.782 152.311864) scale(0.176 -0.176)">
       <use xlink:href="#DejaVuSans-30"/>
       <use xlink:href="#DejaVuSans-2e" x="63.623047"/>
       <use xlink:href="#DejaVuSans-36" x="95.410156"/>
      </g>
     </g>
    </g>
    <g id="ytick_5">
     <g id="line2d_10">
      <g>
       <use xlink:href="#ma170243537" x="66.0715" y="79.755932" style="stroke: #000000"/>
      </g>
     </g>
     <g id="text_11">
      <!-- 0.8 -->
      <g transform="translate(29.782 86.442557) scale(0.176 -0.176)">
       <use xlink:href="#DejaVuSans-30"/>
       <use xlink:href="#DejaVuSans-2e" x="63.623047"/>
       <use xlink:href="#DejaVuSans-38" x="95.410156"/>
      </g>
     </g>
    </g>
    <g id="ytick_6">
     <g id="line2d_11">
      <g>
       <use xlink:href="#ma170243537" x="66.0715" y="13.886625" style="stroke: #000000"/>
      </g>
     </g>
     <g id="text_12">
      <!-- 1.0 -->
      <g transform="translate(29.782 20.57325) scale(0.176 -0.176)">
       <defs>
        <path id="DejaVuSans-31" d="M 794 531 
L 1825 531 
L 1825 4091 
L 703 3866 
L 703 4441 
L 1819 4666 
L 2450 4666 
L 2450 531 
L 3481 531 
L 3481 0 
L 794 0 
L 794 531 
z
" transform="scale(0.015625)"/>
       </defs>
       <use xlink:href="#DejaVuSans-31"/>
       <use xlink:href="#DejaVuSans-2e" x="63.623047"/>
       <use xlink:href="#DejaVuSans-30" x="95.410156"/>
      </g>
     </g>
    </g>
    <g id="text_13">
     <!-- Score -->
     <g transform="translate(21.789 203.79766) rotate(-90) scale(0.192 -0.192)">
      <defs>
       <path id="DejaVuSans-63" d="M 3122 3366 
L 3122 2828 
Q 2878 2963 2633 3030 
Q 2388 3097 2138 3097 
Q 1578 3097 1268 2742 
Q 959 2388 959 1747 
Q 959 1106 1268 751 
Q 1578 397 2138 397 
Q 2388 397 2633 464 
Q 2878 531 3122 666 
L 3122 134 
Q 2881 22 2623 -34 
Q 2366 -91 2075 -91 
Q 1284 -91 818 406 
Q 353 903 353 1747 
Q 353 2603 823 3093 
Q 1294 3584 2113 3584 
Q 2378 3584 2631 3529 
Q 2884 3475 3122 3366 
z
" transform="scale(0.015625)"/>
       <path id="DejaVuSans-6f" d="M 1959 3097 
Q 1497 3097 1228 2736 
Q 959 2375 959 1747 
Q 959 1119 1226 758 
Q 1494 397 1959 397 
Q 2419 397 2687 759 
Q 2956 1122 2956 1747 
Q 2956 2369 2687 2733 
Q 2419 3097 1959 3097 
z
M 1959 3584 
Q 2709 3584 3137 3096 
Q 3566 2609 3566 1747 
Q 3566 888 3137 398 
Q 2709 -91 1959 -91 
Q 1206 -91 779 398 
Q 353 888 353 1747 
Q 353 2609 779 3096 
Q 1206 3584 1959 3584 
z
" transform="scale(0.015625)"/>
       <path id="DejaVuSans-72" d="M 2631 2963 
Q 2534 3019 2420 3045 
Q 2306 3072 2169 3072 
Q 1681 3072 1420 2755 
Q 1159 2438 1159 1844 
L 1159 0 
L 581 0 
L 581 3500 
L 1159 3500 
L 1159 2956 
Q 1341 3275 1631 3429 
Q 1922 3584 2338 3584 
Q 2397 3584 2469 3576 
Q 2541 3569 2628 3553 
L 2631 2963 
z
" transform="scale(0.015625)"/>
      </defs>
      <use xlink:href="#DejaVuSans-53"/>
      <use xlink:href="#DejaVuSans-63" x="63.476562"/>
      <use xlink:href="#DejaVuSans-6f" x="118.457031"/>
      <use xlink:href="#DejaVuSans-72" x="179.638672"/>
      <use xlink:href="#DejaVuSans-65" x="218.501953"/>
     </g>
    </g>
   </g>
   <g id="line2d_12">
    <path d="M 66.797747 121.753832 
L 74.06022 121.753832 
L 77.691457 120.566638 
L 81.322693 119.159583 
L 84.95393 118.449365 
L 88.585166 117.707122 
L 92.216402 117.500284 
L 95.847639 111.669772 
L 103.110112 108.839904 
L 110.372585 108.45237 
L 117.635057 108.387657 
L 121.266294 107.256185 
L 124.89753 107.008423 
L 128.528767 107.008423 
L 132.160003 104.496097 
L 146.684949 103.85941 
L 150.316185 101.693745 
L 153.947422 101.370754 
L 157.578658 101.233838 
L 161.209895 92.578336 
L 168.472368 87.817549 
L 172.103604 81.888536 
L 175.734841 80.423321 
L 179.366077 79.20736 
L 190.259786 78.124494 
L 193.891023 77.795779 
L 197.522259 77.960238 
L 201.153496 77.013935 
L 204.784732 56.240633 
L 208.415969 55.841598 
L 212.047205 55.165609 
L 215.678441 54.777901 
L 219.309678 54.764146 
L 222.940914 54.63966 
L 226.572151 51.363218 
L 230.203387 48.863475 
L 233.834624 48.054489 
L 237.46586 47.749972 
L 241.097097 45.187683 
L 248.359569 45.154391 
L 251.990806 44.858286 
L 255.622042 44.759454 
L 262.884515 43.837156 
L 266.515752 43.817289 
L 270.146988 41.597919 
L 273.778225 41.597919 
L 277.409461 41.597919 
L 281.040697 41.597919 
L 284.671934 41.597919 
L 288.30317 41.597919 
L 291.934407 39.494563 
L 295.565643 36.465696 
L 299.19688 36.458662 
L 302.828116 20.788452 
L 306.459352 20.788452 
L 310.090589 17.588371 
L 317.353062 17.585925 
L 320.984298 16.830139 
L 324.615535 16.826247 
L 328.246771 16.826247 
L 331.878008 16.826247 
L 339.14048 16.826247 
L 342.771717 16.826247 
L 346.402953 16.826247 
L 350.03419 16.741314 
L 353.665426 16.741314 
L 357.296663 16.732179 
L 360.927899 16.732179 
L 364.559136 16.640529 
L 368.190372 16.640529 
L 371.821608 16.557002 
L 375.452845 16.557002 
L 379.084081 16.557002 
L 382.715318 16.557002 
L 386.346554 16.557002 
L 389.977791 16.419338 
L 393.609027 15.766457 
L 400.8715 13.886625 
" clip-path="url(#p544581f7fd)" style="fill: none; stroke-dasharray: 2,3.3; stroke-dashoffset: 0; stroke: #e41a1c; stroke-width: 2"/>
   </g>
   <g id="line2d_13">
    <path d="M 66.797747 99.059193 
L 74.06022 99.059193 
L 77.691457 98.964662 
L 81.322693 98.964662 
L 84.95393 98.964662 
L 88.585166 98.870131 
L 92.216402 98.7756 
L 95.847639 98.7756 
L 103.110112 98.681069 
L 110.372585 98.681069 
L 117.635057 98.681069 
L 121.266294 98.586537 
L 124.89753 98.397475 
L 128.528767 98.397475 
L 132.160003 98.397475 
L 146.684949 98.019351 
L 150.316185 98.019351 
L 153.947422 97.830288 
L 157.578658 97.830288 
L 161.209895 97.830288 
L 168.472368 97.641226 
L 172.103604 97.641226 
L 175.734841 97.546695 
L 179.366077 97.546695 
L 190.259786 97.452164 
L 193.891023 97.452164 
L 197.522259 97.452164 
L 201.153496 97.263101 
L 204.784732 97.263101 
L 208.415969 97.16857 
L 212.047205 97.16857 
L 215.678441 97.16857 
L 219.309678 97.074039 
L 222.940914 96.884977 
L 226.572151 96.601383 
L 230.203387 96.601383 
L 233.834624 96.601383 
L 237.46586 96.601383 
L 241.097097 96.601383 
L 248.359569 84.595927 
L 251.990806 84.595927 
L 255.622042 84.595927 
L 262.884515 84.312333 
L 266.515752 84.123271 
L 270.146988 83.934209 
L 273.778225 83.934209 
L 277.409461 83.934209 
L 281.040697 83.934209 
L 284.671934 83.934209 
L 288.30317 83.934209 
L 291.934407 60.679545 
L 295.565643 60.679545 
L 299.19688 60.585014 
L 302.828116 60.585014 
L 306.459352 60.585014 
L 310.090589 60.490483 
L 317.353062 60.301421 
L 320.984298 60.20689 
L 324.615535 59.828765 
L 328.246771 59.828765 
L 331.878008 59.828765 
L 339.14048 59.828765 
L 342.771717 59.828765 
L 346.402953 59.828765 
L 350.03419 51.320961 
L 353.665426 51.320961 
L 357.296663 50.37565 
L 360.927899 50.37565 
L 364.559136 40.54441 
L 368.190372 40.54441 
L 371.821608 30.996764 
L 375.452845 30.996764 
L 379.084081 30.996764 
L 382.715318 30.996764 
L 386.346554 30.996764 
L 389.977791 13.886625 
L 393.609027 13.886625 
L 400.8715 13.886625 
" clip-path="url(#p544581f7fd)" style="fill: none; stroke-dasharray: 7.4,3.2; stroke-dashoffset: 0; stroke: #377eb8; stroke-width: 2"/>
   </g>
   <g id="line2d_14">
    <path d="M 66.797747 110.959549 
L 74.06022 110.959549 
L 77.691457 110.26534 
L 81.322693 109.497525 
L 84.95393 109.111717 
L 88.585166 108.666197 
L 92.216402 108.510784 
L 95.847639 105.397321 
L 103.110112 103.868225 
L 110.372585 103.666314 
L 117.635057 103.63263 
L 121.266294 102.999554 
L 124.89753 102.780017 
L 128.528767 102.780017 
L 132.160003 101.485243 
L 146.684949 100.974572 
L 150.316185 99.870416 
L 153.947422 99.613384 
L 157.578658 99.543947 
L 161.209895 95.232114 
L 168.472368 92.825698 
L 172.103604 90.009633 
L 175.734841 89.273319 
L 179.366077 88.70695 
L 190.259786 88.153925 
L 193.891023 88.001866 
L 197.522259 88.077918 
L 201.153496 87.538789 
L 204.784732 78.33063 
L 208.415969 78.105889 
L 212.047205 77.818599 
L 215.678441 77.654154 
L 219.309678 77.593272 
L 222.940914 77.430413 
L 226.572151 75.882472 
L 230.203387 74.838623 
L 233.834624 74.502868 
L 237.46586 74.376743 
L 241.097097 73.321079 
L 248.359569 66.272312 
L 251.990806 66.144562 
L 255.622042 66.101953 
L 262.884515 65.541869 
L 266.515752 65.424619 
L 270.146988 64.363722 
L 273.778225 64.363722 
L 277.409461 64.363722 
L 281.040697 64.363722 
L 284.671934 64.363722 
L 288.30317 64.363722 
L 291.934407 50.469801 
L 295.565643 49.070066 
L 299.19688 49.01561 
L 302.828116 41.99543 
L 306.459352 41.99543 
L 310.090589 40.552107 
L 317.353062 40.44275 
L 320.984298 40.062207 
L 324.615535 39.843726 
L 328.246771 39.843726 
L 331.878008 39.843726 
L 339.14048 39.843726 
L 342.771717 39.843726 
L 346.402953 39.843726 
L 350.03419 34.997942 
L 353.665426 34.997942 
L 357.296663 34.467669 
L 360.927899 34.467669 
L 364.559136 29.046476 
L 368.190372 29.046476 
L 371.821608 23.940056 
L 375.452845 23.940056 
L 379.084081 23.940056 
L 382.715318 23.940056 
L 386.346554 23.940056 
L 389.977791 15.15787 
L 393.609027 14.829231 
L 400.8715 13.886625 
" clip-path="url(#p544581f7fd)" style="fill: none; stroke: #984ea3; stroke-width: 3; stroke-linecap: square"/>
   </g>
   <g id="patch_3">
    <path d="M 66.0715 343.23316 
L 66.0715 10.59316 
" style="fill: none; stroke: #000000; stroke-linejoin: miter; stroke-linecap: square"/>
   </g>
   <g id="patch_4">
    <path d="M 66.0715 343.23316 
L 400.8715 343.23316 
" style="fill: none; stroke: #000000; stroke-linejoin: miter; stroke-linecap: square"/>
   </g>
   <g id="legend_1">
    <g id="patch_5">
     <path d="M 78.3915 334.43316 
L 213.23225 334.43316 
Q 216.75225 334.43316 216.75225 330.91316 
L 216.75225 255.17266 
Q 216.75225 251.65266 213.23225 251.65266 
L 78.3915 251.65266 
Q 74.8715 251.65266 74.8715 255.17266 
L 74.8715 330.91316 
Q 74.8715 334.43316 78.3915 334.43316 
z
" style="fill: #ffffff; opacity: 0.8; stroke: #cccccc; stroke-width: 0.8; stroke-linejoin: miter"/>
    </g>
    <g id="line2d_15">
     <path d="M 81.9115 265.90591 
L 99.5115 265.90591 
L 117.1115 265.90591 
" style="fill: none; stroke-dasharray: 2,3.3; stroke-dashoffset: 0; stroke: #e41a1c; stroke-width: 2"/>
    </g>
    <g id="text_14">
     <!-- Precision -->
     <g transform="translate(131.1915 272.06591) scale(0.176 -0.176)">
      <defs>
       <path id="DejaVuSans-50" d="M 1259 4147 
L 1259 2394 
L 2053 2394 
Q 2494 2394 2734 2622 
Q 2975 2850 2975 3272 
Q 2975 3691 2734 3919 
Q 2494 4147 2053 4147 
L 1259 4147 
z
M 628 4666 
L 2053 4666 
Q 2838 4666 3239 4311 
Q 3641 3956 3641 3272 
Q 3641 2581 3239 2228 
Q 2838 1875 2053 1875 
L 1259 1875 
L 1259 0 
L 628 0 
L 628 4666 
z
" transform="scale(0.015625)"/>
       <path id="DejaVuSans-69" d="M 603 3500 
L 1178 3500 
L 1178 0 
L 603 0 
L 603 3500 
z
M 603 4863 
L 1178 4863 
L 1178 4134 
L 603 4134 
L 603 4863 
z
" transform="scale(0.015625)"/>
       <path id="DejaVuSans-73" d="M 2834 3397 
L 2834 2853 
Q 2591 2978 2328 3040 
Q 2066 3103 1784 3103 
Q 1356 3103 1142 2972 
Q 928 2841 928 2578 
Q 928 2378 1081 2264 
Q 1234 2150 1697 2047 
L 1894 2003 
Q 2506 1872 2764 1633 
Q 3022 1394 3022 966 
Q 3022 478 2636 193 
Q 2250 -91 1575 -91 
Q 1294 -91 989 -36 
Q 684 19 347 128 
L 347 722 
Q 666 556 975 473 
Q 1284 391 1588 391 
Q 1994 391 2212 530 
Q 2431 669 2431 922 
Q 2431 1156 2273 1281 
Q 2116 1406 1581 1522 
L 1381 1569 
Q 847 1681 609 1914 
Q 372 2147 372 2553 
Q 372 3047 722 3315 
Q 1072 3584 1716 3584 
Q 2034 3584 2315 3537 
Q 2597 3491 2834 3397 
z
" transform="scale(0.015625)"/>
       <path id="DejaVuSans-6e" d="M 3513 2113 
L 3513 0 
L 2938 0 
L 2938 2094 
Q 2938 2591 2744 2837 
Q 2550 3084 2163 3084 
Q 1697 3084 1428 2787 
Q 1159 2491 1159 1978 
L 1159 0 
L 581 0 
L 581 3500 
L 1159 3500 
L 1159 2956 
Q 1366 3272 1645 3428 
Q 1925 3584 2291 3584 
Q 2894 3584 3203 3211 
Q 3513 2838 3513 2113 
z
" transform="scale(0.015625)"/>
      </defs>
      <use xlink:href="#DejaVuSans-50"/>
      <use xlink:href="#DejaVuSans-72" x="58.552734"/>
      <use xlink:href="#DejaVuSans-65" x="97.416016"/>
      <use xlink:href="#DejaVuSans-63" x="158.939453"/>
      <use xlink:href="#DejaVuSans-69" x="213.919922"/>
      <use xlink:href="#DejaVuSans-73" x="241.703125"/>
      <use xlink:href="#DejaVuSans-69" x="293.802734"/>
      <use xlink:href="#DejaVuSans-6f" x="321.585938"/>
      <use xlink:href="#DejaVuSans-6e" x="382.767578"/>
     </g>
    </g>
    <g id="line2d_16">
     <path d="M 81.9115 291.73941 
L 99.5115 291.73941 
L 117.1115 291.73941 
" style="fill: none; stroke-dasharray: 7.4,3.2; stroke-dashoffset: 0; stroke: #377eb8; stroke-width: 2"/>
    </g>
    <g id="text_15">
     <!-- Recall -->
     <g transform="translate(131.1915 297.89941) scale(0.176 -0.176)">
      <defs>
       <path id="DejaVuSans-52" d="M 2841 2188 
Q 3044 2119 3236 1894 
Q 3428 1669 3622 1275 
L 4263 0 
L 3584 0 
L 2988 1197 
Q 2756 1666 2539 1819 
Q 2322 1972 1947 1972 
L 1259 1972 
L 1259 0 
L 628 0 
L 628 4666 
L 2053 4666 
Q 2853 4666 3247 4331 
Q 3641 3997 3641 3322 
Q 3641 2881 3436 2590 
Q 3231 2300 2841 2188 
z
M 1259 4147 
L 1259 2491 
L 2053 2491 
Q 2509 2491 2742 2702 
Q 2975 2913 2975 3322 
Q 2975 3731 2742 3939 
Q 2509 4147 2053 4147 
L 1259 4147 
z
" transform="scale(0.015625)"/>
       <path id="DejaVuSans-6c" d="M 603 4863 
L 1178 4863 
L 1178 0 
L 603 0 
L 603 4863 
z
" transform="scale(0.015625)"/>
      </defs>
      <use xlink:href="#DejaVuSans-52"/>
      <use xlink:href="#DejaVuSans-65" x="64.982422"/>
      <use xlink:href="#DejaVuSans-63" x="126.505859"/>
      <use xlink:href="#DejaVuSans-61" x="181.486328"/>
      <use xlink:href="#DejaVuSans-6c" x="242.765625"/>
      <use xlink:href="#DejaVuSans-6c" x="270.548828"/>
     </g>
    </g>
    <g id="line2d_17">
     <path d="M 81.9115 317.57291 
L 99.5115 317.57291 
L 117.1115 317.57291 
" style="fill: none; stroke: #984ea3; stroke-width: 3; stroke-linecap: square"/>
    </g>
    <g id="text_16">
     <!-- F1 -->
     <g transform="translate(131.1915 323.73291) scale(0.176 -0.176)">
      <defs>
       <path id="DejaVuSans-46" d="M 628 4666 
L 3309 4666 
L 3309 4134 
L 1259 4134 
L 1259 2759 
L 3109 2759 
L 3109 2228 
L 1259 2228 
L 1259 0 
L 628 0 
L 628 4666 
z
" transform="scale(0.015625)"/>
      </defs>
      <use xlink:href="#DejaVuSans-46"/>
      <use xlink:href="#DejaVuSans-31" x="57.519531"/>
     </g>
    </g>
   </g>
  </g>
 </g>
 <defs>
  <clipPath id="p544581f7fd">
   <rect x="66.0715" y="10.59316" width="334.8" height="332.64"/>
  </clipPath>
 </defs>
</svg>
