<?xml version="1.0" encoding="utf-8" standalone="no"?>
<!DOCTYPE svg PUBLIC "-//W3C//DTD SVG 1.1//EN"
  "http://www.w3.org/Graphics/SVG/1.1/DTD/svg11.dtd">
<svg xmlns:xlink="http://www.w3.org/1999/xlink" width="408.0715pt" height="398.34866pt" viewBox="0 0 408.0715 398.34866" xmlns="http://www.w3.org/2000/svg" version="1.1">
 <metadata>
  <rdf:RDF xmlns:dc="http://purl.org/dc/elements/1.1/" xmlns:cc="http://creativecommons.org/ns#" xmlns:rdf="http://www.w3.org/1999/02/22-rdf-syntax-ns#">
   <cc:Work>
    <dc:type rdf:resource="http://purl.org/dc/dcmitype/StillImage"/>
    <dc:date>2024-09-30T11:38:53.455362</dc:date>
    <dc:format>image/svg+xml</dc:format>
    <dc:creator>
     <cc:Agent>
      <dc:title>Matplotlib v3.8.0, https://matplotlib.org/</dc:title>
     </cc:Agent>
    </dc:creator>
   </cc:Work>
  </rdf:RDF>
 </metadata>
 <defs>
  <style type="text/css">*{stroke-linejoin: round; stroke-linecap: butt}</style>
 </defs>
 <g id="figure_1">
  <g id="patch_1">
   <path d="M 0 398.34866 
L 408.0715 398.34866 
L 408.0715 0 
L 0 0 
z
" style="fill: #ffffff"/>
  </g>
  <g id="axes_1">
   <g id="patch_2">
    <path d="M 66.0715 343.23316 
L 400.8715 343.23316 
L 400.8715 10.59316 
L 66.0715 10.59316 
z
" style="fill: #ffffff"/>
   </g>
   <g id="PolyCollection_1"/>
   <g id="PolyCollection_2"/>
   <g id="PolyCollection_3"/>
   <g id="PolyCollection_4">
    <defs>
     <path id="m125c535efa" d="M 67.284543 -387.7555 
L 67.284543 -55.1155 
L 73.349761 -55.1155 
L 73.349761 -387.7555 
L 73.349761 -387.7555 
L 67.284543 -387.7555 
z
"/>
    </defs>
    <g clip-path="url(#p26b835a164)">
     <use xlink:href="#m125c535efa" x="0" y="398.34866" style="fill: #1b9e77; fill-opacity: 0.2"/>
    </g>
   </g>
   <g id="PolyCollection_5">
    <defs>
     <path id="m0db26d05ad" d="M 73.349761 -387.7555 
L 73.349761 -55.1155 
L 79.414978 -55.1155 
L 79.414978 -387.7555 
L 79.414978 -387.7555 
L 73.349761 -387.7555 
z
"/>
    </defs>
    <g clip-path="url(#p26b835a164)">
     <use xlink:href="#m0db26d05ad" x="0" y="398.34866" style="fill: #d95f02; fill-opacity: 0.2"/>
    </g>
   </g>
   <g id="PolyCollection_6">
    <defs>
     <path id="m2ba38196fa" d="M 79.414978 -387.7555 
L 79.414978 -55.1155 
L 85.480196 -55.1155 
L 85.480196 -387.7555 
L 85.480196 -387.7555 
L 79.414978 -387.7555 
z
"/>
    </defs>
    <g clip-path="url(#p26b835a164)">
     <use xlink:href="#m2ba38196fa" x="0" y="398.34866" style="fill: #1b9e77; fill-opacity: 0.2"/>
    </g>
   </g>
   <g id="PolyCollection_7">
    <defs>
     <path id="m5886b32c86" d="M 85.480196 -387.7555 
L 85.480196 -55.1155 
L 91.545413 -55.1155 
L 91.545413 -387.7555 
L 91.545413 -387.7555 
L 85.480196 -387.7555 
z
"/>
    </defs>
    <g clip-path="url(#p26b835a164)">
     <use xlink:href="#m5886b32c86" x="0" y="398.34866" style="fill: #1b9e77; fill-opacity: 0.2"/>
    </g>
   </g>
   <g id="PolyCollection_8">
    <defs>
     <path id="mf310302326" d="M 91.545413 -387.7555 
L 91.545413 -55.1155 
L 97.61063 -55.1155 
L 97.61063 -387.7555 
L 97.61063 -387.7555 
L 91.545413 -387.7555 
z
"/>
    </defs>
    <g clip-path="url(#p26b835a164)">
     <use xlink:href="#mf310302326" x="0" y="398.34866" style="fill: #1b9e77; fill-opacity: 0.2"/>
    </g>
   </g>
   <g id="PolyCollection_9">
    <defs>
     <path id="m967a87be0a" d="M 97.61063 -387.7555 
L 97.61063 -55.1155 
L 103.675848 -55.1155 
L 103.675848 -387.7555 
L 103.675848 -387.7555 
L 97.61063 -387.7555 
z
"/>
    </defs>
    <g clip-path="url(#p26b835a164)">
     <use xlink:href="#m967a87be0a" x="0" y="398.34866" style="fill: #1b9e77; fill-opacity: 0.2"/>
    </g>
   </g>
   <g id="PolyCollection_10">
    <defs>
     <path id="md2ce9dbd02" d="M 103.675848 -387.7555 
L 103.675848 -55.1155 
L 109.741065 -55.1155 
L 109.741065 -387.7555 
L 109.741065 -387.7555 
L 103.675848 -387.7555 
z
"/>
    </defs>
    <g clip-path="url(#p26b835a164)">
     <use xlink:href="#md2ce9dbd02" x="0" y="398.34866" style="fill: #1b9e77; fill-opacity: 0.2"/>
    </g>
   </g>
   <g id="PolyCollection_11">
    <defs>
     <path id="m92b02742d8" d="M 109.741065 -387.7555 
L 109.741065 -55.1155 
L 115.806283 -55.1155 
L 115.806283 -387.7555 
L 115.806283 -387.7555 
L 109.741065 -387.7555 
z
"/>
    </defs>
    <g clip-path="url(#p26b835a164)">
     <use xlink:href="#m92b02742d8" x="0" y="398.34866" style="fill: #d95f02; fill-opacity: 0.2"/>
    </g>
   </g>
   <g id="PolyCollection_12">
    <defs>
     <path id="m74fc6132f7" d="M 115.806283 -387.7555 
L 115.806283 -55.1155 
L 121.8715 -55.1155 
L 121.8715 -387.7555 
L 121.8715 -387.7555 
L 115.806283 -387.7555 
z
"/>
    </defs>
    <g clip-path="url(#p26b835a164)">
     <use xlink:href="#m74fc6132f7" x="0" y="398.34866" style="fill: #d95f02; fill-opacity: 0.2"/>
    </g>
   </g>
   <g id="PolyCollection_13">
    <defs>
     <path id="m2de19ee524" d="M 121.8715 -387.7555 
L 121.8715 -55.1155 
L 127.936717 -55.1155 
L 127.936717 -387.7555 
L 127.936717 -387.7555 
L 121.8715 -387.7555 
z
"/>
    </defs>
    <g clip-path="url(#p26b835a164)">
     <use xlink:href="#m2de19ee524" x="0" y="398.34866" style="fill: #d95f02; fill-opacity: 0.2"/>
    </g>
   </g>
   <g id="PolyCollection_14">
    <defs>
     <path id="mca93525cfc" d="M 127.936717 -387.7555 
L 127.936717 -55.1155 
L 134.001935 -55.1155 
L 134.001935 -387.7555 
L 134.001935 -387.7555 
L 127.936717 -387.7555 
z
"/>
    </defs>
    <g clip-path="url(#p26b835a164)">
     <use xlink:href="#mca93525cfc" x="0" y="398.34866" style="fill: #d95f02; fill-opacity: 0.2"/>
    </g>
   </g>
   <g id="PolyCollection_15">
    <defs>
     <path id="mbb72c97d13" d="M 134.001935 -387.7555 
L 134.001935 -55.1155 
L 140.067152 -55.1155 
L 140.067152 -387.7555 
L 140.067152 -387.7555 
L 134.001935 -387.7555 
z
"/>
    </defs>
    <g clip-path="url(#p26b835a164)">
     <use xlink:href="#mbb72c97d13" x="0" y="398.34866" style="fill: #1b9e77; fill-opacity: 0.2"/>
    </g>
   </g>
   <g id="PolyCollection_16">
    <defs>
     <path id="mdb182c089e" d="M 140.067152 -387.7555 
L 140.067152 -55.1155 
L 146.13237 -55.1155 
L 146.13237 -387.7555 
L 146.13237 -387.7555 
L 140.067152 -387.7555 
z
"/>
    </defs>
    <g clip-path="url(#p26b835a164)">
     <use xlink:href="#mdb182c089e" x="0" y="398.34866" style="fill: #d95f02; fill-opacity: 0.2"/>
    </g>
   </g>
   <g id="PolyCollection_17">
    <defs>
     <path id="m79dd6dcca5" d="M 146.13237 -387.7555 
L 146.13237 -55.1155 
L 152.197587 -55.1155 
L 152.197587 -387.7555 
L 152.197587 -387.7555 
L 146.13237 -387.7555 
z
"/>
    </defs>
    <g clip-path="url(#p26b835a164)">
     <use xlink:href="#m79dd6dcca5" x="0" y="398.34866" style="fill: #d95f02; fill-opacity: 0.2"/>
    </g>
   </g>
   <g id="PolyCollection_18">
    <defs>
     <path id="m2414cd197d" d="M 152.197587 -387.7555 
L 152.197587 -55.1155 
L 158.262804 -55.1155 
L 158.262804 -387.7555 
L 158.262804 -387.7555 
L 152.197587 -387.7555 
z
"/>
    </defs>
    <g clip-path="url(#p26b835a164)">
     <use xlink:href="#m2414cd197d" x="0" y="398.34866" style="fill: #1b9e77; fill-opacity: 0.2"/>
    </g>
   </g>
   <g id="PolyCollection_19">
    <defs>
     <path id="mfc741805cf" d="M 158.262804 -387.7555 
L 158.262804 -55.1155 
L 164.328022 -55.1155 
L 164.328022 -387.7555 
L 164.328022 -387.7555 
L 158.262804 -387.7555 
z
"/>
    </defs>
    <g clip-path="url(#p26b835a164)">
     <use xlink:href="#mfc741805cf" x="0" y="398.34866" style="fill: #1b9e77; fill-opacity: 0.2"/>
    </g>
   </g>
   <g id="PolyCollection_20">
    <defs>
     <path id="m7f5e31c6b8" d="M 164.328022 -387.7555 
L 164.328022 -55.1155 
L 170.393239 -55.1155 
L 170.393239 -387.7555 
L 170.393239 -387.7555 
L 164.328022 -387.7555 
z
"/>
    </defs>
    <g clip-path="url(#p26b835a164)">
     <use xlink:href="#m7f5e31c6b8" x="0" y="398.34866" style="fill: #d95f02; fill-opacity: 0.2"/>
    </g>
   </g>
   <g id="PolyCollection_21">
    <defs>
     <path id="m097ade29cd" d="M 170.393239 -387.7555 
L 170.393239 -55.1155 
L 176.458457 -55.1155 
L 176.458457 -387.7555 
L 176.458457 -387.7555 
L 170.393239 -387.7555 
z
"/>
    </defs>
    <g clip-path="url(#p26b835a164)">
     <use xlink:href="#m097ade29cd" x="0" y="398.34866" style="fill: #d95f02; fill-opacity: 0.2"/>
    </g>
   </g>
   <g id="PolyCollection_22">
    <defs>
     <path id="md6e3d1d1fb" d="M 176.458457 -387.7555 
L 176.458457 -55.1155 
L 182.523674 -55.1155 
L 182.523674 -387.7555 
L 182.523674 -387.7555 
L 176.458457 -387.7555 
z
"/>
    </defs>
    <g clip-path="url(#p26b835a164)">
     <use xlink:href="#md6e3d1d1fb" x="0" y="398.34866" style="fill: #1b9e77; fill-opacity: 0.2"/>
    </g>
   </g>
   <g id="PolyCollection_23">
    <defs>
     <path id="m52731fd539" d="M 182.523674 -387.7555 
L 182.523674 -55.1155 
L 188.588891 -55.1155 
L 188.588891 -387.7555 
L 188.588891 -387.7555 
L 182.523674 -387.7555 
z
"/>
    </defs>
    <g clip-path="url(#p26b835a164)">
     <use xlink:href="#m52731fd539" x="0" y="398.34866" style="fill: #1b9e77; fill-opacity: 0.2"/>
    </g>
   </g>
   <g id="PolyCollection_24">
    <defs>
     <path id="m6a19b425e9" d="M 188.588891 -387.7555 
L 188.588891 -55.1155 
L 194.654109 -55.1155 
L 194.654109 -387.7555 
L 194.654109 -387.7555 
L 188.588891 -387.7555 
z
"/>
    </defs>
    <g clip-path="url(#p26b835a164)">
     <use xlink:href="#m6a19b425e9" x="0" y="398.34866" style="fill: #d95f02; fill-opacity: 0.2"/>
    </g>
   </g>
   <g id="PolyCollection_25">
    <defs>
     <path id="m41bd3b7b0b" d="M 194.654109 -387.7555 
L 194.654109 -55.1155 
L 200.719326 -55.1155 
L 200.719326 -387.7555 
L 200.719326 -387.7555 
L 194.654109 -387.7555 
z
"/>
    </defs>
    <g clip-path="url(#p26b835a164)">
     <use xlink:href="#m41bd3b7b0b" x="0" y="398.34866" style="fill: #1b9e77; fill-opacity: 0.2"/>
    </g>
   </g>
   <g id="PolyCollection_26">
    <defs>
     <path id="mcdfc81c4ba" d="M 200.719326 -387.7555 
L 200.719326 -55.1155 
L 206.784543 -55.1155 
L 206.784543 -387.7555 
L 206.784543 -387.7555 
L 200.719326 -387.7555 
z
"/>
    </defs>
    <g clip-path="url(#p26b835a164)">
     <use xlink:href="#mcdfc81c4ba" x="0" y="398.34866" style="fill: #d95f02; fill-opacity: 0.2"/>
    </g>
   </g>
   <g id="PolyCollection_27">
    <defs>
     <path id="m4366017fd3" d="M 206.784543 -387.7555 
L 206.784543 -55.1155 
L 212.849761 -55.1155 
L 212.849761 -387.7555 
L 212.849761 -387.7555 
L 206.784543 -387.7555 
z
"/>
    </defs>
    <g clip-path="url(#p26b835a164)">
     <use xlink:href="#m4366017fd3" x="0" y="398.34866" style="fill: #d95f02; fill-opacity: 0.2"/>
    </g>
   </g>
   <g id="PolyCollection_28">
    <defs>
     <path id="m542541a7ce" d="M 212.849761 -387.7555 
L 212.849761 -55.1155 
L 218.914978 -55.1155 
L 218.914978 -387.7555 
L 218.914978 -387.7555 
L 212.849761 -387.7555 
z
"/>
    </defs>
    <g clip-path="url(#p26b835a164)">
     <use xlink:href="#m542541a7ce" x="0" y="398.34866" style="fill: #d95f02; fill-opacity: 0.2"/>
    </g>
   </g>
   <g id="PolyCollection_29">
    <defs>
     <path id="med6524f2fb" d="M 218.914978 -387.7555 
L 218.914978 -55.1155 
L 224.980196 -55.1155 
L 224.980196 -387.7555 
L 224.980196 -387.7555 
L 218.914978 -387.7555 
z
"/>
    </defs>
    <g clip-path="url(#p26b835a164)">
     <use xlink:href="#med6524f2fb" x="0" y="398.34866" style="fill: #d95f02; fill-opacity: 0.2"/>
    </g>
   </g>
   <g id="PolyCollection_30">
    <defs>
     <path id="m2f2c8779f8" d="M 224.980196 -387.7555 
L 224.980196 -55.1155 
L 231.045413 -55.1155 
L 231.045413 -387.7555 
L 231.045413 -387.7555 
L 224.980196 -387.7555 
z
"/>
    </defs>
    <g clip-path="url(#p26b835a164)">
     <use xlink:href="#m2f2c8779f8" x="0" y="398.34866" style="fill: #1b9e77; fill-opacity: 0.2"/>
    </g>
   </g>
   <g id="PolyCollection_31">
    <defs>
     <path id="mcf1881fe86" d="M 231.045413 -387.7555 
L 231.045413 -55.1155 
L 237.11063 -55.1155 
L 237.11063 -387.7555 
L 237.11063 -387.7555 
L 231.045413 -387.7555 
z
"/>
    </defs>
    <g clip-path="url(#p26b835a164)">
     <use xlink:href="#mcf1881fe86" x="0" y="398.34866" style="fill: #d95f02; fill-opacity: 0.2"/>
    </g>
   </g>
   <g id="PolyCollection_32">
    <defs>
     <path id="m0a93203564" d="M 237.11063 -387.7555 
L 237.11063 -55.1155 
L 243.175848 -55.1155 
L 243.175848 -387.7555 
L 243.175848 -387.7555 
L 237.11063 -387.7555 
z
"/>
    </defs>
    <g clip-path="url(#p26b835a164)">
     <use xlink:href="#m0a93203564" x="0" y="398.34866" style="fill: #d95f02; fill-opacity: 0.2"/>
    </g>
   </g>
   <g id="PolyCollection_33">
    <defs>
     <path id="m591b5ea6e4" d="M 243.175848 -387.7555 
L 243.175848 -55.1155 
L 249.241065 -55.1155 
L 249.241065 -387.7555 
L 249.241065 -387.7555 
L 243.175848 -387.7555 
z
"/>
    </defs>
    <g clip-path="url(#p26b835a164)">
     <use xlink:href="#m591b5ea6e4" x="0" y="398.34866" style="fill: #d95f02; fill-opacity: 0.2"/>
    </g>
   </g>
   <g id="PolyCollection_34">
    <defs>
     <path id="mdf3658cf73" d="M 249.241065 -387.7555 
L 249.241065 -55.1155 
L 255.306283 -55.1155 
L 255.306283 -387.7555 
L 255.306283 -387.7555 
L 249.241065 -387.7555 
z
"/>
    </defs>
    <g clip-path="url(#p26b835a164)">
     <use xlink:href="#mdf3658cf73" x="0" y="398.34866" style="fill: #d95f02; fill-opacity: 0.2"/>
    </g>
   </g>
   <g id="PolyCollection_35">
    <defs>
     <path id="mc8cab24adf" d="M 255.306283 -387.7555 
L 255.306283 -55.1155 
L 261.3715 -55.1155 
L 261.3715 -387.7555 
L 261.3715 -387.7555 
L 255.306283 -387.7555 
z
"/>
    </defs>
    <g clip-path="url(#p26b835a164)">
     <use xlink:href="#mc8cab24adf" x="0" y="398.34866" style="fill: #d95f02; fill-opacity: 0.2"/>
    </g>
   </g>
   <g id="PolyCollection_36">
    <defs>
     <path id="m0bed3e35ae" d="M 261.3715 -387.7555 
L 261.3715 -55.1155 
L 267.436717 -55.1155 
L 267.436717 -387.7555 
L 267.436717 -387.7555 
L 261.3715 -387.7555 
z
"/>
    </defs>
    <g clip-path="url(#p26b835a164)">
     <use xlink:href="#m0bed3e35ae" x="0" y="398.34866" style="fill: #d95f02; fill-opacity: 0.2"/>
    </g>
   </g>
   <g id="PolyCollection_37">
    <defs>
     <path id="mc6f6539e8f" d="M 267.436717 -387.7555 
L 267.436717 -55.1155 
L 273.501935 -55.1155 
L 273.501935 -387.7555 
L 273.501935 -387.7555 
L 267.436717 -387.7555 
z
"/>
    </defs>
    <g clip-path="url(#p26b835a164)">
     <use xlink:href="#mc6f6539e8f" x="0" y="398.34866" style="fill: #d95f02; fill-opacity: 0.2"/>
    </g>
   </g>
   <g id="PolyCollection_38">
    <defs>
     <path id="m96a476ceb2" d="M 273.501935 -387.7555 
L 273.501935 -55.1155 
L 279.567152 -55.1155 
L 279.567152 -387.7555 
L 279.567152 -387.7555 
L 273.501935 -387.7555 
z
"/>
    </defs>
    <g clip-path="url(#p26b835a164)">
     <use xlink:href="#m96a476ceb2" x="0" y="398.34866" style="fill: #d95f02; fill-opacity: 0.2"/>
    </g>
   </g>
   <g id="PolyCollection_39">
    <defs>
     <path id="mb4acc01fca" d="M 279.567152 -387.7555 
L 279.567152 -55.1155 
L 285.63237 -55.1155 
L 285.63237 -387.7555 
L 285.63237 -387.7555 
L 279.567152 -387.7555 
z
"/>
    </defs>
    <g clip-path="url(#p26b835a164)">
     <use xlink:href="#mb4acc01fca" x="0" y="398.34866" style="fill: #d95f02; fill-opacity: 0.2"/>
    </g>
   </g>
   <g id="PolyCollection_40">
    <defs>
     <path id="m5384c98503" d="M 285.63237 -387.7555 
L 285.63237 -55.1155 
L 291.697587 -55.1155 
L 291.697587 -387.7555 
L 291.697587 -387.7555 
L 285.63237 -387.7555 
z
"/>
    </defs>
    <g clip-path="url(#p26b835a164)">
     <use xlink:href="#m5384c98503" x="0" y="398.34866" style="fill: #d95f02; fill-opacity: 0.2"/>
    </g>
   </g>
   <g id="PolyCollection_41">
    <defs>
     <path id="m760b5ca636" d="M 291.697587 -387.7555 
L 291.697587 -55.1155 
L 297.762804 -55.1155 
L 297.762804 -387.7555 
L 297.762804 -387.7555 
L 291.697587 -387.7555 
z
"/>
    </defs>
    <g clip-path="url(#p26b835a164)">
     <use xlink:href="#m760b5ca636" x="0" y="398.34866" style="fill: #1b9e77; fill-opacity: 0.2"/>
    </g>
   </g>
   <g id="PolyCollection_42">
    <defs>
     <path id="m84e1587e74" d="M 297.762804 -387.7555 
L 297.762804 -55.1155 
L 303.828022 -55.1155 
L 303.828022 -387.7555 
L 303.828022 -387.7555 
L 297.762804 -387.7555 
z
"/>
    </defs>
    <g clip-path="url(#p26b835a164)">
     <use xlink:href="#m84e1587e74" x="0" y="398.34866" style="fill: #d95f02; fill-opacity: 0.2"/>
    </g>
   </g>
   <g id="PolyCollection_43">
    <defs>
     <path id="m65bd768661" d="M 303.828022 -387.7555 
L 303.828022 -55.1155 
L 309.893239 -55.1155 
L 309.893239 -387.7555 
L 309.893239 -387.7555 
L 303.828022 -387.7555 
z
"/>
    </defs>
    <g clip-path="url(#p26b835a164)">
     <use xlink:href="#m65bd768661" x="0" y="398.34866" style="fill: #d95f02; fill-opacity: 0.2"/>
    </g>
   </g>
   <g id="PolyCollection_44">
    <defs>
     <path id="m89fb7e7c5c" d="M 309.893239 -387.7555 
L 309.893239 -55.1155 
L 315.958457 -55.1155 
L 315.958457 -387.7555 
L 315.958457 -387.7555 
L 309.893239 -387.7555 
z
"/>
    </defs>
    <g clip-path="url(#p26b835a164)">
     <use xlink:href="#m89fb7e7c5c" x="0" y="398.34866" style="fill: #d95f02; fill-opacity: 0.2"/>
    </g>
   </g>
   <g id="PolyCollection_45">
    <defs>
     <path id="m3e206f6039" d="M 315.958457 -387.7555 
L 315.958457 -55.1155 
L 322.023674 -55.1155 
L 322.023674 -387.7555 
L 322.023674 -387.7555 
L 315.958457 -387.7555 
z
"/>
    </defs>
    <g clip-path="url(#p26b835a164)">
     <use xlink:href="#m3e206f6039" x="0" y="398.34866" style="fill: #d95f02; fill-opacity: 0.2"/>
    </g>
   </g>
   <g id="PolyCollection_46">
    <defs>
     <path id="mc9c75d88b0" d="M 322.023674 -387.7555 
L 322.023674 -55.1155 
L 328.088891 -55.1155 
L 328.088891 -387.7555 
L 328.088891 -387.7555 
L 322.023674 -387.7555 
z
"/>
    </defs>
    <g clip-path="url(#p26b835a164)">
     <use xlink:href="#mc9c75d88b0" x="0" y="398.34866" style="fill: #d95f02; fill-opacity: 0.2"/>
    </g>
   </g>
   <g id="PolyCollection_47">
    <defs>
     <path id="m86f5dfa4b3" d="M 328.088891 -387.7555 
L 328.088891 -55.1155 
L 334.154109 -55.1155 
L 334.154109 -387.7555 
L 334.154109 -387.7555 
L 328.088891 -387.7555 
z
"/>
    </defs>
    <g clip-path="url(#p26b835a164)">
     <use xlink:href="#m86f5dfa4b3" x="0" y="398.34866" style="fill: #d95f02; fill-opacity: 0.2"/>
    </g>
   </g>
   <g id="PolyCollection_48">
    <defs>
     <path id="mb47d26176c" d="M 334.154109 -387.7555 
L 334.154109 -55.1155 
L 340.219326 -55.1155 
L 340.219326 -387.7555 
L 340.219326 -387.7555 
L 334.154109 -387.7555 
z
"/>
    </defs>
    <g clip-path="url(#p26b835a164)">
     <use xlink:href="#mb47d26176c" x="0" y="398.34866" style="fill: #d95f02; fill-opacity: 0.2"/>
    </g>
   </g>
   <g id="PolyCollection_49">
    <defs>
     <path id="mf32b627f5d" d="M 340.219326 -387.7555 
L 340.219326 -55.1155 
L 346.284543 -55.1155 
L 346.284543 -387.7555 
L 346.284543 -387.7555 
L 340.219326 -387.7555 
z
"/>
    </defs>
    <g clip-path="url(#p26b835a164)">
     <use xlink:href="#mf32b627f5d" x="0" y="398.34866" style="fill: #d95f02; fill-opacity: 0.2"/>
    </g>
   </g>
   <g id="PolyCollection_50">
    <defs>
     <path id="m5d59e32ee5" d="M 346.284543 -387.7555 
L 346.284543 -55.1155 
L 352.349761 -55.1155 
L 352.349761 -387.7555 
L 352.349761 -387.7555 
L 346.284543 -387.7555 
z
"/>
    </defs>
    <g clip-path="url(#p26b835a164)">
     <use xlink:href="#m5d59e32ee5" x="0" y="398.34866" style="fill: #1b9e77; fill-opacity: 0.2"/>
    </g>
   </g>
   <g id="PolyCollection_51">
    <defs>
     <path id="m27c8700c24" d="M 352.349761 -387.7555 
L 352.349761 -55.1155 
L 358.414978 -55.1155 
L 358.414978 -387.7555 
L 358.414978 -387.7555 
L 352.349761 -387.7555 
z
"/>
    </defs>
    <g clip-path="url(#p26b835a164)">
     <use xlink:href="#m27c8700c24" x="0" y="398.34866" style="fill: #d95f02; fill-opacity: 0.2"/>
    </g>
   </g>
   <g id="PolyCollection_52">
    <defs>
     <path id="m773d3b2065" d="M 358.414978 -387.7555 
L 358.414978 -55.1155 
L 364.480196 -55.1155 
L 364.480196 -387.7555 
L 364.480196 -387.7555 
L 358.414978 -387.7555 
z
"/>
    </defs>
    <g clip-path="url(#p26b835a164)">
     <use xlink:href="#m773d3b2065" x="0" y="398.34866" style="fill: #1b9e77; fill-opacity: 0.2"/>
    </g>
   </g>
   <g id="PolyCollection_53">
    <defs>
     <path id="mc26898283b" d="M 364.480196 -387.7555 
L 364.480196 -55.1155 
L 370.545413 -55.1155 
L 370.545413 -387.7555 
L 370.545413 -387.7555 
L 364.480196 -387.7555 
z
"/>
    </defs>
    <g clip-path="url(#p26b835a164)">
     <use xlink:href="#mc26898283b" x="0" y="398.34866" style="fill: #d95f02; fill-opacity: 0.2"/>
    </g>
   </g>
   <g id="PolyCollection_54">
    <defs>
     <path id="m8600778482" d="M 370.545413 -387.7555 
L 370.545413 -55.1155 
L 376.61063 -55.1155 
L 376.61063 -387.7555 
L 376.61063 -387.7555 
L 370.545413 -387.7555 
z
"/>
    </defs>
    <g clip-path="url(#p26b835a164)">
     <use xlink:href="#m8600778482" x="0" y="398.34866" style="fill: #1b9e77; fill-opacity: 0.2"/>
    </g>
   </g>
   <g id="PolyCollection_55">
    <defs>
     <path id="maf67296dd6" d="M 376.61063 -387.7555 
L 376.61063 -55.1155 
L 382.675848 -55.1155 
L 382.675848 -387.7555 
L 382.675848 -387.7555 
L 376.61063 -387.7555 
z
"/>
    </defs>
    <g clip-path="url(#p26b835a164)">
     <use xlink:href="#maf67296dd6" x="0" y="398.34866" style="fill: #d95f02; fill-opacity: 0.2"/>
    </g>
   </g>
   <g id="PolyCollection_56">
    <defs>
     <path id="ma92e470fc0" d="M 382.675848 -387.7555 
L 382.675848 -55.1155 
L 388.741065 -55.1155 
L 388.741065 -387.7555 
L 388.741065 -387.7555 
L 382.675848 -387.7555 
z
"/>
    </defs>
    <g clip-path="url(#p26b835a164)">
     <use xlink:href="#ma92e470fc0" x="0" y="398.34866" style="fill: #1b9e77; fill-opacity: 0.2"/>
    </g>
   </g>
   <g id="PolyCollection_57">
    <defs>
     <path id="mdbbf414706" d="M 388.741065 -387.7555 
L 388.741065 -55.1155 
L 394.806283 -55.1155 
L 394.806283 -387.7555 
L 394.806283 -387.7555 
L 388.741065 -387.7555 
z
"/>
    </defs>
    <g clip-path="url(#p26b835a164)">
     <use xlink:href="#mdbbf414706" x="0" y="398.34866" style="fill: #1b9e77; fill-opacity: 0.2"/>
    </g>
   </g>
   <g id="PolyCollection_58">
    <defs>
     <path id="me27ebbd8e9" d="M 394.806283 -387.7555 
L 394.806283 -55.1155 
L 400.8715 -55.1155 
L 400.8715 -387.7555 
L 400.8715 -387.7555 
L 394.806283 -387.7555 
z
"/>
    </defs>
    <g clip-path="url(#p26b835a164)">
     <use xlink:href="#me27ebbd8e9" x="0" y="398.34866" style="fill: #d95f02; fill-opacity: 0.2"/>
    </g>
   </g>
   <g id="PolyCollection_59">
    <defs>
     <path id="m95248ff65e" d="M 400.8715 -387.7555 
L 400.8715 -55.1155 
L 406.936717 -55.1155 
L 406.936717 -387.7555 
L 406.936717 -387.7555 
L 400.8715 -387.7555 
z
"/>
    </defs>
    <g clip-path="url(#p26b835a164)">
     <use xlink:href="#m95248ff65e" x="0" y="398.34866" style="fill: #1b9e77; fill-opacity: 0.2"/>
    </g>
   </g>
   <g id="PolyCollection_60">
    <defs>
     <path id="m0169e6d74f" d="M 406.936717 -387.7555 
L 406.936717 -55.1155 
L 413.001935 -55.1155 
L 413.001935 -387.7555 
L 413.001935 -387.7555 
L 406.936717 -387.7555 
z
"/>
    </defs>
    <g clip-path="url(#p26b835a164)">
     <use xlink:href="#m0169e6d74f" x="0" y="398.34866" style="fill: #d95f02; fill-opacity: 0.2"/>
    </g>
   </g>
   <g id="PolyCollection_61">
    <defs>
     <path id="m693e94b96b" d="M 413.001935 -387.7555 
L 413.001935 -55.1155 
L 419.067152 -55.1155 
L 419.067152 -387.7555 
L 419.067152 -387.7555 
L 413.001935 -387.7555 
z
"/>
    </defs>
    <g clip-path="url(#p26b835a164)">
     <use xlink:href="#m693e94b96b" x="0" y="398.34866" style="fill: #1b9e77; fill-opacity: 0.2"/>
    </g>
   </g>
   <g id="PolyCollection_62">
    <defs>
     <path id="m7309b5cec9" d="M 419.067152 -387.7555 
L 419.067152 -55.1155 
L 425.13237 -55.1155 
L 425.13237 -387.7555 
L 425.13237 -387.7555 
L 419.067152 -387.7555 
z
"/>
    </defs>
    <g clip-path="url(#p26b835a164)">
     <use xlink:href="#m7309b5cec9" x="0" y="398.34866" style="fill: #d95f02; fill-opacity: 0.2"/>
    </g>
   </g>
   <g id="PolyCollection_63">
    <defs>
     <path id="mb12570ba1d" d="M 425.13237 -387.7555 
L 425.13237 -55.1155 
L 431.197587 -55.1155 
L 431.197587 -387.7555 
L 431.197587 -387.7555 
L 425.13237 -387.7555 
z
"/>
    </defs>
    <g clip-path="url(#p26b835a164)">
     <use xlink:href="#mb12570ba1d" x="0" y="398.34866" style="fill: #d95f02; fill-opacity: 0.2"/>
    </g>
   </g>
   <g id="PolyCollection_64">
    <defs>
     <path id="mcd78a67895" d="M 431.197587 -387.7555 
L 431.197587 -55.1155 
L 437.262804 -55.1155 
L 437.262804 -387.7555 
L 437.262804 -387.7555 
L 431.197587 -387.7555 
z
"/>
    </defs>
    <g clip-path="url(#p26b835a164)">
     <use xlink:href="#mcd78a67895" x="0" y="398.34866" style="fill: #d95f02; fill-opacity: 0.2"/>
    </g>
   </g>
   <g id="PolyCollection_65">
    <defs>
     <path id="m704d50badc" d="M 437.262804 -387.7555 
L 437.262804 -55.1155 
L 443.328022 -55.1155 
L 443.328022 -387.7555 
L 443.328022 -387.7555 
L 437.262804 -387.7555 
z
"/>
    </defs>
    <g clip-path="url(#p26b835a164)">
     <use xlink:href="#m704d50badc" x="0" y="398.34866" style="fill: #1b9e77; fill-opacity: 0.2"/>
    </g>
   </g>
   <g id="PolyCollection_66">
    <defs>
     <path id="me4c163d300" d="M 443.328022 -387.7555 
L 443.328022 -55.1155 
L 449.393239 -55.1155 
L 449.393239 -387.7555 
L 449.393239 -387.7555 
L 443.328022 -387.7555 
z
"/>
    </defs>
    <g clip-path="url(#p26b835a164)">
     <use xlink:href="#me4c163d300" x="0" y="398.34866" style="fill: #1b9e77; fill-opacity: 0.2"/>
    </g>
   </g>
   <g id="PolyCollection_67">
    <defs>
     <path id="m906d7e0ba7" d="M 449.393239 -387.7555 
L 449.393239 -55.1155 
L 455.458457 -55.1155 
L 455.458457 -387.7555 
L 455.458457 -387.7555 
L 449.393239 -387.7555 
z
"/>
    </defs>
    <g clip-path="url(#p26b835a164)">
     <use xlink:href="#m906d7e0ba7" x="0" y="398.34866" style="fill: #1b9e77; fill-opacity: 0.2"/>
    </g>
   </g>
   <g id="PolyCollection_68">
    <defs>
     <path id="m7f0847c80e" d="M 455.458457 -387.7555 
L 455.458457 -55.1155 
L 461.523674 -55.1155 
L 461.523674 -387.7555 
L 461.523674 -387.7555 
L 455.458457 -387.7555 
z
"/>
    </defs>
    <g clip-path="url(#p26b835a164)">
     <use xlink:href="#m7f0847c80e" x="0" y="398.34866" style="fill: #d95f02; fill-opacity: 0.2"/>
    </g>
   </g>
   <g id="PolyCollection_69">
    <defs>
     <path id="m804fe95b40" d="M 461.523674 -387.7555 
L 461.523674 -55.1155 
L 467.588891 -55.1155 
L 467.588891 -387.7555 
L 467.588891 -387.7555 
L 461.523674 -387.7555 
z
"/>
    </defs>
    <g clip-path="url(#p26b835a164)">
     <use xlink:href="#m804fe95b40" x="0" y="398.34866" style="fill: #1b9e77; fill-opacity: 0.2"/>
    </g>
   </g>
   <g id="PolyCollection_70">
    <defs>
     <path id="mc24db63a7a" d="M 467.588891 -387.7555 
L 467.588891 -55.1155 
L 473.654109 -55.1155 
L 473.654109 -387.7555 
L 473.654109 -387.7555 
L 467.588891 -387.7555 
z
"/>
    </defs>
    <g clip-path="url(#p26b835a164)">
     <use xlink:href="#mc24db63a7a" x="0" y="398.34866" style="fill: #d95f02; fill-opacity: 0.2"/>
    </g>
   </g>
   <g id="PolyCollection_71">
    <defs>
     <path id="mb6044654a3" d="M 473.654109 -387.7555 
L 473.654109 -55.1155 
L 479.719326 -55.1155 
L 479.719326 -387.7555 
L 479.719326 -387.7555 
L 473.654109 -387.7555 
z
"/>
    </defs>
    <g clip-path="url(#p26b835a164)">
     <use xlink:href="#mb6044654a3" x="0" y="398.34866" style="fill: #d95f02; fill-opacity: 0.2"/>
    </g>
   </g>
   <g id="PolyCollection_72">
    <defs>
     <path id="m0e8f5196c5" d="M 479.719326 -387.7555 
L 479.719326 -55.1155 
L 485.784543 -55.1155 
L 485.784543 -387.7555 
L 485.784543 -387.7555 
L 479.719326 -387.7555 
z
"/>
    </defs>
    <g clip-path="url(#p26b835a164)">
     <use xlink:href="#m0e8f5196c5" x="0" y="398.34866" style="fill: #1b9e77; fill-opacity: 0.2"/>
    </g>
   </g>
   <g id="PolyCollection_73">
    <defs>
     <path id="m10f6df9100" d="M 485.784543 -387.7555 
L 485.784543 -55.1155 
L 491.849761 -55.1155 
L 491.849761 -387.7555 
L 491.849761 -387.7555 
L 485.784543 -387.7555 
z
"/>
    </defs>
    <g clip-path="url(#p26b835a164)">
     <use xlink:href="#m10f6df9100" x="0" y="398.34866" style="fill: #1b9e77; fill-opacity: 0.2"/>
    </g>
   </g>
   <g id="PolyCollection_74">
    <defs>
     <path id="mc3018d3a29" d="M 491.849761 -387.7555 
L 491.849761 -55.1155 
L 497.914978 -55.1155 
L 497.914978 -387.7555 
L 497.914978 -387.7555 
L 491.849761 -387.7555 
z
"/>
    </defs>
    <g clip-path="url(#p26b835a164)">
     <use xlink:href="#mc3018d3a29" x="0" y="398.34866" style="fill: #1b9e77; fill-opacity: 0.2"/>
    </g>
   </g>
   <g id="PolyCollection_75">
    <defs>
     <path id="mf4fc81868f" d="M 497.914978 -387.7555 
L 497.914978 -55.1155 
L 503.980196 -55.1155 
L 503.980196 -387.7555 
L 503.980196 -387.7555 
L 497.914978 -387.7555 
z
"/>
    </defs>
    <g clip-path="url(#p26b835a164)">
     <use xlink:href="#mf4fc81868f" x="0" y="398.34866" style="fill: #1b9e77; fill-opacity: 0.2"/>
    </g>
   </g>
   <g id="PolyCollection_76">
    <defs>
     <path id="m5aed2eb604" d="M 503.980196 -387.7555 
L 503.980196 -55.1155 
L 510.045413 -55.1155 
L 510.045413 -387.7555 
L 510.045413 -387.7555 
L 503.980196 -387.7555 
z
"/>
    </defs>
    <g clip-path="url(#p26b835a164)">
     <use xlink:href="#m5aed2eb604" x="0" y="398.34866" style="fill: #d95f02; fill-opacity: 0.2"/>
    </g>
   </g>
   <g id="PolyCollection_77">
    <defs>
     <path id="m346c778d63" d="M 510.045413 -387.7555 
L 510.045413 -55.1155 
L 516.11063 -55.1155 
L 516.11063 -387.7555 
L 516.11063 -387.7555 
L 510.045413 -387.7555 
z
"/>
    </defs>
    <g clip-path="url(#p26b835a164)">
     <use xlink:href="#m346c778d63" x="0" y="398.34866" style="fill: #d95f02; fill-opacity: 0.2"/>
    </g>
   </g>
   <g id="PolyCollection_78">
    <defs>
     <path id="md33d9fcd2d" d="M 516.11063 -387.7555 
L 516.11063 -55.1155 
L 522.175848 -55.1155 
L 522.175848 -387.7555 
L 522.175848 -387.7555 
L 516.11063 -387.7555 
z
"/>
    </defs>
    <g clip-path="url(#p26b835a164)">
     <use xlink:href="#md33d9fcd2d" x="0" y="398.34866" style="fill: #1b9e77; fill-opacity: 0.2"/>
    </g>
   </g>
   <g id="PolyCollection_79">
    <defs>
     <path id="m899fd7c380" d="M 522.175848 -387.7555 
L 522.175848 -55.1155 
L 528.241065 -55.1155 
L 528.241065 -387.7555 
L 528.241065 -387.7555 
L 522.175848 -387.7555 
z
"/>
    </defs>
    <g clip-path="url(#p26b835a164)">
     <use xlink:href="#m899fd7c380" x="0" y="398.34866" style="fill: #1b9e77; fill-opacity: 0.2"/>
    </g>
   </g>
   <g id="PolyCollection_80">
    <defs>
     <path id="m396c98fb81" d="M 528.241065 -387.7555 
L 528.241065 -55.1155 
L 534.306283 -55.1155 
L 534.306283 -387.7555 
L 534.306283 -387.7555 
L 528.241065 -387.7555 
z
"/>
    </defs>
    <g clip-path="url(#p26b835a164)">
     <use xlink:href="#m396c98fb81" x="0" y="398.34866" style="fill: #1b9e77; fill-opacity: 0.2"/>
    </g>
   </g>
   <g id="PolyCollection_81">
    <defs>
     <path id="m408c180ed3" d="M 534.306283 -387.7555 
L 534.306283 -55.1155 
L 540.3715 -55.1155 
L 540.3715 -387.7555 
L 540.3715 -387.7555 
L 534.306283 -387.7555 
z
"/>
    </defs>
    <g clip-path="url(#p26b835a164)">
     <use xlink:href="#m408c180ed3" x="0" y="398.34866" style="fill: #1b9e77; fill-opacity: 0.2"/>
    </g>
   </g>
   <g id="PolyCollection_82">
    <defs>
     <path id="m123e4205cf" d="M 540.3715 -387.7555 
L 540.3715 -55.1155 
L 546.436717 -55.1155 
L 546.436717 -387.7555 
L 546.436717 -387.7555 
L 540.3715 -387.7555 
z
"/>
    </defs>
    <g clip-path="url(#p26b835a164)">
     <use xlink:href="#m123e4205cf" x="0" y="398.34866" style="fill: #1b9e77; fill-opacity: 0.2"/>
    </g>
   </g>
   <g id="PolyCollection_83">
    <defs>
     <path id="m11f1dda1e7" d="M 546.436717 -387.7555 
L 546.436717 -55.1155 
L 552.501935 -55.1155 
L 552.501935 -387.7555 
L 552.501935 -387.7555 
L 546.436717 -387.7555 
z
"/>
    </defs>
    <g clip-path="url(#p26b835a164)">
     <use xlink:href="#m11f1dda1e7" x="0" y="398.34866" style="fill: #1b9e77; fill-opacity: 0.2"/>
    </g>
   </g>
   <g id="PolyCollection_84">
    <defs>
     <path id="mb2368b974c" d="M 552.501935 -387.7555 
L 552.501935 -55.1155 
L 558.567152 -55.1155 
L 558.567152 -387.7555 
L 558.567152 -387.7555 
L 552.501935 -387.7555 
z
"/>
    </defs>
    <g clip-path="url(#p26b835a164)">
     <use xlink:href="#mb2368b974c" x="0" y="398.34866" style="fill: #1b9e77; fill-opacity: 0.2"/>
    </g>
   </g>
   <g id="PolyCollection_85">
    <defs>
     <path id="m382cadb586" d="M 558.567152 -387.7555 
L 558.567152 -55.1155 
L 564.63237 -55.1155 
L 564.63237 -387.7555 
L 564.63237 -387.7555 
L 558.567152 -387.7555 
z
"/>
    </defs>
    <g clip-path="url(#p26b835a164)">
     <use xlink:href="#m382cadb586" x="0" y="398.34866" style="fill: #d95f02; fill-opacity: 0.2"/>
    </g>
   </g>
   <g id="PolyCollection_86">
    <defs>
     <path id="md9099eaa06" d="M 564.63237 -387.7555 
L 564.63237 -55.1155 
L 570.697587 -55.1155 
L 570.697587 -387.7555 
L 570.697587 -387.7555 
L 564.63237 -387.7555 
z
"/>
    </defs>
    <g clip-path="url(#p26b835a164)">
     <use xlink:href="#md9099eaa06" x="0" y="398.34866" style="fill: #1b9e77; fill-opacity: 0.2"/>
    </g>
   </g>
   <g id="PolyCollection_87">
    <defs>
     <path id="m1c16361780" d="M 570.697587 -387.7555 
L 570.697587 -55.1155 
L 576.762804 -55.1155 
L 576.762804 -387.7555 
L 576.762804 -387.7555 
L 570.697587 -387.7555 
z
"/>
    </defs>
    <g clip-path="url(#p26b835a164)">
     <use xlink:href="#m1c16361780" x="0" y="398.34866" style="fill: #1b9e77; fill-opacity: 0.2"/>
    </g>
   </g>
   <g id="PolyCollection_88">
    <defs>
     <path id="m4c4b790934" d="M 576.762804 -387.7555 
L 576.762804 -55.1155 
L 582.828022 -55.1155 
L 582.828022 -387.7555 
L 582.828022 -387.7555 
L 576.762804 -387.7555 
z
"/>
    </defs>
    <g clip-path="url(#p26b835a164)">
     <use xlink:href="#m4c4b790934" x="0" y="398.34866" style="fill: #1b9e77; fill-opacity: 0.2"/>
    </g>
   </g>
   <g id="PolyCollection_89">
    <defs>
     <path id="m258e30239d" d="M 582.828022 -387.7555 
L 582.828022 -55.1155 
L 588.893239 -55.1155 
L 588.893239 -387.7555 
L 588.893239 -387.7555 
L 582.828022 -387.7555 
z
"/>
    </defs>
    <g clip-path="url(#p26b835a164)">
     <use xlink:href="#m258e30239d" x="0" y="398.34866" style="fill: #1b9e77; fill-opacity: 0.2"/>
    </g>
   </g>
   <g id="PolyCollection_90">
    <defs>
     <path id="m6cbc6f2ea5" d="M 588.893239 -387.7555 
L 588.893239 -55.1155 
L 594.958457 -55.1155 
L 594.958457 -387.7555 
L 594.958457 -387.7555 
L 588.893239 -387.7555 
z
"/>
    </defs>
    <g clip-path="url(#p26b835a164)">
     <use xlink:href="#m6cbc6f2ea5" x="0" y="398.34866" style="fill: #1b9e77; fill-opacity: 0.2"/>
    </g>
   </g>
   <g id="PolyCollection_91">
    <defs>
     <path id="m46d5943d33" d="M 594.958457 -387.7555 
L 594.958457 -55.1155 
L 601.023674 -55.1155 
L 601.023674 -387.7555 
L 601.023674 -387.7555 
L 594.958457 -387.7555 
z
"/>
    </defs>
    <g clip-path="url(#p26b835a164)">
     <use xlink:href="#m46d5943d33" x="0" y="398.34866" style="fill: #d95f02; fill-opacity: 0.2"/>
    </g>
   </g>
   <g id="PolyCollection_92">
    <defs>
     <path id="mac6db5fb78" d="M 601.023674 -387.7555 
L 601.023674 -55.1155 
L 607.088891 -55.1155 
L 607.088891 -387.7555 
L 607.088891 -387.7555 
L 601.023674 -387.7555 
z
"/>
    </defs>
    <g clip-path="url(#p26b835a164)">
     <use xlink:href="#mac6db5fb78" x="0" y="398.34866" style="fill: #1b9e77; fill-opacity: 0.2"/>
    </g>
   </g>
   <g id="matplotlib.axis_1">
    <g id="xtick_1">
     <g id="line2d_1">
      <defs>
       <path id="m5b92e96c64" d="M 0 0 
L 0 4.8 
" style="stroke: #000000"/>
      </defs>
      <g>
       <use xlink:href="#m5b92e96c64" x="67.284543" y="343.23316" style="stroke: #000000"/>
      </g>
     </g>
     <g id="text_1">
      <!-- 0 -->
      <g transform="translate(61.685543 364.90641) scale(0.176 -0.176)">
       <defs>
        <path id="DejaVuSans-30" d="M 2034 4250 
Q 1547 4250 1301 3770 
Q 1056 3291 1056 2328 
Q 1056 1369 1301 889 
Q 1547 409 2034 409 
Q 2525 409 2770 889 
Q 3016 1369 3016 2328 
Q 3016 3291 2770 3770 
Q 2525 4250 2034 4250 
z
M 2034 4750 
Q 2819 4750 3233 4129 
Q 3647 3509 3647 2328 
Q 3647 1150 3233 529 
Q 2819 -91 2034 -91 
Q 1250 -91 836 529 
Q 422 1150 422 2328 
Q 422 3509 836 4129 
Q 1250 4750 2034 4750 
z
" transform="scale(0.015625)"/>
       </defs>
       <use xlink:href="#DejaVuSans-30"/>
      </g>
     </g>
    </g>
    <g id="xtick_2">
     <g id="line2d_2">
      <g>
       <use xlink:href="#m5b92e96c64" x="127.936717" y="343.23316" style="stroke: #000000"/>
      </g>
     </g>
     <g id="text_2">
      <!-- 10 -->
      <g transform="translate(116.738717 364.90641) scale(0.176 -0.176)">
       <defs>
        <path id="DejaVuSans-31" d="M 794 531 
L 1825 531 
L 1825 4091 
L 703 3866 
L 703 4441 
L 1819 4666 
L 2450 4666 
L 2450 531 
L 3481 531 
L 3481 0 
L 794 0 
L 794 531 
z
" transform="scale(0.015625)"/>
       </defs>
       <use xlink:href="#DejaVuSans-31"/>
       <use xlink:href="#DejaVuSans-30" x="63.623047"/>
      </g>
     </g>
    </g>
    <g id="xtick_3">
     <g id="line2d_3">
      <g>
       <use xlink:href="#m5b92e96c64" x="188.588891" y="343.23316" style="stroke: #000000"/>
      </g>
     </g>
     <g id="text_3">
      <!-- 20 -->
      <g transform="translate(177.390891 364.90641) scale(0.176 -0.176)">
       <defs>
        <path id="DejaVuSans-32" d="M 1228 531 
L 3431 531 
L 3431 0 
L 469 0 
L 469 531 
Q 828 903 1448 1529 
Q 2069 2156 2228 2338 
Q 2531 2678 2651 2914 
Q 2772 3150 2772 3378 
Q 2772 3750 2511 3984 
Q 2250 4219 1831 4219 
Q 1534 4219 1204 4116 
Q 875 4013 500 3803 
L 500 4441 
Q 881 4594 1212 4672 
Q 1544 4750 1819 4750 
Q 2544 4750 2975 4387 
Q 3406 4025 3406 3419 
Q 3406 3131 3298 2873 
Q 3191 2616 2906 2266 
Q 2828 2175 2409 1742 
Q 1991 1309 1228 531 
z
" transform="scale(0.015625)"/>
       </defs>
       <use xlink:href="#DejaVuSans-32"/>
       <use xlink:href="#DejaVuSans-30" x="63.623047"/>
      </g>
     </g>
    </g>
    <g id="xtick_4">
     <g id="line2d_4">
      <g>
       <use xlink:href="#m5b92e96c64" x="249.241065" y="343.23316" style="stroke: #000000"/>
      </g>
     </g>
     <g id="text_4">
      <!-- 30 -->
      <g transform="translate(238.043065 364.90641) scale(0.176 -0.176)">
       <defs>
        <path id="DejaVuSans-33" d="M 2597 2516 
Q 3050 2419 3304 2112 
Q 3559 1806 3559 1356 
Q 3559 666 3084 287 
Q 2609 -91 1734 -91 
Q 1441 -91 1130 -33 
Q 819 25 488 141 
L 488 750 
Q 750 597 1062 519 
Q 1375 441 1716 441 
Q 2309 441 2620 675 
Q 2931 909 2931 1356 
Q 2931 1769 2642 2001 
Q 2353 2234 1838 2234 
L 1294 2234 
L 1294 2753 
L 1863 2753 
Q 2328 2753 2575 2939 
Q 2822 3125 2822 3475 
Q 2822 3834 2567 4026 
Q 2313 4219 1838 4219 
Q 1578 4219 1281 4162 
Q 984 4106 628 3988 
L 628 4550 
Q 988 4650 1302 4700 
Q 1616 4750 1894 4750 
Q 2613 4750 3031 4423 
Q 3450 4097 3450 3541 
Q 3450 3153 3228 2886 
Q 3006 2619 2597 2516 
z
" transform="scale(0.015625)"/>
       </defs>
       <use xlink:href="#DejaVuSans-33"/>
       <use xlink:href="#DejaVuSans-30" x="63.623047"/>
      </g>
     </g>
    </g>
    <g id="xtick_5">
     <g id="line2d_5">
      <g>
       <use xlink:href="#m5b92e96c64" x="309.893239" y="343.23316" style="stroke: #000000"/>
      </g>
     </g>
     <g id="text_5">
      <!-- 40 -->
      <g transform="translate(298.695239 364.90641) scale(0.176 -0.176)">
       <defs>
        <path id="DejaVuSans-34" d="M 2419 4116 
L 825 1625 
L 2419 1625 
L 2419 4116 
z
M 2253 4666 
L 3047 4666 
L 3047 1625 
L 3713 1625 
L 3713 1100 
L 3047 1100 
L 3047 0 
L 2419 0 
L 2419 1100 
L 313 1100 
L 313 1709 
L 2253 4666 
z
" transform="scale(0.015625)"/>
       </defs>
       <use xlink:href="#DejaVuSans-34"/>
       <use xlink:href="#DejaVuSans-30" x="63.623047"/>
      </g>
     </g>
    </g>
    <g id="xtick_6">
     <g id="line2d_6">
      <g>
       <use xlink:href="#m5b92e96c64" x="370.545413" y="343.23316" style="stroke: #000000"/>
      </g>
     </g>
     <g id="text_6">
      <!-- 50 -->
      <g transform="translate(359.347413 364.90641) scale(0.176 -0.176)">
       <defs>
        <path id="DejaVuSans-35" d="M 691 4666 
L 3169 4666 
L 3169 4134 
L 1269 4134 
L 1269 2991 
Q 1406 3038 1543 3061 
Q 1681 3084 1819 3084 
Q 2600 3084 3056 2656 
Q 3513 2228 3513 1497 
Q 3513 744 3044 326 
Q 2575 -91 1722 -91 
Q 1428 -91 1123 -41 
Q 819 9 494 109 
L 494 744 
Q 775 591 1075 516 
Q 1375 441 1709 441 
Q 2250 441 2565 725 
Q 2881 1009 2881 1497 
Q 2881 1984 2565 2268 
Q 2250 2553 1709 2553 
Q 1456 2553 1204 2497 
Q 953 2441 691 2322 
L 691 4666 
z
" transform="scale(0.015625)"/>
       </defs>
       <use xlink:href="#DejaVuSans-35"/>
       <use xlink:href="#DejaVuSans-30" x="63.623047"/>
      </g>
     </g>
    </g>
    <g id="text_7">
     <!-- State -->
     <g transform="translate(208.06 387.15566) scale(0.192 -0.192)">
      <defs>
       <path id="DejaVuSans-53" d="M 3425 4513 
L 3425 3897 
Q 3066 4069 2747 4153 
Q 2428 4238 2131 4238 
Q 1616 4238 1336 4038 
Q 1056 3838 1056 3469 
Q 1056 3159 1242 3001 
Q 1428 2844 1947 2747 
L 2328 2669 
Q 3034 2534 3370 2195 
Q 3706 1856 3706 1288 
Q 3706 609 3251 259 
Q 2797 -91 1919 -91 
Q 1588 -91 1214 -16 
Q 841 59 441 206 
L 441 856 
Q 825 641 1194 531 
Q 1563 422 1919 422 
Q 2459 422 2753 634 
Q 3047 847 3047 1241 
Q 3047 1584 2836 1778 
Q 2625 1972 2144 2069 
L 1759 2144 
Q 1053 2284 737 2584 
Q 422 2884 422 3419 
Q 422 4038 858 4394 
Q 1294 4750 2059 4750 
Q 2388 4750 2728 4690 
Q 3069 4631 3425 4513 
z
" transform="scale(0.015625)"/>
       <path id="DejaVuSans-74" d="M 1172 4494 
L 1172 3500 
L 2356 3500 
L 2356 3053 
L 1172 3053 
L 1172 1153 
Q 1172 725 1289 603 
Q 1406 481 1766 481 
L 2356 481 
L 2356 0 
L 1766 0 
Q 1100 0 847 248 
Q 594 497 594 1153 
L 594 3053 
L 172 3053 
L 172 3500 
L 594 3500 
L 594 4494 
L 1172 4494 
z
" transform="scale(0.015625)"/>
       <path id="DejaVuSans-61" d="M 2194 1759 
Q 1497 1759 1228 1600 
Q 959 1441 959 1056 
Q 959 750 1161 570 
Q 1363 391 1709 391 
Q 2188 391 2477 730 
Q 2766 1069 2766 1631 
L 2766 1759 
L 2194 1759 
z
M 3341 1997 
L 3341 0 
L 2766 0 
L 2766 531 
Q 2569 213 2275 61 
Q 1981 -91 1556 -91 
Q 1019 -91 701 211 
Q 384 513 384 1019 
Q 384 1609 779 1909 
Q 1175 2209 1959 2209 
L 2766 2209 
L 2766 2266 
Q 2766 2663 2505 2880 
Q 2244 3097 1772 3097 
Q 1472 3097 1187 3025 
Q 903 2953 641 2809 
L 641 3341 
Q 956 3463 1253 3523 
Q 1550 3584 1831 3584 
Q 2591 3584 2966 3190 
Q 3341 2797 3341 1997 
z
" transform="scale(0.015625)"/>
       <path id="DejaVuSans-65" d="M 3597 1894 
L 3597 1613 
L 953 1613 
Q 991 1019 1311 708 
Q 1631 397 2203 397 
Q 2534 397 2845 478 
Q 3156 559 3463 722 
L 3463 178 
Q 3153 47 2828 -22 
Q 2503 -91 2169 -91 
Q 1331 -91 842 396 
Q 353 884 353 1716 
Q 353 2575 817 3079 
Q 1281 3584 2069 3584 
Q 2775 3584 3186 3129 
Q 3597 2675 3597 1894 
z
M 3022 2063 
Q 3016 2534 2758 2815 
Q 2500 3097 2075 3097 
Q 1594 3097 1305 2825 
Q 1016 2553 972 2059 
L 3022 2063 
z
" transform="scale(0.015625)"/>
      </defs>
      <use xlink:href="#DejaVuSans-53"/>
      <use xlink:href="#DejaVuSans-74" x="63.476562"/>
      <use xlink:href="#DejaVuSans-61" x="102.685547"/>
      <use xlink:href="#DejaVuSans-74" x="163.964844"/>
      <use xlink:href="#DejaVuSans-65" x="203.173828"/>
     </g>
    </g>
   </g>
   <g id="matplotlib.axis_2">
    <g id="ytick_1">
     <g id="line2d_7">
      <defs>
       <path id="m0b4b685af2" d="M 0 0 
L -4.8 0 
" style="stroke: #000000"/>
      </defs>
      <g>
       <use xlink:href="#m0b4b685af2" x="66.0715" y="343.23316" style="stroke: #000000"/>
      </g>
     </g>
     <g id="text_8">
      <!-- 0.0 -->
      <g transform="translate(29.782 349.919785) scale(0.176 -0.176)">
       <defs>
        <path id="DejaVuSans-2e" d="M 684 794 
L 1344 794 
L 1344 0 
L 684 0 
L 684 794 
z
" transform="scale(0.015625)"/>
       </defs>
       <use xlink:href="#DejaVuSans-30"/>
       <use xlink:href="#DejaVuSans-2e" x="63.623047"/>
       <use xlink:href="#DejaVuSans-30" x="95.410156"/>
      </g>
     </g>
    </g>
    <g id="ytick_2">
     <g id="line2d_8">
      <g>
       <use xlink:href="#m0b4b685af2" x="66.0715" y="277.363853" style="stroke: #000000"/>
      </g>
     </g>
     <g id="text_9">
      <!-- 0.2 -->
      <g transform="translate(29.782 284.050478) scale(0.176 -0.176)">
       <use xlink:href="#DejaVuSans-30"/>
       <use xlink:href="#DejaVuSans-2e" x="63.623047"/>
       <use xlink:href="#DejaVuSans-32" x="95.410156"/>
      </g>
     </g>
    </g>
    <g id="ytick_3">
     <g id="line2d_9">
      <g>
       <use xlink:href="#m0b4b685af2" x="66.0715" y="211.494546" style="stroke: #000000"/>
      </g>
     </g>
     <g id="text_10">
      <!-- 0.4 -->
      <g transform="translate(29.782 218.181171) scale(0.176 -0.176)">
       <use xlink:href="#DejaVuSans-30"/>
       <use xlink:href="#DejaVuSans-2e" x="63.623047"/>
       <use xlink:href="#DejaVuSans-34" x="95.410156"/>
      </g>
     </g>
    </g>
    <g id="ytick_4">
     <g id="line2d_10">
      <g>
       <use xlink:href="#m0b4b685af2" x="66.0715" y="145.625239" style="stroke: #000000"/>
      </g>
     </g>
     <g id="text_11">
      <!-- 0.6 -->
      <g transform="translate(29.782 152.311864) scale(0.176 -0.176)">
       <defs>
        <path id="DejaVuSans-36" d="M 2113 2584 
Q 1688 2584 1439 2293 
Q 1191 2003 1191 1497 
Q 1191 994 1439 701 
Q 1688 409 2113 409 
Q 2538 409 2786 701 
Q 3034 994 3034 1497 
Q 3034 2003 2786 2293 
Q 2538 2584 2113 2584 
z
M 3366 4563 
L 3366 3988 
Q 3128 4100 2886 4159 
Q 2644 4219 2406 4219 
Q 1781 4219 1451 3797 
Q 1122 3375 1075 2522 
Q 1259 2794 1537 2939 
Q 1816 3084 2150 3084 
Q 2853 3084 3261 2657 
Q 3669 2231 3669 1497 
Q 3669 778 3244 343 
Q 2819 -91 2113 -91 
Q 1303 -91 875 529 
Q 447 1150 447 2328 
Q 447 3434 972 4092 
Q 1497 4750 2381 4750 
Q 2619 4750 2861 4703 
Q 3103 4656 3366 4563 
z
" transform="scale(0.015625)"/>
       </defs>
       <use xlink:href="#DejaVuSans-30"/>
       <use xlink:href="#DejaVuSans-2e" x="63.623047"/>
       <use xlink:href="#DejaVuSans-36" x="95.410156"/>
      </g>
     </g>
    </g>
    <g id="ytick_5">
     <g id="line2d_11">
      <g>
       <use xlink:href="#m0b4b685af2" x="66.0715" y="79.755932" style="stroke: #000000"/>
      </g>
     </g>
     <g id="text_12">
      <!-- 0.8 -->
      <g transform="translate(29.782 86.442557) scale(0.176 -0.176)">
       <defs>
        <path id="DejaVuSans-38" d="M 2034 2216 
Q 1584 2216 1326 1975 
Q 1069 1734 1069 1313 
Q 1069 891 1326 650 
Q 1584 409 2034 409 
Q 2484 409 2743 651 
Q 3003 894 3003 1313 
Q 3003 1734 2745 1975 
Q 2488 2216 2034 2216 
z
M 1403 2484 
Q 997 2584 770 2862 
Q 544 3141 544 3541 
Q 544 4100 942 4425 
Q 1341 4750 2034 4750 
Q 2731 4750 3128 4425 
Q 3525 4100 3525 3541 
Q 3525 3141 3298 2862 
Q 3072 2584 2669 2484 
Q 3125 2378 3379 2068 
Q 3634 1759 3634 1313 
Q 3634 634 3220 271 
Q 2806 -91 2034 -91 
Q 1263 -91 848 271 
Q 434 634 434 1313 
Q 434 1759 690 2068 
Q 947 2378 1403 2484 
z
M 1172 3481 
Q 1172 3119 1398 2916 
Q 1625 2713 2034 2713 
Q 2441 2713 2670 2916 
Q 2900 3119 2900 3481 
Q 2900 3844 2670 4047 
Q 2441 4250 2034 4250 
Q 1625 4250 1398 4047 
Q 1172 3844 1172 3481 
z
" transform="scale(0.015625)"/>
       </defs>
       <use xlink:href="#DejaVuSans-30"/>
       <use xlink:href="#DejaVuSans-2e" x="63.623047"/>
       <use xlink:href="#DejaVuSans-38" x="95.410156"/>
      </g>
     </g>
    </g>
    <g id="ytick_6">
     <g id="line2d_12">
      <g>
       <use xlink:href="#m0b4b685af2" x="66.0715" y="13.886625" style="stroke: #000000"/>
      </g>
     </g>
     <g id="text_13">
      <!-- 1.0 -->
      <g transform="translate(29.782 20.57325) scale(0.176 -0.176)">
       <use xlink:href="#DejaVuSans-31"/>
       <use xlink:href="#DejaVuSans-2e" x="63.623047"/>
       <use xlink:href="#DejaVuSans-30" x="95.410156"/>
      </g>
     </g>
    </g>
    <g id="text_14">
     <!-- Score -->
     <g transform="translate(21.789 203.79766) rotate(-90) scale(0.192 -0.192)">
      <defs>
       <path id="DejaVuSans-63" d="M 3122 3366 
L 3122 2828 
Q 2878 2963 2633 3030 
Q 2388 3097 2138 3097 
Q 1578 3097 1268 2742 
Q 959 2388 959 1747 
Q 959 1106 1268 751 
Q 1578 397 2138 397 
Q 2388 397 2633 464 
Q 2878 531 3122 666 
L 3122 134 
Q 2881 22 2623 -34 
Q 2366 -91 2075 -91 
Q 1284 -91 818 406 
Q 353 903 353 1747 
Q 353 2603 823 3093 
Q 1294 3584 2113 3584 
Q 2378 3584 2631 3529 
Q 2884 3475 3122 3366 
z
" transform="scale(0.015625)"/>
       <path id="DejaVuSans-6f" d="M 1959 3097 
Q 1497 3097 1228 2736 
Q 959 2375 959 1747 
Q 959 1119 1226 758 
Q 1494 397 1959 397 
Q 2419 397 2687 759 
Q 2956 1122 2956 1747 
Q 2956 2369 2687 2733 
Q 2419 3097 1959 3097 
z
M 1959 3584 
Q 2709 3584 3137 3096 
Q 3566 2609 3566 1747 
Q 3566 888 3137 398 
Q 2709 -91 1959 -91 
Q 1206 -91 779 398 
Q 353 888 353 1747 
Q 353 2609 779 3096 
Q 1206 3584 1959 3584 
z
" transform="scale(0.015625)"/>
       <path id="DejaVuSans-72" d="M 2631 2963 
Q 2534 3019 2420 3045 
Q 2306 3072 2169 3072 
Q 1681 3072 1420 2755 
Q 1159 2438 1159 1844 
L 1159 0 
L 581 0 
L 581 3500 
L 1159 3500 
L 1159 2956 
Q 1341 3275 1631 3429 
Q 1922 3584 2338 3584 
Q 2397 3584 2469 3576 
Q 2541 3569 2628 3553 
L 2631 2963 
z
" transform="scale(0.015625)"/>
      </defs>
      <use xlink:href="#DejaVuSans-53"/>
      <use xlink:href="#DejaVuSans-63" x="63.476562"/>
      <use xlink:href="#DejaVuSans-6f" x="118.457031"/>
      <use xlink:href="#DejaVuSans-72" x="179.638672"/>
      <use xlink:href="#DejaVuSans-65" x="218.501953"/>
     </g>
    </g>
   </g>
   <g id="line2d_13">
    <path d="M 103.675848 53.094546 
L 109.741065 53.094546 
L 115.806283 53.094546 
L 121.8715 53.094546 
L 127.936717 53.094546 
L 134.001935 53.094546 
L 140.067152 28.20604 
L 152.197587 28.20604 
L 158.262804 25.906572 
L 164.328022 33.374586 
L 170.393239 23.806701 
L 182.523674 23.806701 
L 188.588891 140.395272 
L 194.654109 139.25079 
L 200.719326 139.318603 
L 212.849761 138.447173 
L 218.914978 137.125973 
L 231.045413 137.125973 
L 243.175848 128.345622 
L 255.306283 124.666823 
L 261.3715 122.661627 
L 267.436717 110.940435 
L 273.501935 89.956166 
L 285.63237 83.268962 
L 297.762804 132.245536 
L 303.828022 70.008456 
L 309.893239 68.158176 
L 322.023674 63.176583 
L 328.088891 57.342071 
L 334.154109 55.246422 
L 340.219326 45.478619 
L 352.349761 24.836766 
L 358.414978 13.886625 
L 364.480196 13.886625 
L 370.545413 13.886625 
L 376.61063 13.886625 
L 388.741065 13.886625 
L 394.806283 13.886625 
L 406.936717 92.157252 
L 409.0715 88.713625 
" clip-path="url(#p26b835a164)" style="fill: none; stroke-dasharray: 2,3.3; stroke-dashoffset: 0; stroke: #e41a1c; stroke-width: 2"/>
   </g>
   <g id="line2d_14">
    <path d="M 67.284543 343.23316 
L 73.349761 343.23316 
L 91.545413 343.23316 
L 97.61063 343.23316 
L 103.675848 321.036763 
L 109.741065 321.036763 
L 115.806283 321.036763 
L 121.8715 321.036763 
L 127.936717 321.036763 
L 134.001935 321.036763 
L 140.067152 277.243872 
L 152.197587 277.243872 
L 158.262804 264.046015 
L 164.328022 247.848644 
L 170.393239 246.648839 
L 182.523674 246.648839 
L 188.588891 171.06111 
L 194.654109 170.461207 
L 200.719326 168.661499 
L 212.849761 168.661499 
L 218.914978 168.661499 
L 231.045413 168.661499 
L 243.175848 168.661499 
L 255.306283 168.061597 
L 261.3715 168.061597 
L 267.436717 168.061597 
L 273.501935 167.461694 
L 285.63237 165.661986 
L 297.762804 121.869095 
L 303.828022 121.269193 
L 309.893239 121.269193 
L 322.023674 118.26968 
L 328.088891 118.26968 
L 334.154109 117.669777 
L 340.219326 117.069874 
L 352.349761 116.469972 
L 358.414978 116.469972 
L 364.480196 96.673186 
L 370.545413 96.673186 
L 376.61063 49.280879 
L 388.741065 48.680977 
L 394.806283 46.881269 
L 406.936717 46.881269 
L 409.0715 46.854875 
" clip-path="url(#p26b835a164)" style="fill: none; stroke-dasharray: 7.4,3.2; stroke-dashoffset: 0; stroke: #377eb8; stroke-width: 2"/>
   </g>
   <g id="line2d_15">
    <path d="M 103.675848 301.995184 
L 109.741065 301.995184 
L 115.806283 301.995184 
L 121.8715 301.995184 
L 127.936717 301.995184 
L 134.001935 301.995184 
L 140.067152 234.11232 
L 152.197587 234.11232 
L 158.262804 216.487554 
L 164.328022 197.366589 
L 170.393239 194.912063 
L 182.523674 194.912063 
L 188.588891 156.982016 
L 194.654109 156.148738 
L 200.719326 155.127484 
L 212.849761 154.757562 
L 218.914978 154.199942 
L 231.045413 154.199942 
L 243.175848 150.590262 
L 255.306283 148.755529 
L 261.3715 147.965773 
L 267.436717 143.504835 
L 273.501935 135.709429 
L 285.63237 132.223259 
L 297.762804 127.181833 
L 303.828022 98.292018 
L 309.893239 97.551269 
L 322.023674 93.728209 
L 328.088891 91.439173 
L 334.154109 90.25196 
L 340.219326 86.165575 
L 352.349761 78.354457 
L 358.414978 74.639869 
L 364.480196 61.230189 
L 370.545413 61.230189 
L 376.61063 32.58869 
L 388.741065 32.254028 
L 394.806283 31.253892 
L 406.936717 71.391575 
L 409.0715 69.61105 
" clip-path="url(#p26b835a164)" style="fill: none; stroke: #984ea3; stroke-width: 3; stroke-linecap: square"/>
   </g>
   <g id="patch_3">
    <path d="M 66.0715 343.23316 
L 66.0715 10.59316 
" style="fill: none; stroke: #000000; stroke-linejoin: miter; stroke-linecap: square"/>
   </g>
   <g id="patch_4">
    <path d="M 66.0715 343.23316 
L 400.8715 343.23316 
" style="fill: none; stroke: #000000; stroke-linejoin: miter; stroke-linecap: square"/>
   </g>
   <g id="legend_1">
    <g id="patch_5">
     <path d="M 253.71075 334.43316 
L 388.5515 334.43316 
Q 392.0715 334.43316 392.0715 330.91316 
L 392.0715 255.17266 
Q 392.0715 251.65266 388.5515 251.65266 
L 253.71075 251.65266 
Q 250.19075 251.65266 250.19075 255.17266 
L 250.19075 330.91316 
Q 250.19075 334.43316 253.71075 334.43316 
z
" style="fill: #ffffff; opacity: 0.8; stroke: #cccccc; stroke-width: 0.8; stroke-linejoin: miter"/>
    </g>
    <g id="line2d_16">
     <path d="M 257.23075 265.90591 
L 274.83075 265.90591 
L 292.43075 265.90591 
" style="fill: none; stroke-dasharray: 2,3.3; stroke-dashoffset: 0; stroke: #e41a1c; stroke-width: 2"/>
    </g>
    <g id="text_15">
     <!-- Precision -->
     <g transform="translate(306.51075 272.06591) scale(0.176 -0.176)">
      <defs>
       <path id="DejaVuSans-50" d="M 1259 4147 
L 1259 2394 
L 2053 2394 
Q 2494 2394 2734 2622 
Q 2975 2850 2975 3272 
Q 2975 3691 2734 3919 
Q 2494 4147 2053 4147 
L 1259 4147 
z
M 628 4666 
L 2053 4666 
Q 2838 4666 3239 4311 
Q 3641 3956 3641 3272 
Q 3641 2581 3239 2228 
Q 2838 1875 2053 1875 
L 1259 1875 
L 1259 0 
L 628 0 
L 628 4666 
z
" transform="scale(0.015625)"/>
       <path id="DejaVuSans-69" d="M 603 3500 
L 1178 3500 
L 1178 0 
L 603 0 
L 603 3500 
z
M 603 4863 
L 1178 4863 
L 1178 4134 
L 603 4134 
L 603 4863 
z
" transform="scale(0.015625)"/>
       <path id="DejaVuSans-73" d="M 2834 3397 
L 2834 2853 
Q 2591 2978 2328 3040 
Q 2066 3103 1784 3103 
Q 1356 3103 1142 2972 
Q 928 2841 928 2578 
Q 928 2378 1081 2264 
Q 1234 2150 1697 2047 
L 1894 2003 
Q 2506 1872 2764 1633 
Q 3022 1394 3022 966 
Q 3022 478 2636 193 
Q 2250 -91 1575 -91 
Q 1294 -91 989 -36 
Q 684 19 347 128 
L 347 722 
Q 666 556 975 473 
Q 1284 391 1588 391 
Q 1994 391 2212 530 
Q 2431 669 2431 922 
Q 2431 1156 2273 1281 
Q 2116 1406 1581 1522 
L 1381 1569 
Q 847 1681 609 1914 
Q 372 2147 372 2553 
Q 372 3047 722 3315 
Q 1072 3584 1716 3584 
Q 2034 3584 2315 3537 
Q 2597 3491 2834 3397 
z
" transform="scale(0.015625)"/>
       <path id="DejaVuSans-6e" d="M 3513 2113 
L 3513 0 
L 2938 0 
L 2938 2094 
Q 2938 2591 2744 2837 
Q 2550 3084 2163 3084 
Q 1697 3084 1428 2787 
Q 1159 2491 1159 1978 
L 1159 0 
L 581 0 
L 581 3500 
L 1159 3500 
L 1159 2956 
Q 1366 3272 1645 3428 
Q 1925 3584 2291 3584 
Q 2894 3584 3203 3211 
Q 3513 2838 3513 2113 
z
" transform="scale(0.015625)"/>
      </defs>
      <use xlink:href="#DejaVuSans-50"/>
      <use xlink:href="#DejaVuSans-72" x="58.552734"/>
      <use xlink:href="#DejaVuSans-65" x="97.416016"/>
      <use xlink:href="#DejaVuSans-63" x="158.939453"/>
      <use xlink:href="#DejaVuSans-69" x="213.919922"/>
      <use xlink:href="#DejaVuSans-73" x="241.703125"/>
      <use xlink:href="#DejaVuSans-69" x="293.802734"/>
      <use xlink:href="#DejaVuSans-6f" x="321.585938"/>
      <use xlink:href="#DejaVuSans-6e" x="382.767578"/>
     </g>
    </g>
    <g id="line2d_17">
     <path d="M 257.23075 291.73941 
L 274.83075 291.73941 
L 292.43075 291.73941 
" style="fill: none; stroke-dasharray: 7.4,3.2; stroke-dashoffset: 0; stroke: #377eb8; stroke-width: 2"/>
    </g>
    <g id="text_16">
     <!-- Recall -->
     <g transform="translate(306.51075 297.89941) scale(0.176 -0.176)">
      <defs>
       <path id="DejaVuSans-52" d="M 2841 2188 
Q 3044 2119 3236 1894 
Q 3428 1669 3622 1275 
L 4263 0 
L 3584 0 
L 2988 1197 
Q 2756 1666 2539 1819 
Q 2322 1972 1947 1972 
L 1259 1972 
L 1259 0 
L 628 0 
L 628 4666 
L 2053 4666 
Q 2853 4666 3247 4331 
Q 3641 3997 3641 3322 
Q 3641 2881 3436 2590 
Q 3231 2300 2841 2188 
z
M 1259 4147 
L 1259 2491 
L 2053 2491 
Q 2509 2491 2742 2702 
Q 2975 2913 2975 3322 
Q 2975 3731 2742 3939 
Q 2509 4147 2053 4147 
L 1259 4147 
z
" transform="scale(0.015625)"/>
       <path id="DejaVuSans-6c" d="M 603 4863 
L 1178 4863 
L 1178 0 
L 603 0 
L 603 4863 
z
" transform="scale(0.015625)"/>
      </defs>
      <use xlink:href="#DejaVuSans-52"/>
      <use xlink:href="#DejaVuSans-65" x="64.982422"/>
      <use xlink:href="#DejaVuSans-63" x="126.505859"/>
      <use xlink:href="#DejaVuSans-61" x="181.486328"/>
      <use xlink:href="#DejaVuSans-6c" x="242.765625"/>
      <use xlink:href="#DejaVuSans-6c" x="270.548828"/>
     </g>
    </g>
    <g id="line2d_18">
     <path d="M 257.23075 317.57291 
L 274.83075 317.57291 
L 292.43075 317.57291 
" style="fill: none; stroke: #984ea3; stroke-width: 3; stroke-linecap: square"/>
    </g>
    <g id="text_17">
     <!-- F1 -->
     <g transform="translate(306.51075 323.73291) scale(0.176 -0.176)">
      <defs>
       <path id="DejaVuSans-46" d="M 628 4666 
L 3309 4666 
L 3309 4134 
L 1259 4134 
L 1259 2759 
L 3109 2759 
L 3109 2228 
L 1259 2228 
L 1259 0 
L 628 0 
L 628 4666 
z
" transform="scale(0.015625)"/>
      </defs>
      <use xlink:href="#DejaVuSans-46"/>
      <use xlink:href="#DejaVuSans-31" x="57.519531"/>
     </g>
    </g>
   </g>
  </g>
 </g>
 <defs>
  <clipPath id="p26b835a164">
   <rect x="66.0715" y="10.59316" width="334.8" height="332.64"/>
  </clipPath>
 </defs>
</svg>
