<?xml version="1.0" encoding="utf-8" standalone="no"?>
<!DOCTYPE svg PUBLIC "-//W3C//DTD SVG 1.1//EN"
  "http://www.w3.org/Graphics/SVG/1.1/DTD/svg11.dtd">
<svg xmlns:xlink="http://www.w3.org/1999/xlink" width="408.0715pt" height="398.34866pt" viewBox="0 0 408.0715 398.34866" xmlns="http://www.w3.org/2000/svg" version="1.1">
 <metadata>
  <rdf:RDF xmlns:dc="http://purl.org/dc/elements/1.1/" xmlns:cc="http://creativecommons.org/ns#" xmlns:rdf="http://www.w3.org/1999/02/22-rdf-syntax-ns#">
   <cc:Work>
    <dc:type rdf:resource="http://purl.org/dc/dcmitype/StillImage"/>
    <dc:date>2024-10-01T11:03:48.498642</dc:date>
    <dc:format>image/svg+xml</dc:format>
    <dc:creator>
     <cc:Agent>
      <dc:title>Matplotlib v3.8.0, https://matplotlib.org/</dc:title>
     </cc:Agent>
    </dc:creator>
   </cc:Work>
  </rdf:RDF>
 </metadata>
 <defs>
  <style type="text/css">*{stroke-linejoin: round; stroke-linecap: butt}</style>
 </defs>
 <g id="figure_1">
  <g id="patch_1">
   <path d="M 0 398.34866 
L 408.0715 398.34866 
L 408.0715 0 
L 0 0 
z
" style="fill: #ffffff"/>
  </g>
  <g id="axes_1">
   <g id="patch_2">
    <path d="M 66.0715 343.23316 
L 400.8715 343.23316 
L 400.8715 10.59316 
L 66.0715 10.59316 
z
" style="fill: #ffffff"/>
   </g>
   <g id="PolyCollection_1"/>
   <g id="PolyCollection_2"/>
   <g id="PolyCollection_3"/>
   <g id="PolyCollection_4">
    <defs>
     <path id="m34e6722d61" d="M 66.486885 -387.7555 
L 66.486885 -55.1155 
L 68.563808 -55.1155 
L 68.563808 -387.7555 
L 68.563808 -387.7555 
L 66.486885 -387.7555 
z
"/>
    </defs>
    <g clip-path="url(#pb52172d6df)">
     <use xlink:href="#m34e6722d61" x="0" y="398.34866" style="fill: #1b9e77; fill-opacity: 0.2"/>
    </g>
   </g>
   <g id="PolyCollection_5">
    <defs>
     <path id="m8f0e9c9f2c" d="M 68.563808 -387.7555 
L 68.563808 -55.1155 
L 70.640731 -55.1155 
L 70.640731 -387.7555 
L 70.640731 -387.7555 
L 68.563808 -387.7555 
z
"/>
    </defs>
    <g clip-path="url(#pb52172d6df)">
     <use xlink:href="#m8f0e9c9f2c" x="0" y="398.34866" style="fill: #1b9e77; fill-opacity: 0.2"/>
    </g>
   </g>
   <g id="PolyCollection_6">
    <defs>
     <path id="m8b4fa78ac4" d="M 70.640731 -387.7555 
L 70.640731 -55.1155 
L 72.717654 -55.1155 
L 72.717654 -387.7555 
L 72.717654 -387.7555 
L 70.640731 -387.7555 
z
"/>
    </defs>
    <g clip-path="url(#pb52172d6df)">
     <use xlink:href="#m8b4fa78ac4" x="0" y="398.34866" style="fill: #1b9e77; fill-opacity: 0.2"/>
    </g>
   </g>
   <g id="PolyCollection_7">
    <defs>
     <path id="mfb794fb45d" d="M 72.717654 -387.7555 
L 72.717654 -55.1155 
L 74.794577 -55.1155 
L 74.794577 -387.7555 
L 74.794577 -387.7555 
L 72.717654 -387.7555 
z
"/>
    </defs>
    <g clip-path="url(#pb52172d6df)">
     <use xlink:href="#mfb794fb45d" x="0" y="398.34866" style="fill: #1b9e77; fill-opacity: 0.2"/>
    </g>
   </g>
   <g id="PolyCollection_8">
    <defs>
     <path id="m3b9accba6a" d="M 74.794577 -387.7555 
L 74.794577 -55.1155 
L 76.8715 -55.1155 
L 76.8715 -387.7555 
L 76.8715 -387.7555 
L 74.794577 -387.7555 
z
"/>
    </defs>
    <g clip-path="url(#pb52172d6df)">
     <use xlink:href="#m3b9accba6a" x="0" y="398.34866" style="fill: #d95f02; fill-opacity: 0.2"/>
    </g>
   </g>
   <g id="PolyCollection_9">
    <defs>
     <path id="m56e50981f5" d="M 76.8715 -387.7555 
L 76.8715 -55.1155 
L 78.948423 -55.1155 
L 78.948423 -387.7555 
L 78.948423 -387.7555 
L 76.8715 -387.7555 
z
"/>
    </defs>
    <g clip-path="url(#pb52172d6df)">
     <use xlink:href="#m56e50981f5" x="0" y="398.34866" style="fill: #1b9e77; fill-opacity: 0.2"/>
    </g>
   </g>
   <g id="PolyCollection_10">
    <defs>
     <path id="m18f130d3df" d="M 78.948423 -387.7555 
L 78.948423 -55.1155 
L 81.025346 -55.1155 
L 81.025346 -387.7555 
L 81.025346 -387.7555 
L 78.948423 -387.7555 
z
"/>
    </defs>
    <g clip-path="url(#pb52172d6df)">
     <use xlink:href="#m18f130d3df" x="0" y="398.34866" style="fill: #d95f02; fill-opacity: 0.2"/>
    </g>
   </g>
   <g id="PolyCollection_11">
    <defs>
     <path id="m046e0b3925" d="M 81.025346 -387.7555 
L 81.025346 -55.1155 
L 83.102269 -55.1155 
L 83.102269 -387.7555 
L 83.102269 -387.7555 
L 81.025346 -387.7555 
z
"/>
    </defs>
    <g clip-path="url(#pb52172d6df)">
     <use xlink:href="#m046e0b3925" x="0" y="398.34866" style="fill: #d95f02; fill-opacity: 0.2"/>
    </g>
   </g>
   <g id="PolyCollection_12">
    <defs>
     <path id="m5090a0ff7d" d="M 83.102269 -387.7555 
L 83.102269 -55.1155 
L 85.179192 -55.1155 
L 85.179192 -387.7555 
L 85.179192 -387.7555 
L 83.102269 -387.7555 
z
"/>
    </defs>
    <g clip-path="url(#pb52172d6df)">
     <use xlink:href="#m5090a0ff7d" x="0" y="398.34866" style="fill: #d95f02; fill-opacity: 0.2"/>
    </g>
   </g>
   <g id="PolyCollection_13">
    <defs>
     <path id="md3cfe7a1ea" d="M 85.179192 -387.7555 
L 85.179192 -55.1155 
L 87.256115 -55.1155 
L 87.256115 -387.7555 
L 87.256115 -387.7555 
L 85.179192 -387.7555 
z
"/>
    </defs>
    <g clip-path="url(#pb52172d6df)">
     <use xlink:href="#md3cfe7a1ea" x="0" y="398.34866" style="fill: #d95f02; fill-opacity: 0.2"/>
    </g>
   </g>
   <g id="PolyCollection_14">
    <defs>
     <path id="m29981a1160" d="M 87.256115 -387.7555 
L 87.256115 -55.1155 
L 89.333038 -55.1155 
L 89.333038 -387.7555 
L 89.333038 -387.7555 
L 87.256115 -387.7555 
z
"/>
    </defs>
    <g clip-path="url(#pb52172d6df)">
     <use xlink:href="#m29981a1160" x="0" y="398.34866" style="fill: #d95f02; fill-opacity: 0.2"/>
    </g>
   </g>
   <g id="PolyCollection_15">
    <defs>
     <path id="meeb09a3930" d="M 89.333038 -387.7555 
L 89.333038 -55.1155 
L 91.409962 -55.1155 
L 91.409962 -387.7555 
L 91.409962 -387.7555 
L 89.333038 -387.7555 
z
"/>
    </defs>
    <g clip-path="url(#pb52172d6df)">
     <use xlink:href="#meeb09a3930" x="0" y="398.34866" style="fill: #d95f02; fill-opacity: 0.2"/>
    </g>
   </g>
   <g id="PolyCollection_16">
    <defs>
     <path id="m62264bba47" d="M 91.409962 -387.7555 
L 91.409962 -55.1155 
L 93.486885 -55.1155 
L 93.486885 -387.7555 
L 93.486885 -387.7555 
L 91.409962 -387.7555 
z
"/>
    </defs>
    <g clip-path="url(#pb52172d6df)">
     <use xlink:href="#m62264bba47" x="0" y="398.34866" style="fill: #d95f02; fill-opacity: 0.2"/>
    </g>
   </g>
   <g id="PolyCollection_17">
    <defs>
     <path id="m514fbefcb9" d="M 93.486885 -387.7555 
L 93.486885 -55.1155 
L 95.563808 -55.1155 
L 95.563808 -387.7555 
L 95.563808 -387.7555 
L 93.486885 -387.7555 
z
"/>
    </defs>
    <g clip-path="url(#pb52172d6df)">
     <use xlink:href="#m514fbefcb9" x="0" y="398.34866" style="fill: #d95f02; fill-opacity: 0.2"/>
    </g>
   </g>
   <g id="PolyCollection_18">
    <defs>
     <path id="mbfde83de32" d="M 95.563808 -387.7555 
L 95.563808 -55.1155 
L 97.640731 -55.1155 
L 97.640731 -387.7555 
L 97.640731 -387.7555 
L 95.563808 -387.7555 
z
"/>
    </defs>
    <g clip-path="url(#pb52172d6df)">
     <use xlink:href="#mbfde83de32" x="0" y="398.34866" style="fill: #d95f02; fill-opacity: 0.2"/>
    </g>
   </g>
   <g id="PolyCollection_19">
    <defs>
     <path id="m35dc1c238e" d="M 97.640731 -387.7555 
L 97.640731 -55.1155 
L 99.717654 -55.1155 
L 99.717654 -387.7555 
L 99.717654 -387.7555 
L 97.640731 -387.7555 
z
"/>
    </defs>
    <g clip-path="url(#pb52172d6df)">
     <use xlink:href="#m35dc1c238e" x="0" y="398.34866" style="fill: #d95f02; fill-opacity: 0.2"/>
    </g>
   </g>
   <g id="PolyCollection_20">
    <defs>
     <path id="m008e82da3f" d="M 99.717654 -387.7555 
L 99.717654 -55.1155 
L 101.794577 -55.1155 
L 101.794577 -387.7555 
L 101.794577 -387.7555 
L 99.717654 -387.7555 
z
"/>
    </defs>
    <g clip-path="url(#pb52172d6df)">
     <use xlink:href="#m008e82da3f" x="0" y="398.34866" style="fill: #d95f02; fill-opacity: 0.2"/>
    </g>
   </g>
   <g id="PolyCollection_21">
    <defs>
     <path id="m60de5729e7" d="M 101.794577 -387.7555 
L 101.794577 -55.1155 
L 103.8715 -55.1155 
L 103.8715 -387.7555 
L 103.8715 -387.7555 
L 101.794577 -387.7555 
z
"/>
    </defs>
    <g clip-path="url(#pb52172d6df)">
     <use xlink:href="#m60de5729e7" x="0" y="398.34866" style="fill: #d95f02; fill-opacity: 0.2"/>
    </g>
   </g>
   <g id="PolyCollection_22">
    <defs>
     <path id="m30fe2516d8" d="M 103.8715 -387.7555 
L 103.8715 -55.1155 
L 105.948423 -55.1155 
L 105.948423 -387.7555 
L 105.948423 -387.7555 
L 103.8715 -387.7555 
z
"/>
    </defs>
    <g clip-path="url(#pb52172d6df)">
     <use xlink:href="#m30fe2516d8" x="0" y="398.34866" style="fill: #d95f02; fill-opacity: 0.2"/>
    </g>
   </g>
   <g id="PolyCollection_23">
    <defs>
     <path id="m88f3525ac7" d="M 105.948423 -387.7555 
L 105.948423 -55.1155 
L 108.025346 -55.1155 
L 108.025346 -387.7555 
L 108.025346 -387.7555 
L 105.948423 -387.7555 
z
"/>
    </defs>
    <g clip-path="url(#pb52172d6df)">
     <use xlink:href="#m88f3525ac7" x="0" y="398.34866" style="fill: #d95f02; fill-opacity: 0.2"/>
    </g>
   </g>
   <g id="PolyCollection_24">
    <defs>
     <path id="m2892a18d28" d="M 108.025346 -387.7555 
L 108.025346 -55.1155 
L 110.102269 -55.1155 
L 110.102269 -387.7555 
L 110.102269 -387.7555 
L 108.025346 -387.7555 
z
"/>
    </defs>
    <g clip-path="url(#pb52172d6df)">
     <use xlink:href="#m2892a18d28" x="0" y="398.34866" style="fill: #d95f02; fill-opacity: 0.2"/>
    </g>
   </g>
   <g id="PolyCollection_25">
    <defs>
     <path id="m5390e7746a" d="M 110.102269 -387.7555 
L 110.102269 -55.1155 
L 112.179192 -55.1155 
L 112.179192 -387.7555 
L 112.179192 -387.7555 
L 110.102269 -387.7555 
z
"/>
    </defs>
    <g clip-path="url(#pb52172d6df)">
     <use xlink:href="#m5390e7746a" x="0" y="398.34866" style="fill: #d95f02; fill-opacity: 0.2"/>
    </g>
   </g>
   <g id="PolyCollection_26">
    <defs>
     <path id="m60f79837aa" d="M 112.179192 -387.7555 
L 112.179192 -55.1155 
L 114.256115 -55.1155 
L 114.256115 -387.7555 
L 114.256115 -387.7555 
L 112.179192 -387.7555 
z
"/>
    </defs>
    <g clip-path="url(#pb52172d6df)">
     <use xlink:href="#m60f79837aa" x="0" y="398.34866" style="fill: #d95f02; fill-opacity: 0.2"/>
    </g>
   </g>
   <g id="PolyCollection_27">
    <defs>
     <path id="ma2e6aa731b" d="M 114.256115 -387.7555 
L 114.256115 -55.1155 
L 116.333038 -55.1155 
L 116.333038 -387.7555 
L 116.333038 -387.7555 
L 114.256115 -387.7555 
z
"/>
    </defs>
    <g clip-path="url(#pb52172d6df)">
     <use xlink:href="#ma2e6aa731b" x="0" y="398.34866" style="fill: #1b9e77; fill-opacity: 0.2"/>
    </g>
   </g>
   <g id="PolyCollection_28">
    <defs>
     <path id="m3b0895e5ce" d="M 116.333038 -387.7555 
L 116.333038 -55.1155 
L 118.409962 -55.1155 
L 118.409962 -387.7555 
L 118.409962 -387.7555 
L 116.333038 -387.7555 
z
"/>
    </defs>
    <g clip-path="url(#pb52172d6df)">
     <use xlink:href="#m3b0895e5ce" x="0" y="398.34866" style="fill: #1b9e77; fill-opacity: 0.2"/>
    </g>
   </g>
   <g id="PolyCollection_29">
    <defs>
     <path id="mcb66d8ac01" d="M 118.409962 -387.7555 
L 118.409962 -55.1155 
L 120.486885 -55.1155 
L 120.486885 -387.7555 
L 120.486885 -387.7555 
L 118.409962 -387.7555 
z
"/>
    </defs>
    <g clip-path="url(#pb52172d6df)">
     <use xlink:href="#mcb66d8ac01" x="0" y="398.34866" style="fill: #d95f02; fill-opacity: 0.2"/>
    </g>
   </g>
   <g id="PolyCollection_30">
    <defs>
     <path id="mb67fd48cbf" d="M 120.486885 -387.7555 
L 120.486885 -55.1155 
L 122.563808 -55.1155 
L 122.563808 -387.7555 
L 122.563808 -387.7555 
L 120.486885 -387.7555 
z
"/>
    </defs>
    <g clip-path="url(#pb52172d6df)">
     <use xlink:href="#mb67fd48cbf" x="0" y="398.34866" style="fill: #d95f02; fill-opacity: 0.2"/>
    </g>
   </g>
   <g id="PolyCollection_31">
    <defs>
     <path id="m9fd99a0fba" d="M 122.563808 -387.7555 
L 122.563808 -55.1155 
L 124.640731 -55.1155 
L 124.640731 -387.7555 
L 124.640731 -387.7555 
L 122.563808 -387.7555 
z
"/>
    </defs>
    <g clip-path="url(#pb52172d6df)">
     <use xlink:href="#m9fd99a0fba" x="0" y="398.34866" style="fill: #d95f02; fill-opacity: 0.2"/>
    </g>
   </g>
   <g id="PolyCollection_32">
    <defs>
     <path id="m63f69c141b" d="M 124.640731 -387.7555 
L 124.640731 -55.1155 
L 126.717654 -55.1155 
L 126.717654 -387.7555 
L 126.717654 -387.7555 
L 124.640731 -387.7555 
z
"/>
    </defs>
    <g clip-path="url(#pb52172d6df)">
     <use xlink:href="#m63f69c141b" x="0" y="398.34866" style="fill: #1b9e77; fill-opacity: 0.2"/>
    </g>
   </g>
   <g id="PolyCollection_33">
    <defs>
     <path id="mb087eb6483" d="M 126.717654 -387.7555 
L 126.717654 -55.1155 
L 128.794577 -55.1155 
L 128.794577 -387.7555 
L 128.794577 -387.7555 
L 126.717654 -387.7555 
z
"/>
    </defs>
    <g clip-path="url(#pb52172d6df)">
     <use xlink:href="#mb087eb6483" x="0" y="398.34866" style="fill: #d95f02; fill-opacity: 0.2"/>
    </g>
   </g>
   <g id="PolyCollection_34">
    <defs>
     <path id="m5ad6b3f2bd" d="M 128.794577 -387.7555 
L 128.794577 -55.1155 
L 130.8715 -55.1155 
L 130.8715 -387.7555 
L 130.8715 -387.7555 
L 128.794577 -387.7555 
z
"/>
    </defs>
    <g clip-path="url(#pb52172d6df)">
     <use xlink:href="#m5ad6b3f2bd" x="0" y="398.34866" style="fill: #d95f02; fill-opacity: 0.2"/>
    </g>
   </g>
   <g id="PolyCollection_35">
    <defs>
     <path id="m66f38247f5" d="M 130.8715 -387.7555 
L 130.8715 -55.1155 
L 132.948423 -55.1155 
L 132.948423 -387.7555 
L 132.948423 -387.7555 
L 130.8715 -387.7555 
z
"/>
    </defs>
    <g clip-path="url(#pb52172d6df)">
     <use xlink:href="#m66f38247f5" x="0" y="398.34866" style="fill: #d95f02; fill-opacity: 0.2"/>
    </g>
   </g>
   <g id="PolyCollection_36">
    <defs>
     <path id="mf0cd3dda15" d="M 132.948423 -387.7555 
L 132.948423 -55.1155 
L 135.025346 -55.1155 
L 135.025346 -387.7555 
L 135.025346 -387.7555 
L 132.948423 -387.7555 
z
"/>
    </defs>
    <g clip-path="url(#pb52172d6df)">
     <use xlink:href="#mf0cd3dda15" x="0" y="398.34866" style="fill: #d95f02; fill-opacity: 0.2"/>
    </g>
   </g>
   <g id="PolyCollection_37">
    <defs>
     <path id="ma2845b7739" d="M 135.025346 -387.7555 
L 135.025346 -55.1155 
L 137.102269 -55.1155 
L 137.102269 -387.7555 
L 137.102269 -387.7555 
L 135.025346 -387.7555 
z
"/>
    </defs>
    <g clip-path="url(#pb52172d6df)">
     <use xlink:href="#ma2845b7739" x="0" y="398.34866" style="fill: #d95f02; fill-opacity: 0.2"/>
    </g>
   </g>
   <g id="PolyCollection_38">
    <defs>
     <path id="m465e3e0e3c" d="M 137.102269 -387.7555 
L 137.102269 -55.1155 
L 139.179192 -55.1155 
L 139.179192 -387.7555 
L 139.179192 -387.7555 
L 137.102269 -387.7555 
z
"/>
    </defs>
    <g clip-path="url(#pb52172d6df)">
     <use xlink:href="#m465e3e0e3c" x="0" y="398.34866" style="fill: #d95f02; fill-opacity: 0.2"/>
    </g>
   </g>
   <g id="PolyCollection_39">
    <defs>
     <path id="mb946346e89" d="M 139.179192 -387.7555 
L 139.179192 -55.1155 
L 141.256115 -55.1155 
L 141.256115 -387.7555 
L 141.256115 -387.7555 
L 139.179192 -387.7555 
z
"/>
    </defs>
    <g clip-path="url(#pb52172d6df)">
     <use xlink:href="#mb946346e89" x="0" y="398.34866" style="fill: #d95f02; fill-opacity: 0.2"/>
    </g>
   </g>
   <g id="PolyCollection_40">
    <defs>
     <path id="m1075d77dac" d="M 141.256115 -387.7555 
L 141.256115 -55.1155 
L 143.333038 -55.1155 
L 143.333038 -387.7555 
L 143.333038 -387.7555 
L 141.256115 -387.7555 
z
"/>
    </defs>
    <g clip-path="url(#pb52172d6df)">
     <use xlink:href="#m1075d77dac" x="0" y="398.34866" style="fill: #d95f02; fill-opacity: 0.2"/>
    </g>
   </g>
   <g id="PolyCollection_41">
    <defs>
     <path id="m0ec0a12183" d="M 143.333038 -387.7555 
L 143.333038 -55.1155 
L 145.409962 -55.1155 
L 145.409962 -387.7555 
L 145.409962 -387.7555 
L 143.333038 -387.7555 
z
"/>
    </defs>
    <g clip-path="url(#pb52172d6df)">
     <use xlink:href="#m0ec0a12183" x="0" y="398.34866" style="fill: #d95f02; fill-opacity: 0.2"/>
    </g>
   </g>
   <g id="PolyCollection_42">
    <defs>
     <path id="ma5991665ca" d="M 145.409962 -387.7555 
L 145.409962 -55.1155 
L 147.486885 -55.1155 
L 147.486885 -387.7555 
L 147.486885 -387.7555 
L 145.409962 -387.7555 
z
"/>
    </defs>
    <g clip-path="url(#pb52172d6df)">
     <use xlink:href="#ma5991665ca" x="0" y="398.34866" style="fill: #d95f02; fill-opacity: 0.2"/>
    </g>
   </g>
   <g id="PolyCollection_43">
    <defs>
     <path id="me46b93c9de" d="M 147.486885 -387.7555 
L 147.486885 -55.1155 
L 149.563808 -55.1155 
L 149.563808 -387.7555 
L 149.563808 -387.7555 
L 147.486885 -387.7555 
z
"/>
    </defs>
    <g clip-path="url(#pb52172d6df)">
     <use xlink:href="#me46b93c9de" x="0" y="398.34866" style="fill: #d95f02; fill-opacity: 0.2"/>
    </g>
   </g>
   <g id="PolyCollection_44">
    <defs>
     <path id="mf8668b11e6" d="M 149.563808 -387.7555 
L 149.563808 -55.1155 
L 151.640731 -55.1155 
L 151.640731 -387.7555 
L 151.640731 -387.7555 
L 149.563808 -387.7555 
z
"/>
    </defs>
    <g clip-path="url(#pb52172d6df)">
     <use xlink:href="#mf8668b11e6" x="0" y="398.34866" style="fill: #d95f02; fill-opacity: 0.2"/>
    </g>
   </g>
   <g id="PolyCollection_45">
    <defs>
     <path id="m5d063692d1" d="M 151.640731 -387.7555 
L 151.640731 -55.1155 
L 153.717654 -55.1155 
L 153.717654 -387.7555 
L 153.717654 -387.7555 
L 151.640731 -387.7555 
z
"/>
    </defs>
    <g clip-path="url(#pb52172d6df)">
     <use xlink:href="#m5d063692d1" x="0" y="398.34866" style="fill: #d95f02; fill-opacity: 0.2"/>
    </g>
   </g>
   <g id="PolyCollection_46">
    <defs>
     <path id="m823b15a0a2" d="M 153.717654 -387.7555 
L 153.717654 -55.1155 
L 155.794577 -55.1155 
L 155.794577 -387.7555 
L 155.794577 -387.7555 
L 153.717654 -387.7555 
z
"/>
    </defs>
    <g clip-path="url(#pb52172d6df)">
     <use xlink:href="#m823b15a0a2" x="0" y="398.34866" style="fill: #1b9e77; fill-opacity: 0.2"/>
    </g>
   </g>
   <g id="PolyCollection_47">
    <defs>
     <path id="mdfb58ff72d" d="M 155.794577 -387.7555 
L 155.794577 -55.1155 
L 157.8715 -55.1155 
L 157.8715 -387.7555 
L 157.8715 -387.7555 
L 155.794577 -387.7555 
z
"/>
    </defs>
    <g clip-path="url(#pb52172d6df)">
     <use xlink:href="#mdfb58ff72d" x="0" y="398.34866" style="fill: #d95f02; fill-opacity: 0.2"/>
    </g>
   </g>
   <g id="PolyCollection_48">
    <defs>
     <path id="mdb54abe3b4" d="M 157.8715 -387.7555 
L 157.8715 -55.1155 
L 159.948423 -55.1155 
L 159.948423 -387.7555 
L 159.948423 -387.7555 
L 157.8715 -387.7555 
z
"/>
    </defs>
    <g clip-path="url(#pb52172d6df)">
     <use xlink:href="#mdb54abe3b4" x="0" y="398.34866" style="fill: #d95f02; fill-opacity: 0.2"/>
    </g>
   </g>
   <g id="PolyCollection_49">
    <defs>
     <path id="m8b5d7b77df" d="M 159.948423 -387.7555 
L 159.948423 -55.1155 
L 162.025346 -55.1155 
L 162.025346 -387.7555 
L 162.025346 -387.7555 
L 159.948423 -387.7555 
z
"/>
    </defs>
    <g clip-path="url(#pb52172d6df)">
     <use xlink:href="#m8b5d7b77df" x="0" y="398.34866" style="fill: #d95f02; fill-opacity: 0.2"/>
    </g>
   </g>
   <g id="PolyCollection_50">
    <defs>
     <path id="m62caf9c421" d="M 162.025346 -387.7555 
L 162.025346 -55.1155 
L 164.102269 -55.1155 
L 164.102269 -387.7555 
L 164.102269 -387.7555 
L 162.025346 -387.7555 
z
"/>
    </defs>
    <g clip-path="url(#pb52172d6df)">
     <use xlink:href="#m62caf9c421" x="0" y="398.34866" style="fill: #d95f02; fill-opacity: 0.2"/>
    </g>
   </g>
   <g id="PolyCollection_51">
    <defs>
     <path id="m99c9e4ae7b" d="M 164.102269 -387.7555 
L 164.102269 -55.1155 
L 166.179192 -55.1155 
L 166.179192 -387.7555 
L 166.179192 -387.7555 
L 164.102269 -387.7555 
z
"/>
    </defs>
    <g clip-path="url(#pb52172d6df)">
     <use xlink:href="#m99c9e4ae7b" x="0" y="398.34866" style="fill: #d95f02; fill-opacity: 0.2"/>
    </g>
   </g>
   <g id="PolyCollection_52">
    <defs>
     <path id="mdc787615b2" d="M 166.179192 -387.7555 
L 166.179192 -55.1155 
L 168.256115 -55.1155 
L 168.256115 -387.7555 
L 168.256115 -387.7555 
L 166.179192 -387.7555 
z
"/>
    </defs>
    <g clip-path="url(#pb52172d6df)">
     <use xlink:href="#mdc787615b2" x="0" y="398.34866" style="fill: #d95f02; fill-opacity: 0.2"/>
    </g>
   </g>
   <g id="PolyCollection_53">
    <defs>
     <path id="mc925664136" d="M 168.256115 -387.7555 
L 168.256115 -55.1155 
L 170.333038 -55.1155 
L 170.333038 -387.7555 
L 170.333038 -387.7555 
L 168.256115 -387.7555 
z
"/>
    </defs>
    <g clip-path="url(#pb52172d6df)">
     <use xlink:href="#mc925664136" x="0" y="398.34866" style="fill: #d95f02; fill-opacity: 0.2"/>
    </g>
   </g>
   <g id="PolyCollection_54">
    <defs>
     <path id="m88ac336661" d="M 170.333038 -387.7555 
L 170.333038 -55.1155 
L 172.409962 -55.1155 
L 172.409962 -387.7555 
L 172.409962 -387.7555 
L 170.333038 -387.7555 
z
"/>
    </defs>
    <g clip-path="url(#pb52172d6df)">
     <use xlink:href="#m88ac336661" x="0" y="398.34866" style="fill: #d95f02; fill-opacity: 0.2"/>
    </g>
   </g>
   <g id="PolyCollection_55">
    <defs>
     <path id="m61c103aa30" d="M 172.409962 -387.7555 
L 172.409962 -55.1155 
L 174.486885 -55.1155 
L 174.486885 -387.7555 
L 174.486885 -387.7555 
L 172.409962 -387.7555 
z
"/>
    </defs>
    <g clip-path="url(#pb52172d6df)">
     <use xlink:href="#m61c103aa30" x="0" y="398.34866" style="fill: #d95f02; fill-opacity: 0.2"/>
    </g>
   </g>
   <g id="PolyCollection_56">
    <defs>
     <path id="m5319d08de0" d="M 174.486885 -387.7555 
L 174.486885 -55.1155 
L 176.563808 -55.1155 
L 176.563808 -387.7555 
L 176.563808 -387.7555 
L 174.486885 -387.7555 
z
"/>
    </defs>
    <g clip-path="url(#pb52172d6df)">
     <use xlink:href="#m5319d08de0" x="0" y="398.34866" style="fill: #d95f02; fill-opacity: 0.2"/>
    </g>
   </g>
   <g id="PolyCollection_57">
    <defs>
     <path id="m4a9f488224" d="M 176.563808 -387.7555 
L 176.563808 -55.1155 
L 178.640731 -55.1155 
L 178.640731 -387.7555 
L 178.640731 -387.7555 
L 176.563808 -387.7555 
z
"/>
    </defs>
    <g clip-path="url(#pb52172d6df)">
     <use xlink:href="#m4a9f488224" x="0" y="398.34866" style="fill: #d95f02; fill-opacity: 0.2"/>
    </g>
   </g>
   <g id="PolyCollection_58">
    <defs>
     <path id="m7e3320d0a5" d="M 178.640731 -387.7555 
L 178.640731 -55.1155 
L 180.717654 -55.1155 
L 180.717654 -387.7555 
L 180.717654 -387.7555 
L 178.640731 -387.7555 
z
"/>
    </defs>
    <g clip-path="url(#pb52172d6df)">
     <use xlink:href="#m7e3320d0a5" x="0" y="398.34866" style="fill: #1b9e77; fill-opacity: 0.2"/>
    </g>
   </g>
   <g id="PolyCollection_59">
    <defs>
     <path id="m68d573f362" d="M 180.717654 -387.7555 
L 180.717654 -55.1155 
L 182.794577 -55.1155 
L 182.794577 -387.7555 
L 182.794577 -387.7555 
L 180.717654 -387.7555 
z
"/>
    </defs>
    <g clip-path="url(#pb52172d6df)">
     <use xlink:href="#m68d573f362" x="0" y="398.34866" style="fill: #d95f02; fill-opacity: 0.2"/>
    </g>
   </g>
   <g id="PolyCollection_60">
    <defs>
     <path id="m84213ed25b" d="M 182.794577 -387.7555 
L 182.794577 -55.1155 
L 184.8715 -55.1155 
L 184.8715 -387.7555 
L 184.8715 -387.7555 
L 182.794577 -387.7555 
z
"/>
    </defs>
    <g clip-path="url(#pb52172d6df)">
     <use xlink:href="#m84213ed25b" x="0" y="398.34866" style="fill: #d95f02; fill-opacity: 0.2"/>
    </g>
   </g>
   <g id="PolyCollection_61">
    <defs>
     <path id="m69c9925c7d" d="M 184.8715 -387.7555 
L 184.8715 -55.1155 
L 186.948423 -55.1155 
L 186.948423 -387.7555 
L 186.948423 -387.7555 
L 184.8715 -387.7555 
z
"/>
    </defs>
    <g clip-path="url(#pb52172d6df)">
     <use xlink:href="#m69c9925c7d" x="0" y="398.34866" style="fill: #d95f02; fill-opacity: 0.2"/>
    </g>
   </g>
   <g id="PolyCollection_62">
    <defs>
     <path id="m29276437fa" d="M 186.948423 -387.7555 
L 186.948423 -55.1155 
L 189.025346 -55.1155 
L 189.025346 -387.7555 
L 189.025346 -387.7555 
L 186.948423 -387.7555 
z
"/>
    </defs>
    <g clip-path="url(#pb52172d6df)">
     <use xlink:href="#m29276437fa" x="0" y="398.34866" style="fill: #d95f02; fill-opacity: 0.2"/>
    </g>
   </g>
   <g id="PolyCollection_63">
    <defs>
     <path id="mfd45b8eabc" d="M 189.025346 -387.7555 
L 189.025346 -55.1155 
L 191.102269 -55.1155 
L 191.102269 -387.7555 
L 191.102269 -387.7555 
L 189.025346 -387.7555 
z
"/>
    </defs>
    <g clip-path="url(#pb52172d6df)">
     <use xlink:href="#mfd45b8eabc" x="0" y="398.34866" style="fill: #d95f02; fill-opacity: 0.2"/>
    </g>
   </g>
   <g id="PolyCollection_64">
    <defs>
     <path id="m30ca6debbd" d="M 191.102269 -387.7555 
L 191.102269 -55.1155 
L 193.179192 -55.1155 
L 193.179192 -387.7555 
L 193.179192 -387.7555 
L 191.102269 -387.7555 
z
"/>
    </defs>
    <g clip-path="url(#pb52172d6df)">
     <use xlink:href="#m30ca6debbd" x="0" y="398.34866" style="fill: #1b9e77; fill-opacity: 0.2"/>
    </g>
   </g>
   <g id="PolyCollection_65">
    <defs>
     <path id="m5d1da2db24" d="M 193.179192 -387.7555 
L 193.179192 -55.1155 
L 195.256115 -55.1155 
L 195.256115 -387.7555 
L 195.256115 -387.7555 
L 193.179192 -387.7555 
z
"/>
    </defs>
    <g clip-path="url(#pb52172d6df)">
     <use xlink:href="#m5d1da2db24" x="0" y="398.34866" style="fill: #d95f02; fill-opacity: 0.2"/>
    </g>
   </g>
   <g id="PolyCollection_66">
    <defs>
     <path id="m427603ed74" d="M 195.256115 -387.7555 
L 195.256115 -55.1155 
L 197.333038 -55.1155 
L 197.333038 -387.7555 
L 197.333038 -387.7555 
L 195.256115 -387.7555 
z
"/>
    </defs>
    <g clip-path="url(#pb52172d6df)">
     <use xlink:href="#m427603ed74" x="0" y="398.34866" style="fill: #d95f02; fill-opacity: 0.2"/>
    </g>
   </g>
   <g id="PolyCollection_67">
    <defs>
     <path id="mc481325d53" d="M 197.333038 -387.7555 
L 197.333038 -55.1155 
L 199.409962 -55.1155 
L 199.409962 -387.7555 
L 199.409962 -387.7555 
L 197.333038 -387.7555 
z
"/>
    </defs>
    <g clip-path="url(#pb52172d6df)">
     <use xlink:href="#mc481325d53" x="0" y="398.34866" style="fill: #1b9e77; fill-opacity: 0.2"/>
    </g>
   </g>
   <g id="PolyCollection_68">
    <defs>
     <path id="m6786c02592" d="M 199.409962 -387.7555 
L 199.409962 -55.1155 
L 201.486885 -55.1155 
L 201.486885 -387.7555 
L 201.486885 -387.7555 
L 199.409962 -387.7555 
z
"/>
    </defs>
    <g clip-path="url(#pb52172d6df)">
     <use xlink:href="#m6786c02592" x="0" y="398.34866" style="fill: #d95f02; fill-opacity: 0.2"/>
    </g>
   </g>
   <g id="PolyCollection_69">
    <defs>
     <path id="mf501af0de5" d="M 201.486885 -387.7555 
L 201.486885 -55.1155 
L 203.563808 -55.1155 
L 203.563808 -387.7555 
L 203.563808 -387.7555 
L 201.486885 -387.7555 
z
"/>
    </defs>
    <g clip-path="url(#pb52172d6df)">
     <use xlink:href="#mf501af0de5" x="0" y="398.34866" style="fill: #1b9e77; fill-opacity: 0.2"/>
    </g>
   </g>
   <g id="PolyCollection_70">
    <defs>
     <path id="m74ce08fd4c" d="M 203.563808 -387.7555 
L 203.563808 -55.1155 
L 205.640731 -55.1155 
L 205.640731 -387.7555 
L 205.640731 -387.7555 
L 203.563808 -387.7555 
z
"/>
    </defs>
    <g clip-path="url(#pb52172d6df)">
     <use xlink:href="#m74ce08fd4c" x="0" y="398.34866" style="fill: #d95f02; fill-opacity: 0.2"/>
    </g>
   </g>
   <g id="PolyCollection_71">
    <defs>
     <path id="m2d981dbdb6" d="M 205.640731 -387.7555 
L 205.640731 -55.1155 
L 207.717654 -55.1155 
L 207.717654 -387.7555 
L 207.717654 -387.7555 
L 205.640731 -387.7555 
z
"/>
    </defs>
    <g clip-path="url(#pb52172d6df)">
     <use xlink:href="#m2d981dbdb6" x="0" y="398.34866" style="fill: #d95f02; fill-opacity: 0.2"/>
    </g>
   </g>
   <g id="PolyCollection_72">
    <defs>
     <path id="mc526b43eb5" d="M 207.717654 -387.7555 
L 207.717654 -55.1155 
L 209.794577 -55.1155 
L 209.794577 -387.7555 
L 209.794577 -387.7555 
L 207.717654 -387.7555 
z
"/>
    </defs>
    <g clip-path="url(#pb52172d6df)">
     <use xlink:href="#mc526b43eb5" x="0" y="398.34866" style="fill: #1b9e77; fill-opacity: 0.2"/>
    </g>
   </g>
   <g id="PolyCollection_73">
    <defs>
     <path id="me91477b0ca" d="M 209.794577 -387.7555 
L 209.794577 -55.1155 
L 211.8715 -55.1155 
L 211.8715 -387.7555 
L 211.8715 -387.7555 
L 209.794577 -387.7555 
z
"/>
    </defs>
    <g clip-path="url(#pb52172d6df)">
     <use xlink:href="#me91477b0ca" x="0" y="398.34866" style="fill: #d95f02; fill-opacity: 0.2"/>
    </g>
   </g>
   <g id="PolyCollection_74">
    <defs>
     <path id="mf6dac59aca" d="M 211.8715 -387.7555 
L 211.8715 -55.1155 
L 213.948423 -55.1155 
L 213.948423 -387.7555 
L 213.948423 -387.7555 
L 211.8715 -387.7555 
z
"/>
    </defs>
    <g clip-path="url(#pb52172d6df)">
     <use xlink:href="#mf6dac59aca" x="0" y="398.34866" style="fill: #1b9e77; fill-opacity: 0.2"/>
    </g>
   </g>
   <g id="PolyCollection_75">
    <defs>
     <path id="m7729e2bd4b" d="M 213.948423 -387.7555 
L 213.948423 -55.1155 
L 216.025346 -55.1155 
L 216.025346 -387.7555 
L 216.025346 -387.7555 
L 213.948423 -387.7555 
z
"/>
    </defs>
    <g clip-path="url(#pb52172d6df)">
     <use xlink:href="#m7729e2bd4b" x="0" y="398.34866" style="fill: #d95f02; fill-opacity: 0.2"/>
    </g>
   </g>
   <g id="PolyCollection_76">
    <defs>
     <path id="md419cf32f2" d="M 216.025346 -387.7555 
L 216.025346 -55.1155 
L 218.102269 -55.1155 
L 218.102269 -387.7555 
L 218.102269 -387.7555 
L 216.025346 -387.7555 
z
"/>
    </defs>
    <g clip-path="url(#pb52172d6df)">
     <use xlink:href="#md419cf32f2" x="0" y="398.34866" style="fill: #d95f02; fill-opacity: 0.2"/>
    </g>
   </g>
   <g id="PolyCollection_77">
    <defs>
     <path id="m04f1eff68d" d="M 218.102269 -387.7555 
L 218.102269 -55.1155 
L 220.179192 -55.1155 
L 220.179192 -387.7555 
L 220.179192 -387.7555 
L 218.102269 -387.7555 
z
"/>
    </defs>
    <g clip-path="url(#pb52172d6df)">
     <use xlink:href="#m04f1eff68d" x="0" y="398.34866" style="fill: #d95f02; fill-opacity: 0.2"/>
    </g>
   </g>
   <g id="PolyCollection_78">
    <defs>
     <path id="m05d10c12f1" d="M 220.179192 -387.7555 
L 220.179192 -55.1155 
L 222.256115 -55.1155 
L 222.256115 -387.7555 
L 222.256115 -387.7555 
L 220.179192 -387.7555 
z
"/>
    </defs>
    <g clip-path="url(#pb52172d6df)">
     <use xlink:href="#m05d10c12f1" x="0" y="398.34866" style="fill: #d95f02; fill-opacity: 0.2"/>
    </g>
   </g>
   <g id="PolyCollection_79">
    <defs>
     <path id="m61354102a6" d="M 222.256115 -387.7555 
L 222.256115 -55.1155 
L 224.333038 -55.1155 
L 224.333038 -387.7555 
L 224.333038 -387.7555 
L 222.256115 -387.7555 
z
"/>
    </defs>
    <g clip-path="url(#pb52172d6df)">
     <use xlink:href="#m61354102a6" x="0" y="398.34866" style="fill: #d95f02; fill-opacity: 0.2"/>
    </g>
   </g>
   <g id="PolyCollection_80">
    <defs>
     <path id="mf06cf2ed33" d="M 224.333038 -387.7555 
L 224.333038 -55.1155 
L 226.409962 -55.1155 
L 226.409962 -387.7555 
L 226.409962 -387.7555 
L 224.333038 -387.7555 
z
"/>
    </defs>
    <g clip-path="url(#pb52172d6df)">
     <use xlink:href="#mf06cf2ed33" x="0" y="398.34866" style="fill: #d95f02; fill-opacity: 0.2"/>
    </g>
   </g>
   <g id="PolyCollection_81">
    <defs>
     <path id="me93e620f7a" d="M 226.409962 -387.7555 
L 226.409962 -55.1155 
L 228.486885 -55.1155 
L 228.486885 -387.7555 
L 228.486885 -387.7555 
L 226.409962 -387.7555 
z
"/>
    </defs>
    <g clip-path="url(#pb52172d6df)">
     <use xlink:href="#me93e620f7a" x="0" y="398.34866" style="fill: #d95f02; fill-opacity: 0.2"/>
    </g>
   </g>
   <g id="PolyCollection_82">
    <defs>
     <path id="m3e832fb58c" d="M 228.486885 -387.7555 
L 228.486885 -55.1155 
L 230.563808 -55.1155 
L 230.563808 -387.7555 
L 230.563808 -387.7555 
L 228.486885 -387.7555 
z
"/>
    </defs>
    <g clip-path="url(#pb52172d6df)">
     <use xlink:href="#m3e832fb58c" x="0" y="398.34866" style="fill: #d95f02; fill-opacity: 0.2"/>
    </g>
   </g>
   <g id="PolyCollection_83">
    <defs>
     <path id="m61bb976708" d="M 230.563808 -387.7555 
L 230.563808 -55.1155 
L 232.640731 -55.1155 
L 232.640731 -387.7555 
L 232.640731 -387.7555 
L 230.563808 -387.7555 
z
"/>
    </defs>
    <g clip-path="url(#pb52172d6df)">
     <use xlink:href="#m61bb976708" x="0" y="398.34866" style="fill: #d95f02; fill-opacity: 0.2"/>
    </g>
   </g>
   <g id="PolyCollection_84">
    <defs>
     <path id="me010a1f4d5" d="M 232.640731 -387.7555 
L 232.640731 -55.1155 
L 234.717654 -55.1155 
L 234.717654 -387.7555 
L 234.717654 -387.7555 
L 232.640731 -387.7555 
z
"/>
    </defs>
    <g clip-path="url(#pb52172d6df)">
     <use xlink:href="#me010a1f4d5" x="0" y="398.34866" style="fill: #d95f02; fill-opacity: 0.2"/>
    </g>
   </g>
   <g id="PolyCollection_85">
    <defs>
     <path id="m3847455630" d="M 234.717654 -387.7555 
L 234.717654 -55.1155 
L 236.794577 -55.1155 
L 236.794577 -387.7555 
L 236.794577 -387.7555 
L 234.717654 -387.7555 
z
"/>
    </defs>
    <g clip-path="url(#pb52172d6df)">
     <use xlink:href="#m3847455630" x="0" y="398.34866" style="fill: #d95f02; fill-opacity: 0.2"/>
    </g>
   </g>
   <g id="PolyCollection_86">
    <defs>
     <path id="m604ee2c463" d="M 236.794577 -387.7555 
L 236.794577 -55.1155 
L 238.8715 -55.1155 
L 238.8715 -387.7555 
L 238.8715 -387.7555 
L 236.794577 -387.7555 
z
"/>
    </defs>
    <g clip-path="url(#pb52172d6df)">
     <use xlink:href="#m604ee2c463" x="0" y="398.34866" style="fill: #d95f02; fill-opacity: 0.2"/>
    </g>
   </g>
   <g id="PolyCollection_87">
    <defs>
     <path id="maa00d73155" d="M 238.8715 -387.7555 
L 238.8715 -55.1155 
L 240.948423 -55.1155 
L 240.948423 -387.7555 
L 240.948423 -387.7555 
L 238.8715 -387.7555 
z
"/>
    </defs>
    <g clip-path="url(#pb52172d6df)">
     <use xlink:href="#maa00d73155" x="0" y="398.34866" style="fill: #d95f02; fill-opacity: 0.2"/>
    </g>
   </g>
   <g id="PolyCollection_88">
    <defs>
     <path id="md109b79874" d="M 240.948423 -387.7555 
L 240.948423 -55.1155 
L 243.025346 -55.1155 
L 243.025346 -387.7555 
L 243.025346 -387.7555 
L 240.948423 -387.7555 
z
"/>
    </defs>
    <g clip-path="url(#pb52172d6df)">
     <use xlink:href="#md109b79874" x="0" y="398.34866" style="fill: #d95f02; fill-opacity: 0.2"/>
    </g>
   </g>
   <g id="PolyCollection_89">
    <defs>
     <path id="mac0236a207" d="M 243.025346 -387.7555 
L 243.025346 -55.1155 
L 245.102269 -55.1155 
L 245.102269 -387.7555 
L 245.102269 -387.7555 
L 243.025346 -387.7555 
z
"/>
    </defs>
    <g clip-path="url(#pb52172d6df)">
     <use xlink:href="#mac0236a207" x="0" y="398.34866" style="fill: #d95f02; fill-opacity: 0.2"/>
    </g>
   </g>
   <g id="PolyCollection_90">
    <defs>
     <path id="m59f253e937" d="M 245.102269 -387.7555 
L 245.102269 -55.1155 
L 247.179192 -55.1155 
L 247.179192 -387.7555 
L 247.179192 -387.7555 
L 245.102269 -387.7555 
z
"/>
    </defs>
    <g clip-path="url(#pb52172d6df)">
     <use xlink:href="#m59f253e937" x="0" y="398.34866" style="fill: #1b9e77; fill-opacity: 0.2"/>
    </g>
   </g>
   <g id="PolyCollection_91">
    <defs>
     <path id="m8b043864c4" d="M 247.179192 -387.7555 
L 247.179192 -55.1155 
L 249.256115 -55.1155 
L 249.256115 -387.7555 
L 249.256115 -387.7555 
L 247.179192 -387.7555 
z
"/>
    </defs>
    <g clip-path="url(#pb52172d6df)">
     <use xlink:href="#m8b043864c4" x="0" y="398.34866" style="fill: #d95f02; fill-opacity: 0.2"/>
    </g>
   </g>
   <g id="PolyCollection_92">
    <defs>
     <path id="m7aae798f5e" d="M 249.256115 -387.7555 
L 249.256115 -55.1155 
L 251.333038 -55.1155 
L 251.333038 -387.7555 
L 251.333038 -387.7555 
L 249.256115 -387.7555 
z
"/>
    </defs>
    <g clip-path="url(#pb52172d6df)">
     <use xlink:href="#m7aae798f5e" x="0" y="398.34866" style="fill: #d95f02; fill-opacity: 0.2"/>
    </g>
   </g>
   <g id="PolyCollection_93">
    <defs>
     <path id="m9cef1e2f45" d="M 251.333038 -387.7555 
L 251.333038 -55.1155 
L 253.409962 -55.1155 
L 253.409962 -387.7555 
L 253.409962 -387.7555 
L 251.333038 -387.7555 
z
"/>
    </defs>
    <g clip-path="url(#pb52172d6df)">
     <use xlink:href="#m9cef1e2f45" x="0" y="398.34866" style="fill: #d95f02; fill-opacity: 0.2"/>
    </g>
   </g>
   <g id="PolyCollection_94">
    <defs>
     <path id="m88e4772095" d="M 253.409962 -387.7555 
L 253.409962 -55.1155 
L 255.486885 -55.1155 
L 255.486885 -387.7555 
L 255.486885 -387.7555 
L 253.409962 -387.7555 
z
"/>
    </defs>
    <g clip-path="url(#pb52172d6df)">
     <use xlink:href="#m88e4772095" x="0" y="398.34866" style="fill: #d95f02; fill-opacity: 0.2"/>
    </g>
   </g>
   <g id="PolyCollection_95">
    <defs>
     <path id="me3307a3ace" d="M 255.486885 -387.7555 
L 255.486885 -55.1155 
L 257.563808 -55.1155 
L 257.563808 -387.7555 
L 257.563808 -387.7555 
L 255.486885 -387.7555 
z
"/>
    </defs>
    <g clip-path="url(#pb52172d6df)">
     <use xlink:href="#me3307a3ace" x="0" y="398.34866" style="fill: #d95f02; fill-opacity: 0.2"/>
    </g>
   </g>
   <g id="PolyCollection_96">
    <defs>
     <path id="mab628aac82" d="M 257.563808 -387.7555 
L 257.563808 -55.1155 
L 259.640731 -55.1155 
L 259.640731 -387.7555 
L 259.640731 -387.7555 
L 257.563808 -387.7555 
z
"/>
    </defs>
    <g clip-path="url(#pb52172d6df)">
     <use xlink:href="#mab628aac82" x="0" y="398.34866" style="fill: #d95f02; fill-opacity: 0.2"/>
    </g>
   </g>
   <g id="PolyCollection_97">
    <defs>
     <path id="m6cfc577625" d="M 259.640731 -387.7555 
L 259.640731 -55.1155 
L 261.717654 -55.1155 
L 261.717654 -387.7555 
L 261.717654 -387.7555 
L 259.640731 -387.7555 
z
"/>
    </defs>
    <g clip-path="url(#pb52172d6df)">
     <use xlink:href="#m6cfc577625" x="0" y="398.34866" style="fill: #d95f02; fill-opacity: 0.2"/>
    </g>
   </g>
   <g id="PolyCollection_98">
    <defs>
     <path id="ma4a049ea3a" d="M 261.717654 -387.7555 
L 261.717654 -55.1155 
L 263.794577 -55.1155 
L 263.794577 -387.7555 
L 263.794577 -387.7555 
L 261.717654 -387.7555 
z
"/>
    </defs>
    <g clip-path="url(#pb52172d6df)">
     <use xlink:href="#ma4a049ea3a" x="0" y="398.34866" style="fill: #d95f02; fill-opacity: 0.2"/>
    </g>
   </g>
   <g id="PolyCollection_99">
    <defs>
     <path id="m19077d876a" d="M 263.794577 -387.7555 
L 263.794577 -55.1155 
L 265.8715 -55.1155 
L 265.8715 -387.7555 
L 265.8715 -387.7555 
L 263.794577 -387.7555 
z
"/>
    </defs>
    <g clip-path="url(#pb52172d6df)">
     <use xlink:href="#m19077d876a" x="0" y="398.34866" style="fill: #d95f02; fill-opacity: 0.2"/>
    </g>
   </g>
   <g id="PolyCollection_100">
    <defs>
     <path id="m7468e6ff37" d="M 265.8715 -387.7555 
L 265.8715 -55.1155 
L 267.948423 -55.1155 
L 267.948423 -387.7555 
L 267.948423 -387.7555 
L 265.8715 -387.7555 
z
"/>
    </defs>
    <g clip-path="url(#pb52172d6df)">
     <use xlink:href="#m7468e6ff37" x="0" y="398.34866" style="fill: #d95f02; fill-opacity: 0.2"/>
    </g>
   </g>
   <g id="PolyCollection_101">
    <defs>
     <path id="m0c24abc450" d="M 267.948423 -387.7555 
L 267.948423 -55.1155 
L 270.025346 -55.1155 
L 270.025346 -387.7555 
L 270.025346 -387.7555 
L 267.948423 -387.7555 
z
"/>
    </defs>
    <g clip-path="url(#pb52172d6df)">
     <use xlink:href="#m0c24abc450" x="0" y="398.34866" style="fill: #d95f02; fill-opacity: 0.2"/>
    </g>
   </g>
   <g id="PolyCollection_102">
    <defs>
     <path id="mc10ca15684" d="M 270.025346 -387.7555 
L 270.025346 -55.1155 
L 272.102269 -55.1155 
L 272.102269 -387.7555 
L 272.102269 -387.7555 
L 270.025346 -387.7555 
z
"/>
    </defs>
    <g clip-path="url(#pb52172d6df)">
     <use xlink:href="#mc10ca15684" x="0" y="398.34866" style="fill: #d95f02; fill-opacity: 0.2"/>
    </g>
   </g>
   <g id="PolyCollection_103">
    <defs>
     <path id="mccfd35354c" d="M 272.102269 -387.7555 
L 272.102269 -55.1155 
L 274.179192 -55.1155 
L 274.179192 -387.7555 
L 274.179192 -387.7555 
L 272.102269 -387.7555 
z
"/>
    </defs>
    <g clip-path="url(#pb52172d6df)">
     <use xlink:href="#mccfd35354c" x="0" y="398.34866" style="fill: #d95f02; fill-opacity: 0.2"/>
    </g>
   </g>
   <g id="PolyCollection_104">
    <defs>
     <path id="mf23069cf73" d="M 274.179192 -387.7555 
L 274.179192 -55.1155 
L 276.256115 -55.1155 
L 276.256115 -387.7555 
L 276.256115 -387.7555 
L 274.179192 -387.7555 
z
"/>
    </defs>
    <g clip-path="url(#pb52172d6df)">
     <use xlink:href="#mf23069cf73" x="0" y="398.34866" style="fill: #d95f02; fill-opacity: 0.2"/>
    </g>
   </g>
   <g id="PolyCollection_105">
    <defs>
     <path id="m63913c8e65" d="M 276.256115 -387.7555 
L 276.256115 -55.1155 
L 278.333038 -55.1155 
L 278.333038 -387.7555 
L 278.333038 -387.7555 
L 276.256115 -387.7555 
z
"/>
    </defs>
    <g clip-path="url(#pb52172d6df)">
     <use xlink:href="#m63913c8e65" x="0" y="398.34866" style="fill: #d95f02; fill-opacity: 0.2"/>
    </g>
   </g>
   <g id="PolyCollection_106">
    <defs>
     <path id="m29a1a17b82" d="M 278.333038 -387.7555 
L 278.333038 -55.1155 
L 280.409962 -55.1155 
L 280.409962 -387.7555 
L 280.409962 -387.7555 
L 278.333038 -387.7555 
z
"/>
    </defs>
    <g clip-path="url(#pb52172d6df)">
     <use xlink:href="#m29a1a17b82" x="0" y="398.34866" style="fill: #d95f02; fill-opacity: 0.2"/>
    </g>
   </g>
   <g id="PolyCollection_107">
    <defs>
     <path id="mf454e79170" d="M 280.409962 -387.7555 
L 280.409962 -55.1155 
L 282.486885 -55.1155 
L 282.486885 -387.7555 
L 282.486885 -387.7555 
L 280.409962 -387.7555 
z
"/>
    </defs>
    <g clip-path="url(#pb52172d6df)">
     <use xlink:href="#mf454e79170" x="0" y="398.34866" style="fill: #d95f02; fill-opacity: 0.2"/>
    </g>
   </g>
   <g id="PolyCollection_108">
    <defs>
     <path id="m8203fdf87a" d="M 282.486885 -387.7555 
L 282.486885 -55.1155 
L 284.563808 -55.1155 
L 284.563808 -387.7555 
L 284.563808 -387.7555 
L 282.486885 -387.7555 
z
"/>
    </defs>
    <g clip-path="url(#pb52172d6df)">
     <use xlink:href="#m8203fdf87a" x="0" y="398.34866" style="fill: #d95f02; fill-opacity: 0.2"/>
    </g>
   </g>
   <g id="PolyCollection_109">
    <defs>
     <path id="m153382a4a2" d="M 284.563808 -387.7555 
L 284.563808 -55.1155 
L 286.640731 -55.1155 
L 286.640731 -387.7555 
L 286.640731 -387.7555 
L 284.563808 -387.7555 
z
"/>
    </defs>
    <g clip-path="url(#pb52172d6df)">
     <use xlink:href="#m153382a4a2" x="0" y="398.34866" style="fill: #d95f02; fill-opacity: 0.2"/>
    </g>
   </g>
   <g id="PolyCollection_110">
    <defs>
     <path id="m3f413c9e48" d="M 286.640731 -387.7555 
L 286.640731 -55.1155 
L 288.717654 -55.1155 
L 288.717654 -387.7555 
L 288.717654 -387.7555 
L 286.640731 -387.7555 
z
"/>
    </defs>
    <g clip-path="url(#pb52172d6df)">
     <use xlink:href="#m3f413c9e48" x="0" y="398.34866" style="fill: #d95f02; fill-opacity: 0.2"/>
    </g>
   </g>
   <g id="PolyCollection_111">
    <defs>
     <path id="me45e61b344" d="M 288.717654 -387.7555 
L 288.717654 -55.1155 
L 290.794577 -55.1155 
L 290.794577 -387.7555 
L 290.794577 -387.7555 
L 288.717654 -387.7555 
z
"/>
    </defs>
    <g clip-path="url(#pb52172d6df)">
     <use xlink:href="#me45e61b344" x="0" y="398.34866" style="fill: #d95f02; fill-opacity: 0.2"/>
    </g>
   </g>
   <g id="PolyCollection_112">
    <defs>
     <path id="m9832e71799" d="M 290.794577 -387.7555 
L 290.794577 -55.1155 
L 292.8715 -55.1155 
L 292.8715 -387.7555 
L 292.8715 -387.7555 
L 290.794577 -387.7555 
z
"/>
    </defs>
    <g clip-path="url(#pb52172d6df)">
     <use xlink:href="#m9832e71799" x="0" y="398.34866" style="fill: #d95f02; fill-opacity: 0.2"/>
    </g>
   </g>
   <g id="PolyCollection_113">
    <defs>
     <path id="m5af4998e2b" d="M 292.8715 -387.7555 
L 292.8715 -55.1155 
L 294.948423 -55.1155 
L 294.948423 -387.7555 
L 294.948423 -387.7555 
L 292.8715 -387.7555 
z
"/>
    </defs>
    <g clip-path="url(#pb52172d6df)">
     <use xlink:href="#m5af4998e2b" x="0" y="398.34866" style="fill: #d95f02; fill-opacity: 0.2"/>
    </g>
   </g>
   <g id="PolyCollection_114">
    <defs>
     <path id="mca0541fb60" d="M 294.948423 -387.7555 
L 294.948423 -55.1155 
L 297.025346 -55.1155 
L 297.025346 -387.7555 
L 297.025346 -387.7555 
L 294.948423 -387.7555 
z
"/>
    </defs>
    <g clip-path="url(#pb52172d6df)">
     <use xlink:href="#mca0541fb60" x="0" y="398.34866" style="fill: #d95f02; fill-opacity: 0.2"/>
    </g>
   </g>
   <g id="PolyCollection_115">
    <defs>
     <path id="md0860d77d8" d="M 297.025346 -387.7555 
L 297.025346 -55.1155 
L 299.102269 -55.1155 
L 299.102269 -387.7555 
L 299.102269 -387.7555 
L 297.025346 -387.7555 
z
"/>
    </defs>
    <g clip-path="url(#pb52172d6df)">
     <use xlink:href="#md0860d77d8" x="0" y="398.34866" style="fill: #d95f02; fill-opacity: 0.2"/>
    </g>
   </g>
   <g id="PolyCollection_116">
    <defs>
     <path id="mf59fdab04c" d="M 299.102269 -387.7555 
L 299.102269 -55.1155 
L 301.179192 -55.1155 
L 301.179192 -387.7555 
L 301.179192 -387.7555 
L 299.102269 -387.7555 
z
"/>
    </defs>
    <g clip-path="url(#pb52172d6df)">
     <use xlink:href="#mf59fdab04c" x="0" y="398.34866" style="fill: #d95f02; fill-opacity: 0.2"/>
    </g>
   </g>
   <g id="PolyCollection_117">
    <defs>
     <path id="me7af9681ee" d="M 301.179192 -387.7555 
L 301.179192 -55.1155 
L 303.256115 -55.1155 
L 303.256115 -387.7555 
L 303.256115 -387.7555 
L 301.179192 -387.7555 
z
"/>
    </defs>
    <g clip-path="url(#pb52172d6df)">
     <use xlink:href="#me7af9681ee" x="0" y="398.34866" style="fill: #d95f02; fill-opacity: 0.2"/>
    </g>
   </g>
   <g id="PolyCollection_118">
    <defs>
     <path id="m013170a94b" d="M 303.256115 -387.7555 
L 303.256115 -55.1155 
L 305.333038 -55.1155 
L 305.333038 -387.7555 
L 305.333038 -387.7555 
L 303.256115 -387.7555 
z
"/>
    </defs>
    <g clip-path="url(#pb52172d6df)">
     <use xlink:href="#m013170a94b" x="0" y="398.34866" style="fill: #d95f02; fill-opacity: 0.2"/>
    </g>
   </g>
   <g id="PolyCollection_119">
    <defs>
     <path id="m1701ee548f" d="M 305.333038 -387.7555 
L 305.333038 -55.1155 
L 307.409962 -55.1155 
L 307.409962 -387.7555 
L 307.409962 -387.7555 
L 305.333038 -387.7555 
z
"/>
    </defs>
    <g clip-path="url(#pb52172d6df)">
     <use xlink:href="#m1701ee548f" x="0" y="398.34866" style="fill: #d95f02; fill-opacity: 0.2"/>
    </g>
   </g>
   <g id="PolyCollection_120">
    <defs>
     <path id="mde26b03e6b" d="M 307.409962 -387.7555 
L 307.409962 -55.1155 
L 309.486885 -55.1155 
L 309.486885 -387.7555 
L 309.486885 -387.7555 
L 307.409962 -387.7555 
z
"/>
    </defs>
    <g clip-path="url(#pb52172d6df)">
     <use xlink:href="#mde26b03e6b" x="0" y="398.34866" style="fill: #d95f02; fill-opacity: 0.2"/>
    </g>
   </g>
   <g id="PolyCollection_121">
    <defs>
     <path id="mc54d91e915" d="M 309.486885 -387.7555 
L 309.486885 -55.1155 
L 311.563808 -55.1155 
L 311.563808 -387.7555 
L 311.563808 -387.7555 
L 309.486885 -387.7555 
z
"/>
    </defs>
    <g clip-path="url(#pb52172d6df)">
     <use xlink:href="#mc54d91e915" x="0" y="398.34866" style="fill: #d95f02; fill-opacity: 0.2"/>
    </g>
   </g>
   <g id="PolyCollection_122">
    <defs>
     <path id="m84bdbee72d" d="M 311.563808 -387.7555 
L 311.563808 -55.1155 
L 313.640731 -55.1155 
L 313.640731 -387.7555 
L 313.640731 -387.7555 
L 311.563808 -387.7555 
z
"/>
    </defs>
    <g clip-path="url(#pb52172d6df)">
     <use xlink:href="#m84bdbee72d" x="0" y="398.34866" style="fill: #d95f02; fill-opacity: 0.2"/>
    </g>
   </g>
   <g id="PolyCollection_123">
    <defs>
     <path id="m9e33f440cf" d="M 313.640731 -387.7555 
L 313.640731 -55.1155 
L 315.717654 -55.1155 
L 315.717654 -387.7555 
L 315.717654 -387.7555 
L 313.640731 -387.7555 
z
"/>
    </defs>
    <g clip-path="url(#pb52172d6df)">
     <use xlink:href="#m9e33f440cf" x="0" y="398.34866" style="fill: #d95f02; fill-opacity: 0.2"/>
    </g>
   </g>
   <g id="PolyCollection_124">
    <defs>
     <path id="m1d40c5227d" d="M 315.717654 -387.7555 
L 315.717654 -55.1155 
L 317.794577 -55.1155 
L 317.794577 -387.7555 
L 317.794577 -387.7555 
L 315.717654 -387.7555 
z
"/>
    </defs>
    <g clip-path="url(#pb52172d6df)">
     <use xlink:href="#m1d40c5227d" x="0" y="398.34866" style="fill: #d95f02; fill-opacity: 0.2"/>
    </g>
   </g>
   <g id="PolyCollection_125">
    <defs>
     <path id="m63a9f3d7b0" d="M 317.794577 -387.7555 
L 317.794577 -55.1155 
L 319.8715 -55.1155 
L 319.8715 -387.7555 
L 319.8715 -387.7555 
L 317.794577 -387.7555 
z
"/>
    </defs>
    <g clip-path="url(#pb52172d6df)">
     <use xlink:href="#m63a9f3d7b0" x="0" y="398.34866" style="fill: #d95f02; fill-opacity: 0.2"/>
    </g>
   </g>
   <g id="PolyCollection_126">
    <defs>
     <path id="m8ccedd1ad1" d="M 319.8715 -387.7555 
L 319.8715 -55.1155 
L 321.948423 -55.1155 
L 321.948423 -387.7555 
L 321.948423 -387.7555 
L 319.8715 -387.7555 
z
"/>
    </defs>
    <g clip-path="url(#pb52172d6df)">
     <use xlink:href="#m8ccedd1ad1" x="0" y="398.34866" style="fill: #d95f02; fill-opacity: 0.2"/>
    </g>
   </g>
   <g id="PolyCollection_127">
    <defs>
     <path id="m37886a5a55" d="M 321.948423 -387.7555 
L 321.948423 -55.1155 
L 324.025346 -55.1155 
L 324.025346 -387.7555 
L 324.025346 -387.7555 
L 321.948423 -387.7555 
z
"/>
    </defs>
    <g clip-path="url(#pb52172d6df)">
     <use xlink:href="#m37886a5a55" x="0" y="398.34866" style="fill: #d95f02; fill-opacity: 0.2"/>
    </g>
   </g>
   <g id="PolyCollection_128">
    <defs>
     <path id="md3a6eefe5a" d="M 324.025346 -387.7555 
L 324.025346 -55.1155 
L 326.102269 -55.1155 
L 326.102269 -387.7555 
L 326.102269 -387.7555 
L 324.025346 -387.7555 
z
"/>
    </defs>
    <g clip-path="url(#pb52172d6df)">
     <use xlink:href="#md3a6eefe5a" x="0" y="398.34866" style="fill: #1b9e77; fill-opacity: 0.2"/>
    </g>
   </g>
   <g id="PolyCollection_129">
    <defs>
     <path id="mc5b1fd3035" d="M 326.102269 -387.7555 
L 326.102269 -55.1155 
L 328.179192 -55.1155 
L 328.179192 -387.7555 
L 328.179192 -387.7555 
L 326.102269 -387.7555 
z
"/>
    </defs>
    <g clip-path="url(#pb52172d6df)">
     <use xlink:href="#mc5b1fd3035" x="0" y="398.34866" style="fill: #d95f02; fill-opacity: 0.2"/>
    </g>
   </g>
   <g id="PolyCollection_130">
    <defs>
     <path id="m55eb98e993" d="M 328.179192 -387.7555 
L 328.179192 -55.1155 
L 330.256115 -55.1155 
L 330.256115 -387.7555 
L 330.256115 -387.7555 
L 328.179192 -387.7555 
z
"/>
    </defs>
    <g clip-path="url(#pb52172d6df)">
     <use xlink:href="#m55eb98e993" x="0" y="398.34866" style="fill: #d95f02; fill-opacity: 0.2"/>
    </g>
   </g>
   <g id="PolyCollection_131">
    <defs>
     <path id="ma269bd45bd" d="M 330.256115 -387.7555 
L 330.256115 -55.1155 
L 332.333038 -55.1155 
L 332.333038 -387.7555 
L 332.333038 -387.7555 
L 330.256115 -387.7555 
z
"/>
    </defs>
    <g clip-path="url(#pb52172d6df)">
     <use xlink:href="#ma269bd45bd" x="0" y="398.34866" style="fill: #1b9e77; fill-opacity: 0.2"/>
    </g>
   </g>
   <g id="PolyCollection_132">
    <defs>
     <path id="m1f0b853034" d="M 332.333038 -387.7555 
L 332.333038 -55.1155 
L 334.409962 -55.1155 
L 334.409962 -387.7555 
L 334.409962 -387.7555 
L 332.333038 -387.7555 
z
"/>
    </defs>
    <g clip-path="url(#pb52172d6df)">
     <use xlink:href="#m1f0b853034" x="0" y="398.34866" style="fill: #1b9e77; fill-opacity: 0.2"/>
    </g>
   </g>
   <g id="PolyCollection_133">
    <defs>
     <path id="m273df98bfe" d="M 334.409962 -387.7555 
L 334.409962 -55.1155 
L 336.486885 -55.1155 
L 336.486885 -387.7555 
L 336.486885 -387.7555 
L 334.409962 -387.7555 
z
"/>
    </defs>
    <g clip-path="url(#pb52172d6df)">
     <use xlink:href="#m273df98bfe" x="0" y="398.34866" style="fill: #d95f02; fill-opacity: 0.2"/>
    </g>
   </g>
   <g id="PolyCollection_134">
    <defs>
     <path id="m274f0b828d" d="M 336.486885 -387.7555 
L 336.486885 -55.1155 
L 338.563808 -55.1155 
L 338.563808 -387.7555 
L 338.563808 -387.7555 
L 336.486885 -387.7555 
z
"/>
    </defs>
    <g clip-path="url(#pb52172d6df)">
     <use xlink:href="#m274f0b828d" x="0" y="398.34866" style="fill: #1b9e77; fill-opacity: 0.2"/>
    </g>
   </g>
   <g id="PolyCollection_135">
    <defs>
     <path id="m2933d00690" d="M 338.563808 -387.7555 
L 338.563808 -55.1155 
L 340.640731 -55.1155 
L 340.640731 -387.7555 
L 340.640731 -387.7555 
L 338.563808 -387.7555 
z
"/>
    </defs>
    <g clip-path="url(#pb52172d6df)">
     <use xlink:href="#m2933d00690" x="0" y="398.34866" style="fill: #d95f02; fill-opacity: 0.2"/>
    </g>
   </g>
   <g id="PolyCollection_136">
    <defs>
     <path id="m2f31f80931" d="M 340.640731 -387.7555 
L 340.640731 -55.1155 
L 342.717654 -55.1155 
L 342.717654 -387.7555 
L 342.717654 -387.7555 
L 340.640731 -387.7555 
z
"/>
    </defs>
    <g clip-path="url(#pb52172d6df)">
     <use xlink:href="#m2f31f80931" x="0" y="398.34866" style="fill: #1b9e77; fill-opacity: 0.2"/>
    </g>
   </g>
   <g id="PolyCollection_137">
    <defs>
     <path id="m3d85b13f32" d="M 342.717654 -387.7555 
L 342.717654 -55.1155 
L 344.794577 -55.1155 
L 344.794577 -387.7555 
L 344.794577 -387.7555 
L 342.717654 -387.7555 
z
"/>
    </defs>
    <g clip-path="url(#pb52172d6df)">
     <use xlink:href="#m3d85b13f32" x="0" y="398.34866" style="fill: #1b9e77; fill-opacity: 0.2"/>
    </g>
   </g>
   <g id="PolyCollection_138">
    <defs>
     <path id="m7c14eb236e" d="M 344.794577 -387.7555 
L 344.794577 -55.1155 
L 346.8715 -55.1155 
L 346.8715 -387.7555 
L 346.8715 -387.7555 
L 344.794577 -387.7555 
z
"/>
    </defs>
    <g clip-path="url(#pb52172d6df)">
     <use xlink:href="#m7c14eb236e" x="0" y="398.34866" style="fill: #d95f02; fill-opacity: 0.2"/>
    </g>
   </g>
   <g id="PolyCollection_139">
    <defs>
     <path id="m201416632f" d="M 346.8715 -387.7555 
L 346.8715 -55.1155 
L 348.948423 -55.1155 
L 348.948423 -387.7555 
L 348.948423 -387.7555 
L 346.8715 -387.7555 
z
"/>
    </defs>
    <g clip-path="url(#pb52172d6df)">
     <use xlink:href="#m201416632f" x="0" y="398.34866" style="fill: #d95f02; fill-opacity: 0.2"/>
    </g>
   </g>
   <g id="PolyCollection_140">
    <defs>
     <path id="m8040d012a4" d="M 348.948423 -387.7555 
L 348.948423 -55.1155 
L 351.025346 -55.1155 
L 351.025346 -387.7555 
L 351.025346 -387.7555 
L 348.948423 -387.7555 
z
"/>
    </defs>
    <g clip-path="url(#pb52172d6df)">
     <use xlink:href="#m8040d012a4" x="0" y="398.34866" style="fill: #1b9e77; fill-opacity: 0.2"/>
    </g>
   </g>
   <g id="PolyCollection_141">
    <defs>
     <path id="m7c3ad3c44c" d="M 351.025346 -387.7555 
L 351.025346 -55.1155 
L 353.102269 -55.1155 
L 353.102269 -387.7555 
L 353.102269 -387.7555 
L 351.025346 -387.7555 
z
"/>
    </defs>
    <g clip-path="url(#pb52172d6df)">
     <use xlink:href="#m7c3ad3c44c" x="0" y="398.34866" style="fill: #1b9e77; fill-opacity: 0.2"/>
    </g>
   </g>
   <g id="PolyCollection_142">
    <defs>
     <path id="m37c96f7126" d="M 353.102269 -387.7555 
L 353.102269 -55.1155 
L 355.179192 -55.1155 
L 355.179192 -387.7555 
L 355.179192 -387.7555 
L 353.102269 -387.7555 
z
"/>
    </defs>
    <g clip-path="url(#pb52172d6df)">
     <use xlink:href="#m37c96f7126" x="0" y="398.34866" style="fill: #d95f02; fill-opacity: 0.2"/>
    </g>
   </g>
   <g id="PolyCollection_143">
    <defs>
     <path id="m157ee4355a" d="M 355.179192 -387.7555 
L 355.179192 -55.1155 
L 357.256115 -55.1155 
L 357.256115 -387.7555 
L 357.256115 -387.7555 
L 355.179192 -387.7555 
z
"/>
    </defs>
    <g clip-path="url(#pb52172d6df)">
     <use xlink:href="#m157ee4355a" x="0" y="398.34866" style="fill: #1b9e77; fill-opacity: 0.2"/>
    </g>
   </g>
   <g id="PolyCollection_144">
    <defs>
     <path id="m3e625cae22" d="M 357.256115 -387.7555 
L 357.256115 -55.1155 
L 359.333038 -55.1155 
L 359.333038 -387.7555 
L 359.333038 -387.7555 
L 357.256115 -387.7555 
z
"/>
    </defs>
    <g clip-path="url(#pb52172d6df)">
     <use xlink:href="#m3e625cae22" x="0" y="398.34866" style="fill: #d95f02; fill-opacity: 0.2"/>
    </g>
   </g>
   <g id="PolyCollection_145">
    <defs>
     <path id="m84dc0c6a4d" d="M 359.333038 -387.7555 
L 359.333038 -55.1155 
L 361.409962 -55.1155 
L 361.409962 -387.7555 
L 361.409962 -387.7555 
L 359.333038 -387.7555 
z
"/>
    </defs>
    <g clip-path="url(#pb52172d6df)">
     <use xlink:href="#m84dc0c6a4d" x="0" y="398.34866" style="fill: #d95f02; fill-opacity: 0.2"/>
    </g>
   </g>
   <g id="PolyCollection_146">
    <defs>
     <path id="m0ac4d0d8fc" d="M 361.409962 -387.7555 
L 361.409962 -55.1155 
L 363.486885 -55.1155 
L 363.486885 -387.7555 
L 363.486885 -387.7555 
L 361.409962 -387.7555 
z
"/>
    </defs>
    <g clip-path="url(#pb52172d6df)">
     <use xlink:href="#m0ac4d0d8fc" x="0" y="398.34866" style="fill: #d95f02; fill-opacity: 0.2"/>
    </g>
   </g>
   <g id="PolyCollection_147">
    <defs>
     <path id="md1bd1c06a9" d="M 363.486885 -387.7555 
L 363.486885 -55.1155 
L 365.563808 -55.1155 
L 365.563808 -387.7555 
L 365.563808 -387.7555 
L 363.486885 -387.7555 
z
"/>
    </defs>
    <g clip-path="url(#pb52172d6df)">
     <use xlink:href="#md1bd1c06a9" x="0" y="398.34866" style="fill: #d95f02; fill-opacity: 0.2"/>
    </g>
   </g>
   <g id="PolyCollection_148">
    <defs>
     <path id="mac8e3caed4" d="M 365.563808 -387.7555 
L 365.563808 -55.1155 
L 367.640731 -55.1155 
L 367.640731 -387.7555 
L 367.640731 -387.7555 
L 365.563808 -387.7555 
z
"/>
    </defs>
    <g clip-path="url(#pb52172d6df)">
     <use xlink:href="#mac8e3caed4" x="0" y="398.34866" style="fill: #1b9e77; fill-opacity: 0.2"/>
    </g>
   </g>
   <g id="PolyCollection_149">
    <defs>
     <path id="m8b464cf6a3" d="M 367.640731 -387.7555 
L 367.640731 -55.1155 
L 369.717654 -55.1155 
L 369.717654 -387.7555 
L 369.717654 -387.7555 
L 367.640731 -387.7555 
z
"/>
    </defs>
    <g clip-path="url(#pb52172d6df)">
     <use xlink:href="#m8b464cf6a3" x="0" y="398.34866" style="fill: #d95f02; fill-opacity: 0.2"/>
    </g>
   </g>
   <g id="PolyCollection_150">
    <defs>
     <path id="m861d17f945" d="M 369.717654 -387.7555 
L 369.717654 -55.1155 
L 371.794577 -55.1155 
L 371.794577 -387.7555 
L 371.794577 -387.7555 
L 369.717654 -387.7555 
z
"/>
    </defs>
    <g clip-path="url(#pb52172d6df)">
     <use xlink:href="#m861d17f945" x="0" y="398.34866" style="fill: #d95f02; fill-opacity: 0.2"/>
    </g>
   </g>
   <g id="PolyCollection_151">
    <defs>
     <path id="ma8dac1dffa" d="M 371.794577 -387.7555 
L 371.794577 -55.1155 
L 373.8715 -55.1155 
L 373.8715 -387.7555 
L 373.8715 -387.7555 
L 371.794577 -387.7555 
z
"/>
    </defs>
    <g clip-path="url(#pb52172d6df)">
     <use xlink:href="#ma8dac1dffa" x="0" y="398.34866" style="fill: #d95f02; fill-opacity: 0.2"/>
    </g>
   </g>
   <g id="PolyCollection_152">
    <defs>
     <path id="m02f2de6344" d="M 373.8715 -387.7555 
L 373.8715 -55.1155 
L 375.948423 -55.1155 
L 375.948423 -387.7555 
L 375.948423 -387.7555 
L 373.8715 -387.7555 
z
"/>
    </defs>
    <g clip-path="url(#pb52172d6df)">
     <use xlink:href="#m02f2de6344" x="0" y="398.34866" style="fill: #1b9e77; fill-opacity: 0.2"/>
    </g>
   </g>
   <g id="PolyCollection_153">
    <defs>
     <path id="m3d71ed6be7" d="M 375.948423 -387.7555 
L 375.948423 -55.1155 
L 378.025346 -55.1155 
L 378.025346 -387.7555 
L 378.025346 -387.7555 
L 375.948423 -387.7555 
z
"/>
    </defs>
    <g clip-path="url(#pb52172d6df)">
     <use xlink:href="#m3d71ed6be7" x="0" y="398.34866" style="fill: #d95f02; fill-opacity: 0.2"/>
    </g>
   </g>
   <g id="PolyCollection_154">
    <defs>
     <path id="m9f3fe6de93" d="M 378.025346 -387.7555 
L 378.025346 -55.1155 
L 380.102269 -55.1155 
L 380.102269 -387.7555 
L 380.102269 -387.7555 
L 378.025346 -387.7555 
z
"/>
    </defs>
    <g clip-path="url(#pb52172d6df)">
     <use xlink:href="#m9f3fe6de93" x="0" y="398.34866" style="fill: #d95f02; fill-opacity: 0.2"/>
    </g>
   </g>
   <g id="PolyCollection_155">
    <defs>
     <path id="m31cc09b8d7" d="M 380.102269 -387.7555 
L 380.102269 -55.1155 
L 382.179192 -55.1155 
L 382.179192 -387.7555 
L 382.179192 -387.7555 
L 380.102269 -387.7555 
z
"/>
    </defs>
    <g clip-path="url(#pb52172d6df)">
     <use xlink:href="#m31cc09b8d7" x="0" y="398.34866" style="fill: #1b9e77; fill-opacity: 0.2"/>
    </g>
   </g>
   <g id="PolyCollection_156">
    <defs>
     <path id="m89e2f4ea96" d="M 382.179192 -387.7555 
L 382.179192 -55.1155 
L 384.256115 -55.1155 
L 384.256115 -387.7555 
L 384.256115 -387.7555 
L 382.179192 -387.7555 
z
"/>
    </defs>
    <g clip-path="url(#pb52172d6df)">
     <use xlink:href="#m89e2f4ea96" x="0" y="398.34866" style="fill: #1b9e77; fill-opacity: 0.2"/>
    </g>
   </g>
   <g id="PolyCollection_157">
    <defs>
     <path id="m84afb25aad" d="M 384.256115 -387.7555 
L 384.256115 -55.1155 
L 386.333038 -55.1155 
L 386.333038 -387.7555 
L 386.333038 -387.7555 
L 384.256115 -387.7555 
z
"/>
    </defs>
    <g clip-path="url(#pb52172d6df)">
     <use xlink:href="#m84afb25aad" x="0" y="398.34866" style="fill: #d95f02; fill-opacity: 0.2"/>
    </g>
   </g>
   <g id="PolyCollection_158">
    <defs>
     <path id="mda0fa9cd7c" d="M 386.333038 -387.7555 
L 386.333038 -55.1155 
L 388.409962 -55.1155 
L 388.409962 -387.7555 
L 388.409962 -387.7555 
L 386.333038 -387.7555 
z
"/>
    </defs>
    <g clip-path="url(#pb52172d6df)">
     <use xlink:href="#mda0fa9cd7c" x="0" y="398.34866" style="fill: #1b9e77; fill-opacity: 0.2"/>
    </g>
   </g>
   <g id="PolyCollection_159">
    <defs>
     <path id="m2977e10f8b" d="M 388.409962 -387.7555 
L 388.409962 -55.1155 
L 390.486885 -55.1155 
L 390.486885 -387.7555 
L 390.486885 -387.7555 
L 388.409962 -387.7555 
z
"/>
    </defs>
    <g clip-path="url(#pb52172d6df)">
     <use xlink:href="#m2977e10f8b" x="0" y="398.34866" style="fill: #1b9e77; fill-opacity: 0.2"/>
    </g>
   </g>
   <g id="PolyCollection_160">
    <defs>
     <path id="mfef17b179d" d="M 390.486885 -387.7555 
L 390.486885 -55.1155 
L 392.563808 -55.1155 
L 392.563808 -387.7555 
L 392.563808 -387.7555 
L 390.486885 -387.7555 
z
"/>
    </defs>
    <g clip-path="url(#pb52172d6df)">
     <use xlink:href="#mfef17b179d" x="0" y="398.34866" style="fill: #d95f02; fill-opacity: 0.2"/>
    </g>
   </g>
   <g id="PolyCollection_161">
    <defs>
     <path id="m17bde9cf39" d="M 392.563808 -387.7555 
L 392.563808 -55.1155 
L 394.640731 -55.1155 
L 394.640731 -387.7555 
L 394.640731 -387.7555 
L 392.563808 -387.7555 
z
"/>
    </defs>
    <g clip-path="url(#pb52172d6df)">
     <use xlink:href="#m17bde9cf39" x="0" y="398.34866" style="fill: #d95f02; fill-opacity: 0.2"/>
    </g>
   </g>
   <g id="PolyCollection_162">
    <defs>
     <path id="m8ce1b5cf14" d="M 394.640731 -387.7555 
L 394.640731 -55.1155 
L 396.717654 -55.1155 
L 396.717654 -387.7555 
L 396.717654 -387.7555 
L 394.640731 -387.7555 
z
"/>
    </defs>
    <g clip-path="url(#pb52172d6df)">
     <use xlink:href="#m8ce1b5cf14" x="0" y="398.34866" style="fill: #d95f02; fill-opacity: 0.2"/>
    </g>
   </g>
   <g id="PolyCollection_163">
    <defs>
     <path id="m6c366d2ad7" d="M 396.717654 -387.7555 
L 396.717654 -55.1155 
L 398.794577 -55.1155 
L 398.794577 -387.7555 
L 398.794577 -387.7555 
L 396.717654 -387.7555 
z
"/>
    </defs>
    <g clip-path="url(#pb52172d6df)">
     <use xlink:href="#m6c366d2ad7" x="0" y="398.34866" style="fill: #1b9e77; fill-opacity: 0.2"/>
    </g>
   </g>
   <g id="PolyCollection_164">
    <defs>
     <path id="mc1ba9b8268" d="M 398.794577 -387.7555 
L 398.794577 -55.1155 
L 400.8715 -55.1155 
L 400.8715 -387.7555 
L 400.8715 -387.7555 
L 398.794577 -387.7555 
z
"/>
    </defs>
    <g clip-path="url(#pb52172d6df)">
     <use xlink:href="#mc1ba9b8268" x="0" y="398.34866" style="fill: #d95f02; fill-opacity: 0.2"/>
    </g>
   </g>
   <g id="matplotlib.axis_1">
    <g id="xtick_1">
     <g id="line2d_1">
      <defs>
       <path id="me49b2a4d9a" d="M 0 0 
L 0 4.8 
" style="stroke: #000000"/>
      </defs>
      <g>
       <use xlink:href="#me49b2a4d9a" x="66.486885" y="343.23316" style="stroke: #000000"/>
      </g>
     </g>
     <g id="text_1">
      <!-- 0 -->
      <g transform="translate(60.887885 364.90641) scale(0.176 -0.176)">
       <defs>
        <path id="DejaVuSans-30" d="M 2034 4250 
Q 1547 4250 1301 3770 
Q 1056 3291 1056 2328 
Q 1056 1369 1301 889 
Q 1547 409 2034 409 
Q 2525 409 2770 889 
Q 3016 1369 3016 2328 
Q 3016 3291 2770 3770 
Q 2525 4250 2034 4250 
z
M 2034 4750 
Q 2819 4750 3233 4129 
Q 3647 3509 3647 2328 
Q 3647 1150 3233 529 
Q 2819 -91 2034 -91 
Q 1250 -91 836 529 
Q 422 1150 422 2328 
Q 422 3509 836 4129 
Q 1250 4750 2034 4750 
z
" transform="scale(0.015625)"/>
       </defs>
       <use xlink:href="#DejaVuSans-30"/>
      </g>
     </g>
    </g>
    <g id="xtick_2">
     <g id="line2d_2">
      <g>
       <use xlink:href="#me49b2a4d9a" x="170.333038" y="343.23316" style="stroke: #000000"/>
      </g>
     </g>
     <g id="text_2">
      <!-- 50 -->
      <g transform="translate(159.135038 364.90641) scale(0.176 -0.176)">
       <defs>
        <path id="DejaVuSans-35" d="M 691 4666 
L 3169 4666 
L 3169 4134 
L 1269 4134 
L 1269 2991 
Q 1406 3038 1543 3061 
Q 1681 3084 1819 3084 
Q 2600 3084 3056 2656 
Q 3513 2228 3513 1497 
Q 3513 744 3044 326 
Q 2575 -91 1722 -91 
Q 1428 -91 1123 -41 
Q 819 9 494 109 
L 494 744 
Q 775 591 1075 516 
Q 1375 441 1709 441 
Q 2250 441 2565 725 
Q 2881 1009 2881 1497 
Q 2881 1984 2565 2268 
Q 2250 2553 1709 2553 
Q 1456 2553 1204 2497 
Q 953 2441 691 2322 
L 691 4666 
z
" transform="scale(0.015625)"/>
       </defs>
       <use xlink:href="#DejaVuSans-35"/>
       <use xlink:href="#DejaVuSans-30" x="63.623047"/>
      </g>
     </g>
    </g>
    <g id="xtick_3">
     <g id="line2d_3">
      <g>
       <use xlink:href="#me49b2a4d9a" x="274.179192" y="343.23316" style="stroke: #000000"/>
      </g>
     </g>
     <g id="text_3">
      <!-- 100 -->
      <g transform="translate(257.382192 364.90641) scale(0.176 -0.176)">
       <defs>
        <path id="DejaVuSans-31" d="M 794 531 
L 1825 531 
L 1825 4091 
L 703 3866 
L 703 4441 
L 1819 4666 
L 2450 4666 
L 2450 531 
L 3481 531 
L 3481 0 
L 794 0 
L 794 531 
z
" transform="scale(0.015625)"/>
       </defs>
       <use xlink:href="#DejaVuSans-31"/>
       <use xlink:href="#DejaVuSans-30" x="63.623047"/>
       <use xlink:href="#DejaVuSans-30" x="127.246094"/>
      </g>
     </g>
    </g>
    <g id="xtick_4">
     <g id="line2d_4">
      <g>
       <use xlink:href="#me49b2a4d9a" x="378.025346" y="343.23316" style="stroke: #000000"/>
      </g>
     </g>
     <g id="text_4">
      <!-- 150 -->
      <g transform="translate(361.228346 364.90641) scale(0.176 -0.176)">
       <use xlink:href="#DejaVuSans-31"/>
       <use xlink:href="#DejaVuSans-35" x="63.623047"/>
       <use xlink:href="#DejaVuSans-30" x="127.246094"/>
      </g>
     </g>
    </g>
    <g id="text_5">
     <!-- State -->
     <g transform="translate(208.06 387.15566) scale(0.192 -0.192)">
      <defs>
       <path id="DejaVuSans-53" d="M 3425 4513 
L 3425 3897 
Q 3066 4069 2747 4153 
Q 2428 4238 2131 4238 
Q 1616 4238 1336 4038 
Q 1056 3838 1056 3469 
Q 1056 3159 1242 3001 
Q 1428 2844 1947 2747 
L 2328 2669 
Q 3034 2534 3370 2195 
Q 3706 1856 3706 1288 
Q 3706 609 3251 259 
Q 2797 -91 1919 -91 
Q 1588 -91 1214 -16 
Q 841 59 441 206 
L 441 856 
Q 825 641 1194 531 
Q 1563 422 1919 422 
Q 2459 422 2753 634 
Q 3047 847 3047 1241 
Q 3047 1584 2836 1778 
Q 2625 1972 2144 2069 
L 1759 2144 
Q 1053 2284 737 2584 
Q 422 2884 422 3419 
Q 422 4038 858 4394 
Q 1294 4750 2059 4750 
Q 2388 4750 2728 4690 
Q 3069 4631 3425 4513 
z
" transform="scale(0.015625)"/>
       <path id="DejaVuSans-74" d="M 1172 4494 
L 1172 3500 
L 2356 3500 
L 2356 3053 
L 1172 3053 
L 1172 1153 
Q 1172 725 1289 603 
Q 1406 481 1766 481 
L 2356 481 
L 2356 0 
L 1766 0 
Q 1100 0 847 248 
Q 594 497 594 1153 
L 594 3053 
L 172 3053 
L 172 3500 
L 594 3500 
L 594 4494 
L 1172 4494 
z
" transform="scale(0.015625)"/>
       <path id="DejaVuSans-61" d="M 2194 1759 
Q 1497 1759 1228 1600 
Q 959 1441 959 1056 
Q 959 750 1161 570 
Q 1363 391 1709 391 
Q 2188 391 2477 730 
Q 2766 1069 2766 1631 
L 2766 1759 
L 2194 1759 
z
M 3341 1997 
L 3341 0 
L 2766 0 
L 2766 531 
Q 2569 213 2275 61 
Q 1981 -91 1556 -91 
Q 1019 -91 701 211 
Q 384 513 384 1019 
Q 384 1609 779 1909 
Q 1175 2209 1959 2209 
L 2766 2209 
L 2766 2266 
Q 2766 2663 2505 2880 
Q 2244 3097 1772 3097 
Q 1472 3097 1187 3025 
Q 903 2953 641 2809 
L 641 3341 
Q 956 3463 1253 3523 
Q 1550 3584 1831 3584 
Q 2591 3584 2966 3190 
Q 3341 2797 3341 1997 
z
" transform="scale(0.015625)"/>
       <path id="DejaVuSans-65" d="M 3597 1894 
L 3597 1613 
L 953 1613 
Q 991 1019 1311 708 
Q 1631 397 2203 397 
Q 2534 397 2845 478 
Q 3156 559 3463 722 
L 3463 178 
Q 3153 47 2828 -22 
Q 2503 -91 2169 -91 
Q 1331 -91 842 396 
Q 353 884 353 1716 
Q 353 2575 817 3079 
Q 1281 3584 2069 3584 
Q 2775 3584 3186 3129 
Q 3597 2675 3597 1894 
z
M 3022 2063 
Q 3016 2534 2758 2815 
Q 2500 3097 2075 3097 
Q 1594 3097 1305 2825 
Q 1016 2553 972 2059 
L 3022 2063 
z
" transform="scale(0.015625)"/>
      </defs>
      <use xlink:href="#DejaVuSans-53"/>
      <use xlink:href="#DejaVuSans-74" x="63.476562"/>
      <use xlink:href="#DejaVuSans-61" x="102.685547"/>
      <use xlink:href="#DejaVuSans-74" x="163.964844"/>
      <use xlink:href="#DejaVuSans-65" x="203.173828"/>
     </g>
    </g>
   </g>
   <g id="matplotlib.axis_2">
    <g id="ytick_1">
     <g id="line2d_5">
      <defs>
       <path id="m630d4be453" d="M 0 0 
L -4.8 0 
" style="stroke: #000000"/>
      </defs>
      <g>
       <use xlink:href="#m630d4be453" x="66.0715" y="343.23316" style="stroke: #000000"/>
      </g>
     </g>
     <g id="text_6">
      <!-- 0.0 -->
      <g transform="translate(29.782 349.919785) scale(0.176 -0.176)">
       <defs>
        <path id="DejaVuSans-2e" d="M 684 794 
L 1344 794 
L 1344 0 
L 684 0 
L 684 794 
z
" transform="scale(0.015625)"/>
       </defs>
       <use xlink:href="#DejaVuSans-30"/>
       <use xlink:href="#DejaVuSans-2e" x="63.623047"/>
       <use xlink:href="#DejaVuSans-30" x="95.410156"/>
      </g>
     </g>
    </g>
    <g id="ytick_2">
     <g id="line2d_6">
      <g>
       <use xlink:href="#m630d4be453" x="66.0715" y="277.363853" style="stroke: #000000"/>
      </g>
     </g>
     <g id="text_7">
      <!-- 0.2 -->
      <g transform="translate(29.782 284.050478) scale(0.176 -0.176)">
       <defs>
        <path id="DejaVuSans-32" d="M 1228 531 
L 3431 531 
L 3431 0 
L 469 0 
L 469 531 
Q 828 903 1448 1529 
Q 2069 2156 2228 2338 
Q 2531 2678 2651 2914 
Q 2772 3150 2772 3378 
Q 2772 3750 2511 3984 
Q 2250 4219 1831 4219 
Q 1534 4219 1204 4116 
Q 875 4013 500 3803 
L 500 4441 
Q 881 4594 1212 4672 
Q 1544 4750 1819 4750 
Q 2544 4750 2975 4387 
Q 3406 4025 3406 3419 
Q 3406 3131 3298 2873 
Q 3191 2616 2906 2266 
Q 2828 2175 2409 1742 
Q 1991 1309 1228 531 
z
" transform="scale(0.015625)"/>
       </defs>
       <use xlink:href="#DejaVuSans-30"/>
       <use xlink:href="#DejaVuSans-2e" x="63.623047"/>
       <use xlink:href="#DejaVuSans-32" x="95.410156"/>
      </g>
     </g>
    </g>
    <g id="ytick_3">
     <g id="line2d_7">
      <g>
       <use xlink:href="#m630d4be453" x="66.0715" y="211.494546" style="stroke: #000000"/>
      </g>
     </g>
     <g id="text_8">
      <!-- 0.4 -->
      <g transform="translate(29.782 218.181171) scale(0.176 -0.176)">
       <defs>
        <path id="DejaVuSans-34" d="M 2419 4116 
L 825 1625 
L 2419 1625 
L 2419 4116 
z
M 2253 4666 
L 3047 4666 
L 3047 1625 
L 3713 1625 
L 3713 1100 
L 3047 1100 
L 3047 0 
L 2419 0 
L 2419 1100 
L 313 1100 
L 313 1709 
L 2253 4666 
z
" transform="scale(0.015625)"/>
       </defs>
       <use xlink:href="#DejaVuSans-30"/>
       <use xlink:href="#DejaVuSans-2e" x="63.623047"/>
       <use xlink:href="#DejaVuSans-34" x="95.410156"/>
      </g>
     </g>
    </g>
    <g id="ytick_4">
     <g id="line2d_8">
      <g>
       <use xlink:href="#m630d4be453" x="66.0715" y="145.625239" style="stroke: #000000"/>
      </g>
     </g>
     <g id="text_9">
      <!-- 0.6 -->
      <g transform="translate(29.782 152.311864) scale(0.176 -0.176)">
       <defs>
        <path id="DejaVuSans-36" d="M 2113 2584 
Q 1688 2584 1439 2293 
Q 1191 2003 1191 1497 
Q 1191 994 1439 701 
Q 1688 409 2113 409 
Q 2538 409 2786 701 
Q 3034 994 3034 1497 
Q 3034 2003 2786 2293 
Q 2538 2584 2113 2584 
z
M 3366 4563 
L 3366 3988 
Q 3128 4100 2886 4159 
Q 2644 4219 2406 4219 
Q 1781 4219 1451 3797 
Q 1122 3375 1075 2522 
Q 1259 2794 1537 2939 
Q 1816 3084 2150 3084 
Q 2853 3084 3261 2657 
Q 3669 2231 3669 1497 
Q 3669 778 3244 343 
Q 2819 -91 2113 -91 
Q 1303 -91 875 529 
Q 447 1150 447 2328 
Q 447 3434 972 4092 
Q 1497 4750 2381 4750 
Q 2619 4750 2861 4703 
Q 3103 4656 3366 4563 
z
" transform="scale(0.015625)"/>
       </defs>
       <use xlink:href="#DejaVuSans-30"/>
       <use xlink:href="#DejaVuSans-2e" x="63.623047"/>
       <use xlink:href="#DejaVuSans-36" x="95.410156"/>
      </g>
     </g>
    </g>
    <g id="ytick_5">
     <g id="line2d_9">
      <g>
       <use xlink:href="#m630d4be453" x="66.0715" y="79.755932" style="stroke: #000000"/>
      </g>
     </g>
     <g id="text_10">
      <!-- 0.8 -->
      <g transform="translate(29.782 86.442557) scale(0.176 -0.176)">
       <defs>
        <path id="DejaVuSans-38" d="M 2034 2216 
Q 1584 2216 1326 1975 
Q 1069 1734 1069 1313 
Q 1069 891 1326 650 
Q 1584 409 2034 409 
Q 2484 409 2743 651 
Q 3003 894 3003 1313 
Q 3003 1734 2745 1975 
Q 2488 2216 2034 2216 
z
M 1403 2484 
Q 997 2584 770 2862 
Q 544 3141 544 3541 
Q 544 4100 942 4425 
Q 1341 4750 2034 4750 
Q 2731 4750 3128 4425 
Q 3525 4100 3525 3541 
Q 3525 3141 3298 2862 
Q 3072 2584 2669 2484 
Q 3125 2378 3379 2068 
Q 3634 1759 3634 1313 
Q 3634 634 3220 271 
Q 2806 -91 2034 -91 
Q 1263 -91 848 271 
Q 434 634 434 1313 
Q 434 1759 690 2068 
Q 947 2378 1403 2484 
z
M 1172 3481 
Q 1172 3119 1398 2916 
Q 1625 2713 2034 2713 
Q 2441 2713 2670 2916 
Q 2900 3119 2900 3481 
Q 2900 3844 2670 4047 
Q 2441 4250 2034 4250 
Q 1625 4250 1398 4047 
Q 1172 3844 1172 3481 
z
" transform="scale(0.015625)"/>
       </defs>
       <use xlink:href="#DejaVuSans-30"/>
       <use xlink:href="#DejaVuSans-2e" x="63.623047"/>
       <use xlink:href="#DejaVuSans-38" x="95.410156"/>
      </g>
     </g>
    </g>
    <g id="ytick_6">
     <g id="line2d_10">
      <g>
       <use xlink:href="#m630d4be453" x="66.0715" y="13.886625" style="stroke: #000000"/>
      </g>
     </g>
     <g id="text_11">
      <!-- 1.0 -->
      <g transform="translate(29.782 20.57325) scale(0.176 -0.176)">
       <use xlink:href="#DejaVuSans-31"/>
       <use xlink:href="#DejaVuSans-2e" x="63.623047"/>
       <use xlink:href="#DejaVuSans-30" x="95.410156"/>
      </g>
     </g>
    </g>
    <g id="text_12">
     <!-- Score -->
     <g transform="translate(21.789 203.79766) rotate(-90) scale(0.192 -0.192)">
      <defs>
       <path id="DejaVuSans-63" d="M 3122 3366 
L 3122 2828 
Q 2878 2963 2633 3030 
Q 2388 3097 2138 3097 
Q 1578 3097 1268 2742 
Q 959 2388 959 1747 
Q 959 1106 1268 751 
Q 1578 397 2138 397 
Q 2388 397 2633 464 
Q 2878 531 3122 666 
L 3122 134 
Q 2881 22 2623 -34 
Q 2366 -91 2075 -91 
Q 1284 -91 818 406 
Q 353 903 353 1747 
Q 353 2603 823 3093 
Q 1294 3584 2113 3584 
Q 2378 3584 2631 3529 
Q 2884 3475 3122 3366 
z
" transform="scale(0.015625)"/>
       <path id="DejaVuSans-6f" d="M 1959 3097 
Q 1497 3097 1228 2736 
Q 959 2375 959 1747 
Q 959 1119 1226 758 
Q 1494 397 1959 397 
Q 2419 397 2687 759 
Q 2956 1122 2956 1747 
Q 2956 2369 2687 2733 
Q 2419 3097 1959 3097 
z
M 1959 3584 
Q 2709 3584 3137 3096 
Q 3566 2609 3566 1747 
Q 3566 888 3137 398 
Q 2709 -91 1959 -91 
Q 1206 -91 779 398 
Q 353 888 353 1747 
Q 353 2609 779 3096 
Q 1206 3584 1959 3584 
z
" transform="scale(0.015625)"/>
       <path id="DejaVuSans-72" d="M 2631 2963 
Q 2534 3019 2420 3045 
Q 2306 3072 2169 3072 
Q 1681 3072 1420 2755 
Q 1159 2438 1159 1844 
L 1159 0 
L 581 0 
L 581 3500 
L 1159 3500 
L 1159 2956 
Q 1341 3275 1631 3429 
Q 1922 3584 2338 3584 
Q 2397 3584 2469 3576 
Q 2541 3569 2628 3553 
L 2631 2963 
z
" transform="scale(0.015625)"/>
      </defs>
      <use xlink:href="#DejaVuSans-53"/>
      <use xlink:href="#DejaVuSans-63" x="63.476562"/>
      <use xlink:href="#DejaVuSans-6f" x="118.457031"/>
      <use xlink:href="#DejaVuSans-72" x="179.638672"/>
      <use xlink:href="#DejaVuSans-65" x="218.501953"/>
     </g>
    </g>
   </g>
   <g id="line2d_11">
    <path d="M 68.563808 145.814674 
L 70.640731 145.814674 
L 76.8715 145.814674 
L 78.948423 145.787578 
L 83.102269 145.787578 
L 87.256115 145.787578 
L 89.333038 145.787578 
L 93.486885 145.787578 
L 95.563808 145.787578 
L 97.640731 145.787578 
L 99.717654 145.787578 
L 101.794577 145.787578 
L 103.8715 145.787578 
L 105.948423 145.787578 
L 110.102269 145.787578 
L 112.179192 145.787578 
L 118.409962 142.313086 
L 128.794577 122.916065 
L 132.948423 120.217282 
L 135.025346 120.049087 
L 137.102269 119.954637 
L 141.256115 118.174896 
L 145.409962 117.213862 
L 147.486885 116.31775 
L 149.563808 114.504039 
L 151.640731 114.380105 
L 153.717654 110.661436 
L 155.794577 104.028661 
L 157.8715 103.928281 
L 159.948423 100.910221 
L 164.102269 100.994624 
L 166.179192 94.411099 
L 168.256115 93.922148 
L 170.333038 92.646547 
L 172.409962 85.780473 
L 176.563808 85.780473 
L 178.640731 80.935139 
L 180.717654 79.065201 
L 182.794577 77.747811 
L 184.8715 77.270856 
L 186.948423 76.672246 
L 191.102269 76.191415 
L 193.179192 76.191415 
L 195.256115 75.466906 
L 203.563808 74.011769 
L 205.640731 71.364844 
L 209.794577 70.67051 
L 211.8715 68.78977 
L 213.948423 68.717513 
L 216.025346 68.597032 
L 220.179192 65.969333 
L 222.256115 65.969333 
L 224.333038 65.969333 
L 226.409962 65.969333 
L 228.486885 65.969333 
L 230.563808 65.969333 
L 238.8715 65.969333 
L 240.948423 65.969333 
L 243.025346 65.969333 
L 245.102269 65.969333 
L 247.179192 65.322361 
L 249.256115 64.106388 
L 255.486885 63.288605 
L 257.563808 63.165769 
L 259.640731 62.898247 
L 263.794577 62.898247 
L 265.8715 62.528575 
L 267.948423 58.269781 
L 270.025346 56.982833 
L 272.102269 50.681751 
L 274.179192 49.057348 
L 278.333038 45.632717 
L 280.409962 45.424702 
L 284.563808 44.729213 
L 286.640731 42.623117 
L 288.717654 41.558885 
L 290.794577 41.487668 
L 292.8715 39.407654 
L 294.948423 38.895324 
L 303.256115 27.697407 
L 305.333038 23.277697 
L 307.409962 23.117559 
L 309.486885 21.988021 
L 311.563808 21.907367 
L 315.717654 20.934575 
L 317.794577 20.690963 
L 319.8715 16.491816 
L 321.948423 16.491151 
L 324.025346 16.324361 
L 326.102269 16.324361 
L 334.409962 16.324361 
L 338.563808 16.324361 
L 340.640731 16.324361 
L 342.717654 16.324361 
L 344.794577 16.324361 
L 351.025346 16.324361 
L 353.102269 16.322496 
L 357.256115 16.322496 
L 359.333038 16.322496 
L 361.409962 16.322496 
L 363.486885 16.322496 
L 365.563808 16.322496 
L 367.640731 16.263691 
L 369.717654 16.263691 
L 371.794577 16.263691 
L 373.8715 16.263691 
L 375.948423 16.23332 
L 378.025346 16.23332 
L 380.102269 16.23332 
L 382.179192 16.188083 
L 384.256115 16.187528 
L 386.333038 16.187528 
L 388.409962 16.175947 
L 390.486885 16.175398 
L 392.563808 15.468501 
L 394.640731 14.995536 
L 396.717654 13.966081 
L 398.794577 13.966081 
L 400.8715 13.886625 
" clip-path="url(#pb52172d6df)" style="fill: none; stroke-dasharray: 2,3.3; stroke-dashoffset: 0; stroke: #e41a1c; stroke-width: 2"/>
   </g>
   <g id="line2d_12">
    <path d="M 66.486885 343.23316 
L 68.563808 111.323607 
L 70.640731 111.323607 
L 76.8715 111.323607 
L 78.948423 111.244131 
L 83.102269 111.244131 
L 87.256115 111.244131 
L 89.333038 111.244131 
L 93.486885 111.244131 
L 95.563808 111.244131 
L 97.640731 111.244131 
L 99.717654 111.244131 
L 101.794577 111.244131 
L 103.8715 111.244131 
L 105.948423 111.244131 
L 110.102269 111.244131 
L 112.179192 111.244131 
L 118.409962 95.428504 
L 128.794577 95.110601 
L 132.948423 95.031126 
L 135.025346 94.95165 
L 137.102269 94.792699 
L 141.256115 94.713224 
L 145.409962 94.633748 
L 147.486885 94.633748 
L 149.563808 94.633748 
L 151.640731 94.554273 
L 153.717654 94.554273 
L 155.794577 68.009451 
L 157.8715 68.009451 
L 159.948423 67.929975 
L 164.102269 67.8505 
L 166.179192 67.691549 
L 168.256115 67.691549 
L 170.333038 67.612073 
L 172.409962 67.453122 
L 176.563808 67.453122 
L 178.640731 67.453122 
L 180.717654 57.518683 
L 182.794577 57.439207 
L 184.8715 57.439207 
L 186.948423 57.439207 
L 191.102269 57.439207 
L 193.179192 57.439207 
L 195.256115 57.439207 
L 203.563808 48.220048 
L 205.640731 48.140572 
L 209.794577 41.862006 
L 211.8715 41.703055 
L 213.948423 41.226202 
L 216.025346 41.226202 
L 220.179192 41.146727 
L 222.256115 41.146727 
L 224.333038 41.146727 
L 226.409962 41.146727 
L 228.486885 41.146727 
L 230.563808 41.146727 
L 238.8715 41.146727 
L 240.948423 41.146727 
L 243.025346 41.146727 
L 245.102269 41.146727 
L 247.179192 35.345014 
L 249.256115 35.345014 
L 255.486885 35.186063 
L 257.563808 35.186063 
L 259.640731 35.027112 
L 263.794577 35.027112 
L 265.8715 35.027112 
L 267.948423 35.027112 
L 270.025346 34.947637 
L 272.102269 34.868161 
L 274.179192 34.788685 
L 278.333038 34.788685 
L 280.409962 34.788685 
L 284.563808 34.788685 
L 286.640731 34.788685 
L 288.717654 34.788685 
L 290.794577 34.788685 
L 292.8715 34.788685 
L 294.948423 34.70921 
L 303.256115 34.550259 
L 305.333038 34.550259 
L 307.409962 34.550259 
L 309.486885 34.391308 
L 311.563808 34.391308 
L 315.717654 34.311832 
L 317.794577 34.311832 
L 319.8715 34.232357 
L 321.948423 34.152881 
L 324.025346 34.152881 
L 326.102269 34.152881 
L 334.409962 34.152881 
L 338.563808 34.152881 
L 340.640731 34.152881 
L 342.717654 34.152881 
L 344.794577 34.152881 
L 351.025346 34.152881 
L 353.102269 33.914455 
L 357.256115 33.914455 
L 359.333038 33.914455 
L 361.409962 33.914455 
L 363.486885 33.914455 
L 365.563808 33.914455 
L 367.640731 26.20533 
L 369.717654 26.20533 
L 371.794577 26.20533 
L 373.8715 26.20533 
L 375.948423 22.072603 
L 378.025346 22.072603 
L 380.102269 22.072603 
L 382.179192 15.714562 
L 384.256115 15.635086 
L 386.333038 15.635086 
L 388.409962 13.966101 
L 390.486885 13.886625 
L 392.563808 13.886625 
L 394.640731 13.886625 
L 396.717654 13.886625 
L 398.794577 13.886625 
L 400.8715 13.886625 
" clip-path="url(#pb52172d6df)" style="fill: none; stroke-dasharray: 7.4,3.2; stroke-dashoffset: 0; stroke: #377eb8; stroke-width: 2"/>
   </g>
   <g id="line2d_13">
    <path d="M 68.563808 129.9546 
L 70.640731 129.9546 
L 76.8715 129.9546 
L 78.948423 129.905181 
L 83.102269 129.905181 
L 87.256115 129.905181 
L 89.333038 129.905181 
L 93.486885 129.905181 
L 95.563808 129.905181 
L 97.640731 129.905181 
L 99.717654 129.905181 
L 101.794577 129.905181 
L 103.8715 129.905181 
L 105.948423 129.905181 
L 110.102269 129.905181 
L 112.179192 129.905181 
L 118.409962 121.320141 
L 128.794577 109.838566 
L 132.948423 108.297292 
L 135.025346 108.168372 
L 137.102269 108.044749 
L 141.256115 107.025221 
L 145.409962 106.460932 
L 147.486885 105.970156 
L 149.563808 104.982475 
L 151.640731 104.878746 
L 153.717654 102.877403 
L 155.794577 87.280052 
L 157.8715 87.222599 
L 159.948423 85.470757 
L 164.102269 85.483698 
L 166.179192 81.732087 
L 168.256115 81.462312 
L 170.333038 80.724821 
L 172.409962 76.931756 
L 176.563808 76.931756 
L 178.640731 74.363033 
L 180.717654 68.71408 
L 182.794577 67.967584 
L 184.8715 67.711434 
L 186.948423 67.390575 
L 191.102269 67.133349 
L 193.179192 67.133349 
L 195.256115 66.746609 
L 203.563808 61.705391 
L 205.640731 60.228373 
L 209.794577 56.989277 
L 211.8715 55.883326 
L 213.948423 55.627315 
L 216.025346 55.561207 
L 220.179192 54.089799 
L 222.256115 54.089799 
L 224.333038 54.089799 
L 226.409962 54.089799 
L 228.486885 54.089799 
L 230.563808 54.089799 
L 238.8715 54.089799 
L 240.948423 54.089799 
L 243.025346 54.089799 
L 245.102269 54.089799 
L 247.179192 51.10071 
L 249.256115 50.430297 
L 255.486885 49.908902 
L 257.563808 49.841487 
L 259.640731 49.622617 
L 263.794577 49.622617 
L 265.8715 49.419987 
L 267.948423 47.103815 
L 270.025346 46.373578 
L 272.102269 42.983029 
L 274.179192 42.091941 
L 278.333038 40.307718 
L 280.409962 40.199992 
L 284.563808 39.840351 
L 286.640731 38.756289 
L 288.717654 38.211348 
L 290.794577 38.174949 
L 292.8715 37.115593 
L 294.948423 36.816563 
L 303.256115 31.161449 
L 305.333038 29.015046 
L 307.409962 28.937843 
L 309.486885 28.311744 
L 311.563808 28.272994 
L 315.717654 27.764954 
L 317.794577 27.648301 
L 319.8715 25.609613 
L 321.948423 25.567318 
L 324.025346 25.488512 
L 326.102269 25.488512 
L 334.409962 25.488512 
L 338.563808 25.488512 
L 340.640731 25.488512 
L 342.717654 25.488512 
L 344.794577 25.488512 
L 351.025346 25.488512 
L 353.102269 25.361687 
L 357.256115 25.361687 
L 359.333038 25.361687 
L 361.409962 25.361687 
L 363.486885 25.361687 
L 365.563808 25.361687 
L 367.640731 21.311247 
L 369.717654 21.311247 
L 371.794577 21.311247 
L 373.8715 21.311247 
L 375.948423 19.179265 
L 378.025346 19.179265 
L 380.102269 19.179265 
L 382.179192 15.951494 
L 384.256115 15.91154 
L 386.333038 15.91154 
L 388.409962 15.074744 
L 390.486885 15.035002 
L 392.563808 14.679467 
L 394.640731 14.442015 
L 396.717654 13.926358 
L 398.794577 13.926358 
L 400.8715 13.886625 
" clip-path="url(#pb52172d6df)" style="fill: none; stroke: #984ea3; stroke-width: 3; stroke-linecap: square"/>
   </g>
   <g id="patch_3">
    <path d="M 66.0715 343.23316 
L 66.0715 10.59316 
" style="fill: none; stroke: #000000; stroke-linejoin: miter; stroke-linecap: square"/>
   </g>
   <g id="patch_4">
    <path d="M 66.0715 343.23316 
L 400.8715 343.23316 
" style="fill: none; stroke: #000000; stroke-linejoin: miter; stroke-linecap: square"/>
   </g>
   <g id="legend_1">
    <g id="patch_5">
     <path d="M 78.3915 334.43316 
L 213.23225 334.43316 
Q 216.75225 334.43316 216.75225 330.91316 
L 216.75225 255.17266 
Q 216.75225 251.65266 213.23225 251.65266 
L 78.3915 251.65266 
Q 74.8715 251.65266 74.8715 255.17266 
L 74.8715 330.91316 
Q 74.8715 334.43316 78.3915 334.43316 
z
" style="fill: #ffffff; opacity: 0.8; stroke: #cccccc; stroke-width: 0.8; stroke-linejoin: miter"/>
    </g>
    <g id="line2d_14">
     <path d="M 81.9115 265.90591 
L 99.5115 265.90591 
L 117.1115 265.90591 
" style="fill: none; stroke-dasharray: 2,3.3; stroke-dashoffset: 0; stroke: #e41a1c; stroke-width: 2"/>
    </g>
    <g id="text_13">
     <!-- Precision -->
     <g transform="translate(131.1915 272.06591) scale(0.176 -0.176)">
      <defs>
       <path id="DejaVuSans-50" d="M 1259 4147 
L 1259 2394 
L 2053 2394 
Q 2494 2394 2734 2622 
Q 2975 2850 2975 3272 
Q 2975 3691 2734 3919 
Q 2494 4147 2053 4147 
L 1259 4147 
z
M 628 4666 
L 2053 4666 
Q 2838 4666 3239 4311 
Q 3641 3956 3641 3272 
Q 3641 2581 3239 2228 
Q 2838 1875 2053 1875 
L 1259 1875 
L 1259 0 
L 628 0 
L 628 4666 
z
" transform="scale(0.015625)"/>
       <path id="DejaVuSans-69" d="M 603 3500 
L 1178 3500 
L 1178 0 
L 603 0 
L 603 3500 
z
M 603 4863 
L 1178 4863 
L 1178 4134 
L 603 4134 
L 603 4863 
z
" transform="scale(0.015625)"/>
       <path id="DejaVuSans-73" d="M 2834 3397 
L 2834 2853 
Q 2591 2978 2328 3040 
Q 2066 3103 1784 3103 
Q 1356 3103 1142 2972 
Q 928 2841 928 2578 
Q 928 2378 1081 2264 
Q 1234 2150 1697 2047 
L 1894 2003 
Q 2506 1872 2764 1633 
Q 3022 1394 3022 966 
Q 3022 478 2636 193 
Q 2250 -91 1575 -91 
Q 1294 -91 989 -36 
Q 684 19 347 128 
L 347 722 
Q 666 556 975 473 
Q 1284 391 1588 391 
Q 1994 391 2212 530 
Q 2431 669 2431 922 
Q 2431 1156 2273 1281 
Q 2116 1406 1581 1522 
L 1381 1569 
Q 847 1681 609 1914 
Q 372 2147 372 2553 
Q 372 3047 722 3315 
Q 1072 3584 1716 3584 
Q 2034 3584 2315 3537 
Q 2597 3491 2834 3397 
z
" transform="scale(0.015625)"/>
       <path id="DejaVuSans-6e" d="M 3513 2113 
L 3513 0 
L 2938 0 
L 2938 2094 
Q 2938 2591 2744 2837 
Q 2550 3084 2163 3084 
Q 1697 3084 1428 2787 
Q 1159 2491 1159 1978 
L 1159 0 
L 581 0 
L 581 3500 
L 1159 3500 
L 1159 2956 
Q 1366 3272 1645 3428 
Q 1925 3584 2291 3584 
Q 2894 3584 3203 3211 
Q 3513 2838 3513 2113 
z
" transform="scale(0.015625)"/>
      </defs>
      <use xlink:href="#DejaVuSans-50"/>
      <use xlink:href="#DejaVuSans-72" x="58.552734"/>
      <use xlink:href="#DejaVuSans-65" x="97.416016"/>
      <use xlink:href="#DejaVuSans-63" x="158.939453"/>
      <use xlink:href="#DejaVuSans-69" x="213.919922"/>
      <use xlink:href="#DejaVuSans-73" x="241.703125"/>
      <use xlink:href="#DejaVuSans-69" x="293.802734"/>
      <use xlink:href="#DejaVuSans-6f" x="321.585938"/>
      <use xlink:href="#DejaVuSans-6e" x="382.767578"/>
     </g>
    </g>
    <g id="line2d_15">
     <path d="M 81.9115 291.73941 
L 99.5115 291.73941 
L 117.1115 291.73941 
" style="fill: none; stroke-dasharray: 7.4,3.2; stroke-dashoffset: 0; stroke: #377eb8; stroke-width: 2"/>
    </g>
    <g id="text_14">
     <!-- Recall -->
     <g transform="translate(131.1915 297.89941) scale(0.176 -0.176)">
      <defs>
       <path id="DejaVuSans-52" d="M 2841 2188 
Q 3044 2119 3236 1894 
Q 3428 1669 3622 1275 
L 4263 0 
L 3584 0 
L 2988 1197 
Q 2756 1666 2539 1819 
Q 2322 1972 1947 1972 
L 1259 1972 
L 1259 0 
L 628 0 
L 628 4666 
L 2053 4666 
Q 2853 4666 3247 4331 
Q 3641 3997 3641 3322 
Q 3641 2881 3436 2590 
Q 3231 2300 2841 2188 
z
M 1259 4147 
L 1259 2491 
L 2053 2491 
Q 2509 2491 2742 2702 
Q 2975 2913 2975 3322 
Q 2975 3731 2742 3939 
Q 2509 4147 2053 4147 
L 1259 4147 
z
" transform="scale(0.015625)"/>
       <path id="DejaVuSans-6c" d="M 603 4863 
L 1178 4863 
L 1178 0 
L 603 0 
L 603 4863 
z
" transform="scale(0.015625)"/>
      </defs>
      <use xlink:href="#DejaVuSans-52"/>
      <use xlink:href="#DejaVuSans-65" x="64.982422"/>
      <use xlink:href="#DejaVuSans-63" x="126.505859"/>
      <use xlink:href="#DejaVuSans-61" x="181.486328"/>
      <use xlink:href="#DejaVuSans-6c" x="242.765625"/>
      <use xlink:href="#DejaVuSans-6c" x="270.548828"/>
     </g>
    </g>
    <g id="line2d_16">
     <path d="M 81.9115 317.57291 
L 99.5115 317.57291 
L 117.1115 317.57291 
" style="fill: none; stroke: #984ea3; stroke-width: 3; stroke-linecap: square"/>
    </g>
    <g id="text_15">
     <!-- F1 -->
     <g transform="translate(131.1915 323.73291) scale(0.176 -0.176)">
      <defs>
       <path id="DejaVuSans-46" d="M 628 4666 
L 3309 4666 
L 3309 4134 
L 1259 4134 
L 1259 2759 
L 3109 2759 
L 3109 2228 
L 1259 2228 
L 1259 0 
L 628 0 
L 628 4666 
z
" transform="scale(0.015625)"/>
      </defs>
      <use xlink:href="#DejaVuSans-46"/>
      <use xlink:href="#DejaVuSans-31" x="57.519531"/>
     </g>
    </g>
   </g>
  </g>
 </g>
 <defs>
  <clipPath id="pb52172d6df">
   <rect x="66.0715" y="10.59316" width="334.8" height="332.64"/>
  </clipPath>
 </defs>
</svg>
