<?xml version="1.0" encoding="utf-8" standalone="no"?>
<!DOCTYPE svg PUBLIC "-//W3C//DTD SVG 1.1//EN"
  "http://www.w3.org/Graphics/SVG/1.1/DTD/svg11.dtd">
<svg xmlns:xlink="http://www.w3.org/1999/xlink" width="408.0715pt" height="398.34866pt" viewBox="0 0 408.0715 398.34866" xmlns="http://www.w3.org/2000/svg" version="1.1">
 <metadata>
  <rdf:RDF xmlns:dc="http://purl.org/dc/elements/1.1/" xmlns:cc="http://creativecommons.org/ns#" xmlns:rdf="http://www.w3.org/1999/02/22-rdf-syntax-ns#">
   <cc:Work>
    <dc:type rdf:resource="http://purl.org/dc/dcmitype/StillImage"/>
    <dc:date>2024-10-01T11:02:30.186488</dc:date>
    <dc:format>image/svg+xml</dc:format>
    <dc:creator>
     <cc:Agent>
      <dc:title>Matplotlib v3.8.0, https://matplotlib.org/</dc:title>
     </cc:Agent>
    </dc:creator>
   </cc:Work>
  </rdf:RDF>
 </metadata>
 <defs>
  <style type="text/css">*{stroke-linejoin: round; stroke-linecap: butt}</style>
 </defs>
 <g id="figure_1">
  <g id="patch_1">
   <path d="M 0 398.34866 
L 408.0715 398.34866 
L 408.0715 0 
L 0 0 
z
" style="fill: #ffffff"/>
  </g>
  <g id="axes_1">
   <g id="patch_2">
    <path d="M 66.0715 343.23316 
L 400.8715 343.23316 
L 400.8715 10.59316 
L 66.0715 10.59316 
z
" style="fill: #ffffff"/>
   </g>
   <g id="PolyCollection_1"/>
   <g id="PolyCollection_2"/>
   <g id="PolyCollection_3"/>
   <g id="PolyCollection_4">
    <defs>
     <path id="m05cf26ca8b" d="M 66.486885 -387.7555 
L 66.486885 -55.1155 
L 68.563808 -55.1155 
L 68.563808 -387.7555 
L 68.563808 -387.7555 
L 66.486885 -387.7555 
z
"/>
    </defs>
    <g clip-path="url(#pac83f428e0)">
     <use xlink:href="#m05cf26ca8b" x="0" y="398.34866" style="fill: #d95f02; fill-opacity: 0.2"/>
    </g>
   </g>
   <g id="PolyCollection_5">
    <defs>
     <path id="m1a82d14259" d="M 68.563808 -387.7555 
L 68.563808 -55.1155 
L 70.640731 -55.1155 
L 70.640731 -387.7555 
L 70.640731 -387.7555 
L 68.563808 -387.7555 
z
"/>
    </defs>
    <g clip-path="url(#pac83f428e0)">
     <use xlink:href="#m1a82d14259" x="0" y="398.34866" style="fill: #d95f02; fill-opacity: 0.2"/>
    </g>
   </g>
   <g id="PolyCollection_6">
    <defs>
     <path id="m851e23289a" d="M 70.640731 -387.7555 
L 70.640731 -55.1155 
L 72.717654 -55.1155 
L 72.717654 -387.7555 
L 72.717654 -387.7555 
L 70.640731 -387.7555 
z
"/>
    </defs>
    <g clip-path="url(#pac83f428e0)">
     <use xlink:href="#m851e23289a" x="0" y="398.34866" style="fill: #d95f02; fill-opacity: 0.2"/>
    </g>
   </g>
   <g id="PolyCollection_7">
    <defs>
     <path id="m8a0e6f62c3" d="M 72.717654 -387.7555 
L 72.717654 -55.1155 
L 74.794577 -55.1155 
L 74.794577 -387.7555 
L 74.794577 -387.7555 
L 72.717654 -387.7555 
z
"/>
    </defs>
    <g clip-path="url(#pac83f428e0)">
     <use xlink:href="#m8a0e6f62c3" x="0" y="398.34866" style="fill: #d95f02; fill-opacity: 0.2"/>
    </g>
   </g>
   <g id="PolyCollection_8">
    <defs>
     <path id="m3ceeaff443" d="M 74.794577 -387.7555 
L 74.794577 -55.1155 
L 76.8715 -55.1155 
L 76.8715 -387.7555 
L 76.8715 -387.7555 
L 74.794577 -387.7555 
z
"/>
    </defs>
    <g clip-path="url(#pac83f428e0)">
     <use xlink:href="#m3ceeaff443" x="0" y="398.34866" style="fill: #1b9e77; fill-opacity: 0.2"/>
    </g>
   </g>
   <g id="PolyCollection_9">
    <defs>
     <path id="mb222320c1c" d="M 76.8715 -387.7555 
L 76.8715 -55.1155 
L 78.948423 -55.1155 
L 78.948423 -387.7555 
L 78.948423 -387.7555 
L 76.8715 -387.7555 
z
"/>
    </defs>
    <g clip-path="url(#pac83f428e0)">
     <use xlink:href="#mb222320c1c" x="0" y="398.34866" style="fill: #1b9e77; fill-opacity: 0.2"/>
    </g>
   </g>
   <g id="PolyCollection_10">
    <defs>
     <path id="ma1f6bb7563" d="M 78.948423 -387.7555 
L 78.948423 -55.1155 
L 81.025346 -55.1155 
L 81.025346 -387.7555 
L 81.025346 -387.7555 
L 78.948423 -387.7555 
z
"/>
    </defs>
    <g clip-path="url(#pac83f428e0)">
     <use xlink:href="#ma1f6bb7563" x="0" y="398.34866" style="fill: #d95f02; fill-opacity: 0.2"/>
    </g>
   </g>
   <g id="PolyCollection_11">
    <defs>
     <path id="m25be9112dc" d="M 81.025346 -387.7555 
L 81.025346 -55.1155 
L 83.102269 -55.1155 
L 83.102269 -387.7555 
L 83.102269 -387.7555 
L 81.025346 -387.7555 
z
"/>
    </defs>
    <g clip-path="url(#pac83f428e0)">
     <use xlink:href="#m25be9112dc" x="0" y="398.34866" style="fill: #1b9e77; fill-opacity: 0.2"/>
    </g>
   </g>
   <g id="PolyCollection_12">
    <defs>
     <path id="mcb47d5b21e" d="M 83.102269 -387.7555 
L 83.102269 -55.1155 
L 85.179192 -55.1155 
L 85.179192 -387.7555 
L 85.179192 -387.7555 
L 83.102269 -387.7555 
z
"/>
    </defs>
    <g clip-path="url(#pac83f428e0)">
     <use xlink:href="#mcb47d5b21e" x="0" y="398.34866" style="fill: #1b9e77; fill-opacity: 0.2"/>
    </g>
   </g>
   <g id="PolyCollection_13">
    <defs>
     <path id="me042de7ad6" d="M 85.179192 -387.7555 
L 85.179192 -55.1155 
L 87.256115 -55.1155 
L 87.256115 -387.7555 
L 87.256115 -387.7555 
L 85.179192 -387.7555 
z
"/>
    </defs>
    <g clip-path="url(#pac83f428e0)">
     <use xlink:href="#me042de7ad6" x="0" y="398.34866" style="fill: #d95f02; fill-opacity: 0.2"/>
    </g>
   </g>
   <g id="PolyCollection_14">
    <defs>
     <path id="mfe2394e8c5" d="M 87.256115 -387.7555 
L 87.256115 -55.1155 
L 89.333038 -55.1155 
L 89.333038 -387.7555 
L 89.333038 -387.7555 
L 87.256115 -387.7555 
z
"/>
    </defs>
    <g clip-path="url(#pac83f428e0)">
     <use xlink:href="#mfe2394e8c5" x="0" y="398.34866" style="fill: #d95f02; fill-opacity: 0.2"/>
    </g>
   </g>
   <g id="PolyCollection_15">
    <defs>
     <path id="md8ddf2c383" d="M 89.333038 -387.7555 
L 89.333038 -55.1155 
L 91.409962 -55.1155 
L 91.409962 -387.7555 
L 91.409962 -387.7555 
L 89.333038 -387.7555 
z
"/>
    </defs>
    <g clip-path="url(#pac83f428e0)">
     <use xlink:href="#md8ddf2c383" x="0" y="398.34866" style="fill: #d95f02; fill-opacity: 0.2"/>
    </g>
   </g>
   <g id="PolyCollection_16">
    <defs>
     <path id="mf3adbad6f9" d="M 91.409962 -387.7555 
L 91.409962 -55.1155 
L 93.486885 -55.1155 
L 93.486885 -387.7555 
L 93.486885 -387.7555 
L 91.409962 -387.7555 
z
"/>
    </defs>
    <g clip-path="url(#pac83f428e0)">
     <use xlink:href="#mf3adbad6f9" x="0" y="398.34866" style="fill: #d95f02; fill-opacity: 0.2"/>
    </g>
   </g>
   <g id="PolyCollection_17">
    <defs>
     <path id="m8781398d41" d="M 93.486885 -387.7555 
L 93.486885 -55.1155 
L 95.563808 -55.1155 
L 95.563808 -387.7555 
L 95.563808 -387.7555 
L 93.486885 -387.7555 
z
"/>
    </defs>
    <g clip-path="url(#pac83f428e0)">
     <use xlink:href="#m8781398d41" x="0" y="398.34866" style="fill: #d95f02; fill-opacity: 0.2"/>
    </g>
   </g>
   <g id="PolyCollection_18">
    <defs>
     <path id="m62c63e202d" d="M 95.563808 -387.7555 
L 95.563808 -55.1155 
L 97.640731 -55.1155 
L 97.640731 -387.7555 
L 97.640731 -387.7555 
L 95.563808 -387.7555 
z
"/>
    </defs>
    <g clip-path="url(#pac83f428e0)">
     <use xlink:href="#m62c63e202d" x="0" y="398.34866" style="fill: #d95f02; fill-opacity: 0.2"/>
    </g>
   </g>
   <g id="PolyCollection_19">
    <defs>
     <path id="m09d6830920" d="M 97.640731 -387.7555 
L 97.640731 -55.1155 
L 99.717654 -55.1155 
L 99.717654 -387.7555 
L 99.717654 -387.7555 
L 97.640731 -387.7555 
z
"/>
    </defs>
    <g clip-path="url(#pac83f428e0)">
     <use xlink:href="#m09d6830920" x="0" y="398.34866" style="fill: #d95f02; fill-opacity: 0.2"/>
    </g>
   </g>
   <g id="PolyCollection_20">
    <defs>
     <path id="mcd9105a7e5" d="M 99.717654 -387.7555 
L 99.717654 -55.1155 
L 101.794577 -55.1155 
L 101.794577 -387.7555 
L 101.794577 -387.7555 
L 99.717654 -387.7555 
z
"/>
    </defs>
    <g clip-path="url(#pac83f428e0)">
     <use xlink:href="#mcd9105a7e5" x="0" y="398.34866" style="fill: #d95f02; fill-opacity: 0.2"/>
    </g>
   </g>
   <g id="PolyCollection_21">
    <defs>
     <path id="m71e6d88e1e" d="M 101.794577 -387.7555 
L 101.794577 -55.1155 
L 103.8715 -55.1155 
L 103.8715 -387.7555 
L 103.8715 -387.7555 
L 101.794577 -387.7555 
z
"/>
    </defs>
    <g clip-path="url(#pac83f428e0)">
     <use xlink:href="#m71e6d88e1e" x="0" y="398.34866" style="fill: #1b9e77; fill-opacity: 0.2"/>
    </g>
   </g>
   <g id="PolyCollection_22">
    <defs>
     <path id="mf699bec921" d="M 103.8715 -387.7555 
L 103.8715 -55.1155 
L 105.948423 -55.1155 
L 105.948423 -387.7555 
L 105.948423 -387.7555 
L 103.8715 -387.7555 
z
"/>
    </defs>
    <g clip-path="url(#pac83f428e0)">
     <use xlink:href="#mf699bec921" x="0" y="398.34866" style="fill: #1b9e77; fill-opacity: 0.2"/>
    </g>
   </g>
   <g id="PolyCollection_23">
    <defs>
     <path id="m98ecee8006" d="M 105.948423 -387.7555 
L 105.948423 -55.1155 
L 108.025346 -55.1155 
L 108.025346 -387.7555 
L 108.025346 -387.7555 
L 105.948423 -387.7555 
z
"/>
    </defs>
    <g clip-path="url(#pac83f428e0)">
     <use xlink:href="#m98ecee8006" x="0" y="398.34866" style="fill: #d95f02; fill-opacity: 0.2"/>
    </g>
   </g>
   <g id="PolyCollection_24">
    <defs>
     <path id="m6063e6ab37" d="M 108.025346 -387.7555 
L 108.025346 -55.1155 
L 110.102269 -55.1155 
L 110.102269 -387.7555 
L 110.102269 -387.7555 
L 108.025346 -387.7555 
z
"/>
    </defs>
    <g clip-path="url(#pac83f428e0)">
     <use xlink:href="#m6063e6ab37" x="0" y="398.34866" style="fill: #d95f02; fill-opacity: 0.2"/>
    </g>
   </g>
   <g id="PolyCollection_25">
    <defs>
     <path id="m9cc8dd9470" d="M 110.102269 -387.7555 
L 110.102269 -55.1155 
L 112.179192 -55.1155 
L 112.179192 -387.7555 
L 112.179192 -387.7555 
L 110.102269 -387.7555 
z
"/>
    </defs>
    <g clip-path="url(#pac83f428e0)">
     <use xlink:href="#m9cc8dd9470" x="0" y="398.34866" style="fill: #d95f02; fill-opacity: 0.2"/>
    </g>
   </g>
   <g id="PolyCollection_26">
    <defs>
     <path id="m7d204788fb" d="M 112.179192 -387.7555 
L 112.179192 -55.1155 
L 114.256115 -55.1155 
L 114.256115 -387.7555 
L 114.256115 -387.7555 
L 112.179192 -387.7555 
z
"/>
    </defs>
    <g clip-path="url(#pac83f428e0)">
     <use xlink:href="#m7d204788fb" x="0" y="398.34866" style="fill: #1b9e77; fill-opacity: 0.2"/>
    </g>
   </g>
   <g id="PolyCollection_27">
    <defs>
     <path id="me6170baba8" d="M 114.256115 -387.7555 
L 114.256115 -55.1155 
L 116.333038 -55.1155 
L 116.333038 -387.7555 
L 116.333038 -387.7555 
L 114.256115 -387.7555 
z
"/>
    </defs>
    <g clip-path="url(#pac83f428e0)">
     <use xlink:href="#me6170baba8" x="0" y="398.34866" style="fill: #1b9e77; fill-opacity: 0.2"/>
    </g>
   </g>
   <g id="PolyCollection_28">
    <defs>
     <path id="m674fd8dcbd" d="M 116.333038 -387.7555 
L 116.333038 -55.1155 
L 118.409962 -55.1155 
L 118.409962 -387.7555 
L 118.409962 -387.7555 
L 116.333038 -387.7555 
z
"/>
    </defs>
    <g clip-path="url(#pac83f428e0)">
     <use xlink:href="#m674fd8dcbd" x="0" y="398.34866" style="fill: #1b9e77; fill-opacity: 0.2"/>
    </g>
   </g>
   <g id="PolyCollection_29">
    <defs>
     <path id="m17f72c5481" d="M 118.409962 -387.7555 
L 118.409962 -55.1155 
L 120.486885 -55.1155 
L 120.486885 -387.7555 
L 120.486885 -387.7555 
L 118.409962 -387.7555 
z
"/>
    </defs>
    <g clip-path="url(#pac83f428e0)">
     <use xlink:href="#m17f72c5481" x="0" y="398.34866" style="fill: #d95f02; fill-opacity: 0.2"/>
    </g>
   </g>
   <g id="PolyCollection_30">
    <defs>
     <path id="m45c4e7d750" d="M 120.486885 -387.7555 
L 120.486885 -55.1155 
L 122.563808 -55.1155 
L 122.563808 -387.7555 
L 122.563808 -387.7555 
L 120.486885 -387.7555 
z
"/>
    </defs>
    <g clip-path="url(#pac83f428e0)">
     <use xlink:href="#m45c4e7d750" x="0" y="398.34866" style="fill: #d95f02; fill-opacity: 0.2"/>
    </g>
   </g>
   <g id="PolyCollection_31">
    <defs>
     <path id="m6e65bc08bb" d="M 122.563808 -387.7555 
L 122.563808 -55.1155 
L 124.640731 -55.1155 
L 124.640731 -387.7555 
L 124.640731 -387.7555 
L 122.563808 -387.7555 
z
"/>
    </defs>
    <g clip-path="url(#pac83f428e0)">
     <use xlink:href="#m6e65bc08bb" x="0" y="398.34866" style="fill: #d95f02; fill-opacity: 0.2"/>
    </g>
   </g>
   <g id="PolyCollection_32">
    <defs>
     <path id="m003a93437b" d="M 124.640731 -387.7555 
L 124.640731 -55.1155 
L 126.717654 -55.1155 
L 126.717654 -387.7555 
L 126.717654 -387.7555 
L 124.640731 -387.7555 
z
"/>
    </defs>
    <g clip-path="url(#pac83f428e0)">
     <use xlink:href="#m003a93437b" x="0" y="398.34866" style="fill: #d95f02; fill-opacity: 0.2"/>
    </g>
   </g>
   <g id="PolyCollection_33">
    <defs>
     <path id="mbbda5c5cb5" d="M 126.717654 -387.7555 
L 126.717654 -55.1155 
L 128.794577 -55.1155 
L 128.794577 -387.7555 
L 128.794577 -387.7555 
L 126.717654 -387.7555 
z
"/>
    </defs>
    <g clip-path="url(#pac83f428e0)">
     <use xlink:href="#mbbda5c5cb5" x="0" y="398.34866" style="fill: #d95f02; fill-opacity: 0.2"/>
    </g>
   </g>
   <g id="PolyCollection_34">
    <defs>
     <path id="mdc63900f2e" d="M 128.794577 -387.7555 
L 128.794577 -55.1155 
L 130.8715 -55.1155 
L 130.8715 -387.7555 
L 130.8715 -387.7555 
L 128.794577 -387.7555 
z
"/>
    </defs>
    <g clip-path="url(#pac83f428e0)">
     <use xlink:href="#mdc63900f2e" x="0" y="398.34866" style="fill: #1b9e77; fill-opacity: 0.2"/>
    </g>
   </g>
   <g id="PolyCollection_35">
    <defs>
     <path id="me23271ffa5" d="M 130.8715 -387.7555 
L 130.8715 -55.1155 
L 132.948423 -55.1155 
L 132.948423 -387.7555 
L 132.948423 -387.7555 
L 130.8715 -387.7555 
z
"/>
    </defs>
    <g clip-path="url(#pac83f428e0)">
     <use xlink:href="#me23271ffa5" x="0" y="398.34866" style="fill: #d95f02; fill-opacity: 0.2"/>
    </g>
   </g>
   <g id="PolyCollection_36">
    <defs>
     <path id="m907936d4a7" d="M 132.948423 -387.7555 
L 132.948423 -55.1155 
L 135.025346 -55.1155 
L 135.025346 -387.7555 
L 135.025346 -387.7555 
L 132.948423 -387.7555 
z
"/>
    </defs>
    <g clip-path="url(#pac83f428e0)">
     <use xlink:href="#m907936d4a7" x="0" y="398.34866" style="fill: #d95f02; fill-opacity: 0.2"/>
    </g>
   </g>
   <g id="PolyCollection_37">
    <defs>
     <path id="m92be60375b" d="M 135.025346 -387.7555 
L 135.025346 -55.1155 
L 137.102269 -55.1155 
L 137.102269 -387.7555 
L 137.102269 -387.7555 
L 135.025346 -387.7555 
z
"/>
    </defs>
    <g clip-path="url(#pac83f428e0)">
     <use xlink:href="#m92be60375b" x="0" y="398.34866" style="fill: #1b9e77; fill-opacity: 0.2"/>
    </g>
   </g>
   <g id="PolyCollection_38">
    <defs>
     <path id="ma0e11025e2" d="M 137.102269 -387.7555 
L 137.102269 -55.1155 
L 139.179192 -55.1155 
L 139.179192 -387.7555 
L 139.179192 -387.7555 
L 137.102269 -387.7555 
z
"/>
    </defs>
    <g clip-path="url(#pac83f428e0)">
     <use xlink:href="#ma0e11025e2" x="0" y="398.34866" style="fill: #1b9e77; fill-opacity: 0.2"/>
    </g>
   </g>
   <g id="PolyCollection_39">
    <defs>
     <path id="me3d225e47e" d="M 139.179192 -387.7555 
L 139.179192 -55.1155 
L 141.256115 -55.1155 
L 141.256115 -387.7555 
L 141.256115 -387.7555 
L 139.179192 -387.7555 
z
"/>
    </defs>
    <g clip-path="url(#pac83f428e0)">
     <use xlink:href="#me3d225e47e" x="0" y="398.34866" style="fill: #1b9e77; fill-opacity: 0.2"/>
    </g>
   </g>
   <g id="PolyCollection_40">
    <defs>
     <path id="m6c0f2a616f" d="M 141.256115 -387.7555 
L 141.256115 -55.1155 
L 143.333038 -55.1155 
L 143.333038 -387.7555 
L 143.333038 -387.7555 
L 141.256115 -387.7555 
z
"/>
    </defs>
    <g clip-path="url(#pac83f428e0)">
     <use xlink:href="#m6c0f2a616f" x="0" y="398.34866" style="fill: #1b9e77; fill-opacity: 0.2"/>
    </g>
   </g>
   <g id="PolyCollection_41">
    <defs>
     <path id="me88e86b14c" d="M 143.333038 -387.7555 
L 143.333038 -55.1155 
L 145.409962 -55.1155 
L 145.409962 -387.7555 
L 145.409962 -387.7555 
L 143.333038 -387.7555 
z
"/>
    </defs>
    <g clip-path="url(#pac83f428e0)">
     <use xlink:href="#me88e86b14c" x="0" y="398.34866" style="fill: #1b9e77; fill-opacity: 0.2"/>
    </g>
   </g>
   <g id="PolyCollection_42">
    <defs>
     <path id="m432e09e729" d="M 145.409962 -387.7555 
L 145.409962 -55.1155 
L 147.486885 -55.1155 
L 147.486885 -387.7555 
L 147.486885 -387.7555 
L 145.409962 -387.7555 
z
"/>
    </defs>
    <g clip-path="url(#pac83f428e0)">
     <use xlink:href="#m432e09e729" x="0" y="398.34866" style="fill: #1b9e77; fill-opacity: 0.2"/>
    </g>
   </g>
   <g id="PolyCollection_43">
    <defs>
     <path id="mc98c252704" d="M 147.486885 -387.7555 
L 147.486885 -55.1155 
L 149.563808 -55.1155 
L 149.563808 -387.7555 
L 149.563808 -387.7555 
L 147.486885 -387.7555 
z
"/>
    </defs>
    <g clip-path="url(#pac83f428e0)">
     <use xlink:href="#mc98c252704" x="0" y="398.34866" style="fill: #1b9e77; fill-opacity: 0.2"/>
    </g>
   </g>
   <g id="PolyCollection_44">
    <defs>
     <path id="m8cb7485655" d="M 149.563808 -387.7555 
L 149.563808 -55.1155 
L 151.640731 -55.1155 
L 151.640731 -387.7555 
L 151.640731 -387.7555 
L 149.563808 -387.7555 
z
"/>
    </defs>
    <g clip-path="url(#pac83f428e0)">
     <use xlink:href="#m8cb7485655" x="0" y="398.34866" style="fill: #d95f02; fill-opacity: 0.2"/>
    </g>
   </g>
   <g id="PolyCollection_45">
    <defs>
     <path id="mc1a114c669" d="M 151.640731 -387.7555 
L 151.640731 -55.1155 
L 153.717654 -55.1155 
L 153.717654 -387.7555 
L 153.717654 -387.7555 
L 151.640731 -387.7555 
z
"/>
    </defs>
    <g clip-path="url(#pac83f428e0)">
     <use xlink:href="#mc1a114c669" x="0" y="398.34866" style="fill: #1b9e77; fill-opacity: 0.2"/>
    </g>
   </g>
   <g id="PolyCollection_46">
    <defs>
     <path id="maaf7996065" d="M 153.717654 -387.7555 
L 153.717654 -55.1155 
L 155.794577 -55.1155 
L 155.794577 -387.7555 
L 155.794577 -387.7555 
L 153.717654 -387.7555 
z
"/>
    </defs>
    <g clip-path="url(#pac83f428e0)">
     <use xlink:href="#maaf7996065" x="0" y="398.34866" style="fill: #d95f02; fill-opacity: 0.2"/>
    </g>
   </g>
   <g id="PolyCollection_47">
    <defs>
     <path id="m555bef379b" d="M 155.794577 -387.7555 
L 155.794577 -55.1155 
L 157.8715 -55.1155 
L 157.8715 -387.7555 
L 157.8715 -387.7555 
L 155.794577 -387.7555 
z
"/>
    </defs>
    <g clip-path="url(#pac83f428e0)">
     <use xlink:href="#m555bef379b" x="0" y="398.34866" style="fill: #d95f02; fill-opacity: 0.2"/>
    </g>
   </g>
   <g id="PolyCollection_48">
    <defs>
     <path id="m7a0e9f6d29" d="M 157.8715 -387.7555 
L 157.8715 -55.1155 
L 159.948423 -55.1155 
L 159.948423 -387.7555 
L 159.948423 -387.7555 
L 157.8715 -387.7555 
z
"/>
    </defs>
    <g clip-path="url(#pac83f428e0)">
     <use xlink:href="#m7a0e9f6d29" x="0" y="398.34866" style="fill: #d95f02; fill-opacity: 0.2"/>
    </g>
   </g>
   <g id="PolyCollection_49">
    <defs>
     <path id="mff6bcb8d7c" d="M 159.948423 -387.7555 
L 159.948423 -55.1155 
L 162.025346 -55.1155 
L 162.025346 -387.7555 
L 162.025346 -387.7555 
L 159.948423 -387.7555 
z
"/>
    </defs>
    <g clip-path="url(#pac83f428e0)">
     <use xlink:href="#mff6bcb8d7c" x="0" y="398.34866" style="fill: #d95f02; fill-opacity: 0.2"/>
    </g>
   </g>
   <g id="PolyCollection_50">
    <defs>
     <path id="me7ea7e2c46" d="M 162.025346 -387.7555 
L 162.025346 -55.1155 
L 164.102269 -55.1155 
L 164.102269 -387.7555 
L 164.102269 -387.7555 
L 162.025346 -387.7555 
z
"/>
    </defs>
    <g clip-path="url(#pac83f428e0)">
     <use xlink:href="#me7ea7e2c46" x="0" y="398.34866" style="fill: #d95f02; fill-opacity: 0.2"/>
    </g>
   </g>
   <g id="PolyCollection_51">
    <defs>
     <path id="ma99b30c130" d="M 164.102269 -387.7555 
L 164.102269 -55.1155 
L 166.179192 -55.1155 
L 166.179192 -387.7555 
L 166.179192 -387.7555 
L 164.102269 -387.7555 
z
"/>
    </defs>
    <g clip-path="url(#pac83f428e0)">
     <use xlink:href="#ma99b30c130" x="0" y="398.34866" style="fill: #d95f02; fill-opacity: 0.2"/>
    </g>
   </g>
   <g id="PolyCollection_52">
    <defs>
     <path id="mfa2d6ae15d" d="M 166.179192 -387.7555 
L 166.179192 -55.1155 
L 168.256115 -55.1155 
L 168.256115 -387.7555 
L 168.256115 -387.7555 
L 166.179192 -387.7555 
z
"/>
    </defs>
    <g clip-path="url(#pac83f428e0)">
     <use xlink:href="#mfa2d6ae15d" x="0" y="398.34866" style="fill: #d95f02; fill-opacity: 0.2"/>
    </g>
   </g>
   <g id="PolyCollection_53">
    <defs>
     <path id="m95888b562b" d="M 168.256115 -387.7555 
L 168.256115 -55.1155 
L 170.333038 -55.1155 
L 170.333038 -387.7555 
L 170.333038 -387.7555 
L 168.256115 -387.7555 
z
"/>
    </defs>
    <g clip-path="url(#pac83f428e0)">
     <use xlink:href="#m95888b562b" x="0" y="398.34866" style="fill: #d95f02; fill-opacity: 0.2"/>
    </g>
   </g>
   <g id="PolyCollection_54">
    <defs>
     <path id="m15d1263bc4" d="M 170.333038 -387.7555 
L 170.333038 -55.1155 
L 172.409962 -55.1155 
L 172.409962 -387.7555 
L 172.409962 -387.7555 
L 170.333038 -387.7555 
z
"/>
    </defs>
    <g clip-path="url(#pac83f428e0)">
     <use xlink:href="#m15d1263bc4" x="0" y="398.34866" style="fill: #d95f02; fill-opacity: 0.2"/>
    </g>
   </g>
   <g id="PolyCollection_55">
    <defs>
     <path id="m9aa4f8ff42" d="M 172.409962 -387.7555 
L 172.409962 -55.1155 
L 174.486885 -55.1155 
L 174.486885 -387.7555 
L 174.486885 -387.7555 
L 172.409962 -387.7555 
z
"/>
    </defs>
    <g clip-path="url(#pac83f428e0)">
     <use xlink:href="#m9aa4f8ff42" x="0" y="398.34866" style="fill: #d95f02; fill-opacity: 0.2"/>
    </g>
   </g>
   <g id="PolyCollection_56">
    <defs>
     <path id="m13305c945e" d="M 174.486885 -387.7555 
L 174.486885 -55.1155 
L 176.563808 -55.1155 
L 176.563808 -387.7555 
L 176.563808 -387.7555 
L 174.486885 -387.7555 
z
"/>
    </defs>
    <g clip-path="url(#pac83f428e0)">
     <use xlink:href="#m13305c945e" x="0" y="398.34866" style="fill: #1b9e77; fill-opacity: 0.2"/>
    </g>
   </g>
   <g id="PolyCollection_57">
    <defs>
     <path id="m1e50f71fa1" d="M 176.563808 -387.7555 
L 176.563808 -55.1155 
L 178.640731 -55.1155 
L 178.640731 -387.7555 
L 178.640731 -387.7555 
L 176.563808 -387.7555 
z
"/>
    </defs>
    <g clip-path="url(#pac83f428e0)">
     <use xlink:href="#m1e50f71fa1" x="0" y="398.34866" style="fill: #d95f02; fill-opacity: 0.2"/>
    </g>
   </g>
   <g id="PolyCollection_58">
    <defs>
     <path id="m8fa34fbcab" d="M 178.640731 -387.7555 
L 178.640731 -55.1155 
L 180.717654 -55.1155 
L 180.717654 -387.7555 
L 180.717654 -387.7555 
L 178.640731 -387.7555 
z
"/>
    </defs>
    <g clip-path="url(#pac83f428e0)">
     <use xlink:href="#m8fa34fbcab" x="0" y="398.34866" style="fill: #d95f02; fill-opacity: 0.2"/>
    </g>
   </g>
   <g id="PolyCollection_59">
    <defs>
     <path id="m03c2c32491" d="M 180.717654 -387.7555 
L 180.717654 -55.1155 
L 182.794577 -55.1155 
L 182.794577 -387.7555 
L 182.794577 -387.7555 
L 180.717654 -387.7555 
z
"/>
    </defs>
    <g clip-path="url(#pac83f428e0)">
     <use xlink:href="#m03c2c32491" x="0" y="398.34866" style="fill: #1b9e77; fill-opacity: 0.2"/>
    </g>
   </g>
   <g id="PolyCollection_60">
    <defs>
     <path id="md1ef323caf" d="M 182.794577 -387.7555 
L 182.794577 -55.1155 
L 184.8715 -55.1155 
L 184.8715 -387.7555 
L 184.8715 -387.7555 
L 182.794577 -387.7555 
z
"/>
    </defs>
    <g clip-path="url(#pac83f428e0)">
     <use xlink:href="#md1ef323caf" x="0" y="398.34866" style="fill: #d95f02; fill-opacity: 0.2"/>
    </g>
   </g>
   <g id="PolyCollection_61">
    <defs>
     <path id="mf971f34838" d="M 184.8715 -387.7555 
L 184.8715 -55.1155 
L 186.948423 -55.1155 
L 186.948423 -387.7555 
L 186.948423 -387.7555 
L 184.8715 -387.7555 
z
"/>
    </defs>
    <g clip-path="url(#pac83f428e0)">
     <use xlink:href="#mf971f34838" x="0" y="398.34866" style="fill: #d95f02; fill-opacity: 0.2"/>
    </g>
   </g>
   <g id="PolyCollection_62">
    <defs>
     <path id="mb0b64d98ca" d="M 186.948423 -387.7555 
L 186.948423 -55.1155 
L 189.025346 -55.1155 
L 189.025346 -387.7555 
L 189.025346 -387.7555 
L 186.948423 -387.7555 
z
"/>
    </defs>
    <g clip-path="url(#pac83f428e0)">
     <use xlink:href="#mb0b64d98ca" x="0" y="398.34866" style="fill: #d95f02; fill-opacity: 0.2"/>
    </g>
   </g>
   <g id="PolyCollection_63">
    <defs>
     <path id="mb959fbe14e" d="M 189.025346 -387.7555 
L 189.025346 -55.1155 
L 191.102269 -55.1155 
L 191.102269 -387.7555 
L 191.102269 -387.7555 
L 189.025346 -387.7555 
z
"/>
    </defs>
    <g clip-path="url(#pac83f428e0)">
     <use xlink:href="#mb959fbe14e" x="0" y="398.34866" style="fill: #d95f02; fill-opacity: 0.2"/>
    </g>
   </g>
   <g id="PolyCollection_64">
    <defs>
     <path id="m72ffbb75f5" d="M 191.102269 -387.7555 
L 191.102269 -55.1155 
L 193.179192 -55.1155 
L 193.179192 -387.7555 
L 193.179192 -387.7555 
L 191.102269 -387.7555 
z
"/>
    </defs>
    <g clip-path="url(#pac83f428e0)">
     <use xlink:href="#m72ffbb75f5" x="0" y="398.34866" style="fill: #d95f02; fill-opacity: 0.2"/>
    </g>
   </g>
   <g id="PolyCollection_65">
    <defs>
     <path id="m84c5597b4b" d="M 193.179192 -387.7555 
L 193.179192 -55.1155 
L 195.256115 -55.1155 
L 195.256115 -387.7555 
L 195.256115 -387.7555 
L 193.179192 -387.7555 
z
"/>
    </defs>
    <g clip-path="url(#pac83f428e0)">
     <use xlink:href="#m84c5597b4b" x="0" y="398.34866" style="fill: #1b9e77; fill-opacity: 0.2"/>
    </g>
   </g>
   <g id="PolyCollection_66">
    <defs>
     <path id="m4febe4c85e" d="M 195.256115 -387.7555 
L 195.256115 -55.1155 
L 197.333038 -55.1155 
L 197.333038 -387.7555 
L 197.333038 -387.7555 
L 195.256115 -387.7555 
z
"/>
    </defs>
    <g clip-path="url(#pac83f428e0)">
     <use xlink:href="#m4febe4c85e" x="0" y="398.34866" style="fill: #1b9e77; fill-opacity: 0.2"/>
    </g>
   </g>
   <g id="PolyCollection_67">
    <defs>
     <path id="md7a4b15bc7" d="M 197.333038 -387.7555 
L 197.333038 -55.1155 
L 199.409962 -55.1155 
L 199.409962 -387.7555 
L 199.409962 -387.7555 
L 197.333038 -387.7555 
z
"/>
    </defs>
    <g clip-path="url(#pac83f428e0)">
     <use xlink:href="#md7a4b15bc7" x="0" y="398.34866" style="fill: #d95f02; fill-opacity: 0.2"/>
    </g>
   </g>
   <g id="PolyCollection_68">
    <defs>
     <path id="mb1bfe478ed" d="M 199.409962 -387.7555 
L 199.409962 -55.1155 
L 201.486885 -55.1155 
L 201.486885 -387.7555 
L 201.486885 -387.7555 
L 199.409962 -387.7555 
z
"/>
    </defs>
    <g clip-path="url(#pac83f428e0)">
     <use xlink:href="#mb1bfe478ed" x="0" y="398.34866" style="fill: #d95f02; fill-opacity: 0.2"/>
    </g>
   </g>
   <g id="PolyCollection_69">
    <defs>
     <path id="m80a54d7b71" d="M 201.486885 -387.7555 
L 201.486885 -55.1155 
L 203.563808 -55.1155 
L 203.563808 -387.7555 
L 203.563808 -387.7555 
L 201.486885 -387.7555 
z
"/>
    </defs>
    <g clip-path="url(#pac83f428e0)">
     <use xlink:href="#m80a54d7b71" x="0" y="398.34866" style="fill: #d95f02; fill-opacity: 0.2"/>
    </g>
   </g>
   <g id="PolyCollection_70">
    <defs>
     <path id="mdf20de4afa" d="M 203.563808 -387.7555 
L 203.563808 -55.1155 
L 205.640731 -55.1155 
L 205.640731 -387.7555 
L 205.640731 -387.7555 
L 203.563808 -387.7555 
z
"/>
    </defs>
    <g clip-path="url(#pac83f428e0)">
     <use xlink:href="#mdf20de4afa" x="0" y="398.34866" style="fill: #d95f02; fill-opacity: 0.2"/>
    </g>
   </g>
   <g id="PolyCollection_71">
    <defs>
     <path id="m7ff7845ca4" d="M 205.640731 -387.7555 
L 205.640731 -55.1155 
L 207.717654 -55.1155 
L 207.717654 -387.7555 
L 207.717654 -387.7555 
L 205.640731 -387.7555 
z
"/>
    </defs>
    <g clip-path="url(#pac83f428e0)">
     <use xlink:href="#m7ff7845ca4" x="0" y="398.34866" style="fill: #d95f02; fill-opacity: 0.2"/>
    </g>
   </g>
   <g id="PolyCollection_72">
    <defs>
     <path id="m9e38690eeb" d="M 207.717654 -387.7555 
L 207.717654 -55.1155 
L 209.794577 -55.1155 
L 209.794577 -387.7555 
L 209.794577 -387.7555 
L 207.717654 -387.7555 
z
"/>
    </defs>
    <g clip-path="url(#pac83f428e0)">
     <use xlink:href="#m9e38690eeb" x="0" y="398.34866" style="fill: #d95f02; fill-opacity: 0.2"/>
    </g>
   </g>
   <g id="PolyCollection_73">
    <defs>
     <path id="m1974b6b15c" d="M 209.794577 -387.7555 
L 209.794577 -55.1155 
L 211.8715 -55.1155 
L 211.8715 -387.7555 
L 211.8715 -387.7555 
L 209.794577 -387.7555 
z
"/>
    </defs>
    <g clip-path="url(#pac83f428e0)">
     <use xlink:href="#m1974b6b15c" x="0" y="398.34866" style="fill: #d95f02; fill-opacity: 0.2"/>
    </g>
   </g>
   <g id="PolyCollection_74">
    <defs>
     <path id="m15a988eb11" d="M 211.8715 -387.7555 
L 211.8715 -55.1155 
L 213.948423 -55.1155 
L 213.948423 -387.7555 
L 213.948423 -387.7555 
L 211.8715 -387.7555 
z
"/>
    </defs>
    <g clip-path="url(#pac83f428e0)">
     <use xlink:href="#m15a988eb11" x="0" y="398.34866" style="fill: #d95f02; fill-opacity: 0.2"/>
    </g>
   </g>
   <g id="PolyCollection_75">
    <defs>
     <path id="m482e38edf0" d="M 213.948423 -387.7555 
L 213.948423 -55.1155 
L 216.025346 -55.1155 
L 216.025346 -387.7555 
L 216.025346 -387.7555 
L 213.948423 -387.7555 
z
"/>
    </defs>
    <g clip-path="url(#pac83f428e0)">
     <use xlink:href="#m482e38edf0" x="0" y="398.34866" style="fill: #d95f02; fill-opacity: 0.2"/>
    </g>
   </g>
   <g id="PolyCollection_76">
    <defs>
     <path id="m27a68d0c51" d="M 216.025346 -387.7555 
L 216.025346 -55.1155 
L 218.102269 -55.1155 
L 218.102269 -387.7555 
L 218.102269 -387.7555 
L 216.025346 -387.7555 
z
"/>
    </defs>
    <g clip-path="url(#pac83f428e0)">
     <use xlink:href="#m27a68d0c51" x="0" y="398.34866" style="fill: #d95f02; fill-opacity: 0.2"/>
    </g>
   </g>
   <g id="PolyCollection_77">
    <defs>
     <path id="m8d8cfee0e2" d="M 218.102269 -387.7555 
L 218.102269 -55.1155 
L 220.179192 -55.1155 
L 220.179192 -387.7555 
L 220.179192 -387.7555 
L 218.102269 -387.7555 
z
"/>
    </defs>
    <g clip-path="url(#pac83f428e0)">
     <use xlink:href="#m8d8cfee0e2" x="0" y="398.34866" style="fill: #d95f02; fill-opacity: 0.2"/>
    </g>
   </g>
   <g id="PolyCollection_78">
    <defs>
     <path id="m1c2fba9f2d" d="M 220.179192 -387.7555 
L 220.179192 -55.1155 
L 222.256115 -55.1155 
L 222.256115 -387.7555 
L 222.256115 -387.7555 
L 220.179192 -387.7555 
z
"/>
    </defs>
    <g clip-path="url(#pac83f428e0)">
     <use xlink:href="#m1c2fba9f2d" x="0" y="398.34866" style="fill: #d95f02; fill-opacity: 0.2"/>
    </g>
   </g>
   <g id="PolyCollection_79">
    <defs>
     <path id="m9c5e6b8efa" d="M 222.256115 -387.7555 
L 222.256115 -55.1155 
L 224.333038 -55.1155 
L 224.333038 -387.7555 
L 224.333038 -387.7555 
L 222.256115 -387.7555 
z
"/>
    </defs>
    <g clip-path="url(#pac83f428e0)">
     <use xlink:href="#m9c5e6b8efa" x="0" y="398.34866" style="fill: #d95f02; fill-opacity: 0.2"/>
    </g>
   </g>
   <g id="PolyCollection_80">
    <defs>
     <path id="m629c8be3ad" d="M 224.333038 -387.7555 
L 224.333038 -55.1155 
L 226.409962 -55.1155 
L 226.409962 -387.7555 
L 226.409962 -387.7555 
L 224.333038 -387.7555 
z
"/>
    </defs>
    <g clip-path="url(#pac83f428e0)">
     <use xlink:href="#m629c8be3ad" x="0" y="398.34866" style="fill: #d95f02; fill-opacity: 0.2"/>
    </g>
   </g>
   <g id="PolyCollection_81">
    <defs>
     <path id="ma59ae4e75c" d="M 226.409962 -387.7555 
L 226.409962 -55.1155 
L 228.486885 -55.1155 
L 228.486885 -387.7555 
L 228.486885 -387.7555 
L 226.409962 -387.7555 
z
"/>
    </defs>
    <g clip-path="url(#pac83f428e0)">
     <use xlink:href="#ma59ae4e75c" x="0" y="398.34866" style="fill: #d95f02; fill-opacity: 0.2"/>
    </g>
   </g>
   <g id="PolyCollection_82">
    <defs>
     <path id="m5cf342b5ba" d="M 228.486885 -387.7555 
L 228.486885 -55.1155 
L 230.563808 -55.1155 
L 230.563808 -387.7555 
L 230.563808 -387.7555 
L 228.486885 -387.7555 
z
"/>
    </defs>
    <g clip-path="url(#pac83f428e0)">
     <use xlink:href="#m5cf342b5ba" x="0" y="398.34866" style="fill: #d95f02; fill-opacity: 0.2"/>
    </g>
   </g>
   <g id="PolyCollection_83">
    <defs>
     <path id="mad05e74800" d="M 230.563808 -387.7555 
L 230.563808 -55.1155 
L 232.640731 -55.1155 
L 232.640731 -387.7555 
L 232.640731 -387.7555 
L 230.563808 -387.7555 
z
"/>
    </defs>
    <g clip-path="url(#pac83f428e0)">
     <use xlink:href="#mad05e74800" x="0" y="398.34866" style="fill: #d95f02; fill-opacity: 0.2"/>
    </g>
   </g>
   <g id="PolyCollection_84">
    <defs>
     <path id="mb7633316ad" d="M 232.640731 -387.7555 
L 232.640731 -55.1155 
L 234.717654 -55.1155 
L 234.717654 -387.7555 
L 234.717654 -387.7555 
L 232.640731 -387.7555 
z
"/>
    </defs>
    <g clip-path="url(#pac83f428e0)">
     <use xlink:href="#mb7633316ad" x="0" y="398.34866" style="fill: #1b9e77; fill-opacity: 0.2"/>
    </g>
   </g>
   <g id="PolyCollection_85">
    <defs>
     <path id="mf5aad3f3e3" d="M 234.717654 -387.7555 
L 234.717654 -55.1155 
L 236.794577 -55.1155 
L 236.794577 -387.7555 
L 236.794577 -387.7555 
L 234.717654 -387.7555 
z
"/>
    </defs>
    <g clip-path="url(#pac83f428e0)">
     <use xlink:href="#mf5aad3f3e3" x="0" y="398.34866" style="fill: #d95f02; fill-opacity: 0.2"/>
    </g>
   </g>
   <g id="PolyCollection_86">
    <defs>
     <path id="mf0345967b5" d="M 236.794577 -387.7555 
L 236.794577 -55.1155 
L 238.8715 -55.1155 
L 238.8715 -387.7555 
L 238.8715 -387.7555 
L 236.794577 -387.7555 
z
"/>
    </defs>
    <g clip-path="url(#pac83f428e0)">
     <use xlink:href="#mf0345967b5" x="0" y="398.34866" style="fill: #d95f02; fill-opacity: 0.2"/>
    </g>
   </g>
   <g id="PolyCollection_87">
    <defs>
     <path id="m4085702142" d="M 238.8715 -387.7555 
L 238.8715 -55.1155 
L 240.948423 -55.1155 
L 240.948423 -387.7555 
L 240.948423 -387.7555 
L 238.8715 -387.7555 
z
"/>
    </defs>
    <g clip-path="url(#pac83f428e0)">
     <use xlink:href="#m4085702142" x="0" y="398.34866" style="fill: #d95f02; fill-opacity: 0.2"/>
    </g>
   </g>
   <g id="PolyCollection_88">
    <defs>
     <path id="m4f2f60641d" d="M 240.948423 -387.7555 
L 240.948423 -55.1155 
L 243.025346 -55.1155 
L 243.025346 -387.7555 
L 243.025346 -387.7555 
L 240.948423 -387.7555 
z
"/>
    </defs>
    <g clip-path="url(#pac83f428e0)">
     <use xlink:href="#m4f2f60641d" x="0" y="398.34866" style="fill: #d95f02; fill-opacity: 0.2"/>
    </g>
   </g>
   <g id="PolyCollection_89">
    <defs>
     <path id="meb14ac237d" d="M 243.025346 -387.7555 
L 243.025346 -55.1155 
L 245.102269 -55.1155 
L 245.102269 -387.7555 
L 245.102269 -387.7555 
L 243.025346 -387.7555 
z
"/>
    </defs>
    <g clip-path="url(#pac83f428e0)">
     <use xlink:href="#meb14ac237d" x="0" y="398.34866" style="fill: #d95f02; fill-opacity: 0.2"/>
    </g>
   </g>
   <g id="PolyCollection_90">
    <defs>
     <path id="m818f13c9ec" d="M 245.102269 -387.7555 
L 245.102269 -55.1155 
L 247.179192 -55.1155 
L 247.179192 -387.7555 
L 247.179192 -387.7555 
L 245.102269 -387.7555 
z
"/>
    </defs>
    <g clip-path="url(#pac83f428e0)">
     <use xlink:href="#m818f13c9ec" x="0" y="398.34866" style="fill: #d95f02; fill-opacity: 0.2"/>
    </g>
   </g>
   <g id="PolyCollection_91">
    <defs>
     <path id="m82ec6a267d" d="M 247.179192 -387.7555 
L 247.179192 -55.1155 
L 249.256115 -55.1155 
L 249.256115 -387.7555 
L 249.256115 -387.7555 
L 247.179192 -387.7555 
z
"/>
    </defs>
    <g clip-path="url(#pac83f428e0)">
     <use xlink:href="#m82ec6a267d" x="0" y="398.34866" style="fill: #d95f02; fill-opacity: 0.2"/>
    </g>
   </g>
   <g id="PolyCollection_92">
    <defs>
     <path id="m56254890bd" d="M 249.256115 -387.7555 
L 249.256115 -55.1155 
L 251.333038 -55.1155 
L 251.333038 -387.7555 
L 251.333038 -387.7555 
L 249.256115 -387.7555 
z
"/>
    </defs>
    <g clip-path="url(#pac83f428e0)">
     <use xlink:href="#m56254890bd" x="0" y="398.34866" style="fill: #d95f02; fill-opacity: 0.2"/>
    </g>
   </g>
   <g id="PolyCollection_93">
    <defs>
     <path id="mb26d7d9b1e" d="M 251.333038 -387.7555 
L 251.333038 -55.1155 
L 253.409962 -55.1155 
L 253.409962 -387.7555 
L 253.409962 -387.7555 
L 251.333038 -387.7555 
z
"/>
    </defs>
    <g clip-path="url(#pac83f428e0)">
     <use xlink:href="#mb26d7d9b1e" x="0" y="398.34866" style="fill: #d95f02; fill-opacity: 0.2"/>
    </g>
   </g>
   <g id="PolyCollection_94">
    <defs>
     <path id="mc7fa1b8f66" d="M 253.409962 -387.7555 
L 253.409962 -55.1155 
L 255.486885 -55.1155 
L 255.486885 -387.7555 
L 255.486885 -387.7555 
L 253.409962 -387.7555 
z
"/>
    </defs>
    <g clip-path="url(#pac83f428e0)">
     <use xlink:href="#mc7fa1b8f66" x="0" y="398.34866" style="fill: #d95f02; fill-opacity: 0.2"/>
    </g>
   </g>
   <g id="PolyCollection_95">
    <defs>
     <path id="m2621461082" d="M 255.486885 -387.7555 
L 255.486885 -55.1155 
L 257.563808 -55.1155 
L 257.563808 -387.7555 
L 257.563808 -387.7555 
L 255.486885 -387.7555 
z
"/>
    </defs>
    <g clip-path="url(#pac83f428e0)">
     <use xlink:href="#m2621461082" x="0" y="398.34866" style="fill: #d95f02; fill-opacity: 0.2"/>
    </g>
   </g>
   <g id="PolyCollection_96">
    <defs>
     <path id="m4655fafb9d" d="M 257.563808 -387.7555 
L 257.563808 -55.1155 
L 259.640731 -55.1155 
L 259.640731 -387.7555 
L 259.640731 -387.7555 
L 257.563808 -387.7555 
z
"/>
    </defs>
    <g clip-path="url(#pac83f428e0)">
     <use xlink:href="#m4655fafb9d" x="0" y="398.34866" style="fill: #d95f02; fill-opacity: 0.2"/>
    </g>
   </g>
   <g id="PolyCollection_97">
    <defs>
     <path id="m5be1b8795a" d="M 259.640731 -387.7555 
L 259.640731 -55.1155 
L 261.717654 -55.1155 
L 261.717654 -387.7555 
L 261.717654 -387.7555 
L 259.640731 -387.7555 
z
"/>
    </defs>
    <g clip-path="url(#pac83f428e0)">
     <use xlink:href="#m5be1b8795a" x="0" y="398.34866" style="fill: #d95f02; fill-opacity: 0.2"/>
    </g>
   </g>
   <g id="PolyCollection_98">
    <defs>
     <path id="mcde094bc72" d="M 261.717654 -387.7555 
L 261.717654 -55.1155 
L 263.794577 -55.1155 
L 263.794577 -387.7555 
L 263.794577 -387.7555 
L 261.717654 -387.7555 
z
"/>
    </defs>
    <g clip-path="url(#pac83f428e0)">
     <use xlink:href="#mcde094bc72" x="0" y="398.34866" style="fill: #d95f02; fill-opacity: 0.2"/>
    </g>
   </g>
   <g id="PolyCollection_99">
    <defs>
     <path id="me4aec98ee9" d="M 263.794577 -387.7555 
L 263.794577 -55.1155 
L 265.8715 -55.1155 
L 265.8715 -387.7555 
L 265.8715 -387.7555 
L 263.794577 -387.7555 
z
"/>
    </defs>
    <g clip-path="url(#pac83f428e0)">
     <use xlink:href="#me4aec98ee9" x="0" y="398.34866" style="fill: #d95f02; fill-opacity: 0.2"/>
    </g>
   </g>
   <g id="PolyCollection_100">
    <defs>
     <path id="m84e4366ff8" d="M 265.8715 -387.7555 
L 265.8715 -55.1155 
L 267.948423 -55.1155 
L 267.948423 -387.7555 
L 267.948423 -387.7555 
L 265.8715 -387.7555 
z
"/>
    </defs>
    <g clip-path="url(#pac83f428e0)">
     <use xlink:href="#m84e4366ff8" x="0" y="398.34866" style="fill: #d95f02; fill-opacity: 0.2"/>
    </g>
   </g>
   <g id="PolyCollection_101">
    <defs>
     <path id="m9f979597f3" d="M 267.948423 -387.7555 
L 267.948423 -55.1155 
L 270.025346 -55.1155 
L 270.025346 -387.7555 
L 270.025346 -387.7555 
L 267.948423 -387.7555 
z
"/>
    </defs>
    <g clip-path="url(#pac83f428e0)">
     <use xlink:href="#m9f979597f3" x="0" y="398.34866" style="fill: #d95f02; fill-opacity: 0.2"/>
    </g>
   </g>
   <g id="PolyCollection_102">
    <defs>
     <path id="m1d9c6adcec" d="M 270.025346 -387.7555 
L 270.025346 -55.1155 
L 272.102269 -55.1155 
L 272.102269 -387.7555 
L 272.102269 -387.7555 
L 270.025346 -387.7555 
z
"/>
    </defs>
    <g clip-path="url(#pac83f428e0)">
     <use xlink:href="#m1d9c6adcec" x="0" y="398.34866" style="fill: #d95f02; fill-opacity: 0.2"/>
    </g>
   </g>
   <g id="PolyCollection_103">
    <defs>
     <path id="m25cbf6d6ba" d="M 272.102269 -387.7555 
L 272.102269 -55.1155 
L 274.179192 -55.1155 
L 274.179192 -387.7555 
L 274.179192 -387.7555 
L 272.102269 -387.7555 
z
"/>
    </defs>
    <g clip-path="url(#pac83f428e0)">
     <use xlink:href="#m25cbf6d6ba" x="0" y="398.34866" style="fill: #d95f02; fill-opacity: 0.2"/>
    </g>
   </g>
   <g id="PolyCollection_104">
    <defs>
     <path id="mcdae66d6a6" d="M 274.179192 -387.7555 
L 274.179192 -55.1155 
L 276.256115 -55.1155 
L 276.256115 -387.7555 
L 276.256115 -387.7555 
L 274.179192 -387.7555 
z
"/>
    </defs>
    <g clip-path="url(#pac83f428e0)">
     <use xlink:href="#mcdae66d6a6" x="0" y="398.34866" style="fill: #d95f02; fill-opacity: 0.2"/>
    </g>
   </g>
   <g id="PolyCollection_105">
    <defs>
     <path id="m849c39d1dc" d="M 276.256115 -387.7555 
L 276.256115 -55.1155 
L 278.333038 -55.1155 
L 278.333038 -387.7555 
L 278.333038 -387.7555 
L 276.256115 -387.7555 
z
"/>
    </defs>
    <g clip-path="url(#pac83f428e0)">
     <use xlink:href="#m849c39d1dc" x="0" y="398.34866" style="fill: #d95f02; fill-opacity: 0.2"/>
    </g>
   </g>
   <g id="PolyCollection_106">
    <defs>
     <path id="me519e08be2" d="M 278.333038 -387.7555 
L 278.333038 -55.1155 
L 280.409962 -55.1155 
L 280.409962 -387.7555 
L 280.409962 -387.7555 
L 278.333038 -387.7555 
z
"/>
    </defs>
    <g clip-path="url(#pac83f428e0)">
     <use xlink:href="#me519e08be2" x="0" y="398.34866" style="fill: #d95f02; fill-opacity: 0.2"/>
    </g>
   </g>
   <g id="PolyCollection_107">
    <defs>
     <path id="mfe0c21bf9b" d="M 280.409962 -387.7555 
L 280.409962 -55.1155 
L 282.486885 -55.1155 
L 282.486885 -387.7555 
L 282.486885 -387.7555 
L 280.409962 -387.7555 
z
"/>
    </defs>
    <g clip-path="url(#pac83f428e0)">
     <use xlink:href="#mfe0c21bf9b" x="0" y="398.34866" style="fill: #d95f02; fill-opacity: 0.2"/>
    </g>
   </g>
   <g id="PolyCollection_108">
    <defs>
     <path id="me357838bb8" d="M 282.486885 -387.7555 
L 282.486885 -55.1155 
L 284.563808 -55.1155 
L 284.563808 -387.7555 
L 284.563808 -387.7555 
L 282.486885 -387.7555 
z
"/>
    </defs>
    <g clip-path="url(#pac83f428e0)">
     <use xlink:href="#me357838bb8" x="0" y="398.34866" style="fill: #d95f02; fill-opacity: 0.2"/>
    </g>
   </g>
   <g id="PolyCollection_109">
    <defs>
     <path id="m7a26d401e6" d="M 284.563808 -387.7555 
L 284.563808 -55.1155 
L 286.640731 -55.1155 
L 286.640731 -387.7555 
L 286.640731 -387.7555 
L 284.563808 -387.7555 
z
"/>
    </defs>
    <g clip-path="url(#pac83f428e0)">
     <use xlink:href="#m7a26d401e6" x="0" y="398.34866" style="fill: #d95f02; fill-opacity: 0.2"/>
    </g>
   </g>
   <g id="PolyCollection_110">
    <defs>
     <path id="m093510cb73" d="M 286.640731 -387.7555 
L 286.640731 -55.1155 
L 288.717654 -55.1155 
L 288.717654 -387.7555 
L 288.717654 -387.7555 
L 286.640731 -387.7555 
z
"/>
    </defs>
    <g clip-path="url(#pac83f428e0)">
     <use xlink:href="#m093510cb73" x="0" y="398.34866" style="fill: #d95f02; fill-opacity: 0.2"/>
    </g>
   </g>
   <g id="PolyCollection_111">
    <defs>
     <path id="ma8cbce7852" d="M 288.717654 -387.7555 
L 288.717654 -55.1155 
L 290.794577 -55.1155 
L 290.794577 -387.7555 
L 290.794577 -387.7555 
L 288.717654 -387.7555 
z
"/>
    </defs>
    <g clip-path="url(#pac83f428e0)">
     <use xlink:href="#ma8cbce7852" x="0" y="398.34866" style="fill: #d95f02; fill-opacity: 0.2"/>
    </g>
   </g>
   <g id="PolyCollection_112">
    <defs>
     <path id="m57f928e95f" d="M 290.794577 -387.7555 
L 290.794577 -55.1155 
L 292.8715 -55.1155 
L 292.8715 -387.7555 
L 292.8715 -387.7555 
L 290.794577 -387.7555 
z
"/>
    </defs>
    <g clip-path="url(#pac83f428e0)">
     <use xlink:href="#m57f928e95f" x="0" y="398.34866" style="fill: #d95f02; fill-opacity: 0.2"/>
    </g>
   </g>
   <g id="PolyCollection_113">
    <defs>
     <path id="mbd64c15c97" d="M 292.8715 -387.7555 
L 292.8715 -55.1155 
L 294.948423 -55.1155 
L 294.948423 -387.7555 
L 294.948423 -387.7555 
L 292.8715 -387.7555 
z
"/>
    </defs>
    <g clip-path="url(#pac83f428e0)">
     <use xlink:href="#mbd64c15c97" x="0" y="398.34866" style="fill: #d95f02; fill-opacity: 0.2"/>
    </g>
   </g>
   <g id="PolyCollection_114">
    <defs>
     <path id="m1a3ba4b86c" d="M 294.948423 -387.7555 
L 294.948423 -55.1155 
L 297.025346 -55.1155 
L 297.025346 -387.7555 
L 297.025346 -387.7555 
L 294.948423 -387.7555 
z
"/>
    </defs>
    <g clip-path="url(#pac83f428e0)">
     <use xlink:href="#m1a3ba4b86c" x="0" y="398.34866" style="fill: #d95f02; fill-opacity: 0.2"/>
    </g>
   </g>
   <g id="PolyCollection_115">
    <defs>
     <path id="mc6e248b473" d="M 297.025346 -387.7555 
L 297.025346 -55.1155 
L 299.102269 -55.1155 
L 299.102269 -387.7555 
L 299.102269 -387.7555 
L 297.025346 -387.7555 
z
"/>
    </defs>
    <g clip-path="url(#pac83f428e0)">
     <use xlink:href="#mc6e248b473" x="0" y="398.34866" style="fill: #d95f02; fill-opacity: 0.2"/>
    </g>
   </g>
   <g id="PolyCollection_116">
    <defs>
     <path id="med1049e814" d="M 299.102269 -387.7555 
L 299.102269 -55.1155 
L 301.179192 -55.1155 
L 301.179192 -387.7555 
L 301.179192 -387.7555 
L 299.102269 -387.7555 
z
"/>
    </defs>
    <g clip-path="url(#pac83f428e0)">
     <use xlink:href="#med1049e814" x="0" y="398.34866" style="fill: #d95f02; fill-opacity: 0.2"/>
    </g>
   </g>
   <g id="PolyCollection_117">
    <defs>
     <path id="m862b8ef982" d="M 301.179192 -387.7555 
L 301.179192 -55.1155 
L 303.256115 -55.1155 
L 303.256115 -387.7555 
L 303.256115 -387.7555 
L 301.179192 -387.7555 
z
"/>
    </defs>
    <g clip-path="url(#pac83f428e0)">
     <use xlink:href="#m862b8ef982" x="0" y="398.34866" style="fill: #d95f02; fill-opacity: 0.2"/>
    </g>
   </g>
   <g id="PolyCollection_118">
    <defs>
     <path id="m954794cee0" d="M 303.256115 -387.7555 
L 303.256115 -55.1155 
L 305.333038 -55.1155 
L 305.333038 -387.7555 
L 305.333038 -387.7555 
L 303.256115 -387.7555 
z
"/>
    </defs>
    <g clip-path="url(#pac83f428e0)">
     <use xlink:href="#m954794cee0" x="0" y="398.34866" style="fill: #d95f02; fill-opacity: 0.2"/>
    </g>
   </g>
   <g id="PolyCollection_119">
    <defs>
     <path id="md77bdd257c" d="M 305.333038 -387.7555 
L 305.333038 -55.1155 
L 307.409962 -55.1155 
L 307.409962 -387.7555 
L 307.409962 -387.7555 
L 305.333038 -387.7555 
z
"/>
    </defs>
    <g clip-path="url(#pac83f428e0)">
     <use xlink:href="#md77bdd257c" x="0" y="398.34866" style="fill: #d95f02; fill-opacity: 0.2"/>
    </g>
   </g>
   <g id="PolyCollection_120">
    <defs>
     <path id="mfbee19c868" d="M 307.409962 -387.7555 
L 307.409962 -55.1155 
L 309.486885 -55.1155 
L 309.486885 -387.7555 
L 309.486885 -387.7555 
L 307.409962 -387.7555 
z
"/>
    </defs>
    <g clip-path="url(#pac83f428e0)">
     <use xlink:href="#mfbee19c868" x="0" y="398.34866" style="fill: #d95f02; fill-opacity: 0.2"/>
    </g>
   </g>
   <g id="PolyCollection_121">
    <defs>
     <path id="m3428ea8de4" d="M 309.486885 -387.7555 
L 309.486885 -55.1155 
L 311.563808 -55.1155 
L 311.563808 -387.7555 
L 311.563808 -387.7555 
L 309.486885 -387.7555 
z
"/>
    </defs>
    <g clip-path="url(#pac83f428e0)">
     <use xlink:href="#m3428ea8de4" x="0" y="398.34866" style="fill: #d95f02; fill-opacity: 0.2"/>
    </g>
   </g>
   <g id="PolyCollection_122">
    <defs>
     <path id="m58a9df0f1e" d="M 311.563808 -387.7555 
L 311.563808 -55.1155 
L 313.640731 -55.1155 
L 313.640731 -387.7555 
L 313.640731 -387.7555 
L 311.563808 -387.7555 
z
"/>
    </defs>
    <g clip-path="url(#pac83f428e0)">
     <use xlink:href="#m58a9df0f1e" x="0" y="398.34866" style="fill: #1b9e77; fill-opacity: 0.2"/>
    </g>
   </g>
   <g id="PolyCollection_123">
    <defs>
     <path id="m87e5ca033e" d="M 313.640731 -387.7555 
L 313.640731 -55.1155 
L 315.717654 -55.1155 
L 315.717654 -387.7555 
L 315.717654 -387.7555 
L 313.640731 -387.7555 
z
"/>
    </defs>
    <g clip-path="url(#pac83f428e0)">
     <use xlink:href="#m87e5ca033e" x="0" y="398.34866" style="fill: #1b9e77; fill-opacity: 0.2"/>
    </g>
   </g>
   <g id="PolyCollection_124">
    <defs>
     <path id="m37a70a234d" d="M 315.717654 -387.7555 
L 315.717654 -55.1155 
L 317.794577 -55.1155 
L 317.794577 -387.7555 
L 317.794577 -387.7555 
L 315.717654 -387.7555 
z
"/>
    </defs>
    <g clip-path="url(#pac83f428e0)">
     <use xlink:href="#m37a70a234d" x="0" y="398.34866" style="fill: #d95f02; fill-opacity: 0.2"/>
    </g>
   </g>
   <g id="PolyCollection_125">
    <defs>
     <path id="m826cd047e3" d="M 317.794577 -387.7555 
L 317.794577 -55.1155 
L 319.8715 -55.1155 
L 319.8715 -387.7555 
L 319.8715 -387.7555 
L 317.794577 -387.7555 
z
"/>
    </defs>
    <g clip-path="url(#pac83f428e0)">
     <use xlink:href="#m826cd047e3" x="0" y="398.34866" style="fill: #d95f02; fill-opacity: 0.2"/>
    </g>
   </g>
   <g id="PolyCollection_126">
    <defs>
     <path id="m4ff529eaa7" d="M 319.8715 -387.7555 
L 319.8715 -55.1155 
L 321.948423 -55.1155 
L 321.948423 -387.7555 
L 321.948423 -387.7555 
L 319.8715 -387.7555 
z
"/>
    </defs>
    <g clip-path="url(#pac83f428e0)">
     <use xlink:href="#m4ff529eaa7" x="0" y="398.34866" style="fill: #1b9e77; fill-opacity: 0.2"/>
    </g>
   </g>
   <g id="PolyCollection_127">
    <defs>
     <path id="ma5ed4cfa0e" d="M 321.948423 -387.7555 
L 321.948423 -55.1155 
L 324.025346 -55.1155 
L 324.025346 -387.7555 
L 324.025346 -387.7555 
L 321.948423 -387.7555 
z
"/>
    </defs>
    <g clip-path="url(#pac83f428e0)">
     <use xlink:href="#ma5ed4cfa0e" x="0" y="398.34866" style="fill: #d95f02; fill-opacity: 0.2"/>
    </g>
   </g>
   <g id="PolyCollection_128">
    <defs>
     <path id="m7bf8894725" d="M 324.025346 -387.7555 
L 324.025346 -55.1155 
L 326.102269 -55.1155 
L 326.102269 -387.7555 
L 326.102269 -387.7555 
L 324.025346 -387.7555 
z
"/>
    </defs>
    <g clip-path="url(#pac83f428e0)">
     <use xlink:href="#m7bf8894725" x="0" y="398.34866" style="fill: #d95f02; fill-opacity: 0.2"/>
    </g>
   </g>
   <g id="PolyCollection_129">
    <defs>
     <path id="m7537421c60" d="M 326.102269 -387.7555 
L 326.102269 -55.1155 
L 328.179192 -55.1155 
L 328.179192 -387.7555 
L 328.179192 -387.7555 
L 326.102269 -387.7555 
z
"/>
    </defs>
    <g clip-path="url(#pac83f428e0)">
     <use xlink:href="#m7537421c60" x="0" y="398.34866" style="fill: #1b9e77; fill-opacity: 0.2"/>
    </g>
   </g>
   <g id="PolyCollection_130">
    <defs>
     <path id="m3dfe6d91f2" d="M 328.179192 -387.7555 
L 328.179192 -55.1155 
L 330.256115 -55.1155 
L 330.256115 -387.7555 
L 330.256115 -387.7555 
L 328.179192 -387.7555 
z
"/>
    </defs>
    <g clip-path="url(#pac83f428e0)">
     <use xlink:href="#m3dfe6d91f2" x="0" y="398.34866" style="fill: #1b9e77; fill-opacity: 0.2"/>
    </g>
   </g>
   <g id="PolyCollection_131">
    <defs>
     <path id="m0725a1c979" d="M 330.256115 -387.7555 
L 330.256115 -55.1155 
L 332.333038 -55.1155 
L 332.333038 -387.7555 
L 332.333038 -387.7555 
L 330.256115 -387.7555 
z
"/>
    </defs>
    <g clip-path="url(#pac83f428e0)">
     <use xlink:href="#m0725a1c979" x="0" y="398.34866" style="fill: #d95f02; fill-opacity: 0.2"/>
    </g>
   </g>
   <g id="PolyCollection_132">
    <defs>
     <path id="m5a3d07f4c4" d="M 332.333038 -387.7555 
L 332.333038 -55.1155 
L 334.409962 -55.1155 
L 334.409962 -387.7555 
L 334.409962 -387.7555 
L 332.333038 -387.7555 
z
"/>
    </defs>
    <g clip-path="url(#pac83f428e0)">
     <use xlink:href="#m5a3d07f4c4" x="0" y="398.34866" style="fill: #d95f02; fill-opacity: 0.2"/>
    </g>
   </g>
   <g id="PolyCollection_133">
    <defs>
     <path id="m301e41f15f" d="M 334.409962 -387.7555 
L 334.409962 -55.1155 
L 336.486885 -55.1155 
L 336.486885 -387.7555 
L 336.486885 -387.7555 
L 334.409962 -387.7555 
z
"/>
    </defs>
    <g clip-path="url(#pac83f428e0)">
     <use xlink:href="#m301e41f15f" x="0" y="398.34866" style="fill: #d95f02; fill-opacity: 0.2"/>
    </g>
   </g>
   <g id="PolyCollection_134">
    <defs>
     <path id="m086ea708ca" d="M 336.486885 -387.7555 
L 336.486885 -55.1155 
L 338.563808 -55.1155 
L 338.563808 -387.7555 
L 338.563808 -387.7555 
L 336.486885 -387.7555 
z
"/>
    </defs>
    <g clip-path="url(#pac83f428e0)">
     <use xlink:href="#m086ea708ca" x="0" y="398.34866" style="fill: #d95f02; fill-opacity: 0.2"/>
    </g>
   </g>
   <g id="PolyCollection_135">
    <defs>
     <path id="mcd422e425a" d="M 338.563808 -387.7555 
L 338.563808 -55.1155 
L 340.640731 -55.1155 
L 340.640731 -387.7555 
L 340.640731 -387.7555 
L 338.563808 -387.7555 
z
"/>
    </defs>
    <g clip-path="url(#pac83f428e0)">
     <use xlink:href="#mcd422e425a" x="0" y="398.34866" style="fill: #d95f02; fill-opacity: 0.2"/>
    </g>
   </g>
   <g id="PolyCollection_136">
    <defs>
     <path id="m0e142a1587" d="M 340.640731 -387.7555 
L 340.640731 -55.1155 
L 342.717654 -55.1155 
L 342.717654 -387.7555 
L 342.717654 -387.7555 
L 340.640731 -387.7555 
z
"/>
    </defs>
    <g clip-path="url(#pac83f428e0)">
     <use xlink:href="#m0e142a1587" x="0" y="398.34866" style="fill: #d95f02; fill-opacity: 0.2"/>
    </g>
   </g>
   <g id="PolyCollection_137">
    <defs>
     <path id="mb3c65cd786" d="M 342.717654 -387.7555 
L 342.717654 -55.1155 
L 344.794577 -55.1155 
L 344.794577 -387.7555 
L 344.794577 -387.7555 
L 342.717654 -387.7555 
z
"/>
    </defs>
    <g clip-path="url(#pac83f428e0)">
     <use xlink:href="#mb3c65cd786" x="0" y="398.34866" style="fill: #d95f02; fill-opacity: 0.2"/>
    </g>
   </g>
   <g id="PolyCollection_138">
    <defs>
     <path id="me0e9a5642d" d="M 344.794577 -387.7555 
L 344.794577 -55.1155 
L 346.8715 -55.1155 
L 346.8715 -387.7555 
L 346.8715 -387.7555 
L 344.794577 -387.7555 
z
"/>
    </defs>
    <g clip-path="url(#pac83f428e0)">
     <use xlink:href="#me0e9a5642d" x="0" y="398.34866" style="fill: #d95f02; fill-opacity: 0.2"/>
    </g>
   </g>
   <g id="PolyCollection_139">
    <defs>
     <path id="me2221bd6e7" d="M 346.8715 -387.7555 
L 346.8715 -55.1155 
L 348.948423 -55.1155 
L 348.948423 -387.7555 
L 348.948423 -387.7555 
L 346.8715 -387.7555 
z
"/>
    </defs>
    <g clip-path="url(#pac83f428e0)">
     <use xlink:href="#me2221bd6e7" x="0" y="398.34866" style="fill: #d95f02; fill-opacity: 0.2"/>
    </g>
   </g>
   <g id="PolyCollection_140">
    <defs>
     <path id="m3f6ece3f30" d="M 348.948423 -387.7555 
L 348.948423 -55.1155 
L 351.025346 -55.1155 
L 351.025346 -387.7555 
L 351.025346 -387.7555 
L 348.948423 -387.7555 
z
"/>
    </defs>
    <g clip-path="url(#pac83f428e0)">
     <use xlink:href="#m3f6ece3f30" x="0" y="398.34866" style="fill: #d95f02; fill-opacity: 0.2"/>
    </g>
   </g>
   <g id="PolyCollection_141">
    <defs>
     <path id="m351dfd5473" d="M 351.025346 -387.7555 
L 351.025346 -55.1155 
L 353.102269 -55.1155 
L 353.102269 -387.7555 
L 353.102269 -387.7555 
L 351.025346 -387.7555 
z
"/>
    </defs>
    <g clip-path="url(#pac83f428e0)">
     <use xlink:href="#m351dfd5473" x="0" y="398.34866" style="fill: #d95f02; fill-opacity: 0.2"/>
    </g>
   </g>
   <g id="PolyCollection_142">
    <defs>
     <path id="m8da5ee3dc9" d="M 353.102269 -387.7555 
L 353.102269 -55.1155 
L 355.179192 -55.1155 
L 355.179192 -387.7555 
L 355.179192 -387.7555 
L 353.102269 -387.7555 
z
"/>
    </defs>
    <g clip-path="url(#pac83f428e0)">
     <use xlink:href="#m8da5ee3dc9" x="0" y="398.34866" style="fill: #d95f02; fill-opacity: 0.2"/>
    </g>
   </g>
   <g id="PolyCollection_143">
    <defs>
     <path id="m06b474b5cd" d="M 355.179192 -387.7555 
L 355.179192 -55.1155 
L 357.256115 -55.1155 
L 357.256115 -387.7555 
L 357.256115 -387.7555 
L 355.179192 -387.7555 
z
"/>
    </defs>
    <g clip-path="url(#pac83f428e0)">
     <use xlink:href="#m06b474b5cd" x="0" y="398.34866" style="fill: #d95f02; fill-opacity: 0.2"/>
    </g>
   </g>
   <g id="PolyCollection_144">
    <defs>
     <path id="m31c21ee0fb" d="M 357.256115 -387.7555 
L 357.256115 -55.1155 
L 359.333038 -55.1155 
L 359.333038 -387.7555 
L 359.333038 -387.7555 
L 357.256115 -387.7555 
z
"/>
    </defs>
    <g clip-path="url(#pac83f428e0)">
     <use xlink:href="#m31c21ee0fb" x="0" y="398.34866" style="fill: #d95f02; fill-opacity: 0.2"/>
    </g>
   </g>
   <g id="PolyCollection_145">
    <defs>
     <path id="m660a12fe82" d="M 359.333038 -387.7555 
L 359.333038 -55.1155 
L 361.409962 -55.1155 
L 361.409962 -387.7555 
L 361.409962 -387.7555 
L 359.333038 -387.7555 
z
"/>
    </defs>
    <g clip-path="url(#pac83f428e0)">
     <use xlink:href="#m660a12fe82" x="0" y="398.34866" style="fill: #d95f02; fill-opacity: 0.2"/>
    </g>
   </g>
   <g id="PolyCollection_146">
    <defs>
     <path id="m128c84b2d2" d="M 361.409962 -387.7555 
L 361.409962 -55.1155 
L 363.486885 -55.1155 
L 363.486885 -387.7555 
L 363.486885 -387.7555 
L 361.409962 -387.7555 
z
"/>
    </defs>
    <g clip-path="url(#pac83f428e0)">
     <use xlink:href="#m128c84b2d2" x="0" y="398.34866" style="fill: #d95f02; fill-opacity: 0.2"/>
    </g>
   </g>
   <g id="PolyCollection_147">
    <defs>
     <path id="ma1d5e67a21" d="M 363.486885 -387.7555 
L 363.486885 -55.1155 
L 365.563808 -55.1155 
L 365.563808 -387.7555 
L 365.563808 -387.7555 
L 363.486885 -387.7555 
z
"/>
    </defs>
    <g clip-path="url(#pac83f428e0)">
     <use xlink:href="#ma1d5e67a21" x="0" y="398.34866" style="fill: #d95f02; fill-opacity: 0.2"/>
    </g>
   </g>
   <g id="PolyCollection_148">
    <defs>
     <path id="ma103b5011f" d="M 365.563808 -387.7555 
L 365.563808 -55.1155 
L 367.640731 -55.1155 
L 367.640731 -387.7555 
L 367.640731 -387.7555 
L 365.563808 -387.7555 
z
"/>
    </defs>
    <g clip-path="url(#pac83f428e0)">
     <use xlink:href="#ma103b5011f" x="0" y="398.34866" style="fill: #1b9e77; fill-opacity: 0.2"/>
    </g>
   </g>
   <g id="PolyCollection_149">
    <defs>
     <path id="m4cdee0d39d" d="M 367.640731 -387.7555 
L 367.640731 -55.1155 
L 369.717654 -55.1155 
L 369.717654 -387.7555 
L 369.717654 -387.7555 
L 367.640731 -387.7555 
z
"/>
    </defs>
    <g clip-path="url(#pac83f428e0)">
     <use xlink:href="#m4cdee0d39d" x="0" y="398.34866" style="fill: #1b9e77; fill-opacity: 0.2"/>
    </g>
   </g>
   <g id="PolyCollection_150">
    <defs>
     <path id="mc8a0a64348" d="M 369.717654 -387.7555 
L 369.717654 -55.1155 
L 371.794577 -55.1155 
L 371.794577 -387.7555 
L 371.794577 -387.7555 
L 369.717654 -387.7555 
z
"/>
    </defs>
    <g clip-path="url(#pac83f428e0)">
     <use xlink:href="#mc8a0a64348" x="0" y="398.34866" style="fill: #1b9e77; fill-opacity: 0.2"/>
    </g>
   </g>
   <g id="PolyCollection_151">
    <defs>
     <path id="m3b29eaa43e" d="M 371.794577 -387.7555 
L 371.794577 -55.1155 
L 373.8715 -55.1155 
L 373.8715 -387.7555 
L 373.8715 -387.7555 
L 371.794577 -387.7555 
z
"/>
    </defs>
    <g clip-path="url(#pac83f428e0)">
     <use xlink:href="#m3b29eaa43e" x="0" y="398.34866" style="fill: #1b9e77; fill-opacity: 0.2"/>
    </g>
   </g>
   <g id="PolyCollection_152">
    <defs>
     <path id="m14d1c5a1e0" d="M 373.8715 -387.7555 
L 373.8715 -55.1155 
L 375.948423 -55.1155 
L 375.948423 -387.7555 
L 375.948423 -387.7555 
L 373.8715 -387.7555 
z
"/>
    </defs>
    <g clip-path="url(#pac83f428e0)">
     <use xlink:href="#m14d1c5a1e0" x="0" y="398.34866" style="fill: #1b9e77; fill-opacity: 0.2"/>
    </g>
   </g>
   <g id="PolyCollection_153">
    <defs>
     <path id="md5ee6fc5d5" d="M 375.948423 -387.7555 
L 375.948423 -55.1155 
L 378.025346 -55.1155 
L 378.025346 -387.7555 
L 378.025346 -387.7555 
L 375.948423 -387.7555 
z
"/>
    </defs>
    <g clip-path="url(#pac83f428e0)">
     <use xlink:href="#md5ee6fc5d5" x="0" y="398.34866" style="fill: #1b9e77; fill-opacity: 0.2"/>
    </g>
   </g>
   <g id="PolyCollection_154">
    <defs>
     <path id="m0e460a2852" d="M 378.025346 -387.7555 
L 378.025346 -55.1155 
L 380.102269 -55.1155 
L 380.102269 -387.7555 
L 380.102269 -387.7555 
L 378.025346 -387.7555 
z
"/>
    </defs>
    <g clip-path="url(#pac83f428e0)">
     <use xlink:href="#m0e460a2852" x="0" y="398.34866" style="fill: #1b9e77; fill-opacity: 0.2"/>
    </g>
   </g>
   <g id="PolyCollection_155">
    <defs>
     <path id="m29c5956cc6" d="M 380.102269 -387.7555 
L 380.102269 -55.1155 
L 382.179192 -55.1155 
L 382.179192 -387.7555 
L 382.179192 -387.7555 
L 380.102269 -387.7555 
z
"/>
    </defs>
    <g clip-path="url(#pac83f428e0)">
     <use xlink:href="#m29c5956cc6" x="0" y="398.34866" style="fill: #d95f02; fill-opacity: 0.2"/>
    </g>
   </g>
   <g id="PolyCollection_156">
    <defs>
     <path id="m4ccff1bffc" d="M 382.179192 -387.7555 
L 382.179192 -55.1155 
L 384.256115 -55.1155 
L 384.256115 -387.7555 
L 384.256115 -387.7555 
L 382.179192 -387.7555 
z
"/>
    </defs>
    <g clip-path="url(#pac83f428e0)">
     <use xlink:href="#m4ccff1bffc" x="0" y="398.34866" style="fill: #1b9e77; fill-opacity: 0.2"/>
    </g>
   </g>
   <g id="PolyCollection_157">
    <defs>
     <path id="m3dfabeba46" d="M 384.256115 -387.7555 
L 384.256115 -55.1155 
L 386.333038 -55.1155 
L 386.333038 -387.7555 
L 386.333038 -387.7555 
L 384.256115 -387.7555 
z
"/>
    </defs>
    <g clip-path="url(#pac83f428e0)">
     <use xlink:href="#m3dfabeba46" x="0" y="398.34866" style="fill: #d95f02; fill-opacity: 0.2"/>
    </g>
   </g>
   <g id="PolyCollection_158">
    <defs>
     <path id="m5315fff583" d="M 386.333038 -387.7555 
L 386.333038 -55.1155 
L 388.409962 -55.1155 
L 388.409962 -387.7555 
L 388.409962 -387.7555 
L 386.333038 -387.7555 
z
"/>
    </defs>
    <g clip-path="url(#pac83f428e0)">
     <use xlink:href="#m5315fff583" x="0" y="398.34866" style="fill: #1b9e77; fill-opacity: 0.2"/>
    </g>
   </g>
   <g id="PolyCollection_159">
    <defs>
     <path id="m1488f2e862" d="M 388.409962 -387.7555 
L 388.409962 -55.1155 
L 390.486885 -55.1155 
L 390.486885 -387.7555 
L 390.486885 -387.7555 
L 388.409962 -387.7555 
z
"/>
    </defs>
    <g clip-path="url(#pac83f428e0)">
     <use xlink:href="#m1488f2e862" x="0" y="398.34866" style="fill: #1b9e77; fill-opacity: 0.2"/>
    </g>
   </g>
   <g id="PolyCollection_160">
    <defs>
     <path id="m26cd3b0374" d="M 390.486885 -387.7555 
L 390.486885 -55.1155 
L 392.563808 -55.1155 
L 392.563808 -387.7555 
L 392.563808 -387.7555 
L 390.486885 -387.7555 
z
"/>
    </defs>
    <g clip-path="url(#pac83f428e0)">
     <use xlink:href="#m26cd3b0374" x="0" y="398.34866" style="fill: #d95f02; fill-opacity: 0.2"/>
    </g>
   </g>
   <g id="PolyCollection_161">
    <defs>
     <path id="ma598c85b90" d="M 392.563808 -387.7555 
L 392.563808 -55.1155 
L 394.640731 -55.1155 
L 394.640731 -387.7555 
L 394.640731 -387.7555 
L 392.563808 -387.7555 
z
"/>
    </defs>
    <g clip-path="url(#pac83f428e0)">
     <use xlink:href="#ma598c85b90" x="0" y="398.34866" style="fill: #1b9e77; fill-opacity: 0.2"/>
    </g>
   </g>
   <g id="PolyCollection_162">
    <defs>
     <path id="mcde0cf59b7" d="M 394.640731 -387.7555 
L 394.640731 -55.1155 
L 396.717654 -55.1155 
L 396.717654 -387.7555 
L 396.717654 -387.7555 
L 394.640731 -387.7555 
z
"/>
    </defs>
    <g clip-path="url(#pac83f428e0)">
     <use xlink:href="#mcde0cf59b7" x="0" y="398.34866" style="fill: #1b9e77; fill-opacity: 0.2"/>
    </g>
   </g>
   <g id="PolyCollection_163">
    <defs>
     <path id="mb6cfbbd0fe" d="M 396.717654 -387.7555 
L 396.717654 -55.1155 
L 398.794577 -55.1155 
L 398.794577 -387.7555 
L 398.794577 -387.7555 
L 396.717654 -387.7555 
z
"/>
    </defs>
    <g clip-path="url(#pac83f428e0)">
     <use xlink:href="#mb6cfbbd0fe" x="0" y="398.34866" style="fill: #d95f02; fill-opacity: 0.2"/>
    </g>
   </g>
   <g id="PolyCollection_164">
    <defs>
     <path id="m12d8c12222" d="M 398.794577 -387.7555 
L 398.794577 -55.1155 
L 400.8715 -55.1155 
L 400.8715 -387.7555 
L 400.8715 -387.7555 
L 398.794577 -387.7555 
z
"/>
    </defs>
    <g clip-path="url(#pac83f428e0)">
     <use xlink:href="#m12d8c12222" x="0" y="398.34866" style="fill: #1b9e77; fill-opacity: 0.2"/>
    </g>
   </g>
   <g id="matplotlib.axis_1">
    <g id="xtick_1">
     <g id="line2d_1">
      <defs>
       <path id="mf0f569ad4d" d="M 0 0 
L 0 4.8 
" style="stroke: #000000"/>
      </defs>
      <g>
       <use xlink:href="#mf0f569ad4d" x="66.486885" y="343.23316" style="stroke: #000000"/>
      </g>
     </g>
     <g id="text_1">
      <!-- 0 -->
      <g transform="translate(60.887885 364.90641) scale(0.176 -0.176)">
       <defs>
        <path id="DejaVuSans-30" d="M 2034 4250 
Q 1547 4250 1301 3770 
Q 1056 3291 1056 2328 
Q 1056 1369 1301 889 
Q 1547 409 2034 409 
Q 2525 409 2770 889 
Q 3016 1369 3016 2328 
Q 3016 3291 2770 3770 
Q 2525 4250 2034 4250 
z
M 2034 4750 
Q 2819 4750 3233 4129 
Q 3647 3509 3647 2328 
Q 3647 1150 3233 529 
Q 2819 -91 2034 -91 
Q 1250 -91 836 529 
Q 422 1150 422 2328 
Q 422 3509 836 4129 
Q 1250 4750 2034 4750 
z
" transform="scale(0.015625)"/>
       </defs>
       <use xlink:href="#DejaVuSans-30"/>
      </g>
     </g>
    </g>
    <g id="xtick_2">
     <g id="line2d_2">
      <g>
       <use xlink:href="#mf0f569ad4d" x="170.333038" y="343.23316" style="stroke: #000000"/>
      </g>
     </g>
     <g id="text_2">
      <!-- 50 -->
      <g transform="translate(159.135038 364.90641) scale(0.176 -0.176)">
       <defs>
        <path id="DejaVuSans-35" d="M 691 4666 
L 3169 4666 
L 3169 4134 
L 1269 4134 
L 1269 2991 
Q 1406 3038 1543 3061 
Q 1681 3084 1819 3084 
Q 2600 3084 3056 2656 
Q 3513 2228 3513 1497 
Q 3513 744 3044 326 
Q 2575 -91 1722 -91 
Q 1428 -91 1123 -41 
Q 819 9 494 109 
L 494 744 
Q 775 591 1075 516 
Q 1375 441 1709 441 
Q 2250 441 2565 725 
Q 2881 1009 2881 1497 
Q 2881 1984 2565 2268 
Q 2250 2553 1709 2553 
Q 1456 2553 1204 2497 
Q 953 2441 691 2322 
L 691 4666 
z
" transform="scale(0.015625)"/>
       </defs>
       <use xlink:href="#DejaVuSans-35"/>
       <use xlink:href="#DejaVuSans-30" x="63.623047"/>
      </g>
     </g>
    </g>
    <g id="xtick_3">
     <g id="line2d_3">
      <g>
       <use xlink:href="#mf0f569ad4d" x="274.179192" y="343.23316" style="stroke: #000000"/>
      </g>
     </g>
     <g id="text_3">
      <!-- 100 -->
      <g transform="translate(257.382192 364.90641) scale(0.176 -0.176)">
       <defs>
        <path id="DejaVuSans-31" d="M 794 531 
L 1825 531 
L 1825 4091 
L 703 3866 
L 703 4441 
L 1819 4666 
L 2450 4666 
L 2450 531 
L 3481 531 
L 3481 0 
L 794 0 
L 794 531 
z
" transform="scale(0.015625)"/>
       </defs>
       <use xlink:href="#DejaVuSans-31"/>
       <use xlink:href="#DejaVuSans-30" x="63.623047"/>
       <use xlink:href="#DejaVuSans-30" x="127.246094"/>
      </g>
     </g>
    </g>
    <g id="xtick_4">
     <g id="line2d_4">
      <g>
       <use xlink:href="#mf0f569ad4d" x="378.025346" y="343.23316" style="stroke: #000000"/>
      </g>
     </g>
     <g id="text_4">
      <!-- 150 -->
      <g transform="translate(361.228346 364.90641) scale(0.176 -0.176)">
       <use xlink:href="#DejaVuSans-31"/>
       <use xlink:href="#DejaVuSans-35" x="63.623047"/>
       <use xlink:href="#DejaVuSans-30" x="127.246094"/>
      </g>
     </g>
    </g>
    <g id="text_5">
     <!-- State -->
     <g transform="translate(208.06 387.15566) scale(0.192 -0.192)">
      <defs>
       <path id="DejaVuSans-53" d="M 3425 4513 
L 3425 3897 
Q 3066 4069 2747 4153 
Q 2428 4238 2131 4238 
Q 1616 4238 1336 4038 
Q 1056 3838 1056 3469 
Q 1056 3159 1242 3001 
Q 1428 2844 1947 2747 
L 2328 2669 
Q 3034 2534 3370 2195 
Q 3706 1856 3706 1288 
Q 3706 609 3251 259 
Q 2797 -91 1919 -91 
Q 1588 -91 1214 -16 
Q 841 59 441 206 
L 441 856 
Q 825 641 1194 531 
Q 1563 422 1919 422 
Q 2459 422 2753 634 
Q 3047 847 3047 1241 
Q 3047 1584 2836 1778 
Q 2625 1972 2144 2069 
L 1759 2144 
Q 1053 2284 737 2584 
Q 422 2884 422 3419 
Q 422 4038 858 4394 
Q 1294 4750 2059 4750 
Q 2388 4750 2728 4690 
Q 3069 4631 3425 4513 
z
" transform="scale(0.015625)"/>
       <path id="DejaVuSans-74" d="M 1172 4494 
L 1172 3500 
L 2356 3500 
L 2356 3053 
L 1172 3053 
L 1172 1153 
Q 1172 725 1289 603 
Q 1406 481 1766 481 
L 2356 481 
L 2356 0 
L 1766 0 
Q 1100 0 847 248 
Q 594 497 594 1153 
L 594 3053 
L 172 3053 
L 172 3500 
L 594 3500 
L 594 4494 
L 1172 4494 
z
" transform="scale(0.015625)"/>
       <path id="DejaVuSans-61" d="M 2194 1759 
Q 1497 1759 1228 1600 
Q 959 1441 959 1056 
Q 959 750 1161 570 
Q 1363 391 1709 391 
Q 2188 391 2477 730 
Q 2766 1069 2766 1631 
L 2766 1759 
L 2194 1759 
z
M 3341 1997 
L 3341 0 
L 2766 0 
L 2766 531 
Q 2569 213 2275 61 
Q 1981 -91 1556 -91 
Q 1019 -91 701 211 
Q 384 513 384 1019 
Q 384 1609 779 1909 
Q 1175 2209 1959 2209 
L 2766 2209 
L 2766 2266 
Q 2766 2663 2505 2880 
Q 2244 3097 1772 3097 
Q 1472 3097 1187 3025 
Q 903 2953 641 2809 
L 641 3341 
Q 956 3463 1253 3523 
Q 1550 3584 1831 3584 
Q 2591 3584 2966 3190 
Q 3341 2797 3341 1997 
z
" transform="scale(0.015625)"/>
       <path id="DejaVuSans-65" d="M 3597 1894 
L 3597 1613 
L 953 1613 
Q 991 1019 1311 708 
Q 1631 397 2203 397 
Q 2534 397 2845 478 
Q 3156 559 3463 722 
L 3463 178 
Q 3153 47 2828 -22 
Q 2503 -91 2169 -91 
Q 1331 -91 842 396 
Q 353 884 353 1716 
Q 353 2575 817 3079 
Q 1281 3584 2069 3584 
Q 2775 3584 3186 3129 
Q 3597 2675 3597 1894 
z
M 3022 2063 
Q 3016 2534 2758 2815 
Q 2500 3097 2075 3097 
Q 1594 3097 1305 2825 
Q 1016 2553 972 2059 
L 3022 2063 
z
" transform="scale(0.015625)"/>
      </defs>
      <use xlink:href="#DejaVuSans-53"/>
      <use xlink:href="#DejaVuSans-74" x="63.476562"/>
      <use xlink:href="#DejaVuSans-61" x="102.685547"/>
      <use xlink:href="#DejaVuSans-74" x="163.964844"/>
      <use xlink:href="#DejaVuSans-65" x="203.173828"/>
     </g>
    </g>
   </g>
   <g id="matplotlib.axis_2">
    <g id="ytick_1">
     <g id="line2d_5">
      <defs>
       <path id="m870cd62b64" d="M 0 0 
L -4.8 0 
" style="stroke: #000000"/>
      </defs>
      <g>
       <use xlink:href="#m870cd62b64" x="66.0715" y="343.23316" style="stroke: #000000"/>
      </g>
     </g>
     <g id="text_6">
      <!-- 0.0 -->
      <g transform="translate(29.782 349.919785) scale(0.176 -0.176)">
       <defs>
        <path id="DejaVuSans-2e" d="M 684 794 
L 1344 794 
L 1344 0 
L 684 0 
L 684 794 
z
" transform="scale(0.015625)"/>
       </defs>
       <use xlink:href="#DejaVuSans-30"/>
       <use xlink:href="#DejaVuSans-2e" x="63.623047"/>
       <use xlink:href="#DejaVuSans-30" x="95.410156"/>
      </g>
     </g>
    </g>
    <g id="ytick_2">
     <g id="line2d_6">
      <g>
       <use xlink:href="#m870cd62b64" x="66.0715" y="277.363853" style="stroke: #000000"/>
      </g>
     </g>
     <g id="text_7">
      <!-- 0.2 -->
      <g transform="translate(29.782 284.050478) scale(0.176 -0.176)">
       <defs>
        <path id="DejaVuSans-32" d="M 1228 531 
L 3431 531 
L 3431 0 
L 469 0 
L 469 531 
Q 828 903 1448 1529 
Q 2069 2156 2228 2338 
Q 2531 2678 2651 2914 
Q 2772 3150 2772 3378 
Q 2772 3750 2511 3984 
Q 2250 4219 1831 4219 
Q 1534 4219 1204 4116 
Q 875 4013 500 3803 
L 500 4441 
Q 881 4594 1212 4672 
Q 1544 4750 1819 4750 
Q 2544 4750 2975 4387 
Q 3406 4025 3406 3419 
Q 3406 3131 3298 2873 
Q 3191 2616 2906 2266 
Q 2828 2175 2409 1742 
Q 1991 1309 1228 531 
z
" transform="scale(0.015625)"/>
       </defs>
       <use xlink:href="#DejaVuSans-30"/>
       <use xlink:href="#DejaVuSans-2e" x="63.623047"/>
       <use xlink:href="#DejaVuSans-32" x="95.410156"/>
      </g>
     </g>
    </g>
    <g id="ytick_3">
     <g id="line2d_7">
      <g>
       <use xlink:href="#m870cd62b64" x="66.0715" y="211.494546" style="stroke: #000000"/>
      </g>
     </g>
     <g id="text_8">
      <!-- 0.4 -->
      <g transform="translate(29.782 218.181171) scale(0.176 -0.176)">
       <defs>
        <path id="DejaVuSans-34" d="M 2419 4116 
L 825 1625 
L 2419 1625 
L 2419 4116 
z
M 2253 4666 
L 3047 4666 
L 3047 1625 
L 3713 1625 
L 3713 1100 
L 3047 1100 
L 3047 0 
L 2419 0 
L 2419 1100 
L 313 1100 
L 313 1709 
L 2253 4666 
z
" transform="scale(0.015625)"/>
       </defs>
       <use xlink:href="#DejaVuSans-30"/>
       <use xlink:href="#DejaVuSans-2e" x="63.623047"/>
       <use xlink:href="#DejaVuSans-34" x="95.410156"/>
      </g>
     </g>
    </g>
    <g id="ytick_4">
     <g id="line2d_8">
      <g>
       <use xlink:href="#m870cd62b64" x="66.0715" y="145.625239" style="stroke: #000000"/>
      </g>
     </g>
     <g id="text_9">
      <!-- 0.6 -->
      <g transform="translate(29.782 152.311864) scale(0.176 -0.176)">
       <defs>
        <path id="DejaVuSans-36" d="M 2113 2584 
Q 1688 2584 1439 2293 
Q 1191 2003 1191 1497 
Q 1191 994 1439 701 
Q 1688 409 2113 409 
Q 2538 409 2786 701 
Q 3034 994 3034 1497 
Q 3034 2003 2786 2293 
Q 2538 2584 2113 2584 
z
M 3366 4563 
L 3366 3988 
Q 3128 4100 2886 4159 
Q 2644 4219 2406 4219 
Q 1781 4219 1451 3797 
Q 1122 3375 1075 2522 
Q 1259 2794 1537 2939 
Q 1816 3084 2150 3084 
Q 2853 3084 3261 2657 
Q 3669 2231 3669 1497 
Q 3669 778 3244 343 
Q 2819 -91 2113 -91 
Q 1303 -91 875 529 
Q 447 1150 447 2328 
Q 447 3434 972 4092 
Q 1497 4750 2381 4750 
Q 2619 4750 2861 4703 
Q 3103 4656 3366 4563 
z
" transform="scale(0.015625)"/>
       </defs>
       <use xlink:href="#DejaVuSans-30"/>
       <use xlink:href="#DejaVuSans-2e" x="63.623047"/>
       <use xlink:href="#DejaVuSans-36" x="95.410156"/>
      </g>
     </g>
    </g>
    <g id="ytick_5">
     <g id="line2d_9">
      <g>
       <use xlink:href="#m870cd62b64" x="66.0715" y="79.755932" style="stroke: #000000"/>
      </g>
     </g>
     <g id="text_10">
      <!-- 0.8 -->
      <g transform="translate(29.782 86.442557) scale(0.176 -0.176)">
       <defs>
        <path id="DejaVuSans-38" d="M 2034 2216 
Q 1584 2216 1326 1975 
Q 1069 1734 1069 1313 
Q 1069 891 1326 650 
Q 1584 409 2034 409 
Q 2484 409 2743 651 
Q 3003 894 3003 1313 
Q 3003 1734 2745 1975 
Q 2488 2216 2034 2216 
z
M 1403 2484 
Q 997 2584 770 2862 
Q 544 3141 544 3541 
Q 544 4100 942 4425 
Q 1341 4750 2034 4750 
Q 2731 4750 3128 4425 
Q 3525 4100 3525 3541 
Q 3525 3141 3298 2862 
Q 3072 2584 2669 2484 
Q 3125 2378 3379 2068 
Q 3634 1759 3634 1313 
Q 3634 634 3220 271 
Q 2806 -91 2034 -91 
Q 1263 -91 848 271 
Q 434 634 434 1313 
Q 434 1759 690 2068 
Q 947 2378 1403 2484 
z
M 1172 3481 
Q 1172 3119 1398 2916 
Q 1625 2713 2034 2713 
Q 2441 2713 2670 2916 
Q 2900 3119 2900 3481 
Q 2900 3844 2670 4047 
Q 2441 4250 2034 4250 
Q 1625 4250 1398 4047 
Q 1172 3844 1172 3481 
z
" transform="scale(0.015625)"/>
       </defs>
       <use xlink:href="#DejaVuSans-30"/>
       <use xlink:href="#DejaVuSans-2e" x="63.623047"/>
       <use xlink:href="#DejaVuSans-38" x="95.410156"/>
      </g>
     </g>
    </g>
    <g id="ytick_6">
     <g id="line2d_10">
      <g>
       <use xlink:href="#m870cd62b64" x="66.0715" y="13.886625" style="stroke: #000000"/>
      </g>
     </g>
     <g id="text_11">
      <!-- 1.0 -->
      <g transform="translate(29.782 20.57325) scale(0.176 -0.176)">
       <use xlink:href="#DejaVuSans-31"/>
       <use xlink:href="#DejaVuSans-2e" x="63.623047"/>
       <use xlink:href="#DejaVuSans-30" x="95.410156"/>
      </g>
     </g>
    </g>
    <g id="text_12">
     <!-- Score -->
     <g transform="translate(21.789 203.79766) rotate(-90) scale(0.192 -0.192)">
      <defs>
       <path id="DejaVuSans-63" d="M 3122 3366 
L 3122 2828 
Q 2878 2963 2633 3030 
Q 2388 3097 2138 3097 
Q 1578 3097 1268 2742 
Q 959 2388 959 1747 
Q 959 1106 1268 751 
Q 1578 397 2138 397 
Q 2388 397 2633 464 
Q 2878 531 3122 666 
L 3122 134 
Q 2881 22 2623 -34 
Q 2366 -91 2075 -91 
Q 1284 -91 818 406 
Q 353 903 353 1747 
Q 353 2603 823 3093 
Q 1294 3584 2113 3584 
Q 2378 3584 2631 3529 
Q 2884 3475 3122 3366 
z
" transform="scale(0.015625)"/>
       <path id="DejaVuSans-6f" d="M 1959 3097 
Q 1497 3097 1228 2736 
Q 959 2375 959 1747 
Q 959 1119 1226 758 
Q 1494 397 1959 397 
Q 2419 397 2687 759 
Q 2956 1122 2956 1747 
Q 2956 2369 2687 2733 
Q 2419 3097 1959 3097 
z
M 1959 3584 
Q 2709 3584 3137 3096 
Q 3566 2609 3566 1747 
Q 3566 888 3137 398 
Q 2709 -91 1959 -91 
Q 1206 -91 779 398 
Q 353 888 353 1747 
Q 353 2609 779 3096 
Q 1206 3584 1959 3584 
z
" transform="scale(0.015625)"/>
       <path id="DejaVuSans-72" d="M 2631 2963 
Q 2534 3019 2420 3045 
Q 2306 3072 2169 3072 
Q 1681 3072 1420 2755 
Q 1159 2438 1159 1844 
L 1159 0 
L 581 0 
L 581 3500 
L 1159 3500 
L 1159 2956 
Q 1341 3275 1631 3429 
Q 1922 3584 2338 3584 
Q 2397 3584 2469 3576 
Q 2541 3569 2628 3553 
L 2631 2963 
z
" transform="scale(0.015625)"/>
      </defs>
      <use xlink:href="#DejaVuSans-53"/>
      <use xlink:href="#DejaVuSans-63" x="63.476562"/>
      <use xlink:href="#DejaVuSans-6f" x="118.457031"/>
      <use xlink:href="#DejaVuSans-72" x="179.638672"/>
      <use xlink:href="#DejaVuSans-65" x="218.501953"/>
     </g>
    </g>
   </g>
   <g id="line2d_11">
    <path d="M 66.486885 331.92139 
L 70.640731 331.92139 
L 72.717654 326.072819 
L 74.794577 83.748011 
L 78.948423 83.748011 
L 81.025346 47.956956 
L 103.8715 47.956956 
L 105.948423 62.190783 
L 108.025346 61.977048 
L 112.179192 61.977048 
L 114.256115 146.070804 
L 116.333038 175.898272 
L 118.409962 185.057481 
L 120.486885 185.057481 
L 124.640731 184.764382 
L 151.640731 184.764382 
L 153.717654 184.448332 
L 155.794577 184.448332 
L 157.8715 184.154105 
L 159.948423 184.154105 
L 162.025346 183.858785 
L 164.102269 174.348576 
L 176.563808 174.348576 
L 178.640731 173.793035 
L 182.794577 173.687902 
L 184.8715 170.969742 
L 186.948423 170.392451 
L 191.102269 170.392451 
L 193.179192 170.160451 
L 195.256115 171.19958 
L 197.333038 168.517523 
L 203.563808 168.517523 
L 205.640731 168.40288 
L 207.717654 167.015338 
L 209.794577 166.781937 
L 211.8715 165.75805 
L 232.640731 165.75805 
L 234.717654 158.916127 
L 236.794577 156.455388 
L 238.8715 156.094813 
L 240.948423 133.541301 
L 243.025346 132.070905 
L 245.102269 131.663035 
L 247.179192 131.425583 
L 249.256115 131.425583 
L 251.333038 131.103619 
L 253.409962 126.257624 
L 255.486885 126.257624 
L 257.563808 125.932353 
L 259.640731 114.65493 
L 261.717654 111.422873 
L 263.794577 97.660557 
L 265.8715 97.660557 
L 267.948423 97.794829 
L 272.102269 97.317433 
L 274.179192 95.397139 
L 276.256115 95.329043 
L 278.333038 94.289177 
L 282.486885 94.289177 
L 284.563808 87.358419 
L 286.640731 87.137837 
L 288.717654 87.074744 
L 290.794577 87.325818 
L 292.8715 83.086725 
L 294.948423 78.120878 
L 297.025346 76.884405 
L 299.102269 54.738262 
L 313.640731 54.738262 
L 315.717654 54.5428 
L 317.794577 53.433519 
L 321.948423 53.357686 
L 324.025346 50.232709 
L 328.179192 50.232709 
L 330.256115 49.953392 
L 332.333038 40.871583 
L 334.409962 15.295594 
L 336.486885 13.886625 
L 400.8715 13.886625 
L 400.8715 13.886625 
" clip-path="url(#pac83f428e0)" style="fill: none; stroke-dasharray: 2,3.3; stroke-dashoffset: 0; stroke: #e41a1c; stroke-width: 2"/>
   </g>
   <g id="line2d_12">
    <path d="M 66.486885 335.721747 
L 103.8715 335.721747 
L 105.948423 287.76427 
L 108.025346 287.475369 
L 112.179192 287.475369 
L 114.256115 189.827011 
L 116.333038 134.358121 
L 118.409962 118.179694 
L 151.640731 118.179694 
L 153.717654 117.312993 
L 178.640731 117.312993 
L 180.717654 117.024092 
L 195.256115 117.024092 
L 197.333038 109.51268 
L 209.794577 109.51268 
L 211.8715 108.934879 
L 232.640731 108.934879 
L 234.717654 88.422946 
L 236.794577 88.134046 
L 238.8715 88.134046 
L 240.948423 87.556245 
L 245.102269 85.822842 
L 247.179192 85.533941 
L 249.256115 85.533941 
L 251.333038 84.95614 
L 255.486885 84.95614 
L 257.563808 84.378339 
L 261.717654 84.378339 
L 263.794577 84.089439 
L 265.8715 84.089439 
L 270.025346 83.511638 
L 272.102269 83.511638 
L 276.256115 82.933837 
L 282.486885 82.933837 
L 284.563808 82.644937 
L 286.640731 82.644937 
L 288.717654 82.356036 
L 290.794577 81.489335 
L 292.8715 81.489335 
L 294.948423 80.911534 
L 297.025346 80.622633 
L 299.102269 80.044832 
L 313.640731 80.044832 
L 315.717654 78.60033 
L 319.8715 78.60033 
L 321.948423 78.022529 
L 324.025346 77.733629 
L 328.179192 77.733629 
L 330.256115 75.422425 
L 332.333038 74.555723 
L 334.409962 74.266823 
L 336.486885 73.689022 
L 365.563808 73.689022 
L 367.640731 27.464947 
L 369.717654 20.531336 
L 378.025346 20.531336 
L 380.102269 18.509033 
L 394.640731 18.509033 
L 396.717654 14.464426 
L 398.794577 14.464426 
L 400.8715 13.886625 
L 400.8715 13.886625 
" clip-path="url(#pac83f428e0)" style="fill: none; stroke-dasharray: 7.4,3.2; stroke-dashoffset: 0; stroke: #377eb8; stroke-width: 2"/>
   </g>
   <g id="line2d_13">
    <path d="M 66.486885 334.20521 
L 70.640731 334.20521 
L 72.717654 332.784093 
L 74.794577 328.632972 
L 103.8715 328.583014 
L 105.948423 250.581827 
L 108.025346 250.167448 
L 112.179192 250.167448 
L 114.256115 170.679623 
L 116.333038 157.421576 
L 120.486885 157.45405 
L 124.640731 157.252043 
L 151.640731 157.252043 
L 153.717654 156.738598 
L 155.794577 156.738598 
L 157.8715 156.535813 
L 159.948423 156.535813 
L 162.025346 156.332586 
L 164.102269 149.950615 
L 176.563808 149.950615 
L 178.640731 149.587302 
L 180.717654 149.412538 
L 182.794577 149.412538 
L 184.8715 147.648528 
L 186.948423 147.276977 
L 191.102269 147.276977 
L 193.179192 147.127961 
L 195.256115 147.796754 
L 197.333038 143.277177 
L 205.640731 143.202119 
L 207.717654 142.297001 
L 209.794577 142.145351 
L 211.8715 141.267156 
L 232.640731 141.267156 
L 234.717654 129.327678 
L 236.794577 127.576511 
L 238.8715 127.336359 
L 240.948423 112.820762 
L 243.025346 111.581894 
L 245.102269 110.983249 
L 247.179192 110.722587 
L 249.256115 110.722587 
L 251.333038 110.293443 
L 253.409962 107.40152 
L 255.486885 107.40152 
L 257.563808 106.968552 
L 259.640731 100.45694 
L 261.717654 98.645928 
L 263.794577 91.057452 
L 267.948423 90.991635 
L 270.025346 90.710742 
L 272.102269 90.603011 
L 274.179192 89.455864 
L 276.256115 89.282601 
L 278.333038 88.73811 
L 282.486885 88.73811 
L 284.563808 85.023186 
L 288.717654 84.736923 
L 290.794577 84.440479 
L 292.8715 82.290475 
L 294.948423 79.523589 
L 297.025346 78.766729 
L 299.102269 67.971973 
L 313.640731 67.971973 
L 315.717654 67.094555 
L 317.794577 66.588111 
L 319.8715 66.588111 
L 321.948423 66.23809 
L 324.025346 64.660251 
L 328.179192 64.660251 
L 330.256115 63.265954 
L 332.333038 58.707124 
L 334.409962 47.694245 
L 336.486885 46.773616 
L 365.563808 46.773616 
L 367.640731 20.818684 
L 369.717654 17.242837 
L 378.025346 17.242837 
L 380.102269 16.214162 
L 394.640731 16.214162 
L 396.717654 14.175779 
L 398.794577 14.175779 
L 400.8715 13.886625 
L 400.8715 13.886625 
" clip-path="url(#pac83f428e0)" style="fill: none; stroke: #984ea3; stroke-width: 3; stroke-linecap: square"/>
   </g>
   <g id="patch_3">
    <path d="M 66.0715 343.23316 
L 66.0715 10.59316 
" style="fill: none; stroke: #000000; stroke-linejoin: miter; stroke-linecap: square"/>
   </g>
   <g id="patch_4">
    <path d="M 66.0715 343.23316 
L 400.8715 343.23316 
" style="fill: none; stroke: #000000; stroke-linejoin: miter; stroke-linecap: square"/>
   </g>
   <g id="legend_1">
    <g id="patch_5">
     <path d="M 253.71075 334.43316 
L 388.5515 334.43316 
Q 392.0715 334.43316 392.0715 330.91316 
L 392.0715 255.17266 
Q 392.0715 251.65266 388.5515 251.65266 
L 253.71075 251.65266 
Q 250.19075 251.65266 250.19075 255.17266 
L 250.19075 330.91316 
Q 250.19075 334.43316 253.71075 334.43316 
z
" style="fill: #ffffff; opacity: 0.8; stroke: #cccccc; stroke-width: 0.8; stroke-linejoin: miter"/>
    </g>
    <g id="line2d_14">
     <path d="M 257.23075 265.90591 
L 274.83075 265.90591 
L 292.43075 265.90591 
" style="fill: none; stroke-dasharray: 2,3.3; stroke-dashoffset: 0; stroke: #e41a1c; stroke-width: 2"/>
    </g>
    <g id="text_13">
     <!-- Precision -->
     <g transform="translate(306.51075 272.06591) scale(0.176 -0.176)">
      <defs>
       <path id="DejaVuSans-50" d="M 1259 4147 
L 1259 2394 
L 2053 2394 
Q 2494 2394 2734 2622 
Q 2975 2850 2975 3272 
Q 2975 3691 2734 3919 
Q 2494 4147 2053 4147 
L 1259 4147 
z
M 628 4666 
L 2053 4666 
Q 2838 4666 3239 4311 
Q 3641 3956 3641 3272 
Q 3641 2581 3239 2228 
Q 2838 1875 2053 1875 
L 1259 1875 
L 1259 0 
L 628 0 
L 628 4666 
z
" transform="scale(0.015625)"/>
       <path id="DejaVuSans-69" d="M 603 3500 
L 1178 3500 
L 1178 0 
L 603 0 
L 603 3500 
z
M 603 4863 
L 1178 4863 
L 1178 4134 
L 603 4134 
L 603 4863 
z
" transform="scale(0.015625)"/>
       <path id="DejaVuSans-73" d="M 2834 3397 
L 2834 2853 
Q 2591 2978 2328 3040 
Q 2066 3103 1784 3103 
Q 1356 3103 1142 2972 
Q 928 2841 928 2578 
Q 928 2378 1081 2264 
Q 1234 2150 1697 2047 
L 1894 2003 
Q 2506 1872 2764 1633 
Q 3022 1394 3022 966 
Q 3022 478 2636 193 
Q 2250 -91 1575 -91 
Q 1294 -91 989 -36 
Q 684 19 347 128 
L 347 722 
Q 666 556 975 473 
Q 1284 391 1588 391 
Q 1994 391 2212 530 
Q 2431 669 2431 922 
Q 2431 1156 2273 1281 
Q 2116 1406 1581 1522 
L 1381 1569 
Q 847 1681 609 1914 
Q 372 2147 372 2553 
Q 372 3047 722 3315 
Q 1072 3584 1716 3584 
Q 2034 3584 2315 3537 
Q 2597 3491 2834 3397 
z
" transform="scale(0.015625)"/>
       <path id="DejaVuSans-6e" d="M 3513 2113 
L 3513 0 
L 2938 0 
L 2938 2094 
Q 2938 2591 2744 2837 
Q 2550 3084 2163 3084 
Q 1697 3084 1428 2787 
Q 1159 2491 1159 1978 
L 1159 0 
L 581 0 
L 581 3500 
L 1159 3500 
L 1159 2956 
Q 1366 3272 1645 3428 
Q 1925 3584 2291 3584 
Q 2894 3584 3203 3211 
Q 3513 2838 3513 2113 
z
" transform="scale(0.015625)"/>
      </defs>
      <use xlink:href="#DejaVuSans-50"/>
      <use xlink:href="#DejaVuSans-72" x="58.552734"/>
      <use xlink:href="#DejaVuSans-65" x="97.416016"/>
      <use xlink:href="#DejaVuSans-63" x="158.939453"/>
      <use xlink:href="#DejaVuSans-69" x="213.919922"/>
      <use xlink:href="#DejaVuSans-73" x="241.703125"/>
      <use xlink:href="#DejaVuSans-69" x="293.802734"/>
      <use xlink:href="#DejaVuSans-6f" x="321.585938"/>
      <use xlink:href="#DejaVuSans-6e" x="382.767578"/>
     </g>
    </g>
    <g id="line2d_15">
     <path d="M 257.23075 291.73941 
L 274.83075 291.73941 
L 292.43075 291.73941 
" style="fill: none; stroke-dasharray: 7.4,3.2; stroke-dashoffset: 0; stroke: #377eb8; stroke-width: 2"/>
    </g>
    <g id="text_14">
     <!-- Recall -->
     <g transform="translate(306.51075 297.89941) scale(0.176 -0.176)">
      <defs>
       <path id="DejaVuSans-52" d="M 2841 2188 
Q 3044 2119 3236 1894 
Q 3428 1669 3622 1275 
L 4263 0 
L 3584 0 
L 2988 1197 
Q 2756 1666 2539 1819 
Q 2322 1972 1947 1972 
L 1259 1972 
L 1259 0 
L 628 0 
L 628 4666 
L 2053 4666 
Q 2853 4666 3247 4331 
Q 3641 3997 3641 3322 
Q 3641 2881 3436 2590 
Q 3231 2300 2841 2188 
z
M 1259 4147 
L 1259 2491 
L 2053 2491 
Q 2509 2491 2742 2702 
Q 2975 2913 2975 3322 
Q 2975 3731 2742 3939 
Q 2509 4147 2053 4147 
L 1259 4147 
z
" transform="scale(0.015625)"/>
       <path id="DejaVuSans-6c" d="M 603 4863 
L 1178 4863 
L 1178 0 
L 603 0 
L 603 4863 
z
" transform="scale(0.015625)"/>
      </defs>
      <use xlink:href="#DejaVuSans-52"/>
      <use xlink:href="#DejaVuSans-65" x="64.982422"/>
      <use xlink:href="#DejaVuSans-63" x="126.505859"/>
      <use xlink:href="#DejaVuSans-61" x="181.486328"/>
      <use xlink:href="#DejaVuSans-6c" x="242.765625"/>
      <use xlink:href="#DejaVuSans-6c" x="270.548828"/>
     </g>
    </g>
    <g id="line2d_16">
     <path d="M 257.23075 317.57291 
L 274.83075 317.57291 
L 292.43075 317.57291 
" style="fill: none; stroke: #984ea3; stroke-width: 3; stroke-linecap: square"/>
    </g>
    <g id="text_15">
     <!-- F1 -->
     <g transform="translate(306.51075 323.73291) scale(0.176 -0.176)">
      <defs>
       <path id="DejaVuSans-46" d="M 628 4666 
L 3309 4666 
L 3309 4134 
L 1259 4134 
L 1259 2759 
L 3109 2759 
L 3109 2228 
L 1259 2228 
L 1259 0 
L 628 0 
L 628 4666 
z
" transform="scale(0.015625)"/>
      </defs>
      <use xlink:href="#DejaVuSans-46"/>
      <use xlink:href="#DejaVuSans-31" x="57.519531"/>
     </g>
    </g>
   </g>
  </g>
 </g>
 <defs>
  <clipPath id="pac83f428e0">
   <rect x="66.0715" y="10.59316" width="334.8" height="332.64"/>
  </clipPath>
 </defs>
</svg>
