<?xml version="1.0" encoding="utf-8" standalone="no"?>
<!DOCTYPE svg PUBLIC "-//W3C//DTD SVG 1.1//EN"
  "http://www.w3.org/Graphics/SVG/1.1/DTD/svg11.dtd">
<svg xmlns:xlink="http://www.w3.org/1999/xlink" width="408.0715pt" height="398.34866pt" viewBox="0 0 408.0715 398.34866" xmlns="http://www.w3.org/2000/svg" version="1.1">
 <metadata>
  <rdf:RDF xmlns:dc="http://purl.org/dc/elements/1.1/" xmlns:cc="http://creativecommons.org/ns#" xmlns:rdf="http://www.w3.org/1999/02/22-rdf-syntax-ns#">
   <cc:Work>
    <dc:type rdf:resource="http://purl.org/dc/dcmitype/StillImage"/>
    <dc:date>2024-10-01T11:02:25.604834</dc:date>
    <dc:format>image/svg+xml</dc:format>
    <dc:creator>
     <cc:Agent>
      <dc:title>Matplotlib v3.8.0, https://matplotlib.org/</dc:title>
     </cc:Agent>
    </dc:creator>
   </cc:Work>
  </rdf:RDF>
 </metadata>
 <defs>
  <style type="text/css">*{stroke-linejoin: round; stroke-linecap: butt}</style>
 </defs>
 <g id="figure_1">
  <g id="patch_1">
   <path d="M 0 398.34866 
L 408.0715 398.34866 
L 408.0715 0 
L 0 0 
z
" style="fill: #ffffff"/>
  </g>
  <g id="axes_1">
   <g id="patch_2">
    <path d="M 66.0715 343.23316 
L 400.8715 343.23316 
L 400.8715 10.59316 
L 66.0715 10.59316 
z
" style="fill: #ffffff"/>
   </g>
   <g id="PolyCollection_1"/>
   <g id="PolyCollection_2"/>
   <g id="PolyCollection_3"/>
   <g id="PolyCollection_4">
    <defs>
     <path id="mef97c05184" d="M 66.797747 -387.7555 
L 66.797747 -55.1155 
L 70.428984 -55.1155 
L 70.428984 -387.7555 
L 70.428984 -387.7555 
L 66.797747 -387.7555 
z
"/>
    </defs>
    <g clip-path="url(#p8ec0e01521)">
     <use xlink:href="#mef97c05184" x="0" y="398.34866" style="fill: #d95f02; fill-opacity: 0.2"/>
    </g>
   </g>
   <g id="PolyCollection_5">
    <defs>
     <path id="mb94c42ade5" d="M 70.428984 -387.7555 
L 70.428984 -55.1155 
L 74.06022 -55.1155 
L 74.06022 -387.7555 
L 74.06022 -387.7555 
L 70.428984 -387.7555 
z
"/>
    </defs>
    <g clip-path="url(#p8ec0e01521)">
     <use xlink:href="#mb94c42ade5" x="0" y="398.34866" style="fill: #d95f02; fill-opacity: 0.2"/>
    </g>
   </g>
   <g id="PolyCollection_6">
    <defs>
     <path id="md6555d4273" d="M 74.06022 -387.7555 
L 74.06022 -55.1155 
L 77.691457 -55.1155 
L 77.691457 -387.7555 
L 77.691457 -387.7555 
L 74.06022 -387.7555 
z
"/>
    </defs>
    <g clip-path="url(#p8ec0e01521)">
     <use xlink:href="#md6555d4273" x="0" y="398.34866" style="fill: #d95f02; fill-opacity: 0.2"/>
    </g>
   </g>
   <g id="PolyCollection_7">
    <defs>
     <path id="m9e78b2f924" d="M 77.691457 -387.7555 
L 77.691457 -55.1155 
L 81.322693 -55.1155 
L 81.322693 -387.7555 
L 81.322693 -387.7555 
L 77.691457 -387.7555 
z
"/>
    </defs>
    <g clip-path="url(#p8ec0e01521)">
     <use xlink:href="#m9e78b2f924" x="0" y="398.34866" style="fill: #d95f02; fill-opacity: 0.2"/>
    </g>
   </g>
   <g id="PolyCollection_8">
    <defs>
     <path id="m4a055649e4" d="M 81.322693 -387.7555 
L 81.322693 -55.1155 
L 84.95393 -55.1155 
L 84.95393 -387.7555 
L 84.95393 -387.7555 
L 81.322693 -387.7555 
z
"/>
    </defs>
    <g clip-path="url(#p8ec0e01521)">
     <use xlink:href="#m4a055649e4" x="0" y="398.34866" style="fill: #d95f02; fill-opacity: 0.2"/>
    </g>
   </g>
   <g id="PolyCollection_9">
    <defs>
     <path id="m84125b4d2f" d="M 84.95393 -387.7555 
L 84.95393 -55.1155 
L 88.585166 -55.1155 
L 88.585166 -387.7555 
L 88.585166 -387.7555 
L 84.95393 -387.7555 
z
"/>
    </defs>
    <g clip-path="url(#p8ec0e01521)">
     <use xlink:href="#m84125b4d2f" x="0" y="398.34866" style="fill: #d95f02; fill-opacity: 0.2"/>
    </g>
   </g>
   <g id="PolyCollection_10">
    <defs>
     <path id="me6e6897932" d="M 88.585166 -387.7555 
L 88.585166 -55.1155 
L 92.216402 -55.1155 
L 92.216402 -387.7555 
L 92.216402 -387.7555 
L 88.585166 -387.7555 
z
"/>
    </defs>
    <g clip-path="url(#p8ec0e01521)">
     <use xlink:href="#me6e6897932" x="0" y="398.34866" style="fill: #d95f02; fill-opacity: 0.2"/>
    </g>
   </g>
   <g id="PolyCollection_11">
    <defs>
     <path id="md196db16b8" d="M 92.216402 -387.7555 
L 92.216402 -55.1155 
L 95.847639 -55.1155 
L 95.847639 -387.7555 
L 95.847639 -387.7555 
L 92.216402 -387.7555 
z
"/>
    </defs>
    <g clip-path="url(#p8ec0e01521)">
     <use xlink:href="#md196db16b8" x="0" y="398.34866" style="fill: #d95f02; fill-opacity: 0.2"/>
    </g>
   </g>
   <g id="PolyCollection_12">
    <defs>
     <path id="m35dec08397" d="M 95.847639 -387.7555 
L 95.847639 -55.1155 
L 99.478875 -55.1155 
L 99.478875 -387.7555 
L 99.478875 -387.7555 
L 95.847639 -387.7555 
z
"/>
    </defs>
    <g clip-path="url(#p8ec0e01521)">
     <use xlink:href="#m35dec08397" x="0" y="398.34866" style="fill: #d95f02; fill-opacity: 0.2"/>
    </g>
   </g>
   <g id="PolyCollection_13">
    <defs>
     <path id="m374fc78110" d="M 99.478875 -387.7555 
L 99.478875 -55.1155 
L 103.110112 -55.1155 
L 103.110112 -387.7555 
L 103.110112 -387.7555 
L 99.478875 -387.7555 
z
"/>
    </defs>
    <g clip-path="url(#p8ec0e01521)">
     <use xlink:href="#m374fc78110" x="0" y="398.34866" style="fill: #d95f02; fill-opacity: 0.2"/>
    </g>
   </g>
   <g id="PolyCollection_14">
    <defs>
     <path id="ma83be2be4a" d="M 103.110112 -387.7555 
L 103.110112 -55.1155 
L 106.741348 -55.1155 
L 106.741348 -387.7555 
L 106.741348 -387.7555 
L 103.110112 -387.7555 
z
"/>
    </defs>
    <g clip-path="url(#p8ec0e01521)">
     <use xlink:href="#ma83be2be4a" x="0" y="398.34866" style="fill: #d95f02; fill-opacity: 0.2"/>
    </g>
   </g>
   <g id="PolyCollection_15">
    <defs>
     <path id="m89d7269990" d="M 106.741348 -387.7555 
L 106.741348 -55.1155 
L 110.372585 -55.1155 
L 110.372585 -387.7555 
L 110.372585 -387.7555 
L 106.741348 -387.7555 
z
"/>
    </defs>
    <g clip-path="url(#p8ec0e01521)">
     <use xlink:href="#m89d7269990" x="0" y="398.34866" style="fill: #d95f02; fill-opacity: 0.2"/>
    </g>
   </g>
   <g id="PolyCollection_16">
    <defs>
     <path id="mc3bcd9fed1" d="M 110.372585 -387.7555 
L 110.372585 -55.1155 
L 114.003821 -55.1155 
L 114.003821 -387.7555 
L 114.003821 -387.7555 
L 110.372585 -387.7555 
z
"/>
    </defs>
    <g clip-path="url(#p8ec0e01521)">
     <use xlink:href="#mc3bcd9fed1" x="0" y="398.34866" style="fill: #d95f02; fill-opacity: 0.2"/>
    </g>
   </g>
   <g id="PolyCollection_17">
    <defs>
     <path id="m369be26393" d="M 114.003821 -387.7555 
L 114.003821 -55.1155 
L 117.635057 -55.1155 
L 117.635057 -387.7555 
L 117.635057 -387.7555 
L 114.003821 -387.7555 
z
"/>
    </defs>
    <g clip-path="url(#p8ec0e01521)">
     <use xlink:href="#m369be26393" x="0" y="398.34866" style="fill: #d95f02; fill-opacity: 0.2"/>
    </g>
   </g>
   <g id="PolyCollection_18">
    <defs>
     <path id="mee8deee443" d="M 117.635057 -387.7555 
L 117.635057 -55.1155 
L 121.266294 -55.1155 
L 121.266294 -387.7555 
L 121.266294 -387.7555 
L 117.635057 -387.7555 
z
"/>
    </defs>
    <g clip-path="url(#p8ec0e01521)">
     <use xlink:href="#mee8deee443" x="0" y="398.34866" style="fill: #d95f02; fill-opacity: 0.2"/>
    </g>
   </g>
   <g id="PolyCollection_19">
    <defs>
     <path id="me8e23bf542" d="M 121.266294 -387.7555 
L 121.266294 -55.1155 
L 124.89753 -55.1155 
L 124.89753 -387.7555 
L 124.89753 -387.7555 
L 121.266294 -387.7555 
z
"/>
    </defs>
    <g clip-path="url(#p8ec0e01521)">
     <use xlink:href="#me8e23bf542" x="0" y="398.34866" style="fill: #d95f02; fill-opacity: 0.2"/>
    </g>
   </g>
   <g id="PolyCollection_20">
    <defs>
     <path id="m0121a2cc83" d="M 124.89753 -387.7555 
L 124.89753 -55.1155 
L 128.528767 -55.1155 
L 128.528767 -387.7555 
L 128.528767 -387.7555 
L 124.89753 -387.7555 
z
"/>
    </defs>
    <g clip-path="url(#p8ec0e01521)">
     <use xlink:href="#m0121a2cc83" x="0" y="398.34866" style="fill: #d95f02; fill-opacity: 0.2"/>
    </g>
   </g>
   <g id="PolyCollection_21">
    <defs>
     <path id="m5afd196f30" d="M 128.528767 -387.7555 
L 128.528767 -55.1155 
L 132.160003 -55.1155 
L 132.160003 -387.7555 
L 132.160003 -387.7555 
L 128.528767 -387.7555 
z
"/>
    </defs>
    <g clip-path="url(#p8ec0e01521)">
     <use xlink:href="#m5afd196f30" x="0" y="398.34866" style="fill: #d95f02; fill-opacity: 0.2"/>
    </g>
   </g>
   <g id="PolyCollection_22">
    <defs>
     <path id="m615ef25646" d="M 132.160003 -387.7555 
L 132.160003 -55.1155 
L 135.79124 -55.1155 
L 135.79124 -387.7555 
L 135.79124 -387.7555 
L 132.160003 -387.7555 
z
"/>
    </defs>
    <g clip-path="url(#p8ec0e01521)">
     <use xlink:href="#m615ef25646" x="0" y="398.34866" style="fill: #d95f02; fill-opacity: 0.2"/>
    </g>
   </g>
   <g id="PolyCollection_23">
    <defs>
     <path id="m2996a38dd6" d="M 135.79124 -387.7555 
L 135.79124 -55.1155 
L 139.422476 -55.1155 
L 139.422476 -387.7555 
L 139.422476 -387.7555 
L 135.79124 -387.7555 
z
"/>
    </defs>
    <g clip-path="url(#p8ec0e01521)">
     <use xlink:href="#m2996a38dd6" x="0" y="398.34866" style="fill: #d95f02; fill-opacity: 0.2"/>
    </g>
   </g>
   <g id="PolyCollection_24">
    <defs>
     <path id="ma1b181cf67" d="M 139.422476 -387.7555 
L 139.422476 -55.1155 
L 143.053713 -55.1155 
L 143.053713 -387.7555 
L 143.053713 -387.7555 
L 139.422476 -387.7555 
z
"/>
    </defs>
    <g clip-path="url(#p8ec0e01521)">
     <use xlink:href="#ma1b181cf67" x="0" y="398.34866" style="fill: #d95f02; fill-opacity: 0.2"/>
    </g>
   </g>
   <g id="PolyCollection_25">
    <defs>
     <path id="m2ca97cb8c3" d="M 143.053713 -387.7555 
L 143.053713 -55.1155 
L 146.684949 -55.1155 
L 146.684949 -387.7555 
L 146.684949 -387.7555 
L 143.053713 -387.7555 
z
"/>
    </defs>
    <g clip-path="url(#p8ec0e01521)">
     <use xlink:href="#m2ca97cb8c3" x="0" y="398.34866" style="fill: #d95f02; fill-opacity: 0.2"/>
    </g>
   </g>
   <g id="PolyCollection_26">
    <defs>
     <path id="m3fe9dc5369" d="M 146.684949 -387.7555 
L 146.684949 -55.1155 
L 150.316185 -55.1155 
L 150.316185 -387.7555 
L 150.316185 -387.7555 
L 146.684949 -387.7555 
z
"/>
    </defs>
    <g clip-path="url(#p8ec0e01521)">
     <use xlink:href="#m3fe9dc5369" x="0" y="398.34866" style="fill: #d95f02; fill-opacity: 0.2"/>
    </g>
   </g>
   <g id="PolyCollection_27">
    <defs>
     <path id="m2f557bf197" d="M 150.316185 -387.7555 
L 150.316185 -55.1155 
L 153.947422 -55.1155 
L 153.947422 -387.7555 
L 153.947422 -387.7555 
L 150.316185 -387.7555 
z
"/>
    </defs>
    <g clip-path="url(#p8ec0e01521)">
     <use xlink:href="#m2f557bf197" x="0" y="398.34866" style="fill: #d95f02; fill-opacity: 0.2"/>
    </g>
   </g>
   <g id="PolyCollection_28">
    <defs>
     <path id="m8ebb25fdc4" d="M 153.947422 -387.7555 
L 153.947422 -55.1155 
L 157.578658 -55.1155 
L 157.578658 -387.7555 
L 157.578658 -387.7555 
L 153.947422 -387.7555 
z
"/>
    </defs>
    <g clip-path="url(#p8ec0e01521)">
     <use xlink:href="#m8ebb25fdc4" x="0" y="398.34866" style="fill: #d95f02; fill-opacity: 0.2"/>
    </g>
   </g>
   <g id="PolyCollection_29">
    <defs>
     <path id="m8adf0f2982" d="M 157.578658 -387.7555 
L 157.578658 -55.1155 
L 161.209895 -55.1155 
L 161.209895 -387.7555 
L 161.209895 -387.7555 
L 157.578658 -387.7555 
z
"/>
    </defs>
    <g clip-path="url(#p8ec0e01521)">
     <use xlink:href="#m8adf0f2982" x="0" y="398.34866" style="fill: #d95f02; fill-opacity: 0.2"/>
    </g>
   </g>
   <g id="PolyCollection_30">
    <defs>
     <path id="m63e34aba98" d="M 161.209895 -387.7555 
L 161.209895 -55.1155 
L 164.841131 -55.1155 
L 164.841131 -387.7555 
L 164.841131 -387.7555 
L 161.209895 -387.7555 
z
"/>
    </defs>
    <g clip-path="url(#p8ec0e01521)">
     <use xlink:href="#m63e34aba98" x="0" y="398.34866" style="fill: #d95f02; fill-opacity: 0.2"/>
    </g>
   </g>
   <g id="PolyCollection_31">
    <defs>
     <path id="m75db12206a" d="M 164.841131 -387.7555 
L 164.841131 -55.1155 
L 168.472368 -55.1155 
L 168.472368 -387.7555 
L 168.472368 -387.7555 
L 164.841131 -387.7555 
z
"/>
    </defs>
    <g clip-path="url(#p8ec0e01521)">
     <use xlink:href="#m75db12206a" x="0" y="398.34866" style="fill: #d95f02; fill-opacity: 0.2"/>
    </g>
   </g>
   <g id="PolyCollection_32">
    <defs>
     <path id="m9fec8da040" d="M 168.472368 -387.7555 
L 168.472368 -55.1155 
L 172.103604 -55.1155 
L 172.103604 -387.7555 
L 172.103604 -387.7555 
L 168.472368 -387.7555 
z
"/>
    </defs>
    <g clip-path="url(#p8ec0e01521)">
     <use xlink:href="#m9fec8da040" x="0" y="398.34866" style="fill: #d95f02; fill-opacity: 0.2"/>
    </g>
   </g>
   <g id="PolyCollection_33">
    <defs>
     <path id="m6797795feb" d="M 172.103604 -387.7555 
L 172.103604 -55.1155 
L 175.734841 -55.1155 
L 175.734841 -387.7555 
L 175.734841 -387.7555 
L 172.103604 -387.7555 
z
"/>
    </defs>
    <g clip-path="url(#p8ec0e01521)">
     <use xlink:href="#m6797795feb" x="0" y="398.34866" style="fill: #d95f02; fill-opacity: 0.2"/>
    </g>
   </g>
   <g id="PolyCollection_34">
    <defs>
     <path id="m95a6d99dc2" d="M 175.734841 -387.7555 
L 175.734841 -55.1155 
L 179.366077 -55.1155 
L 179.366077 -387.7555 
L 179.366077 -387.7555 
L 175.734841 -387.7555 
z
"/>
    </defs>
    <g clip-path="url(#p8ec0e01521)">
     <use xlink:href="#m95a6d99dc2" x="0" y="398.34866" style="fill: #d95f02; fill-opacity: 0.2"/>
    </g>
   </g>
   <g id="PolyCollection_35">
    <defs>
     <path id="mb5a0dc5be2" d="M 179.366077 -387.7555 
L 179.366077 -55.1155 
L 182.997313 -55.1155 
L 182.997313 -387.7555 
L 182.997313 -387.7555 
L 179.366077 -387.7555 
z
"/>
    </defs>
    <g clip-path="url(#p8ec0e01521)">
     <use xlink:href="#mb5a0dc5be2" x="0" y="398.34866" style="fill: #d95f02; fill-opacity: 0.2"/>
    </g>
   </g>
   <g id="PolyCollection_36">
    <defs>
     <path id="m842adcd7a7" d="M 182.997313 -387.7555 
L 182.997313 -55.1155 
L 186.62855 -55.1155 
L 186.62855 -387.7555 
L 186.62855 -387.7555 
L 182.997313 -387.7555 
z
"/>
    </defs>
    <g clip-path="url(#p8ec0e01521)">
     <use xlink:href="#m842adcd7a7" x="0" y="398.34866" style="fill: #d95f02; fill-opacity: 0.2"/>
    </g>
   </g>
   <g id="PolyCollection_37">
    <defs>
     <path id="m64094027af" d="M 186.62855 -387.7555 
L 186.62855 -55.1155 
L 190.259786 -55.1155 
L 190.259786 -387.7555 
L 190.259786 -387.7555 
L 186.62855 -387.7555 
z
"/>
    </defs>
    <g clip-path="url(#p8ec0e01521)">
     <use xlink:href="#m64094027af" x="0" y="398.34866" style="fill: #d95f02; fill-opacity: 0.2"/>
    </g>
   </g>
   <g id="PolyCollection_38">
    <defs>
     <path id="m9ea23f626b" d="M 190.259786 -387.7555 
L 190.259786 -55.1155 
L 193.891023 -55.1155 
L 193.891023 -387.7555 
L 193.891023 -387.7555 
L 190.259786 -387.7555 
z
"/>
    </defs>
    <g clip-path="url(#p8ec0e01521)">
     <use xlink:href="#m9ea23f626b" x="0" y="398.34866" style="fill: #d95f02; fill-opacity: 0.2"/>
    </g>
   </g>
   <g id="PolyCollection_39">
    <defs>
     <path id="ma75a0b3c8a" d="M 193.891023 -387.7555 
L 193.891023 -55.1155 
L 197.522259 -55.1155 
L 197.522259 -387.7555 
L 197.522259 -387.7555 
L 193.891023 -387.7555 
z
"/>
    </defs>
    <g clip-path="url(#p8ec0e01521)">
     <use xlink:href="#ma75a0b3c8a" x="0" y="398.34866" style="fill: #d95f02; fill-opacity: 0.2"/>
    </g>
   </g>
   <g id="PolyCollection_40">
    <defs>
     <path id="m478047ad86" d="M 197.522259 -387.7555 
L 197.522259 -55.1155 
L 201.153496 -55.1155 
L 201.153496 -387.7555 
L 201.153496 -387.7555 
L 197.522259 -387.7555 
z
"/>
    </defs>
    <g clip-path="url(#p8ec0e01521)">
     <use xlink:href="#m478047ad86" x="0" y="398.34866" style="fill: #d95f02; fill-opacity: 0.2"/>
    </g>
   </g>
   <g id="PolyCollection_41">
    <defs>
     <path id="m35d3349f29" d="M 201.153496 -387.7555 
L 201.153496 -55.1155 
L 204.784732 -55.1155 
L 204.784732 -387.7555 
L 204.784732 -387.7555 
L 201.153496 -387.7555 
z
"/>
    </defs>
    <g clip-path="url(#p8ec0e01521)">
     <use xlink:href="#m35d3349f29" x="0" y="398.34866" style="fill: #d95f02; fill-opacity: 0.2"/>
    </g>
   </g>
   <g id="PolyCollection_42">
    <defs>
     <path id="mcbe1973f85" d="M 204.784732 -387.7555 
L 204.784732 -55.1155 
L 208.415969 -55.1155 
L 208.415969 -387.7555 
L 208.415969 -387.7555 
L 204.784732 -387.7555 
z
"/>
    </defs>
    <g clip-path="url(#p8ec0e01521)">
     <use xlink:href="#mcbe1973f85" x="0" y="398.34866" style="fill: #d95f02; fill-opacity: 0.2"/>
    </g>
   </g>
   <g id="PolyCollection_43">
    <defs>
     <path id="m48e1863bfc" d="M 208.415969 -387.7555 
L 208.415969 -55.1155 
L 212.047205 -55.1155 
L 212.047205 -387.7555 
L 212.047205 -387.7555 
L 208.415969 -387.7555 
z
"/>
    </defs>
    <g clip-path="url(#p8ec0e01521)">
     <use xlink:href="#m48e1863bfc" x="0" y="398.34866" style="fill: #d95f02; fill-opacity: 0.2"/>
    </g>
   </g>
   <g id="PolyCollection_44">
    <defs>
     <path id="m5ad0de46e3" d="M 212.047205 -387.7555 
L 212.047205 -55.1155 
L 215.678441 -55.1155 
L 215.678441 -387.7555 
L 215.678441 -387.7555 
L 212.047205 -387.7555 
z
"/>
    </defs>
    <g clip-path="url(#p8ec0e01521)">
     <use xlink:href="#m5ad0de46e3" x="0" y="398.34866" style="fill: #d95f02; fill-opacity: 0.2"/>
    </g>
   </g>
   <g id="PolyCollection_45">
    <defs>
     <path id="mc5c2cf7ee6" d="M 215.678441 -387.7555 
L 215.678441 -55.1155 
L 219.309678 -55.1155 
L 219.309678 -387.7555 
L 219.309678 -387.7555 
L 215.678441 -387.7555 
z
"/>
    </defs>
    <g clip-path="url(#p8ec0e01521)">
     <use xlink:href="#mc5c2cf7ee6" x="0" y="398.34866" style="fill: #d95f02; fill-opacity: 0.2"/>
    </g>
   </g>
   <g id="PolyCollection_46">
    <defs>
     <path id="m11015df8dd" d="M 219.309678 -387.7555 
L 219.309678 -55.1155 
L 222.940914 -55.1155 
L 222.940914 -387.7555 
L 222.940914 -387.7555 
L 219.309678 -387.7555 
z
"/>
    </defs>
    <g clip-path="url(#p8ec0e01521)">
     <use xlink:href="#m11015df8dd" x="0" y="398.34866" style="fill: #d95f02; fill-opacity: 0.2"/>
    </g>
   </g>
   <g id="PolyCollection_47">
    <defs>
     <path id="mc90793a6ab" d="M 222.940914 -387.7555 
L 222.940914 -55.1155 
L 226.572151 -55.1155 
L 226.572151 -387.7555 
L 226.572151 -387.7555 
L 222.940914 -387.7555 
z
"/>
    </defs>
    <g clip-path="url(#p8ec0e01521)">
     <use xlink:href="#mc90793a6ab" x="0" y="398.34866" style="fill: #d95f02; fill-opacity: 0.2"/>
    </g>
   </g>
   <g id="PolyCollection_48">
    <defs>
     <path id="mcbc018b287" d="M 226.572151 -387.7555 
L 226.572151 -55.1155 
L 230.203387 -55.1155 
L 230.203387 -387.7555 
L 230.203387 -387.7555 
L 226.572151 -387.7555 
z
"/>
    </defs>
    <g clip-path="url(#p8ec0e01521)">
     <use xlink:href="#mcbc018b287" x="0" y="398.34866" style="fill: #d95f02; fill-opacity: 0.2"/>
    </g>
   </g>
   <g id="PolyCollection_49">
    <defs>
     <path id="mc93bbbdc0e" d="M 230.203387 -387.7555 
L 230.203387 -55.1155 
L 233.834624 -55.1155 
L 233.834624 -387.7555 
L 233.834624 -387.7555 
L 230.203387 -387.7555 
z
"/>
    </defs>
    <g clip-path="url(#p8ec0e01521)">
     <use xlink:href="#mc93bbbdc0e" x="0" y="398.34866" style="fill: #d95f02; fill-opacity: 0.2"/>
    </g>
   </g>
   <g id="PolyCollection_50">
    <defs>
     <path id="m93a727f3a7" d="M 233.834624 -387.7555 
L 233.834624 -55.1155 
L 237.46586 -55.1155 
L 237.46586 -387.7555 
L 237.46586 -387.7555 
L 233.834624 -387.7555 
z
"/>
    </defs>
    <g clip-path="url(#p8ec0e01521)">
     <use xlink:href="#m93a727f3a7" x="0" y="398.34866" style="fill: #d95f02; fill-opacity: 0.2"/>
    </g>
   </g>
   <g id="PolyCollection_51">
    <defs>
     <path id="m833e4b055d" d="M 237.46586 -387.7555 
L 237.46586 -55.1155 
L 241.097097 -55.1155 
L 241.097097 -387.7555 
L 241.097097 -387.7555 
L 237.46586 -387.7555 
z
"/>
    </defs>
    <g clip-path="url(#p8ec0e01521)">
     <use xlink:href="#m833e4b055d" x="0" y="398.34866" style="fill: #d95f02; fill-opacity: 0.2"/>
    </g>
   </g>
   <g id="PolyCollection_52">
    <defs>
     <path id="m37637a01c8" d="M 241.097097 -387.7555 
L 241.097097 -55.1155 
L 244.728333 -55.1155 
L 244.728333 -387.7555 
L 244.728333 -387.7555 
L 241.097097 -387.7555 
z
"/>
    </defs>
    <g clip-path="url(#p8ec0e01521)">
     <use xlink:href="#m37637a01c8" x="0" y="398.34866" style="fill: #d95f02; fill-opacity: 0.2"/>
    </g>
   </g>
   <g id="PolyCollection_53">
    <defs>
     <path id="meac5ff9160" d="M 244.728333 -387.7555 
L 244.728333 -55.1155 
L 248.359569 -55.1155 
L 248.359569 -387.7555 
L 248.359569 -387.7555 
L 244.728333 -387.7555 
z
"/>
    </defs>
    <g clip-path="url(#p8ec0e01521)">
     <use xlink:href="#meac5ff9160" x="0" y="398.34866" style="fill: #d95f02; fill-opacity: 0.2"/>
    </g>
   </g>
   <g id="PolyCollection_54">
    <defs>
     <path id="mf52b77e492" d="M 248.359569 -387.7555 
L 248.359569 -55.1155 
L 251.990806 -55.1155 
L 251.990806 -387.7555 
L 251.990806 -387.7555 
L 248.359569 -387.7555 
z
"/>
    </defs>
    <g clip-path="url(#p8ec0e01521)">
     <use xlink:href="#mf52b77e492" x="0" y="398.34866" style="fill: #d95f02; fill-opacity: 0.2"/>
    </g>
   </g>
   <g id="PolyCollection_55">
    <defs>
     <path id="m85557b7909" d="M 251.990806 -387.7555 
L 251.990806 -55.1155 
L 255.622042 -55.1155 
L 255.622042 -387.7555 
L 255.622042 -387.7555 
L 251.990806 -387.7555 
z
"/>
    </defs>
    <g clip-path="url(#p8ec0e01521)">
     <use xlink:href="#m85557b7909" x="0" y="398.34866" style="fill: #1b9e77; fill-opacity: 0.2"/>
    </g>
   </g>
   <g id="PolyCollection_56">
    <defs>
     <path id="mbf3e089d46" d="M 255.622042 -387.7555 
L 255.622042 -55.1155 
L 259.253279 -55.1155 
L 259.253279 -387.7555 
L 259.253279 -387.7555 
L 255.622042 -387.7555 
z
"/>
    </defs>
    <g clip-path="url(#p8ec0e01521)">
     <use xlink:href="#mbf3e089d46" x="0" y="398.34866" style="fill: #1b9e77; fill-opacity: 0.2"/>
    </g>
   </g>
   <g id="PolyCollection_57">
    <defs>
     <path id="m2cb6fbfe22" d="M 259.253279 -387.7555 
L 259.253279 -55.1155 
L 262.884515 -55.1155 
L 262.884515 -387.7555 
L 262.884515 -387.7555 
L 259.253279 -387.7555 
z
"/>
    </defs>
    <g clip-path="url(#p8ec0e01521)">
     <use xlink:href="#m2cb6fbfe22" x="0" y="398.34866" style="fill: #d95f02; fill-opacity: 0.2"/>
    </g>
   </g>
   <g id="PolyCollection_58">
    <defs>
     <path id="m3e51ae9284" d="M 262.884515 -387.7555 
L 262.884515 -55.1155 
L 266.515752 -55.1155 
L 266.515752 -387.7555 
L 266.515752 -387.7555 
L 262.884515 -387.7555 
z
"/>
    </defs>
    <g clip-path="url(#p8ec0e01521)">
     <use xlink:href="#m3e51ae9284" x="0" y="398.34866" style="fill: #d95f02; fill-opacity: 0.2"/>
    </g>
   </g>
   <g id="PolyCollection_59">
    <defs>
     <path id="m427895009f" d="M 266.515752 -387.7555 
L 266.515752 -55.1155 
L 270.146988 -55.1155 
L 270.146988 -387.7555 
L 270.146988 -387.7555 
L 266.515752 -387.7555 
z
"/>
    </defs>
    <g clip-path="url(#p8ec0e01521)">
     <use xlink:href="#m427895009f" x="0" y="398.34866" style="fill: #d95f02; fill-opacity: 0.2"/>
    </g>
   </g>
   <g id="PolyCollection_60">
    <defs>
     <path id="m675c4a61c7" d="M 270.146988 -387.7555 
L 270.146988 -55.1155 
L 273.778225 -55.1155 
L 273.778225 -387.7555 
L 273.778225 -387.7555 
L 270.146988 -387.7555 
z
"/>
    </defs>
    <g clip-path="url(#p8ec0e01521)">
     <use xlink:href="#m675c4a61c7" x="0" y="398.34866" style="fill: #d95f02; fill-opacity: 0.2"/>
    </g>
   </g>
   <g id="PolyCollection_61">
    <defs>
     <path id="m5d6a6af0d1" d="M 273.778225 -387.7555 
L 273.778225 -55.1155 
L 277.409461 -55.1155 
L 277.409461 -387.7555 
L 277.409461 -387.7555 
L 273.778225 -387.7555 
z
"/>
    </defs>
    <g clip-path="url(#p8ec0e01521)">
     <use xlink:href="#m5d6a6af0d1" x="0" y="398.34866" style="fill: #d95f02; fill-opacity: 0.2"/>
    </g>
   </g>
   <g id="PolyCollection_62">
    <defs>
     <path id="m7296af75fb" d="M 277.409461 -387.7555 
L 277.409461 -55.1155 
L 281.040697 -55.1155 
L 281.040697 -387.7555 
L 281.040697 -387.7555 
L 277.409461 -387.7555 
z
"/>
    </defs>
    <g clip-path="url(#p8ec0e01521)">
     <use xlink:href="#m7296af75fb" x="0" y="398.34866" style="fill: #d95f02; fill-opacity: 0.2"/>
    </g>
   </g>
   <g id="PolyCollection_63">
    <defs>
     <path id="m381a0fe0b2" d="M 281.040697 -387.7555 
L 281.040697 -55.1155 
L 284.671934 -55.1155 
L 284.671934 -387.7555 
L 284.671934 -387.7555 
L 281.040697 -387.7555 
z
"/>
    </defs>
    <g clip-path="url(#p8ec0e01521)">
     <use xlink:href="#m381a0fe0b2" x="0" y="398.34866" style="fill: #1b9e77; fill-opacity: 0.2"/>
    </g>
   </g>
   <g id="PolyCollection_64">
    <defs>
     <path id="md09fad5f04" d="M 284.671934 -387.7555 
L 284.671934 -55.1155 
L 288.30317 -55.1155 
L 288.30317 -387.7555 
L 288.30317 -387.7555 
L 284.671934 -387.7555 
z
"/>
    </defs>
    <g clip-path="url(#p8ec0e01521)">
     <use xlink:href="#md09fad5f04" x="0" y="398.34866" style="fill: #1b9e77; fill-opacity: 0.2"/>
    </g>
   </g>
   <g id="PolyCollection_65">
    <defs>
     <path id="m5ff041ac05" d="M 288.30317 -387.7555 
L 288.30317 -55.1155 
L 291.934407 -55.1155 
L 291.934407 -387.7555 
L 291.934407 -387.7555 
L 288.30317 -387.7555 
z
"/>
    </defs>
    <g clip-path="url(#p8ec0e01521)">
     <use xlink:href="#m5ff041ac05" x="0" y="398.34866" style="fill: #d95f02; fill-opacity: 0.2"/>
    </g>
   </g>
   <g id="PolyCollection_66">
    <defs>
     <path id="m467de86fff" d="M 291.934407 -387.7555 
L 291.934407 -55.1155 
L 295.565643 -55.1155 
L 295.565643 -387.7555 
L 295.565643 -387.7555 
L 291.934407 -387.7555 
z
"/>
    </defs>
    <g clip-path="url(#p8ec0e01521)">
     <use xlink:href="#m467de86fff" x="0" y="398.34866" style="fill: #d95f02; fill-opacity: 0.2"/>
    </g>
   </g>
   <g id="PolyCollection_67">
    <defs>
     <path id="m96a81dc878" d="M 295.565643 -387.7555 
L 295.565643 -55.1155 
L 299.19688 -55.1155 
L 299.19688 -387.7555 
L 299.19688 -387.7555 
L 295.565643 -387.7555 
z
"/>
    </defs>
    <g clip-path="url(#p8ec0e01521)">
     <use xlink:href="#m96a81dc878" x="0" y="398.34866" style="fill: #d95f02; fill-opacity: 0.2"/>
    </g>
   </g>
   <g id="PolyCollection_68">
    <defs>
     <path id="ma4d2122508" d="M 299.19688 -387.7555 
L 299.19688 -55.1155 
L 302.828116 -55.1155 
L 302.828116 -387.7555 
L 302.828116 -387.7555 
L 299.19688 -387.7555 
z
"/>
    </defs>
    <g clip-path="url(#p8ec0e01521)">
     <use xlink:href="#ma4d2122508" x="0" y="398.34866" style="fill: #d95f02; fill-opacity: 0.2"/>
    </g>
   </g>
   <g id="PolyCollection_69">
    <defs>
     <path id="m4a0ccb2ea8" d="M 302.828116 -387.7555 
L 302.828116 -55.1155 
L 306.459352 -55.1155 
L 306.459352 -387.7555 
L 306.459352 -387.7555 
L 302.828116 -387.7555 
z
"/>
    </defs>
    <g clip-path="url(#p8ec0e01521)">
     <use xlink:href="#m4a0ccb2ea8" x="0" y="398.34866" style="fill: #d95f02; fill-opacity: 0.2"/>
    </g>
   </g>
   <g id="PolyCollection_70">
    <defs>
     <path id="m07cedf9573" d="M 306.459352 -387.7555 
L 306.459352 -55.1155 
L 310.090589 -55.1155 
L 310.090589 -387.7555 
L 310.090589 -387.7555 
L 306.459352 -387.7555 
z
"/>
    </defs>
    <g clip-path="url(#p8ec0e01521)">
     <use xlink:href="#m07cedf9573" x="0" y="398.34866" style="fill: #1b9e77; fill-opacity: 0.2"/>
    </g>
   </g>
   <g id="PolyCollection_71">
    <defs>
     <path id="m9e1f4f9d2c" d="M 310.090589 -387.7555 
L 310.090589 -55.1155 
L 313.721825 -55.1155 
L 313.721825 -387.7555 
L 313.721825 -387.7555 
L 310.090589 -387.7555 
z
"/>
    </defs>
    <g clip-path="url(#p8ec0e01521)">
     <use xlink:href="#m9e1f4f9d2c" x="0" y="398.34866" style="fill: #1b9e77; fill-opacity: 0.2"/>
    </g>
   </g>
   <g id="PolyCollection_72">
    <defs>
     <path id="md61c7d2804" d="M 313.721825 -387.7555 
L 313.721825 -55.1155 
L 317.353062 -55.1155 
L 317.353062 -387.7555 
L 317.353062 -387.7555 
L 313.721825 -387.7555 
z
"/>
    </defs>
    <g clip-path="url(#p8ec0e01521)">
     <use xlink:href="#md61c7d2804" x="0" y="398.34866" style="fill: #d95f02; fill-opacity: 0.2"/>
    </g>
   </g>
   <g id="PolyCollection_73">
    <defs>
     <path id="ma990dc562f" d="M 317.353062 -387.7555 
L 317.353062 -55.1155 
L 320.984298 -55.1155 
L 320.984298 -387.7555 
L 320.984298 -387.7555 
L 317.353062 -387.7555 
z
"/>
    </defs>
    <g clip-path="url(#p8ec0e01521)">
     <use xlink:href="#ma990dc562f" x="0" y="398.34866" style="fill: #1b9e77; fill-opacity: 0.2"/>
    </g>
   </g>
   <g id="PolyCollection_74">
    <defs>
     <path id="meaeef2b123" d="M 320.984298 -387.7555 
L 320.984298 -55.1155 
L 324.615535 -55.1155 
L 324.615535 -387.7555 
L 324.615535 -387.7555 
L 320.984298 -387.7555 
z
"/>
    </defs>
    <g clip-path="url(#p8ec0e01521)">
     <use xlink:href="#meaeef2b123" x="0" y="398.34866" style="fill: #d95f02; fill-opacity: 0.2"/>
    </g>
   </g>
   <g id="PolyCollection_75">
    <defs>
     <path id="m0030258891" d="M 324.615535 -387.7555 
L 324.615535 -55.1155 
L 328.246771 -55.1155 
L 328.246771 -387.7555 
L 328.246771 -387.7555 
L 324.615535 -387.7555 
z
"/>
    </defs>
    <g clip-path="url(#p8ec0e01521)">
     <use xlink:href="#m0030258891" x="0" y="398.34866" style="fill: #d95f02; fill-opacity: 0.2"/>
    </g>
   </g>
   <g id="PolyCollection_76">
    <defs>
     <path id="m09882dc700" d="M 328.246771 -387.7555 
L 328.246771 -55.1155 
L 331.878008 -55.1155 
L 331.878008 -387.7555 
L 331.878008 -387.7555 
L 328.246771 -387.7555 
z
"/>
    </defs>
    <g clip-path="url(#p8ec0e01521)">
     <use xlink:href="#m09882dc700" x="0" y="398.34866" style="fill: #d95f02; fill-opacity: 0.2"/>
    </g>
   </g>
   <g id="PolyCollection_77">
    <defs>
     <path id="m22c6572345" d="M 331.878008 -387.7555 
L 331.878008 -55.1155 
L 335.509244 -55.1155 
L 335.509244 -387.7555 
L 335.509244 -387.7555 
L 331.878008 -387.7555 
z
"/>
    </defs>
    <g clip-path="url(#p8ec0e01521)">
     <use xlink:href="#m22c6572345" x="0" y="398.34866" style="fill: #d95f02; fill-opacity: 0.2"/>
    </g>
   </g>
   <g id="PolyCollection_78">
    <defs>
     <path id="m0f98dda2b8" d="M 335.509244 -387.7555 
L 335.509244 -55.1155 
L 339.14048 -55.1155 
L 339.14048 -387.7555 
L 339.14048 -387.7555 
L 335.509244 -387.7555 
z
"/>
    </defs>
    <g clip-path="url(#p8ec0e01521)">
     <use xlink:href="#m0f98dda2b8" x="0" y="398.34866" style="fill: #d95f02; fill-opacity: 0.2"/>
    </g>
   </g>
   <g id="PolyCollection_79">
    <defs>
     <path id="m0dc3fd7609" d="M 339.14048 -387.7555 
L 339.14048 -55.1155 
L 342.771717 -55.1155 
L 342.771717 -387.7555 
L 342.771717 -387.7555 
L 339.14048 -387.7555 
z
"/>
    </defs>
    <g clip-path="url(#p8ec0e01521)">
     <use xlink:href="#m0dc3fd7609" x="0" y="398.34866" style="fill: #d95f02; fill-opacity: 0.2"/>
    </g>
   </g>
   <g id="PolyCollection_80">
    <defs>
     <path id="m93d7c1bdac" d="M 342.771717 -387.7555 
L 342.771717 -55.1155 
L 346.402953 -55.1155 
L 346.402953 -387.7555 
L 346.402953 -387.7555 
L 342.771717 -387.7555 
z
"/>
    </defs>
    <g clip-path="url(#p8ec0e01521)">
     <use xlink:href="#m93d7c1bdac" x="0" y="398.34866" style="fill: #1b9e77; fill-opacity: 0.2"/>
    </g>
   </g>
   <g id="PolyCollection_81">
    <defs>
     <path id="md55987cfcf" d="M 346.402953 -387.7555 
L 346.402953 -55.1155 
L 350.03419 -55.1155 
L 350.03419 -387.7555 
L 350.03419 -387.7555 
L 346.402953 -387.7555 
z
"/>
    </defs>
    <g clip-path="url(#p8ec0e01521)">
     <use xlink:href="#md55987cfcf" x="0" y="398.34866" style="fill: #d95f02; fill-opacity: 0.2"/>
    </g>
   </g>
   <g id="PolyCollection_82">
    <defs>
     <path id="m29399bfff8" d="M 350.03419 -387.7555 
L 350.03419 -55.1155 
L 353.665426 -55.1155 
L 353.665426 -387.7555 
L 353.665426 -387.7555 
L 350.03419 -387.7555 
z
"/>
    </defs>
    <g clip-path="url(#p8ec0e01521)">
     <use xlink:href="#m29399bfff8" x="0" y="398.34866" style="fill: #1b9e77; fill-opacity: 0.2"/>
    </g>
   </g>
   <g id="PolyCollection_83">
    <defs>
     <path id="m49e3d3f214" d="M 353.665426 -387.7555 
L 353.665426 -55.1155 
L 357.296663 -55.1155 
L 357.296663 -387.7555 
L 357.296663 -387.7555 
L 353.665426 -387.7555 
z
"/>
    </defs>
    <g clip-path="url(#p8ec0e01521)">
     <use xlink:href="#m49e3d3f214" x="0" y="398.34866" style="fill: #d95f02; fill-opacity: 0.2"/>
    </g>
   </g>
   <g id="PolyCollection_84">
    <defs>
     <path id="m700cec8463" d="M 357.296663 -387.7555 
L 357.296663 -55.1155 
L 360.927899 -55.1155 
L 360.927899 -387.7555 
L 360.927899 -387.7555 
L 357.296663 -387.7555 
z
"/>
    </defs>
    <g clip-path="url(#p8ec0e01521)">
     <use xlink:href="#m700cec8463" x="0" y="398.34866" style="fill: #1b9e77; fill-opacity: 0.2"/>
    </g>
   </g>
   <g id="PolyCollection_85">
    <defs>
     <path id="m2716a2bb8b" d="M 360.927899 -387.7555 
L 360.927899 -55.1155 
L 364.559136 -55.1155 
L 364.559136 -387.7555 
L 364.559136 -387.7555 
L 360.927899 -387.7555 
z
"/>
    </defs>
    <g clip-path="url(#p8ec0e01521)">
     <use xlink:href="#m2716a2bb8b" x="0" y="398.34866" style="fill: #1b9e77; fill-opacity: 0.2"/>
    </g>
   </g>
   <g id="PolyCollection_86">
    <defs>
     <path id="m482fd12cfe" d="M 364.559136 -387.7555 
L 364.559136 -55.1155 
L 368.190372 -55.1155 
L 368.190372 -387.7555 
L 368.190372 -387.7555 
L 364.559136 -387.7555 
z
"/>
    </defs>
    <g clip-path="url(#p8ec0e01521)">
     <use xlink:href="#m482fd12cfe" x="0" y="398.34866" style="fill: #1b9e77; fill-opacity: 0.2"/>
    </g>
   </g>
   <g id="PolyCollection_87">
    <defs>
     <path id="mec1e85cca7" d="M 368.190372 -387.7555 
L 368.190372 -55.1155 
L 371.821608 -55.1155 
L 371.821608 -387.7555 
L 371.821608 -387.7555 
L 368.190372 -387.7555 
z
"/>
    </defs>
    <g clip-path="url(#p8ec0e01521)">
     <use xlink:href="#mec1e85cca7" x="0" y="398.34866" style="fill: #d95f02; fill-opacity: 0.2"/>
    </g>
   </g>
   <g id="PolyCollection_88">
    <defs>
     <path id="m9ab1cdbf93" d="M 371.821608 -387.7555 
L 371.821608 -55.1155 
L 375.452845 -55.1155 
L 375.452845 -387.7555 
L 375.452845 -387.7555 
L 371.821608 -387.7555 
z
"/>
    </defs>
    <g clip-path="url(#p8ec0e01521)">
     <use xlink:href="#m9ab1cdbf93" x="0" y="398.34866" style="fill: #d95f02; fill-opacity: 0.2"/>
    </g>
   </g>
   <g id="PolyCollection_89">
    <defs>
     <path id="mbb5e17f40d" d="M 375.452845 -387.7555 
L 375.452845 -55.1155 
L 379.084081 -55.1155 
L 379.084081 -387.7555 
L 379.084081 -387.7555 
L 375.452845 -387.7555 
z
"/>
    </defs>
    <g clip-path="url(#p8ec0e01521)">
     <use xlink:href="#mbb5e17f40d" x="0" y="398.34866" style="fill: #d95f02; fill-opacity: 0.2"/>
    </g>
   </g>
   <g id="PolyCollection_90">
    <defs>
     <path id="mf36169a3b8" d="M 379.084081 -387.7555 
L 379.084081 -55.1155 
L 382.715318 -55.1155 
L 382.715318 -387.7555 
L 382.715318 -387.7555 
L 379.084081 -387.7555 
z
"/>
    </defs>
    <g clip-path="url(#p8ec0e01521)">
     <use xlink:href="#mf36169a3b8" x="0" y="398.34866" style="fill: #d95f02; fill-opacity: 0.2"/>
    </g>
   </g>
   <g id="PolyCollection_91">
    <defs>
     <path id="m4ff7c300d2" d="M 382.715318 -387.7555 
L 382.715318 -55.1155 
L 386.346554 -55.1155 
L 386.346554 -387.7555 
L 386.346554 -387.7555 
L 382.715318 -387.7555 
z
"/>
    </defs>
    <g clip-path="url(#p8ec0e01521)">
     <use xlink:href="#m4ff7c300d2" x="0" y="398.34866" style="fill: #1b9e77; fill-opacity: 0.2"/>
    </g>
   </g>
   <g id="PolyCollection_92">
    <defs>
     <path id="ma555abad6e" d="M 386.346554 -387.7555 
L 386.346554 -55.1155 
L 389.977791 -55.1155 
L 389.977791 -387.7555 
L 389.977791 -387.7555 
L 386.346554 -387.7555 
z
"/>
    </defs>
    <g clip-path="url(#p8ec0e01521)">
     <use xlink:href="#ma555abad6e" x="0" y="398.34866" style="fill: #d95f02; fill-opacity: 0.2"/>
    </g>
   </g>
   <g id="PolyCollection_93">
    <defs>
     <path id="m7a0cdc2991" d="M 389.977791 -387.7555 
L 389.977791 -55.1155 
L 393.609027 -55.1155 
L 393.609027 -387.7555 
L 393.609027 -387.7555 
L 389.977791 -387.7555 
z
"/>
    </defs>
    <g clip-path="url(#p8ec0e01521)">
     <use xlink:href="#m7a0cdc2991" x="0" y="398.34866" style="fill: #d95f02; fill-opacity: 0.2"/>
    </g>
   </g>
   <g id="PolyCollection_94">
    <defs>
     <path id="m7158490ce9" d="M 393.609027 -387.7555 
L 393.609027 -55.1155 
L 397.240264 -55.1155 
L 397.240264 -387.7555 
L 397.240264 -387.7555 
L 393.609027 -387.7555 
z
"/>
    </defs>
    <g clip-path="url(#p8ec0e01521)">
     <use xlink:href="#m7158490ce9" x="0" y="398.34866" style="fill: #d95f02; fill-opacity: 0.2"/>
    </g>
   </g>
   <g id="PolyCollection_95">
    <defs>
     <path id="me70684e158" d="M 397.240264 -387.7555 
L 397.240264 -55.1155 
L 400.8715 -55.1155 
L 400.8715 -387.7555 
L 400.8715 -387.7555 
L 397.240264 -387.7555 
z
"/>
    </defs>
    <g clip-path="url(#p8ec0e01521)">
     <use xlink:href="#me70684e158" x="0" y="398.34866" style="fill: #d95f02; fill-opacity: 0.2"/>
    </g>
   </g>
   <g id="matplotlib.axis_1">
    <g id="xtick_1">
     <g id="line2d_1">
      <defs>
       <path id="m664b5ffbed" d="M 0 0 
L 0 4.8 
" style="stroke: #000000"/>
      </defs>
      <g>
       <use xlink:href="#m664b5ffbed" x="66.797747" y="343.23316" style="stroke: #000000"/>
      </g>
     </g>
     <g id="text_1">
      <!-- 0 -->
      <g transform="translate(61.198747 364.90641) scale(0.176 -0.176)">
       <defs>
        <path id="DejaVuSans-30" d="M 2034 4250 
Q 1547 4250 1301 3770 
Q 1056 3291 1056 2328 
Q 1056 1369 1301 889 
Q 1547 409 2034 409 
Q 2525 409 2770 889 
Q 3016 1369 3016 2328 
Q 3016 3291 2770 3770 
Q 2525 4250 2034 4250 
z
M 2034 4750 
Q 2819 4750 3233 4129 
Q 3647 3509 3647 2328 
Q 3647 1150 3233 529 
Q 2819 -91 2034 -91 
Q 1250 -91 836 529 
Q 422 1150 422 2328 
Q 422 3509 836 4129 
Q 1250 4750 2034 4750 
z
" transform="scale(0.015625)"/>
       </defs>
       <use xlink:href="#DejaVuSans-30"/>
      </g>
     </g>
    </g>
    <g id="xtick_2">
     <g id="line2d_2">
      <g>
       <use xlink:href="#m664b5ffbed" x="139.422476" y="343.23316" style="stroke: #000000"/>
      </g>
     </g>
     <g id="text_2">
      <!-- 20 -->
      <g transform="translate(128.224476 364.90641) scale(0.176 -0.176)">
       <defs>
        <path id="DejaVuSans-32" d="M 1228 531 
L 3431 531 
L 3431 0 
L 469 0 
L 469 531 
Q 828 903 1448 1529 
Q 2069 2156 2228 2338 
Q 2531 2678 2651 2914 
Q 2772 3150 2772 3378 
Q 2772 3750 2511 3984 
Q 2250 4219 1831 4219 
Q 1534 4219 1204 4116 
Q 875 4013 500 3803 
L 500 4441 
Q 881 4594 1212 4672 
Q 1544 4750 1819 4750 
Q 2544 4750 2975 4387 
Q 3406 4025 3406 3419 
Q 3406 3131 3298 2873 
Q 3191 2616 2906 2266 
Q 2828 2175 2409 1742 
Q 1991 1309 1228 531 
z
" transform="scale(0.015625)"/>
       </defs>
       <use xlink:href="#DejaVuSans-32"/>
       <use xlink:href="#DejaVuSans-30" x="63.623047"/>
      </g>
     </g>
    </g>
    <g id="xtick_3">
     <g id="line2d_3">
      <g>
       <use xlink:href="#m664b5ffbed" x="212.047205" y="343.23316" style="stroke: #000000"/>
      </g>
     </g>
     <g id="text_3">
      <!-- 40 -->
      <g transform="translate(200.849205 364.90641) scale(0.176 -0.176)">
       <defs>
        <path id="DejaVuSans-34" d="M 2419 4116 
L 825 1625 
L 2419 1625 
L 2419 4116 
z
M 2253 4666 
L 3047 4666 
L 3047 1625 
L 3713 1625 
L 3713 1100 
L 3047 1100 
L 3047 0 
L 2419 0 
L 2419 1100 
L 313 1100 
L 313 1709 
L 2253 4666 
z
" transform="scale(0.015625)"/>
       </defs>
       <use xlink:href="#DejaVuSans-34"/>
       <use xlink:href="#DejaVuSans-30" x="63.623047"/>
      </g>
     </g>
    </g>
    <g id="xtick_4">
     <g id="line2d_4">
      <g>
       <use xlink:href="#m664b5ffbed" x="284.671934" y="343.23316" style="stroke: #000000"/>
      </g>
     </g>
     <g id="text_4">
      <!-- 60 -->
      <g transform="translate(273.473934 364.90641) scale(0.176 -0.176)">
       <defs>
        <path id="DejaVuSans-36" d="M 2113 2584 
Q 1688 2584 1439 2293 
Q 1191 2003 1191 1497 
Q 1191 994 1439 701 
Q 1688 409 2113 409 
Q 2538 409 2786 701 
Q 3034 994 3034 1497 
Q 3034 2003 2786 2293 
Q 2538 2584 2113 2584 
z
M 3366 4563 
L 3366 3988 
Q 3128 4100 2886 4159 
Q 2644 4219 2406 4219 
Q 1781 4219 1451 3797 
Q 1122 3375 1075 2522 
Q 1259 2794 1537 2939 
Q 1816 3084 2150 3084 
Q 2853 3084 3261 2657 
Q 3669 2231 3669 1497 
Q 3669 778 3244 343 
Q 2819 -91 2113 -91 
Q 1303 -91 875 529 
Q 447 1150 447 2328 
Q 447 3434 972 4092 
Q 1497 4750 2381 4750 
Q 2619 4750 2861 4703 
Q 3103 4656 3366 4563 
z
" transform="scale(0.015625)"/>
       </defs>
       <use xlink:href="#DejaVuSans-36"/>
       <use xlink:href="#DejaVuSans-30" x="63.623047"/>
      </g>
     </g>
    </g>
    <g id="xtick_5">
     <g id="line2d_5">
      <g>
       <use xlink:href="#m664b5ffbed" x="357.296663" y="343.23316" style="stroke: #000000"/>
      </g>
     </g>
     <g id="text_5">
      <!-- 80 -->
      <g transform="translate(346.098663 364.90641) scale(0.176 -0.176)">
       <defs>
        <path id="DejaVuSans-38" d="M 2034 2216 
Q 1584 2216 1326 1975 
Q 1069 1734 1069 1313 
Q 1069 891 1326 650 
Q 1584 409 2034 409 
Q 2484 409 2743 651 
Q 3003 894 3003 1313 
Q 3003 1734 2745 1975 
Q 2488 2216 2034 2216 
z
M 1403 2484 
Q 997 2584 770 2862 
Q 544 3141 544 3541 
Q 544 4100 942 4425 
Q 1341 4750 2034 4750 
Q 2731 4750 3128 4425 
Q 3525 4100 3525 3541 
Q 3525 3141 3298 2862 
Q 3072 2584 2669 2484 
Q 3125 2378 3379 2068 
Q 3634 1759 3634 1313 
Q 3634 634 3220 271 
Q 2806 -91 2034 -91 
Q 1263 -91 848 271 
Q 434 634 434 1313 
Q 434 1759 690 2068 
Q 947 2378 1403 2484 
z
M 1172 3481 
Q 1172 3119 1398 2916 
Q 1625 2713 2034 2713 
Q 2441 2713 2670 2916 
Q 2900 3119 2900 3481 
Q 2900 3844 2670 4047 
Q 2441 4250 2034 4250 
Q 1625 4250 1398 4047 
Q 1172 3844 1172 3481 
z
" transform="scale(0.015625)"/>
       </defs>
       <use xlink:href="#DejaVuSans-38"/>
       <use xlink:href="#DejaVuSans-30" x="63.623047"/>
      </g>
     </g>
    </g>
    <g id="text_6">
     <!-- State -->
     <g transform="translate(208.06 387.15566) scale(0.192 -0.192)">
      <defs>
       <path id="DejaVuSans-53" d="M 3425 4513 
L 3425 3897 
Q 3066 4069 2747 4153 
Q 2428 4238 2131 4238 
Q 1616 4238 1336 4038 
Q 1056 3838 1056 3469 
Q 1056 3159 1242 3001 
Q 1428 2844 1947 2747 
L 2328 2669 
Q 3034 2534 3370 2195 
Q 3706 1856 3706 1288 
Q 3706 609 3251 259 
Q 2797 -91 1919 -91 
Q 1588 -91 1214 -16 
Q 841 59 441 206 
L 441 856 
Q 825 641 1194 531 
Q 1563 422 1919 422 
Q 2459 422 2753 634 
Q 3047 847 3047 1241 
Q 3047 1584 2836 1778 
Q 2625 1972 2144 2069 
L 1759 2144 
Q 1053 2284 737 2584 
Q 422 2884 422 3419 
Q 422 4038 858 4394 
Q 1294 4750 2059 4750 
Q 2388 4750 2728 4690 
Q 3069 4631 3425 4513 
z
" transform="scale(0.015625)"/>
       <path id="DejaVuSans-74" d="M 1172 4494 
L 1172 3500 
L 2356 3500 
L 2356 3053 
L 1172 3053 
L 1172 1153 
Q 1172 725 1289 603 
Q 1406 481 1766 481 
L 2356 481 
L 2356 0 
L 1766 0 
Q 1100 0 847 248 
Q 594 497 594 1153 
L 594 3053 
L 172 3053 
L 172 3500 
L 594 3500 
L 594 4494 
L 1172 4494 
z
" transform="scale(0.015625)"/>
       <path id="DejaVuSans-61" d="M 2194 1759 
Q 1497 1759 1228 1600 
Q 959 1441 959 1056 
Q 959 750 1161 570 
Q 1363 391 1709 391 
Q 2188 391 2477 730 
Q 2766 1069 2766 1631 
L 2766 1759 
L 2194 1759 
z
M 3341 1997 
L 3341 0 
L 2766 0 
L 2766 531 
Q 2569 213 2275 61 
Q 1981 -91 1556 -91 
Q 1019 -91 701 211 
Q 384 513 384 1019 
Q 384 1609 779 1909 
Q 1175 2209 1959 2209 
L 2766 2209 
L 2766 2266 
Q 2766 2663 2505 2880 
Q 2244 3097 1772 3097 
Q 1472 3097 1187 3025 
Q 903 2953 641 2809 
L 641 3341 
Q 956 3463 1253 3523 
Q 1550 3584 1831 3584 
Q 2591 3584 2966 3190 
Q 3341 2797 3341 1997 
z
" transform="scale(0.015625)"/>
       <path id="DejaVuSans-65" d="M 3597 1894 
L 3597 1613 
L 953 1613 
Q 991 1019 1311 708 
Q 1631 397 2203 397 
Q 2534 397 2845 478 
Q 3156 559 3463 722 
L 3463 178 
Q 3153 47 2828 -22 
Q 2503 -91 2169 -91 
Q 1331 -91 842 396 
Q 353 884 353 1716 
Q 353 2575 817 3079 
Q 1281 3584 2069 3584 
Q 2775 3584 3186 3129 
Q 3597 2675 3597 1894 
z
M 3022 2063 
Q 3016 2534 2758 2815 
Q 2500 3097 2075 3097 
Q 1594 3097 1305 2825 
Q 1016 2553 972 2059 
L 3022 2063 
z
" transform="scale(0.015625)"/>
      </defs>
      <use xlink:href="#DejaVuSans-53"/>
      <use xlink:href="#DejaVuSans-74" x="63.476562"/>
      <use xlink:href="#DejaVuSans-61" x="102.685547"/>
      <use xlink:href="#DejaVuSans-74" x="163.964844"/>
      <use xlink:href="#DejaVuSans-65" x="203.173828"/>
     </g>
    </g>
   </g>
   <g id="matplotlib.axis_2">
    <g id="ytick_1">
     <g id="line2d_6">
      <defs>
       <path id="mf80fee256a" d="M 0 0 
L -4.8 0 
" style="stroke: #000000"/>
      </defs>
      <g>
       <use xlink:href="#mf80fee256a" x="66.0715" y="343.23316" style="stroke: #000000"/>
      </g>
     </g>
     <g id="text_7">
      <!-- 0.0 -->
      <g transform="translate(29.782 349.919785) scale(0.176 -0.176)">
       <defs>
        <path id="DejaVuSans-2e" d="M 684 794 
L 1344 794 
L 1344 0 
L 684 0 
L 684 794 
z
" transform="scale(0.015625)"/>
       </defs>
       <use xlink:href="#DejaVuSans-30"/>
       <use xlink:href="#DejaVuSans-2e" x="63.623047"/>
       <use xlink:href="#DejaVuSans-30" x="95.410156"/>
      </g>
     </g>
    </g>
    <g id="ytick_2">
     <g id="line2d_7">
      <g>
       <use xlink:href="#mf80fee256a" x="66.0715" y="277.363853" style="stroke: #000000"/>
      </g>
     </g>
     <g id="text_8">
      <!-- 0.2 -->
      <g transform="translate(29.782 284.050478) scale(0.176 -0.176)">
       <use xlink:href="#DejaVuSans-30"/>
       <use xlink:href="#DejaVuSans-2e" x="63.623047"/>
       <use xlink:href="#DejaVuSans-32" x="95.410156"/>
      </g>
     </g>
    </g>
    <g id="ytick_3">
     <g id="line2d_8">
      <g>
       <use xlink:href="#mf80fee256a" x="66.0715" y="211.494546" style="stroke: #000000"/>
      </g>
     </g>
     <g id="text_9">
      <!-- 0.4 -->
      <g transform="translate(29.782 218.181171) scale(0.176 -0.176)">
       <use xlink:href="#DejaVuSans-30"/>
       <use xlink:href="#DejaVuSans-2e" x="63.623047"/>
       <use xlink:href="#DejaVuSans-34" x="95.410156"/>
      </g>
     </g>
    </g>
    <g id="ytick_4">
     <g id="line2d_9">
      <g>
       <use xlink:href="#mf80fee256a" x="66.0715" y="145.625239" style="stroke: #000000"/>
      </g>
     </g>
     <g id="text_10">
      <!-- 0.6 -->
      <g transform="translate(29.782 152.311864) scale(0.176 -0.176)">
       <use xlink:href="#DejaVuSans-30"/>
       <use xlink:href="#DejaVuSans-2e" x="63.623047"/>
       <use xlink:href="#DejaVuSans-36" x="95.410156"/>
      </g>
     </g>
    </g>
    <g id="ytick_5">
     <g id="line2d_10">
      <g>
       <use xlink:href="#mf80fee256a" x="66.0715" y="79.755932" style="stroke: #000000"/>
      </g>
     </g>
     <g id="text_11">
      <!-- 0.8 -->
      <g transform="translate(29.782 86.442557) scale(0.176 -0.176)">
       <use xlink:href="#DejaVuSans-30"/>
       <use xlink:href="#DejaVuSans-2e" x="63.623047"/>
       <use xlink:href="#DejaVuSans-38" x="95.410156"/>
      </g>
     </g>
    </g>
    <g id="ytick_6">
     <g id="line2d_11">
      <g>
       <use xlink:href="#mf80fee256a" x="66.0715" y="13.886625" style="stroke: #000000"/>
      </g>
     </g>
     <g id="text_12">
      <!-- 1.0 -->
      <g transform="translate(29.782 20.57325) scale(0.176 -0.176)">
       <defs>
        <path id="DejaVuSans-31" d="M 794 531 
L 1825 531 
L 1825 4091 
L 703 3866 
L 703 4441 
L 1819 4666 
L 2450 4666 
L 2450 531 
L 3481 531 
L 3481 0 
L 794 0 
L 794 531 
z
" transform="scale(0.015625)"/>
       </defs>
       <use xlink:href="#DejaVuSans-31"/>
       <use xlink:href="#DejaVuSans-2e" x="63.623047"/>
       <use xlink:href="#DejaVuSans-30" x="95.410156"/>
      </g>
     </g>
    </g>
    <g id="text_13">
     <!-- Score -->
     <g transform="translate(21.789 203.79766) rotate(-90) scale(0.192 -0.192)">
      <defs>
       <path id="DejaVuSans-63" d="M 3122 3366 
L 3122 2828 
Q 2878 2963 2633 3030 
Q 2388 3097 2138 3097 
Q 1578 3097 1268 2742 
Q 959 2388 959 1747 
Q 959 1106 1268 751 
Q 1578 397 2138 397 
Q 2388 397 2633 464 
Q 2878 531 3122 666 
L 3122 134 
Q 2881 22 2623 -34 
Q 2366 -91 2075 -91 
Q 1284 -91 818 406 
Q 353 903 353 1747 
Q 353 2603 823 3093 
Q 1294 3584 2113 3584 
Q 2378 3584 2631 3529 
Q 2884 3475 3122 3366 
z
" transform="scale(0.015625)"/>
       <path id="DejaVuSans-6f" d="M 1959 3097 
Q 1497 3097 1228 2736 
Q 959 2375 959 1747 
Q 959 1119 1226 758 
Q 1494 397 1959 397 
Q 2419 397 2687 759 
Q 2956 1122 2956 1747 
Q 2956 2369 2687 2733 
Q 2419 3097 1959 3097 
z
M 1959 3584 
Q 2709 3584 3137 3096 
Q 3566 2609 3566 1747 
Q 3566 888 3137 398 
Q 2709 -91 1959 -91 
Q 1206 -91 779 398 
Q 353 888 353 1747 
Q 353 2609 779 3096 
Q 1206 3584 1959 3584 
z
" transform="scale(0.015625)"/>
       <path id="DejaVuSans-72" d="M 2631 2963 
Q 2534 3019 2420 3045 
Q 2306 3072 2169 3072 
Q 1681 3072 1420 2755 
Q 1159 2438 1159 1844 
L 1159 0 
L 581 0 
L 581 3500 
L 1159 3500 
L 1159 2956 
Q 1341 3275 1631 3429 
Q 1922 3584 2338 3584 
Q 2397 3584 2469 3576 
Q 2541 3569 2628 3553 
L 2631 2963 
z
" transform="scale(0.015625)"/>
      </defs>
      <use xlink:href="#DejaVuSans-53"/>
      <use xlink:href="#DejaVuSans-63" x="63.476562"/>
      <use xlink:href="#DejaVuSans-6f" x="118.457031"/>
      <use xlink:href="#DejaVuSans-72" x="179.638672"/>
      <use xlink:href="#DejaVuSans-65" x="218.501953"/>
     </g>
    </g>
   </g>
   <g id="line2d_12">
    <path d="M 66.797747 121.753832 
L 70.428984 205.506427 
L 74.06022 205.506427 
L 77.691457 205.506427 
L 81.322693 205.506427 
L 84.95393 205.506427 
L 88.585166 205.506427 
L 92.216402 205.506427 
L 95.847639 205.506427 
L 99.478875 205.506427 
L 103.110112 205.506427 
L 106.741348 205.506427 
L 110.372585 205.506427 
L 114.003821 205.506427 
L 117.635057 205.506427 
L 121.266294 205.506427 
L 124.89753 205.506427 
L 128.528767 205.506427 
L 132.160003 205.506427 
L 135.79124 205.506427 
L 139.422476 205.506427 
L 143.053713 205.506427 
L 146.684949 205.506427 
L 150.316185 205.506427 
L 153.947422 205.506427 
L 157.578658 205.506427 
L 161.209895 205.506427 
L 164.841131 205.506427 
L 168.472368 205.506427 
L 172.103604 205.506427 
L 175.734841 205.506427 
L 179.366077 205.506427 
L 182.997313 205.506427 
L 186.62855 205.506427 
L 190.259786 205.506427 
L 193.891023 205.506427 
L 197.522259 205.506427 
L 201.153496 205.506427 
L 204.784732 205.506427 
L 208.415969 205.506427 
L 212.047205 205.506427 
L 215.678441 205.506427 
L 219.309678 205.506427 
L 222.940914 205.506427 
L 226.572151 205.506427 
L 230.203387 205.506427 
L 233.834624 205.506427 
L 237.46586 205.506427 
L 241.097097 205.506427 
L 244.728333 205.506427 
L 248.359569 205.506427 
L 251.990806 205.506427 
L 255.622042 205.506427 
L 259.253279 205.506427 
L 262.884515 205.506427 
L 266.515752 205.506427 
L 270.146988 205.506427 
L 273.778225 205.506427 
L 277.409461 205.506427 
L 281.040697 205.506427 
L 284.671934 205.506427 
L 288.30317 39.494563 
L 291.934407 36.465696 
L 295.565643 36.458662 
L 299.19688 20.788452 
L 302.828116 20.788452 
L 306.459352 17.588371 
L 310.090589 17.588371 
L 313.721825 17.585925 
L 317.353062 16.830139 
L 320.984298 16.826247 
L 324.615535 16.826247 
L 328.246771 16.826247 
L 331.878008 16.826247 
L 335.509244 16.826247 
L 339.14048 16.826247 
L 342.771717 16.826247 
L 346.402953 16.741314 
L 350.03419 16.741314 
L 353.665426 16.732179 
L 357.296663 16.732179 
L 360.927899 16.640529 
L 364.559136 16.640529 
L 368.190372 16.557002 
L 371.821608 16.557002 
L 375.452845 16.557002 
L 379.084081 16.557002 
L 382.715318 16.557002 
L 386.346554 16.419338 
L 389.977791 16.419338 
L 393.609027 15.766457 
L 397.240264 14.452837 
L 400.8715 13.886625 
" clip-path="url(#p8ec0e01521)" style="fill: none; stroke-dasharray: 2,3.3; stroke-dashoffset: 0; stroke: #e41a1c; stroke-width: 2"/>
   </g>
   <g id="line2d_13">
    <path d="M 66.797747 99.059193 
L 70.428984 341.058943 
L 74.06022 341.058943 
L 77.691457 341.058943 
L 81.322693 341.058943 
L 84.95393 341.058943 
L 88.585166 341.058943 
L 92.216402 341.058943 
L 95.847639 341.058943 
L 99.478875 341.058943 
L 103.110112 341.058943 
L 106.741348 341.058943 
L 110.372585 341.058943 
L 114.003821 341.058943 
L 117.635057 341.058943 
L 121.266294 341.058943 
L 124.89753 341.058943 
L 128.528767 341.058943 
L 132.160003 341.058943 
L 135.79124 341.058943 
L 139.422476 341.058943 
L 143.053713 341.058943 
L 146.684949 341.058943 
L 150.316185 341.058943 
L 153.947422 341.058943 
L 157.578658 341.058943 
L 161.209895 341.058943 
L 164.841131 341.058943 
L 168.472368 341.058943 
L 172.103604 341.058943 
L 175.734841 341.058943 
L 179.366077 341.058943 
L 182.997313 341.058943 
L 186.62855 341.058943 
L 190.259786 341.058943 
L 193.891023 341.058943 
L 197.522259 341.058943 
L 201.153496 341.058943 
L 204.784732 341.058943 
L 208.415969 341.058943 
L 212.047205 341.058943 
L 215.678441 341.058943 
L 219.309678 341.058943 
L 222.940914 341.058943 
L 226.572151 341.058943 
L 230.203387 341.058943 
L 233.834624 341.058943 
L 237.46586 341.058943 
L 241.097097 341.058943 
L 244.728333 341.058943 
L 248.359569 341.058943 
L 251.990806 341.058943 
L 255.622042 341.058943 
L 259.253279 341.058943 
L 262.884515 341.058943 
L 266.515752 341.058943 
L 270.146988 341.058943 
L 273.778225 341.058943 
L 277.409461 341.058943 
L 281.040697 341.058943 
L 284.671934 341.058943 
L 288.30317 60.679545 
L 291.934407 60.679545 
L 295.565643 60.585014 
L 299.19688 60.585014 
L 302.828116 60.585014 
L 306.459352 60.490483 
L 310.090589 60.490483 
L 313.721825 60.301421 
L 317.353062 60.20689 
L 320.984298 59.828765 
L 324.615535 59.828765 
L 328.246771 59.828765 
L 331.878008 59.828765 
L 335.509244 59.828765 
L 339.14048 59.828765 
L 342.771717 59.828765 
L 346.402953 51.320961 
L 350.03419 51.320961 
L 353.665426 50.37565 
L 357.296663 50.37565 
L 360.927899 40.54441 
L 364.559136 40.54441 
L 368.190372 30.996764 
L 371.821608 30.996764 
L 375.452845 30.996764 
L 379.084081 30.996764 
L 382.715318 30.996764 
L 386.346554 13.886625 
L 389.977791 13.886625 
L 393.609027 13.886625 
L 397.240264 13.886625 
L 400.8715 13.886625 
" clip-path="url(#p8ec0e01521)" style="fill: none; stroke-dasharray: 7.4,3.2; stroke-dashoffset: 0; stroke: #377eb8; stroke-width: 2"/>
   </g>
   <g id="line2d_14">
    <path d="M 66.797747 110.959549 
L 70.428984 338.952306 
L 74.06022 338.952306 
L 77.691457 338.952306 
L 81.322693 338.952306 
L 84.95393 338.952306 
L 88.585166 338.952306 
L 92.216402 338.952306 
L 95.847639 338.952306 
L 99.478875 338.952306 
L 103.110112 338.952306 
L 106.741348 338.952306 
L 110.372585 338.952306 
L 114.003821 338.952306 
L 117.635057 338.952306 
L 121.266294 338.952306 
L 124.89753 338.952306 
L 128.528767 338.952306 
L 132.160003 338.952306 
L 135.79124 338.952306 
L 139.422476 338.952306 
L 143.053713 338.952306 
L 146.684949 338.952306 
L 150.316185 338.952306 
L 153.947422 338.952306 
L 157.578658 338.952306 
L 161.209895 338.952306 
L 164.841131 338.952306 
L 168.472368 338.952306 
L 172.103604 338.952306 
L 175.734841 338.952306 
L 179.366077 338.952306 
L 182.997313 338.952306 
L 186.62855 338.952306 
L 190.259786 338.952306 
L 193.891023 338.952306 
L 197.522259 338.952306 
L 201.153496 338.952306 
L 204.784732 338.952306 
L 208.415969 338.952306 
L 212.047205 338.952306 
L 215.678441 338.952306 
L 219.309678 338.952306 
L 222.940914 338.952306 
L 226.572151 338.952306 
L 230.203387 338.952306 
L 233.834624 338.952306 
L 237.46586 338.952306 
L 241.097097 338.952306 
L 244.728333 338.952306 
L 248.359569 338.952306 
L 251.990806 338.952306 
L 255.622042 338.952306 
L 259.253279 338.952306 
L 262.884515 338.952306 
L 266.515752 338.952306 
L 270.146988 338.952306 
L 273.778225 338.952306 
L 277.409461 338.952306 
L 281.040697 338.952306 
L 284.671934 338.952306 
L 288.30317 50.469801 
L 291.934407 49.070066 
L 295.565643 49.01561 
L 299.19688 41.99543 
L 302.828116 41.99543 
L 306.459352 40.552107 
L 310.090589 40.552107 
L 313.721825 40.44275 
L 317.353062 40.062207 
L 320.984298 39.843726 
L 324.615535 39.843726 
L 328.246771 39.843726 
L 331.878008 39.843726 
L 335.509244 39.843726 
L 339.14048 39.843726 
L 342.771717 39.843726 
L 346.402953 34.997942 
L 350.03419 34.997942 
L 353.665426 34.467669 
L 357.296663 34.467669 
L 360.927899 29.046476 
L 364.559136 29.046476 
L 368.190372 23.940056 
L 371.821608 23.940056 
L 375.452845 23.940056 
L 379.084081 23.940056 
L 382.715318 23.940056 
L 386.346554 15.15787 
L 389.977791 15.15787 
L 393.609027 14.829231 
L 397.240264 14.169974 
L 400.8715 13.886625 
" clip-path="url(#p8ec0e01521)" style="fill: none; stroke: #984ea3; stroke-width: 3; stroke-linecap: square"/>
   </g>
   <g id="patch_3">
    <path d="M 66.0715 343.23316 
L 66.0715 10.59316 
" style="fill: none; stroke: #000000; stroke-linejoin: miter; stroke-linecap: square"/>
   </g>
   <g id="patch_4">
    <path d="M 66.0715 343.23316 
L 400.8715 343.23316 
" style="fill: none; stroke: #000000; stroke-linejoin: miter; stroke-linecap: square"/>
   </g>
   <g id="legend_1">
    <g id="patch_5">
     <path d="M 78.3915 102.17366 
L 213.23225 102.17366 
Q 216.75225 102.17366 216.75225 98.65366 
L 216.75225 22.91316 
Q 216.75225 19.39316 213.23225 19.39316 
L 78.3915 19.39316 
Q 74.8715 19.39316 74.8715 22.91316 
L 74.8715 98.65366 
Q 74.8715 102.17366 78.3915 102.17366 
z
" style="fill: #ffffff; opacity: 0.8; stroke: #cccccc; stroke-width: 0.8; stroke-linejoin: miter"/>
    </g>
    <g id="line2d_15">
     <path d="M 81.9115 33.64641 
L 99.5115 33.64641 
L 117.1115 33.64641 
" style="fill: none; stroke-dasharray: 2,3.3; stroke-dashoffset: 0; stroke: #e41a1c; stroke-width: 2"/>
    </g>
    <g id="text_14">
     <!-- Precision -->
     <g transform="translate(131.1915 39.80641) scale(0.176 -0.176)">
      <defs>
       <path id="DejaVuSans-50" d="M 1259 4147 
L 1259 2394 
L 2053 2394 
Q 2494 2394 2734 2622 
Q 2975 2850 2975 3272 
Q 2975 3691 2734 3919 
Q 2494 4147 2053 4147 
L 1259 4147 
z
M 628 4666 
L 2053 4666 
Q 2838 4666 3239 4311 
Q 3641 3956 3641 3272 
Q 3641 2581 3239 2228 
Q 2838 1875 2053 1875 
L 1259 1875 
L 1259 0 
L 628 0 
L 628 4666 
z
" transform="scale(0.015625)"/>
       <path id="DejaVuSans-69" d="M 603 3500 
L 1178 3500 
L 1178 0 
L 603 0 
L 603 3500 
z
M 603 4863 
L 1178 4863 
L 1178 4134 
L 603 4134 
L 603 4863 
z
" transform="scale(0.015625)"/>
       <path id="DejaVuSans-73" d="M 2834 3397 
L 2834 2853 
Q 2591 2978 2328 3040 
Q 2066 3103 1784 3103 
Q 1356 3103 1142 2972 
Q 928 2841 928 2578 
Q 928 2378 1081 2264 
Q 1234 2150 1697 2047 
L 1894 2003 
Q 2506 1872 2764 1633 
Q 3022 1394 3022 966 
Q 3022 478 2636 193 
Q 2250 -91 1575 -91 
Q 1294 -91 989 -36 
Q 684 19 347 128 
L 347 722 
Q 666 556 975 473 
Q 1284 391 1588 391 
Q 1994 391 2212 530 
Q 2431 669 2431 922 
Q 2431 1156 2273 1281 
Q 2116 1406 1581 1522 
L 1381 1569 
Q 847 1681 609 1914 
Q 372 2147 372 2553 
Q 372 3047 722 3315 
Q 1072 3584 1716 3584 
Q 2034 3584 2315 3537 
Q 2597 3491 2834 3397 
z
" transform="scale(0.015625)"/>
       <path id="DejaVuSans-6e" d="M 3513 2113 
L 3513 0 
L 2938 0 
L 2938 2094 
Q 2938 2591 2744 2837 
Q 2550 3084 2163 3084 
Q 1697 3084 1428 2787 
Q 1159 2491 1159 1978 
L 1159 0 
L 581 0 
L 581 3500 
L 1159 3500 
L 1159 2956 
Q 1366 3272 1645 3428 
Q 1925 3584 2291 3584 
Q 2894 3584 3203 3211 
Q 3513 2838 3513 2113 
z
" transform="scale(0.015625)"/>
      </defs>
      <use xlink:href="#DejaVuSans-50"/>
      <use xlink:href="#DejaVuSans-72" x="58.552734"/>
      <use xlink:href="#DejaVuSans-65" x="97.416016"/>
      <use xlink:href="#DejaVuSans-63" x="158.939453"/>
      <use xlink:href="#DejaVuSans-69" x="213.919922"/>
      <use xlink:href="#DejaVuSans-73" x="241.703125"/>
      <use xlink:href="#DejaVuSans-69" x="293.802734"/>
      <use xlink:href="#DejaVuSans-6f" x="321.585938"/>
      <use xlink:href="#DejaVuSans-6e" x="382.767578"/>
     </g>
    </g>
    <g id="line2d_16">
     <path d="M 81.9115 59.47991 
L 99.5115 59.47991 
L 117.1115 59.47991 
" style="fill: none; stroke-dasharray: 7.4,3.2; stroke-dashoffset: 0; stroke: #377eb8; stroke-width: 2"/>
    </g>
    <g id="text_15">
     <!-- Recall -->
     <g transform="translate(131.1915 65.63991) scale(0.176 -0.176)">
      <defs>
       <path id="DejaVuSans-52" d="M 2841 2188 
Q 3044 2119 3236 1894 
Q 3428 1669 3622 1275 
L 4263 0 
L 3584 0 
L 2988 1197 
Q 2756 1666 2539 1819 
Q 2322 1972 1947 1972 
L 1259 1972 
L 1259 0 
L 628 0 
L 628 4666 
L 2053 4666 
Q 2853 4666 3247 4331 
Q 3641 3997 3641 3322 
Q 3641 2881 3436 2590 
Q 3231 2300 2841 2188 
z
M 1259 4147 
L 1259 2491 
L 2053 2491 
Q 2509 2491 2742 2702 
Q 2975 2913 2975 3322 
Q 2975 3731 2742 3939 
Q 2509 4147 2053 4147 
L 1259 4147 
z
" transform="scale(0.015625)"/>
       <path id="DejaVuSans-6c" d="M 603 4863 
L 1178 4863 
L 1178 0 
L 603 0 
L 603 4863 
z
" transform="scale(0.015625)"/>
      </defs>
      <use xlink:href="#DejaVuSans-52"/>
      <use xlink:href="#DejaVuSans-65" x="64.982422"/>
      <use xlink:href="#DejaVuSans-63" x="126.505859"/>
      <use xlink:href="#DejaVuSans-61" x="181.486328"/>
      <use xlink:href="#DejaVuSans-6c" x="242.765625"/>
      <use xlink:href="#DejaVuSans-6c" x="270.548828"/>
     </g>
    </g>
    <g id="line2d_17">
     <path d="M 81.9115 85.31341 
L 99.5115 85.31341 
L 117.1115 85.31341 
" style="fill: none; stroke: #984ea3; stroke-width: 3; stroke-linecap: square"/>
    </g>
    <g id="text_16">
     <!-- F1 -->
     <g transform="translate(131.1915 91.47341) scale(0.176 -0.176)">
      <defs>
       <path id="DejaVuSans-46" d="M 628 4666 
L 3309 4666 
L 3309 4134 
L 1259 4134 
L 1259 2759 
L 3109 2759 
L 3109 2228 
L 1259 2228 
L 1259 0 
L 628 0 
L 628 4666 
z
" transform="scale(0.015625)"/>
      </defs>
      <use xlink:href="#DejaVuSans-46"/>
      <use xlink:href="#DejaVuSans-31" x="57.519531"/>
     </g>
    </g>
   </g>
  </g>
 </g>
 <defs>
  <clipPath id="p8ec0e01521">
   <rect x="66.0715" y="10.59316" width="334.8" height="332.64"/>
  </clipPath>
 </defs>
</svg>
