<?xml version="1.0" encoding="utf-8" standalone="no"?>
<!DOCTYPE svg PUBLIC "-//W3C//DTD SVG 1.1//EN"
  "http://www.w3.org/Graphics/SVG/1.1/DTD/svg11.dtd">
<svg xmlns:xlink="http://www.w3.org/1999/xlink" width="408.0715pt" height="398.34866pt" viewBox="0 0 408.0715 398.34866" xmlns="http://www.w3.org/2000/svg" version="1.1">
 <metadata>
  <rdf:RDF xmlns:dc="http://purl.org/dc/elements/1.1/" xmlns:cc="http://creativecommons.org/ns#" xmlns:rdf="http://www.w3.org/1999/02/22-rdf-syntax-ns#">
   <cc:Work>
    <dc:type rdf:resource="http://purl.org/dc/dcmitype/StillImage"/>
    <dc:date>2024-09-30T11:39:01.997244</dc:date>
    <dc:format>image/svg+xml</dc:format>
    <dc:creator>
     <cc:Agent>
      <dc:title>Matplotlib v3.8.0, https://matplotlib.org/</dc:title>
     </cc:Agent>
    </dc:creator>
   </cc:Work>
  </rdf:RDF>
 </metadata>
 <defs>
  <style type="text/css">*{stroke-linejoin: round; stroke-linecap: butt}</style>
 </defs>
 <g id="figure_1">
  <g id="patch_1">
   <path d="M 0 398.34866 
L 408.0715 398.34866 
L 408.0715 0 
L 0 0 
z
" style="fill: #ffffff"/>
  </g>
  <g id="axes_1">
   <g id="patch_2">
    <path d="M 66.0715 343.23316 
L 400.8715 343.23316 
L 400.8715 10.59316 
L 66.0715 10.59316 
z
" style="fill: #ffffff"/>
   </g>
   <g id="PolyCollection_1"/>
   <g id="PolyCollection_2"/>
   <g id="PolyCollection_3"/>
   <g id="PolyCollection_4">
    <defs>
     <path id="m91877f2c63" d="M 66.690354 -387.7555 
L 66.690354 -55.1155 
L 69.784624 -55.1155 
L 69.784624 -387.7555 
L 69.784624 -387.7555 
L 66.690354 -387.7555 
z
"/>
    </defs>
    <g clip-path="url(#pdaf8daf300)">
     <use xlink:href="#m91877f2c63" x="0" y="398.34866" style="fill: #1b9e77; fill-opacity: 0.2"/>
    </g>
   </g>
   <g id="PolyCollection_5">
    <defs>
     <path id="m139d58b672" d="M 69.784624 -387.7555 
L 69.784624 -55.1155 
L 72.878894 -55.1155 
L 72.878894 -387.7555 
L 72.878894 -387.7555 
L 69.784624 -387.7555 
z
"/>
    </defs>
    <g clip-path="url(#pdaf8daf300)">
     <use xlink:href="#m139d58b672" x="0" y="398.34866" style="fill: #1b9e77; fill-opacity: 0.2"/>
    </g>
   </g>
   <g id="PolyCollection_6">
    <defs>
     <path id="m8276ca42a7" d="M 72.878894 -387.7555 
L 72.878894 -55.1155 
L 75.973164 -55.1155 
L 75.973164 -387.7555 
L 75.973164 -387.7555 
L 72.878894 -387.7555 
z
"/>
    </defs>
    <g clip-path="url(#pdaf8daf300)">
     <use xlink:href="#m8276ca42a7" x="0" y="398.34866" style="fill: #1b9e77; fill-opacity: 0.2"/>
    </g>
   </g>
   <g id="PolyCollection_7">
    <defs>
     <path id="m097a257cd6" d="M 75.973164 -387.7555 
L 75.973164 -55.1155 
L 79.067433 -55.1155 
L 79.067433 -387.7555 
L 79.067433 -387.7555 
L 75.973164 -387.7555 
z
"/>
    </defs>
    <g clip-path="url(#pdaf8daf300)">
     <use xlink:href="#m097a257cd6" x="0" y="398.34866" style="fill: #d95f02; fill-opacity: 0.2"/>
    </g>
   </g>
   <g id="PolyCollection_8">
    <defs>
     <path id="ma93eb3d212" d="M 79.067433 -387.7555 
L 79.067433 -55.1155 
L 82.161703 -55.1155 
L 82.161703 -387.7555 
L 82.161703 -387.7555 
L 79.067433 -387.7555 
z
"/>
    </defs>
    <g clip-path="url(#pdaf8daf300)">
     <use xlink:href="#ma93eb3d212" x="0" y="398.34866" style="fill: #d95f02; fill-opacity: 0.2"/>
    </g>
   </g>
   <g id="PolyCollection_9">
    <defs>
     <path id="m1e433121c7" d="M 82.161703 -387.7555 
L 82.161703 -55.1155 
L 85.255973 -55.1155 
L 85.255973 -387.7555 
L 85.255973 -387.7555 
L 82.161703 -387.7555 
z
"/>
    </defs>
    <g clip-path="url(#pdaf8daf300)">
     <use xlink:href="#m1e433121c7" x="0" y="398.34866" style="fill: #d95f02; fill-opacity: 0.2"/>
    </g>
   </g>
   <g id="PolyCollection_10">
    <defs>
     <path id="mf1d10f6d98" d="M 85.255973 -387.7555 
L 85.255973 -55.1155 
L 88.350243 -55.1155 
L 88.350243 -387.7555 
L 88.350243 -387.7555 
L 85.255973 -387.7555 
z
"/>
    </defs>
    <g clip-path="url(#pdaf8daf300)">
     <use xlink:href="#mf1d10f6d98" x="0" y="398.34866" style="fill: #d95f02; fill-opacity: 0.2"/>
    </g>
   </g>
   <g id="PolyCollection_11">
    <defs>
     <path id="ma720b8220d" d="M 88.350243 -387.7555 
L 88.350243 -55.1155 
L 91.444513 -55.1155 
L 91.444513 -387.7555 
L 91.444513 -387.7555 
L 88.350243 -387.7555 
z
"/>
    </defs>
    <g clip-path="url(#pdaf8daf300)">
     <use xlink:href="#ma720b8220d" x="0" y="398.34866" style="fill: #d95f02; fill-opacity: 0.2"/>
    </g>
   </g>
   <g id="PolyCollection_12">
    <defs>
     <path id="m0c21f6c751" d="M 91.444513 -387.7555 
L 91.444513 -55.1155 
L 94.538783 -55.1155 
L 94.538783 -387.7555 
L 94.538783 -387.7555 
L 91.444513 -387.7555 
z
"/>
    </defs>
    <g clip-path="url(#pdaf8daf300)">
     <use xlink:href="#m0c21f6c751" x="0" y="398.34866" style="fill: #1b9e77; fill-opacity: 0.2"/>
    </g>
   </g>
   <g id="PolyCollection_13">
    <defs>
     <path id="m2833cff8f2" d="M 94.538783 -387.7555 
L 94.538783 -55.1155 
L 97.633053 -55.1155 
L 97.633053 -387.7555 
L 97.633053 -387.7555 
L 94.538783 -387.7555 
z
"/>
    </defs>
    <g clip-path="url(#pdaf8daf300)">
     <use xlink:href="#m2833cff8f2" x="0" y="398.34866" style="fill: #1b9e77; fill-opacity: 0.2"/>
    </g>
   </g>
   <g id="PolyCollection_14">
    <defs>
     <path id="m2a23f6cffc" d="M 97.633053 -387.7555 
L 97.633053 -55.1155 
L 100.727323 -55.1155 
L 100.727323 -387.7555 
L 100.727323 -387.7555 
L 97.633053 -387.7555 
z
"/>
    </defs>
    <g clip-path="url(#pdaf8daf300)">
     <use xlink:href="#m2a23f6cffc" x="0" y="398.34866" style="fill: #d95f02; fill-opacity: 0.2"/>
    </g>
   </g>
   <g id="PolyCollection_15">
    <defs>
     <path id="mbf6e1c03a5" d="M 100.727323 -387.7555 
L 100.727323 -55.1155 
L 103.821592 -55.1155 
L 103.821592 -387.7555 
L 103.821592 -387.7555 
L 100.727323 -387.7555 
z
"/>
    </defs>
    <g clip-path="url(#pdaf8daf300)">
     <use xlink:href="#mbf6e1c03a5" x="0" y="398.34866" style="fill: #d95f02; fill-opacity: 0.2"/>
    </g>
   </g>
   <g id="PolyCollection_16">
    <defs>
     <path id="mf5e305eb4b" d="M 103.821592 -387.7555 
L 103.821592 -55.1155 
L 106.915862 -55.1155 
L 106.915862 -387.7555 
L 106.915862 -387.7555 
L 103.821592 -387.7555 
z
"/>
    </defs>
    <g clip-path="url(#pdaf8daf300)">
     <use xlink:href="#mf5e305eb4b" x="0" y="398.34866" style="fill: #1b9e77; fill-opacity: 0.2"/>
    </g>
   </g>
   <g id="PolyCollection_17">
    <defs>
     <path id="maee7faa974" d="M 106.915862 -387.7555 
L 106.915862 -55.1155 
L 110.010132 -55.1155 
L 110.010132 -387.7555 
L 110.010132 -387.7555 
L 106.915862 -387.7555 
z
"/>
    </defs>
    <g clip-path="url(#pdaf8daf300)">
     <use xlink:href="#maee7faa974" x="0" y="398.34866" style="fill: #d95f02; fill-opacity: 0.2"/>
    </g>
   </g>
   <g id="PolyCollection_18">
    <defs>
     <path id="m2caca62811" d="M 110.010132 -387.7555 
L 110.010132 -55.1155 
L 113.104402 -55.1155 
L 113.104402 -387.7555 
L 113.104402 -387.7555 
L 110.010132 -387.7555 
z
"/>
    </defs>
    <g clip-path="url(#pdaf8daf300)">
     <use xlink:href="#m2caca62811" x="0" y="398.34866" style="fill: #1b9e77; fill-opacity: 0.2"/>
    </g>
   </g>
   <g id="PolyCollection_19">
    <defs>
     <path id="m96e7d98d1a" d="M 113.104402 -387.7555 
L 113.104402 -55.1155 
L 116.198672 -55.1155 
L 116.198672 -387.7555 
L 116.198672 -387.7555 
L 113.104402 -387.7555 
z
"/>
    </defs>
    <g clip-path="url(#pdaf8daf300)">
     <use xlink:href="#m96e7d98d1a" x="0" y="398.34866" style="fill: #1b9e77; fill-opacity: 0.2"/>
    </g>
   </g>
   <g id="PolyCollection_20">
    <defs>
     <path id="m6fca13ee42" d="M 116.198672 -387.7555 
L 116.198672 -55.1155 
L 119.292942 -55.1155 
L 119.292942 -387.7555 
L 119.292942 -387.7555 
L 116.198672 -387.7555 
z
"/>
    </defs>
    <g clip-path="url(#pdaf8daf300)">
     <use xlink:href="#m6fca13ee42" x="0" y="398.34866" style="fill: #d95f02; fill-opacity: 0.2"/>
    </g>
   </g>
   <g id="PolyCollection_21">
    <defs>
     <path id="m97bbd08054" d="M 119.292942 -387.7555 
L 119.292942 -55.1155 
L 122.387212 -55.1155 
L 122.387212 -387.7555 
L 122.387212 -387.7555 
L 119.292942 -387.7555 
z
"/>
    </defs>
    <g clip-path="url(#pdaf8daf300)">
     <use xlink:href="#m97bbd08054" x="0" y="398.34866" style="fill: #d95f02; fill-opacity: 0.2"/>
    </g>
   </g>
   <g id="PolyCollection_22">
    <defs>
     <path id="mbc39fd6776" d="M 122.387212 -387.7555 
L 122.387212 -55.1155 
L 125.481482 -55.1155 
L 125.481482 -387.7555 
L 125.481482 -387.7555 
L 122.387212 -387.7555 
z
"/>
    </defs>
    <g clip-path="url(#pdaf8daf300)">
     <use xlink:href="#mbc39fd6776" x="0" y="398.34866" style="fill: #d95f02; fill-opacity: 0.2"/>
    </g>
   </g>
   <g id="PolyCollection_23">
    <defs>
     <path id="m507315bae3" d="M 125.481482 -387.7555 
L 125.481482 -55.1155 
L 128.575751 -55.1155 
L 128.575751 -387.7555 
L 128.575751 -387.7555 
L 125.481482 -387.7555 
z
"/>
    </defs>
    <g clip-path="url(#pdaf8daf300)">
     <use xlink:href="#m507315bae3" x="0" y="398.34866" style="fill: #d95f02; fill-opacity: 0.2"/>
    </g>
   </g>
   <g id="PolyCollection_24">
    <defs>
     <path id="m18697c492d" d="M 128.575751 -387.7555 
L 128.575751 -55.1155 
L 131.670021 -55.1155 
L 131.670021 -387.7555 
L 131.670021 -387.7555 
L 128.575751 -387.7555 
z
"/>
    </defs>
    <g clip-path="url(#pdaf8daf300)">
     <use xlink:href="#m18697c492d" x="0" y="398.34866" style="fill: #d95f02; fill-opacity: 0.2"/>
    </g>
   </g>
   <g id="PolyCollection_25">
    <defs>
     <path id="m34f5031a07" d="M 131.670021 -387.7555 
L 131.670021 -55.1155 
L 134.764291 -55.1155 
L 134.764291 -387.7555 
L 134.764291 -387.7555 
L 131.670021 -387.7555 
z
"/>
    </defs>
    <g clip-path="url(#pdaf8daf300)">
     <use xlink:href="#m34f5031a07" x="0" y="398.34866" style="fill: #d95f02; fill-opacity: 0.2"/>
    </g>
   </g>
   <g id="PolyCollection_26">
    <defs>
     <path id="mf276781eb7" d="M 134.764291 -387.7555 
L 134.764291 -55.1155 
L 137.858561 -55.1155 
L 137.858561 -387.7555 
L 137.858561 -387.7555 
L 134.764291 -387.7555 
z
"/>
    </defs>
    <g clip-path="url(#pdaf8daf300)">
     <use xlink:href="#mf276781eb7" x="0" y="398.34866" style="fill: #d95f02; fill-opacity: 0.2"/>
    </g>
   </g>
   <g id="PolyCollection_27">
    <defs>
     <path id="mf30fac879f" d="M 137.858561 -387.7555 
L 137.858561 -55.1155 
L 140.952831 -55.1155 
L 140.952831 -387.7555 
L 140.952831 -387.7555 
L 137.858561 -387.7555 
z
"/>
    </defs>
    <g clip-path="url(#pdaf8daf300)">
     <use xlink:href="#mf30fac879f" x="0" y="398.34866" style="fill: #d95f02; fill-opacity: 0.2"/>
    </g>
   </g>
   <g id="PolyCollection_28">
    <defs>
     <path id="ma7a3f89ab6" d="M 140.952831 -387.7555 
L 140.952831 -55.1155 
L 144.047101 -55.1155 
L 144.047101 -387.7555 
L 144.047101 -387.7555 
L 140.952831 -387.7555 
z
"/>
    </defs>
    <g clip-path="url(#pdaf8daf300)">
     <use xlink:href="#ma7a3f89ab6" x="0" y="398.34866" style="fill: #d95f02; fill-opacity: 0.2"/>
    </g>
   </g>
   <g id="PolyCollection_29">
    <defs>
     <path id="m0b2a03e8d4" d="M 144.047101 -387.7555 
L 144.047101 -55.1155 
L 147.141371 -55.1155 
L 147.141371 -387.7555 
L 147.141371 -387.7555 
L 144.047101 -387.7555 
z
"/>
    </defs>
    <g clip-path="url(#pdaf8daf300)">
     <use xlink:href="#m0b2a03e8d4" x="0" y="398.34866" style="fill: #d95f02; fill-opacity: 0.2"/>
    </g>
   </g>
   <g id="PolyCollection_30">
    <defs>
     <path id="m666fd43b14" d="M 147.141371 -387.7555 
L 147.141371 -55.1155 
L 150.23564 -55.1155 
L 150.23564 -387.7555 
L 150.23564 -387.7555 
L 147.141371 -387.7555 
z
"/>
    </defs>
    <g clip-path="url(#pdaf8daf300)">
     <use xlink:href="#m666fd43b14" x="0" y="398.34866" style="fill: #d95f02; fill-opacity: 0.2"/>
    </g>
   </g>
   <g id="PolyCollection_31">
    <defs>
     <path id="m9572de9840" d="M 150.23564 -387.7555 
L 150.23564 -55.1155 
L 153.32991 -55.1155 
L 153.32991 -387.7555 
L 153.32991 -387.7555 
L 150.23564 -387.7555 
z
"/>
    </defs>
    <g clip-path="url(#pdaf8daf300)">
     <use xlink:href="#m9572de9840" x="0" y="398.34866" style="fill: #d95f02; fill-opacity: 0.2"/>
    </g>
   </g>
   <g id="PolyCollection_32">
    <defs>
     <path id="m750b9df544" d="M 153.32991 -387.7555 
L 153.32991 -55.1155 
L 156.42418 -55.1155 
L 156.42418 -387.7555 
L 156.42418 -387.7555 
L 153.32991 -387.7555 
z
"/>
    </defs>
    <g clip-path="url(#pdaf8daf300)">
     <use xlink:href="#m750b9df544" x="0" y="398.34866" style="fill: #d95f02; fill-opacity: 0.2"/>
    </g>
   </g>
   <g id="PolyCollection_33">
    <defs>
     <path id="m040db7ccd7" d="M 156.42418 -387.7555 
L 156.42418 -55.1155 
L 159.51845 -55.1155 
L 159.51845 -387.7555 
L 159.51845 -387.7555 
L 156.42418 -387.7555 
z
"/>
    </defs>
    <g clip-path="url(#pdaf8daf300)">
     <use xlink:href="#m040db7ccd7" x="0" y="398.34866" style="fill: #d95f02; fill-opacity: 0.2"/>
    </g>
   </g>
   <g id="PolyCollection_34">
    <defs>
     <path id="mdc117393b8" d="M 159.51845 -387.7555 
L 159.51845 -55.1155 
L 162.61272 -55.1155 
L 162.61272 -387.7555 
L 162.61272 -387.7555 
L 159.51845 -387.7555 
z
"/>
    </defs>
    <g clip-path="url(#pdaf8daf300)">
     <use xlink:href="#mdc117393b8" x="0" y="398.34866" style="fill: #d95f02; fill-opacity: 0.2"/>
    </g>
   </g>
   <g id="PolyCollection_35">
    <defs>
     <path id="md4a60dbcad" d="M 162.61272 -387.7555 
L 162.61272 -55.1155 
L 165.70699 -55.1155 
L 165.70699 -387.7555 
L 165.70699 -387.7555 
L 162.61272 -387.7555 
z
"/>
    </defs>
    <g clip-path="url(#pdaf8daf300)">
     <use xlink:href="#md4a60dbcad" x="0" y="398.34866" style="fill: #d95f02; fill-opacity: 0.2"/>
    </g>
   </g>
   <g id="PolyCollection_36">
    <defs>
     <path id="m918e076d82" d="M 165.70699 -387.7555 
L 165.70699 -55.1155 
L 168.80126 -55.1155 
L 168.80126 -387.7555 
L 168.80126 -387.7555 
L 165.70699 -387.7555 
z
"/>
    </defs>
    <g clip-path="url(#pdaf8daf300)">
     <use xlink:href="#m918e076d82" x="0" y="398.34866" style="fill: #d95f02; fill-opacity: 0.2"/>
    </g>
   </g>
   <g id="PolyCollection_37">
    <defs>
     <path id="m27b2a35733" d="M 168.80126 -387.7555 
L 168.80126 -55.1155 
L 171.89553 -55.1155 
L 171.89553 -387.7555 
L 171.89553 -387.7555 
L 168.80126 -387.7555 
z
"/>
    </defs>
    <g clip-path="url(#pdaf8daf300)">
     <use xlink:href="#m27b2a35733" x="0" y="398.34866" style="fill: #d95f02; fill-opacity: 0.2"/>
    </g>
   </g>
   <g id="PolyCollection_38">
    <defs>
     <path id="m4d2c4c185f" d="M 171.89553 -387.7555 
L 171.89553 -55.1155 
L 174.989799 -55.1155 
L 174.989799 -387.7555 
L 174.989799 -387.7555 
L 171.89553 -387.7555 
z
"/>
    </defs>
    <g clip-path="url(#pdaf8daf300)">
     <use xlink:href="#m4d2c4c185f" x="0" y="398.34866" style="fill: #d95f02; fill-opacity: 0.2"/>
    </g>
   </g>
   <g id="PolyCollection_39">
    <defs>
     <path id="m1afb014fc1" d="M 174.989799 -387.7555 
L 174.989799 -55.1155 
L 178.084069 -55.1155 
L 178.084069 -387.7555 
L 178.084069 -387.7555 
L 174.989799 -387.7555 
z
"/>
    </defs>
    <g clip-path="url(#pdaf8daf300)">
     <use xlink:href="#m1afb014fc1" x="0" y="398.34866" style="fill: #d95f02; fill-opacity: 0.2"/>
    </g>
   </g>
   <g id="PolyCollection_40">
    <defs>
     <path id="m158603f810" d="M 178.084069 -387.7555 
L 178.084069 -55.1155 
L 181.178339 -55.1155 
L 181.178339 -387.7555 
L 181.178339 -387.7555 
L 178.084069 -387.7555 
z
"/>
    </defs>
    <g clip-path="url(#pdaf8daf300)">
     <use xlink:href="#m158603f810" x="0" y="398.34866" style="fill: #d95f02; fill-opacity: 0.2"/>
    </g>
   </g>
   <g id="PolyCollection_41">
    <defs>
     <path id="mf5a189e17d" d="M 181.178339 -387.7555 
L 181.178339 -55.1155 
L 184.272609 -55.1155 
L 184.272609 -387.7555 
L 184.272609 -387.7555 
L 181.178339 -387.7555 
z
"/>
    </defs>
    <g clip-path="url(#pdaf8daf300)">
     <use xlink:href="#mf5a189e17d" x="0" y="398.34866" style="fill: #d95f02; fill-opacity: 0.2"/>
    </g>
   </g>
   <g id="PolyCollection_42">
    <defs>
     <path id="mdea9da2c74" d="M 184.272609 -387.7555 
L 184.272609 -55.1155 
L 187.366879 -55.1155 
L 187.366879 -387.7555 
L 187.366879 -387.7555 
L 184.272609 -387.7555 
z
"/>
    </defs>
    <g clip-path="url(#pdaf8daf300)">
     <use xlink:href="#mdea9da2c74" x="0" y="398.34866" style="fill: #1b9e77; fill-opacity: 0.2"/>
    </g>
   </g>
   <g id="PolyCollection_43">
    <defs>
     <path id="m81147bb7b6" d="M 187.366879 -387.7555 
L 187.366879 -55.1155 
L 190.461149 -55.1155 
L 190.461149 -387.7555 
L 190.461149 -387.7555 
L 187.366879 -387.7555 
z
"/>
    </defs>
    <g clip-path="url(#pdaf8daf300)">
     <use xlink:href="#m81147bb7b6" x="0" y="398.34866" style="fill: #d95f02; fill-opacity: 0.2"/>
    </g>
   </g>
   <g id="PolyCollection_44">
    <defs>
     <path id="m89ccbeead2" d="M 190.461149 -387.7555 
L 190.461149 -55.1155 
L 193.555419 -55.1155 
L 193.555419 -387.7555 
L 193.555419 -387.7555 
L 190.461149 -387.7555 
z
"/>
    </defs>
    <g clip-path="url(#pdaf8daf300)">
     <use xlink:href="#m89ccbeead2" x="0" y="398.34866" style="fill: #d95f02; fill-opacity: 0.2"/>
    </g>
   </g>
   <g id="PolyCollection_45">
    <defs>
     <path id="mc03ae36b2b" d="M 193.555419 -387.7555 
L 193.555419 -55.1155 
L 196.649689 -55.1155 
L 196.649689 -387.7555 
L 196.649689 -387.7555 
L 193.555419 -387.7555 
z
"/>
    </defs>
    <g clip-path="url(#pdaf8daf300)">
     <use xlink:href="#mc03ae36b2b" x="0" y="398.34866" style="fill: #1b9e77; fill-opacity: 0.2"/>
    </g>
   </g>
   <g id="PolyCollection_46">
    <defs>
     <path id="mfa71f7df9a" d="M 196.649689 -387.7555 
L 196.649689 -55.1155 
L 199.743958 -55.1155 
L 199.743958 -387.7555 
L 199.743958 -387.7555 
L 196.649689 -387.7555 
z
"/>
    </defs>
    <g clip-path="url(#pdaf8daf300)">
     <use xlink:href="#mfa71f7df9a" x="0" y="398.34866" style="fill: #1b9e77; fill-opacity: 0.2"/>
    </g>
   </g>
   <g id="PolyCollection_47">
    <defs>
     <path id="m80eb9009c8" d="M 199.743958 -387.7555 
L 199.743958 -55.1155 
L 202.838228 -55.1155 
L 202.838228 -387.7555 
L 202.838228 -387.7555 
L 199.743958 -387.7555 
z
"/>
    </defs>
    <g clip-path="url(#pdaf8daf300)">
     <use xlink:href="#m80eb9009c8" x="0" y="398.34866" style="fill: #d95f02; fill-opacity: 0.2"/>
    </g>
   </g>
   <g id="PolyCollection_48">
    <defs>
     <path id="m4b242c6ac7" d="M 202.838228 -387.7555 
L 202.838228 -55.1155 
L 205.932498 -55.1155 
L 205.932498 -387.7555 
L 205.932498 -387.7555 
L 202.838228 -387.7555 
z
"/>
    </defs>
    <g clip-path="url(#pdaf8daf300)">
     <use xlink:href="#m4b242c6ac7" x="0" y="398.34866" style="fill: #1b9e77; fill-opacity: 0.2"/>
    </g>
   </g>
   <g id="PolyCollection_49">
    <defs>
     <path id="m16d0c02ec7" d="M 205.932498 -387.7555 
L 205.932498 -55.1155 
L 209.026768 -55.1155 
L 209.026768 -387.7555 
L 209.026768 -387.7555 
L 205.932498 -387.7555 
z
"/>
    </defs>
    <g clip-path="url(#pdaf8daf300)">
     <use xlink:href="#m16d0c02ec7" x="0" y="398.34866" style="fill: #d95f02; fill-opacity: 0.2"/>
    </g>
   </g>
   <g id="PolyCollection_50">
    <defs>
     <path id="m9f0adac088" d="M 209.026768 -387.7555 
L 209.026768 -55.1155 
L 212.121038 -55.1155 
L 212.121038 -387.7555 
L 212.121038 -387.7555 
L 209.026768 -387.7555 
z
"/>
    </defs>
    <g clip-path="url(#pdaf8daf300)">
     <use xlink:href="#m9f0adac088" x="0" y="398.34866" style="fill: #d95f02; fill-opacity: 0.2"/>
    </g>
   </g>
   <g id="PolyCollection_51">
    <defs>
     <path id="m8f2adbbb9b" d="M 212.121038 -387.7555 
L 212.121038 -55.1155 
L 215.215308 -55.1155 
L 215.215308 -387.7555 
L 215.215308 -387.7555 
L 212.121038 -387.7555 
z
"/>
    </defs>
    <g clip-path="url(#pdaf8daf300)">
     <use xlink:href="#m8f2adbbb9b" x="0" y="398.34866" style="fill: #1b9e77; fill-opacity: 0.2"/>
    </g>
   </g>
   <g id="PolyCollection_52">
    <defs>
     <path id="ma02e8e8897" d="M 215.215308 -387.7555 
L 215.215308 -55.1155 
L 218.309578 -55.1155 
L 218.309578 -387.7555 
L 218.309578 -387.7555 
L 215.215308 -387.7555 
z
"/>
    </defs>
    <g clip-path="url(#pdaf8daf300)">
     <use xlink:href="#ma02e8e8897" x="0" y="398.34866" style="fill: #d95f02; fill-opacity: 0.2"/>
    </g>
   </g>
   <g id="PolyCollection_53">
    <defs>
     <path id="mb01493b3ea" d="M 218.309578 -387.7555 
L 218.309578 -55.1155 
L 221.403848 -55.1155 
L 221.403848 -387.7555 
L 221.403848 -387.7555 
L 218.309578 -387.7555 
z
"/>
    </defs>
    <g clip-path="url(#pdaf8daf300)">
     <use xlink:href="#mb01493b3ea" x="0" y="398.34866" style="fill: #1b9e77; fill-opacity: 0.2"/>
    </g>
   </g>
   <g id="PolyCollection_54">
    <defs>
     <path id="mc815e7e096" d="M 221.403848 -387.7555 
L 221.403848 -55.1155 
L 224.498117 -55.1155 
L 224.498117 -387.7555 
L 224.498117 -387.7555 
L 221.403848 -387.7555 
z
"/>
    </defs>
    <g clip-path="url(#pdaf8daf300)">
     <use xlink:href="#mc815e7e096" x="0" y="398.34866" style="fill: #d95f02; fill-opacity: 0.2"/>
    </g>
   </g>
   <g id="PolyCollection_55">
    <defs>
     <path id="mb070af04f9" d="M 224.498117 -387.7555 
L 224.498117 -55.1155 
L 227.592387 -55.1155 
L 227.592387 -387.7555 
L 227.592387 -387.7555 
L 224.498117 -387.7555 
z
"/>
    </defs>
    <g clip-path="url(#pdaf8daf300)">
     <use xlink:href="#mb070af04f9" x="0" y="398.34866" style="fill: #d95f02; fill-opacity: 0.2"/>
    </g>
   </g>
   <g id="PolyCollection_56">
    <defs>
     <path id="mcad2cffc3b" d="M 227.592387 -387.7555 
L 227.592387 -55.1155 
L 230.686657 -55.1155 
L 230.686657 -387.7555 
L 230.686657 -387.7555 
L 227.592387 -387.7555 
z
"/>
    </defs>
    <g clip-path="url(#pdaf8daf300)">
     <use xlink:href="#mcad2cffc3b" x="0" y="398.34866" style="fill: #d95f02; fill-opacity: 0.2"/>
    </g>
   </g>
   <g id="PolyCollection_57">
    <defs>
     <path id="m22cb2eee45" d="M 230.686657 -387.7555 
L 230.686657 -55.1155 
L 233.780927 -55.1155 
L 233.780927 -387.7555 
L 233.780927 -387.7555 
L 230.686657 -387.7555 
z
"/>
    </defs>
    <g clip-path="url(#pdaf8daf300)">
     <use xlink:href="#m22cb2eee45" x="0" y="398.34866" style="fill: #d95f02; fill-opacity: 0.2"/>
    </g>
   </g>
   <g id="PolyCollection_58">
    <defs>
     <path id="m4176b00eae" d="M 233.780927 -387.7555 
L 233.780927 -55.1155 
L 236.875197 -55.1155 
L 236.875197 -387.7555 
L 236.875197 -387.7555 
L 233.780927 -387.7555 
z
"/>
    </defs>
    <g clip-path="url(#pdaf8daf300)">
     <use xlink:href="#m4176b00eae" x="0" y="398.34866" style="fill: #d95f02; fill-opacity: 0.2"/>
    </g>
   </g>
   <g id="PolyCollection_59">
    <defs>
     <path id="m76b6b44b7b" d="M 236.875197 -387.7555 
L 236.875197 -55.1155 
L 239.969467 -55.1155 
L 239.969467 -387.7555 
L 239.969467 -387.7555 
L 236.875197 -387.7555 
z
"/>
    </defs>
    <g clip-path="url(#pdaf8daf300)">
     <use xlink:href="#m76b6b44b7b" x="0" y="398.34866" style="fill: #1b9e77; fill-opacity: 0.2"/>
    </g>
   </g>
   <g id="PolyCollection_60">
    <defs>
     <path id="me487c5a104" d="M 239.969467 -387.7555 
L 239.969467 -55.1155 
L 243.063737 -55.1155 
L 243.063737 -387.7555 
L 243.063737 -387.7555 
L 239.969467 -387.7555 
z
"/>
    </defs>
    <g clip-path="url(#pdaf8daf300)">
     <use xlink:href="#me487c5a104" x="0" y="398.34866" style="fill: #1b9e77; fill-opacity: 0.2"/>
    </g>
   </g>
   <g id="PolyCollection_61">
    <defs>
     <path id="m26d6f4e2f4" d="M 243.063737 -387.7555 
L 243.063737 -55.1155 
L 246.158006 -55.1155 
L 246.158006 -387.7555 
L 246.158006 -387.7555 
L 243.063737 -387.7555 
z
"/>
    </defs>
    <g clip-path="url(#pdaf8daf300)">
     <use xlink:href="#m26d6f4e2f4" x="0" y="398.34866" style="fill: #1b9e77; fill-opacity: 0.2"/>
    </g>
   </g>
   <g id="PolyCollection_62">
    <defs>
     <path id="m06f8f92165" d="M 246.158006 -387.7555 
L 246.158006 -55.1155 
L 249.252276 -55.1155 
L 249.252276 -387.7555 
L 249.252276 -387.7555 
L 246.158006 -387.7555 
z
"/>
    </defs>
    <g clip-path="url(#pdaf8daf300)">
     <use xlink:href="#m06f8f92165" x="0" y="398.34866" style="fill: #1b9e77; fill-opacity: 0.2"/>
    </g>
   </g>
   <g id="PolyCollection_63">
    <defs>
     <path id="mb6ab71db7b" d="M 249.252276 -387.7555 
L 249.252276 -55.1155 
L 252.346546 -55.1155 
L 252.346546 -387.7555 
L 252.346546 -387.7555 
L 249.252276 -387.7555 
z
"/>
    </defs>
    <g clip-path="url(#pdaf8daf300)">
     <use xlink:href="#mb6ab71db7b" x="0" y="398.34866" style="fill: #1b9e77; fill-opacity: 0.2"/>
    </g>
   </g>
   <g id="PolyCollection_64">
    <defs>
     <path id="mdf4a984604" d="M 252.346546 -387.7555 
L 252.346546 -55.1155 
L 255.440816 -55.1155 
L 255.440816 -387.7555 
L 255.440816 -387.7555 
L 252.346546 -387.7555 
z
"/>
    </defs>
    <g clip-path="url(#pdaf8daf300)">
     <use xlink:href="#mdf4a984604" x="0" y="398.34866" style="fill: #d95f02; fill-opacity: 0.2"/>
    </g>
   </g>
   <g id="PolyCollection_65">
    <defs>
     <path id="m10a200a2c0" d="M 255.440816 -387.7555 
L 255.440816 -55.1155 
L 258.535086 -55.1155 
L 258.535086 -387.7555 
L 258.535086 -387.7555 
L 255.440816 -387.7555 
z
"/>
    </defs>
    <g clip-path="url(#pdaf8daf300)">
     <use xlink:href="#m10a200a2c0" x="0" y="398.34866" style="fill: #d95f02; fill-opacity: 0.2"/>
    </g>
   </g>
   <g id="PolyCollection_66">
    <defs>
     <path id="mf4962d383a" d="M 258.535086 -387.7555 
L 258.535086 -55.1155 
L 261.629356 -55.1155 
L 261.629356 -387.7555 
L 261.629356 -387.7555 
L 258.535086 -387.7555 
z
"/>
    </defs>
    <g clip-path="url(#pdaf8daf300)">
     <use xlink:href="#mf4962d383a" x="0" y="398.34866" style="fill: #1b9e77; fill-opacity: 0.2"/>
    </g>
   </g>
   <g id="PolyCollection_67">
    <defs>
     <path id="mbf09846fde" d="M 261.629356 -387.7555 
L 261.629356 -55.1155 
L 264.723626 -55.1155 
L 264.723626 -387.7555 
L 264.723626 -387.7555 
L 261.629356 -387.7555 
z
"/>
    </defs>
    <g clip-path="url(#pdaf8daf300)">
     <use xlink:href="#mbf09846fde" x="0" y="398.34866" style="fill: #d95f02; fill-opacity: 0.2"/>
    </g>
   </g>
   <g id="PolyCollection_68">
    <defs>
     <path id="m7eace22a84" d="M 264.723626 -387.7555 
L 264.723626 -55.1155 
L 267.817896 -55.1155 
L 267.817896 -387.7555 
L 267.817896 -387.7555 
L 264.723626 -387.7555 
z
"/>
    </defs>
    <g clip-path="url(#pdaf8daf300)">
     <use xlink:href="#m7eace22a84" x="0" y="398.34866" style="fill: #d95f02; fill-opacity: 0.2"/>
    </g>
   </g>
   <g id="PolyCollection_69">
    <defs>
     <path id="m0b36e71ce6" d="M 267.817896 -387.7555 
L 267.817896 -55.1155 
L 270.912165 -55.1155 
L 270.912165 -387.7555 
L 270.912165 -387.7555 
L 267.817896 -387.7555 
z
"/>
    </defs>
    <g clip-path="url(#pdaf8daf300)">
     <use xlink:href="#m0b36e71ce6" x="0" y="398.34866" style="fill: #1b9e77; fill-opacity: 0.2"/>
    </g>
   </g>
   <g id="PolyCollection_70">
    <defs>
     <path id="ma0ae852587" d="M 270.912165 -387.7555 
L 270.912165 -55.1155 
L 274.006435 -55.1155 
L 274.006435 -387.7555 
L 274.006435 -387.7555 
L 270.912165 -387.7555 
z
"/>
    </defs>
    <g clip-path="url(#pdaf8daf300)">
     <use xlink:href="#ma0ae852587" x="0" y="398.34866" style="fill: #d95f02; fill-opacity: 0.2"/>
    </g>
   </g>
   <g id="PolyCollection_71">
    <defs>
     <path id="m8c1a5a55f4" d="M 274.006435 -387.7555 
L 274.006435 -55.1155 
L 277.100705 -55.1155 
L 277.100705 -387.7555 
L 277.100705 -387.7555 
L 274.006435 -387.7555 
z
"/>
    </defs>
    <g clip-path="url(#pdaf8daf300)">
     <use xlink:href="#m8c1a5a55f4" x="0" y="398.34866" style="fill: #1b9e77; fill-opacity: 0.2"/>
    </g>
   </g>
   <g id="PolyCollection_72">
    <defs>
     <path id="m8fd711367b" d="M 277.100705 -387.7555 
L 277.100705 -55.1155 
L 280.194975 -55.1155 
L 280.194975 -387.7555 
L 280.194975 -387.7555 
L 277.100705 -387.7555 
z
"/>
    </defs>
    <g clip-path="url(#pdaf8daf300)">
     <use xlink:href="#m8fd711367b" x="0" y="398.34866" style="fill: #d95f02; fill-opacity: 0.2"/>
    </g>
   </g>
   <g id="PolyCollection_73">
    <defs>
     <path id="m3fc5d30b1a" d="M 280.194975 -387.7555 
L 280.194975 -55.1155 
L 283.289245 -55.1155 
L 283.289245 -387.7555 
L 283.289245 -387.7555 
L 280.194975 -387.7555 
z
"/>
    </defs>
    <g clip-path="url(#pdaf8daf300)">
     <use xlink:href="#m3fc5d30b1a" x="0" y="398.34866" style="fill: #1b9e77; fill-opacity: 0.2"/>
    </g>
   </g>
   <g id="PolyCollection_74">
    <defs>
     <path id="m9ba991499d" d="M 283.289245 -387.7555 
L 283.289245 -55.1155 
L 286.383515 -55.1155 
L 286.383515 -387.7555 
L 286.383515 -387.7555 
L 283.289245 -387.7555 
z
"/>
    </defs>
    <g clip-path="url(#pdaf8daf300)">
     <use xlink:href="#m9ba991499d" x="0" y="398.34866" style="fill: #1b9e77; fill-opacity: 0.2"/>
    </g>
   </g>
   <g id="PolyCollection_75">
    <defs>
     <path id="m97ff8b9b94" d="M 286.383515 -387.7555 
L 286.383515 -55.1155 
L 289.477785 -55.1155 
L 289.477785 -387.7555 
L 289.477785 -387.7555 
L 286.383515 -387.7555 
z
"/>
    </defs>
    <g clip-path="url(#pdaf8daf300)">
     <use xlink:href="#m97ff8b9b94" x="0" y="398.34866" style="fill: #d95f02; fill-opacity: 0.2"/>
    </g>
   </g>
   <g id="PolyCollection_76">
    <defs>
     <path id="m19c2898214" d="M 289.477785 -387.7555 
L 289.477785 -55.1155 
L 292.572055 -55.1155 
L 292.572055 -387.7555 
L 292.572055 -387.7555 
L 289.477785 -387.7555 
z
"/>
    </defs>
    <g clip-path="url(#pdaf8daf300)">
     <use xlink:href="#m19c2898214" x="0" y="398.34866" style="fill: #d95f02; fill-opacity: 0.2"/>
    </g>
   </g>
   <g id="PolyCollection_77">
    <defs>
     <path id="m1408c014a0" d="M 292.572055 -387.7555 
L 292.572055 -55.1155 
L 295.666324 -55.1155 
L 295.666324 -387.7555 
L 295.666324 -387.7555 
L 292.572055 -387.7555 
z
"/>
    </defs>
    <g clip-path="url(#pdaf8daf300)">
     <use xlink:href="#m1408c014a0" x="0" y="398.34866" style="fill: #d95f02; fill-opacity: 0.2"/>
    </g>
   </g>
   <g id="PolyCollection_78">
    <defs>
     <path id="m754dc79f71" d="M 295.666324 -387.7555 
L 295.666324 -55.1155 
L 298.760594 -55.1155 
L 298.760594 -387.7555 
L 298.760594 -387.7555 
L 295.666324 -387.7555 
z
"/>
    </defs>
    <g clip-path="url(#pdaf8daf300)">
     <use xlink:href="#m754dc79f71" x="0" y="398.34866" style="fill: #1b9e77; fill-opacity: 0.2"/>
    </g>
   </g>
   <g id="PolyCollection_79">
    <defs>
     <path id="mc75a67cae2" d="M 298.760594 -387.7555 
L 298.760594 -55.1155 
L 301.854864 -55.1155 
L 301.854864 -387.7555 
L 301.854864 -387.7555 
L 298.760594 -387.7555 
z
"/>
    </defs>
    <g clip-path="url(#pdaf8daf300)">
     <use xlink:href="#mc75a67cae2" x="0" y="398.34866" style="fill: #1b9e77; fill-opacity: 0.2"/>
    </g>
   </g>
   <g id="PolyCollection_80">
    <defs>
     <path id="ma837de2891" d="M 301.854864 -387.7555 
L 301.854864 -55.1155 
L 304.949134 -55.1155 
L 304.949134 -387.7555 
L 304.949134 -387.7555 
L 301.854864 -387.7555 
z
"/>
    </defs>
    <g clip-path="url(#pdaf8daf300)">
     <use xlink:href="#ma837de2891" x="0" y="398.34866" style="fill: #1b9e77; fill-opacity: 0.2"/>
    </g>
   </g>
   <g id="PolyCollection_81">
    <defs>
     <path id="m9293c218db" d="M 304.949134 -387.7555 
L 304.949134 -55.1155 
L 308.043404 -55.1155 
L 308.043404 -387.7555 
L 308.043404 -387.7555 
L 304.949134 -387.7555 
z
"/>
    </defs>
    <g clip-path="url(#pdaf8daf300)">
     <use xlink:href="#m9293c218db" x="0" y="398.34866" style="fill: #1b9e77; fill-opacity: 0.2"/>
    </g>
   </g>
   <g id="PolyCollection_82">
    <defs>
     <path id="mf3d6c22d29" d="M 308.043404 -387.7555 
L 308.043404 -55.1155 
L 311.137674 -55.1155 
L 311.137674 -387.7555 
L 311.137674 -387.7555 
L 308.043404 -387.7555 
z
"/>
    </defs>
    <g clip-path="url(#pdaf8daf300)">
     <use xlink:href="#mf3d6c22d29" x="0" y="398.34866" style="fill: #1b9e77; fill-opacity: 0.2"/>
    </g>
   </g>
   <g id="PolyCollection_83">
    <defs>
     <path id="m2c8227f47e" d="M 311.137674 -387.7555 
L 311.137674 -55.1155 
L 314.231944 -55.1155 
L 314.231944 -387.7555 
L 314.231944 -387.7555 
L 311.137674 -387.7555 
z
"/>
    </defs>
    <g clip-path="url(#pdaf8daf300)">
     <use xlink:href="#m2c8227f47e" x="0" y="398.34866" style="fill: #d95f02; fill-opacity: 0.2"/>
    </g>
   </g>
   <g id="PolyCollection_84">
    <defs>
     <path id="m2bcd01f4a2" d="M 314.231944 -387.7555 
L 314.231944 -55.1155 
L 317.326213 -55.1155 
L 317.326213 -387.7555 
L 317.326213 -387.7555 
L 314.231944 -387.7555 
z
"/>
    </defs>
    <g clip-path="url(#pdaf8daf300)">
     <use xlink:href="#m2bcd01f4a2" x="0" y="398.34866" style="fill: #1b9e77; fill-opacity: 0.2"/>
    </g>
   </g>
   <g id="PolyCollection_85">
    <defs>
     <path id="m7d520bd813" d="M 317.326213 -387.7555 
L 317.326213 -55.1155 
L 320.420483 -55.1155 
L 320.420483 -387.7555 
L 320.420483 -387.7555 
L 317.326213 -387.7555 
z
"/>
    </defs>
    <g clip-path="url(#pdaf8daf300)">
     <use xlink:href="#m7d520bd813" x="0" y="398.34866" style="fill: #d95f02; fill-opacity: 0.2"/>
    </g>
   </g>
   <g id="PolyCollection_86">
    <defs>
     <path id="mb9e12cdede" d="M 320.420483 -387.7555 
L 320.420483 -55.1155 
L 323.514753 -55.1155 
L 323.514753 -387.7555 
L 323.514753 -387.7555 
L 320.420483 -387.7555 
z
"/>
    </defs>
    <g clip-path="url(#pdaf8daf300)">
     <use xlink:href="#mb9e12cdede" x="0" y="398.34866" style="fill: #d95f02; fill-opacity: 0.2"/>
    </g>
   </g>
   <g id="PolyCollection_87">
    <defs>
     <path id="mf1c07ef05a" d="M 323.514753 -387.7555 
L 323.514753 -55.1155 
L 326.609023 -55.1155 
L 326.609023 -387.7555 
L 326.609023 -387.7555 
L 323.514753 -387.7555 
z
"/>
    </defs>
    <g clip-path="url(#pdaf8daf300)">
     <use xlink:href="#mf1c07ef05a" x="0" y="398.34866" style="fill: #d95f02; fill-opacity: 0.2"/>
    </g>
   </g>
   <g id="PolyCollection_88">
    <defs>
     <path id="ma94c2b795f" d="M 326.609023 -387.7555 
L 326.609023 -55.1155 
L 329.703293 -55.1155 
L 329.703293 -387.7555 
L 329.703293 -387.7555 
L 326.609023 -387.7555 
z
"/>
    </defs>
    <g clip-path="url(#pdaf8daf300)">
     <use xlink:href="#ma94c2b795f" x="0" y="398.34866" style="fill: #d95f02; fill-opacity: 0.2"/>
    </g>
   </g>
   <g id="PolyCollection_89">
    <defs>
     <path id="m25ffd3d319" d="M 329.703293 -387.7555 
L 329.703293 -55.1155 
L 332.797563 -55.1155 
L 332.797563 -387.7555 
L 332.797563 -387.7555 
L 329.703293 -387.7555 
z
"/>
    </defs>
    <g clip-path="url(#pdaf8daf300)">
     <use xlink:href="#m25ffd3d319" x="0" y="398.34866" style="fill: #1b9e77; fill-opacity: 0.2"/>
    </g>
   </g>
   <g id="PolyCollection_90">
    <defs>
     <path id="mab2d3ecc3f" d="M 332.797563 -387.7555 
L 332.797563 -55.1155 
L 335.891833 -55.1155 
L 335.891833 -387.7555 
L 335.891833 -387.7555 
L 332.797563 -387.7555 
z
"/>
    </defs>
    <g clip-path="url(#pdaf8daf300)">
     <use xlink:href="#mab2d3ecc3f" x="0" y="398.34866" style="fill: #1b9e77; fill-opacity: 0.2"/>
    </g>
   </g>
   <g id="PolyCollection_91">
    <defs>
     <path id="m2deef49474" d="M 335.891833 -387.7555 
L 335.891833 -55.1155 
L 338.986103 -55.1155 
L 338.986103 -387.7555 
L 338.986103 -387.7555 
L 335.891833 -387.7555 
z
"/>
    </defs>
    <g clip-path="url(#pdaf8daf300)">
     <use xlink:href="#m2deef49474" x="0" y="398.34866" style="fill: #1b9e77; fill-opacity: 0.2"/>
    </g>
   </g>
   <g id="PolyCollection_92">
    <defs>
     <path id="mf4277387e3" d="M 338.986103 -387.7555 
L 338.986103 -55.1155 
L 342.080372 -55.1155 
L 342.080372 -387.7555 
L 342.080372 -387.7555 
L 338.986103 -387.7555 
z
"/>
    </defs>
    <g clip-path="url(#pdaf8daf300)">
     <use xlink:href="#mf4277387e3" x="0" y="398.34866" style="fill: #d95f02; fill-opacity: 0.2"/>
    </g>
   </g>
   <g id="PolyCollection_93">
    <defs>
     <path id="me89272a08f" d="M 342.080372 -387.7555 
L 342.080372 -55.1155 
L 345.174642 -55.1155 
L 345.174642 -387.7555 
L 345.174642 -387.7555 
L 342.080372 -387.7555 
z
"/>
    </defs>
    <g clip-path="url(#pdaf8daf300)">
     <use xlink:href="#me89272a08f" x="0" y="398.34866" style="fill: #1b9e77; fill-opacity: 0.2"/>
    </g>
   </g>
   <g id="PolyCollection_94">
    <defs>
     <path id="m670b48548f" d="M 345.174642 -387.7555 
L 345.174642 -55.1155 
L 348.268912 -55.1155 
L 348.268912 -387.7555 
L 348.268912 -387.7555 
L 345.174642 -387.7555 
z
"/>
    </defs>
    <g clip-path="url(#pdaf8daf300)">
     <use xlink:href="#m670b48548f" x="0" y="398.34866" style="fill: #d95f02; fill-opacity: 0.2"/>
    </g>
   </g>
   <g id="PolyCollection_95">
    <defs>
     <path id="m30a6c14a04" d="M 348.268912 -387.7555 
L 348.268912 -55.1155 
L 351.363182 -55.1155 
L 351.363182 -387.7555 
L 351.363182 -387.7555 
L 348.268912 -387.7555 
z
"/>
    </defs>
    <g clip-path="url(#pdaf8daf300)">
     <use xlink:href="#m30a6c14a04" x="0" y="398.34866" style="fill: #d95f02; fill-opacity: 0.2"/>
    </g>
   </g>
   <g id="PolyCollection_96">
    <defs>
     <path id="m9cc04419df" d="M 351.363182 -387.7555 
L 351.363182 -55.1155 
L 354.457452 -55.1155 
L 354.457452 -387.7555 
L 354.457452 -387.7555 
L 351.363182 -387.7555 
z
"/>
    </defs>
    <g clip-path="url(#pdaf8daf300)">
     <use xlink:href="#m9cc04419df" x="0" y="398.34866" style="fill: #1b9e77; fill-opacity: 0.2"/>
    </g>
   </g>
   <g id="PolyCollection_97">
    <defs>
     <path id="mf43fc75cad" d="M 354.457452 -387.7555 
L 354.457452 -55.1155 
L 357.551722 -55.1155 
L 357.551722 -387.7555 
L 357.551722 -387.7555 
L 354.457452 -387.7555 
z
"/>
    </defs>
    <g clip-path="url(#pdaf8daf300)">
     <use xlink:href="#mf43fc75cad" x="0" y="398.34866" style="fill: #d95f02; fill-opacity: 0.2"/>
    </g>
   </g>
   <g id="PolyCollection_98">
    <defs>
     <path id="maad3adc7ea" d="M 357.551722 -387.7555 
L 357.551722 -55.1155 
L 360.645992 -55.1155 
L 360.645992 -387.7555 
L 360.645992 -387.7555 
L 357.551722 -387.7555 
z
"/>
    </defs>
    <g clip-path="url(#pdaf8daf300)">
     <use xlink:href="#maad3adc7ea" x="0" y="398.34866" style="fill: #d95f02; fill-opacity: 0.2"/>
    </g>
   </g>
   <g id="PolyCollection_99">
    <defs>
     <path id="m9ad8993da1" d="M 360.645992 -387.7555 
L 360.645992 -55.1155 
L 363.740262 -55.1155 
L 363.740262 -387.7555 
L 363.740262 -387.7555 
L 360.645992 -387.7555 
z
"/>
    </defs>
    <g clip-path="url(#pdaf8daf300)">
     <use xlink:href="#m9ad8993da1" x="0" y="398.34866" style="fill: #d95f02; fill-opacity: 0.2"/>
    </g>
   </g>
   <g id="PolyCollection_100">
    <defs>
     <path id="mdc691d7044" d="M 363.740262 -387.7555 
L 363.740262 -55.1155 
L 366.834531 -55.1155 
L 366.834531 -387.7555 
L 366.834531 -387.7555 
L 363.740262 -387.7555 
z
"/>
    </defs>
    <g clip-path="url(#pdaf8daf300)">
     <use xlink:href="#mdc691d7044" x="0" y="398.34866" style="fill: #d95f02; fill-opacity: 0.2"/>
    </g>
   </g>
   <g id="PolyCollection_101">
    <defs>
     <path id="mf677a58fba" d="M 366.834531 -387.7555 
L 366.834531 -55.1155 
L 369.928801 -55.1155 
L 369.928801 -387.7555 
L 369.928801 -387.7555 
L 366.834531 -387.7555 
z
"/>
    </defs>
    <g clip-path="url(#pdaf8daf300)">
     <use xlink:href="#mf677a58fba" x="0" y="398.34866" style="fill: #1b9e77; fill-opacity: 0.2"/>
    </g>
   </g>
   <g id="PolyCollection_102">
    <defs>
     <path id="m95782777ac" d="M 369.928801 -387.7555 
L 369.928801 -55.1155 
L 373.023071 -55.1155 
L 373.023071 -387.7555 
L 373.023071 -387.7555 
L 369.928801 -387.7555 
z
"/>
    </defs>
    <g clip-path="url(#pdaf8daf300)">
     <use xlink:href="#m95782777ac" x="0" y="398.34866" style="fill: #1b9e77; fill-opacity: 0.2"/>
    </g>
   </g>
   <g id="PolyCollection_103">
    <defs>
     <path id="m22937c3213" d="M 373.023071 -387.7555 
L 373.023071 -55.1155 
L 376.117341 -55.1155 
L 376.117341 -387.7555 
L 376.117341 -387.7555 
L 373.023071 -387.7555 
z
"/>
    </defs>
    <g clip-path="url(#pdaf8daf300)">
     <use xlink:href="#m22937c3213" x="0" y="398.34866" style="fill: #d95f02; fill-opacity: 0.2"/>
    </g>
   </g>
   <g id="PolyCollection_104">
    <defs>
     <path id="m0952868685" d="M 376.117341 -387.7555 
L 376.117341 -55.1155 
L 379.211611 -55.1155 
L 379.211611 -387.7555 
L 379.211611 -387.7555 
L 376.117341 -387.7555 
z
"/>
    </defs>
    <g clip-path="url(#pdaf8daf300)">
     <use xlink:href="#m0952868685" x="0" y="398.34866" style="fill: #d95f02; fill-opacity: 0.2"/>
    </g>
   </g>
   <g id="PolyCollection_105">
    <defs>
     <path id="m36cc8e648b" d="M 379.211611 -387.7555 
L 379.211611 -55.1155 
L 382.305881 -55.1155 
L 382.305881 -387.7555 
L 382.305881 -387.7555 
L 379.211611 -387.7555 
z
"/>
    </defs>
    <g clip-path="url(#pdaf8daf300)">
     <use xlink:href="#m36cc8e648b" x="0" y="398.34866" style="fill: #d95f02; fill-opacity: 0.2"/>
    </g>
   </g>
   <g id="PolyCollection_106">
    <defs>
     <path id="m69d50297d3" d="M 382.305881 -387.7555 
L 382.305881 -55.1155 
L 385.400151 -55.1155 
L 385.400151 -387.7555 
L 385.400151 -387.7555 
L 382.305881 -387.7555 
z
"/>
    </defs>
    <g clip-path="url(#pdaf8daf300)">
     <use xlink:href="#m69d50297d3" x="0" y="398.34866" style="fill: #d95f02; fill-opacity: 0.2"/>
    </g>
   </g>
   <g id="PolyCollection_107">
    <defs>
     <path id="ma71ba15475" d="M 385.400151 -387.7555 
L 385.400151 -55.1155 
L 388.494421 -55.1155 
L 388.494421 -387.7555 
L 388.494421 -387.7555 
L 385.400151 -387.7555 
z
"/>
    </defs>
    <g clip-path="url(#pdaf8daf300)">
     <use xlink:href="#ma71ba15475" x="0" y="398.34866" style="fill: #d95f02; fill-opacity: 0.2"/>
    </g>
   </g>
   <g id="PolyCollection_108">
    <defs>
     <path id="m23bdb17c09" d="M 388.494421 -387.7555 
L 388.494421 -55.1155 
L 391.58869 -55.1155 
L 391.58869 -387.7555 
L 391.58869 -387.7555 
L 388.494421 -387.7555 
z
"/>
    </defs>
    <g clip-path="url(#pdaf8daf300)">
     <use xlink:href="#m23bdb17c09" x="0" y="398.34866" style="fill: #d95f02; fill-opacity: 0.2"/>
    </g>
   </g>
   <g id="PolyCollection_109">
    <defs>
     <path id="m1978433be0" d="M 391.58869 -387.7555 
L 391.58869 -55.1155 
L 394.68296 -55.1155 
L 394.68296 -387.7555 
L 394.68296 -387.7555 
L 391.58869 -387.7555 
z
"/>
    </defs>
    <g clip-path="url(#pdaf8daf300)">
     <use xlink:href="#m1978433be0" x="0" y="398.34866" style="fill: #1b9e77; fill-opacity: 0.2"/>
    </g>
   </g>
   <g id="PolyCollection_110">
    <defs>
     <path id="m287a3864fd" d="M 394.68296 -387.7555 
L 394.68296 -55.1155 
L 397.77723 -55.1155 
L 397.77723 -387.7555 
L 397.77723 -387.7555 
L 394.68296 -387.7555 
z
"/>
    </defs>
    <g clip-path="url(#pdaf8daf300)">
     <use xlink:href="#m287a3864fd" x="0" y="398.34866" style="fill: #1b9e77; fill-opacity: 0.2"/>
    </g>
   </g>
   <g id="PolyCollection_111">
    <defs>
     <path id="m89a4252df0" d="M 397.77723 -387.7555 
L 397.77723 -55.1155 
L 400.8715 -55.1155 
L 400.8715 -387.7555 
L 400.8715 -387.7555 
L 397.77723 -387.7555 
z
"/>
    </defs>
    <g clip-path="url(#pdaf8daf300)">
     <use xlink:href="#m89a4252df0" x="0" y="398.34866" style="fill: #d95f02; fill-opacity: 0.2"/>
    </g>
   </g>
   <g id="PolyCollection_112">
    <defs>
     <path id="ma80ff32161" d="M 400.8715 -387.7555 
L 400.8715 -55.1155 
L 403.96577 -55.1155 
L 403.96577 -387.7555 
L 403.96577 -387.7555 
L 400.8715 -387.7555 
z
"/>
    </defs>
    <g clip-path="url(#pdaf8daf300)">
     <use xlink:href="#ma80ff32161" x="0" y="398.34866" style="fill: #1b9e77; fill-opacity: 0.2"/>
    </g>
   </g>
   <g id="PolyCollection_113">
    <defs>
     <path id="m06c0fba2bd" d="M 403.96577 -387.7555 
L 403.96577 -55.1155 
L 407.06004 -55.1155 
L 407.06004 -387.7555 
L 407.06004 -387.7555 
L 403.96577 -387.7555 
z
"/>
    </defs>
    <g clip-path="url(#pdaf8daf300)">
     <use xlink:href="#m06c0fba2bd" x="0" y="398.34866" style="fill: #d95f02; fill-opacity: 0.2"/>
    </g>
   </g>
   <g id="PolyCollection_114">
    <defs>
     <path id="mac64b76f50" d="M 407.06004 -387.7555 
L 407.06004 -55.1155 
L 410.15431 -55.1155 
L 410.15431 -387.7555 
L 410.15431 -387.7555 
L 407.06004 -387.7555 
z
"/>
    </defs>
    <g clip-path="url(#pdaf8daf300)">
     <use xlink:href="#mac64b76f50" x="0" y="398.34866" style="fill: #d95f02; fill-opacity: 0.2"/>
    </g>
   </g>
   <g id="PolyCollection_115">
    <defs>
     <path id="m414e3773b4" d="M 410.15431 -387.7555 
L 410.15431 -55.1155 
L 413.248579 -55.1155 
L 413.248579 -387.7555 
L 413.248579 -387.7555 
L 410.15431 -387.7555 
z
"/>
    </defs>
    <g clip-path="url(#pdaf8daf300)">
     <use xlink:href="#m414e3773b4" x="0" y="398.34866" style="fill: #d95f02; fill-opacity: 0.2"/>
    </g>
   </g>
   <g id="PolyCollection_116">
    <defs>
     <path id="m2724568997" d="M 413.248579 -387.7555 
L 413.248579 -55.1155 
L 416.342849 -55.1155 
L 416.342849 -387.7555 
L 416.342849 -387.7555 
L 413.248579 -387.7555 
z
"/>
    </defs>
    <g clip-path="url(#pdaf8daf300)">
     <use xlink:href="#m2724568997" x="0" y="398.34866" style="fill: #d95f02; fill-opacity: 0.2"/>
    </g>
   </g>
   <g id="PolyCollection_117">
    <defs>
     <path id="m9bbfc48e2f" d="M 416.342849 -387.7555 
L 416.342849 -55.1155 
L 419.437119 -55.1155 
L 419.437119 -387.7555 
L 419.437119 -387.7555 
L 416.342849 -387.7555 
z
"/>
    </defs>
    <g clip-path="url(#pdaf8daf300)">
     <use xlink:href="#m9bbfc48e2f" x="0" y="398.34866" style="fill: #d95f02; fill-opacity: 0.2"/>
    </g>
   </g>
   <g id="PolyCollection_118">
    <defs>
     <path id="md3d3c4c9c3" d="M 419.437119 -387.7555 
L 419.437119 -55.1155 
L 422.531389 -55.1155 
L 422.531389 -387.7555 
L 422.531389 -387.7555 
L 419.437119 -387.7555 
z
"/>
    </defs>
    <g clip-path="url(#pdaf8daf300)">
     <use xlink:href="#md3d3c4c9c3" x="0" y="398.34866" style="fill: #d95f02; fill-opacity: 0.2"/>
    </g>
   </g>
   <g id="PolyCollection_119">
    <defs>
     <path id="m670bcdad8e" d="M 422.531389 -387.7555 
L 422.531389 -55.1155 
L 425.625659 -55.1155 
L 425.625659 -387.7555 
L 425.625659 -387.7555 
L 422.531389 -387.7555 
z
"/>
    </defs>
    <g clip-path="url(#pdaf8daf300)">
     <use xlink:href="#m670bcdad8e" x="0" y="398.34866" style="fill: #d95f02; fill-opacity: 0.2"/>
    </g>
   </g>
   <g id="PolyCollection_120">
    <defs>
     <path id="m105eb63d4c" d="M 425.625659 -387.7555 
L 425.625659 -55.1155 
L 428.719929 -55.1155 
L 428.719929 -387.7555 
L 428.719929 -387.7555 
L 425.625659 -387.7555 
z
"/>
    </defs>
    <g clip-path="url(#pdaf8daf300)">
     <use xlink:href="#m105eb63d4c" x="0" y="398.34866" style="fill: #d95f02; fill-opacity: 0.2"/>
    </g>
   </g>
   <g id="PolyCollection_121">
    <defs>
     <path id="ma74b3bb41e" d="M 428.719929 -387.7555 
L 428.719929 -55.1155 
L 431.814199 -55.1155 
L 431.814199 -387.7555 
L 431.814199 -387.7555 
L 428.719929 -387.7555 
z
"/>
    </defs>
    <g clip-path="url(#pdaf8daf300)">
     <use xlink:href="#ma74b3bb41e" x="0" y="398.34866" style="fill: #d95f02; fill-opacity: 0.2"/>
    </g>
   </g>
   <g id="PolyCollection_122">
    <defs>
     <path id="m101c34dad7" d="M 431.814199 -387.7555 
L 431.814199 -55.1155 
L 434.908469 -55.1155 
L 434.908469 -387.7555 
L 434.908469 -387.7555 
L 431.814199 -387.7555 
z
"/>
    </defs>
    <g clip-path="url(#pdaf8daf300)">
     <use xlink:href="#m101c34dad7" x="0" y="398.34866" style="fill: #1b9e77; fill-opacity: 0.2"/>
    </g>
   </g>
   <g id="PolyCollection_123">
    <defs>
     <path id="m4b014560db" d="M 434.908469 -387.7555 
L 434.908469 -55.1155 
L 438.002738 -55.1155 
L 438.002738 -387.7555 
L 438.002738 -387.7555 
L 434.908469 -387.7555 
z
"/>
    </defs>
    <g clip-path="url(#pdaf8daf300)">
     <use xlink:href="#m4b014560db" x="0" y="398.34866" style="fill: #1b9e77; fill-opacity: 0.2"/>
    </g>
   </g>
   <g id="PolyCollection_124">
    <defs>
     <path id="m37258b5dbe" d="M 438.002738 -387.7555 
L 438.002738 -55.1155 
L 441.097008 -55.1155 
L 441.097008 -387.7555 
L 441.097008 -387.7555 
L 438.002738 -387.7555 
z
"/>
    </defs>
    <g clip-path="url(#pdaf8daf300)">
     <use xlink:href="#m37258b5dbe" x="0" y="398.34866" style="fill: #1b9e77; fill-opacity: 0.2"/>
    </g>
   </g>
   <g id="PolyCollection_125">
    <defs>
     <path id="m0417e386c0" d="M 441.097008 -387.7555 
L 441.097008 -55.1155 
L 444.191278 -55.1155 
L 444.191278 -387.7555 
L 444.191278 -387.7555 
L 441.097008 -387.7555 
z
"/>
    </defs>
    <g clip-path="url(#pdaf8daf300)">
     <use xlink:href="#m0417e386c0" x="0" y="398.34866" style="fill: #1b9e77; fill-opacity: 0.2"/>
    </g>
   </g>
   <g id="PolyCollection_126">
    <defs>
     <path id="m981f64415b" d="M 444.191278 -387.7555 
L 444.191278 -55.1155 
L 447.285548 -55.1155 
L 447.285548 -387.7555 
L 447.285548 -387.7555 
L 444.191278 -387.7555 
z
"/>
    </defs>
    <g clip-path="url(#pdaf8daf300)">
     <use xlink:href="#m981f64415b" x="0" y="398.34866" style="fill: #1b9e77; fill-opacity: 0.2"/>
    </g>
   </g>
   <g id="PolyCollection_127">
    <defs>
     <path id="md392228711" d="M 447.285548 -387.7555 
L 447.285548 -55.1155 
L 450.379818 -55.1155 
L 450.379818 -387.7555 
L 450.379818 -387.7555 
L 447.285548 -387.7555 
z
"/>
    </defs>
    <g clip-path="url(#pdaf8daf300)">
     <use xlink:href="#md392228711" x="0" y="398.34866" style="fill: #1b9e77; fill-opacity: 0.2"/>
    </g>
   </g>
   <g id="PolyCollection_128">
    <defs>
     <path id="m4c96747aca" d="M 450.379818 -387.7555 
L 450.379818 -55.1155 
L 453.474088 -55.1155 
L 453.474088 -387.7555 
L 453.474088 -387.7555 
L 450.379818 -387.7555 
z
"/>
    </defs>
    <g clip-path="url(#pdaf8daf300)">
     <use xlink:href="#m4c96747aca" x="0" y="398.34866" style="fill: #d95f02; fill-opacity: 0.2"/>
    </g>
   </g>
   <g id="PolyCollection_129">
    <defs>
     <path id="m8fcab1fe30" d="M 453.474088 -387.7555 
L 453.474088 -55.1155 
L 456.568358 -55.1155 
L 456.568358 -387.7555 
L 456.568358 -387.7555 
L 453.474088 -387.7555 
z
"/>
    </defs>
    <g clip-path="url(#pdaf8daf300)">
     <use xlink:href="#m8fcab1fe30" x="0" y="398.34866" style="fill: #d95f02; fill-opacity: 0.2"/>
    </g>
   </g>
   <g id="PolyCollection_130">
    <defs>
     <path id="m8ccdd62ff3" d="M 456.568358 -387.7555 
L 456.568358 -55.1155 
L 459.662628 -55.1155 
L 459.662628 -387.7555 
L 459.662628 -387.7555 
L 456.568358 -387.7555 
z
"/>
    </defs>
    <g clip-path="url(#pdaf8daf300)">
     <use xlink:href="#m8ccdd62ff3" x="0" y="398.34866" style="fill: #1b9e77; fill-opacity: 0.2"/>
    </g>
   </g>
   <g id="PolyCollection_131">
    <defs>
     <path id="m980b13cb83" d="M 459.662628 -387.7555 
L 459.662628 -55.1155 
L 462.756897 -55.1155 
L 462.756897 -387.7555 
L 462.756897 -387.7555 
L 459.662628 -387.7555 
z
"/>
    </defs>
    <g clip-path="url(#pdaf8daf300)">
     <use xlink:href="#m980b13cb83" x="0" y="398.34866" style="fill: #d95f02; fill-opacity: 0.2"/>
    </g>
   </g>
   <g id="PolyCollection_132">
    <defs>
     <path id="m95134ddfb6" d="M 462.756897 -387.7555 
L 462.756897 -55.1155 
L 465.851167 -55.1155 
L 465.851167 -387.7555 
L 465.851167 -387.7555 
L 462.756897 -387.7555 
z
"/>
    </defs>
    <g clip-path="url(#pdaf8daf300)">
     <use xlink:href="#m95134ddfb6" x="0" y="398.34866" style="fill: #d95f02; fill-opacity: 0.2"/>
    </g>
   </g>
   <g id="PolyCollection_133">
    <defs>
     <path id="m0418ac7ff5" d="M 465.851167 -387.7555 
L 465.851167 -55.1155 
L 468.945437 -55.1155 
L 468.945437 -387.7555 
L 468.945437 -387.7555 
L 465.851167 -387.7555 
z
"/>
    </defs>
    <g clip-path="url(#pdaf8daf300)">
     <use xlink:href="#m0418ac7ff5" x="0" y="398.34866" style="fill: #1b9e77; fill-opacity: 0.2"/>
    </g>
   </g>
   <g id="PolyCollection_134">
    <defs>
     <path id="m74e8fb161b" d="M 468.945437 -387.7555 
L 468.945437 -55.1155 
L 472.039707 -55.1155 
L 472.039707 -387.7555 
L 472.039707 -387.7555 
L 468.945437 -387.7555 
z
"/>
    </defs>
    <g clip-path="url(#pdaf8daf300)">
     <use xlink:href="#m74e8fb161b" x="0" y="398.34866" style="fill: #d95f02; fill-opacity: 0.2"/>
    </g>
   </g>
   <g id="PolyCollection_135">
    <defs>
     <path id="mbe44aa3a19" d="M 472.039707 -387.7555 
L 472.039707 -55.1155 
L 475.133977 -55.1155 
L 475.133977 -387.7555 
L 475.133977 -387.7555 
L 472.039707 -387.7555 
z
"/>
    </defs>
    <g clip-path="url(#pdaf8daf300)">
     <use xlink:href="#mbe44aa3a19" x="0" y="398.34866" style="fill: #d95f02; fill-opacity: 0.2"/>
    </g>
   </g>
   <g id="PolyCollection_136">
    <defs>
     <path id="me34e600759" d="M 475.133977 -387.7555 
L 475.133977 -55.1155 
L 478.228247 -55.1155 
L 478.228247 -387.7555 
L 478.228247 -387.7555 
L 475.133977 -387.7555 
z
"/>
    </defs>
    <g clip-path="url(#pdaf8daf300)">
     <use xlink:href="#me34e600759" x="0" y="398.34866" style="fill: #d95f02; fill-opacity: 0.2"/>
    </g>
   </g>
   <g id="PolyCollection_137">
    <defs>
     <path id="mdb47b1f0e6" d="M 478.228247 -387.7555 
L 478.228247 -55.1155 
L 481.322517 -55.1155 
L 481.322517 -387.7555 
L 481.322517 -387.7555 
L 478.228247 -387.7555 
z
"/>
    </defs>
    <g clip-path="url(#pdaf8daf300)">
     <use xlink:href="#mdb47b1f0e6" x="0" y="398.34866" style="fill: #1b9e77; fill-opacity: 0.2"/>
    </g>
   </g>
   <g id="PolyCollection_138">
    <defs>
     <path id="ma0f931d824" d="M 481.322517 -387.7555 
L 481.322517 -55.1155 
L 484.416787 -55.1155 
L 484.416787 -387.7555 
L 484.416787 -387.7555 
L 481.322517 -387.7555 
z
"/>
    </defs>
    <g clip-path="url(#pdaf8daf300)">
     <use xlink:href="#ma0f931d824" x="0" y="398.34866" style="fill: #1b9e77; fill-opacity: 0.2"/>
    </g>
   </g>
   <g id="PolyCollection_139">
    <defs>
     <path id="m81688d827b" d="M 484.416787 -387.7555 
L 484.416787 -55.1155 
L 487.511056 -55.1155 
L 487.511056 -387.7555 
L 487.511056 -387.7555 
L 484.416787 -387.7555 
z
"/>
    </defs>
    <g clip-path="url(#pdaf8daf300)">
     <use xlink:href="#m81688d827b" x="0" y="398.34866" style="fill: #1b9e77; fill-opacity: 0.2"/>
    </g>
   </g>
   <g id="PolyCollection_140">
    <defs>
     <path id="m3f368d96e4" d="M 487.511056 -387.7555 
L 487.511056 -55.1155 
L 490.605326 -55.1155 
L 490.605326 -387.7555 
L 490.605326 -387.7555 
L 487.511056 -387.7555 
z
"/>
    </defs>
    <g clip-path="url(#pdaf8daf300)">
     <use xlink:href="#m3f368d96e4" x="0" y="398.34866" style="fill: #1b9e77; fill-opacity: 0.2"/>
    </g>
   </g>
   <g id="PolyCollection_141">
    <defs>
     <path id="m9171638b2e" d="M 490.605326 -387.7555 
L 490.605326 -55.1155 
L 493.699596 -55.1155 
L 493.699596 -387.7555 
L 493.699596 -387.7555 
L 490.605326 -387.7555 
z
"/>
    </defs>
    <g clip-path="url(#pdaf8daf300)">
     <use xlink:href="#m9171638b2e" x="0" y="398.34866" style="fill: #1b9e77; fill-opacity: 0.2"/>
    </g>
   </g>
   <g id="matplotlib.axis_1">
    <g id="xtick_1">
     <g id="line2d_1">
      <defs>
       <path id="mc1f6b4efac" d="M 0 0 
L 0 4.8 
" style="stroke: #000000"/>
      </defs>
      <g>
       <use xlink:href="#mc1f6b4efac" x="66.690354" y="343.23316" style="stroke: #000000"/>
      </g>
     </g>
     <g id="text_1">
      <!-- 0 -->
      <g transform="translate(61.091354 364.90641) scale(0.176 -0.176)">
       <defs>
        <path id="DejaVuSans-30" d="M 2034 4250 
Q 1547 4250 1301 3770 
Q 1056 3291 1056 2328 
Q 1056 1369 1301 889 
Q 1547 409 2034 409 
Q 2525 409 2770 889 
Q 3016 1369 3016 2328 
Q 3016 3291 2770 3770 
Q 2525 4250 2034 4250 
z
M 2034 4750 
Q 2819 4750 3233 4129 
Q 3647 3509 3647 2328 
Q 3647 1150 3233 529 
Q 2819 -91 2034 -91 
Q 1250 -91 836 529 
Q 422 1150 422 2328 
Q 422 3509 836 4129 
Q 1250 4750 2034 4750 
z
" transform="scale(0.015625)"/>
       </defs>
       <use xlink:href="#DejaVuSans-30"/>
      </g>
     </g>
    </g>
    <g id="xtick_2">
     <g id="line2d_2">
      <g>
       <use xlink:href="#mc1f6b4efac" x="128.575751" y="343.23316" style="stroke: #000000"/>
      </g>
     </g>
     <g id="text_2">
      <!-- 20 -->
      <g transform="translate(117.377751 364.90641) scale(0.176 -0.176)">
       <defs>
        <path id="DejaVuSans-32" d="M 1228 531 
L 3431 531 
L 3431 0 
L 469 0 
L 469 531 
Q 828 903 1448 1529 
Q 2069 2156 2228 2338 
Q 2531 2678 2651 2914 
Q 2772 3150 2772 3378 
Q 2772 3750 2511 3984 
Q 2250 4219 1831 4219 
Q 1534 4219 1204 4116 
Q 875 4013 500 3803 
L 500 4441 
Q 881 4594 1212 4672 
Q 1544 4750 1819 4750 
Q 2544 4750 2975 4387 
Q 3406 4025 3406 3419 
Q 3406 3131 3298 2873 
Q 3191 2616 2906 2266 
Q 2828 2175 2409 1742 
Q 1991 1309 1228 531 
z
" transform="scale(0.015625)"/>
       </defs>
       <use xlink:href="#DejaVuSans-32"/>
       <use xlink:href="#DejaVuSans-30" x="63.623047"/>
      </g>
     </g>
    </g>
    <g id="xtick_3">
     <g id="line2d_3">
      <g>
       <use xlink:href="#mc1f6b4efac" x="190.461149" y="343.23316" style="stroke: #000000"/>
      </g>
     </g>
     <g id="text_3">
      <!-- 40 -->
      <g transform="translate(179.263149 364.90641) scale(0.176 -0.176)">
       <defs>
        <path id="DejaVuSans-34" d="M 2419 4116 
L 825 1625 
L 2419 1625 
L 2419 4116 
z
M 2253 4666 
L 3047 4666 
L 3047 1625 
L 3713 1625 
L 3713 1100 
L 3047 1100 
L 3047 0 
L 2419 0 
L 2419 1100 
L 313 1100 
L 313 1709 
L 2253 4666 
z
" transform="scale(0.015625)"/>
       </defs>
       <use xlink:href="#DejaVuSans-34"/>
       <use xlink:href="#DejaVuSans-30" x="63.623047"/>
      </g>
     </g>
    </g>
    <g id="xtick_4">
     <g id="line2d_4">
      <g>
       <use xlink:href="#mc1f6b4efac" x="252.346546" y="343.23316" style="stroke: #000000"/>
      </g>
     </g>
     <g id="text_4">
      <!-- 60 -->
      <g transform="translate(241.148546 364.90641) scale(0.176 -0.176)">
       <defs>
        <path id="DejaVuSans-36" d="M 2113 2584 
Q 1688 2584 1439 2293 
Q 1191 2003 1191 1497 
Q 1191 994 1439 701 
Q 1688 409 2113 409 
Q 2538 409 2786 701 
Q 3034 994 3034 1497 
Q 3034 2003 2786 2293 
Q 2538 2584 2113 2584 
z
M 3366 4563 
L 3366 3988 
Q 3128 4100 2886 4159 
Q 2644 4219 2406 4219 
Q 1781 4219 1451 3797 
Q 1122 3375 1075 2522 
Q 1259 2794 1537 2939 
Q 1816 3084 2150 3084 
Q 2853 3084 3261 2657 
Q 3669 2231 3669 1497 
Q 3669 778 3244 343 
Q 2819 -91 2113 -91 
Q 1303 -91 875 529 
Q 447 1150 447 2328 
Q 447 3434 972 4092 
Q 1497 4750 2381 4750 
Q 2619 4750 2861 4703 
Q 3103 4656 3366 4563 
z
" transform="scale(0.015625)"/>
       </defs>
       <use xlink:href="#DejaVuSans-36"/>
       <use xlink:href="#DejaVuSans-30" x="63.623047"/>
      </g>
     </g>
    </g>
    <g id="xtick_5">
     <g id="line2d_5">
      <g>
       <use xlink:href="#mc1f6b4efac" x="314.231944" y="343.23316" style="stroke: #000000"/>
      </g>
     </g>
     <g id="text_5">
      <!-- 80 -->
      <g transform="translate(303.033944 364.90641) scale(0.176 -0.176)">
       <defs>
        <path id="DejaVuSans-38" d="M 2034 2216 
Q 1584 2216 1326 1975 
Q 1069 1734 1069 1313 
Q 1069 891 1326 650 
Q 1584 409 2034 409 
Q 2484 409 2743 651 
Q 3003 894 3003 1313 
Q 3003 1734 2745 1975 
Q 2488 2216 2034 2216 
z
M 1403 2484 
Q 997 2584 770 2862 
Q 544 3141 544 3541 
Q 544 4100 942 4425 
Q 1341 4750 2034 4750 
Q 2731 4750 3128 4425 
Q 3525 4100 3525 3541 
Q 3525 3141 3298 2862 
Q 3072 2584 2669 2484 
Q 3125 2378 3379 2068 
Q 3634 1759 3634 1313 
Q 3634 634 3220 271 
Q 2806 -91 2034 -91 
Q 1263 -91 848 271 
Q 434 634 434 1313 
Q 434 1759 690 2068 
Q 947 2378 1403 2484 
z
M 1172 3481 
Q 1172 3119 1398 2916 
Q 1625 2713 2034 2713 
Q 2441 2713 2670 2916 
Q 2900 3119 2900 3481 
Q 2900 3844 2670 4047 
Q 2441 4250 2034 4250 
Q 1625 4250 1398 4047 
Q 1172 3844 1172 3481 
z
" transform="scale(0.015625)"/>
       </defs>
       <use xlink:href="#DejaVuSans-38"/>
       <use xlink:href="#DejaVuSans-30" x="63.623047"/>
      </g>
     </g>
    </g>
    <g id="xtick_6">
     <g id="line2d_6">
      <g>
       <use xlink:href="#mc1f6b4efac" x="376.117341" y="343.23316" style="stroke: #000000"/>
      </g>
     </g>
     <g id="text_6">
      <!-- 100 -->
      <g transform="translate(359.320341 364.90641) scale(0.176 -0.176)">
       <defs>
        <path id="DejaVuSans-31" d="M 794 531 
L 1825 531 
L 1825 4091 
L 703 3866 
L 703 4441 
L 1819 4666 
L 2450 4666 
L 2450 531 
L 3481 531 
L 3481 0 
L 794 0 
L 794 531 
z
" transform="scale(0.015625)"/>
       </defs>
       <use xlink:href="#DejaVuSans-31"/>
       <use xlink:href="#DejaVuSans-30" x="63.623047"/>
       <use xlink:href="#DejaVuSans-30" x="127.246094"/>
      </g>
     </g>
    </g>
    <g id="text_7">
     <!-- State -->
     <g transform="translate(208.06 387.15566) scale(0.192 -0.192)">
      <defs>
       <path id="DejaVuSans-53" d="M 3425 4513 
L 3425 3897 
Q 3066 4069 2747 4153 
Q 2428 4238 2131 4238 
Q 1616 4238 1336 4038 
Q 1056 3838 1056 3469 
Q 1056 3159 1242 3001 
Q 1428 2844 1947 2747 
L 2328 2669 
Q 3034 2534 3370 2195 
Q 3706 1856 3706 1288 
Q 3706 609 3251 259 
Q 2797 -91 1919 -91 
Q 1588 -91 1214 -16 
Q 841 59 441 206 
L 441 856 
Q 825 641 1194 531 
Q 1563 422 1919 422 
Q 2459 422 2753 634 
Q 3047 847 3047 1241 
Q 3047 1584 2836 1778 
Q 2625 1972 2144 2069 
L 1759 2144 
Q 1053 2284 737 2584 
Q 422 2884 422 3419 
Q 422 4038 858 4394 
Q 1294 4750 2059 4750 
Q 2388 4750 2728 4690 
Q 3069 4631 3425 4513 
z
" transform="scale(0.015625)"/>
       <path id="DejaVuSans-74" d="M 1172 4494 
L 1172 3500 
L 2356 3500 
L 2356 3053 
L 1172 3053 
L 1172 1153 
Q 1172 725 1289 603 
Q 1406 481 1766 481 
L 2356 481 
L 2356 0 
L 1766 0 
Q 1100 0 847 248 
Q 594 497 594 1153 
L 594 3053 
L 172 3053 
L 172 3500 
L 594 3500 
L 594 4494 
L 1172 4494 
z
" transform="scale(0.015625)"/>
       <path id="DejaVuSans-61" d="M 2194 1759 
Q 1497 1759 1228 1600 
Q 959 1441 959 1056 
Q 959 750 1161 570 
Q 1363 391 1709 391 
Q 2188 391 2477 730 
Q 2766 1069 2766 1631 
L 2766 1759 
L 2194 1759 
z
M 3341 1997 
L 3341 0 
L 2766 0 
L 2766 531 
Q 2569 213 2275 61 
Q 1981 -91 1556 -91 
Q 1019 -91 701 211 
Q 384 513 384 1019 
Q 384 1609 779 1909 
Q 1175 2209 1959 2209 
L 2766 2209 
L 2766 2266 
Q 2766 2663 2505 2880 
Q 2244 3097 1772 3097 
Q 1472 3097 1187 3025 
Q 903 2953 641 2809 
L 641 3341 
Q 956 3463 1253 3523 
Q 1550 3584 1831 3584 
Q 2591 3584 2966 3190 
Q 3341 2797 3341 1997 
z
" transform="scale(0.015625)"/>
       <path id="DejaVuSans-65" d="M 3597 1894 
L 3597 1613 
L 953 1613 
Q 991 1019 1311 708 
Q 1631 397 2203 397 
Q 2534 397 2845 478 
Q 3156 559 3463 722 
L 3463 178 
Q 3153 47 2828 -22 
Q 2503 -91 2169 -91 
Q 1331 -91 842 396 
Q 353 884 353 1716 
Q 353 2575 817 3079 
Q 1281 3584 2069 3584 
Q 2775 3584 3186 3129 
Q 3597 2675 3597 1894 
z
M 3022 2063 
Q 3016 2534 2758 2815 
Q 2500 3097 2075 3097 
Q 1594 3097 1305 2825 
Q 1016 2553 972 2059 
L 3022 2063 
z
" transform="scale(0.015625)"/>
      </defs>
      <use xlink:href="#DejaVuSans-53"/>
      <use xlink:href="#DejaVuSans-74" x="63.476562"/>
      <use xlink:href="#DejaVuSans-61" x="102.685547"/>
      <use xlink:href="#DejaVuSans-74" x="163.964844"/>
      <use xlink:href="#DejaVuSans-65" x="203.173828"/>
     </g>
    </g>
   </g>
   <g id="matplotlib.axis_2">
    <g id="ytick_1">
     <g id="line2d_7">
      <defs>
       <path id="m099bb42cac" d="M 0 0 
L -4.8 0 
" style="stroke: #000000"/>
      </defs>
      <g>
       <use xlink:href="#m099bb42cac" x="66.0715" y="343.23316" style="stroke: #000000"/>
      </g>
     </g>
     <g id="text_8">
      <!-- 0.0 -->
      <g transform="translate(29.782 349.919785) scale(0.176 -0.176)">
       <defs>
        <path id="DejaVuSans-2e" d="M 684 794 
L 1344 794 
L 1344 0 
L 684 0 
L 684 794 
z
" transform="scale(0.015625)"/>
       </defs>
       <use xlink:href="#DejaVuSans-30"/>
       <use xlink:href="#DejaVuSans-2e" x="63.623047"/>
       <use xlink:href="#DejaVuSans-30" x="95.410156"/>
      </g>
     </g>
    </g>
    <g id="ytick_2">
     <g id="line2d_8">
      <g>
       <use xlink:href="#m099bb42cac" x="66.0715" y="277.363853" style="stroke: #000000"/>
      </g>
     </g>
     <g id="text_9">
      <!-- 0.2 -->
      <g transform="translate(29.782 284.050478) scale(0.176 -0.176)">
       <use xlink:href="#DejaVuSans-30"/>
       <use xlink:href="#DejaVuSans-2e" x="63.623047"/>
       <use xlink:href="#DejaVuSans-32" x="95.410156"/>
      </g>
     </g>
    </g>
    <g id="ytick_3">
     <g id="line2d_9">
      <g>
       <use xlink:href="#m099bb42cac" x="66.0715" y="211.494546" style="stroke: #000000"/>
      </g>
     </g>
     <g id="text_10">
      <!-- 0.4 -->
      <g transform="translate(29.782 218.181171) scale(0.176 -0.176)">
       <use xlink:href="#DejaVuSans-30"/>
       <use xlink:href="#DejaVuSans-2e" x="63.623047"/>
       <use xlink:href="#DejaVuSans-34" x="95.410156"/>
      </g>
     </g>
    </g>
    <g id="ytick_4">
     <g id="line2d_10">
      <g>
       <use xlink:href="#m099bb42cac" x="66.0715" y="145.625239" style="stroke: #000000"/>
      </g>
     </g>
     <g id="text_11">
      <!-- 0.6 -->
      <g transform="translate(29.782 152.311864) scale(0.176 -0.176)">
       <use xlink:href="#DejaVuSans-30"/>
       <use xlink:href="#DejaVuSans-2e" x="63.623047"/>
       <use xlink:href="#DejaVuSans-36" x="95.410156"/>
      </g>
     </g>
    </g>
    <g id="ytick_5">
     <g id="line2d_11">
      <g>
       <use xlink:href="#m099bb42cac" x="66.0715" y="79.755932" style="stroke: #000000"/>
      </g>
     </g>
     <g id="text_12">
      <!-- 0.8 -->
      <g transform="translate(29.782 86.442557) scale(0.176 -0.176)">
       <use xlink:href="#DejaVuSans-30"/>
       <use xlink:href="#DejaVuSans-2e" x="63.623047"/>
       <use xlink:href="#DejaVuSans-38" x="95.410156"/>
      </g>
     </g>
    </g>
    <g id="ytick_6">
     <g id="line2d_12">
      <g>
       <use xlink:href="#m099bb42cac" x="66.0715" y="13.886625" style="stroke: #000000"/>
      </g>
     </g>
     <g id="text_13">
      <!-- 1.0 -->
      <g transform="translate(29.782 20.57325) scale(0.176 -0.176)">
       <use xlink:href="#DejaVuSans-31"/>
       <use xlink:href="#DejaVuSans-2e" x="63.623047"/>
       <use xlink:href="#DejaVuSans-30" x="95.410156"/>
      </g>
     </g>
    </g>
    <g id="text_14">
     <!-- Score -->
     <g transform="translate(21.789 203.79766) rotate(-90) scale(0.192 -0.192)">
      <defs>
       <path id="DejaVuSans-63" d="M 3122 3366 
L 3122 2828 
Q 2878 2963 2633 3030 
Q 2388 3097 2138 3097 
Q 1578 3097 1268 2742 
Q 959 2388 959 1747 
Q 959 1106 1268 751 
Q 1578 397 2138 397 
Q 2388 397 2633 464 
Q 2878 531 3122 666 
L 3122 134 
Q 2881 22 2623 -34 
Q 2366 -91 2075 -91 
Q 1284 -91 818 406 
Q 353 903 353 1747 
Q 353 2603 823 3093 
Q 1294 3584 2113 3584 
Q 2378 3584 2631 3529 
Q 2884 3475 3122 3366 
z
" transform="scale(0.015625)"/>
       <path id="DejaVuSans-6f" d="M 1959 3097 
Q 1497 3097 1228 2736 
Q 959 2375 959 1747 
Q 959 1119 1226 758 
Q 1494 397 1959 397 
Q 2419 397 2687 759 
Q 2956 1122 2956 1747 
Q 2956 2369 2687 2733 
Q 2419 3097 1959 3097 
z
M 1959 3584 
Q 2709 3584 3137 3096 
Q 3566 2609 3566 1747 
Q 3566 888 3137 398 
Q 2709 -91 1959 -91 
Q 1206 -91 779 398 
Q 353 888 353 1747 
Q 353 2609 779 3096 
Q 1206 3584 1959 3584 
z
" transform="scale(0.015625)"/>
       <path id="DejaVuSans-72" d="M 2631 2963 
Q 2534 3019 2420 3045 
Q 2306 3072 2169 3072 
Q 1681 3072 1420 2755 
Q 1159 2438 1159 1844 
L 1159 0 
L 581 0 
L 581 3500 
L 1159 3500 
L 1159 2956 
Q 1341 3275 1631 3429 
Q 1922 3584 2338 3584 
Q 2397 3584 2469 3576 
Q 2541 3569 2628 3553 
L 2631 2963 
z
" transform="scale(0.015625)"/>
      </defs>
      <use xlink:href="#DejaVuSans-53"/>
      <use xlink:href="#DejaVuSans-63" x="63.476562"/>
      <use xlink:href="#DejaVuSans-6f" x="118.457031"/>
      <use xlink:href="#DejaVuSans-72" x="179.638672"/>
      <use xlink:href="#DejaVuSans-65" x="218.501953"/>
     </g>
    </g>
   </g>
   <g id="line2d_13">
    <path d="M 72.878894 88.925005 
L 75.973164 88.925005 
L 82.161703 87.381163 
L 85.255973 87.166746 
L 91.444513 85.111726 
L 97.633053 83.208486 
L 100.727323 82.980304 
L 106.915862 82.709348 
L 110.010132 82.709348 
L 113.104402 82.511744 
L 116.198672 82.497673 
L 119.292942 82.497673 
L 122.387212 82.483607 
L 125.481482 82.430142 
L 128.575751 81.679321 
L 137.858561 78.907242 
L 140.952831 67.085457 
L 144.047101 66.484614 
L 147.141371 62.606097 
L 153.32991 62.067727 
L 156.42418 61.061123 
L 159.51845 54.345787 
L 162.61272 49.891137 
L 165.70699 46.51491 
L 168.80126 44.220159 
L 187.366879 41.319181 
L 190.461149 41.234776 
L 196.649689 40.942318 
L 199.743958 40.923116 
L 202.838228 40.923116 
L 205.932498 39.719185 
L 209.026768 39.719185 
L 212.121038 39.719185 
L 215.215308 43.025298 
L 218.309578 39.288547 
L 221.403848 39.288547 
L 224.498117 27.425582 
L 227.592387 25.296212 
L 230.686657 22.309612 
L 239.969467 21.176141 
L 243.063737 21.17271 
L 246.158006 21.157309 
L 252.346546 25.464024 
L 264.723626 21.143675 
L 270.912165 21.143675 
L 274.006435 21.143675 
L 277.100705 21.143675 
L 280.194975 21.143675 
L 283.289245 20.889243 
L 286.383515 20.887659 
L 289.477785 20.887659 
L 292.572055 20.887659 
L 295.666324 20.887659 
L 298.760594 20.887659 
L 301.854864 20.887659 
L 304.949134 20.862419 
L 308.043404 20.856137 
L 311.137674 21.068189 
L 314.231944 20.857302 
L 317.326213 20.857302 
L 323.514753 20.857302 
L 326.609023 20.857302 
L 329.703293 20.857302 
L 338.986103 20.813739 
L 342.080372 20.612185 
L 345.174642 20.610783 
L 348.268912 20.543556 
L 351.363182 20.341707 
L 354.457452 20.341707 
L 357.551722 19.935987 
L 360.645992 18.578761 
L 363.740262 17.896302 
L 366.834531 16.937414 
L 369.928801 16.937414 
L 373.023071 16.937414 
L 376.117341 16.52473 
L 379.211611 15.002345 
L 382.305881 15.002345 
L 385.400151 15.002345 
L 388.494421 13.95658 
L 391.58869 13.95658 
L 394.68296 13.956254 
L 397.77723 13.956254 
L 403.96577 30.287818 
L 407.06004 14.373104 
L 409.0715 14.237601 
" clip-path="url(#pdaf8daf300)" style="fill: none; stroke-dasharray: 2,3.3; stroke-dashoffset: 0; stroke: #e41a1c; stroke-width: 2"/>
   </g>
   <g id="line2d_14">
    <path d="M 66.690354 343.23316 
L 69.784624 343.23316 
L 72.878894 95.220783 
L 75.973164 95.220783 
L 82.161703 95.220783 
L 85.255973 95.220783 
L 91.444513 95.220783 
L 97.633053 86.532665 
L 100.727323 86.465833 
L 106.915862 86.198506 
L 110.010132 86.198506 
L 113.104402 85.262863 
L 116.198672 85.196031 
L 119.292942 85.196031 
L 122.387212 85.129199 
L 125.481482 85.129199 
L 128.575751 85.129199 
L 137.858561 85.129199 
L 140.952831 85.129199 
L 144.047101 85.129199 
L 147.141371 84.928704 
L 153.32991 84.661377 
L 156.42418 84.594546 
L 159.51845 84.594546 
L 162.61272 84.594546 
L 165.70699 84.327219 
L 168.80126 84.327219 
L 187.366879 84.327219 
L 190.461149 84.193556 
L 196.649689 84.126724 
L 199.743958 83.926229 
L 202.838228 83.926229 
L 205.932498 70.760387 
L 209.026768 70.760387 
L 212.121038 70.760387 
L 215.215308 65.748011 
L 218.309578 65.748011 
L 221.403848 65.748011 
L 224.498117 65.748011 
L 227.592387 65.748011 
L 230.686657 65.681179 
L 239.969467 65.681179 
L 243.063737 65.547516 
L 246.158006 64.946031 
L 252.346546 64.411377 
L 264.723626 64.411377 
L 270.912165 64.411377 
L 274.006435 64.411377 
L 277.100705 64.411377 
L 280.194975 64.411377 
L 283.289245 54.052467 
L 286.383515 53.985635 
L 289.477785 53.985635 
L 292.572055 53.985635 
L 295.666324 53.985635 
L 298.760594 53.985635 
L 301.854864 53.985635 
L 304.949134 52.916328 
L 308.043404 52.649001 
L 311.137674 43.426229 
L 314.231944 43.426229 
L 317.326213 43.426229 
L 323.514753 43.426229 
L 326.609023 43.426229 
L 329.703293 43.426229 
L 338.986103 29.057417 
L 342.080372 29.057417 
L 345.174642 28.990585 
L 348.268912 28.990585 
L 351.363182 28.990585 
L 354.457452 28.990585 
L 357.551722 28.923754 
L 360.645992 28.79009 
L 363.740262 28.723259 
L 366.834531 28.723259 
L 369.928801 28.723259 
L 373.023071 28.723259 
L 376.117341 28.723259 
L 379.211611 28.656427 
L 382.305881 28.656427 
L 385.400151 28.656427 
L 388.494421 28.656427 
L 391.58869 28.656427 
L 394.68296 27.18613 
L 397.77723 27.18613 
L 403.96577 26.985635 
L 407.06004 26.985635 
L 409.0715 26.985635 
" clip-path="url(#pdaf8daf300)" style="fill: none; stroke-dasharray: 7.4,3.2; stroke-dashoffset: 0; stroke: #377eb8; stroke-width: 2"/>
   </g>
   <g id="line2d_15">
    <path d="M 72.878894 92.112348 
L 75.973164 92.112348 
L 82.161703 91.361961 
L 85.255973 91.258108 
L 91.444513 90.267209 
L 97.633053 84.881268 
L 100.727323 84.734817 
L 106.915862 84.465688 
L 110.010132 84.465688 
L 113.104402 83.894599 
L 116.198672 83.853869 
L 119.292942 83.853869 
L 122.387212 83.813148 
L 125.481482 83.78669 
L 128.575751 83.415712 
L 137.858561 82.055271 
L 140.952831 76.412032 
L 144.047101 76.131875 
L 147.141371 74.229703 
L 153.32991 73.837442 
L 156.42418 73.339864 
L 159.51845 70.305732 
L 162.61272 68.333755 
L 165.70699 66.707699 
L 168.80126 65.715275 
L 187.366879 64.472295 
L 190.461149 64.358847 
L 196.649689 64.19546 
L 199.743958 64.071051 
L 202.838228 64.071051 
L 205.932498 56.076226 
L 209.026768 56.076226 
L 212.121038 56.076226 
L 215.215308 54.833537 
L 218.309578 53.120332 
L 221.403848 53.120332 
L 224.498117 47.824473 
L 227.592387 46.896219 
L 230.686657 45.566966 
L 239.969467 45.080319 
L 243.063737 45.001744 
L 246.158006 44.648581 
L 252.346546 46.209004 
L 264.723626 44.335239 
L 270.912165 44.335239 
L 274.006435 44.335239 
L 277.100705 44.335239 
L 280.194975 44.335239 
L 283.289245 38.370082 
L 286.383515 38.332239 
L 289.477785 38.332239 
L 292.572055 38.332239 
L 295.666324 38.332239 
L 298.760594 38.332239 
L 301.854864 38.332239 
L 304.949134 37.727854 
L 308.043404 37.57708 
L 311.137674 32.649062 
L 314.231944 32.551096 
L 317.326213 32.551096 
L 323.514753 32.551096 
L 326.609023 32.551096 
L 329.703293 32.551096 
L 338.986103 24.988954 
L 342.080372 24.890801 
L 345.174642 24.855815 
L 348.268912 24.823083 
L 351.363182 24.724849 
L 354.457452 24.724849 
L 357.551722 24.493217 
L 360.645992 23.766003 
L 363.740262 23.401383 
L 366.834531 22.93872 
L 369.928801 22.93872 
L 373.023071 22.93872 
L 376.117341 22.740026 
L 379.211611 21.974401 
L 382.305881 21.974401 
L 385.400151 21.974401 
L 388.494421 21.47431 
L 391.58869 21.47431 
L 394.68296 20.706806 
L 397.77723 20.706806 
L 403.96577 28.645392 
L 407.06004 20.802664 
L 409.0715 20.737578 
" clip-path="url(#pdaf8daf300)" style="fill: none; stroke: #984ea3; stroke-width: 3; stroke-linecap: square"/>
   </g>
   <g id="patch_3">
    <path d="M 66.0715 343.23316 
L 66.0715 10.59316 
" style="fill: none; stroke: #000000; stroke-linejoin: miter; stroke-linecap: square"/>
   </g>
   <g id="patch_4">
    <path d="M 66.0715 343.23316 
L 400.8715 343.23316 
" style="fill: none; stroke: #000000; stroke-linejoin: miter; stroke-linecap: square"/>
   </g>
   <g id="legend_1">
    <g id="patch_5">
     <path d="M 78.3915 334.43316 
L 213.23225 334.43316 
Q 216.75225 334.43316 216.75225 330.91316 
L 216.75225 255.17266 
Q 216.75225 251.65266 213.23225 251.65266 
L 78.3915 251.65266 
Q 74.8715 251.65266 74.8715 255.17266 
L 74.8715 330.91316 
Q 74.8715 334.43316 78.3915 334.43316 
z
" style="fill: #ffffff; opacity: 0.8; stroke: #cccccc; stroke-width: 0.8; stroke-linejoin: miter"/>
    </g>
    <g id="line2d_16">
     <path d="M 81.9115 265.90591 
L 99.5115 265.90591 
L 117.1115 265.90591 
" style="fill: none; stroke-dasharray: 2,3.3; stroke-dashoffset: 0; stroke: #e41a1c; stroke-width: 2"/>
    </g>
    <g id="text_15">
     <!-- Precision -->
     <g transform="translate(131.1915 272.06591) scale(0.176 -0.176)">
      <defs>
       <path id="DejaVuSans-50" d="M 1259 4147 
L 1259 2394 
L 2053 2394 
Q 2494 2394 2734 2622 
Q 2975 2850 2975 3272 
Q 2975 3691 2734 3919 
Q 2494 4147 2053 4147 
L 1259 4147 
z
M 628 4666 
L 2053 4666 
Q 2838 4666 3239 4311 
Q 3641 3956 3641 3272 
Q 3641 2581 3239 2228 
Q 2838 1875 2053 1875 
L 1259 1875 
L 1259 0 
L 628 0 
L 628 4666 
z
" transform="scale(0.015625)"/>
       <path id="DejaVuSans-69" d="M 603 3500 
L 1178 3500 
L 1178 0 
L 603 0 
L 603 3500 
z
M 603 4863 
L 1178 4863 
L 1178 4134 
L 603 4134 
L 603 4863 
z
" transform="scale(0.015625)"/>
       <path id="DejaVuSans-73" d="M 2834 3397 
L 2834 2853 
Q 2591 2978 2328 3040 
Q 2066 3103 1784 3103 
Q 1356 3103 1142 2972 
Q 928 2841 928 2578 
Q 928 2378 1081 2264 
Q 1234 2150 1697 2047 
L 1894 2003 
Q 2506 1872 2764 1633 
Q 3022 1394 3022 966 
Q 3022 478 2636 193 
Q 2250 -91 1575 -91 
Q 1294 -91 989 -36 
Q 684 19 347 128 
L 347 722 
Q 666 556 975 473 
Q 1284 391 1588 391 
Q 1994 391 2212 530 
Q 2431 669 2431 922 
Q 2431 1156 2273 1281 
Q 2116 1406 1581 1522 
L 1381 1569 
Q 847 1681 609 1914 
Q 372 2147 372 2553 
Q 372 3047 722 3315 
Q 1072 3584 1716 3584 
Q 2034 3584 2315 3537 
Q 2597 3491 2834 3397 
z
" transform="scale(0.015625)"/>
       <path id="DejaVuSans-6e" d="M 3513 2113 
L 3513 0 
L 2938 0 
L 2938 2094 
Q 2938 2591 2744 2837 
Q 2550 3084 2163 3084 
Q 1697 3084 1428 2787 
Q 1159 2491 1159 1978 
L 1159 0 
L 581 0 
L 581 3500 
L 1159 3500 
L 1159 2956 
Q 1366 3272 1645 3428 
Q 1925 3584 2291 3584 
Q 2894 3584 3203 3211 
Q 3513 2838 3513 2113 
z
" transform="scale(0.015625)"/>
      </defs>
      <use xlink:href="#DejaVuSans-50"/>
      <use xlink:href="#DejaVuSans-72" x="58.552734"/>
      <use xlink:href="#DejaVuSans-65" x="97.416016"/>
      <use xlink:href="#DejaVuSans-63" x="158.939453"/>
      <use xlink:href="#DejaVuSans-69" x="213.919922"/>
      <use xlink:href="#DejaVuSans-73" x="241.703125"/>
      <use xlink:href="#DejaVuSans-69" x="293.802734"/>
      <use xlink:href="#DejaVuSans-6f" x="321.585938"/>
      <use xlink:href="#DejaVuSans-6e" x="382.767578"/>
     </g>
    </g>
    <g id="line2d_17">
     <path d="M 81.9115 291.73941 
L 99.5115 291.73941 
L 117.1115 291.73941 
" style="fill: none; stroke-dasharray: 7.4,3.2; stroke-dashoffset: 0; stroke: #377eb8; stroke-width: 2"/>
    </g>
    <g id="text_16">
     <!-- Recall -->
     <g transform="translate(131.1915 297.89941) scale(0.176 -0.176)">
      <defs>
       <path id="DejaVuSans-52" d="M 2841 2188 
Q 3044 2119 3236 1894 
Q 3428 1669 3622 1275 
L 4263 0 
L 3584 0 
L 2988 1197 
Q 2756 1666 2539 1819 
Q 2322 1972 1947 1972 
L 1259 1972 
L 1259 0 
L 628 0 
L 628 4666 
L 2053 4666 
Q 2853 4666 3247 4331 
Q 3641 3997 3641 3322 
Q 3641 2881 3436 2590 
Q 3231 2300 2841 2188 
z
M 1259 4147 
L 1259 2491 
L 2053 2491 
Q 2509 2491 2742 2702 
Q 2975 2913 2975 3322 
Q 2975 3731 2742 3939 
Q 2509 4147 2053 4147 
L 1259 4147 
z
" transform="scale(0.015625)"/>
       <path id="DejaVuSans-6c" d="M 603 4863 
L 1178 4863 
L 1178 0 
L 603 0 
L 603 4863 
z
" transform="scale(0.015625)"/>
      </defs>
      <use xlink:href="#DejaVuSans-52"/>
      <use xlink:href="#DejaVuSans-65" x="64.982422"/>
      <use xlink:href="#DejaVuSans-63" x="126.505859"/>
      <use xlink:href="#DejaVuSans-61" x="181.486328"/>
      <use xlink:href="#DejaVuSans-6c" x="242.765625"/>
      <use xlink:href="#DejaVuSans-6c" x="270.548828"/>
     </g>
    </g>
    <g id="line2d_18">
     <path d="M 81.9115 317.57291 
L 99.5115 317.57291 
L 117.1115 317.57291 
" style="fill: none; stroke: #984ea3; stroke-width: 3; stroke-linecap: square"/>
    </g>
    <g id="text_17">
     <!-- F1 -->
     <g transform="translate(131.1915 323.73291) scale(0.176 -0.176)">
      <defs>
       <path id="DejaVuSans-46" d="M 628 4666 
L 3309 4666 
L 3309 4134 
L 1259 4134 
L 1259 2759 
L 3109 2759 
L 3109 2228 
L 1259 2228 
L 1259 0 
L 628 0 
L 628 4666 
z
" transform="scale(0.015625)"/>
      </defs>
      <use xlink:href="#DejaVuSans-46"/>
      <use xlink:href="#DejaVuSans-31" x="57.519531"/>
     </g>
    </g>
   </g>
  </g>
 </g>
 <defs>
  <clipPath id="pdaf8daf300">
   <rect x="66.0715" y="10.59316" width="334.8" height="332.64"/>
  </clipPath>
 </defs>
</svg>
