<?xml version="1.0" encoding="utf-8" standalone="no"?>
<!DOCTYPE svg PUBLIC "-//W3C//DTD SVG 1.1//EN"
  "http://www.w3.org/Graphics/SVG/1.1/DTD/svg11.dtd">
<svg xmlns:xlink="http://www.w3.org/1999/xlink" width="408.0715pt" height="398.34866pt" viewBox="0 0 408.0715 398.34866" xmlns="http://www.w3.org/2000/svg" version="1.1">
 <metadata>
  <rdf:RDF xmlns:dc="http://purl.org/dc/elements/1.1/" xmlns:cc="http://creativecommons.org/ns#" xmlns:rdf="http://www.w3.org/1999/02/22-rdf-syntax-ns#">
   <cc:Work>
    <dc:type rdf:resource="http://purl.org/dc/dcmitype/StillImage"/>
    <dc:date>2024-09-30T11:38:58.507482</dc:date>
    <dc:format>image/svg+xml</dc:format>
    <dc:creator>
     <cc:Agent>
      <dc:title>Matplotlib v3.8.0, https://matplotlib.org/</dc:title>
     </cc:Agent>
    </dc:creator>
   </cc:Work>
  </rdf:RDF>
 </metadata>
 <defs>
  <style type="text/css">*{stroke-linejoin: round; stroke-linecap: butt}</style>
 </defs>
 <g id="figure_1">
  <g id="patch_1">
   <path d="M 0 398.34866 
L 408.0715 398.34866 
L 408.0715 0 
L 0 0 
z
" style="fill: #ffffff"/>
  </g>
  <g id="axes_1">
   <g id="patch_2">
    <path d="M 66.0715 343.23316 
L 400.8715 343.23316 
L 400.8715 10.59316 
L 66.0715 10.59316 
z
" style="fill: #ffffff"/>
   </g>
   <g id="PolyCollection_1"/>
   <g id="PolyCollection_2"/>
   <g id="PolyCollection_3"/>
   <g id="PolyCollection_4">
    <defs>
     <path id="m09a85f08b9" d="M 66.637997 -387.7555 
L 66.637997 -55.1155 
L 69.470485 -55.1155 
L 69.470485 -387.7555 
L 69.470485 -387.7555 
L 66.637997 -387.7555 
z
"/>
    </defs>
    <g clip-path="url(#p80ca85ae00)">
     <use xlink:href="#m09a85f08b9" x="0" y="398.34866" style="fill: #d95f02; fill-opacity: 0.2"/>
    </g>
   </g>
   <g id="PolyCollection_5">
    <defs>
     <path id="mddf40f4b5b" d="M 69.470485 -387.7555 
L 69.470485 -55.1155 
L 72.302972 -55.1155 
L 72.302972 -387.7555 
L 72.302972 -387.7555 
L 69.470485 -387.7555 
z
"/>
    </defs>
    <g clip-path="url(#p80ca85ae00)">
     <use xlink:href="#mddf40f4b5b" x="0" y="398.34866" style="fill: #d95f02; fill-opacity: 0.2"/>
    </g>
   </g>
   <g id="PolyCollection_6">
    <defs>
     <path id="m4d8cb14765" d="M 72.302972 -387.7555 
L 72.302972 -55.1155 
L 75.135459 -55.1155 
L 75.135459 -387.7555 
L 75.135459 -387.7555 
L 72.302972 -387.7555 
z
"/>
    </defs>
    <g clip-path="url(#p80ca85ae00)">
     <use xlink:href="#m4d8cb14765" x="0" y="398.34866" style="fill: #d95f02; fill-opacity: 0.2"/>
    </g>
   </g>
   <g id="PolyCollection_7">
    <defs>
     <path id="m9818e872a9" d="M 75.135459 -387.7555 
L 75.135459 -55.1155 
L 77.967947 -55.1155 
L 77.967947 -387.7555 
L 77.967947 -387.7555 
L 75.135459 -387.7555 
z
"/>
    </defs>
    <g clip-path="url(#p80ca85ae00)">
     <use xlink:href="#m9818e872a9" x="0" y="398.34866" style="fill: #d95f02; fill-opacity: 0.2"/>
    </g>
   </g>
   <g id="PolyCollection_8">
    <defs>
     <path id="mbbe1197442" d="M 77.967947 -387.7555 
L 77.967947 -55.1155 
L 80.800434 -55.1155 
L 80.800434 -387.7555 
L 80.800434 -387.7555 
L 77.967947 -387.7555 
z
"/>
    </defs>
    <g clip-path="url(#p80ca85ae00)">
     <use xlink:href="#mbbe1197442" x="0" y="398.34866" style="fill: #1b9e77; fill-opacity: 0.2"/>
    </g>
   </g>
   <g id="PolyCollection_9">
    <defs>
     <path id="m7ee5ca10d8" d="M 80.800434 -387.7555 
L 80.800434 -55.1155 
L 83.632921 -55.1155 
L 83.632921 -387.7555 
L 83.632921 -387.7555 
L 80.800434 -387.7555 
z
"/>
    </defs>
    <g clip-path="url(#p80ca85ae00)">
     <use xlink:href="#m7ee5ca10d8" x="0" y="398.34866" style="fill: #1b9e77; fill-opacity: 0.2"/>
    </g>
   </g>
   <g id="PolyCollection_10">
    <defs>
     <path id="mfcf5418fae" d="M 83.632921 -387.7555 
L 83.632921 -55.1155 
L 86.465409 -55.1155 
L 86.465409 -387.7555 
L 86.465409 -387.7555 
L 83.632921 -387.7555 
z
"/>
    </defs>
    <g clip-path="url(#p80ca85ae00)">
     <use xlink:href="#mfcf5418fae" x="0" y="398.34866" style="fill: #d95f02; fill-opacity: 0.2"/>
    </g>
   </g>
   <g id="PolyCollection_11">
    <defs>
     <path id="m94fa475782" d="M 86.465409 -387.7555 
L 86.465409 -55.1155 
L 89.297896 -55.1155 
L 89.297896 -387.7555 
L 89.297896 -387.7555 
L 86.465409 -387.7555 
z
"/>
    </defs>
    <g clip-path="url(#p80ca85ae00)">
     <use xlink:href="#m94fa475782" x="0" y="398.34866" style="fill: #1b9e77; fill-opacity: 0.2"/>
    </g>
   </g>
   <g id="PolyCollection_12">
    <defs>
     <path id="m422453d77c" d="M 89.297896 -387.7555 
L 89.297896 -55.1155 
L 92.130383 -55.1155 
L 92.130383 -387.7555 
L 92.130383 -387.7555 
L 89.297896 -387.7555 
z
"/>
    </defs>
    <g clip-path="url(#p80ca85ae00)">
     <use xlink:href="#m422453d77c" x="0" y="398.34866" style="fill: #d95f02; fill-opacity: 0.2"/>
    </g>
   </g>
   <g id="PolyCollection_13">
    <defs>
     <path id="ma3e02505a4" d="M 92.130383 -387.7555 
L 92.130383 -55.1155 
L 94.962871 -55.1155 
L 94.962871 -387.7555 
L 94.962871 -387.7555 
L 92.130383 -387.7555 
z
"/>
    </defs>
    <g clip-path="url(#p80ca85ae00)">
     <use xlink:href="#ma3e02505a4" x="0" y="398.34866" style="fill: #1b9e77; fill-opacity: 0.2"/>
    </g>
   </g>
   <g id="PolyCollection_14">
    <defs>
     <path id="m56f0ab3aa2" d="M 94.962871 -387.7555 
L 94.962871 -55.1155 
L 97.795358 -55.1155 
L 97.795358 -387.7555 
L 97.795358 -387.7555 
L 94.962871 -387.7555 
z
"/>
    </defs>
    <g clip-path="url(#p80ca85ae00)">
     <use xlink:href="#m56f0ab3aa2" x="0" y="398.34866" style="fill: #1b9e77; fill-opacity: 0.2"/>
    </g>
   </g>
   <g id="PolyCollection_15">
    <defs>
     <path id="m0c675ea182" d="M 97.795358 -387.7555 
L 97.795358 -55.1155 
L 100.627845 -55.1155 
L 100.627845 -387.7555 
L 100.627845 -387.7555 
L 97.795358 -387.7555 
z
"/>
    </defs>
    <g clip-path="url(#p80ca85ae00)">
     <use xlink:href="#m0c675ea182" x="0" y="398.34866" style="fill: #d95f02; fill-opacity: 0.2"/>
    </g>
   </g>
   <g id="PolyCollection_16">
    <defs>
     <path id="mc34985f6b7" d="M 100.627845 -387.7555 
L 100.627845 -55.1155 
L 103.460332 -55.1155 
L 103.460332 -387.7555 
L 103.460332 -387.7555 
L 100.627845 -387.7555 
z
"/>
    </defs>
    <g clip-path="url(#p80ca85ae00)">
     <use xlink:href="#mc34985f6b7" x="0" y="398.34866" style="fill: #d95f02; fill-opacity: 0.2"/>
    </g>
   </g>
   <g id="PolyCollection_17">
    <defs>
     <path id="m70953910ab" d="M 103.460332 -387.7555 
L 103.460332 -55.1155 
L 106.29282 -55.1155 
L 106.29282 -387.7555 
L 106.29282 -387.7555 
L 103.460332 -387.7555 
z
"/>
    </defs>
    <g clip-path="url(#p80ca85ae00)">
     <use xlink:href="#m70953910ab" x="0" y="398.34866" style="fill: #d95f02; fill-opacity: 0.2"/>
    </g>
   </g>
   <g id="PolyCollection_18">
    <defs>
     <path id="m5c69a2baf0" d="M 106.29282 -387.7555 
L 106.29282 -55.1155 
L 109.125307 -55.1155 
L 109.125307 -387.7555 
L 109.125307 -387.7555 
L 106.29282 -387.7555 
z
"/>
    </defs>
    <g clip-path="url(#p80ca85ae00)">
     <use xlink:href="#m5c69a2baf0" x="0" y="398.34866" style="fill: #d95f02; fill-opacity: 0.2"/>
    </g>
   </g>
   <g id="PolyCollection_19">
    <defs>
     <path id="m20767164ba" d="M 109.125307 -387.7555 
L 109.125307 -55.1155 
L 111.957794 -55.1155 
L 111.957794 -387.7555 
L 111.957794 -387.7555 
L 109.125307 -387.7555 
z
"/>
    </defs>
    <g clip-path="url(#p80ca85ae00)">
     <use xlink:href="#m20767164ba" x="0" y="398.34866" style="fill: #1b9e77; fill-opacity: 0.2"/>
    </g>
   </g>
   <g id="PolyCollection_20">
    <defs>
     <path id="mbd52716295" d="M 111.957794 -387.7555 
L 111.957794 -55.1155 
L 114.790282 -55.1155 
L 114.790282 -387.7555 
L 114.790282 -387.7555 
L 111.957794 -387.7555 
z
"/>
    </defs>
    <g clip-path="url(#p80ca85ae00)">
     <use xlink:href="#mbd52716295" x="0" y="398.34866" style="fill: #d95f02; fill-opacity: 0.2"/>
    </g>
   </g>
   <g id="PolyCollection_21">
    <defs>
     <path id="mdcc784b64c" d="M 114.790282 -387.7555 
L 114.790282 -55.1155 
L 117.622769 -55.1155 
L 117.622769 -387.7555 
L 117.622769 -387.7555 
L 114.790282 -387.7555 
z
"/>
    </defs>
    <g clip-path="url(#p80ca85ae00)">
     <use xlink:href="#mdcc784b64c" x="0" y="398.34866" style="fill: #d95f02; fill-opacity: 0.2"/>
    </g>
   </g>
   <g id="PolyCollection_22">
    <defs>
     <path id="me1e689fa90" d="M 117.622769 -387.7555 
L 117.622769 -55.1155 
L 120.455256 -55.1155 
L 120.455256 -387.7555 
L 120.455256 -387.7555 
L 117.622769 -387.7555 
z
"/>
    </defs>
    <g clip-path="url(#p80ca85ae00)">
     <use xlink:href="#me1e689fa90" x="0" y="398.34866" style="fill: #d95f02; fill-opacity: 0.2"/>
    </g>
   </g>
   <g id="PolyCollection_23">
    <defs>
     <path id="mb1d87c2b68" d="M 120.455256 -387.7555 
L 120.455256 -55.1155 
L 123.287744 -55.1155 
L 123.287744 -387.7555 
L 123.287744 -387.7555 
L 120.455256 -387.7555 
z
"/>
    </defs>
    <g clip-path="url(#p80ca85ae00)">
     <use xlink:href="#mb1d87c2b68" x="0" y="398.34866" style="fill: #d95f02; fill-opacity: 0.2"/>
    </g>
   </g>
   <g id="PolyCollection_24">
    <defs>
     <path id="m9f3192e32d" d="M 123.287744 -387.7555 
L 123.287744 -55.1155 
L 126.120231 -55.1155 
L 126.120231 -387.7555 
L 126.120231 -387.7555 
L 123.287744 -387.7555 
z
"/>
    </defs>
    <g clip-path="url(#p80ca85ae00)">
     <use xlink:href="#m9f3192e32d" x="0" y="398.34866" style="fill: #d95f02; fill-opacity: 0.2"/>
    </g>
   </g>
   <g id="PolyCollection_25">
    <defs>
     <path id="mc52408c999" d="M 126.120231 -387.7555 
L 126.120231 -55.1155 
L 128.952718 -55.1155 
L 128.952718 -387.7555 
L 128.952718 -387.7555 
L 126.120231 -387.7555 
z
"/>
    </defs>
    <g clip-path="url(#p80ca85ae00)">
     <use xlink:href="#mc52408c999" x="0" y="398.34866" style="fill: #d95f02; fill-opacity: 0.2"/>
    </g>
   </g>
   <g id="PolyCollection_26">
    <defs>
     <path id="m0efd0b628b" d="M 128.952718 -387.7555 
L 128.952718 -55.1155 
L 131.785206 -55.1155 
L 131.785206 -387.7555 
L 131.785206 -387.7555 
L 128.952718 -387.7555 
z
"/>
    </defs>
    <g clip-path="url(#p80ca85ae00)">
     <use xlink:href="#m0efd0b628b" x="0" y="398.34866" style="fill: #d95f02; fill-opacity: 0.2"/>
    </g>
   </g>
   <g id="PolyCollection_27">
    <defs>
     <path id="maee0a54021" d="M 131.785206 -387.7555 
L 131.785206 -55.1155 
L 134.617693 -55.1155 
L 134.617693 -387.7555 
L 134.617693 -387.7555 
L 131.785206 -387.7555 
z
"/>
    </defs>
    <g clip-path="url(#p80ca85ae00)">
     <use xlink:href="#maee0a54021" x="0" y="398.34866" style="fill: #1b9e77; fill-opacity: 0.2"/>
    </g>
   </g>
   <g id="PolyCollection_28">
    <defs>
     <path id="m32222904b8" d="M 134.617693 -387.7555 
L 134.617693 -55.1155 
L 137.45018 -55.1155 
L 137.45018 -387.7555 
L 137.45018 -387.7555 
L 134.617693 -387.7555 
z
"/>
    </defs>
    <g clip-path="url(#p80ca85ae00)">
     <use xlink:href="#m32222904b8" x="0" y="398.34866" style="fill: #1b9e77; fill-opacity: 0.2"/>
    </g>
   </g>
   <g id="PolyCollection_29">
    <defs>
     <path id="mddb7240ab8" d="M 137.45018 -387.7555 
L 137.45018 -55.1155 
L 140.282668 -55.1155 
L 140.282668 -387.7555 
L 140.282668 -387.7555 
L 137.45018 -387.7555 
z
"/>
    </defs>
    <g clip-path="url(#p80ca85ae00)">
     <use xlink:href="#mddb7240ab8" x="0" y="398.34866" style="fill: #1b9e77; fill-opacity: 0.2"/>
    </g>
   </g>
   <g id="PolyCollection_30">
    <defs>
     <path id="m3898864f1d" d="M 140.282668 -387.7555 
L 140.282668 -55.1155 
L 143.115155 -55.1155 
L 143.115155 -387.7555 
L 143.115155 -387.7555 
L 140.282668 -387.7555 
z
"/>
    </defs>
    <g clip-path="url(#p80ca85ae00)">
     <use xlink:href="#m3898864f1d" x="0" y="398.34866" style="fill: #d95f02; fill-opacity: 0.2"/>
    </g>
   </g>
   <g id="PolyCollection_31">
    <defs>
     <path id="m853aab845b" d="M 143.115155 -387.7555 
L 143.115155 -55.1155 
L 145.947642 -55.1155 
L 145.947642 -387.7555 
L 145.947642 -387.7555 
L 143.115155 -387.7555 
z
"/>
    </defs>
    <g clip-path="url(#p80ca85ae00)">
     <use xlink:href="#m853aab845b" x="0" y="398.34866" style="fill: #d95f02; fill-opacity: 0.2"/>
    </g>
   </g>
   <g id="PolyCollection_32">
    <defs>
     <path id="mef2fe1d9c9" d="M 145.947642 -387.7555 
L 145.947642 -55.1155 
L 148.780129 -55.1155 
L 148.780129 -387.7555 
L 148.780129 -387.7555 
L 145.947642 -387.7555 
z
"/>
    </defs>
    <g clip-path="url(#p80ca85ae00)">
     <use xlink:href="#mef2fe1d9c9" x="0" y="398.34866" style="fill: #d95f02; fill-opacity: 0.2"/>
    </g>
   </g>
   <g id="PolyCollection_33">
    <defs>
     <path id="md1c3e19c7f" d="M 148.780129 -387.7555 
L 148.780129 -55.1155 
L 151.612617 -55.1155 
L 151.612617 -387.7555 
L 151.612617 -387.7555 
L 148.780129 -387.7555 
z
"/>
    </defs>
    <g clip-path="url(#p80ca85ae00)">
     <use xlink:href="#md1c3e19c7f" x="0" y="398.34866" style="fill: #d95f02; fill-opacity: 0.2"/>
    </g>
   </g>
   <g id="PolyCollection_34">
    <defs>
     <path id="m348bfa57dc" d="M 151.612617 -387.7555 
L 151.612617 -55.1155 
L 154.445104 -55.1155 
L 154.445104 -387.7555 
L 154.445104 -387.7555 
L 151.612617 -387.7555 
z
"/>
    </defs>
    <g clip-path="url(#p80ca85ae00)">
     <use xlink:href="#m348bfa57dc" x="0" y="398.34866" style="fill: #d95f02; fill-opacity: 0.2"/>
    </g>
   </g>
   <g id="PolyCollection_35">
    <defs>
     <path id="me79f8b3edf" d="M 154.445104 -387.7555 
L 154.445104 -55.1155 
L 157.277591 -55.1155 
L 157.277591 -387.7555 
L 157.277591 -387.7555 
L 154.445104 -387.7555 
z
"/>
    </defs>
    <g clip-path="url(#p80ca85ae00)">
     <use xlink:href="#me79f8b3edf" x="0" y="398.34866" style="fill: #1b9e77; fill-opacity: 0.2"/>
    </g>
   </g>
   <g id="PolyCollection_36">
    <defs>
     <path id="me4823f24ef" d="M 157.277591 -387.7555 
L 157.277591 -55.1155 
L 160.110079 -55.1155 
L 160.110079 -387.7555 
L 160.110079 -387.7555 
L 157.277591 -387.7555 
z
"/>
    </defs>
    <g clip-path="url(#p80ca85ae00)">
     <use xlink:href="#me4823f24ef" x="0" y="398.34866" style="fill: #d95f02; fill-opacity: 0.2"/>
    </g>
   </g>
   <g id="PolyCollection_37">
    <defs>
     <path id="m5d4282ca4a" d="M 160.110079 -387.7555 
L 160.110079 -55.1155 
L 162.942566 -55.1155 
L 162.942566 -387.7555 
L 162.942566 -387.7555 
L 160.110079 -387.7555 
z
"/>
    </defs>
    <g clip-path="url(#p80ca85ae00)">
     <use xlink:href="#m5d4282ca4a" x="0" y="398.34866" style="fill: #d95f02; fill-opacity: 0.2"/>
    </g>
   </g>
   <g id="PolyCollection_38">
    <defs>
     <path id="mf07b89a450" d="M 162.942566 -387.7555 
L 162.942566 -55.1155 
L 165.775053 -55.1155 
L 165.775053 -387.7555 
L 165.775053 -387.7555 
L 162.942566 -387.7555 
z
"/>
    </defs>
    <g clip-path="url(#p80ca85ae00)">
     <use xlink:href="#mf07b89a450" x="0" y="398.34866" style="fill: #1b9e77; fill-opacity: 0.2"/>
    </g>
   </g>
   <g id="PolyCollection_39">
    <defs>
     <path id="mc75a8c3403" d="M 165.775053 -387.7555 
L 165.775053 -55.1155 
L 168.607541 -55.1155 
L 168.607541 -387.7555 
L 168.607541 -387.7555 
L 165.775053 -387.7555 
z
"/>
    </defs>
    <g clip-path="url(#p80ca85ae00)">
     <use xlink:href="#mc75a8c3403" x="0" y="398.34866" style="fill: #1b9e77; fill-opacity: 0.2"/>
    </g>
   </g>
   <g id="PolyCollection_40">
    <defs>
     <path id="m7d9ec6a428" d="M 168.607541 -387.7555 
L 168.607541 -55.1155 
L 171.440028 -55.1155 
L 171.440028 -387.7555 
L 171.440028 -387.7555 
L 168.607541 -387.7555 
z
"/>
    </defs>
    <g clip-path="url(#p80ca85ae00)">
     <use xlink:href="#m7d9ec6a428" x="0" y="398.34866" style="fill: #1b9e77; fill-opacity: 0.2"/>
    </g>
   </g>
   <g id="PolyCollection_41">
    <defs>
     <path id="m8246d90998" d="M 171.440028 -387.7555 
L 171.440028 -55.1155 
L 174.272515 -55.1155 
L 174.272515 -387.7555 
L 174.272515 -387.7555 
L 171.440028 -387.7555 
z
"/>
    </defs>
    <g clip-path="url(#p80ca85ae00)">
     <use xlink:href="#m8246d90998" x="0" y="398.34866" style="fill: #1b9e77; fill-opacity: 0.2"/>
    </g>
   </g>
   <g id="PolyCollection_42">
    <defs>
     <path id="m97747112d4" d="M 174.272515 -387.7555 
L 174.272515 -55.1155 
L 177.105003 -55.1155 
L 177.105003 -387.7555 
L 177.105003 -387.7555 
L 174.272515 -387.7555 
z
"/>
    </defs>
    <g clip-path="url(#p80ca85ae00)">
     <use xlink:href="#m97747112d4" x="0" y="398.34866" style="fill: #1b9e77; fill-opacity: 0.2"/>
    </g>
   </g>
   <g id="PolyCollection_43">
    <defs>
     <path id="mdda270a37f" d="M 177.105003 -387.7555 
L 177.105003 -55.1155 
L 179.93749 -55.1155 
L 179.93749 -387.7555 
L 179.93749 -387.7555 
L 177.105003 -387.7555 
z
"/>
    </defs>
    <g clip-path="url(#p80ca85ae00)">
     <use xlink:href="#mdda270a37f" x="0" y="398.34866" style="fill: #1b9e77; fill-opacity: 0.2"/>
    </g>
   </g>
   <g id="PolyCollection_44">
    <defs>
     <path id="m420a089530" d="M 179.93749 -387.7555 
L 179.93749 -55.1155 
L 182.769977 -55.1155 
L 182.769977 -387.7555 
L 182.769977 -387.7555 
L 179.93749 -387.7555 
z
"/>
    </defs>
    <g clip-path="url(#p80ca85ae00)">
     <use xlink:href="#m420a089530" x="0" y="398.34866" style="fill: #1b9e77; fill-opacity: 0.2"/>
    </g>
   </g>
   <g id="PolyCollection_45">
    <defs>
     <path id="m4b68941bdd" d="M 182.769977 -387.7555 
L 182.769977 -55.1155 
L 185.602464 -55.1155 
L 185.602464 -387.7555 
L 185.602464 -387.7555 
L 182.769977 -387.7555 
z
"/>
    </defs>
    <g clip-path="url(#p80ca85ae00)">
     <use xlink:href="#m4b68941bdd" x="0" y="398.34866" style="fill: #d95f02; fill-opacity: 0.2"/>
    </g>
   </g>
   <g id="PolyCollection_46">
    <defs>
     <path id="ma910b40b27" d="M 185.602464 -387.7555 
L 185.602464 -55.1155 
L 188.434952 -55.1155 
L 188.434952 -387.7555 
L 188.434952 -387.7555 
L 185.602464 -387.7555 
z
"/>
    </defs>
    <g clip-path="url(#p80ca85ae00)">
     <use xlink:href="#ma910b40b27" x="0" y="398.34866" style="fill: #1b9e77; fill-opacity: 0.2"/>
    </g>
   </g>
   <g id="PolyCollection_47">
    <defs>
     <path id="m6edff1b2d6" d="M 188.434952 -387.7555 
L 188.434952 -55.1155 
L 191.267439 -55.1155 
L 191.267439 -387.7555 
L 191.267439 -387.7555 
L 188.434952 -387.7555 
z
"/>
    </defs>
    <g clip-path="url(#p80ca85ae00)">
     <use xlink:href="#m6edff1b2d6" x="0" y="398.34866" style="fill: #d95f02; fill-opacity: 0.2"/>
    </g>
   </g>
   <g id="PolyCollection_48">
    <defs>
     <path id="m6c2c026aa7" d="M 191.267439 -387.7555 
L 191.267439 -55.1155 
L 194.099926 -55.1155 
L 194.099926 -387.7555 
L 194.099926 -387.7555 
L 191.267439 -387.7555 
z
"/>
    </defs>
    <g clip-path="url(#p80ca85ae00)">
     <use xlink:href="#m6c2c026aa7" x="0" y="398.34866" style="fill: #d95f02; fill-opacity: 0.2"/>
    </g>
   </g>
   <g id="PolyCollection_49">
    <defs>
     <path id="m0f439be777" d="M 194.099926 -387.7555 
L 194.099926 -55.1155 
L 196.932414 -55.1155 
L 196.932414 -387.7555 
L 196.932414 -387.7555 
L 194.099926 -387.7555 
z
"/>
    </defs>
    <g clip-path="url(#p80ca85ae00)">
     <use xlink:href="#m0f439be777" x="0" y="398.34866" style="fill: #d95f02; fill-opacity: 0.2"/>
    </g>
   </g>
   <g id="PolyCollection_50">
    <defs>
     <path id="m8666bcc9c7" d="M 196.932414 -387.7555 
L 196.932414 -55.1155 
L 199.764901 -55.1155 
L 199.764901 -387.7555 
L 199.764901 -387.7555 
L 196.932414 -387.7555 
z
"/>
    </defs>
    <g clip-path="url(#p80ca85ae00)">
     <use xlink:href="#m8666bcc9c7" x="0" y="398.34866" style="fill: #d95f02; fill-opacity: 0.2"/>
    </g>
   </g>
   <g id="PolyCollection_51">
    <defs>
     <path id="m1922b625cc" d="M 199.764901 -387.7555 
L 199.764901 -55.1155 
L 202.597388 -55.1155 
L 202.597388 -387.7555 
L 202.597388 -387.7555 
L 199.764901 -387.7555 
z
"/>
    </defs>
    <g clip-path="url(#p80ca85ae00)">
     <use xlink:href="#m1922b625cc" x="0" y="398.34866" style="fill: #d95f02; fill-opacity: 0.2"/>
    </g>
   </g>
   <g id="PolyCollection_52">
    <defs>
     <path id="m6f46a75b63" d="M 202.597388 -387.7555 
L 202.597388 -55.1155 
L 205.429876 -55.1155 
L 205.429876 -387.7555 
L 205.429876 -387.7555 
L 202.597388 -387.7555 
z
"/>
    </defs>
    <g clip-path="url(#p80ca85ae00)">
     <use xlink:href="#m6f46a75b63" x="0" y="398.34866" style="fill: #d95f02; fill-opacity: 0.2"/>
    </g>
   </g>
   <g id="PolyCollection_53">
    <defs>
     <path id="m7947b86bf8" d="M 205.429876 -387.7555 
L 205.429876 -55.1155 
L 208.262363 -55.1155 
L 208.262363 -387.7555 
L 208.262363 -387.7555 
L 205.429876 -387.7555 
z
"/>
    </defs>
    <g clip-path="url(#p80ca85ae00)">
     <use xlink:href="#m7947b86bf8" x="0" y="398.34866" style="fill: #d95f02; fill-opacity: 0.2"/>
    </g>
   </g>
   <g id="PolyCollection_54">
    <defs>
     <path id="mb33b96b34f" d="M 208.262363 -387.7555 
L 208.262363 -55.1155 
L 211.09485 -55.1155 
L 211.09485 -387.7555 
L 211.09485 -387.7555 
L 208.262363 -387.7555 
z
"/>
    </defs>
    <g clip-path="url(#p80ca85ae00)">
     <use xlink:href="#mb33b96b34f" x="0" y="398.34866" style="fill: #1b9e77; fill-opacity: 0.2"/>
    </g>
   </g>
   <g id="PolyCollection_55">
    <defs>
     <path id="md14b35568b" d="M 211.09485 -387.7555 
L 211.09485 -55.1155 
L 213.927338 -55.1155 
L 213.927338 -387.7555 
L 213.927338 -387.7555 
L 211.09485 -387.7555 
z
"/>
    </defs>
    <g clip-path="url(#p80ca85ae00)">
     <use xlink:href="#md14b35568b" x="0" y="398.34866" style="fill: #d95f02; fill-opacity: 0.2"/>
    </g>
   </g>
   <g id="PolyCollection_56">
    <defs>
     <path id="m58935e50d6" d="M 213.927338 -387.7555 
L 213.927338 -55.1155 
L 216.759825 -55.1155 
L 216.759825 -387.7555 
L 216.759825 -387.7555 
L 213.927338 -387.7555 
z
"/>
    </defs>
    <g clip-path="url(#p80ca85ae00)">
     <use xlink:href="#m58935e50d6" x="0" y="398.34866" style="fill: #d95f02; fill-opacity: 0.2"/>
    </g>
   </g>
   <g id="PolyCollection_57">
    <defs>
     <path id="m24200aa21c" d="M 216.759825 -387.7555 
L 216.759825 -55.1155 
L 219.592312 -55.1155 
L 219.592312 -387.7555 
L 219.592312 -387.7555 
L 216.759825 -387.7555 
z
"/>
    </defs>
    <g clip-path="url(#p80ca85ae00)">
     <use xlink:href="#m24200aa21c" x="0" y="398.34866" style="fill: #d95f02; fill-opacity: 0.2"/>
    </g>
   </g>
   <g id="PolyCollection_58">
    <defs>
     <path id="ma12c64b783" d="M 219.592312 -387.7555 
L 219.592312 -55.1155 
L 222.424799 -55.1155 
L 222.424799 -387.7555 
L 222.424799 -387.7555 
L 219.592312 -387.7555 
z
"/>
    </defs>
    <g clip-path="url(#p80ca85ae00)">
     <use xlink:href="#ma12c64b783" x="0" y="398.34866" style="fill: #d95f02; fill-opacity: 0.2"/>
    </g>
   </g>
   <g id="PolyCollection_59">
    <defs>
     <path id="m49e9e77ed2" d="M 222.424799 -387.7555 
L 222.424799 -55.1155 
L 225.257287 -55.1155 
L 225.257287 -387.7555 
L 225.257287 -387.7555 
L 222.424799 -387.7555 
z
"/>
    </defs>
    <g clip-path="url(#p80ca85ae00)">
     <use xlink:href="#m49e9e77ed2" x="0" y="398.34866" style="fill: #1b9e77; fill-opacity: 0.2"/>
    </g>
   </g>
   <g id="PolyCollection_60">
    <defs>
     <path id="mba1a709d55" d="M 225.257287 -387.7555 
L 225.257287 -55.1155 
L 228.089774 -55.1155 
L 228.089774 -387.7555 
L 228.089774 -387.7555 
L 225.257287 -387.7555 
z
"/>
    </defs>
    <g clip-path="url(#p80ca85ae00)">
     <use xlink:href="#mba1a709d55" x="0" y="398.34866" style="fill: #d95f02; fill-opacity: 0.2"/>
    </g>
   </g>
   <g id="PolyCollection_61">
    <defs>
     <path id="m398715626a" d="M 228.089774 -387.7555 
L 228.089774 -55.1155 
L 230.922261 -55.1155 
L 230.922261 -387.7555 
L 230.922261 -387.7555 
L 228.089774 -387.7555 
z
"/>
    </defs>
    <g clip-path="url(#p80ca85ae00)">
     <use xlink:href="#m398715626a" x="0" y="398.34866" style="fill: #1b9e77; fill-opacity: 0.2"/>
    </g>
   </g>
   <g id="PolyCollection_62">
    <defs>
     <path id="m8e8b10ae62" d="M 230.922261 -387.7555 
L 230.922261 -55.1155 
L 233.754749 -55.1155 
L 233.754749 -387.7555 
L 233.754749 -387.7555 
L 230.922261 -387.7555 
z
"/>
    </defs>
    <g clip-path="url(#p80ca85ae00)">
     <use xlink:href="#m8e8b10ae62" x="0" y="398.34866" style="fill: #d95f02; fill-opacity: 0.2"/>
    </g>
   </g>
   <g id="PolyCollection_63">
    <defs>
     <path id="m4533eaae01" d="M 233.754749 -387.7555 
L 233.754749 -55.1155 
L 236.587236 -55.1155 
L 236.587236 -387.7555 
L 236.587236 -387.7555 
L 233.754749 -387.7555 
z
"/>
    </defs>
    <g clip-path="url(#p80ca85ae00)">
     <use xlink:href="#m4533eaae01" x="0" y="398.34866" style="fill: #d95f02; fill-opacity: 0.2"/>
    </g>
   </g>
   <g id="PolyCollection_64">
    <defs>
     <path id="mdc4d5bb6e7" d="M 236.587236 -387.7555 
L 236.587236 -55.1155 
L 239.419723 -55.1155 
L 239.419723 -387.7555 
L 239.419723 -387.7555 
L 236.587236 -387.7555 
z
"/>
    </defs>
    <g clip-path="url(#p80ca85ae00)">
     <use xlink:href="#mdc4d5bb6e7" x="0" y="398.34866" style="fill: #d95f02; fill-opacity: 0.2"/>
    </g>
   </g>
   <g id="PolyCollection_65">
    <defs>
     <path id="m14810a369f" d="M 239.419723 -387.7555 
L 239.419723 -55.1155 
L 242.252211 -55.1155 
L 242.252211 -387.7555 
L 242.252211 -387.7555 
L 239.419723 -387.7555 
z
"/>
    </defs>
    <g clip-path="url(#p80ca85ae00)">
     <use xlink:href="#m14810a369f" x="0" y="398.34866" style="fill: #d95f02; fill-opacity: 0.2"/>
    </g>
   </g>
   <g id="PolyCollection_66">
    <defs>
     <path id="mda96ab14f8" d="M 242.252211 -387.7555 
L 242.252211 -55.1155 
L 245.084698 -55.1155 
L 245.084698 -387.7555 
L 245.084698 -387.7555 
L 242.252211 -387.7555 
z
"/>
    </defs>
    <g clip-path="url(#p80ca85ae00)">
     <use xlink:href="#mda96ab14f8" x="0" y="398.34866" style="fill: #d95f02; fill-opacity: 0.2"/>
    </g>
   </g>
   <g id="PolyCollection_67">
    <defs>
     <path id="m7f181ee53e" d="M 245.084698 -387.7555 
L 245.084698 -55.1155 
L 247.917185 -55.1155 
L 247.917185 -387.7555 
L 247.917185 -387.7555 
L 245.084698 -387.7555 
z
"/>
    </defs>
    <g clip-path="url(#p80ca85ae00)">
     <use xlink:href="#m7f181ee53e" x="0" y="398.34866" style="fill: #1b9e77; fill-opacity: 0.2"/>
    </g>
   </g>
   <g id="PolyCollection_68">
    <defs>
     <path id="m7766f99eda" d="M 247.917185 -387.7555 
L 247.917185 -55.1155 
L 250.749673 -55.1155 
L 250.749673 -387.7555 
L 250.749673 -387.7555 
L 247.917185 -387.7555 
z
"/>
    </defs>
    <g clip-path="url(#p80ca85ae00)">
     <use xlink:href="#m7766f99eda" x="0" y="398.34866" style="fill: #1b9e77; fill-opacity: 0.2"/>
    </g>
   </g>
   <g id="PolyCollection_69">
    <defs>
     <path id="mb61d133685" d="M 250.749673 -387.7555 
L 250.749673 -55.1155 
L 253.58216 -55.1155 
L 253.58216 -387.7555 
L 253.58216 -387.7555 
L 250.749673 -387.7555 
z
"/>
    </defs>
    <g clip-path="url(#p80ca85ae00)">
     <use xlink:href="#mb61d133685" x="0" y="398.34866" style="fill: #d95f02; fill-opacity: 0.2"/>
    </g>
   </g>
   <g id="PolyCollection_70">
    <defs>
     <path id="m6f0095cae6" d="M 253.58216 -387.7555 
L 253.58216 -55.1155 
L 256.414647 -55.1155 
L 256.414647 -387.7555 
L 256.414647 -387.7555 
L 253.58216 -387.7555 
z
"/>
    </defs>
    <g clip-path="url(#p80ca85ae00)">
     <use xlink:href="#m6f0095cae6" x="0" y="398.34866" style="fill: #d95f02; fill-opacity: 0.2"/>
    </g>
   </g>
   <g id="PolyCollection_71">
    <defs>
     <path id="me3ceeda931" d="M 256.414647 -387.7555 
L 256.414647 -55.1155 
L 259.247135 -55.1155 
L 259.247135 -387.7555 
L 259.247135 -387.7555 
L 256.414647 -387.7555 
z
"/>
    </defs>
    <g clip-path="url(#p80ca85ae00)">
     <use xlink:href="#me3ceeda931" x="0" y="398.34866" style="fill: #d95f02; fill-opacity: 0.2"/>
    </g>
   </g>
   <g id="PolyCollection_72">
    <defs>
     <path id="me402d2ab24" d="M 259.247135 -387.7555 
L 259.247135 -55.1155 
L 262.079622 -55.1155 
L 262.079622 -387.7555 
L 262.079622 -387.7555 
L 259.247135 -387.7555 
z
"/>
    </defs>
    <g clip-path="url(#p80ca85ae00)">
     <use xlink:href="#me402d2ab24" x="0" y="398.34866" style="fill: #d95f02; fill-opacity: 0.2"/>
    </g>
   </g>
   <g id="PolyCollection_73">
    <defs>
     <path id="me6f51c4173" d="M 262.079622 -387.7555 
L 262.079622 -55.1155 
L 264.912109 -55.1155 
L 264.912109 -387.7555 
L 264.912109 -387.7555 
L 262.079622 -387.7555 
z
"/>
    </defs>
    <g clip-path="url(#p80ca85ae00)">
     <use xlink:href="#me6f51c4173" x="0" y="398.34866" style="fill: #d95f02; fill-opacity: 0.2"/>
    </g>
   </g>
   <g id="PolyCollection_74">
    <defs>
     <path id="m7a68e47f26" d="M 264.912109 -387.7555 
L 264.912109 -55.1155 
L 267.744596 -55.1155 
L 267.744596 -387.7555 
L 267.744596 -387.7555 
L 264.912109 -387.7555 
z
"/>
    </defs>
    <g clip-path="url(#p80ca85ae00)">
     <use xlink:href="#m7a68e47f26" x="0" y="398.34866" style="fill: #d95f02; fill-opacity: 0.2"/>
    </g>
   </g>
   <g id="PolyCollection_75">
    <defs>
     <path id="m08f9314c3a" d="M 267.744596 -387.7555 
L 267.744596 -55.1155 
L 270.577084 -55.1155 
L 270.577084 -387.7555 
L 270.577084 -387.7555 
L 267.744596 -387.7555 
z
"/>
    </defs>
    <g clip-path="url(#p80ca85ae00)">
     <use xlink:href="#m08f9314c3a" x="0" y="398.34866" style="fill: #d95f02; fill-opacity: 0.2"/>
    </g>
   </g>
   <g id="PolyCollection_76">
    <defs>
     <path id="m7187aa942e" d="M 270.577084 -387.7555 
L 270.577084 -55.1155 
L 273.409571 -55.1155 
L 273.409571 -387.7555 
L 273.409571 -387.7555 
L 270.577084 -387.7555 
z
"/>
    </defs>
    <g clip-path="url(#p80ca85ae00)">
     <use xlink:href="#m7187aa942e" x="0" y="398.34866" style="fill: #d95f02; fill-opacity: 0.2"/>
    </g>
   </g>
   <g id="PolyCollection_77">
    <defs>
     <path id="m3773217eb8" d="M 273.409571 -387.7555 
L 273.409571 -55.1155 
L 276.242058 -55.1155 
L 276.242058 -387.7555 
L 276.242058 -387.7555 
L 273.409571 -387.7555 
z
"/>
    </defs>
    <g clip-path="url(#p80ca85ae00)">
     <use xlink:href="#m3773217eb8" x="0" y="398.34866" style="fill: #1b9e77; fill-opacity: 0.2"/>
    </g>
   </g>
   <g id="PolyCollection_78">
    <defs>
     <path id="m6946ea0312" d="M 276.242058 -387.7555 
L 276.242058 -55.1155 
L 279.074546 -55.1155 
L 279.074546 -387.7555 
L 279.074546 -387.7555 
L 276.242058 -387.7555 
z
"/>
    </defs>
    <g clip-path="url(#p80ca85ae00)">
     <use xlink:href="#m6946ea0312" x="0" y="398.34866" style="fill: #d95f02; fill-opacity: 0.2"/>
    </g>
   </g>
   <g id="PolyCollection_79">
    <defs>
     <path id="m69ba0b855f" d="M 279.074546 -387.7555 
L 279.074546 -55.1155 
L 281.907033 -55.1155 
L 281.907033 -387.7555 
L 281.907033 -387.7555 
L 279.074546 -387.7555 
z
"/>
    </defs>
    <g clip-path="url(#p80ca85ae00)">
     <use xlink:href="#m69ba0b855f" x="0" y="398.34866" style="fill: #d95f02; fill-opacity: 0.2"/>
    </g>
   </g>
   <g id="PolyCollection_80">
    <defs>
     <path id="md806df48c9" d="M 281.907033 -387.7555 
L 281.907033 -55.1155 
L 284.73952 -55.1155 
L 284.73952 -387.7555 
L 284.73952 -387.7555 
L 281.907033 -387.7555 
z
"/>
    </defs>
    <g clip-path="url(#p80ca85ae00)">
     <use xlink:href="#md806df48c9" x="0" y="398.34866" style="fill: #d95f02; fill-opacity: 0.2"/>
    </g>
   </g>
   <g id="PolyCollection_81">
    <defs>
     <path id="m885edca46b" d="M 284.73952 -387.7555 
L 284.73952 -55.1155 
L 287.572008 -55.1155 
L 287.572008 -387.7555 
L 287.572008 -387.7555 
L 284.73952 -387.7555 
z
"/>
    </defs>
    <g clip-path="url(#p80ca85ae00)">
     <use xlink:href="#m885edca46b" x="0" y="398.34866" style="fill: #d95f02; fill-opacity: 0.2"/>
    </g>
   </g>
   <g id="PolyCollection_82">
    <defs>
     <path id="m1aab727b67" d="M 287.572008 -387.7555 
L 287.572008 -55.1155 
L 290.404495 -55.1155 
L 290.404495 -387.7555 
L 290.404495 -387.7555 
L 287.572008 -387.7555 
z
"/>
    </defs>
    <g clip-path="url(#p80ca85ae00)">
     <use xlink:href="#m1aab727b67" x="0" y="398.34866" style="fill: #d95f02; fill-opacity: 0.2"/>
    </g>
   </g>
   <g id="PolyCollection_83">
    <defs>
     <path id="mbdbb7e10af" d="M 290.404495 -387.7555 
L 290.404495 -55.1155 
L 293.236982 -55.1155 
L 293.236982 -387.7555 
L 293.236982 -387.7555 
L 290.404495 -387.7555 
z
"/>
    </defs>
    <g clip-path="url(#p80ca85ae00)">
     <use xlink:href="#mbdbb7e10af" x="0" y="398.34866" style="fill: #d95f02; fill-opacity: 0.2"/>
    </g>
   </g>
   <g id="PolyCollection_84">
    <defs>
     <path id="mc71f552229" d="M 293.236982 -387.7555 
L 293.236982 -55.1155 
L 296.06947 -55.1155 
L 296.06947 -387.7555 
L 296.06947 -387.7555 
L 293.236982 -387.7555 
z
"/>
    </defs>
    <g clip-path="url(#p80ca85ae00)">
     <use xlink:href="#mc71f552229" x="0" y="398.34866" style="fill: #d95f02; fill-opacity: 0.2"/>
    </g>
   </g>
   <g id="PolyCollection_85">
    <defs>
     <path id="m715f9947a0" d="M 296.06947 -387.7555 
L 296.06947 -55.1155 
L 298.901957 -55.1155 
L 298.901957 -387.7555 
L 298.901957 -387.7555 
L 296.06947 -387.7555 
z
"/>
    </defs>
    <g clip-path="url(#p80ca85ae00)">
     <use xlink:href="#m715f9947a0" x="0" y="398.34866" style="fill: #d95f02; fill-opacity: 0.2"/>
    </g>
   </g>
   <g id="PolyCollection_86">
    <defs>
     <path id="m6e3a78baf1" d="M 298.901957 -387.7555 
L 298.901957 -55.1155 
L 301.734444 -55.1155 
L 301.734444 -387.7555 
L 301.734444 -387.7555 
L 298.901957 -387.7555 
z
"/>
    </defs>
    <g clip-path="url(#p80ca85ae00)">
     <use xlink:href="#m6e3a78baf1" x="0" y="398.34866" style="fill: #d95f02; fill-opacity: 0.2"/>
    </g>
   </g>
   <g id="PolyCollection_87">
    <defs>
     <path id="macc5730240" d="M 301.734444 -387.7555 
L 301.734444 -55.1155 
L 304.566931 -55.1155 
L 304.566931 -387.7555 
L 304.566931 -387.7555 
L 301.734444 -387.7555 
z
"/>
    </defs>
    <g clip-path="url(#p80ca85ae00)">
     <use xlink:href="#macc5730240" x="0" y="398.34866" style="fill: #d95f02; fill-opacity: 0.2"/>
    </g>
   </g>
   <g id="PolyCollection_88">
    <defs>
     <path id="md0ab99bdae" d="M 304.566931 -387.7555 
L 304.566931 -55.1155 
L 307.399419 -55.1155 
L 307.399419 -387.7555 
L 307.399419 -387.7555 
L 304.566931 -387.7555 
z
"/>
    </defs>
    <g clip-path="url(#p80ca85ae00)">
     <use xlink:href="#md0ab99bdae" x="0" y="398.34866" style="fill: #d95f02; fill-opacity: 0.2"/>
    </g>
   </g>
   <g id="PolyCollection_89">
    <defs>
     <path id="mc61ffb87a2" d="M 307.399419 -387.7555 
L 307.399419 -55.1155 
L 310.231906 -55.1155 
L 310.231906 -387.7555 
L 310.231906 -387.7555 
L 307.399419 -387.7555 
z
"/>
    </defs>
    <g clip-path="url(#p80ca85ae00)">
     <use xlink:href="#mc61ffb87a2" x="0" y="398.34866" style="fill: #d95f02; fill-opacity: 0.2"/>
    </g>
   </g>
   <g id="PolyCollection_90">
    <defs>
     <path id="m829e5d13fe" d="M 310.231906 -387.7555 
L 310.231906 -55.1155 
L 313.064393 -55.1155 
L 313.064393 -387.7555 
L 313.064393 -387.7555 
L 310.231906 -387.7555 
z
"/>
    </defs>
    <g clip-path="url(#p80ca85ae00)">
     <use xlink:href="#m829e5d13fe" x="0" y="398.34866" style="fill: #d95f02; fill-opacity: 0.2"/>
    </g>
   </g>
   <g id="PolyCollection_91">
    <defs>
     <path id="m25134b7498" d="M 313.064393 -387.7555 
L 313.064393 -55.1155 
L 315.896881 -55.1155 
L 315.896881 -387.7555 
L 315.896881 -387.7555 
L 313.064393 -387.7555 
z
"/>
    </defs>
    <g clip-path="url(#p80ca85ae00)">
     <use xlink:href="#m25134b7498" x="0" y="398.34866" style="fill: #d95f02; fill-opacity: 0.2"/>
    </g>
   </g>
   <g id="PolyCollection_92">
    <defs>
     <path id="m156594889f" d="M 315.896881 -387.7555 
L 315.896881 -55.1155 
L 318.729368 -55.1155 
L 318.729368 -387.7555 
L 318.729368 -387.7555 
L 315.896881 -387.7555 
z
"/>
    </defs>
    <g clip-path="url(#p80ca85ae00)">
     <use xlink:href="#m156594889f" x="0" y="398.34866" style="fill: #d95f02; fill-opacity: 0.2"/>
    </g>
   </g>
   <g id="PolyCollection_93">
    <defs>
     <path id="mb1c50aff9c" d="M 318.729368 -387.7555 
L 318.729368 -55.1155 
L 321.561855 -55.1155 
L 321.561855 -387.7555 
L 321.561855 -387.7555 
L 318.729368 -387.7555 
z
"/>
    </defs>
    <g clip-path="url(#p80ca85ae00)">
     <use xlink:href="#mb1c50aff9c" x="0" y="398.34866" style="fill: #d95f02; fill-opacity: 0.2"/>
    </g>
   </g>
   <g id="PolyCollection_94">
    <defs>
     <path id="md4693a345b" d="M 321.561855 -387.7555 
L 321.561855 -55.1155 
L 324.394343 -55.1155 
L 324.394343 -387.7555 
L 324.394343 -387.7555 
L 321.561855 -387.7555 
z
"/>
    </defs>
    <g clip-path="url(#p80ca85ae00)">
     <use xlink:href="#md4693a345b" x="0" y="398.34866" style="fill: #d95f02; fill-opacity: 0.2"/>
    </g>
   </g>
   <g id="PolyCollection_95">
    <defs>
     <path id="m66753f8f11" d="M 324.394343 -387.7555 
L 324.394343 -55.1155 
L 327.22683 -55.1155 
L 327.22683 -387.7555 
L 327.22683 -387.7555 
L 324.394343 -387.7555 
z
"/>
    </defs>
    <g clip-path="url(#p80ca85ae00)">
     <use xlink:href="#m66753f8f11" x="0" y="398.34866" style="fill: #d95f02; fill-opacity: 0.2"/>
    </g>
   </g>
   <g id="PolyCollection_96">
    <defs>
     <path id="m00172113c4" d="M 327.22683 -387.7555 
L 327.22683 -55.1155 
L 330.059317 -55.1155 
L 330.059317 -387.7555 
L 330.059317 -387.7555 
L 327.22683 -387.7555 
z
"/>
    </defs>
    <g clip-path="url(#p80ca85ae00)">
     <use xlink:href="#m00172113c4" x="0" y="398.34866" style="fill: #d95f02; fill-opacity: 0.2"/>
    </g>
   </g>
   <g id="PolyCollection_97">
    <defs>
     <path id="m3584735253" d="M 330.059317 -387.7555 
L 330.059317 -55.1155 
L 332.891805 -55.1155 
L 332.891805 -387.7555 
L 332.891805 -387.7555 
L 330.059317 -387.7555 
z
"/>
    </defs>
    <g clip-path="url(#p80ca85ae00)">
     <use xlink:href="#m3584735253" x="0" y="398.34866" style="fill: #d95f02; fill-opacity: 0.2"/>
    </g>
   </g>
   <g id="PolyCollection_98">
    <defs>
     <path id="m9e1b19b221" d="M 332.891805 -387.7555 
L 332.891805 -55.1155 
L 335.724292 -55.1155 
L 335.724292 -387.7555 
L 335.724292 -387.7555 
L 332.891805 -387.7555 
z
"/>
    </defs>
    <g clip-path="url(#p80ca85ae00)">
     <use xlink:href="#m9e1b19b221" x="0" y="398.34866" style="fill: #d95f02; fill-opacity: 0.2"/>
    </g>
   </g>
   <g id="PolyCollection_99">
    <defs>
     <path id="mbf0ec24d99" d="M 335.724292 -387.7555 
L 335.724292 -55.1155 
L 338.556779 -55.1155 
L 338.556779 -387.7555 
L 338.556779 -387.7555 
L 335.724292 -387.7555 
z
"/>
    </defs>
    <g clip-path="url(#p80ca85ae00)">
     <use xlink:href="#mbf0ec24d99" x="0" y="398.34866" style="fill: #d95f02; fill-opacity: 0.2"/>
    </g>
   </g>
   <g id="PolyCollection_100">
    <defs>
     <path id="mde5dda6a5b" d="M 338.556779 -387.7555 
L 338.556779 -55.1155 
L 341.389266 -55.1155 
L 341.389266 -387.7555 
L 341.389266 -387.7555 
L 338.556779 -387.7555 
z
"/>
    </defs>
    <g clip-path="url(#p80ca85ae00)">
     <use xlink:href="#mde5dda6a5b" x="0" y="398.34866" style="fill: #d95f02; fill-opacity: 0.2"/>
    </g>
   </g>
   <g id="PolyCollection_101">
    <defs>
     <path id="m04001b46f5" d="M 341.389266 -387.7555 
L 341.389266 -55.1155 
L 344.221754 -55.1155 
L 344.221754 -387.7555 
L 344.221754 -387.7555 
L 341.389266 -387.7555 
z
"/>
    </defs>
    <g clip-path="url(#p80ca85ae00)">
     <use xlink:href="#m04001b46f5" x="0" y="398.34866" style="fill: #d95f02; fill-opacity: 0.2"/>
    </g>
   </g>
   <g id="PolyCollection_102">
    <defs>
     <path id="mfd234b5d91" d="M 344.221754 -387.7555 
L 344.221754 -55.1155 
L 347.054241 -55.1155 
L 347.054241 -387.7555 
L 347.054241 -387.7555 
L 344.221754 -387.7555 
z
"/>
    </defs>
    <g clip-path="url(#p80ca85ae00)">
     <use xlink:href="#mfd234b5d91" x="0" y="398.34866" style="fill: #d95f02; fill-opacity: 0.2"/>
    </g>
   </g>
   <g id="PolyCollection_103">
    <defs>
     <path id="m162bab2c8a" d="M 347.054241 -387.7555 
L 347.054241 -55.1155 
L 349.886728 -55.1155 
L 349.886728 -387.7555 
L 349.886728 -387.7555 
L 347.054241 -387.7555 
z
"/>
    </defs>
    <g clip-path="url(#p80ca85ae00)">
     <use xlink:href="#m162bab2c8a" x="0" y="398.34866" style="fill: #d95f02; fill-opacity: 0.2"/>
    </g>
   </g>
   <g id="PolyCollection_104">
    <defs>
     <path id="m57cd050d1d" d="M 349.886728 -387.7555 
L 349.886728 -55.1155 
L 352.719216 -55.1155 
L 352.719216 -387.7555 
L 352.719216 -387.7555 
L 349.886728 -387.7555 
z
"/>
    </defs>
    <g clip-path="url(#p80ca85ae00)">
     <use xlink:href="#m57cd050d1d" x="0" y="398.34866" style="fill: #d95f02; fill-opacity: 0.2"/>
    </g>
   </g>
   <g id="PolyCollection_105">
    <defs>
     <path id="m477fc83636" d="M 352.719216 -387.7555 
L 352.719216 -55.1155 
L 355.551703 -55.1155 
L 355.551703 -387.7555 
L 355.551703 -387.7555 
L 352.719216 -387.7555 
z
"/>
    </defs>
    <g clip-path="url(#p80ca85ae00)">
     <use xlink:href="#m477fc83636" x="0" y="398.34866" style="fill: #d95f02; fill-opacity: 0.2"/>
    </g>
   </g>
   <g id="PolyCollection_106">
    <defs>
     <path id="m5201fecfdf" d="M 355.551703 -387.7555 
L 355.551703 -55.1155 
L 358.38419 -55.1155 
L 358.38419 -387.7555 
L 358.38419 -387.7555 
L 355.551703 -387.7555 
z
"/>
    </defs>
    <g clip-path="url(#p80ca85ae00)">
     <use xlink:href="#m5201fecfdf" x="0" y="398.34866" style="fill: #d95f02; fill-opacity: 0.2"/>
    </g>
   </g>
   <g id="PolyCollection_107">
    <defs>
     <path id="m52defbf7ab" d="M 358.38419 -387.7555 
L 358.38419 -55.1155 
L 361.216678 -55.1155 
L 361.216678 -387.7555 
L 361.216678 -387.7555 
L 358.38419 -387.7555 
z
"/>
    </defs>
    <g clip-path="url(#p80ca85ae00)">
     <use xlink:href="#m52defbf7ab" x="0" y="398.34866" style="fill: #d95f02; fill-opacity: 0.2"/>
    </g>
   </g>
   <g id="PolyCollection_108">
    <defs>
     <path id="m6cae1bbb78" d="M 361.216678 -387.7555 
L 361.216678 -55.1155 
L 364.049165 -55.1155 
L 364.049165 -387.7555 
L 364.049165 -387.7555 
L 361.216678 -387.7555 
z
"/>
    </defs>
    <g clip-path="url(#p80ca85ae00)">
     <use xlink:href="#m6cae1bbb78" x="0" y="398.34866" style="fill: #d95f02; fill-opacity: 0.2"/>
    </g>
   </g>
   <g id="PolyCollection_109">
    <defs>
     <path id="mf0e9df19a9" d="M 364.049165 -387.7555 
L 364.049165 -55.1155 
L 366.881652 -55.1155 
L 366.881652 -387.7555 
L 366.881652 -387.7555 
L 364.049165 -387.7555 
z
"/>
    </defs>
    <g clip-path="url(#p80ca85ae00)">
     <use xlink:href="#mf0e9df19a9" x="0" y="398.34866" style="fill: #d95f02; fill-opacity: 0.2"/>
    </g>
   </g>
   <g id="PolyCollection_110">
    <defs>
     <path id="me61f65a905" d="M 366.881652 -387.7555 
L 366.881652 -55.1155 
L 369.71414 -55.1155 
L 369.71414 -387.7555 
L 369.71414 -387.7555 
L 366.881652 -387.7555 
z
"/>
    </defs>
    <g clip-path="url(#p80ca85ae00)">
     <use xlink:href="#me61f65a905" x="0" y="398.34866" style="fill: #d95f02; fill-opacity: 0.2"/>
    </g>
   </g>
   <g id="PolyCollection_111">
    <defs>
     <path id="ma892f759cc" d="M 369.71414 -387.7555 
L 369.71414 -55.1155 
L 372.546627 -55.1155 
L 372.546627 -387.7555 
L 372.546627 -387.7555 
L 369.71414 -387.7555 
z
"/>
    </defs>
    <g clip-path="url(#p80ca85ae00)">
     <use xlink:href="#ma892f759cc" x="0" y="398.34866" style="fill: #d95f02; fill-opacity: 0.2"/>
    </g>
   </g>
   <g id="PolyCollection_112">
    <defs>
     <path id="m3128e0ede8" d="M 372.546627 -387.7555 
L 372.546627 -55.1155 
L 375.379114 -55.1155 
L 375.379114 -387.7555 
L 375.379114 -387.7555 
L 372.546627 -387.7555 
z
"/>
    </defs>
    <g clip-path="url(#p80ca85ae00)">
     <use xlink:href="#m3128e0ede8" x="0" y="398.34866" style="fill: #d95f02; fill-opacity: 0.2"/>
    </g>
   </g>
   <g id="PolyCollection_113">
    <defs>
     <path id="md561d29018" d="M 375.379114 -387.7555 
L 375.379114 -55.1155 
L 378.211602 -55.1155 
L 378.211602 -387.7555 
L 378.211602 -387.7555 
L 375.379114 -387.7555 
z
"/>
    </defs>
    <g clip-path="url(#p80ca85ae00)">
     <use xlink:href="#md561d29018" x="0" y="398.34866" style="fill: #d95f02; fill-opacity: 0.2"/>
    </g>
   </g>
   <g id="PolyCollection_114">
    <defs>
     <path id="m5f8fb3d6a6" d="M 378.211602 -387.7555 
L 378.211602 -55.1155 
L 381.044089 -55.1155 
L 381.044089 -387.7555 
L 381.044089 -387.7555 
L 378.211602 -387.7555 
z
"/>
    </defs>
    <g clip-path="url(#p80ca85ae00)">
     <use xlink:href="#m5f8fb3d6a6" x="0" y="398.34866" style="fill: #d95f02; fill-opacity: 0.2"/>
    </g>
   </g>
   <g id="PolyCollection_115">
    <defs>
     <path id="mb4dec5018c" d="M 381.044089 -387.7555 
L 381.044089 -55.1155 
L 383.876576 -55.1155 
L 383.876576 -387.7555 
L 383.876576 -387.7555 
L 381.044089 -387.7555 
z
"/>
    </defs>
    <g clip-path="url(#p80ca85ae00)">
     <use xlink:href="#mb4dec5018c" x="0" y="398.34866" style="fill: #d95f02; fill-opacity: 0.2"/>
    </g>
   </g>
   <g id="PolyCollection_116">
    <defs>
     <path id="m20eb48b267" d="M 383.876576 -387.7555 
L 383.876576 -55.1155 
L 386.709063 -55.1155 
L 386.709063 -387.7555 
L 386.709063 -387.7555 
L 383.876576 -387.7555 
z
"/>
    </defs>
    <g clip-path="url(#p80ca85ae00)">
     <use xlink:href="#m20eb48b267" x="0" y="398.34866" style="fill: #d95f02; fill-opacity: 0.2"/>
    </g>
   </g>
   <g id="PolyCollection_117">
    <defs>
     <path id="m44d83c9fac" d="M 386.709063 -387.7555 
L 386.709063 -55.1155 
L 389.541551 -55.1155 
L 389.541551 -387.7555 
L 389.541551 -387.7555 
L 386.709063 -387.7555 
z
"/>
    </defs>
    <g clip-path="url(#p80ca85ae00)">
     <use xlink:href="#m44d83c9fac" x="0" y="398.34866" style="fill: #d95f02; fill-opacity: 0.2"/>
    </g>
   </g>
   <g id="PolyCollection_118">
    <defs>
     <path id="m235da5235c" d="M 389.541551 -387.7555 
L 389.541551 -55.1155 
L 392.374038 -55.1155 
L 392.374038 -387.7555 
L 392.374038 -387.7555 
L 389.541551 -387.7555 
z
"/>
    </defs>
    <g clip-path="url(#p80ca85ae00)">
     <use xlink:href="#m235da5235c" x="0" y="398.34866" style="fill: #d95f02; fill-opacity: 0.2"/>
    </g>
   </g>
   <g id="PolyCollection_119">
    <defs>
     <path id="m8650e24c12" d="M 392.374038 -387.7555 
L 392.374038 -55.1155 
L 395.206525 -55.1155 
L 395.206525 -387.7555 
L 395.206525 -387.7555 
L 392.374038 -387.7555 
z
"/>
    </defs>
    <g clip-path="url(#p80ca85ae00)">
     <use xlink:href="#m8650e24c12" x="0" y="398.34866" style="fill: #d95f02; fill-opacity: 0.2"/>
    </g>
   </g>
   <g id="PolyCollection_120">
    <defs>
     <path id="m073beac45a" d="M 395.206525 -387.7555 
L 395.206525 -55.1155 
L 398.039013 -55.1155 
L 398.039013 -387.7555 
L 398.039013 -387.7555 
L 395.206525 -387.7555 
z
"/>
    </defs>
    <g clip-path="url(#p80ca85ae00)">
     <use xlink:href="#m073beac45a" x="0" y="398.34866" style="fill: #d95f02; fill-opacity: 0.2"/>
    </g>
   </g>
   <g id="PolyCollection_121">
    <defs>
     <path id="m6ab62a964b" d="M 398.039013 -387.7555 
L 398.039013 -55.1155 
L 400.8715 -55.1155 
L 400.8715 -387.7555 
L 400.8715 -387.7555 
L 398.039013 -387.7555 
z
"/>
    </defs>
    <g clip-path="url(#p80ca85ae00)">
     <use xlink:href="#m6ab62a964b" x="0" y="398.34866" style="fill: #d95f02; fill-opacity: 0.2"/>
    </g>
   </g>
   <g id="PolyCollection_122">
    <defs>
     <path id="m124daa87ca" d="M 400.8715 -387.7555 
L 400.8715 -55.1155 
L 403.703987 -55.1155 
L 403.703987 -387.7555 
L 403.703987 -387.7555 
L 400.8715 -387.7555 
z
"/>
    </defs>
    <g clip-path="url(#p80ca85ae00)">
     <use xlink:href="#m124daa87ca" x="0" y="398.34866" style="fill: #d95f02; fill-opacity: 0.2"/>
    </g>
   </g>
   <g id="PolyCollection_123">
    <defs>
     <path id="m9f7a491e0a" d="M 403.703987 -387.7555 
L 403.703987 -55.1155 
L 406.536475 -55.1155 
L 406.536475 -387.7555 
L 406.536475 -387.7555 
L 403.703987 -387.7555 
z
"/>
    </defs>
    <g clip-path="url(#p80ca85ae00)">
     <use xlink:href="#m9f7a491e0a" x="0" y="398.34866" style="fill: #d95f02; fill-opacity: 0.2"/>
    </g>
   </g>
   <g id="PolyCollection_124">
    <defs>
     <path id="m6285a7510a" d="M 406.536475 -387.7555 
L 406.536475 -55.1155 
L 409.368962 -55.1155 
L 409.368962 -387.7555 
L 409.368962 -387.7555 
L 406.536475 -387.7555 
z
"/>
    </defs>
    <g clip-path="url(#p80ca85ae00)">
     <use xlink:href="#m6285a7510a" x="0" y="398.34866" style="fill: #1b9e77; fill-opacity: 0.2"/>
    </g>
   </g>
   <g id="PolyCollection_125">
    <defs>
     <path id="madbf545d55" d="M 409.368962 -387.7555 
L 409.368962 -55.1155 
L 412.201449 -55.1155 
L 412.201449 -387.7555 
L 412.201449 -387.7555 
L 409.368962 -387.7555 
z
"/>
    </defs>
    <g clip-path="url(#p80ca85ae00)">
     <use xlink:href="#madbf545d55" x="0" y="398.34866" style="fill: #d95f02; fill-opacity: 0.2"/>
    </g>
   </g>
   <g id="PolyCollection_126">
    <defs>
     <path id="mc4e8de4572" d="M 412.201449 -387.7555 
L 412.201449 -55.1155 
L 415.033937 -55.1155 
L 415.033937 -387.7555 
L 415.033937 -387.7555 
L 412.201449 -387.7555 
z
"/>
    </defs>
    <g clip-path="url(#p80ca85ae00)">
     <use xlink:href="#mc4e8de4572" x="0" y="398.34866" style="fill: #1b9e77; fill-opacity: 0.2"/>
    </g>
   </g>
   <g id="PolyCollection_127">
    <defs>
     <path id="me891f5e68b" d="M 415.033937 -387.7555 
L 415.033937 -55.1155 
L 417.866424 -55.1155 
L 417.866424 -387.7555 
L 417.866424 -387.7555 
L 415.033937 -387.7555 
z
"/>
    </defs>
    <g clip-path="url(#p80ca85ae00)">
     <use xlink:href="#me891f5e68b" x="0" y="398.34866" style="fill: #d95f02; fill-opacity: 0.2"/>
    </g>
   </g>
   <g id="PolyCollection_128">
    <defs>
     <path id="ma85d4b8211" d="M 417.866424 -387.7555 
L 417.866424 -55.1155 
L 420.698911 -55.1155 
L 420.698911 -387.7555 
L 420.698911 -387.7555 
L 417.866424 -387.7555 
z
"/>
    </defs>
    <g clip-path="url(#p80ca85ae00)">
     <use xlink:href="#ma85d4b8211" x="0" y="398.34866" style="fill: #d95f02; fill-opacity: 0.2"/>
    </g>
   </g>
   <g id="PolyCollection_129">
    <defs>
     <path id="m53f5fb519e" d="M 420.698911 -387.7555 
L 420.698911 -55.1155 
L 423.531398 -55.1155 
L 423.531398 -387.7555 
L 423.531398 -387.7555 
L 420.698911 -387.7555 
z
"/>
    </defs>
    <g clip-path="url(#p80ca85ae00)">
     <use xlink:href="#m53f5fb519e" x="0" y="398.34866" style="fill: #1b9e77; fill-opacity: 0.2"/>
    </g>
   </g>
   <g id="PolyCollection_130">
    <defs>
     <path id="ma05df87400" d="M 423.531398 -387.7555 
L 423.531398 -55.1155 
L 426.363886 -55.1155 
L 426.363886 -387.7555 
L 426.363886 -387.7555 
L 423.531398 -387.7555 
z
"/>
    </defs>
    <g clip-path="url(#p80ca85ae00)">
     <use xlink:href="#ma05df87400" x="0" y="398.34866" style="fill: #d95f02; fill-opacity: 0.2"/>
    </g>
   </g>
   <g id="PolyCollection_131">
    <defs>
     <path id="mf7d268256f" d="M 426.363886 -387.7555 
L 426.363886 -55.1155 
L 429.196373 -55.1155 
L 429.196373 -387.7555 
L 429.196373 -387.7555 
L 426.363886 -387.7555 
z
"/>
    </defs>
    <g clip-path="url(#p80ca85ae00)">
     <use xlink:href="#mf7d268256f" x="0" y="398.34866" style="fill: #d95f02; fill-opacity: 0.2"/>
    </g>
   </g>
   <g id="PolyCollection_132">
    <defs>
     <path id="m8281e04f4a" d="M 429.196373 -387.7555 
L 429.196373 -55.1155 
L 432.02886 -55.1155 
L 432.02886 -387.7555 
L 432.02886 -387.7555 
L 429.196373 -387.7555 
z
"/>
    </defs>
    <g clip-path="url(#p80ca85ae00)">
     <use xlink:href="#m8281e04f4a" x="0" y="398.34866" style="fill: #d95f02; fill-opacity: 0.2"/>
    </g>
   </g>
   <g id="PolyCollection_133">
    <defs>
     <path id="m24ec0cf6d8" d="M 432.02886 -387.7555 
L 432.02886 -55.1155 
L 434.861348 -55.1155 
L 434.861348 -387.7555 
L 434.861348 -387.7555 
L 432.02886 -387.7555 
z
"/>
    </defs>
    <g clip-path="url(#p80ca85ae00)">
     <use xlink:href="#m24ec0cf6d8" x="0" y="398.34866" style="fill: #d95f02; fill-opacity: 0.2"/>
    </g>
   </g>
   <g id="PolyCollection_134">
    <defs>
     <path id="mb408341116" d="M 434.861348 -387.7555 
L 434.861348 -55.1155 
L 437.693835 -55.1155 
L 437.693835 -387.7555 
L 437.693835 -387.7555 
L 434.861348 -387.7555 
z
"/>
    </defs>
    <g clip-path="url(#p80ca85ae00)">
     <use xlink:href="#mb408341116" x="0" y="398.34866" style="fill: #d95f02; fill-opacity: 0.2"/>
    </g>
   </g>
   <g id="PolyCollection_135">
    <defs>
     <path id="m6c5d8d26a6" d="M 437.693835 -387.7555 
L 437.693835 -55.1155 
L 440.526322 -55.1155 
L 440.526322 -387.7555 
L 440.526322 -387.7555 
L 437.693835 -387.7555 
z
"/>
    </defs>
    <g clip-path="url(#p80ca85ae00)">
     <use xlink:href="#m6c5d8d26a6" x="0" y="398.34866" style="fill: #d95f02; fill-opacity: 0.2"/>
    </g>
   </g>
   <g id="PolyCollection_136">
    <defs>
     <path id="mf19893e917" d="M 440.526322 -387.7555 
L 440.526322 -55.1155 
L 443.35881 -55.1155 
L 443.35881 -387.7555 
L 443.35881 -387.7555 
L 440.526322 -387.7555 
z
"/>
    </defs>
    <g clip-path="url(#p80ca85ae00)">
     <use xlink:href="#mf19893e917" x="0" y="398.34866" style="fill: #1b9e77; fill-opacity: 0.2"/>
    </g>
   </g>
   <g id="PolyCollection_137">
    <defs>
     <path id="m371b9493b0" d="M 443.35881 -387.7555 
L 443.35881 -55.1155 
L 446.191297 -55.1155 
L 446.191297 -387.7555 
L 446.191297 -387.7555 
L 443.35881 -387.7555 
z
"/>
    </defs>
    <g clip-path="url(#p80ca85ae00)">
     <use xlink:href="#m371b9493b0" x="0" y="398.34866" style="fill: #1b9e77; fill-opacity: 0.2"/>
    </g>
   </g>
   <g id="PolyCollection_138">
    <defs>
     <path id="m1afdfb8c82" d="M 446.191297 -387.7555 
L 446.191297 -55.1155 
L 449.023784 -55.1155 
L 449.023784 -387.7555 
L 449.023784 -387.7555 
L 446.191297 -387.7555 
z
"/>
    </defs>
    <g clip-path="url(#p80ca85ae00)">
     <use xlink:href="#m1afdfb8c82" x="0" y="398.34866" style="fill: #1b9e77; fill-opacity: 0.2"/>
    </g>
   </g>
   <g id="PolyCollection_139">
    <defs>
     <path id="m43f6cc4dee" d="M 449.023784 -387.7555 
L 449.023784 -55.1155 
L 451.856272 -55.1155 
L 451.856272 -387.7555 
L 451.856272 -387.7555 
L 449.023784 -387.7555 
z
"/>
    </defs>
    <g clip-path="url(#p80ca85ae00)">
     <use xlink:href="#m43f6cc4dee" x="0" y="398.34866" style="fill: #d95f02; fill-opacity: 0.2"/>
    </g>
   </g>
   <g id="PolyCollection_140">
    <defs>
     <path id="m925dbde401" d="M 451.856272 -387.7555 
L 451.856272 -55.1155 
L 454.688759 -55.1155 
L 454.688759 -387.7555 
L 454.688759 -387.7555 
L 451.856272 -387.7555 
z
"/>
    </defs>
    <g clip-path="url(#p80ca85ae00)">
     <use xlink:href="#m925dbde401" x="0" y="398.34866" style="fill: #d95f02; fill-opacity: 0.2"/>
    </g>
   </g>
   <g id="PolyCollection_141">
    <defs>
     <path id="mb17cfe76fd" d="M 454.688759 -387.7555 
L 454.688759 -55.1155 
L 457.521246 -55.1155 
L 457.521246 -387.7555 
L 457.521246 -387.7555 
L 454.688759 -387.7555 
z
"/>
    </defs>
    <g clip-path="url(#p80ca85ae00)">
     <use xlink:href="#mb17cfe76fd" x="0" y="398.34866" style="fill: #d95f02; fill-opacity: 0.2"/>
    </g>
   </g>
   <g id="PolyCollection_142">
    <defs>
     <path id="m06f87667c0" d="M 457.521246 -387.7555 
L 457.521246 -55.1155 
L 460.353734 -55.1155 
L 460.353734 -387.7555 
L 460.353734 -387.7555 
L 457.521246 -387.7555 
z
"/>
    </defs>
    <g clip-path="url(#p80ca85ae00)">
     <use xlink:href="#m06f87667c0" x="0" y="398.34866" style="fill: #d95f02; fill-opacity: 0.2"/>
    </g>
   </g>
   <g id="PolyCollection_143">
    <defs>
     <path id="macdeac9940" d="M 460.353734 -387.7555 
L 460.353734 -55.1155 
L 463.186221 -55.1155 
L 463.186221 -387.7555 
L 463.186221 -387.7555 
L 460.353734 -387.7555 
z
"/>
    </defs>
    <g clip-path="url(#p80ca85ae00)">
     <use xlink:href="#macdeac9940" x="0" y="398.34866" style="fill: #d95f02; fill-opacity: 0.2"/>
    </g>
   </g>
   <g id="PolyCollection_144">
    <defs>
     <path id="m5cee2f53d3" d="M 463.186221 -387.7555 
L 463.186221 -55.1155 
L 466.018708 -55.1155 
L 466.018708 -387.7555 
L 466.018708 -387.7555 
L 463.186221 -387.7555 
z
"/>
    </defs>
    <g clip-path="url(#p80ca85ae00)">
     <use xlink:href="#m5cee2f53d3" x="0" y="398.34866" style="fill: #d95f02; fill-opacity: 0.2"/>
    </g>
   </g>
   <g id="PolyCollection_145">
    <defs>
     <path id="m24f445b426" d="M 466.018708 -387.7555 
L 466.018708 -55.1155 
L 468.851195 -55.1155 
L 468.851195 -387.7555 
L 468.851195 -387.7555 
L 466.018708 -387.7555 
z
"/>
    </defs>
    <g clip-path="url(#p80ca85ae00)">
     <use xlink:href="#m24f445b426" x="0" y="398.34866" style="fill: #d95f02; fill-opacity: 0.2"/>
    </g>
   </g>
   <g id="PolyCollection_146">
    <defs>
     <path id="m26e081aa1a" d="M 468.851195 -387.7555 
L 468.851195 -55.1155 
L 471.683683 -55.1155 
L 471.683683 -387.7555 
L 471.683683 -387.7555 
L 468.851195 -387.7555 
z
"/>
    </defs>
    <g clip-path="url(#p80ca85ae00)">
     <use xlink:href="#m26e081aa1a" x="0" y="398.34866" style="fill: #d95f02; fill-opacity: 0.2"/>
    </g>
   </g>
   <g id="PolyCollection_147">
    <defs>
     <path id="mee4861f9c0" d="M 471.683683 -387.7555 
L 471.683683 -55.1155 
L 474.51617 -55.1155 
L 474.51617 -387.7555 
L 474.51617 -387.7555 
L 471.683683 -387.7555 
z
"/>
    </defs>
    <g clip-path="url(#p80ca85ae00)">
     <use xlink:href="#mee4861f9c0" x="0" y="398.34866" style="fill: #d95f02; fill-opacity: 0.2"/>
    </g>
   </g>
   <g id="PolyCollection_148">
    <defs>
     <path id="m27c4a14e62" d="M 474.51617 -387.7555 
L 474.51617 -55.1155 
L 477.348657 -55.1155 
L 477.348657 -387.7555 
L 477.348657 -387.7555 
L 474.51617 -387.7555 
z
"/>
    </defs>
    <g clip-path="url(#p80ca85ae00)">
     <use xlink:href="#m27c4a14e62" x="0" y="398.34866" style="fill: #d95f02; fill-opacity: 0.2"/>
    </g>
   </g>
   <g id="PolyCollection_149">
    <defs>
     <path id="mf824380b66" d="M 477.348657 -387.7555 
L 477.348657 -55.1155 
L 480.181145 -55.1155 
L 480.181145 -387.7555 
L 480.181145 -387.7555 
L 477.348657 -387.7555 
z
"/>
    </defs>
    <g clip-path="url(#p80ca85ae00)">
     <use xlink:href="#mf824380b66" x="0" y="398.34866" style="fill: #d95f02; fill-opacity: 0.2"/>
    </g>
   </g>
   <g id="PolyCollection_150">
    <defs>
     <path id="m47c4d2b827" d="M 480.181145 -387.7555 
L 480.181145 -55.1155 
L 483.013632 -55.1155 
L 483.013632 -387.7555 
L 483.013632 -387.7555 
L 480.181145 -387.7555 
z
"/>
    </defs>
    <g clip-path="url(#p80ca85ae00)">
     <use xlink:href="#m47c4d2b827" x="0" y="398.34866" style="fill: #d95f02; fill-opacity: 0.2"/>
    </g>
   </g>
   <g id="PolyCollection_151">
    <defs>
     <path id="m4c138bdba7" d="M 483.013632 -387.7555 
L 483.013632 -55.1155 
L 485.846119 -55.1155 
L 485.846119 -387.7555 
L 485.846119 -387.7555 
L 483.013632 -387.7555 
z
"/>
    </defs>
    <g clip-path="url(#p80ca85ae00)">
     <use xlink:href="#m4c138bdba7" x="0" y="398.34866" style="fill: #1b9e77; fill-opacity: 0.2"/>
    </g>
   </g>
   <g id="PolyCollection_152">
    <defs>
     <path id="m735f95c5bc" d="M 485.846119 -387.7555 
L 485.846119 -55.1155 
L 488.678607 -55.1155 
L 488.678607 -387.7555 
L 488.678607 -387.7555 
L 485.846119 -387.7555 
z
"/>
    </defs>
    <g clip-path="url(#p80ca85ae00)">
     <use xlink:href="#m735f95c5bc" x="0" y="398.34866" style="fill: #1b9e77; fill-opacity: 0.2"/>
    </g>
   </g>
   <g id="PolyCollection_153">
    <defs>
     <path id="m1d9425f511" d="M 488.678607 -387.7555 
L 488.678607 -55.1155 
L 491.511094 -55.1155 
L 491.511094 -387.7555 
L 491.511094 -387.7555 
L 488.678607 -387.7555 
z
"/>
    </defs>
    <g clip-path="url(#p80ca85ae00)">
     <use xlink:href="#m1d9425f511" x="0" y="398.34866" style="fill: #1b9e77; fill-opacity: 0.2"/>
    </g>
   </g>
   <g id="PolyCollection_154">
    <defs>
     <path id="m589ea1299f" d="M 491.511094 -387.7555 
L 491.511094 -55.1155 
L 494.343581 -55.1155 
L 494.343581 -387.7555 
L 494.343581 -387.7555 
L 491.511094 -387.7555 
z
"/>
    </defs>
    <g clip-path="url(#p80ca85ae00)">
     <use xlink:href="#m589ea1299f" x="0" y="398.34866" style="fill: #1b9e77; fill-opacity: 0.2"/>
    </g>
   </g>
   <g id="PolyCollection_155">
    <defs>
     <path id="mb96c34f916" d="M 494.343581 -387.7555 
L 494.343581 -55.1155 
L 497.176069 -55.1155 
L 497.176069 -387.7555 
L 497.176069 -387.7555 
L 494.343581 -387.7555 
z
"/>
    </defs>
    <g clip-path="url(#p80ca85ae00)">
     <use xlink:href="#mb96c34f916" x="0" y="398.34866" style="fill: #1b9e77; fill-opacity: 0.2"/>
    </g>
   </g>
   <g id="PolyCollection_156">
    <defs>
     <path id="mbc4ece3aa5" d="M 497.176069 -387.7555 
L 497.176069 -55.1155 
L 500.008556 -55.1155 
L 500.008556 -387.7555 
L 500.008556 -387.7555 
L 497.176069 -387.7555 
z
"/>
    </defs>
    <g clip-path="url(#p80ca85ae00)">
     <use xlink:href="#mbc4ece3aa5" x="0" y="398.34866" style="fill: #1b9e77; fill-opacity: 0.2"/>
    </g>
   </g>
   <g id="PolyCollection_157">
    <defs>
     <path id="m4db7a2e8aa" d="M 500.008556 -387.7555 
L 500.008556 -55.1155 
L 502.841043 -55.1155 
L 502.841043 -387.7555 
L 502.841043 -387.7555 
L 500.008556 -387.7555 
z
"/>
    </defs>
    <g clip-path="url(#p80ca85ae00)">
     <use xlink:href="#m4db7a2e8aa" x="0" y="398.34866" style="fill: #1b9e77; fill-opacity: 0.2"/>
    </g>
   </g>
   <g id="PolyCollection_158">
    <defs>
     <path id="mc86e4a87e2" d="M 502.841043 -387.7555 
L 502.841043 -55.1155 
L 505.67353 -55.1155 
L 505.67353 -387.7555 
L 505.67353 -387.7555 
L 502.841043 -387.7555 
z
"/>
    </defs>
    <g clip-path="url(#p80ca85ae00)">
     <use xlink:href="#mc86e4a87e2" x="0" y="398.34866" style="fill: #d95f02; fill-opacity: 0.2"/>
    </g>
   </g>
   <g id="PolyCollection_159">
    <defs>
     <path id="m41842ba0e2" d="M 505.67353 -387.7555 
L 505.67353 -55.1155 
L 508.506018 -55.1155 
L 508.506018 -387.7555 
L 508.506018 -387.7555 
L 505.67353 -387.7555 
z
"/>
    </defs>
    <g clip-path="url(#p80ca85ae00)">
     <use xlink:href="#m41842ba0e2" x="0" y="398.34866" style="fill: #1b9e77; fill-opacity: 0.2"/>
    </g>
   </g>
   <g id="PolyCollection_160">
    <defs>
     <path id="m9d321191e7" d="M 508.506018 -387.7555 
L 508.506018 -55.1155 
L 511.338505 -55.1155 
L 511.338505 -387.7555 
L 511.338505 -387.7555 
L 508.506018 -387.7555 
z
"/>
    </defs>
    <g clip-path="url(#p80ca85ae00)">
     <use xlink:href="#m9d321191e7" x="0" y="398.34866" style="fill: #1b9e77; fill-opacity: 0.2"/>
    </g>
   </g>
   <g id="PolyCollection_161">
    <defs>
     <path id="m41ee5d677f" d="M 511.338505 -387.7555 
L 511.338505 -55.1155 
L 514.170992 -55.1155 
L 514.170992 -387.7555 
L 514.170992 -387.7555 
L 511.338505 -387.7555 
z
"/>
    </defs>
    <g clip-path="url(#p80ca85ae00)">
     <use xlink:href="#m41ee5d677f" x="0" y="398.34866" style="fill: #d95f02; fill-opacity: 0.2"/>
    </g>
   </g>
   <g id="PolyCollection_162">
    <defs>
     <path id="mc67b37d17a" d="M 514.170992 -387.7555 
L 514.170992 -55.1155 
L 517.00348 -55.1155 
L 517.00348 -387.7555 
L 517.00348 -387.7555 
L 514.170992 -387.7555 
z
"/>
    </defs>
    <g clip-path="url(#p80ca85ae00)">
     <use xlink:href="#mc67b37d17a" x="0" y="398.34866" style="fill: #1b9e77; fill-opacity: 0.2"/>
    </g>
   </g>
   <g id="PolyCollection_163">
    <defs>
     <path id="mc8fa746ae7" d="M 517.00348 -387.7555 
L 517.00348 -55.1155 
L 519.835967 -55.1155 
L 519.835967 -387.7555 
L 519.835967 -387.7555 
L 517.00348 -387.7555 
z
"/>
    </defs>
    <g clip-path="url(#p80ca85ae00)">
     <use xlink:href="#mc8fa746ae7" x="0" y="398.34866" style="fill: #1b9e77; fill-opacity: 0.2"/>
    </g>
   </g>
   <g id="PolyCollection_164">
    <defs>
     <path id="m16fc05948a" d="M 519.835967 -387.7555 
L 519.835967 -55.1155 
L 522.668454 -55.1155 
L 522.668454 -387.7555 
L 522.668454 -387.7555 
L 519.835967 -387.7555 
z
"/>
    </defs>
    <g clip-path="url(#p80ca85ae00)">
     <use xlink:href="#m16fc05948a" x="0" y="398.34866" style="fill: #d95f02; fill-opacity: 0.2"/>
    </g>
   </g>
   <g id="matplotlib.axis_1">
    <g id="xtick_1">
     <g id="line2d_1">
      <defs>
       <path id="mcff009efa7" d="M 0 0 
L 0 4.8 
" style="stroke: #000000"/>
      </defs>
      <g>
       <use xlink:href="#mcff009efa7" x="66.637997" y="343.23316" style="stroke: #000000"/>
      </g>
     </g>
     <g id="text_1">
      <!-- 0 -->
      <g transform="translate(61.038997 364.90641) scale(0.176 -0.176)">
       <defs>
        <path id="DejaVuSans-30" d="M 2034 4250 
Q 1547 4250 1301 3770 
Q 1056 3291 1056 2328 
Q 1056 1369 1301 889 
Q 1547 409 2034 409 
Q 2525 409 2770 889 
Q 3016 1369 3016 2328 
Q 3016 3291 2770 3770 
Q 2525 4250 2034 4250 
z
M 2034 4750 
Q 2819 4750 3233 4129 
Q 3647 3509 3647 2328 
Q 3647 1150 3233 529 
Q 2819 -91 2034 -91 
Q 1250 -91 836 529 
Q 422 1150 422 2328 
Q 422 3509 836 4129 
Q 1250 4750 2034 4750 
z
" transform="scale(0.015625)"/>
       </defs>
       <use xlink:href="#DejaVuSans-30"/>
      </g>
     </g>
    </g>
    <g id="xtick_2">
     <g id="line2d_2">
      <g>
       <use xlink:href="#mcff009efa7" x="123.287744" y="343.23316" style="stroke: #000000"/>
      </g>
     </g>
     <g id="text_2">
      <!-- 20 -->
      <g transform="translate(112.089744 364.90641) scale(0.176 -0.176)">
       <defs>
        <path id="DejaVuSans-32" d="M 1228 531 
L 3431 531 
L 3431 0 
L 469 0 
L 469 531 
Q 828 903 1448 1529 
Q 2069 2156 2228 2338 
Q 2531 2678 2651 2914 
Q 2772 3150 2772 3378 
Q 2772 3750 2511 3984 
Q 2250 4219 1831 4219 
Q 1534 4219 1204 4116 
Q 875 4013 500 3803 
L 500 4441 
Q 881 4594 1212 4672 
Q 1544 4750 1819 4750 
Q 2544 4750 2975 4387 
Q 3406 4025 3406 3419 
Q 3406 3131 3298 2873 
Q 3191 2616 2906 2266 
Q 2828 2175 2409 1742 
Q 1991 1309 1228 531 
z
" transform="scale(0.015625)"/>
       </defs>
       <use xlink:href="#DejaVuSans-32"/>
       <use xlink:href="#DejaVuSans-30" x="63.623047"/>
      </g>
     </g>
    </g>
    <g id="xtick_3">
     <g id="line2d_3">
      <g>
       <use xlink:href="#mcff009efa7" x="179.93749" y="343.23316" style="stroke: #000000"/>
      </g>
     </g>
     <g id="text_3">
      <!-- 40 -->
      <g transform="translate(168.73949 364.90641) scale(0.176 -0.176)">
       <defs>
        <path id="DejaVuSans-34" d="M 2419 4116 
L 825 1625 
L 2419 1625 
L 2419 4116 
z
M 2253 4666 
L 3047 4666 
L 3047 1625 
L 3713 1625 
L 3713 1100 
L 3047 1100 
L 3047 0 
L 2419 0 
L 2419 1100 
L 313 1100 
L 313 1709 
L 2253 4666 
z
" transform="scale(0.015625)"/>
       </defs>
       <use xlink:href="#DejaVuSans-34"/>
       <use xlink:href="#DejaVuSans-30" x="63.623047"/>
      </g>
     </g>
    </g>
    <g id="xtick_4">
     <g id="line2d_4">
      <g>
       <use xlink:href="#mcff009efa7" x="236.587236" y="343.23316" style="stroke: #000000"/>
      </g>
     </g>
     <g id="text_4">
      <!-- 60 -->
      <g transform="translate(225.389236 364.90641) scale(0.176 -0.176)">
       <defs>
        <path id="DejaVuSans-36" d="M 2113 2584 
Q 1688 2584 1439 2293 
Q 1191 2003 1191 1497 
Q 1191 994 1439 701 
Q 1688 409 2113 409 
Q 2538 409 2786 701 
Q 3034 994 3034 1497 
Q 3034 2003 2786 2293 
Q 2538 2584 2113 2584 
z
M 3366 4563 
L 3366 3988 
Q 3128 4100 2886 4159 
Q 2644 4219 2406 4219 
Q 1781 4219 1451 3797 
Q 1122 3375 1075 2522 
Q 1259 2794 1537 2939 
Q 1816 3084 2150 3084 
Q 2853 3084 3261 2657 
Q 3669 2231 3669 1497 
Q 3669 778 3244 343 
Q 2819 -91 2113 -91 
Q 1303 -91 875 529 
Q 447 1150 447 2328 
Q 447 3434 972 4092 
Q 1497 4750 2381 4750 
Q 2619 4750 2861 4703 
Q 3103 4656 3366 4563 
z
" transform="scale(0.015625)"/>
       </defs>
       <use xlink:href="#DejaVuSans-36"/>
       <use xlink:href="#DejaVuSans-30" x="63.623047"/>
      </g>
     </g>
    </g>
    <g id="xtick_5">
     <g id="line2d_5">
      <g>
       <use xlink:href="#mcff009efa7" x="293.236982" y="343.23316" style="stroke: #000000"/>
      </g>
     </g>
     <g id="text_5">
      <!-- 80 -->
      <g transform="translate(282.038982 364.90641) scale(0.176 -0.176)">
       <defs>
        <path id="DejaVuSans-38" d="M 2034 2216 
Q 1584 2216 1326 1975 
Q 1069 1734 1069 1313 
Q 1069 891 1326 650 
Q 1584 409 2034 409 
Q 2484 409 2743 651 
Q 3003 894 3003 1313 
Q 3003 1734 2745 1975 
Q 2488 2216 2034 2216 
z
M 1403 2484 
Q 997 2584 770 2862 
Q 544 3141 544 3541 
Q 544 4100 942 4425 
Q 1341 4750 2034 4750 
Q 2731 4750 3128 4425 
Q 3525 4100 3525 3541 
Q 3525 3141 3298 2862 
Q 3072 2584 2669 2484 
Q 3125 2378 3379 2068 
Q 3634 1759 3634 1313 
Q 3634 634 3220 271 
Q 2806 -91 2034 -91 
Q 1263 -91 848 271 
Q 434 634 434 1313 
Q 434 1759 690 2068 
Q 947 2378 1403 2484 
z
M 1172 3481 
Q 1172 3119 1398 2916 
Q 1625 2713 2034 2713 
Q 2441 2713 2670 2916 
Q 2900 3119 2900 3481 
Q 2900 3844 2670 4047 
Q 2441 4250 2034 4250 
Q 1625 4250 1398 4047 
Q 1172 3844 1172 3481 
z
" transform="scale(0.015625)"/>
       </defs>
       <use xlink:href="#DejaVuSans-38"/>
       <use xlink:href="#DejaVuSans-30" x="63.623047"/>
      </g>
     </g>
    </g>
    <g id="xtick_6">
     <g id="line2d_6">
      <g>
       <use xlink:href="#mcff009efa7" x="349.886728" y="343.23316" style="stroke: #000000"/>
      </g>
     </g>
     <g id="text_6">
      <!-- 100 -->
      <g transform="translate(333.089728 364.90641) scale(0.176 -0.176)">
       <defs>
        <path id="DejaVuSans-31" d="M 794 531 
L 1825 531 
L 1825 4091 
L 703 3866 
L 703 4441 
L 1819 4666 
L 2450 4666 
L 2450 531 
L 3481 531 
L 3481 0 
L 794 0 
L 794 531 
z
" transform="scale(0.015625)"/>
       </defs>
       <use xlink:href="#DejaVuSans-31"/>
       <use xlink:href="#DejaVuSans-30" x="63.623047"/>
       <use xlink:href="#DejaVuSans-30" x="127.246094"/>
      </g>
     </g>
    </g>
    <g id="text_7">
     <!-- State -->
     <g transform="translate(208.06 387.15566) scale(0.192 -0.192)">
      <defs>
       <path id="DejaVuSans-53" d="M 3425 4513 
L 3425 3897 
Q 3066 4069 2747 4153 
Q 2428 4238 2131 4238 
Q 1616 4238 1336 4038 
Q 1056 3838 1056 3469 
Q 1056 3159 1242 3001 
Q 1428 2844 1947 2747 
L 2328 2669 
Q 3034 2534 3370 2195 
Q 3706 1856 3706 1288 
Q 3706 609 3251 259 
Q 2797 -91 1919 -91 
Q 1588 -91 1214 -16 
Q 841 59 441 206 
L 441 856 
Q 825 641 1194 531 
Q 1563 422 1919 422 
Q 2459 422 2753 634 
Q 3047 847 3047 1241 
Q 3047 1584 2836 1778 
Q 2625 1972 2144 2069 
L 1759 2144 
Q 1053 2284 737 2584 
Q 422 2884 422 3419 
Q 422 4038 858 4394 
Q 1294 4750 2059 4750 
Q 2388 4750 2728 4690 
Q 3069 4631 3425 4513 
z
" transform="scale(0.015625)"/>
       <path id="DejaVuSans-74" d="M 1172 4494 
L 1172 3500 
L 2356 3500 
L 2356 3053 
L 1172 3053 
L 1172 1153 
Q 1172 725 1289 603 
Q 1406 481 1766 481 
L 2356 481 
L 2356 0 
L 1766 0 
Q 1100 0 847 248 
Q 594 497 594 1153 
L 594 3053 
L 172 3053 
L 172 3500 
L 594 3500 
L 594 4494 
L 1172 4494 
z
" transform="scale(0.015625)"/>
       <path id="DejaVuSans-61" d="M 2194 1759 
Q 1497 1759 1228 1600 
Q 959 1441 959 1056 
Q 959 750 1161 570 
Q 1363 391 1709 391 
Q 2188 391 2477 730 
Q 2766 1069 2766 1631 
L 2766 1759 
L 2194 1759 
z
M 3341 1997 
L 3341 0 
L 2766 0 
L 2766 531 
Q 2569 213 2275 61 
Q 1981 -91 1556 -91 
Q 1019 -91 701 211 
Q 384 513 384 1019 
Q 384 1609 779 1909 
Q 1175 2209 1959 2209 
L 2766 2209 
L 2766 2266 
Q 2766 2663 2505 2880 
Q 2244 3097 1772 3097 
Q 1472 3097 1187 3025 
Q 903 2953 641 2809 
L 641 3341 
Q 956 3463 1253 3523 
Q 1550 3584 1831 3584 
Q 2591 3584 2966 3190 
Q 3341 2797 3341 1997 
z
" transform="scale(0.015625)"/>
       <path id="DejaVuSans-65" d="M 3597 1894 
L 3597 1613 
L 953 1613 
Q 991 1019 1311 708 
Q 1631 397 2203 397 
Q 2534 397 2845 478 
Q 3156 559 3463 722 
L 3463 178 
Q 3153 47 2828 -22 
Q 2503 -91 2169 -91 
Q 1331 -91 842 396 
Q 353 884 353 1716 
Q 353 2575 817 3079 
Q 1281 3584 2069 3584 
Q 2775 3584 3186 3129 
Q 3597 2675 3597 1894 
z
M 3022 2063 
Q 3016 2534 2758 2815 
Q 2500 3097 2075 3097 
Q 1594 3097 1305 2825 
Q 1016 2553 972 2059 
L 3022 2063 
z
" transform="scale(0.015625)"/>
      </defs>
      <use xlink:href="#DejaVuSans-53"/>
      <use xlink:href="#DejaVuSans-74" x="63.476562"/>
      <use xlink:href="#DejaVuSans-61" x="102.685547"/>
      <use xlink:href="#DejaVuSans-74" x="163.964844"/>
      <use xlink:href="#DejaVuSans-65" x="203.173828"/>
     </g>
    </g>
   </g>
   <g id="matplotlib.axis_2">
    <g id="ytick_1">
     <g id="line2d_7">
      <defs>
       <path id="ma5ceeb4d46" d="M 0 0 
L -4.8 0 
" style="stroke: #000000"/>
      </defs>
      <g>
       <use xlink:href="#ma5ceeb4d46" x="66.0715" y="343.23316" style="stroke: #000000"/>
      </g>
     </g>
     <g id="text_8">
      <!-- 0.0 -->
      <g transform="translate(29.782 349.919785) scale(0.176 -0.176)">
       <defs>
        <path id="DejaVuSans-2e" d="M 684 794 
L 1344 794 
L 1344 0 
L 684 0 
L 684 794 
z
" transform="scale(0.015625)"/>
       </defs>
       <use xlink:href="#DejaVuSans-30"/>
       <use xlink:href="#DejaVuSans-2e" x="63.623047"/>
       <use xlink:href="#DejaVuSans-30" x="95.410156"/>
      </g>
     </g>
    </g>
    <g id="ytick_2">
     <g id="line2d_8">
      <g>
       <use xlink:href="#ma5ceeb4d46" x="66.0715" y="277.363853" style="stroke: #000000"/>
      </g>
     </g>
     <g id="text_9">
      <!-- 0.2 -->
      <g transform="translate(29.782 284.050478) scale(0.176 -0.176)">
       <use xlink:href="#DejaVuSans-30"/>
       <use xlink:href="#DejaVuSans-2e" x="63.623047"/>
       <use xlink:href="#DejaVuSans-32" x="95.410156"/>
      </g>
     </g>
    </g>
    <g id="ytick_3">
     <g id="line2d_9">
      <g>
       <use xlink:href="#ma5ceeb4d46" x="66.0715" y="211.494546" style="stroke: #000000"/>
      </g>
     </g>
     <g id="text_10">
      <!-- 0.4 -->
      <g transform="translate(29.782 218.181171) scale(0.176 -0.176)">
       <use xlink:href="#DejaVuSans-30"/>
       <use xlink:href="#DejaVuSans-2e" x="63.623047"/>
       <use xlink:href="#DejaVuSans-34" x="95.410156"/>
      </g>
     </g>
    </g>
    <g id="ytick_4">
     <g id="line2d_10">
      <g>
       <use xlink:href="#ma5ceeb4d46" x="66.0715" y="145.625239" style="stroke: #000000"/>
      </g>
     </g>
     <g id="text_11">
      <!-- 0.6 -->
      <g transform="translate(29.782 152.311864) scale(0.176 -0.176)">
       <use xlink:href="#DejaVuSans-30"/>
       <use xlink:href="#DejaVuSans-2e" x="63.623047"/>
       <use xlink:href="#DejaVuSans-36" x="95.410156"/>
      </g>
     </g>
    </g>
    <g id="ytick_5">
     <g id="line2d_11">
      <g>
       <use xlink:href="#ma5ceeb4d46" x="66.0715" y="79.755932" style="stroke: #000000"/>
      </g>
     </g>
     <g id="text_12">
      <!-- 0.8 -->
      <g transform="translate(29.782 86.442557) scale(0.176 -0.176)">
       <use xlink:href="#DejaVuSans-30"/>
       <use xlink:href="#DejaVuSans-2e" x="63.623047"/>
       <use xlink:href="#DejaVuSans-38" x="95.410156"/>
      </g>
     </g>
    </g>
    <g id="ytick_6">
     <g id="line2d_12">
      <g>
       <use xlink:href="#ma5ceeb4d46" x="66.0715" y="13.886625" style="stroke: #000000"/>
      </g>
     </g>
     <g id="text_13">
      <!-- 1.0 -->
      <g transform="translate(29.782 20.57325) scale(0.176 -0.176)">
       <use xlink:href="#DejaVuSans-31"/>
       <use xlink:href="#DejaVuSans-2e" x="63.623047"/>
       <use xlink:href="#DejaVuSans-30" x="95.410156"/>
      </g>
     </g>
    </g>
    <g id="text_14">
     <!-- Score -->
     <g transform="translate(21.789 203.79766) rotate(-90) scale(0.192 -0.192)">
      <defs>
       <path id="DejaVuSans-63" d="M 3122 3366 
L 3122 2828 
Q 2878 2963 2633 3030 
Q 2388 3097 2138 3097 
Q 1578 3097 1268 2742 
Q 959 2388 959 1747 
Q 959 1106 1268 751 
Q 1578 397 2138 397 
Q 2388 397 2633 464 
Q 2878 531 3122 666 
L 3122 134 
Q 2881 22 2623 -34 
Q 2366 -91 2075 -91 
Q 1284 -91 818 406 
Q 353 903 353 1747 
Q 353 2603 823 3093 
Q 1294 3584 2113 3584 
Q 2378 3584 2631 3529 
Q 2884 3475 3122 3366 
z
" transform="scale(0.015625)"/>
       <path id="DejaVuSans-6f" d="M 1959 3097 
Q 1497 3097 1228 2736 
Q 959 2375 959 1747 
Q 959 1119 1226 758 
Q 1494 397 1959 397 
Q 2419 397 2687 759 
Q 2956 1122 2956 1747 
Q 2956 2369 2687 2733 
Q 2419 3097 1959 3097 
z
M 1959 3584 
Q 2709 3584 3137 3096 
Q 3566 2609 3566 1747 
Q 3566 888 3137 398 
Q 2709 -91 1959 -91 
Q 1206 -91 779 398 
Q 353 888 353 1747 
Q 353 2609 779 3096 
Q 1206 3584 1959 3584 
z
" transform="scale(0.015625)"/>
       <path id="DejaVuSans-72" d="M 2631 2963 
Q 2534 3019 2420 3045 
Q 2306 3072 2169 3072 
Q 1681 3072 1420 2755 
Q 1159 2438 1159 1844 
L 1159 0 
L 581 0 
L 581 3500 
L 1159 3500 
L 1159 2956 
Q 1341 3275 1631 3429 
Q 1922 3584 2338 3584 
Q 2397 3584 2469 3576 
Q 2541 3569 2628 3553 
L 2631 2963 
z
" transform="scale(0.015625)"/>
      </defs>
      <use xlink:href="#DejaVuSans-53"/>
      <use xlink:href="#DejaVuSans-63" x="63.476562"/>
      <use xlink:href="#DejaVuSans-6f" x="118.457031"/>
      <use xlink:href="#DejaVuSans-72" x="179.638672"/>
      <use xlink:href="#DejaVuSans-65" x="218.501953"/>
     </g>
    </g>
   </g>
   <g id="line2d_13">
    <path d="M 66.637997 331.92139 
L 69.470485 331.92139 
L 75.135459 326.072819 
L 77.967947 83.748011 
L 80.800434 83.748011 
L 83.632921 83.748011 
L 92.130383 61.977048 
L 94.962871 61.977048 
L 97.795358 61.977048 
L 100.627845 61.977048 
L 106.29282 61.977048 
L 111.957794 61.977048 
L 114.790282 61.977048 
L 123.287744 61.977048 
L 126.120231 61.977048 
L 131.785206 61.977048 
L 134.617693 126.654227 
L 137.45018 165.949226 
L 140.282668 176.853434 
L 143.115155 176.853434 
L 145.947642 176.637636 
L 148.780129 176.529528 
L 151.612617 176.529528 
L 154.445104 176.529528 
L 157.277591 176.529528 
L 160.110079 176.529528 
L 162.942566 176.529528 
L 165.775053 176.529528 
L 171.440028 176.529528 
L 174.272515 176.529528 
L 177.105003 176.529528 
L 179.93749 176.529528 
L 182.769977 176.529528 
L 185.602464 176.529528 
L 188.434952 176.213512 
L 191.267439 176.213512 
L 194.099926 175.88836 
L 196.932414 175.88836 
L 199.764901 175.561939 
L 211.09485 175.234243 
L 219.592312 165.017308 
L 225.257287 164.438533 
L 228.089774 164.334489 
L 230.922261 164.334489 
L 233.754749 161.317224 
L 236.587236 160.675772 
L 242.252211 160.675772 
L 247.917185 161.572545 
L 250.749673 158.926208 
L 253.58216 158.926208 
L 256.414647 158.926208 
L 262.079622 158.7991 
L 264.912109 157.260012 
L 267.744596 157.000997 
L 276.242058 168.510345 
L 279.074546 168.099703 
L 281.907033 167.820331 
L 287.572008 162.491711 
L 290.404495 162.37931 
L 296.06947 150.514147 
L 298.901957 149.564267 
L 301.734444 149.177445 
L 304.566931 146.469148 
L 307.399419 146.070302 
L 310.231906 120.999328 
L 313.064393 119.398101 
L 315.896881 118.986547 
L 318.729368 118.735712 
L 321.561855 118.735712 
L 324.394343 118.405274 
L 327.22683 112.972956 
L 332.891805 112.639285 
L 335.724292 99.944306 
L 338.556779 96.29193 
L 341.389266 80.689421 
L 347.054241 80.86249 
L 349.886728 80.57129 
L 355.551703 78.170842 
L 358.38419 78.113598 
L 361.216678 76.927912 
L 366.881652 76.927912 
L 369.71414 69.030203 
L 372.546627 68.777714 
L 375.379114 68.727216 
L 378.211602 69.079313 
L 381.044089 64.224772 
L 383.876576 58.570263 
L 386.709063 57.17217 
L 389.541551 31.615424 
L 392.374038 31.615424 
L 398.039013 31.615424 
L 400.8715 31.615424 
L 409.0715 31.615424 
" clip-path="url(#p80ca85ae00)" style="fill: none; stroke-dasharray: 2,3.3; stroke-dashoffset: 0; stroke: #e41a1c; stroke-width: 2"/>
   </g>
   <g id="line2d_14">
    <path d="M 66.637997 335.721747 
L 69.470485 335.721747 
L 75.135459 335.721747 
L 77.967947 335.721747 
L 80.800434 335.721747 
L 83.632921 335.721747 
L 92.130383 287.475369 
L 94.962871 287.475369 
L 97.795358 287.475369 
L 100.627845 287.475369 
L 106.29282 287.475369 
L 111.957794 287.475369 
L 114.790282 287.475369 
L 123.287744 287.475369 
L 126.120231 287.475369 
L 131.785206 287.475369 
L 134.617693 189.53811 
L 137.45018 134.06922 
L 140.282668 117.890794 
L 143.115155 117.890794 
L 145.947642 117.890794 
L 148.780129 117.890794 
L 151.612617 117.890794 
L 154.445104 117.890794 
L 157.277591 117.890794 
L 160.110079 117.890794 
L 162.942566 117.890794 
L 165.775053 117.890794 
L 171.440028 117.890794 
L 174.272515 117.890794 
L 177.105003 117.890794 
L 179.93749 117.890794 
L 182.769977 117.890794 
L 185.602464 117.890794 
L 188.434952 117.024092 
L 191.267439 117.024092 
L 194.099926 117.024092 
L 196.932414 117.024092 
L 199.764901 117.024092 
L 211.09485 117.024092 
L 219.592312 117.024092 
L 225.257287 116.446291 
L 228.089774 116.157391 
L 230.922261 116.157391 
L 233.754749 116.157391 
L 236.587236 116.157391 
L 242.252211 116.157391 
L 247.917185 116.157391 
L 250.749673 108.645979 
L 253.58216 108.645979 
L 256.414647 108.645979 
L 262.079622 108.645979 
L 264.912109 108.645979 
L 267.744596 108.645979 
L 276.242058 89.578548 
L 279.074546 89.289647 
L 281.907033 88.422946 
L 287.572008 88.134046 
L 290.404495 88.134046 
L 296.06947 88.134046 
L 298.901957 87.556245 
L 301.734444 87.556245 
L 304.566931 87.267344 
L 307.399419 87.267344 
L 310.231906 86.689543 
L 313.064393 85.822842 
L 315.896881 84.95614 
L 318.729368 84.66724 
L 321.561855 84.66724 
L 324.394343 84.089439 
L 327.22683 84.089439 
L 332.891805 83.511638 
L 335.724292 83.511638 
L 338.556779 83.511638 
L 341.389266 83.222738 
L 347.054241 82.933837 
L 349.886728 82.644937 
L 355.551703 82.356036 
L 358.38419 82.067136 
L 361.216678 82.067136 
L 366.881652 82.067136 
L 369.71414 81.778235 
L 372.546627 81.778235 
L 375.379114 81.489335 
L 378.211602 80.622633 
L 381.044089 80.622633 
L 383.876576 80.044832 
L 386.709063 79.755932 
L 389.541551 79.178131 
L 392.374038 79.178131 
L 398.039013 79.178131 
L 400.8715 79.178131 
L 409.0715 79.178131 
" clip-path="url(#p80ca85ae00)" style="fill: none; stroke-dasharray: 7.4,3.2; stroke-dashoffset: 0; stroke: #377eb8; stroke-width: 2"/>
   </g>
   <g id="line2d_15">
    <path d="M 66.637997 334.20521 
L 69.470485 334.20521 
L 75.135459 332.784093 
L 77.967947 328.632972 
L 80.800434 328.632972 
L 83.632921 328.632972 
L 92.130383 250.167448 
L 94.962871 250.167448 
L 97.795358 250.167448 
L 100.627845 250.167448 
L 106.29282 250.167448 
L 111.957794 250.167448 
L 114.790282 250.167448 
L 123.287744 250.167448 
L 126.120231 250.167448 
L 131.785206 250.167448 
L 134.617693 163.435975 
L 137.45018 151.324193 
L 140.282668 151.809689 
L 143.115155 151.809689 
L 145.947642 151.666943 
L 148.780129 151.595489 
L 151.612617 151.595489 
L 154.445104 151.595489 
L 157.277591 151.595489 
L 160.110079 151.595489 
L 162.942566 151.595489 
L 165.775053 151.595489 
L 171.440028 151.595489 
L 174.272515 151.595489 
L 177.105003 151.595489 
L 179.93749 151.595489 
L 182.769977 151.595489 
L 185.602464 151.595489 
L 188.434952 151.073445 
L 191.267439 151.073445 
L 194.099926 150.858421 
L 196.932414 150.858421 
L 199.764901 150.642916 
L 211.09485 150.426927 
L 219.592312 143.868385 
L 225.257287 143.281861 
L 228.089774 143.104535 
L 230.922261 143.104535 
L 233.754749 141.230525 
L 236.587236 140.83568 
L 242.252211 140.83568 
L 247.917185 141.388032 
L 250.749673 136.803684 
L 253.58216 136.803684 
L 256.414647 136.803684 
L 262.079622 136.723981 
L 264.912109 135.762728 
L 267.744596 135.601649 
L 276.242058 136.316339 
L 279.074546 135.932333 
L 281.907033 135.448007 
L 287.572008 131.655866 
L 290.404495 131.578873 
L 296.06947 123.668803 
L 298.901957 122.838692 
L 301.734444 122.588434 
L 304.566931 120.739046 
L 307.399419 120.484282 
L 310.231906 105.073776 
L 313.064393 103.781701 
L 315.896881 103.171356 
L 318.729368 102.902831 
L 321.561855 102.902831 
L 324.394343 102.463933 
L 327.22683 99.383517 
L 332.891805 98.940639 
L 335.724292 91.996389 
L 338.556779 90.062972 
L 341.389266 81.96222 
L 347.054241 81.902268 
L 349.886728 81.612222 
L 355.551703 80.280091 
L 358.38419 80.105217 
L 361.216678 79.52256 
L 366.881652 79.52256 
L 369.71414 75.555913 
L 372.546627 75.435663 
L 375.379114 75.260137 
L 378.211602 74.975095 
L 381.044089 72.671931 
L 383.876576 69.728426 
L 386.709063 68.928101 
L 389.541551 57.361619 
L 392.374038 57.361619 
L 398.039013 57.361619 
L 400.8715 57.361619 
L 409.0715 57.361619 
" clip-path="url(#p80ca85ae00)" style="fill: none; stroke: #984ea3; stroke-width: 3; stroke-linecap: square"/>
   </g>
   <g id="patch_3">
    <path d="M 66.0715 343.23316 
L 66.0715 10.59316 
" style="fill: none; stroke: #000000; stroke-linejoin: miter; stroke-linecap: square"/>
   </g>
   <g id="patch_4">
    <path d="M 66.0715 343.23316 
L 400.8715 343.23316 
" style="fill: none; stroke: #000000; stroke-linejoin: miter; stroke-linecap: square"/>
   </g>
   <g id="legend_1">
    <g id="patch_5">
     <path d="M 253.71075 334.43316 
L 388.5515 334.43316 
Q 392.0715 334.43316 392.0715 330.91316 
L 392.0715 255.17266 
Q 392.0715 251.65266 388.5515 251.65266 
L 253.71075 251.65266 
Q 250.19075 251.65266 250.19075 255.17266 
L 250.19075 330.91316 
Q 250.19075 334.43316 253.71075 334.43316 
z
" style="fill: #ffffff; opacity: 0.8; stroke: #cccccc; stroke-width: 0.8; stroke-linejoin: miter"/>
    </g>
    <g id="line2d_16">
     <path d="M 257.23075 265.90591 
L 274.83075 265.90591 
L 292.43075 265.90591 
" style="fill: none; stroke-dasharray: 2,3.3; stroke-dashoffset: 0; stroke: #e41a1c; stroke-width: 2"/>
    </g>
    <g id="text_15">
     <!-- Precision -->
     <g transform="translate(306.51075 272.06591) scale(0.176 -0.176)">
      <defs>
       <path id="DejaVuSans-50" d="M 1259 4147 
L 1259 2394 
L 2053 2394 
Q 2494 2394 2734 2622 
Q 2975 2850 2975 3272 
Q 2975 3691 2734 3919 
Q 2494 4147 2053 4147 
L 1259 4147 
z
M 628 4666 
L 2053 4666 
Q 2838 4666 3239 4311 
Q 3641 3956 3641 3272 
Q 3641 2581 3239 2228 
Q 2838 1875 2053 1875 
L 1259 1875 
L 1259 0 
L 628 0 
L 628 4666 
z
" transform="scale(0.015625)"/>
       <path id="DejaVuSans-69" d="M 603 3500 
L 1178 3500 
L 1178 0 
L 603 0 
L 603 3500 
z
M 603 4863 
L 1178 4863 
L 1178 4134 
L 603 4134 
L 603 4863 
z
" transform="scale(0.015625)"/>
       <path id="DejaVuSans-73" d="M 2834 3397 
L 2834 2853 
Q 2591 2978 2328 3040 
Q 2066 3103 1784 3103 
Q 1356 3103 1142 2972 
Q 928 2841 928 2578 
Q 928 2378 1081 2264 
Q 1234 2150 1697 2047 
L 1894 2003 
Q 2506 1872 2764 1633 
Q 3022 1394 3022 966 
Q 3022 478 2636 193 
Q 2250 -91 1575 -91 
Q 1294 -91 989 -36 
Q 684 19 347 128 
L 347 722 
Q 666 556 975 473 
Q 1284 391 1588 391 
Q 1994 391 2212 530 
Q 2431 669 2431 922 
Q 2431 1156 2273 1281 
Q 2116 1406 1581 1522 
L 1381 1569 
Q 847 1681 609 1914 
Q 372 2147 372 2553 
Q 372 3047 722 3315 
Q 1072 3584 1716 3584 
Q 2034 3584 2315 3537 
Q 2597 3491 2834 3397 
z
" transform="scale(0.015625)"/>
       <path id="DejaVuSans-6e" d="M 3513 2113 
L 3513 0 
L 2938 0 
L 2938 2094 
Q 2938 2591 2744 2837 
Q 2550 3084 2163 3084 
Q 1697 3084 1428 2787 
Q 1159 2491 1159 1978 
L 1159 0 
L 581 0 
L 581 3500 
L 1159 3500 
L 1159 2956 
Q 1366 3272 1645 3428 
Q 1925 3584 2291 3584 
Q 2894 3584 3203 3211 
Q 3513 2838 3513 2113 
z
" transform="scale(0.015625)"/>
      </defs>
      <use xlink:href="#DejaVuSans-50"/>
      <use xlink:href="#DejaVuSans-72" x="58.552734"/>
      <use xlink:href="#DejaVuSans-65" x="97.416016"/>
      <use xlink:href="#DejaVuSans-63" x="158.939453"/>
      <use xlink:href="#DejaVuSans-69" x="213.919922"/>
      <use xlink:href="#DejaVuSans-73" x="241.703125"/>
      <use xlink:href="#DejaVuSans-69" x="293.802734"/>
      <use xlink:href="#DejaVuSans-6f" x="321.585938"/>
      <use xlink:href="#DejaVuSans-6e" x="382.767578"/>
     </g>
    </g>
    <g id="line2d_17">
     <path d="M 257.23075 291.73941 
L 274.83075 291.73941 
L 292.43075 291.73941 
" style="fill: none; stroke-dasharray: 7.4,3.2; stroke-dashoffset: 0; stroke: #377eb8; stroke-width: 2"/>
    </g>
    <g id="text_16">
     <!-- Recall -->
     <g transform="translate(306.51075 297.89941) scale(0.176 -0.176)">
      <defs>
       <path id="DejaVuSans-52" d="M 2841 2188 
Q 3044 2119 3236 1894 
Q 3428 1669 3622 1275 
L 4263 0 
L 3584 0 
L 2988 1197 
Q 2756 1666 2539 1819 
Q 2322 1972 1947 1972 
L 1259 1972 
L 1259 0 
L 628 0 
L 628 4666 
L 2053 4666 
Q 2853 4666 3247 4331 
Q 3641 3997 3641 3322 
Q 3641 2881 3436 2590 
Q 3231 2300 2841 2188 
z
M 1259 4147 
L 1259 2491 
L 2053 2491 
Q 2509 2491 2742 2702 
Q 2975 2913 2975 3322 
Q 2975 3731 2742 3939 
Q 2509 4147 2053 4147 
L 1259 4147 
z
" transform="scale(0.015625)"/>
       <path id="DejaVuSans-6c" d="M 603 4863 
L 1178 4863 
L 1178 0 
L 603 0 
L 603 4863 
z
" transform="scale(0.015625)"/>
      </defs>
      <use xlink:href="#DejaVuSans-52"/>
      <use xlink:href="#DejaVuSans-65" x="64.982422"/>
      <use xlink:href="#DejaVuSans-63" x="126.505859"/>
      <use xlink:href="#DejaVuSans-61" x="181.486328"/>
      <use xlink:href="#DejaVuSans-6c" x="242.765625"/>
      <use xlink:href="#DejaVuSans-6c" x="270.548828"/>
     </g>
    </g>
    <g id="line2d_18">
     <path d="M 257.23075 317.57291 
L 274.83075 317.57291 
L 292.43075 317.57291 
" style="fill: none; stroke: #984ea3; stroke-width: 3; stroke-linecap: square"/>
    </g>
    <g id="text_17">
     <!-- F1 -->
     <g transform="translate(306.51075 323.73291) scale(0.176 -0.176)">
      <defs>
       <path id="DejaVuSans-46" d="M 628 4666 
L 3309 4666 
L 3309 4134 
L 1259 4134 
L 1259 2759 
L 3109 2759 
L 3109 2228 
L 1259 2228 
L 1259 0 
L 628 0 
L 628 4666 
z
" transform="scale(0.015625)"/>
      </defs>
      <use xlink:href="#DejaVuSans-46"/>
      <use xlink:href="#DejaVuSans-31" x="57.519531"/>
     </g>
    </g>
   </g>
  </g>
 </g>
 <defs>
  <clipPath id="p80ca85ae00">
   <rect x="66.0715" y="10.59316" width="334.8" height="332.64"/>
  </clipPath>
 </defs>
</svg>
