<?xml version="1.0" encoding="utf-8" standalone="no"?>
<!DOCTYPE svg PUBLIC "-//W3C//DTD SVG 1.1//EN"
  "http://www.w3.org/Graphics/SVG/1.1/DTD/svg11.dtd">
<svg xmlns:xlink="http://www.w3.org/1999/xlink" width="408.0715pt" height="398.34866pt" viewBox="0 0 408.0715 398.34866" xmlns="http://www.w3.org/2000/svg" version="1.1">
 <metadata>
  <rdf:RDF xmlns:dc="http://purl.org/dc/elements/1.1/" xmlns:cc="http://creativecommons.org/ns#" xmlns:rdf="http://www.w3.org/1999/02/22-rdf-syntax-ns#">
   <cc:Work>
    <dc:type rdf:resource="http://purl.org/dc/dcmitype/StillImage"/>
    <dc:date>2024-10-01T11:03:51.780702</dc:date>
    <dc:format>image/svg+xml</dc:format>
    <dc:creator>
     <cc:Agent>
      <dc:title>Matplotlib v3.8.0, https://matplotlib.org/</dc:title>
     </cc:Agent>
    </dc:creator>
   </cc:Work>
  </rdf:RDF>
 </metadata>
 <defs>
  <style type="text/css">*{stroke-linejoin: round; stroke-linecap: butt}</style>
 </defs>
 <g id="figure_1">
  <g id="patch_1">
   <path d="M 0 398.34866 
L 408.0715 398.34866 
L 408.0715 0 
L 0 0 
z
" style="fill: #ffffff"/>
  </g>
  <g id="axes_1">
   <g id="patch_2">
    <path d="M 66.0715 343.23316 
L 400.8715 343.23316 
L 400.8715 10.59316 
L 66.0715 10.59316 
z
" style="fill: #ffffff"/>
   </g>
   <g id="PolyCollection_1"/>
   <g id="PolyCollection_2"/>
   <g id="PolyCollection_3"/>
   <g id="PolyCollection_4">
    <defs>
     <path id="m777f54fc30" d="M 66.447258 -387.7555 
L 66.447258 -55.1155 
L 68.326045 -55.1155 
L 68.326045 -387.7555 
L 68.326045 -387.7555 
L 66.447258 -387.7555 
z
"/>
    </defs>
    <g clip-path="url(#pbdac3e8fc8)">
     <use xlink:href="#m777f54fc30" x="0" y="398.34866" style="fill: #1b9e77; fill-opacity: 0.2"/>
    </g>
   </g>
   <g id="PolyCollection_5">
    <defs>
     <path id="m858385f68b" d="M 68.326045 -387.7555 
L 68.326045 -55.1155 
L 70.204833 -55.1155 
L 70.204833 -387.7555 
L 70.204833 -387.7555 
L 68.326045 -387.7555 
z
"/>
    </defs>
    <g clip-path="url(#pbdac3e8fc8)">
     <use xlink:href="#m858385f68b" x="0" y="398.34866" style="fill: #1b9e77; fill-opacity: 0.2"/>
    </g>
   </g>
   <g id="PolyCollection_6">
    <defs>
     <path id="m557d1bc639" d="M 70.204833 -387.7555 
L 70.204833 -55.1155 
L 72.083621 -55.1155 
L 72.083621 -387.7555 
L 72.083621 -387.7555 
L 70.204833 -387.7555 
z
"/>
    </defs>
    <g clip-path="url(#pbdac3e8fc8)">
     <use xlink:href="#m557d1bc639" x="0" y="398.34866" style="fill: #1b9e77; fill-opacity: 0.2"/>
    </g>
   </g>
   <g id="PolyCollection_7">
    <defs>
     <path id="mbfeefdddf4" d="M 72.083621 -387.7555 
L 72.083621 -55.1155 
L 73.962409 -55.1155 
L 73.962409 -387.7555 
L 73.962409 -387.7555 
L 72.083621 -387.7555 
z
"/>
    </defs>
    <g clip-path="url(#pbdac3e8fc8)">
     <use xlink:href="#mbfeefdddf4" x="0" y="398.34866" style="fill: #d95f02; fill-opacity: 0.2"/>
    </g>
   </g>
   <g id="PolyCollection_8">
    <defs>
     <path id="m0552142827" d="M 73.962409 -387.7555 
L 73.962409 -55.1155 
L 75.841197 -55.1155 
L 75.841197 -387.7555 
L 75.841197 -387.7555 
L 73.962409 -387.7555 
z
"/>
    </defs>
    <g clip-path="url(#pbdac3e8fc8)">
     <use xlink:href="#m0552142827" x="0" y="398.34866" style="fill: #1b9e77; fill-opacity: 0.2"/>
    </g>
   </g>
   <g id="PolyCollection_9">
    <defs>
     <path id="m31d3170250" d="M 75.841197 -387.7555 
L 75.841197 -55.1155 
L 77.719985 -55.1155 
L 77.719985 -387.7555 
L 77.719985 -387.7555 
L 75.841197 -387.7555 
z
"/>
    </defs>
    <g clip-path="url(#pbdac3e8fc8)">
     <use xlink:href="#m31d3170250" x="0" y="398.34866" style="fill: #1b9e77; fill-opacity: 0.2"/>
    </g>
   </g>
   <g id="PolyCollection_10">
    <defs>
     <path id="mb36fec0cda" d="M 77.719985 -387.7555 
L 77.719985 -55.1155 
L 79.598773 -55.1155 
L 79.598773 -387.7555 
L 79.598773 -387.7555 
L 77.719985 -387.7555 
z
"/>
    </defs>
    <g clip-path="url(#pbdac3e8fc8)">
     <use xlink:href="#mb36fec0cda" x="0" y="398.34866" style="fill: #1b9e77; fill-opacity: 0.2"/>
    </g>
   </g>
   <g id="PolyCollection_11">
    <defs>
     <path id="meba44b1815" d="M 79.598773 -387.7555 
L 79.598773 -55.1155 
L 81.477561 -55.1155 
L 81.477561 -387.7555 
L 81.477561 -387.7555 
L 79.598773 -387.7555 
z
"/>
    </defs>
    <g clip-path="url(#pbdac3e8fc8)">
     <use xlink:href="#meba44b1815" x="0" y="398.34866" style="fill: #1b9e77; fill-opacity: 0.2"/>
    </g>
   </g>
   <g id="PolyCollection_12">
    <defs>
     <path id="m4f62638b3f" d="M 81.477561 -387.7555 
L 81.477561 -55.1155 
L 83.356348 -55.1155 
L 83.356348 -387.7555 
L 83.356348 -387.7555 
L 81.477561 -387.7555 
z
"/>
    </defs>
    <g clip-path="url(#pbdac3e8fc8)">
     <use xlink:href="#m4f62638b3f" x="0" y="398.34866" style="fill: #1b9e77; fill-opacity: 0.2"/>
    </g>
   </g>
   <g id="PolyCollection_13">
    <defs>
     <path id="m6d643d10d7" d="M 83.356348 -387.7555 
L 83.356348 -55.1155 
L 85.235136 -55.1155 
L 85.235136 -387.7555 
L 85.235136 -387.7555 
L 83.356348 -387.7555 
z
"/>
    </defs>
    <g clip-path="url(#pbdac3e8fc8)">
     <use xlink:href="#m6d643d10d7" x="0" y="398.34866" style="fill: #1b9e77; fill-opacity: 0.2"/>
    </g>
   </g>
   <g id="PolyCollection_14">
    <defs>
     <path id="ma982744bc7" d="M 85.235136 -387.7555 
L 85.235136 -55.1155 
L 87.113924 -55.1155 
L 87.113924 -387.7555 
L 87.113924 -387.7555 
L 85.235136 -387.7555 
z
"/>
    </defs>
    <g clip-path="url(#pbdac3e8fc8)">
     <use xlink:href="#ma982744bc7" x="0" y="398.34866" style="fill: #d95f02; fill-opacity: 0.2"/>
    </g>
   </g>
   <g id="PolyCollection_15">
    <defs>
     <path id="mc4bec0df06" d="M 87.113924 -387.7555 
L 87.113924 -55.1155 
L 88.992712 -55.1155 
L 88.992712 -387.7555 
L 88.992712 -387.7555 
L 87.113924 -387.7555 
z
"/>
    </defs>
    <g clip-path="url(#pbdac3e8fc8)">
     <use xlink:href="#mc4bec0df06" x="0" y="398.34866" style="fill: #d95f02; fill-opacity: 0.2"/>
    </g>
   </g>
   <g id="PolyCollection_16">
    <defs>
     <path id="m57dc6f9e49" d="M 88.992712 -387.7555 
L 88.992712 -55.1155 
L 90.8715 -55.1155 
L 90.8715 -387.7555 
L 90.8715 -387.7555 
L 88.992712 -387.7555 
z
"/>
    </defs>
    <g clip-path="url(#pbdac3e8fc8)">
     <use xlink:href="#m57dc6f9e49" x="0" y="398.34866" style="fill: #d95f02; fill-opacity: 0.2"/>
    </g>
   </g>
   <g id="PolyCollection_17">
    <defs>
     <path id="m2459526971" d="M 90.8715 -387.7555 
L 90.8715 -55.1155 
L 92.750288 -55.1155 
L 92.750288 -387.7555 
L 92.750288 -387.7555 
L 90.8715 -387.7555 
z
"/>
    </defs>
    <g clip-path="url(#pbdac3e8fc8)">
     <use xlink:href="#m2459526971" x="0" y="398.34866" style="fill: #d95f02; fill-opacity: 0.2"/>
    </g>
   </g>
   <g id="PolyCollection_18">
    <defs>
     <path id="m15c01c624f" d="M 92.750288 -387.7555 
L 92.750288 -55.1155 
L 94.629076 -55.1155 
L 94.629076 -387.7555 
L 94.629076 -387.7555 
L 92.750288 -387.7555 
z
"/>
    </defs>
    <g clip-path="url(#pbdac3e8fc8)">
     <use xlink:href="#m15c01c624f" x="0" y="398.34866" style="fill: #d95f02; fill-opacity: 0.2"/>
    </g>
   </g>
   <g id="PolyCollection_19">
    <defs>
     <path id="ma12b00baa2" d="M 94.629076 -387.7555 
L 94.629076 -55.1155 
L 96.507864 -55.1155 
L 96.507864 -387.7555 
L 96.507864 -387.7555 
L 94.629076 -387.7555 
z
"/>
    </defs>
    <g clip-path="url(#pbdac3e8fc8)">
     <use xlink:href="#ma12b00baa2" x="0" y="398.34866" style="fill: #d95f02; fill-opacity: 0.2"/>
    </g>
   </g>
   <g id="PolyCollection_20">
    <defs>
     <path id="m24cb1b5aa2" d="M 96.507864 -387.7555 
L 96.507864 -55.1155 
L 98.386652 -55.1155 
L 98.386652 -387.7555 
L 98.386652 -387.7555 
L 96.507864 -387.7555 
z
"/>
    </defs>
    <g clip-path="url(#pbdac3e8fc8)">
     <use xlink:href="#m24cb1b5aa2" x="0" y="398.34866" style="fill: #d95f02; fill-opacity: 0.2"/>
    </g>
   </g>
   <g id="PolyCollection_21">
    <defs>
     <path id="mc77d52a778" d="M 98.386652 -387.7555 
L 98.386652 -55.1155 
L 100.265439 -55.1155 
L 100.265439 -387.7555 
L 100.265439 -387.7555 
L 98.386652 -387.7555 
z
"/>
    </defs>
    <g clip-path="url(#pbdac3e8fc8)">
     <use xlink:href="#mc77d52a778" x="0" y="398.34866" style="fill: #d95f02; fill-opacity: 0.2"/>
    </g>
   </g>
   <g id="PolyCollection_22">
    <defs>
     <path id="ma8b6e45880" d="M 100.265439 -387.7555 
L 100.265439 -55.1155 
L 102.144227 -55.1155 
L 102.144227 -387.7555 
L 102.144227 -387.7555 
L 100.265439 -387.7555 
z
"/>
    </defs>
    <g clip-path="url(#pbdac3e8fc8)">
     <use xlink:href="#ma8b6e45880" x="0" y="398.34866" style="fill: #d95f02; fill-opacity: 0.2"/>
    </g>
   </g>
   <g id="PolyCollection_23">
    <defs>
     <path id="mdfcb3d2225" d="M 102.144227 -387.7555 
L 102.144227 -55.1155 
L 104.023015 -55.1155 
L 104.023015 -387.7555 
L 104.023015 -387.7555 
L 102.144227 -387.7555 
z
"/>
    </defs>
    <g clip-path="url(#pbdac3e8fc8)">
     <use xlink:href="#mdfcb3d2225" x="0" y="398.34866" style="fill: #d95f02; fill-opacity: 0.2"/>
    </g>
   </g>
   <g id="PolyCollection_24">
    <defs>
     <path id="m61609f9e4b" d="M 104.023015 -387.7555 
L 104.023015 -55.1155 
L 105.901803 -55.1155 
L 105.901803 -387.7555 
L 105.901803 -387.7555 
L 104.023015 -387.7555 
z
"/>
    </defs>
    <g clip-path="url(#pbdac3e8fc8)">
     <use xlink:href="#m61609f9e4b" x="0" y="398.34866" style="fill: #d95f02; fill-opacity: 0.2"/>
    </g>
   </g>
   <g id="PolyCollection_25">
    <defs>
     <path id="mda3ef7f5b9" d="M 105.901803 -387.7555 
L 105.901803 -55.1155 
L 107.780591 -55.1155 
L 107.780591 -387.7555 
L 107.780591 -387.7555 
L 105.901803 -387.7555 
z
"/>
    </defs>
    <g clip-path="url(#pbdac3e8fc8)">
     <use xlink:href="#mda3ef7f5b9" x="0" y="398.34866" style="fill: #d95f02; fill-opacity: 0.2"/>
    </g>
   </g>
   <g id="PolyCollection_26">
    <defs>
     <path id="me9e921c877" d="M 107.780591 -387.7555 
L 107.780591 -55.1155 
L 109.659379 -55.1155 
L 109.659379 -387.7555 
L 109.659379 -387.7555 
L 107.780591 -387.7555 
z
"/>
    </defs>
    <g clip-path="url(#pbdac3e8fc8)">
     <use xlink:href="#me9e921c877" x="0" y="398.34866" style="fill: #d95f02; fill-opacity: 0.2"/>
    </g>
   </g>
   <g id="PolyCollection_27">
    <defs>
     <path id="m37f1aee186" d="M 109.659379 -387.7555 
L 109.659379 -55.1155 
L 111.538167 -55.1155 
L 111.538167 -387.7555 
L 111.538167 -387.7555 
L 109.659379 -387.7555 
z
"/>
    </defs>
    <g clip-path="url(#pbdac3e8fc8)">
     <use xlink:href="#m37f1aee186" x="0" y="398.34866" style="fill: #1b9e77; fill-opacity: 0.2"/>
    </g>
   </g>
   <g id="PolyCollection_28">
    <defs>
     <path id="m065310bc5f" d="M 111.538167 -387.7555 
L 111.538167 -55.1155 
L 113.416955 -55.1155 
L 113.416955 -387.7555 
L 113.416955 -387.7555 
L 111.538167 -387.7555 
z
"/>
    </defs>
    <g clip-path="url(#pbdac3e8fc8)">
     <use xlink:href="#m065310bc5f" x="0" y="398.34866" style="fill: #d95f02; fill-opacity: 0.2"/>
    </g>
   </g>
   <g id="PolyCollection_29">
    <defs>
     <path id="m866397a62a" d="M 113.416955 -387.7555 
L 113.416955 -55.1155 
L 115.295742 -55.1155 
L 115.295742 -387.7555 
L 115.295742 -387.7555 
L 113.416955 -387.7555 
z
"/>
    </defs>
    <g clip-path="url(#pbdac3e8fc8)">
     <use xlink:href="#m866397a62a" x="0" y="398.34866" style="fill: #d95f02; fill-opacity: 0.2"/>
    </g>
   </g>
   <g id="PolyCollection_30">
    <defs>
     <path id="mbfb1b5a595" d="M 115.295742 -387.7555 
L 115.295742 -55.1155 
L 117.17453 -55.1155 
L 117.17453 -387.7555 
L 117.17453 -387.7555 
L 115.295742 -387.7555 
z
"/>
    </defs>
    <g clip-path="url(#pbdac3e8fc8)">
     <use xlink:href="#mbfb1b5a595" x="0" y="398.34866" style="fill: #1b9e77; fill-opacity: 0.2"/>
    </g>
   </g>
   <g id="PolyCollection_31">
    <defs>
     <path id="m8f7f8fb9a6" d="M 117.17453 -387.7555 
L 117.17453 -55.1155 
L 119.053318 -55.1155 
L 119.053318 -387.7555 
L 119.053318 -387.7555 
L 117.17453 -387.7555 
z
"/>
    </defs>
    <g clip-path="url(#pbdac3e8fc8)">
     <use xlink:href="#m8f7f8fb9a6" x="0" y="398.34866" style="fill: #1b9e77; fill-opacity: 0.2"/>
    </g>
   </g>
   <g id="PolyCollection_32">
    <defs>
     <path id="m2d9a677ac5" d="M 119.053318 -387.7555 
L 119.053318 -55.1155 
L 120.932106 -55.1155 
L 120.932106 -387.7555 
L 120.932106 -387.7555 
L 119.053318 -387.7555 
z
"/>
    </defs>
    <g clip-path="url(#pbdac3e8fc8)">
     <use xlink:href="#m2d9a677ac5" x="0" y="398.34866" style="fill: #d95f02; fill-opacity: 0.2"/>
    </g>
   </g>
   <g id="PolyCollection_33">
    <defs>
     <path id="m5f9e59487b" d="M 120.932106 -387.7555 
L 120.932106 -55.1155 
L 122.810894 -55.1155 
L 122.810894 -387.7555 
L 122.810894 -387.7555 
L 120.932106 -387.7555 
z
"/>
    </defs>
    <g clip-path="url(#pbdac3e8fc8)">
     <use xlink:href="#m5f9e59487b" x="0" y="398.34866" style="fill: #d95f02; fill-opacity: 0.2"/>
    </g>
   </g>
   <g id="PolyCollection_34">
    <defs>
     <path id="md3f29bdcab" d="M 122.810894 -387.7555 
L 122.810894 -55.1155 
L 124.689682 -55.1155 
L 124.689682 -387.7555 
L 124.689682 -387.7555 
L 122.810894 -387.7555 
z
"/>
    </defs>
    <g clip-path="url(#pbdac3e8fc8)">
     <use xlink:href="#md3f29bdcab" x="0" y="398.34866" style="fill: #d95f02; fill-opacity: 0.2"/>
    </g>
   </g>
   <g id="PolyCollection_35">
    <defs>
     <path id="m05831de994" d="M 124.689682 -387.7555 
L 124.689682 -55.1155 
L 126.56847 -55.1155 
L 126.56847 -387.7555 
L 126.56847 -387.7555 
L 124.689682 -387.7555 
z
"/>
    </defs>
    <g clip-path="url(#pbdac3e8fc8)">
     <use xlink:href="#m05831de994" x="0" y="398.34866" style="fill: #d95f02; fill-opacity: 0.2"/>
    </g>
   </g>
   <g id="PolyCollection_36">
    <defs>
     <path id="m92b3319066" d="M 126.56847 -387.7555 
L 126.56847 -55.1155 
L 128.447258 -55.1155 
L 128.447258 -387.7555 
L 128.447258 -387.7555 
L 126.56847 -387.7555 
z
"/>
    </defs>
    <g clip-path="url(#pbdac3e8fc8)">
     <use xlink:href="#m92b3319066" x="0" y="398.34866" style="fill: #d95f02; fill-opacity: 0.2"/>
    </g>
   </g>
   <g id="PolyCollection_37">
    <defs>
     <path id="m3d1aec40c2" d="M 128.447258 -387.7555 
L 128.447258 -55.1155 
L 130.326045 -55.1155 
L 130.326045 -387.7555 
L 130.326045 -387.7555 
L 128.447258 -387.7555 
z
"/>
    </defs>
    <g clip-path="url(#pbdac3e8fc8)">
     <use xlink:href="#m3d1aec40c2" x="0" y="398.34866" style="fill: #d95f02; fill-opacity: 0.2"/>
    </g>
   </g>
   <g id="PolyCollection_38">
    <defs>
     <path id="m4f9d253e2f" d="M 130.326045 -387.7555 
L 130.326045 -55.1155 
L 132.204833 -55.1155 
L 132.204833 -387.7555 
L 132.204833 -387.7555 
L 130.326045 -387.7555 
z
"/>
    </defs>
    <g clip-path="url(#pbdac3e8fc8)">
     <use xlink:href="#m4f9d253e2f" x="0" y="398.34866" style="fill: #d95f02; fill-opacity: 0.2"/>
    </g>
   </g>
   <g id="PolyCollection_39">
    <defs>
     <path id="m397b34c395" d="M 132.204833 -387.7555 
L 132.204833 -55.1155 
L 134.083621 -55.1155 
L 134.083621 -387.7555 
L 134.083621 -387.7555 
L 132.204833 -387.7555 
z
"/>
    </defs>
    <g clip-path="url(#pbdac3e8fc8)">
     <use xlink:href="#m397b34c395" x="0" y="398.34866" style="fill: #d95f02; fill-opacity: 0.2"/>
    </g>
   </g>
   <g id="PolyCollection_40">
    <defs>
     <path id="m2c8e3120b0" d="M 134.083621 -387.7555 
L 134.083621 -55.1155 
L 135.962409 -55.1155 
L 135.962409 -387.7555 
L 135.962409 -387.7555 
L 134.083621 -387.7555 
z
"/>
    </defs>
    <g clip-path="url(#pbdac3e8fc8)">
     <use xlink:href="#m2c8e3120b0" x="0" y="398.34866" style="fill: #d95f02; fill-opacity: 0.2"/>
    </g>
   </g>
   <g id="PolyCollection_41">
    <defs>
     <path id="m67a2b909b9" d="M 135.962409 -387.7555 
L 135.962409 -55.1155 
L 137.841197 -55.1155 
L 137.841197 -387.7555 
L 137.841197 -387.7555 
L 135.962409 -387.7555 
z
"/>
    </defs>
    <g clip-path="url(#pbdac3e8fc8)">
     <use xlink:href="#m67a2b909b9" x="0" y="398.34866" style="fill: #1b9e77; fill-opacity: 0.2"/>
    </g>
   </g>
   <g id="PolyCollection_42">
    <defs>
     <path id="m833d5a9ce9" d="M 137.841197 -387.7555 
L 137.841197 -55.1155 
L 139.719985 -55.1155 
L 139.719985 -387.7555 
L 139.719985 -387.7555 
L 137.841197 -387.7555 
z
"/>
    </defs>
    <g clip-path="url(#pbdac3e8fc8)">
     <use xlink:href="#m833d5a9ce9" x="0" y="398.34866" style="fill: #d95f02; fill-opacity: 0.2"/>
    </g>
   </g>
   <g id="PolyCollection_43">
    <defs>
     <path id="m1c7597aa88" d="M 139.719985 -387.7555 
L 139.719985 -55.1155 
L 141.598773 -55.1155 
L 141.598773 -387.7555 
L 141.598773 -387.7555 
L 139.719985 -387.7555 
z
"/>
    </defs>
    <g clip-path="url(#pbdac3e8fc8)">
     <use xlink:href="#m1c7597aa88" x="0" y="398.34866" style="fill: #d95f02; fill-opacity: 0.2"/>
    </g>
   </g>
   <g id="PolyCollection_44">
    <defs>
     <path id="m488631d90c" d="M 141.598773 -387.7555 
L 141.598773 -55.1155 
L 143.477561 -55.1155 
L 143.477561 -387.7555 
L 143.477561 -387.7555 
L 141.598773 -387.7555 
z
"/>
    </defs>
    <g clip-path="url(#pbdac3e8fc8)">
     <use xlink:href="#m488631d90c" x="0" y="398.34866" style="fill: #d95f02; fill-opacity: 0.2"/>
    </g>
   </g>
   <g id="PolyCollection_45">
    <defs>
     <path id="m6dd927e155" d="M 143.477561 -387.7555 
L 143.477561 -55.1155 
L 145.356348 -55.1155 
L 145.356348 -387.7555 
L 145.356348 -387.7555 
L 143.477561 -387.7555 
z
"/>
    </defs>
    <g clip-path="url(#pbdac3e8fc8)">
     <use xlink:href="#m6dd927e155" x="0" y="398.34866" style="fill: #d95f02; fill-opacity: 0.2"/>
    </g>
   </g>
   <g id="PolyCollection_46">
    <defs>
     <path id="m4b34785cf4" d="M 145.356348 -387.7555 
L 145.356348 -55.1155 
L 147.235136 -55.1155 
L 147.235136 -387.7555 
L 147.235136 -387.7555 
L 145.356348 -387.7555 
z
"/>
    </defs>
    <g clip-path="url(#pbdac3e8fc8)">
     <use xlink:href="#m4b34785cf4" x="0" y="398.34866" style="fill: #d95f02; fill-opacity: 0.2"/>
    </g>
   </g>
   <g id="PolyCollection_47">
    <defs>
     <path id="m4821b131fb" d="M 147.235136 -387.7555 
L 147.235136 -55.1155 
L 149.113924 -55.1155 
L 149.113924 -387.7555 
L 149.113924 -387.7555 
L 147.235136 -387.7555 
z
"/>
    </defs>
    <g clip-path="url(#pbdac3e8fc8)">
     <use xlink:href="#m4821b131fb" x="0" y="398.34866" style="fill: #d95f02; fill-opacity: 0.2"/>
    </g>
   </g>
   <g id="PolyCollection_48">
    <defs>
     <path id="m09f90c37d1" d="M 149.113924 -387.7555 
L 149.113924 -55.1155 
L 150.992712 -55.1155 
L 150.992712 -387.7555 
L 150.992712 -387.7555 
L 149.113924 -387.7555 
z
"/>
    </defs>
    <g clip-path="url(#pbdac3e8fc8)">
     <use xlink:href="#m09f90c37d1" x="0" y="398.34866" style="fill: #d95f02; fill-opacity: 0.2"/>
    </g>
   </g>
   <g id="PolyCollection_49">
    <defs>
     <path id="m685aab2e53" d="M 150.992712 -387.7555 
L 150.992712 -55.1155 
L 152.8715 -55.1155 
L 152.8715 -387.7555 
L 152.8715 -387.7555 
L 150.992712 -387.7555 
z
"/>
    </defs>
    <g clip-path="url(#pbdac3e8fc8)">
     <use xlink:href="#m685aab2e53" x="0" y="398.34866" style="fill: #1b9e77; fill-opacity: 0.2"/>
    </g>
   </g>
   <g id="PolyCollection_50">
    <defs>
     <path id="mc1fc4842e5" d="M 152.8715 -387.7555 
L 152.8715 -55.1155 
L 154.750288 -55.1155 
L 154.750288 -387.7555 
L 154.750288 -387.7555 
L 152.8715 -387.7555 
z
"/>
    </defs>
    <g clip-path="url(#pbdac3e8fc8)">
     <use xlink:href="#mc1fc4842e5" x="0" y="398.34866" style="fill: #d95f02; fill-opacity: 0.2"/>
    </g>
   </g>
   <g id="PolyCollection_51">
    <defs>
     <path id="ma662e13f65" d="M 154.750288 -387.7555 
L 154.750288 -55.1155 
L 156.629076 -55.1155 
L 156.629076 -387.7555 
L 156.629076 -387.7555 
L 154.750288 -387.7555 
z
"/>
    </defs>
    <g clip-path="url(#pbdac3e8fc8)">
     <use xlink:href="#ma662e13f65" x="0" y="398.34866" style="fill: #d95f02; fill-opacity: 0.2"/>
    </g>
   </g>
   <g id="PolyCollection_52">
    <defs>
     <path id="mcb09787fb9" d="M 156.629076 -387.7555 
L 156.629076 -55.1155 
L 158.507864 -55.1155 
L 158.507864 -387.7555 
L 158.507864 -387.7555 
L 156.629076 -387.7555 
z
"/>
    </defs>
    <g clip-path="url(#pbdac3e8fc8)">
     <use xlink:href="#mcb09787fb9" x="0" y="398.34866" style="fill: #d95f02; fill-opacity: 0.2"/>
    </g>
   </g>
   <g id="PolyCollection_53">
    <defs>
     <path id="m04819714ae" d="M 158.507864 -387.7555 
L 158.507864 -55.1155 
L 160.386652 -55.1155 
L 160.386652 -387.7555 
L 160.386652 -387.7555 
L 158.507864 -387.7555 
z
"/>
    </defs>
    <g clip-path="url(#pbdac3e8fc8)">
     <use xlink:href="#m04819714ae" x="0" y="398.34866" style="fill: #d95f02; fill-opacity: 0.2"/>
    </g>
   </g>
   <g id="PolyCollection_54">
    <defs>
     <path id="m7b3a1c8a33" d="M 160.386652 -387.7555 
L 160.386652 -55.1155 
L 162.265439 -55.1155 
L 162.265439 -387.7555 
L 162.265439 -387.7555 
L 160.386652 -387.7555 
z
"/>
    </defs>
    <g clip-path="url(#pbdac3e8fc8)">
     <use xlink:href="#m7b3a1c8a33" x="0" y="398.34866" style="fill: #d95f02; fill-opacity: 0.2"/>
    </g>
   </g>
   <g id="PolyCollection_55">
    <defs>
     <path id="m90d4338655" d="M 162.265439 -387.7555 
L 162.265439 -55.1155 
L 164.144227 -55.1155 
L 164.144227 -387.7555 
L 164.144227 -387.7555 
L 162.265439 -387.7555 
z
"/>
    </defs>
    <g clip-path="url(#pbdac3e8fc8)">
     <use xlink:href="#m90d4338655" x="0" y="398.34866" style="fill: #d95f02; fill-opacity: 0.2"/>
    </g>
   </g>
   <g id="PolyCollection_56">
    <defs>
     <path id="m72cfe02cfd" d="M 164.144227 -387.7555 
L 164.144227 -55.1155 
L 166.023015 -55.1155 
L 166.023015 -387.7555 
L 166.023015 -387.7555 
L 164.144227 -387.7555 
z
"/>
    </defs>
    <g clip-path="url(#pbdac3e8fc8)">
     <use xlink:href="#m72cfe02cfd" x="0" y="398.34866" style="fill: #d95f02; fill-opacity: 0.2"/>
    </g>
   </g>
   <g id="PolyCollection_57">
    <defs>
     <path id="m7786dfefd4" d="M 166.023015 -387.7555 
L 166.023015 -55.1155 
L 167.901803 -55.1155 
L 167.901803 -387.7555 
L 167.901803 -387.7555 
L 166.023015 -387.7555 
z
"/>
    </defs>
    <g clip-path="url(#pbdac3e8fc8)">
     <use xlink:href="#m7786dfefd4" x="0" y="398.34866" style="fill: #d95f02; fill-opacity: 0.2"/>
    </g>
   </g>
   <g id="PolyCollection_58">
    <defs>
     <path id="mc819e0734d" d="M 167.901803 -387.7555 
L 167.901803 -55.1155 
L 169.780591 -55.1155 
L 169.780591 -387.7555 
L 169.780591 -387.7555 
L 167.901803 -387.7555 
z
"/>
    </defs>
    <g clip-path="url(#pbdac3e8fc8)">
     <use xlink:href="#mc819e0734d" x="0" y="398.34866" style="fill: #d95f02; fill-opacity: 0.2"/>
    </g>
   </g>
   <g id="PolyCollection_59">
    <defs>
     <path id="mda1fd59b65" d="M 169.780591 -387.7555 
L 169.780591 -55.1155 
L 171.659379 -55.1155 
L 171.659379 -387.7555 
L 171.659379 -387.7555 
L 169.780591 -387.7555 
z
"/>
    </defs>
    <g clip-path="url(#pbdac3e8fc8)">
     <use xlink:href="#mda1fd59b65" x="0" y="398.34866" style="fill: #d95f02; fill-opacity: 0.2"/>
    </g>
   </g>
   <g id="PolyCollection_60">
    <defs>
     <path id="ma3ba27868d" d="M 171.659379 -387.7555 
L 171.659379 -55.1155 
L 173.538167 -55.1155 
L 173.538167 -387.7555 
L 173.538167 -387.7555 
L 171.659379 -387.7555 
z
"/>
    </defs>
    <g clip-path="url(#pbdac3e8fc8)">
     <use xlink:href="#ma3ba27868d" x="0" y="398.34866" style="fill: #d95f02; fill-opacity: 0.2"/>
    </g>
   </g>
   <g id="PolyCollection_61">
    <defs>
     <path id="m163ab4d1b4" d="M 173.538167 -387.7555 
L 173.538167 -55.1155 
L 175.416955 -55.1155 
L 175.416955 -387.7555 
L 175.416955 -387.7555 
L 173.538167 -387.7555 
z
"/>
    </defs>
    <g clip-path="url(#pbdac3e8fc8)">
     <use xlink:href="#m163ab4d1b4" x="0" y="398.34866" style="fill: #d95f02; fill-opacity: 0.2"/>
    </g>
   </g>
   <g id="PolyCollection_62">
    <defs>
     <path id="m0c5dbd6938" d="M 175.416955 -387.7555 
L 175.416955 -55.1155 
L 177.295742 -55.1155 
L 177.295742 -387.7555 
L 177.295742 -387.7555 
L 175.416955 -387.7555 
z
"/>
    </defs>
    <g clip-path="url(#pbdac3e8fc8)">
     <use xlink:href="#m0c5dbd6938" x="0" y="398.34866" style="fill: #d95f02; fill-opacity: 0.2"/>
    </g>
   </g>
   <g id="PolyCollection_63">
    <defs>
     <path id="m3352020ebf" d="M 177.295742 -387.7555 
L 177.295742 -55.1155 
L 179.17453 -55.1155 
L 179.17453 -387.7555 
L 179.17453 -387.7555 
L 177.295742 -387.7555 
z
"/>
    </defs>
    <g clip-path="url(#pbdac3e8fc8)">
     <use xlink:href="#m3352020ebf" x="0" y="398.34866" style="fill: #d95f02; fill-opacity: 0.2"/>
    </g>
   </g>
   <g id="PolyCollection_64">
    <defs>
     <path id="m988e6c47f0" d="M 179.17453 -387.7555 
L 179.17453 -55.1155 
L 181.053318 -55.1155 
L 181.053318 -387.7555 
L 181.053318 -387.7555 
L 179.17453 -387.7555 
z
"/>
    </defs>
    <g clip-path="url(#pbdac3e8fc8)">
     <use xlink:href="#m988e6c47f0" x="0" y="398.34866" style="fill: #d95f02; fill-opacity: 0.2"/>
    </g>
   </g>
   <g id="PolyCollection_65">
    <defs>
     <path id="m4fa0283065" d="M 181.053318 -387.7555 
L 181.053318 -55.1155 
L 182.932106 -55.1155 
L 182.932106 -387.7555 
L 182.932106 -387.7555 
L 181.053318 -387.7555 
z
"/>
    </defs>
    <g clip-path="url(#pbdac3e8fc8)">
     <use xlink:href="#m4fa0283065" x="0" y="398.34866" style="fill: #d95f02; fill-opacity: 0.2"/>
    </g>
   </g>
   <g id="PolyCollection_66">
    <defs>
     <path id="me72354ff70" d="M 182.932106 -387.7555 
L 182.932106 -55.1155 
L 184.810894 -55.1155 
L 184.810894 -387.7555 
L 184.810894 -387.7555 
L 182.932106 -387.7555 
z
"/>
    </defs>
    <g clip-path="url(#pbdac3e8fc8)">
     <use xlink:href="#me72354ff70" x="0" y="398.34866" style="fill: #d95f02; fill-opacity: 0.2"/>
    </g>
   </g>
   <g id="PolyCollection_67">
    <defs>
     <path id="m0adb3601df" d="M 184.810894 -387.7555 
L 184.810894 -55.1155 
L 186.689682 -55.1155 
L 186.689682 -387.7555 
L 186.689682 -387.7555 
L 184.810894 -387.7555 
z
"/>
    </defs>
    <g clip-path="url(#pbdac3e8fc8)">
     <use xlink:href="#m0adb3601df" x="0" y="398.34866" style="fill: #d95f02; fill-opacity: 0.2"/>
    </g>
   </g>
   <g id="PolyCollection_68">
    <defs>
     <path id="m791a4e58f1" d="M 186.689682 -387.7555 
L 186.689682 -55.1155 
L 188.56847 -55.1155 
L 188.56847 -387.7555 
L 188.56847 -387.7555 
L 186.689682 -387.7555 
z
"/>
    </defs>
    <g clip-path="url(#pbdac3e8fc8)">
     <use xlink:href="#m791a4e58f1" x="0" y="398.34866" style="fill: #d95f02; fill-opacity: 0.2"/>
    </g>
   </g>
   <g id="PolyCollection_69">
    <defs>
     <path id="m55b1e4beeb" d="M 188.56847 -387.7555 
L 188.56847 -55.1155 
L 190.447258 -55.1155 
L 190.447258 -387.7555 
L 190.447258 -387.7555 
L 188.56847 -387.7555 
z
"/>
    </defs>
    <g clip-path="url(#pbdac3e8fc8)">
     <use xlink:href="#m55b1e4beeb" x="0" y="398.34866" style="fill: #d95f02; fill-opacity: 0.2"/>
    </g>
   </g>
   <g id="PolyCollection_70">
    <defs>
     <path id="m9b23e7c21e" d="M 190.447258 -387.7555 
L 190.447258 -55.1155 
L 192.326045 -55.1155 
L 192.326045 -387.7555 
L 192.326045 -387.7555 
L 190.447258 -387.7555 
z
"/>
    </defs>
    <g clip-path="url(#pbdac3e8fc8)">
     <use xlink:href="#m9b23e7c21e" x="0" y="398.34866" style="fill: #d95f02; fill-opacity: 0.2"/>
    </g>
   </g>
   <g id="PolyCollection_71">
    <defs>
     <path id="m556cf3ff4e" d="M 192.326045 -387.7555 
L 192.326045 -55.1155 
L 194.204833 -55.1155 
L 194.204833 -387.7555 
L 194.204833 -387.7555 
L 192.326045 -387.7555 
z
"/>
    </defs>
    <g clip-path="url(#pbdac3e8fc8)">
     <use xlink:href="#m556cf3ff4e" x="0" y="398.34866" style="fill: #d95f02; fill-opacity: 0.2"/>
    </g>
   </g>
   <g id="PolyCollection_72">
    <defs>
     <path id="m101dd7930a" d="M 194.204833 -387.7555 
L 194.204833 -55.1155 
L 196.083621 -55.1155 
L 196.083621 -387.7555 
L 196.083621 -387.7555 
L 194.204833 -387.7555 
z
"/>
    </defs>
    <g clip-path="url(#pbdac3e8fc8)">
     <use xlink:href="#m101dd7930a" x="0" y="398.34866" style="fill: #d95f02; fill-opacity: 0.2"/>
    </g>
   </g>
   <g id="PolyCollection_73">
    <defs>
     <path id="m0a3f872cd8" d="M 196.083621 -387.7555 
L 196.083621 -55.1155 
L 197.962409 -55.1155 
L 197.962409 -387.7555 
L 197.962409 -387.7555 
L 196.083621 -387.7555 
z
"/>
    </defs>
    <g clip-path="url(#pbdac3e8fc8)">
     <use xlink:href="#m0a3f872cd8" x="0" y="398.34866" style="fill: #d95f02; fill-opacity: 0.2"/>
    </g>
   </g>
   <g id="PolyCollection_74">
    <defs>
     <path id="m1421190482" d="M 197.962409 -387.7555 
L 197.962409 -55.1155 
L 199.841197 -55.1155 
L 199.841197 -387.7555 
L 199.841197 -387.7555 
L 197.962409 -387.7555 
z
"/>
    </defs>
    <g clip-path="url(#pbdac3e8fc8)">
     <use xlink:href="#m1421190482" x="0" y="398.34866" style="fill: #d95f02; fill-opacity: 0.2"/>
    </g>
   </g>
   <g id="PolyCollection_75">
    <defs>
     <path id="md1ce58a58a" d="M 199.841197 -387.7555 
L 199.841197 -55.1155 
L 201.719985 -55.1155 
L 201.719985 -387.7555 
L 201.719985 -387.7555 
L 199.841197 -387.7555 
z
"/>
    </defs>
    <g clip-path="url(#pbdac3e8fc8)">
     <use xlink:href="#md1ce58a58a" x="0" y="398.34866" style="fill: #d95f02; fill-opacity: 0.2"/>
    </g>
   </g>
   <g id="PolyCollection_76">
    <defs>
     <path id="mbff9dbfd01" d="M 201.719985 -387.7555 
L 201.719985 -55.1155 
L 203.598773 -55.1155 
L 203.598773 -387.7555 
L 203.598773 -387.7555 
L 201.719985 -387.7555 
z
"/>
    </defs>
    <g clip-path="url(#pbdac3e8fc8)">
     <use xlink:href="#mbff9dbfd01" x="0" y="398.34866" style="fill: #d95f02; fill-opacity: 0.2"/>
    </g>
   </g>
   <g id="PolyCollection_77">
    <defs>
     <path id="m1abf3dc652" d="M 203.598773 -387.7555 
L 203.598773 -55.1155 
L 205.477561 -55.1155 
L 205.477561 -387.7555 
L 205.477561 -387.7555 
L 203.598773 -387.7555 
z
"/>
    </defs>
    <g clip-path="url(#pbdac3e8fc8)">
     <use xlink:href="#m1abf3dc652" x="0" y="398.34866" style="fill: #d95f02; fill-opacity: 0.2"/>
    </g>
   </g>
   <g id="PolyCollection_78">
    <defs>
     <path id="m6ab1f687f8" d="M 205.477561 -387.7555 
L 205.477561 -55.1155 
L 207.356348 -55.1155 
L 207.356348 -387.7555 
L 207.356348 -387.7555 
L 205.477561 -387.7555 
z
"/>
    </defs>
    <g clip-path="url(#pbdac3e8fc8)">
     <use xlink:href="#m6ab1f687f8" x="0" y="398.34866" style="fill: #1b9e77; fill-opacity: 0.2"/>
    </g>
   </g>
   <g id="PolyCollection_79">
    <defs>
     <path id="madd838b5ac" d="M 207.356348 -387.7555 
L 207.356348 -55.1155 
L 209.235136 -55.1155 
L 209.235136 -387.7555 
L 209.235136 -387.7555 
L 207.356348 -387.7555 
z
"/>
    </defs>
    <g clip-path="url(#pbdac3e8fc8)">
     <use xlink:href="#madd838b5ac" x="0" y="398.34866" style="fill: #d95f02; fill-opacity: 0.2"/>
    </g>
   </g>
   <g id="PolyCollection_80">
    <defs>
     <path id="m55b200dd8a" d="M 209.235136 -387.7555 
L 209.235136 -55.1155 
L 211.113924 -55.1155 
L 211.113924 -387.7555 
L 211.113924 -387.7555 
L 209.235136 -387.7555 
z
"/>
    </defs>
    <g clip-path="url(#pbdac3e8fc8)">
     <use xlink:href="#m55b200dd8a" x="0" y="398.34866" style="fill: #d95f02; fill-opacity: 0.2"/>
    </g>
   </g>
   <g id="PolyCollection_81">
    <defs>
     <path id="m99509ed775" d="M 211.113924 -387.7555 
L 211.113924 -55.1155 
L 212.992712 -55.1155 
L 212.992712 -387.7555 
L 212.992712 -387.7555 
L 211.113924 -387.7555 
z
"/>
    </defs>
    <g clip-path="url(#pbdac3e8fc8)">
     <use xlink:href="#m99509ed775" x="0" y="398.34866" style="fill: #d95f02; fill-opacity: 0.2"/>
    </g>
   </g>
   <g id="PolyCollection_82">
    <defs>
     <path id="m5cb4e2b24e" d="M 212.992712 -387.7555 
L 212.992712 -55.1155 
L 214.8715 -55.1155 
L 214.8715 -387.7555 
L 214.8715 -387.7555 
L 212.992712 -387.7555 
z
"/>
    </defs>
    <g clip-path="url(#pbdac3e8fc8)">
     <use xlink:href="#m5cb4e2b24e" x="0" y="398.34866" style="fill: #d95f02; fill-opacity: 0.2"/>
    </g>
   </g>
   <g id="PolyCollection_83">
    <defs>
     <path id="m83183742e1" d="M 214.8715 -387.7555 
L 214.8715 -55.1155 
L 216.750288 -55.1155 
L 216.750288 -387.7555 
L 216.750288 -387.7555 
L 214.8715 -387.7555 
z
"/>
    </defs>
    <g clip-path="url(#pbdac3e8fc8)">
     <use xlink:href="#m83183742e1" x="0" y="398.34866" style="fill: #d95f02; fill-opacity: 0.2"/>
    </g>
   </g>
   <g id="PolyCollection_84">
    <defs>
     <path id="m8e795ff8cd" d="M 216.750288 -387.7555 
L 216.750288 -55.1155 
L 218.629076 -55.1155 
L 218.629076 -387.7555 
L 218.629076 -387.7555 
L 216.750288 -387.7555 
z
"/>
    </defs>
    <g clip-path="url(#pbdac3e8fc8)">
     <use xlink:href="#m8e795ff8cd" x="0" y="398.34866" style="fill: #d95f02; fill-opacity: 0.2"/>
    </g>
   </g>
   <g id="PolyCollection_85">
    <defs>
     <path id="mdd77673953" d="M 218.629076 -387.7555 
L 218.629076 -55.1155 
L 220.507864 -55.1155 
L 220.507864 -387.7555 
L 220.507864 -387.7555 
L 218.629076 -387.7555 
z
"/>
    </defs>
    <g clip-path="url(#pbdac3e8fc8)">
     <use xlink:href="#mdd77673953" x="0" y="398.34866" style="fill: #d95f02; fill-opacity: 0.2"/>
    </g>
   </g>
   <g id="PolyCollection_86">
    <defs>
     <path id="m18465d1c36" d="M 220.507864 -387.7555 
L 220.507864 -55.1155 
L 222.386652 -55.1155 
L 222.386652 -387.7555 
L 222.386652 -387.7555 
L 220.507864 -387.7555 
z
"/>
    </defs>
    <g clip-path="url(#pbdac3e8fc8)">
     <use xlink:href="#m18465d1c36" x="0" y="398.34866" style="fill: #d95f02; fill-opacity: 0.2"/>
    </g>
   </g>
   <g id="PolyCollection_87">
    <defs>
     <path id="m954b8ca181" d="M 222.386652 -387.7555 
L 222.386652 -55.1155 
L 224.265439 -55.1155 
L 224.265439 -387.7555 
L 224.265439 -387.7555 
L 222.386652 -387.7555 
z
"/>
    </defs>
    <g clip-path="url(#pbdac3e8fc8)">
     <use xlink:href="#m954b8ca181" x="0" y="398.34866" style="fill: #d95f02; fill-opacity: 0.2"/>
    </g>
   </g>
   <g id="PolyCollection_88">
    <defs>
     <path id="m61b546d27a" d="M 224.265439 -387.7555 
L 224.265439 -55.1155 
L 226.144227 -55.1155 
L 226.144227 -387.7555 
L 226.144227 -387.7555 
L 224.265439 -387.7555 
z
"/>
    </defs>
    <g clip-path="url(#pbdac3e8fc8)">
     <use xlink:href="#m61b546d27a" x="0" y="398.34866" style="fill: #d95f02; fill-opacity: 0.2"/>
    </g>
   </g>
   <g id="PolyCollection_89">
    <defs>
     <path id="mb2db310d62" d="M 226.144227 -387.7555 
L 226.144227 -55.1155 
L 228.023015 -55.1155 
L 228.023015 -387.7555 
L 228.023015 -387.7555 
L 226.144227 -387.7555 
z
"/>
    </defs>
    <g clip-path="url(#pbdac3e8fc8)">
     <use xlink:href="#mb2db310d62" x="0" y="398.34866" style="fill: #d95f02; fill-opacity: 0.2"/>
    </g>
   </g>
   <g id="PolyCollection_90">
    <defs>
     <path id="m00e1cb9e78" d="M 228.023015 -387.7555 
L 228.023015 -55.1155 
L 229.901803 -55.1155 
L 229.901803 -387.7555 
L 229.901803 -387.7555 
L 228.023015 -387.7555 
z
"/>
    </defs>
    <g clip-path="url(#pbdac3e8fc8)">
     <use xlink:href="#m00e1cb9e78" x="0" y="398.34866" style="fill: #d95f02; fill-opacity: 0.2"/>
    </g>
   </g>
   <g id="PolyCollection_91">
    <defs>
     <path id="m52f949278e" d="M 229.901803 -387.7555 
L 229.901803 -55.1155 
L 231.780591 -55.1155 
L 231.780591 -387.7555 
L 231.780591 -387.7555 
L 229.901803 -387.7555 
z
"/>
    </defs>
    <g clip-path="url(#pbdac3e8fc8)">
     <use xlink:href="#m52f949278e" x="0" y="398.34866" style="fill: #d95f02; fill-opacity: 0.2"/>
    </g>
   </g>
   <g id="PolyCollection_92">
    <defs>
     <path id="mcd489bed56" d="M 231.780591 -387.7555 
L 231.780591 -55.1155 
L 233.659379 -55.1155 
L 233.659379 -387.7555 
L 233.659379 -387.7555 
L 231.780591 -387.7555 
z
"/>
    </defs>
    <g clip-path="url(#pbdac3e8fc8)">
     <use xlink:href="#mcd489bed56" x="0" y="398.34866" style="fill: #d95f02; fill-opacity: 0.2"/>
    </g>
   </g>
   <g id="PolyCollection_93">
    <defs>
     <path id="me661b05d4a" d="M 233.659379 -387.7555 
L 233.659379 -55.1155 
L 235.538167 -55.1155 
L 235.538167 -387.7555 
L 235.538167 -387.7555 
L 233.659379 -387.7555 
z
"/>
    </defs>
    <g clip-path="url(#pbdac3e8fc8)">
     <use xlink:href="#me661b05d4a" x="0" y="398.34866" style="fill: #d95f02; fill-opacity: 0.2"/>
    </g>
   </g>
   <g id="PolyCollection_94">
    <defs>
     <path id="m21f56bf5a9" d="M 235.538167 -387.7555 
L 235.538167 -55.1155 
L 237.416955 -55.1155 
L 237.416955 -387.7555 
L 237.416955 -387.7555 
L 235.538167 -387.7555 
z
"/>
    </defs>
    <g clip-path="url(#pbdac3e8fc8)">
     <use xlink:href="#m21f56bf5a9" x="0" y="398.34866" style="fill: #d95f02; fill-opacity: 0.2"/>
    </g>
   </g>
   <g id="PolyCollection_95">
    <defs>
     <path id="md25292204e" d="M 237.416955 -387.7555 
L 237.416955 -55.1155 
L 239.295742 -55.1155 
L 239.295742 -387.7555 
L 239.295742 -387.7555 
L 237.416955 -387.7555 
z
"/>
    </defs>
    <g clip-path="url(#pbdac3e8fc8)">
     <use xlink:href="#md25292204e" x="0" y="398.34866" style="fill: #1b9e77; fill-opacity: 0.2"/>
    </g>
   </g>
   <g id="PolyCollection_96">
    <defs>
     <path id="mb4fc36208c" d="M 239.295742 -387.7555 
L 239.295742 -55.1155 
L 241.17453 -55.1155 
L 241.17453 -387.7555 
L 241.17453 -387.7555 
L 239.295742 -387.7555 
z
"/>
    </defs>
    <g clip-path="url(#pbdac3e8fc8)">
     <use xlink:href="#mb4fc36208c" x="0" y="398.34866" style="fill: #d95f02; fill-opacity: 0.2"/>
    </g>
   </g>
   <g id="PolyCollection_97">
    <defs>
     <path id="m5eba733354" d="M 241.17453 -387.7555 
L 241.17453 -55.1155 
L 243.053318 -55.1155 
L 243.053318 -387.7555 
L 243.053318 -387.7555 
L 241.17453 -387.7555 
z
"/>
    </defs>
    <g clip-path="url(#pbdac3e8fc8)">
     <use xlink:href="#m5eba733354" x="0" y="398.34866" style="fill: #d95f02; fill-opacity: 0.2"/>
    </g>
   </g>
   <g id="PolyCollection_98">
    <defs>
     <path id="m37b0ac9fc5" d="M 243.053318 -387.7555 
L 243.053318 -55.1155 
L 244.932106 -55.1155 
L 244.932106 -387.7555 
L 244.932106 -387.7555 
L 243.053318 -387.7555 
z
"/>
    </defs>
    <g clip-path="url(#pbdac3e8fc8)">
     <use xlink:href="#m37b0ac9fc5" x="0" y="398.34866" style="fill: #1b9e77; fill-opacity: 0.2"/>
    </g>
   </g>
   <g id="PolyCollection_99">
    <defs>
     <path id="mcf9803c0a1" d="M 244.932106 -387.7555 
L 244.932106 -55.1155 
L 246.810894 -55.1155 
L 246.810894 -387.7555 
L 246.810894 -387.7555 
L 244.932106 -387.7555 
z
"/>
    </defs>
    <g clip-path="url(#pbdac3e8fc8)">
     <use xlink:href="#mcf9803c0a1" x="0" y="398.34866" style="fill: #d95f02; fill-opacity: 0.2"/>
    </g>
   </g>
   <g id="PolyCollection_100">
    <defs>
     <path id="m542ee4d946" d="M 246.810894 -387.7555 
L 246.810894 -55.1155 
L 248.689682 -55.1155 
L 248.689682 -387.7555 
L 248.689682 -387.7555 
L 246.810894 -387.7555 
z
"/>
    </defs>
    <g clip-path="url(#pbdac3e8fc8)">
     <use xlink:href="#m542ee4d946" x="0" y="398.34866" style="fill: #d95f02; fill-opacity: 0.2"/>
    </g>
   </g>
   <g id="PolyCollection_101">
    <defs>
     <path id="m7aa99890af" d="M 248.689682 -387.7555 
L 248.689682 -55.1155 
L 250.56847 -55.1155 
L 250.56847 -387.7555 
L 250.56847 -387.7555 
L 248.689682 -387.7555 
z
"/>
    </defs>
    <g clip-path="url(#pbdac3e8fc8)">
     <use xlink:href="#m7aa99890af" x="0" y="398.34866" style="fill: #d95f02; fill-opacity: 0.2"/>
    </g>
   </g>
   <g id="PolyCollection_102">
    <defs>
     <path id="mbc9273bcdc" d="M 250.56847 -387.7555 
L 250.56847 -55.1155 
L 252.447258 -55.1155 
L 252.447258 -387.7555 
L 252.447258 -387.7555 
L 250.56847 -387.7555 
z
"/>
    </defs>
    <g clip-path="url(#pbdac3e8fc8)">
     <use xlink:href="#mbc9273bcdc" x="0" y="398.34866" style="fill: #1b9e77; fill-opacity: 0.2"/>
    </g>
   </g>
   <g id="PolyCollection_103">
    <defs>
     <path id="m675da62243" d="M 252.447258 -387.7555 
L 252.447258 -55.1155 
L 254.326045 -55.1155 
L 254.326045 -387.7555 
L 254.326045 -387.7555 
L 252.447258 -387.7555 
z
"/>
    </defs>
    <g clip-path="url(#pbdac3e8fc8)">
     <use xlink:href="#m675da62243" x="0" y="398.34866" style="fill: #d95f02; fill-opacity: 0.2"/>
    </g>
   </g>
   <g id="PolyCollection_104">
    <defs>
     <path id="m0676b98bc8" d="M 254.326045 -387.7555 
L 254.326045 -55.1155 
L 256.204833 -55.1155 
L 256.204833 -387.7555 
L 256.204833 -387.7555 
L 254.326045 -387.7555 
z
"/>
    </defs>
    <g clip-path="url(#pbdac3e8fc8)">
     <use xlink:href="#m0676b98bc8" x="0" y="398.34866" style="fill: #d95f02; fill-opacity: 0.2"/>
    </g>
   </g>
   <g id="PolyCollection_105">
    <defs>
     <path id="m972d8a10b2" d="M 256.204833 -387.7555 
L 256.204833 -55.1155 
L 258.083621 -55.1155 
L 258.083621 -387.7555 
L 258.083621 -387.7555 
L 256.204833 -387.7555 
z
"/>
    </defs>
    <g clip-path="url(#pbdac3e8fc8)">
     <use xlink:href="#m972d8a10b2" x="0" y="398.34866" style="fill: #d95f02; fill-opacity: 0.2"/>
    </g>
   </g>
   <g id="PolyCollection_106">
    <defs>
     <path id="md981727cfe" d="M 258.083621 -387.7555 
L 258.083621 -55.1155 
L 259.962409 -55.1155 
L 259.962409 -387.7555 
L 259.962409 -387.7555 
L 258.083621 -387.7555 
z
"/>
    </defs>
    <g clip-path="url(#pbdac3e8fc8)">
     <use xlink:href="#md981727cfe" x="0" y="398.34866" style="fill: #d95f02; fill-opacity: 0.2"/>
    </g>
   </g>
   <g id="PolyCollection_107">
    <defs>
     <path id="m41e7fa85e4" d="M 259.962409 -387.7555 
L 259.962409 -55.1155 
L 261.841197 -55.1155 
L 261.841197 -387.7555 
L 261.841197 -387.7555 
L 259.962409 -387.7555 
z
"/>
    </defs>
    <g clip-path="url(#pbdac3e8fc8)">
     <use xlink:href="#m41e7fa85e4" x="0" y="398.34866" style="fill: #d95f02; fill-opacity: 0.2"/>
    </g>
   </g>
   <g id="PolyCollection_108">
    <defs>
     <path id="mf2b40f9f4a" d="M 261.841197 -387.7555 
L 261.841197 -55.1155 
L 263.719985 -55.1155 
L 263.719985 -387.7555 
L 263.719985 -387.7555 
L 261.841197 -387.7555 
z
"/>
    </defs>
    <g clip-path="url(#pbdac3e8fc8)">
     <use xlink:href="#mf2b40f9f4a" x="0" y="398.34866" style="fill: #d95f02; fill-opacity: 0.2"/>
    </g>
   </g>
   <g id="PolyCollection_109">
    <defs>
     <path id="m094f9ca5de" d="M 263.719985 -387.7555 
L 263.719985 -55.1155 
L 265.598773 -55.1155 
L 265.598773 -387.7555 
L 265.598773 -387.7555 
L 263.719985 -387.7555 
z
"/>
    </defs>
    <g clip-path="url(#pbdac3e8fc8)">
     <use xlink:href="#m094f9ca5de" x="0" y="398.34866" style="fill: #d95f02; fill-opacity: 0.2"/>
    </g>
   </g>
   <g id="PolyCollection_110">
    <defs>
     <path id="m5a63dd09d3" d="M 265.598773 -387.7555 
L 265.598773 -55.1155 
L 267.477561 -55.1155 
L 267.477561 -387.7555 
L 267.477561 -387.7555 
L 265.598773 -387.7555 
z
"/>
    </defs>
    <g clip-path="url(#pbdac3e8fc8)">
     <use xlink:href="#m5a63dd09d3" x="0" y="398.34866" style="fill: #d95f02; fill-opacity: 0.2"/>
    </g>
   </g>
   <g id="PolyCollection_111">
    <defs>
     <path id="m1a27af2d7e" d="M 267.477561 -387.7555 
L 267.477561 -55.1155 
L 269.356348 -55.1155 
L 269.356348 -387.7555 
L 269.356348 -387.7555 
L 267.477561 -387.7555 
z
"/>
    </defs>
    <g clip-path="url(#pbdac3e8fc8)">
     <use xlink:href="#m1a27af2d7e" x="0" y="398.34866" style="fill: #1b9e77; fill-opacity: 0.2"/>
    </g>
   </g>
   <g id="PolyCollection_112">
    <defs>
     <path id="m29ac888c8b" d="M 269.356348 -387.7555 
L 269.356348 -55.1155 
L 271.235136 -55.1155 
L 271.235136 -387.7555 
L 271.235136 -387.7555 
L 269.356348 -387.7555 
z
"/>
    </defs>
    <g clip-path="url(#pbdac3e8fc8)">
     <use xlink:href="#m29ac888c8b" x="0" y="398.34866" style="fill: #1b9e77; fill-opacity: 0.2"/>
    </g>
   </g>
   <g id="PolyCollection_113">
    <defs>
     <path id="m5473e03760" d="M 271.235136 -387.7555 
L 271.235136 -55.1155 
L 273.113924 -55.1155 
L 273.113924 -387.7555 
L 273.113924 -387.7555 
L 271.235136 -387.7555 
z
"/>
    </defs>
    <g clip-path="url(#pbdac3e8fc8)">
     <use xlink:href="#m5473e03760" x="0" y="398.34866" style="fill: #d95f02; fill-opacity: 0.2"/>
    </g>
   </g>
   <g id="PolyCollection_114">
    <defs>
     <path id="m02672eae6b" d="M 273.113924 -387.7555 
L 273.113924 -55.1155 
L 274.992712 -55.1155 
L 274.992712 -387.7555 
L 274.992712 -387.7555 
L 273.113924 -387.7555 
z
"/>
    </defs>
    <g clip-path="url(#pbdac3e8fc8)">
     <use xlink:href="#m02672eae6b" x="0" y="398.34866" style="fill: #d95f02; fill-opacity: 0.2"/>
    </g>
   </g>
   <g id="PolyCollection_115">
    <defs>
     <path id="m700fe3a8fd" d="M 274.992712 -387.7555 
L 274.992712 -55.1155 
L 276.8715 -55.1155 
L 276.8715 -387.7555 
L 276.8715 -387.7555 
L 274.992712 -387.7555 
z
"/>
    </defs>
    <g clip-path="url(#pbdac3e8fc8)">
     <use xlink:href="#m700fe3a8fd" x="0" y="398.34866" style="fill: #1b9e77; fill-opacity: 0.2"/>
    </g>
   </g>
   <g id="PolyCollection_116">
    <defs>
     <path id="m88dc6d76ba" d="M 276.8715 -387.7555 
L 276.8715 -55.1155 
L 278.750288 -55.1155 
L 278.750288 -387.7555 
L 278.750288 -387.7555 
L 276.8715 -387.7555 
z
"/>
    </defs>
    <g clip-path="url(#pbdac3e8fc8)">
     <use xlink:href="#m88dc6d76ba" x="0" y="398.34866" style="fill: #1b9e77; fill-opacity: 0.2"/>
    </g>
   </g>
   <g id="PolyCollection_117">
    <defs>
     <path id="m9a2340b895" d="M 278.750288 -387.7555 
L 278.750288 -55.1155 
L 280.629076 -55.1155 
L 280.629076 -387.7555 
L 280.629076 -387.7555 
L 278.750288 -387.7555 
z
"/>
    </defs>
    <g clip-path="url(#pbdac3e8fc8)">
     <use xlink:href="#m9a2340b895" x="0" y="398.34866" style="fill: #d95f02; fill-opacity: 0.2"/>
    </g>
   </g>
   <g id="PolyCollection_118">
    <defs>
     <path id="m768a60d033" d="M 280.629076 -387.7555 
L 280.629076 -55.1155 
L 282.507864 -55.1155 
L 282.507864 -387.7555 
L 282.507864 -387.7555 
L 280.629076 -387.7555 
z
"/>
    </defs>
    <g clip-path="url(#pbdac3e8fc8)">
     <use xlink:href="#m768a60d033" x="0" y="398.34866" style="fill: #d95f02; fill-opacity: 0.2"/>
    </g>
   </g>
   <g id="PolyCollection_119">
    <defs>
     <path id="m3f48032690" d="M 282.507864 -387.7555 
L 282.507864 -55.1155 
L 284.386652 -55.1155 
L 284.386652 -387.7555 
L 284.386652 -387.7555 
L 282.507864 -387.7555 
z
"/>
    </defs>
    <g clip-path="url(#pbdac3e8fc8)">
     <use xlink:href="#m3f48032690" x="0" y="398.34866" style="fill: #1b9e77; fill-opacity: 0.2"/>
    </g>
   </g>
   <g id="PolyCollection_120">
    <defs>
     <path id="mc79522664e" d="M 284.386652 -387.7555 
L 284.386652 -55.1155 
L 286.265439 -55.1155 
L 286.265439 -387.7555 
L 286.265439 -387.7555 
L 284.386652 -387.7555 
z
"/>
    </defs>
    <g clip-path="url(#pbdac3e8fc8)">
     <use xlink:href="#mc79522664e" x="0" y="398.34866" style="fill: #d95f02; fill-opacity: 0.2"/>
    </g>
   </g>
   <g id="PolyCollection_121">
    <defs>
     <path id="m5e8dcef086" d="M 286.265439 -387.7555 
L 286.265439 -55.1155 
L 288.144227 -55.1155 
L 288.144227 -387.7555 
L 288.144227 -387.7555 
L 286.265439 -387.7555 
z
"/>
    </defs>
    <g clip-path="url(#pbdac3e8fc8)">
     <use xlink:href="#m5e8dcef086" x="0" y="398.34866" style="fill: #d95f02; fill-opacity: 0.2"/>
    </g>
   </g>
   <g id="PolyCollection_122">
    <defs>
     <path id="md0ebaf36f5" d="M 288.144227 -387.7555 
L 288.144227 -55.1155 
L 290.023015 -55.1155 
L 290.023015 -387.7555 
L 290.023015 -387.7555 
L 288.144227 -387.7555 
z
"/>
    </defs>
    <g clip-path="url(#pbdac3e8fc8)">
     <use xlink:href="#md0ebaf36f5" x="0" y="398.34866" style="fill: #d95f02; fill-opacity: 0.2"/>
    </g>
   </g>
   <g id="PolyCollection_123">
    <defs>
     <path id="m43523cf188" d="M 290.023015 -387.7555 
L 290.023015 -55.1155 
L 291.901803 -55.1155 
L 291.901803 -387.7555 
L 291.901803 -387.7555 
L 290.023015 -387.7555 
z
"/>
    </defs>
    <g clip-path="url(#pbdac3e8fc8)">
     <use xlink:href="#m43523cf188" x="0" y="398.34866" style="fill: #1b9e77; fill-opacity: 0.2"/>
    </g>
   </g>
   <g id="PolyCollection_124">
    <defs>
     <path id="ma318a3350d" d="M 291.901803 -387.7555 
L 291.901803 -55.1155 
L 293.780591 -55.1155 
L 293.780591 -387.7555 
L 293.780591 -387.7555 
L 291.901803 -387.7555 
z
"/>
    </defs>
    <g clip-path="url(#pbdac3e8fc8)">
     <use xlink:href="#ma318a3350d" x="0" y="398.34866" style="fill: #1b9e77; fill-opacity: 0.2"/>
    </g>
   </g>
   <g id="PolyCollection_125">
    <defs>
     <path id="m0168f25a39" d="M 293.780591 -387.7555 
L 293.780591 -55.1155 
L 295.659379 -55.1155 
L 295.659379 -387.7555 
L 295.659379 -387.7555 
L 293.780591 -387.7555 
z
"/>
    </defs>
    <g clip-path="url(#pbdac3e8fc8)">
     <use xlink:href="#m0168f25a39" x="0" y="398.34866" style="fill: #1b9e77; fill-opacity: 0.2"/>
    </g>
   </g>
   <g id="PolyCollection_126">
    <defs>
     <path id="m7d9afb11d3" d="M 295.659379 -387.7555 
L 295.659379 -55.1155 
L 297.538167 -55.1155 
L 297.538167 -387.7555 
L 297.538167 -387.7555 
L 295.659379 -387.7555 
z
"/>
    </defs>
    <g clip-path="url(#pbdac3e8fc8)">
     <use xlink:href="#m7d9afb11d3" x="0" y="398.34866" style="fill: #d95f02; fill-opacity: 0.2"/>
    </g>
   </g>
   <g id="PolyCollection_127">
    <defs>
     <path id="m956d2d265a" d="M 297.538167 -387.7555 
L 297.538167 -55.1155 
L 299.416955 -55.1155 
L 299.416955 -387.7555 
L 299.416955 -387.7555 
L 297.538167 -387.7555 
z
"/>
    </defs>
    <g clip-path="url(#pbdac3e8fc8)">
     <use xlink:href="#m956d2d265a" x="0" y="398.34866" style="fill: #d95f02; fill-opacity: 0.2"/>
    </g>
   </g>
   <g id="PolyCollection_128">
    <defs>
     <path id="m7a597e88c4" d="M 299.416955 -387.7555 
L 299.416955 -55.1155 
L 301.295742 -55.1155 
L 301.295742 -387.7555 
L 301.295742 -387.7555 
L 299.416955 -387.7555 
z
"/>
    </defs>
    <g clip-path="url(#pbdac3e8fc8)">
     <use xlink:href="#m7a597e88c4" x="0" y="398.34866" style="fill: #d95f02; fill-opacity: 0.2"/>
    </g>
   </g>
   <g id="PolyCollection_129">
    <defs>
     <path id="md972d2fba3" d="M 301.295742 -387.7555 
L 301.295742 -55.1155 
L 303.17453 -55.1155 
L 303.17453 -387.7555 
L 303.17453 -387.7555 
L 301.295742 -387.7555 
z
"/>
    </defs>
    <g clip-path="url(#pbdac3e8fc8)">
     <use xlink:href="#md972d2fba3" x="0" y="398.34866" style="fill: #d95f02; fill-opacity: 0.2"/>
    </g>
   </g>
   <g id="PolyCollection_130">
    <defs>
     <path id="m30da6055f4" d="M 303.17453 -387.7555 
L 303.17453 -55.1155 
L 305.053318 -55.1155 
L 305.053318 -387.7555 
L 305.053318 -387.7555 
L 303.17453 -387.7555 
z
"/>
    </defs>
    <g clip-path="url(#pbdac3e8fc8)">
     <use xlink:href="#m30da6055f4" x="0" y="398.34866" style="fill: #d95f02; fill-opacity: 0.2"/>
    </g>
   </g>
   <g id="PolyCollection_131">
    <defs>
     <path id="m8aef72e15d" d="M 305.053318 -387.7555 
L 305.053318 -55.1155 
L 306.932106 -55.1155 
L 306.932106 -387.7555 
L 306.932106 -387.7555 
L 305.053318 -387.7555 
z
"/>
    </defs>
    <g clip-path="url(#pbdac3e8fc8)">
     <use xlink:href="#m8aef72e15d" x="0" y="398.34866" style="fill: #d95f02; fill-opacity: 0.2"/>
    </g>
   </g>
   <g id="PolyCollection_132">
    <defs>
     <path id="mb08f405f07" d="M 306.932106 -387.7555 
L 306.932106 -55.1155 
L 308.810894 -55.1155 
L 308.810894 -387.7555 
L 308.810894 -387.7555 
L 306.932106 -387.7555 
z
"/>
    </defs>
    <g clip-path="url(#pbdac3e8fc8)">
     <use xlink:href="#mb08f405f07" x="0" y="398.34866" style="fill: #d95f02; fill-opacity: 0.2"/>
    </g>
   </g>
   <g id="PolyCollection_133">
    <defs>
     <path id="m7f8b35a7b8" d="M 308.810894 -387.7555 
L 308.810894 -55.1155 
L 310.689682 -55.1155 
L 310.689682 -387.7555 
L 310.689682 -387.7555 
L 308.810894 -387.7555 
z
"/>
    </defs>
    <g clip-path="url(#pbdac3e8fc8)">
     <use xlink:href="#m7f8b35a7b8" x="0" y="398.34866" style="fill: #d95f02; fill-opacity: 0.2"/>
    </g>
   </g>
   <g id="PolyCollection_134">
    <defs>
     <path id="m28fa4c0773" d="M 310.689682 -387.7555 
L 310.689682 -55.1155 
L 312.56847 -55.1155 
L 312.56847 -387.7555 
L 312.56847 -387.7555 
L 310.689682 -387.7555 
z
"/>
    </defs>
    <g clip-path="url(#pbdac3e8fc8)">
     <use xlink:href="#m28fa4c0773" x="0" y="398.34866" style="fill: #d95f02; fill-opacity: 0.2"/>
    </g>
   </g>
   <g id="PolyCollection_135">
    <defs>
     <path id="mba82895d02" d="M 312.56847 -387.7555 
L 312.56847 -55.1155 
L 314.447258 -55.1155 
L 314.447258 -387.7555 
L 314.447258 -387.7555 
L 312.56847 -387.7555 
z
"/>
    </defs>
    <g clip-path="url(#pbdac3e8fc8)">
     <use xlink:href="#mba82895d02" x="0" y="398.34866" style="fill: #1b9e77; fill-opacity: 0.2"/>
    </g>
   </g>
   <g id="PolyCollection_136">
    <defs>
     <path id="m70ecdc04ae" d="M 314.447258 -387.7555 
L 314.447258 -55.1155 
L 316.326045 -55.1155 
L 316.326045 -387.7555 
L 316.326045 -387.7555 
L 314.447258 -387.7555 
z
"/>
    </defs>
    <g clip-path="url(#pbdac3e8fc8)">
     <use xlink:href="#m70ecdc04ae" x="0" y="398.34866" style="fill: #d95f02; fill-opacity: 0.2"/>
    </g>
   </g>
   <g id="PolyCollection_137">
    <defs>
     <path id="m95b83087be" d="M 316.326045 -387.7555 
L 316.326045 -55.1155 
L 318.204833 -55.1155 
L 318.204833 -387.7555 
L 318.204833 -387.7555 
L 316.326045 -387.7555 
z
"/>
    </defs>
    <g clip-path="url(#pbdac3e8fc8)">
     <use xlink:href="#m95b83087be" x="0" y="398.34866" style="fill: #d95f02; fill-opacity: 0.2"/>
    </g>
   </g>
   <g id="PolyCollection_138">
    <defs>
     <path id="md49f7cd5f5" d="M 318.204833 -387.7555 
L 318.204833 -55.1155 
L 320.083621 -55.1155 
L 320.083621 -387.7555 
L 320.083621 -387.7555 
L 318.204833 -387.7555 
z
"/>
    </defs>
    <g clip-path="url(#pbdac3e8fc8)">
     <use xlink:href="#md49f7cd5f5" x="0" y="398.34866" style="fill: #d95f02; fill-opacity: 0.2"/>
    </g>
   </g>
   <g id="PolyCollection_139">
    <defs>
     <path id="m59ffe9e93d" d="M 320.083621 -387.7555 
L 320.083621 -55.1155 
L 321.962409 -55.1155 
L 321.962409 -387.7555 
L 321.962409 -387.7555 
L 320.083621 -387.7555 
z
"/>
    </defs>
    <g clip-path="url(#pbdac3e8fc8)">
     <use xlink:href="#m59ffe9e93d" x="0" y="398.34866" style="fill: #d95f02; fill-opacity: 0.2"/>
    </g>
   </g>
   <g id="PolyCollection_140">
    <defs>
     <path id="m5c60ebe050" d="M 321.962409 -387.7555 
L 321.962409 -55.1155 
L 323.841197 -55.1155 
L 323.841197 -387.7555 
L 323.841197 -387.7555 
L 321.962409 -387.7555 
z
"/>
    </defs>
    <g clip-path="url(#pbdac3e8fc8)">
     <use xlink:href="#m5c60ebe050" x="0" y="398.34866" style="fill: #d95f02; fill-opacity: 0.2"/>
    </g>
   </g>
   <g id="PolyCollection_141">
    <defs>
     <path id="m7053d30d39" d="M 323.841197 -387.7555 
L 323.841197 -55.1155 
L 325.719985 -55.1155 
L 325.719985 -387.7555 
L 325.719985 -387.7555 
L 323.841197 -387.7555 
z
"/>
    </defs>
    <g clip-path="url(#pbdac3e8fc8)">
     <use xlink:href="#m7053d30d39" x="0" y="398.34866" style="fill: #1b9e77; fill-opacity: 0.2"/>
    </g>
   </g>
   <g id="PolyCollection_142">
    <defs>
     <path id="mdd2f96da65" d="M 325.719985 -387.7555 
L 325.719985 -55.1155 
L 327.598773 -55.1155 
L 327.598773 -387.7555 
L 327.598773 -387.7555 
L 325.719985 -387.7555 
z
"/>
    </defs>
    <g clip-path="url(#pbdac3e8fc8)">
     <use xlink:href="#mdd2f96da65" x="0" y="398.34866" style="fill: #d95f02; fill-opacity: 0.2"/>
    </g>
   </g>
   <g id="PolyCollection_143">
    <defs>
     <path id="m6960524782" d="M 327.598773 -387.7555 
L 327.598773 -55.1155 
L 329.477561 -55.1155 
L 329.477561 -387.7555 
L 329.477561 -387.7555 
L 327.598773 -387.7555 
z
"/>
    </defs>
    <g clip-path="url(#pbdac3e8fc8)">
     <use xlink:href="#m6960524782" x="0" y="398.34866" style="fill: #1b9e77; fill-opacity: 0.2"/>
    </g>
   </g>
   <g id="PolyCollection_144">
    <defs>
     <path id="m22b3939caf" d="M 329.477561 -387.7555 
L 329.477561 -55.1155 
L 331.356348 -55.1155 
L 331.356348 -387.7555 
L 331.356348 -387.7555 
L 329.477561 -387.7555 
z
"/>
    </defs>
    <g clip-path="url(#pbdac3e8fc8)">
     <use xlink:href="#m22b3939caf" x="0" y="398.34866" style="fill: #d95f02; fill-opacity: 0.2"/>
    </g>
   </g>
   <g id="PolyCollection_145">
    <defs>
     <path id="mdc41e43ad9" d="M 331.356348 -387.7555 
L 331.356348 -55.1155 
L 333.235136 -55.1155 
L 333.235136 -387.7555 
L 333.235136 -387.7555 
L 331.356348 -387.7555 
z
"/>
    </defs>
    <g clip-path="url(#pbdac3e8fc8)">
     <use xlink:href="#mdc41e43ad9" x="0" y="398.34866" style="fill: #d95f02; fill-opacity: 0.2"/>
    </g>
   </g>
   <g id="PolyCollection_146">
    <defs>
     <path id="m937f47a2c7" d="M 333.235136 -387.7555 
L 333.235136 -55.1155 
L 335.113924 -55.1155 
L 335.113924 -387.7555 
L 335.113924 -387.7555 
L 333.235136 -387.7555 
z
"/>
    </defs>
    <g clip-path="url(#pbdac3e8fc8)">
     <use xlink:href="#m937f47a2c7" x="0" y="398.34866" style="fill: #d95f02; fill-opacity: 0.2"/>
    </g>
   </g>
   <g id="PolyCollection_147">
    <defs>
     <path id="m44fc33d586" d="M 335.113924 -387.7555 
L 335.113924 -55.1155 
L 336.992712 -55.1155 
L 336.992712 -387.7555 
L 336.992712 -387.7555 
L 335.113924 -387.7555 
z
"/>
    </defs>
    <g clip-path="url(#pbdac3e8fc8)">
     <use xlink:href="#m44fc33d586" x="0" y="398.34866" style="fill: #d95f02; fill-opacity: 0.2"/>
    </g>
   </g>
   <g id="PolyCollection_148">
    <defs>
     <path id="ma9d1e34739" d="M 336.992712 -387.7555 
L 336.992712 -55.1155 
L 338.8715 -55.1155 
L 338.8715 -387.7555 
L 338.8715 -387.7555 
L 336.992712 -387.7555 
z
"/>
    </defs>
    <g clip-path="url(#pbdac3e8fc8)">
     <use xlink:href="#ma9d1e34739" x="0" y="398.34866" style="fill: #d95f02; fill-opacity: 0.2"/>
    </g>
   </g>
   <g id="PolyCollection_149">
    <defs>
     <path id="m8c3b97a18a" d="M 338.8715 -387.7555 
L 338.8715 -55.1155 
L 340.750288 -55.1155 
L 340.750288 -387.7555 
L 340.750288 -387.7555 
L 338.8715 -387.7555 
z
"/>
    </defs>
    <g clip-path="url(#pbdac3e8fc8)">
     <use xlink:href="#m8c3b97a18a" x="0" y="398.34866" style="fill: #1b9e77; fill-opacity: 0.2"/>
    </g>
   </g>
   <g id="PolyCollection_150">
    <defs>
     <path id="m34ce3c6a8c" d="M 340.750288 -387.7555 
L 340.750288 -55.1155 
L 342.629076 -55.1155 
L 342.629076 -387.7555 
L 342.629076 -387.7555 
L 340.750288 -387.7555 
z
"/>
    </defs>
    <g clip-path="url(#pbdac3e8fc8)">
     <use xlink:href="#m34ce3c6a8c" x="0" y="398.34866" style="fill: #1b9e77; fill-opacity: 0.2"/>
    </g>
   </g>
   <g id="PolyCollection_151">
    <defs>
     <path id="m74582fa93d" d="M 342.629076 -387.7555 
L 342.629076 -55.1155 
L 344.507864 -55.1155 
L 344.507864 -387.7555 
L 344.507864 -387.7555 
L 342.629076 -387.7555 
z
"/>
    </defs>
    <g clip-path="url(#pbdac3e8fc8)">
     <use xlink:href="#m74582fa93d" x="0" y="398.34866" style="fill: #1b9e77; fill-opacity: 0.2"/>
    </g>
   </g>
   <g id="PolyCollection_152">
    <defs>
     <path id="ma4d3012eda" d="M 344.507864 -387.7555 
L 344.507864 -55.1155 
L 346.386652 -55.1155 
L 346.386652 -387.7555 
L 346.386652 -387.7555 
L 344.507864 -387.7555 
z
"/>
    </defs>
    <g clip-path="url(#pbdac3e8fc8)">
     <use xlink:href="#ma4d3012eda" x="0" y="398.34866" style="fill: #d95f02; fill-opacity: 0.2"/>
    </g>
   </g>
   <g id="PolyCollection_153">
    <defs>
     <path id="m1fb884a34a" d="M 346.386652 -387.7555 
L 346.386652 -55.1155 
L 348.265439 -55.1155 
L 348.265439 -387.7555 
L 348.265439 -387.7555 
L 346.386652 -387.7555 
z
"/>
    </defs>
    <g clip-path="url(#pbdac3e8fc8)">
     <use xlink:href="#m1fb884a34a" x="0" y="398.34866" style="fill: #d95f02; fill-opacity: 0.2"/>
    </g>
   </g>
   <g id="PolyCollection_154">
    <defs>
     <path id="m1b2700ee27" d="M 348.265439 -387.7555 
L 348.265439 -55.1155 
L 350.144227 -55.1155 
L 350.144227 -387.7555 
L 350.144227 -387.7555 
L 348.265439 -387.7555 
z
"/>
    </defs>
    <g clip-path="url(#pbdac3e8fc8)">
     <use xlink:href="#m1b2700ee27" x="0" y="398.34866" style="fill: #d95f02; fill-opacity: 0.2"/>
    </g>
   </g>
   <g id="PolyCollection_155">
    <defs>
     <path id="ma97ffa7f82" d="M 350.144227 -387.7555 
L 350.144227 -55.1155 
L 352.023015 -55.1155 
L 352.023015 -387.7555 
L 352.023015 -387.7555 
L 350.144227 -387.7555 
z
"/>
    </defs>
    <g clip-path="url(#pbdac3e8fc8)">
     <use xlink:href="#ma97ffa7f82" x="0" y="398.34866" style="fill: #d95f02; fill-opacity: 0.2"/>
    </g>
   </g>
   <g id="PolyCollection_156">
    <defs>
     <path id="m5d3f253367" d="M 352.023015 -387.7555 
L 352.023015 -55.1155 
L 353.901803 -55.1155 
L 353.901803 -387.7555 
L 353.901803 -387.7555 
L 352.023015 -387.7555 
z
"/>
    </defs>
    <g clip-path="url(#pbdac3e8fc8)">
     <use xlink:href="#m5d3f253367" x="0" y="398.34866" style="fill: #d95f02; fill-opacity: 0.2"/>
    </g>
   </g>
   <g id="PolyCollection_157">
    <defs>
     <path id="m2b5e8f7eed" d="M 353.901803 -387.7555 
L 353.901803 -55.1155 
L 355.780591 -55.1155 
L 355.780591 -387.7555 
L 355.780591 -387.7555 
L 353.901803 -387.7555 
z
"/>
    </defs>
    <g clip-path="url(#pbdac3e8fc8)">
     <use xlink:href="#m2b5e8f7eed" x="0" y="398.34866" style="fill: #d95f02; fill-opacity: 0.2"/>
    </g>
   </g>
   <g id="PolyCollection_158">
    <defs>
     <path id="m5158cf33be" d="M 355.780591 -387.7555 
L 355.780591 -55.1155 
L 357.659379 -55.1155 
L 357.659379 -387.7555 
L 357.659379 -387.7555 
L 355.780591 -387.7555 
z
"/>
    </defs>
    <g clip-path="url(#pbdac3e8fc8)">
     <use xlink:href="#m5158cf33be" x="0" y="398.34866" style="fill: #d95f02; fill-opacity: 0.2"/>
    </g>
   </g>
   <g id="PolyCollection_159">
    <defs>
     <path id="m89722697f6" d="M 357.659379 -387.7555 
L 357.659379 -55.1155 
L 359.538167 -55.1155 
L 359.538167 -387.7555 
L 359.538167 -387.7555 
L 357.659379 -387.7555 
z
"/>
    </defs>
    <g clip-path="url(#pbdac3e8fc8)">
     <use xlink:href="#m89722697f6" x="0" y="398.34866" style="fill: #d95f02; fill-opacity: 0.2"/>
    </g>
   </g>
   <g id="PolyCollection_160">
    <defs>
     <path id="m63454b1c0d" d="M 359.538167 -387.7555 
L 359.538167 -55.1155 
L 361.416955 -55.1155 
L 361.416955 -387.7555 
L 361.416955 -387.7555 
L 359.538167 -387.7555 
z
"/>
    </defs>
    <g clip-path="url(#pbdac3e8fc8)">
     <use xlink:href="#m63454b1c0d" x="0" y="398.34866" style="fill: #d95f02; fill-opacity: 0.2"/>
    </g>
   </g>
   <g id="PolyCollection_161">
    <defs>
     <path id="m2bbead601a" d="M 361.416955 -387.7555 
L 361.416955 -55.1155 
L 363.295742 -55.1155 
L 363.295742 -387.7555 
L 363.295742 -387.7555 
L 361.416955 -387.7555 
z
"/>
    </defs>
    <g clip-path="url(#pbdac3e8fc8)">
     <use xlink:href="#m2bbead601a" x="0" y="398.34866" style="fill: #d95f02; fill-opacity: 0.2"/>
    </g>
   </g>
   <g id="PolyCollection_162">
    <defs>
     <path id="m629a814212" d="M 363.295742 -387.7555 
L 363.295742 -55.1155 
L 365.17453 -55.1155 
L 365.17453 -387.7555 
L 365.17453 -387.7555 
L 363.295742 -387.7555 
z
"/>
    </defs>
    <g clip-path="url(#pbdac3e8fc8)">
     <use xlink:href="#m629a814212" x="0" y="398.34866" style="fill: #d95f02; fill-opacity: 0.2"/>
    </g>
   </g>
   <g id="PolyCollection_163">
    <defs>
     <path id="m5756589c4c" d="M 365.17453 -387.7555 
L 365.17453 -55.1155 
L 367.053318 -55.1155 
L 367.053318 -387.7555 
L 367.053318 -387.7555 
L 365.17453 -387.7555 
z
"/>
    </defs>
    <g clip-path="url(#pbdac3e8fc8)">
     <use xlink:href="#m5756589c4c" x="0" y="398.34866" style="fill: #1b9e77; fill-opacity: 0.2"/>
    </g>
   </g>
   <g id="PolyCollection_164">
    <defs>
     <path id="m97e473af70" d="M 367.053318 -387.7555 
L 367.053318 -55.1155 
L 368.932106 -55.1155 
L 368.932106 -387.7555 
L 368.932106 -387.7555 
L 367.053318 -387.7555 
z
"/>
    </defs>
    <g clip-path="url(#pbdac3e8fc8)">
     <use xlink:href="#m97e473af70" x="0" y="398.34866" style="fill: #1b9e77; fill-opacity: 0.2"/>
    </g>
   </g>
   <g id="PolyCollection_165">
    <defs>
     <path id="m1c41f2e83b" d="M 368.932106 -387.7555 
L 368.932106 -55.1155 
L 370.810894 -55.1155 
L 370.810894 -387.7555 
L 370.810894 -387.7555 
L 368.932106 -387.7555 
z
"/>
    </defs>
    <g clip-path="url(#pbdac3e8fc8)">
     <use xlink:href="#m1c41f2e83b" x="0" y="398.34866" style="fill: #1b9e77; fill-opacity: 0.2"/>
    </g>
   </g>
   <g id="PolyCollection_166">
    <defs>
     <path id="m4961ac72cf" d="M 370.810894 -387.7555 
L 370.810894 -55.1155 
L 372.689682 -55.1155 
L 372.689682 -387.7555 
L 372.689682 -387.7555 
L 370.810894 -387.7555 
z
"/>
    </defs>
    <g clip-path="url(#pbdac3e8fc8)">
     <use xlink:href="#m4961ac72cf" x="0" y="398.34866" style="fill: #1b9e77; fill-opacity: 0.2"/>
    </g>
   </g>
   <g id="PolyCollection_167">
    <defs>
     <path id="md067e2fd7f" d="M 372.689682 -387.7555 
L 372.689682 -55.1155 
L 374.56847 -55.1155 
L 374.56847 -387.7555 
L 374.56847 -387.7555 
L 372.689682 -387.7555 
z
"/>
    </defs>
    <g clip-path="url(#pbdac3e8fc8)">
     <use xlink:href="#md067e2fd7f" x="0" y="398.34866" style="fill: #d95f02; fill-opacity: 0.2"/>
    </g>
   </g>
   <g id="PolyCollection_168">
    <defs>
     <path id="maa4f181dcf" d="M 374.56847 -387.7555 
L 374.56847 -55.1155 
L 376.447258 -55.1155 
L 376.447258 -387.7555 
L 376.447258 -387.7555 
L 374.56847 -387.7555 
z
"/>
    </defs>
    <g clip-path="url(#pbdac3e8fc8)">
     <use xlink:href="#maa4f181dcf" x="0" y="398.34866" style="fill: #1b9e77; fill-opacity: 0.2"/>
    </g>
   </g>
   <g id="PolyCollection_169">
    <defs>
     <path id="m0dd16ba6a8" d="M 376.447258 -387.7555 
L 376.447258 -55.1155 
L 378.326045 -55.1155 
L 378.326045 -387.7555 
L 378.326045 -387.7555 
L 376.447258 -387.7555 
z
"/>
    </defs>
    <g clip-path="url(#pbdac3e8fc8)">
     <use xlink:href="#m0dd16ba6a8" x="0" y="398.34866" style="fill: #1b9e77; fill-opacity: 0.2"/>
    </g>
   </g>
   <g id="PolyCollection_170">
    <defs>
     <path id="m24c7748ad4" d="M 378.326045 -387.7555 
L 378.326045 -55.1155 
L 380.204833 -55.1155 
L 380.204833 -387.7555 
L 380.204833 -387.7555 
L 378.326045 -387.7555 
z
"/>
    </defs>
    <g clip-path="url(#pbdac3e8fc8)">
     <use xlink:href="#m24c7748ad4" x="0" y="398.34866" style="fill: #d95f02; fill-opacity: 0.2"/>
    </g>
   </g>
   <g id="PolyCollection_171">
    <defs>
     <path id="m264748e926" d="M 380.204833 -387.7555 
L 380.204833 -55.1155 
L 382.083621 -55.1155 
L 382.083621 -387.7555 
L 382.083621 -387.7555 
L 380.204833 -387.7555 
z
"/>
    </defs>
    <g clip-path="url(#pbdac3e8fc8)">
     <use xlink:href="#m264748e926" x="0" y="398.34866" style="fill: #d95f02; fill-opacity: 0.2"/>
    </g>
   </g>
   <g id="PolyCollection_172">
    <defs>
     <path id="m7f6908e97c" d="M 382.083621 -387.7555 
L 382.083621 -55.1155 
L 383.962409 -55.1155 
L 383.962409 -387.7555 
L 383.962409 -387.7555 
L 382.083621 -387.7555 
z
"/>
    </defs>
    <g clip-path="url(#pbdac3e8fc8)">
     <use xlink:href="#m7f6908e97c" x="0" y="398.34866" style="fill: #d95f02; fill-opacity: 0.2"/>
    </g>
   </g>
   <g id="PolyCollection_173">
    <defs>
     <path id="m0f94ff40d4" d="M 383.962409 -387.7555 
L 383.962409 -55.1155 
L 385.841197 -55.1155 
L 385.841197 -387.7555 
L 385.841197 -387.7555 
L 383.962409 -387.7555 
z
"/>
    </defs>
    <g clip-path="url(#pbdac3e8fc8)">
     <use xlink:href="#m0f94ff40d4" x="0" y="398.34866" style="fill: #1b9e77; fill-opacity: 0.2"/>
    </g>
   </g>
   <g id="PolyCollection_174">
    <defs>
     <path id="m36b63c2abd" d="M 385.841197 -387.7555 
L 385.841197 -55.1155 
L 387.719985 -55.1155 
L 387.719985 -387.7555 
L 387.719985 -387.7555 
L 385.841197 -387.7555 
z
"/>
    </defs>
    <g clip-path="url(#pbdac3e8fc8)">
     <use xlink:href="#m36b63c2abd" x="0" y="398.34866" style="fill: #d95f02; fill-opacity: 0.2"/>
    </g>
   </g>
   <g id="PolyCollection_175">
    <defs>
     <path id="m2b966f1842" d="M 387.719985 -387.7555 
L 387.719985 -55.1155 
L 389.598773 -55.1155 
L 389.598773 -387.7555 
L 389.598773 -387.7555 
L 387.719985 -387.7555 
z
"/>
    </defs>
    <g clip-path="url(#pbdac3e8fc8)">
     <use xlink:href="#m2b966f1842" x="0" y="398.34866" style="fill: #d95f02; fill-opacity: 0.2"/>
    </g>
   </g>
   <g id="PolyCollection_176">
    <defs>
     <path id="me7770ee681" d="M 389.598773 -387.7555 
L 389.598773 -55.1155 
L 391.477561 -55.1155 
L 391.477561 -387.7555 
L 391.477561 -387.7555 
L 389.598773 -387.7555 
z
"/>
    </defs>
    <g clip-path="url(#pbdac3e8fc8)">
     <use xlink:href="#me7770ee681" x="0" y="398.34866" style="fill: #d95f02; fill-opacity: 0.2"/>
    </g>
   </g>
   <g id="PolyCollection_177">
    <defs>
     <path id="m00e11b5fac" d="M 391.477561 -387.7555 
L 391.477561 -55.1155 
L 393.356348 -55.1155 
L 393.356348 -387.7555 
L 393.356348 -387.7555 
L 391.477561 -387.7555 
z
"/>
    </defs>
    <g clip-path="url(#pbdac3e8fc8)">
     <use xlink:href="#m00e11b5fac" x="0" y="398.34866" style="fill: #1b9e77; fill-opacity: 0.2"/>
    </g>
   </g>
   <g id="PolyCollection_178">
    <defs>
     <path id="m7f0229e35c" d="M 393.356348 -387.7555 
L 393.356348 -55.1155 
L 395.235136 -55.1155 
L 395.235136 -387.7555 
L 395.235136 -387.7555 
L 393.356348 -387.7555 
z
"/>
    </defs>
    <g clip-path="url(#pbdac3e8fc8)">
     <use xlink:href="#m7f0229e35c" x="0" y="398.34866" style="fill: #1b9e77; fill-opacity: 0.2"/>
    </g>
   </g>
   <g id="PolyCollection_179">
    <defs>
     <path id="m64c9eb5b62" d="M 395.235136 -387.7555 
L 395.235136 -55.1155 
L 397.113924 -55.1155 
L 397.113924 -387.7555 
L 397.113924 -387.7555 
L 395.235136 -387.7555 
z
"/>
    </defs>
    <g clip-path="url(#pbdac3e8fc8)">
     <use xlink:href="#m64c9eb5b62" x="0" y="398.34866" style="fill: #d95f02; fill-opacity: 0.2"/>
    </g>
   </g>
   <g id="PolyCollection_180">
    <defs>
     <path id="mde7fbd89b2" d="M 397.113924 -387.7555 
L 397.113924 -55.1155 
L 398.992712 -55.1155 
L 398.992712 -387.7555 
L 398.992712 -387.7555 
L 397.113924 -387.7555 
z
"/>
    </defs>
    <g clip-path="url(#pbdac3e8fc8)">
     <use xlink:href="#mde7fbd89b2" x="0" y="398.34866" style="fill: #d95f02; fill-opacity: 0.2"/>
    </g>
   </g>
   <g id="PolyCollection_181">
    <defs>
     <path id="md8dce03cde" d="M 398.992712 -387.7555 
L 398.992712 -55.1155 
L 400.8715 -55.1155 
L 400.8715 -387.7555 
L 400.8715 -387.7555 
L 398.992712 -387.7555 
z
"/>
    </defs>
    <g clip-path="url(#pbdac3e8fc8)">
     <use xlink:href="#md8dce03cde" x="0" y="398.34866" style="fill: #d95f02; fill-opacity: 0.2"/>
    </g>
   </g>
   <g id="matplotlib.axis_1">
    <g id="xtick_1">
     <g id="line2d_1">
      <defs>
       <path id="m53db76c741" d="M 0 0 
L 0 4.8 
" style="stroke: #000000"/>
      </defs>
      <g>
       <use xlink:href="#m53db76c741" x="66.447258" y="343.23316" style="stroke: #000000"/>
      </g>
     </g>
     <g id="text_1">
      <!-- 0 -->
      <g transform="translate(60.848258 364.90641) scale(0.176 -0.176)">
       <defs>
        <path id="DejaVuSans-30" d="M 2034 4250 
Q 1547 4250 1301 3770 
Q 1056 3291 1056 2328 
Q 1056 1369 1301 889 
Q 1547 409 2034 409 
Q 2525 409 2770 889 
Q 3016 1369 3016 2328 
Q 3016 3291 2770 3770 
Q 2525 4250 2034 4250 
z
M 2034 4750 
Q 2819 4750 3233 4129 
Q 3647 3509 3647 2328 
Q 3647 1150 3233 529 
Q 2819 -91 2034 -91 
Q 1250 -91 836 529 
Q 422 1150 422 2328 
Q 422 3509 836 4129 
Q 1250 4750 2034 4750 
z
" transform="scale(0.015625)"/>
       </defs>
       <use xlink:href="#DejaVuSans-30"/>
      </g>
     </g>
    </g>
    <g id="xtick_2">
     <g id="line2d_2">
      <g>
       <use xlink:href="#m53db76c741" x="160.386652" y="343.23316" style="stroke: #000000"/>
      </g>
     </g>
     <g id="text_2">
      <!-- 50 -->
      <g transform="translate(149.188652 364.90641) scale(0.176 -0.176)">
       <defs>
        <path id="DejaVuSans-35" d="M 691 4666 
L 3169 4666 
L 3169 4134 
L 1269 4134 
L 1269 2991 
Q 1406 3038 1543 3061 
Q 1681 3084 1819 3084 
Q 2600 3084 3056 2656 
Q 3513 2228 3513 1497 
Q 3513 744 3044 326 
Q 2575 -91 1722 -91 
Q 1428 -91 1123 -41 
Q 819 9 494 109 
L 494 744 
Q 775 591 1075 516 
Q 1375 441 1709 441 
Q 2250 441 2565 725 
Q 2881 1009 2881 1497 
Q 2881 1984 2565 2268 
Q 2250 2553 1709 2553 
Q 1456 2553 1204 2497 
Q 953 2441 691 2322 
L 691 4666 
z
" transform="scale(0.015625)"/>
       </defs>
       <use xlink:href="#DejaVuSans-35"/>
       <use xlink:href="#DejaVuSans-30" x="63.623047"/>
      </g>
     </g>
    </g>
    <g id="xtick_3">
     <g id="line2d_3">
      <g>
       <use xlink:href="#m53db76c741" x="254.326045" y="343.23316" style="stroke: #000000"/>
      </g>
     </g>
     <g id="text_3">
      <!-- 100 -->
      <g transform="translate(237.529045 364.90641) scale(0.176 -0.176)">
       <defs>
        <path id="DejaVuSans-31" d="M 794 531 
L 1825 531 
L 1825 4091 
L 703 3866 
L 703 4441 
L 1819 4666 
L 2450 4666 
L 2450 531 
L 3481 531 
L 3481 0 
L 794 0 
L 794 531 
z
" transform="scale(0.015625)"/>
       </defs>
       <use xlink:href="#DejaVuSans-31"/>
       <use xlink:href="#DejaVuSans-30" x="63.623047"/>
       <use xlink:href="#DejaVuSans-30" x="127.246094"/>
      </g>
     </g>
    </g>
    <g id="xtick_4">
     <g id="line2d_4">
      <g>
       <use xlink:href="#m53db76c741" x="348.265439" y="343.23316" style="stroke: #000000"/>
      </g>
     </g>
     <g id="text_4">
      <!-- 150 -->
      <g transform="translate(331.468439 364.90641) scale(0.176 -0.176)">
       <use xlink:href="#DejaVuSans-31"/>
       <use xlink:href="#DejaVuSans-35" x="63.623047"/>
       <use xlink:href="#DejaVuSans-30" x="127.246094"/>
      </g>
     </g>
    </g>
    <g id="text_5">
     <!-- State -->
     <g transform="translate(208.06 387.15566) scale(0.192 -0.192)">
      <defs>
       <path id="DejaVuSans-53" d="M 3425 4513 
L 3425 3897 
Q 3066 4069 2747 4153 
Q 2428 4238 2131 4238 
Q 1616 4238 1336 4038 
Q 1056 3838 1056 3469 
Q 1056 3159 1242 3001 
Q 1428 2844 1947 2747 
L 2328 2669 
Q 3034 2534 3370 2195 
Q 3706 1856 3706 1288 
Q 3706 609 3251 259 
Q 2797 -91 1919 -91 
Q 1588 -91 1214 -16 
Q 841 59 441 206 
L 441 856 
Q 825 641 1194 531 
Q 1563 422 1919 422 
Q 2459 422 2753 634 
Q 3047 847 3047 1241 
Q 3047 1584 2836 1778 
Q 2625 1972 2144 2069 
L 1759 2144 
Q 1053 2284 737 2584 
Q 422 2884 422 3419 
Q 422 4038 858 4394 
Q 1294 4750 2059 4750 
Q 2388 4750 2728 4690 
Q 3069 4631 3425 4513 
z
" transform="scale(0.015625)"/>
       <path id="DejaVuSans-74" d="M 1172 4494 
L 1172 3500 
L 2356 3500 
L 2356 3053 
L 1172 3053 
L 1172 1153 
Q 1172 725 1289 603 
Q 1406 481 1766 481 
L 2356 481 
L 2356 0 
L 1766 0 
Q 1100 0 847 248 
Q 594 497 594 1153 
L 594 3053 
L 172 3053 
L 172 3500 
L 594 3500 
L 594 4494 
L 1172 4494 
z
" transform="scale(0.015625)"/>
       <path id="DejaVuSans-61" d="M 2194 1759 
Q 1497 1759 1228 1600 
Q 959 1441 959 1056 
Q 959 750 1161 570 
Q 1363 391 1709 391 
Q 2188 391 2477 730 
Q 2766 1069 2766 1631 
L 2766 1759 
L 2194 1759 
z
M 3341 1997 
L 3341 0 
L 2766 0 
L 2766 531 
Q 2569 213 2275 61 
Q 1981 -91 1556 -91 
Q 1019 -91 701 211 
Q 384 513 384 1019 
Q 384 1609 779 1909 
Q 1175 2209 1959 2209 
L 2766 2209 
L 2766 2266 
Q 2766 2663 2505 2880 
Q 2244 3097 1772 3097 
Q 1472 3097 1187 3025 
Q 903 2953 641 2809 
L 641 3341 
Q 956 3463 1253 3523 
Q 1550 3584 1831 3584 
Q 2591 3584 2966 3190 
Q 3341 2797 3341 1997 
z
" transform="scale(0.015625)"/>
       <path id="DejaVuSans-65" d="M 3597 1894 
L 3597 1613 
L 953 1613 
Q 991 1019 1311 708 
Q 1631 397 2203 397 
Q 2534 397 2845 478 
Q 3156 559 3463 722 
L 3463 178 
Q 3153 47 2828 -22 
Q 2503 -91 2169 -91 
Q 1331 -91 842 396 
Q 353 884 353 1716 
Q 353 2575 817 3079 
Q 1281 3584 2069 3584 
Q 2775 3584 3186 3129 
Q 3597 2675 3597 1894 
z
M 3022 2063 
Q 3016 2534 2758 2815 
Q 2500 3097 2075 3097 
Q 1594 3097 1305 2825 
Q 1016 2553 972 2059 
L 3022 2063 
z
" transform="scale(0.015625)"/>
      </defs>
      <use xlink:href="#DejaVuSans-53"/>
      <use xlink:href="#DejaVuSans-74" x="63.476562"/>
      <use xlink:href="#DejaVuSans-61" x="102.685547"/>
      <use xlink:href="#DejaVuSans-74" x="163.964844"/>
      <use xlink:href="#DejaVuSans-65" x="203.173828"/>
     </g>
    </g>
   </g>
   <g id="matplotlib.axis_2">
    <g id="ytick_1">
     <g id="line2d_5">
      <defs>
       <path id="mc011b80774" d="M 0 0 
L -4.8 0 
" style="stroke: #000000"/>
      </defs>
      <g>
       <use xlink:href="#mc011b80774" x="66.0715" y="343.23316" style="stroke: #000000"/>
      </g>
     </g>
     <g id="text_6">
      <!-- 0.0 -->
      <g transform="translate(29.782 349.919785) scale(0.176 -0.176)">
       <defs>
        <path id="DejaVuSans-2e" d="M 684 794 
L 1344 794 
L 1344 0 
L 684 0 
L 684 794 
z
" transform="scale(0.015625)"/>
       </defs>
       <use xlink:href="#DejaVuSans-30"/>
       <use xlink:href="#DejaVuSans-2e" x="63.623047"/>
       <use xlink:href="#DejaVuSans-30" x="95.410156"/>
      </g>
     </g>
    </g>
    <g id="ytick_2">
     <g id="line2d_6">
      <g>
       <use xlink:href="#mc011b80774" x="66.0715" y="277.363853" style="stroke: #000000"/>
      </g>
     </g>
     <g id="text_7">
      <!-- 0.2 -->
      <g transform="translate(29.782 284.050478) scale(0.176 -0.176)">
       <defs>
        <path id="DejaVuSans-32" d="M 1228 531 
L 3431 531 
L 3431 0 
L 469 0 
L 469 531 
Q 828 903 1448 1529 
Q 2069 2156 2228 2338 
Q 2531 2678 2651 2914 
Q 2772 3150 2772 3378 
Q 2772 3750 2511 3984 
Q 2250 4219 1831 4219 
Q 1534 4219 1204 4116 
Q 875 4013 500 3803 
L 500 4441 
Q 881 4594 1212 4672 
Q 1544 4750 1819 4750 
Q 2544 4750 2975 4387 
Q 3406 4025 3406 3419 
Q 3406 3131 3298 2873 
Q 3191 2616 2906 2266 
Q 2828 2175 2409 1742 
Q 1991 1309 1228 531 
z
" transform="scale(0.015625)"/>
       </defs>
       <use xlink:href="#DejaVuSans-30"/>
       <use xlink:href="#DejaVuSans-2e" x="63.623047"/>
       <use xlink:href="#DejaVuSans-32" x="95.410156"/>
      </g>
     </g>
    </g>
    <g id="ytick_3">
     <g id="line2d_7">
      <g>
       <use xlink:href="#mc011b80774" x="66.0715" y="211.494546" style="stroke: #000000"/>
      </g>
     </g>
     <g id="text_8">
      <!-- 0.4 -->
      <g transform="translate(29.782 218.181171) scale(0.176 -0.176)">
       <defs>
        <path id="DejaVuSans-34" d="M 2419 4116 
L 825 1625 
L 2419 1625 
L 2419 4116 
z
M 2253 4666 
L 3047 4666 
L 3047 1625 
L 3713 1625 
L 3713 1100 
L 3047 1100 
L 3047 0 
L 2419 0 
L 2419 1100 
L 313 1100 
L 313 1709 
L 2253 4666 
z
" transform="scale(0.015625)"/>
       </defs>
       <use xlink:href="#DejaVuSans-30"/>
       <use xlink:href="#DejaVuSans-2e" x="63.623047"/>
       <use xlink:href="#DejaVuSans-34" x="95.410156"/>
      </g>
     </g>
    </g>
    <g id="ytick_4">
     <g id="line2d_8">
      <g>
       <use xlink:href="#mc011b80774" x="66.0715" y="145.625239" style="stroke: #000000"/>
      </g>
     </g>
     <g id="text_9">
      <!-- 0.6 -->
      <g transform="translate(29.782 152.311864) scale(0.176 -0.176)">
       <defs>
        <path id="DejaVuSans-36" d="M 2113 2584 
Q 1688 2584 1439 2293 
Q 1191 2003 1191 1497 
Q 1191 994 1439 701 
Q 1688 409 2113 409 
Q 2538 409 2786 701 
Q 3034 994 3034 1497 
Q 3034 2003 2786 2293 
Q 2538 2584 2113 2584 
z
M 3366 4563 
L 3366 3988 
Q 3128 4100 2886 4159 
Q 2644 4219 2406 4219 
Q 1781 4219 1451 3797 
Q 1122 3375 1075 2522 
Q 1259 2794 1537 2939 
Q 1816 3084 2150 3084 
Q 2853 3084 3261 2657 
Q 3669 2231 3669 1497 
Q 3669 778 3244 343 
Q 2819 -91 2113 -91 
Q 1303 -91 875 529 
Q 447 1150 447 2328 
Q 447 3434 972 4092 
Q 1497 4750 2381 4750 
Q 2619 4750 2861 4703 
Q 3103 4656 3366 4563 
z
" transform="scale(0.015625)"/>
       </defs>
       <use xlink:href="#DejaVuSans-30"/>
       <use xlink:href="#DejaVuSans-2e" x="63.623047"/>
       <use xlink:href="#DejaVuSans-36" x="95.410156"/>
      </g>
     </g>
    </g>
    <g id="ytick_5">
     <g id="line2d_9">
      <g>
       <use xlink:href="#mc011b80774" x="66.0715" y="79.755932" style="stroke: #000000"/>
      </g>
     </g>
     <g id="text_10">
      <!-- 0.8 -->
      <g transform="translate(29.782 86.442557) scale(0.176 -0.176)">
       <defs>
        <path id="DejaVuSans-38" d="M 2034 2216 
Q 1584 2216 1326 1975 
Q 1069 1734 1069 1313 
Q 1069 891 1326 650 
Q 1584 409 2034 409 
Q 2484 409 2743 651 
Q 3003 894 3003 1313 
Q 3003 1734 2745 1975 
Q 2488 2216 2034 2216 
z
M 1403 2484 
Q 997 2584 770 2862 
Q 544 3141 544 3541 
Q 544 4100 942 4425 
Q 1341 4750 2034 4750 
Q 2731 4750 3128 4425 
Q 3525 4100 3525 3541 
Q 3525 3141 3298 2862 
Q 3072 2584 2669 2484 
Q 3125 2378 3379 2068 
Q 3634 1759 3634 1313 
Q 3634 634 3220 271 
Q 2806 -91 2034 -91 
Q 1263 -91 848 271 
Q 434 634 434 1313 
Q 434 1759 690 2068 
Q 947 2378 1403 2484 
z
M 1172 3481 
Q 1172 3119 1398 2916 
Q 1625 2713 2034 2713 
Q 2441 2713 2670 2916 
Q 2900 3119 2900 3481 
Q 2900 3844 2670 4047 
Q 2441 4250 2034 4250 
Q 1625 4250 1398 4047 
Q 1172 3844 1172 3481 
z
" transform="scale(0.015625)"/>
       </defs>
       <use xlink:href="#DejaVuSans-30"/>
       <use xlink:href="#DejaVuSans-2e" x="63.623047"/>
       <use xlink:href="#DejaVuSans-38" x="95.410156"/>
      </g>
     </g>
    </g>
    <g id="ytick_6">
     <g id="line2d_10">
      <g>
       <use xlink:href="#mc011b80774" x="66.0715" y="13.886625" style="stroke: #000000"/>
      </g>
     </g>
     <g id="text_11">
      <!-- 1.0 -->
      <g transform="translate(29.782 20.57325) scale(0.176 -0.176)">
       <use xlink:href="#DejaVuSans-31"/>
       <use xlink:href="#DejaVuSans-2e" x="63.623047"/>
       <use xlink:href="#DejaVuSans-30" x="95.410156"/>
      </g>
     </g>
    </g>
    <g id="text_12">
     <!-- Score -->
     <g transform="translate(21.789 203.79766) rotate(-90) scale(0.192 -0.192)">
      <defs>
       <path id="DejaVuSans-63" d="M 3122 3366 
L 3122 2828 
Q 2878 2963 2633 3030 
Q 2388 3097 2138 3097 
Q 1578 3097 1268 2742 
Q 959 2388 959 1747 
Q 959 1106 1268 751 
Q 1578 397 2138 397 
Q 2388 397 2633 464 
Q 2878 531 3122 666 
L 3122 134 
Q 2881 22 2623 -34 
Q 2366 -91 2075 -91 
Q 1284 -91 818 406 
Q 353 903 353 1747 
Q 353 2603 823 3093 
Q 1294 3584 2113 3584 
Q 2378 3584 2631 3529 
Q 2884 3475 3122 3366 
z
" transform="scale(0.015625)"/>
       <path id="DejaVuSans-6f" d="M 1959 3097 
Q 1497 3097 1228 2736 
Q 959 2375 959 1747 
Q 959 1119 1226 758 
Q 1494 397 1959 397 
Q 2419 397 2687 759 
Q 2956 1122 2956 1747 
Q 2956 2369 2687 2733 
Q 2419 3097 1959 3097 
z
M 1959 3584 
Q 2709 3584 3137 3096 
Q 3566 2609 3566 1747 
Q 3566 888 3137 398 
Q 2709 -91 1959 -91 
Q 1206 -91 779 398 
Q 353 888 353 1747 
Q 353 2609 779 3096 
Q 1206 3584 1959 3584 
z
" transform="scale(0.015625)"/>
       <path id="DejaVuSans-72" d="M 2631 2963 
Q 2534 3019 2420 3045 
Q 2306 3072 2169 3072 
Q 1681 3072 1420 2755 
Q 1159 2438 1159 1844 
L 1159 0 
L 581 0 
L 581 3500 
L 1159 3500 
L 1159 2956 
Q 1341 3275 1631 3429 
Q 1922 3584 2338 3584 
Q 2397 3584 2469 3576 
Q 2541 3569 2628 3553 
L 2631 2963 
z
" transform="scale(0.015625)"/>
      </defs>
      <use xlink:href="#DejaVuSans-53"/>
      <use xlink:href="#DejaVuSans-63" x="63.476562"/>
      <use xlink:href="#DejaVuSans-6f" x="118.457031"/>
      <use xlink:href="#DejaVuSans-72" x="179.638672"/>
      <use xlink:href="#DejaVuSans-65" x="218.501953"/>
     </g>
    </g>
   </g>
   <g id="line2d_11">
    <path d="M 70.204833 146.166859 
L 73.962409 146.166859 
L 75.841197 146.166859 
L 77.719985 146.166859 
L 79.598773 146.166859 
L 81.477561 146.166859 
L 83.356348 146.166859 
L 85.235136 146.166859 
L 87.113924 146.166859 
L 88.992712 146.166859 
L 90.8715 146.166859 
L 92.750288 146.166859 
L 94.629076 146.166859 
L 96.507864 146.166859 
L 98.386652 146.166859 
L 100.265439 146.166859 
L 102.144227 146.166859 
L 104.023015 146.166859 
L 105.901803 146.166859 
L 117.17453 147.510732 
L 119.053318 147.510732 
L 124.689682 145.336338 
L 128.447258 143.711159 
L 139.719985 117.086574 
L 141.598773 92.389114 
L 145.356348 91.272638 
L 152.8715 91.272638 
L 166.023015 91.272638 
L 167.901803 91.272638 
L 169.780591 77.169585 
L 171.659379 76.277502 
L 175.416955 76.053546 
L 177.295742 73.107546 
L 181.053318 72.598656 
L 182.932106 72.598656 
L 184.810894 72.598656 
L 186.689682 68.49477 
L 188.56847 67.263477 
L 197.962409 62.870799 
L 199.841197 60.1056 
L 201.719985 50.280169 
L 205.477561 44.273677 
L 207.356348 44.245384 
L 209.235136 42.001573 
L 211.113924 40.866991 
L 212.992712 39.412538 
L 214.8715 39.077436 
L 218.629076 36.74052 
L 220.507864 35.82217 
L 222.386652 33.722984 
L 226.144227 28.289535 
L 229.901803 28.289535 
L 231.780591 28.289535 
L 233.659379 22.989984 
L 235.538167 22.989984 
L 237.416955 22.989984 
L 239.295742 84.573083 
L 243.053318 22.963104 
L 244.932106 24.247383 
L 246.810894 22.711221 
L 250.56847 22.711221 
L 252.447258 23.362157 
L 254.326045 21.954607 
L 256.204833 21.659664 
L 259.962409 21.365236 
L 261.841197 21.083883 
L 265.598773 19.948218 
L 267.477561 18.810892 
L 271.235136 18.810892 
L 273.113924 18.797933 
L 274.992712 18.797933 
L 276.8715 18.659763 
L 278.750288 18.659763 
L 280.629076 18.659763 
L 284.386652 16.411428 
L 288.144227 14.168841 
L 290.023015 13.886625 
L 295.659379 13.886625 
L 297.538167 13.886625 
L 303.17453 13.886625 
L 305.053318 13.886625 
L 306.932106 13.886625 
L 310.689682 13.886625 
L 312.56847 13.886625 
L 314.447258 13.886625 
L 318.204833 13.886625 
L 320.083621 13.886625 
L 321.962409 13.886625 
L 323.841197 13.886625 
L 325.719985 13.886625 
L 329.477561 16.189748 
L 331.356348 13.886625 
L 333.235136 13.886625 
L 335.113924 13.886625 
L 336.992712 13.886625 
L 338.8715 13.886625 
L 342.629076 13.886625 
L 344.507864 13.886625 
L 346.386652 13.886625 
L 348.265439 13.886625 
L 352.023015 13.886625 
L 353.901803 13.886625 
L 355.780591 13.886625 
L 357.659379 13.886625 
L 359.538167 13.886625 
L 361.416955 13.886625 
L 363.295742 13.886625 
L 367.053318 13.886625 
L 368.932106 13.886625 
L 372.689682 24.784922 
L 376.447258 13.886625 
L 378.326045 13.886625 
L 382.083621 13.886625 
L 383.962409 13.886625 
L 385.841197 13.886625 
L 395.235136 18.439803 
L 397.113924 18.439803 
L 400.8715 13.886625 
" clip-path="url(#pbdac3e8fc8)" style="fill: none; stroke-dasharray: 2,3.3; stroke-dashoffset: 0; stroke: #e41a1c; stroke-width: 2"/>
   </g>
   <g id="line2d_12">
    <path d="M 66.447258 343.23316 
L 68.326045 343.23316 
L 70.204833 135.247965 
L 73.962409 135.247965 
L 75.841197 135.247965 
L 77.719985 135.247965 
L 79.598773 135.247965 
L 81.477561 135.247965 
L 83.356348 135.247965 
L 85.235136 135.247965 
L 87.113924 135.247965 
L 88.992712 135.247965 
L 90.8715 135.247965 
L 92.750288 135.247965 
L 94.629076 135.247965 
L 96.507864 135.247965 
L 98.386652 135.247965 
L 100.265439 135.247965 
L 102.144227 135.247965 
L 104.023015 135.247965 
L 105.901803 135.247965 
L 117.17453 133.269247 
L 119.053318 133.269247 
L 124.689682 132.389817 
L 128.447258 132.389817 
L 139.719985 131.730245 
L 141.598773 131.070672 
L 145.356348 130.630957 
L 152.8715 130.630957 
L 166.023015 130.630957 
L 167.901803 130.630957 
L 169.780591 130.630957 
L 171.659379 130.630957 
L 175.416955 130.630957 
L 177.295742 130.630957 
L 181.053318 130.4111 
L 182.932106 130.4111 
L 184.810894 130.4111 
L 186.689682 129.751527 
L 188.56847 129.53167 
L 197.962409 129.311812 
L 199.841197 129.091955 
L 201.719985 129.091955 
L 205.477561 129.091955 
L 207.356348 128.872097 
L 209.235136 128.872097 
L 211.113924 128.872097 
L 212.992712 128.65224 
L 214.8715 128.212525 
L 218.629076 127.992667 
L 220.507864 127.552952 
L 222.386652 127.113237 
L 226.144227 126.89338 
L 229.901803 126.89338 
L 231.780591 126.89338 
L 233.659379 126.673522 
L 235.538167 126.673522 
L 237.416955 126.673522 
L 239.295742 126.01395 
L 243.053318 126.01395 
L 244.932106 119.85794 
L 246.810894 119.638082 
L 250.56847 119.638082 
L 252.447258 98.311905 
L 254.326045 98.092047 
L 256.204833 97.652332 
L 259.962409 97.212617 
L 261.841197 97.212617 
L 265.598773 96.99276 
L 267.477561 96.99276 
L 271.235136 96.99276 
L 273.113924 96.333187 
L 274.992712 96.333187 
L 276.8715 89.07789 
L 278.750288 89.07789 
L 280.629076 89.07789 
L 284.386652 87.099172 
L 288.144227 86.879315 
L 290.023015 86.879315 
L 295.659379 86.219742 
L 297.538167 86.219742 
L 303.17453 86.219742 
L 305.053318 86.219742 
L 306.932106 86.219742 
L 310.689682 86.219742 
L 312.56847 86.219742 
L 314.447258 86.219742 
L 318.204833 86.219742 
L 320.083621 86.219742 
L 321.962409 86.219742 
L 323.841197 86.219742 
L 325.719985 67.311997 
L 329.477561 62.255275 
L 331.356348 62.035417 
L 333.235136 62.035417 
L 335.113924 62.035417 
L 336.992712 62.035417 
L 338.8715 62.035417 
L 342.629076 51.482257 
L 344.507864 23.340497 
L 346.386652 23.340497 
L 348.265439 23.340497 
L 352.023015 23.340497 
L 353.901803 23.340497 
L 355.780591 23.340497 
L 357.659379 23.340497 
L 359.538167 23.340497 
L 361.416955 23.340497 
L 363.295742 23.340497 
L 367.053318 23.340497 
L 368.932106 23.340497 
L 372.689682 22.021352 
L 376.447258 20.042635 
L 378.326045 20.042635 
L 382.083621 20.042635 
L 383.962409 20.042635 
L 385.841197 15.645485 
L 395.235136 13.886625 
L 397.113924 13.886625 
L 400.8715 13.886625 
" clip-path="url(#pbdac3e8fc8)" style="fill: none; stroke-dasharray: 7.4,3.2; stroke-dashoffset: 0; stroke: #377eb8; stroke-width: 2"/>
   </g>
   <g id="line2d_13">
    <path d="M 70.204833 140.854581 
L 73.962409 140.854581 
L 75.841197 140.854581 
L 77.719985 140.854581 
L 79.598773 140.854581 
L 81.477561 140.854581 
L 83.356348 140.854581 
L 85.235136 140.854581 
L 87.113924 140.854581 
L 88.992712 140.854581 
L 90.8715 140.854581 
L 92.750288 140.854581 
L 94.629076 140.854581 
L 96.507864 140.854581 
L 98.386652 140.854581 
L 100.265439 140.854581 
L 102.144227 140.854581 
L 104.023015 140.854581 
L 105.901803 140.854581 
L 117.17453 140.639961 
L 119.053318 140.639961 
L 124.689682 139.068113 
L 128.447258 138.206657 
L 139.719985 124.653397 
L 141.598773 113.345705 
L 145.356348 112.61904 
L 152.8715 112.61904 
L 166.023015 112.61904 
L 167.901803 112.61904 
L 169.780591 106.885776 
L 171.659379 106.534461 
L 175.416955 106.446469 
L 177.295742 105.29659 
L 181.053318 104.961526 
L 182.932106 104.961526 
L 184.810894 104.961526 
L 186.689682 102.966078 
L 188.56847 102.356687 
L 197.962409 100.556766 
L 199.841197 99.384034 
L 201.719985 95.810464 
L 205.477561 93.693273 
L 207.356348 93.534193 
L 209.235136 92.755101 
L 211.113924 92.363729 
L 212.992712 91.713427 
L 214.8715 91.296585 
L 218.629076 90.346683 
L 220.507864 89.730648 
L 222.386652 88.714572 
L 226.144227 86.741676 
L 229.901803 86.741676 
L 231.780591 86.741676 
L 233.659379 84.844998 
L 235.538167 84.844998 
L 237.416955 84.844998 
L 239.295742 107.097908 
L 243.053318 84.367307 
L 244.932106 80.480055 
L 246.810894 79.807736 
L 250.56847 79.807736 
L 252.447258 65.810067 
L 254.326045 65.140478 
L 256.204833 64.747104 
L 259.962409 64.354028 
L 261.841197 64.248472 
L 265.598773 63.681724 
L 267.477561 63.257358 
L 271.235136 63.257358 
L 273.113924 62.826671 
L 274.992712 62.826671 
L 276.8715 58.152969 
L 278.750288 58.152969 
L 280.629076 58.152969 
L 284.386652 56.041009 
L 288.144227 55.039494 
L 290.023015 54.931313 
L 295.659379 54.514675 
L 297.538167 54.514675 
L 303.17453 54.514675 
L 305.053318 54.514675 
L 306.932106 54.514675 
L 310.689682 54.514675 
L 312.56847 54.514675 
L 314.447258 54.514675 
L 318.204833 54.514675 
L 320.083621 54.514675 
L 321.962409 54.514675 
L 323.841197 54.514675 
L 325.719985 42.957169 
L 329.477561 40.967543 
L 331.356348 39.859578 
L 333.235136 39.859578 
L 335.113924 39.859578 
L 336.992712 39.859578 
L 338.8715 39.859578 
L 342.629076 33.822291 
L 344.507864 18.682392 
L 346.386652 18.682392 
L 348.265439 18.682392 
L 352.023015 18.682392 
L 353.901803 18.682392 
L 355.780591 18.682392 
L 357.659379 18.682392 
L 359.538167 18.682392 
L 361.416955 18.682392 
L 363.295742 18.682392 
L 367.053318 18.682392 
L 368.932106 18.682392 
L 372.689682 23.409107 
L 376.447258 16.993668 
L 378.326045 16.993668 
L 382.083621 16.993668 
L 383.962409 16.993668 
L 385.841197 14.76841 
L 395.235136 16.17906 
L 397.113924 16.17906 
L 400.8715 13.886625 
" clip-path="url(#pbdac3e8fc8)" style="fill: none; stroke: #984ea3; stroke-width: 3; stroke-linecap: square"/>
   </g>
   <g id="patch_3">
    <path d="M 66.0715 343.23316 
L 66.0715 10.59316 
" style="fill: none; stroke: #000000; stroke-linejoin: miter; stroke-linecap: square"/>
   </g>
   <g id="patch_4">
    <path d="M 66.0715 343.23316 
L 400.8715 343.23316 
" style="fill: none; stroke: #000000; stroke-linejoin: miter; stroke-linecap: square"/>
   </g>
   <g id="legend_1">
    <g id="patch_5">
     <path d="M 78.3915 334.43316 
L 213.23225 334.43316 
Q 216.75225 334.43316 216.75225 330.91316 
L 216.75225 255.17266 
Q 216.75225 251.65266 213.23225 251.65266 
L 78.3915 251.65266 
Q 74.8715 251.65266 74.8715 255.17266 
L 74.8715 330.91316 
Q 74.8715 334.43316 78.3915 334.43316 
z
" style="fill: #ffffff; opacity: 0.8; stroke: #cccccc; stroke-width: 0.8; stroke-linejoin: miter"/>
    </g>
    <g id="line2d_14">
     <path d="M 81.9115 265.90591 
L 99.5115 265.90591 
L 117.1115 265.90591 
" style="fill: none; stroke-dasharray: 2,3.3; stroke-dashoffset: 0; stroke: #e41a1c; stroke-width: 2"/>
    </g>
    <g id="text_13">
     <!-- Precision -->
     <g transform="translate(131.1915 272.06591) scale(0.176 -0.176)">
      <defs>
       <path id="DejaVuSans-50" d="M 1259 4147 
L 1259 2394 
L 2053 2394 
Q 2494 2394 2734 2622 
Q 2975 2850 2975 3272 
Q 2975 3691 2734 3919 
Q 2494 4147 2053 4147 
L 1259 4147 
z
M 628 4666 
L 2053 4666 
Q 2838 4666 3239 4311 
Q 3641 3956 3641 3272 
Q 3641 2581 3239 2228 
Q 2838 1875 2053 1875 
L 1259 1875 
L 1259 0 
L 628 0 
L 628 4666 
z
" transform="scale(0.015625)"/>
       <path id="DejaVuSans-69" d="M 603 3500 
L 1178 3500 
L 1178 0 
L 603 0 
L 603 3500 
z
M 603 4863 
L 1178 4863 
L 1178 4134 
L 603 4134 
L 603 4863 
z
" transform="scale(0.015625)"/>
       <path id="DejaVuSans-73" d="M 2834 3397 
L 2834 2853 
Q 2591 2978 2328 3040 
Q 2066 3103 1784 3103 
Q 1356 3103 1142 2972 
Q 928 2841 928 2578 
Q 928 2378 1081 2264 
Q 1234 2150 1697 2047 
L 1894 2003 
Q 2506 1872 2764 1633 
Q 3022 1394 3022 966 
Q 3022 478 2636 193 
Q 2250 -91 1575 -91 
Q 1294 -91 989 -36 
Q 684 19 347 128 
L 347 722 
Q 666 556 975 473 
Q 1284 391 1588 391 
Q 1994 391 2212 530 
Q 2431 669 2431 922 
Q 2431 1156 2273 1281 
Q 2116 1406 1581 1522 
L 1381 1569 
Q 847 1681 609 1914 
Q 372 2147 372 2553 
Q 372 3047 722 3315 
Q 1072 3584 1716 3584 
Q 2034 3584 2315 3537 
Q 2597 3491 2834 3397 
z
" transform="scale(0.015625)"/>
       <path id="DejaVuSans-6e" d="M 3513 2113 
L 3513 0 
L 2938 0 
L 2938 2094 
Q 2938 2591 2744 2837 
Q 2550 3084 2163 3084 
Q 1697 3084 1428 2787 
Q 1159 2491 1159 1978 
L 1159 0 
L 581 0 
L 581 3500 
L 1159 3500 
L 1159 2956 
Q 1366 3272 1645 3428 
Q 1925 3584 2291 3584 
Q 2894 3584 3203 3211 
Q 3513 2838 3513 2113 
z
" transform="scale(0.015625)"/>
      </defs>
      <use xlink:href="#DejaVuSans-50"/>
      <use xlink:href="#DejaVuSans-72" x="58.552734"/>
      <use xlink:href="#DejaVuSans-65" x="97.416016"/>
      <use xlink:href="#DejaVuSans-63" x="158.939453"/>
      <use xlink:href="#DejaVuSans-69" x="213.919922"/>
      <use xlink:href="#DejaVuSans-73" x="241.703125"/>
      <use xlink:href="#DejaVuSans-69" x="293.802734"/>
      <use xlink:href="#DejaVuSans-6f" x="321.585938"/>
      <use xlink:href="#DejaVuSans-6e" x="382.767578"/>
     </g>
    </g>
    <g id="line2d_15">
     <path d="M 81.9115 291.73941 
L 99.5115 291.73941 
L 117.1115 291.73941 
" style="fill: none; stroke-dasharray: 7.4,3.2; stroke-dashoffset: 0; stroke: #377eb8; stroke-width: 2"/>
    </g>
    <g id="text_14">
     <!-- Recall -->
     <g transform="translate(131.1915 297.89941) scale(0.176 -0.176)">
      <defs>
       <path id="DejaVuSans-52" d="M 2841 2188 
Q 3044 2119 3236 1894 
Q 3428 1669 3622 1275 
L 4263 0 
L 3584 0 
L 2988 1197 
Q 2756 1666 2539 1819 
Q 2322 1972 1947 1972 
L 1259 1972 
L 1259 0 
L 628 0 
L 628 4666 
L 2053 4666 
Q 2853 4666 3247 4331 
Q 3641 3997 3641 3322 
Q 3641 2881 3436 2590 
Q 3231 2300 2841 2188 
z
M 1259 4147 
L 1259 2491 
L 2053 2491 
Q 2509 2491 2742 2702 
Q 2975 2913 2975 3322 
Q 2975 3731 2742 3939 
Q 2509 4147 2053 4147 
L 1259 4147 
z
" transform="scale(0.015625)"/>
       <path id="DejaVuSans-6c" d="M 603 4863 
L 1178 4863 
L 1178 0 
L 603 0 
L 603 4863 
z
" transform="scale(0.015625)"/>
      </defs>
      <use xlink:href="#DejaVuSans-52"/>
      <use xlink:href="#DejaVuSans-65" x="64.982422"/>
      <use xlink:href="#DejaVuSans-63" x="126.505859"/>
      <use xlink:href="#DejaVuSans-61" x="181.486328"/>
      <use xlink:href="#DejaVuSans-6c" x="242.765625"/>
      <use xlink:href="#DejaVuSans-6c" x="270.548828"/>
     </g>
    </g>
    <g id="line2d_16">
     <path d="M 81.9115 317.57291 
L 99.5115 317.57291 
L 117.1115 317.57291 
" style="fill: none; stroke: #984ea3; stroke-width: 3; stroke-linecap: square"/>
    </g>
    <g id="text_15">
     <!-- F1 -->
     <g transform="translate(131.1915 323.73291) scale(0.176 -0.176)">
      <defs>
       <path id="DejaVuSans-46" d="M 628 4666 
L 3309 4666 
L 3309 4134 
L 1259 4134 
L 1259 2759 
L 3109 2759 
L 3109 2228 
L 1259 2228 
L 1259 0 
L 628 0 
L 628 4666 
z
" transform="scale(0.015625)"/>
      </defs>
      <use xlink:href="#DejaVuSans-46"/>
      <use xlink:href="#DejaVuSans-31" x="57.519531"/>
     </g>
    </g>
   </g>
  </g>
 </g>
 <defs>
  <clipPath id="pbdac3e8fc8">
   <rect x="66.0715" y="10.59316" width="334.8" height="332.64"/>
  </clipPath>
 </defs>
</svg>
