<?xml version="1.0" encoding="utf-8" standalone="no"?>
<!DOCTYPE svg PUBLIC "-//W3C//DTD SVG 1.1//EN"
  "http://www.w3.org/Graphics/SVG/1.1/DTD/svg11.dtd">
<svg xmlns:xlink="http://www.w3.org/1999/xlink" width="415.146347pt" height="398.34866pt" viewBox="0 0 415.146347 398.34866" xmlns="http://www.w3.org/2000/svg" version="1.1">
 <metadata>
  <rdf:RDF xmlns:dc="http://purl.org/dc/elements/1.1/" xmlns:cc="http://creativecommons.org/ns#" xmlns:rdf="http://www.w3.org/1999/02/22-rdf-syntax-ns#">
   <cc:Work>
    <dc:type rdf:resource="http://purl.org/dc/dcmitype/StillImage"/>
    <dc:date>2024-10-01T11:03:50.018188</dc:date>
    <dc:format>image/svg+xml</dc:format>
    <dc:creator>
     <cc:Agent>
      <dc:title>Matplotlib v3.8.0, https://matplotlib.org/</dc:title>
     </cc:Agent>
    </dc:creator>
   </cc:Work>
  </rdf:RDF>
 </metadata>
 <defs>
  <style type="text/css">*{stroke-linejoin: round; stroke-linecap: butt}</style>
 </defs>
 <g id="figure_1">
  <g id="patch_1">
   <path d="M 0 398.34866 
L 415.146347 398.34866 
L 415.146347 0 
L 0 0 
z
" style="fill: #ffffff"/>
  </g>
  <g id="axes_1">
   <g id="patch_2">
    <path d="M 66.0715 343.23316 
L 400.8715 343.23316 
L 400.8715 10.59316 
L 66.0715 10.59316 
z
" style="fill: #ffffff"/>
   </g>
   <g id="PolyCollection_1"/>
   <g id="PolyCollection_2"/>
   <g id="PolyCollection_3"/>
   <g id="PolyCollection_4">
    <defs>
     <path id="m62d5a0eb03" d="M 66.896131 -387.7555 
L 66.896131 -55.1155 
L 71.019283 -55.1155 
L 71.019283 -387.7555 
L 71.019283 -387.7555 
L 66.896131 -387.7555 
z
"/>
    </defs>
    <g clip-path="url(#pe4a57c3a9d)">
     <use xlink:href="#m62d5a0eb03" x="0" y="398.34866" style="fill: #1b9e77; fill-opacity: 0.2"/>
    </g>
   </g>
   <g id="PolyCollection_5">
    <defs>
     <path id="mc8a5dc3b4f" d="M 71.019283 -387.7555 
L 71.019283 -55.1155 
L 75.142436 -55.1155 
L 75.142436 -387.7555 
L 75.142436 -387.7555 
L 71.019283 -387.7555 
z
"/>
    </defs>
    <g clip-path="url(#pe4a57c3a9d)">
     <use xlink:href="#mc8a5dc3b4f" x="0" y="398.34866" style="fill: #1b9e77; fill-opacity: 0.2"/>
    </g>
   </g>
   <g id="PolyCollection_6">
    <defs>
     <path id="mb220008fd9" d="M 75.142436 -387.7555 
L 75.142436 -55.1155 
L 79.265589 -55.1155 
L 79.265589 -387.7555 
L 79.265589 -387.7555 
L 75.142436 -387.7555 
z
"/>
    </defs>
    <g clip-path="url(#pe4a57c3a9d)">
     <use xlink:href="#mb220008fd9" x="0" y="398.34866" style="fill: #1b9e77; fill-opacity: 0.2"/>
    </g>
   </g>
   <g id="PolyCollection_7">
    <defs>
     <path id="m4795bc5639" d="M 79.265589 -387.7555 
L 79.265589 -55.1155 
L 83.388741 -55.1155 
L 83.388741 -387.7555 
L 83.388741 -387.7555 
L 79.265589 -387.7555 
z
"/>
    </defs>
    <g clip-path="url(#pe4a57c3a9d)">
     <use xlink:href="#m4795bc5639" x="0" y="398.34866" style="fill: #1b9e77; fill-opacity: 0.2"/>
    </g>
   </g>
   <g id="PolyCollection_8">
    <defs>
     <path id="m892591bd8e" d="M 83.388741 -387.7555 
L 83.388741 -55.1155 
L 87.511894 -55.1155 
L 87.511894 -387.7555 
L 87.511894 -387.7555 
L 83.388741 -387.7555 
z
"/>
    </defs>
    <g clip-path="url(#pe4a57c3a9d)">
     <use xlink:href="#m892591bd8e" x="0" y="398.34866" style="fill: #1b9e77; fill-opacity: 0.2"/>
    </g>
   </g>
   <g id="PolyCollection_9">
    <defs>
     <path id="m0e2ce32195" d="M 87.511894 -387.7555 
L 87.511894 -55.1155 
L 91.635047 -55.1155 
L 91.635047 -387.7555 
L 91.635047 -387.7555 
L 87.511894 -387.7555 
z
"/>
    </defs>
    <g clip-path="url(#pe4a57c3a9d)">
     <use xlink:href="#m0e2ce32195" x="0" y="398.34866" style="fill: #d95f02; fill-opacity: 0.2"/>
    </g>
   </g>
   <g id="PolyCollection_10">
    <defs>
     <path id="m4c97b8464b" d="M 91.635047 -387.7555 
L 91.635047 -55.1155 
L 95.7582 -55.1155 
L 95.7582 -387.7555 
L 95.7582 -387.7555 
L 91.635047 -387.7555 
z
"/>
    </defs>
    <g clip-path="url(#pe4a57c3a9d)">
     <use xlink:href="#m4c97b8464b" x="0" y="398.34866" style="fill: #d95f02; fill-opacity: 0.2"/>
    </g>
   </g>
   <g id="PolyCollection_11">
    <defs>
     <path id="ma511495b82" d="M 95.7582 -387.7555 
L 95.7582 -55.1155 
L 99.881352 -55.1155 
L 99.881352 -387.7555 
L 99.881352 -387.7555 
L 95.7582 -387.7555 
z
"/>
    </defs>
    <g clip-path="url(#pe4a57c3a9d)">
     <use xlink:href="#ma511495b82" x="0" y="398.34866" style="fill: #d95f02; fill-opacity: 0.2"/>
    </g>
   </g>
   <g id="PolyCollection_12">
    <defs>
     <path id="m24f83b80dd" d="M 99.881352 -387.7555 
L 99.881352 -55.1155 
L 104.004505 -55.1155 
L 104.004505 -387.7555 
L 104.004505 -387.7555 
L 99.881352 -387.7555 
z
"/>
    </defs>
    <g clip-path="url(#pe4a57c3a9d)">
     <use xlink:href="#m24f83b80dd" x="0" y="398.34866" style="fill: #d95f02; fill-opacity: 0.2"/>
    </g>
   </g>
   <g id="PolyCollection_13">
    <defs>
     <path id="mea1ecea2c4" d="M 104.004505 -387.7555 
L 104.004505 -55.1155 
L 108.127658 -55.1155 
L 108.127658 -387.7555 
L 108.127658 -387.7555 
L 104.004505 -387.7555 
z
"/>
    </defs>
    <g clip-path="url(#pe4a57c3a9d)">
     <use xlink:href="#mea1ecea2c4" x="0" y="398.34866" style="fill: #d95f02; fill-opacity: 0.2"/>
    </g>
   </g>
   <g id="PolyCollection_14">
    <defs>
     <path id="m8178102b94" d="M 108.127658 -387.7555 
L 108.127658 -55.1155 
L 112.25081 -55.1155 
L 112.25081 -387.7555 
L 112.25081 -387.7555 
L 108.127658 -387.7555 
z
"/>
    </defs>
    <g clip-path="url(#pe4a57c3a9d)">
     <use xlink:href="#m8178102b94" x="0" y="398.34866" style="fill: #1b9e77; fill-opacity: 0.2"/>
    </g>
   </g>
   <g id="PolyCollection_15">
    <defs>
     <path id="m3ea1b56372" d="M 112.25081 -387.7555 
L 112.25081 -55.1155 
L 116.373963 -55.1155 
L 116.373963 -387.7555 
L 116.373963 -387.7555 
L 112.25081 -387.7555 
z
"/>
    </defs>
    <g clip-path="url(#pe4a57c3a9d)">
     <use xlink:href="#m3ea1b56372" x="0" y="398.34866" style="fill: #1b9e77; fill-opacity: 0.2"/>
    </g>
   </g>
   <g id="PolyCollection_16">
    <defs>
     <path id="m8ad1ababa1" d="M 116.373963 -387.7555 
L 116.373963 -55.1155 
L 120.497116 -55.1155 
L 120.497116 -387.7555 
L 120.497116 -387.7555 
L 116.373963 -387.7555 
z
"/>
    </defs>
    <g clip-path="url(#pe4a57c3a9d)">
     <use xlink:href="#m8ad1ababa1" x="0" y="398.34866" style="fill: #d95f02; fill-opacity: 0.2"/>
    </g>
   </g>
   <g id="PolyCollection_17">
    <defs>
     <path id="mc5b3534cfe" d="M 120.497116 -387.7555 
L 120.497116 -55.1155 
L 124.620268 -55.1155 
L 124.620268 -387.7555 
L 124.620268 -387.7555 
L 120.497116 -387.7555 
z
"/>
    </defs>
    <g clip-path="url(#pe4a57c3a9d)">
     <use xlink:href="#mc5b3534cfe" x="0" y="398.34866" style="fill: #d95f02; fill-opacity: 0.2"/>
    </g>
   </g>
   <g id="PolyCollection_18">
    <defs>
     <path id="med6d0cd247" d="M 124.620268 -387.7555 
L 124.620268 -55.1155 
L 128.743421 -55.1155 
L 128.743421 -387.7555 
L 128.743421 -387.7555 
L 124.620268 -387.7555 
z
"/>
    </defs>
    <g clip-path="url(#pe4a57c3a9d)">
     <use xlink:href="#med6d0cd247" x="0" y="398.34866" style="fill: #d95f02; fill-opacity: 0.2"/>
    </g>
   </g>
   <g id="PolyCollection_19">
    <defs>
     <path id="m07af37b8fb" d="M 128.743421 -387.7555 
L 128.743421 -55.1155 
L 132.866574 -55.1155 
L 132.866574 -387.7555 
L 132.866574 -387.7555 
L 128.743421 -387.7555 
z
"/>
    </defs>
    <g clip-path="url(#pe4a57c3a9d)">
     <use xlink:href="#m07af37b8fb" x="0" y="398.34866" style="fill: #d95f02; fill-opacity: 0.2"/>
    </g>
   </g>
   <g id="PolyCollection_20">
    <defs>
     <path id="me43e521b83" d="M 132.866574 -387.7555 
L 132.866574 -55.1155 
L 136.989727 -55.1155 
L 136.989727 -387.7555 
L 136.989727 -387.7555 
L 132.866574 -387.7555 
z
"/>
    </defs>
    <g clip-path="url(#pe4a57c3a9d)">
     <use xlink:href="#me43e521b83" x="0" y="398.34866" style="fill: #d95f02; fill-opacity: 0.2"/>
    </g>
   </g>
   <g id="PolyCollection_21">
    <defs>
     <path id="m1143b1dcc9" d="M 136.989727 -387.7555 
L 136.989727 -55.1155 
L 141.112879 -55.1155 
L 141.112879 -387.7555 
L 141.112879 -387.7555 
L 136.989727 -387.7555 
z
"/>
    </defs>
    <g clip-path="url(#pe4a57c3a9d)">
     <use xlink:href="#m1143b1dcc9" x="0" y="398.34866" style="fill: #d95f02; fill-opacity: 0.2"/>
    </g>
   </g>
   <g id="PolyCollection_22">
    <defs>
     <path id="mc589ed9425" d="M 141.112879 -387.7555 
L 141.112879 -55.1155 
L 145.236032 -55.1155 
L 145.236032 -387.7555 
L 145.236032 -387.7555 
L 141.112879 -387.7555 
z
"/>
    </defs>
    <g clip-path="url(#pe4a57c3a9d)">
     <use xlink:href="#mc589ed9425" x="0" y="398.34866" style="fill: #d95f02; fill-opacity: 0.2"/>
    </g>
   </g>
   <g id="PolyCollection_23">
    <defs>
     <path id="m34b6b20529" d="M 145.236032 -387.7555 
L 145.236032 -55.1155 
L 149.359185 -55.1155 
L 149.359185 -387.7555 
L 149.359185 -387.7555 
L 145.236032 -387.7555 
z
"/>
    </defs>
    <g clip-path="url(#pe4a57c3a9d)">
     <use xlink:href="#m34b6b20529" x="0" y="398.34866" style="fill: #d95f02; fill-opacity: 0.2"/>
    </g>
   </g>
   <g id="PolyCollection_24">
    <defs>
     <path id="mc9bf57264e" d="M 149.359185 -387.7555 
L 149.359185 -55.1155 
L 153.482337 -55.1155 
L 153.482337 -387.7555 
L 153.482337 -387.7555 
L 149.359185 -387.7555 
z
"/>
    </defs>
    <g clip-path="url(#pe4a57c3a9d)">
     <use xlink:href="#mc9bf57264e" x="0" y="398.34866" style="fill: #d95f02; fill-opacity: 0.2"/>
    </g>
   </g>
   <g id="PolyCollection_25">
    <defs>
     <path id="m9398146d95" d="M 153.482337 -387.7555 
L 153.482337 -55.1155 
L 157.60549 -55.1155 
L 157.60549 -387.7555 
L 157.60549 -387.7555 
L 153.482337 -387.7555 
z
"/>
    </defs>
    <g clip-path="url(#pe4a57c3a9d)">
     <use xlink:href="#m9398146d95" x="0" y="398.34866" style="fill: #d95f02; fill-opacity: 0.2"/>
    </g>
   </g>
   <g id="PolyCollection_26">
    <defs>
     <path id="m6ab9486802" d="M 157.60549 -387.7555 
L 157.60549 -55.1155 
L 161.728643 -55.1155 
L 161.728643 -387.7555 
L 161.728643 -387.7555 
L 157.60549 -387.7555 
z
"/>
    </defs>
    <g clip-path="url(#pe4a57c3a9d)">
     <use xlink:href="#m6ab9486802" x="0" y="398.34866" style="fill: #d95f02; fill-opacity: 0.2"/>
    </g>
   </g>
   <g id="PolyCollection_27">
    <defs>
     <path id="m74d7e56124" d="M 161.728643 -387.7555 
L 161.728643 -55.1155 
L 165.851796 -55.1155 
L 165.851796 -387.7555 
L 165.851796 -387.7555 
L 161.728643 -387.7555 
z
"/>
    </defs>
    <g clip-path="url(#pe4a57c3a9d)">
     <use xlink:href="#m74d7e56124" x="0" y="398.34866" style="fill: #d95f02; fill-opacity: 0.2"/>
    </g>
   </g>
   <g id="PolyCollection_28">
    <defs>
     <path id="m71d1f43561" d="M 165.851796 -387.7555 
L 165.851796 -55.1155 
L 169.974948 -55.1155 
L 169.974948 -387.7555 
L 169.974948 -387.7555 
L 165.851796 -387.7555 
z
"/>
    </defs>
    <g clip-path="url(#pe4a57c3a9d)">
     <use xlink:href="#m71d1f43561" x="0" y="398.34866" style="fill: #d95f02; fill-opacity: 0.2"/>
    </g>
   </g>
   <g id="PolyCollection_29">
    <defs>
     <path id="m0397a7563f" d="M 169.974948 -387.7555 
L 169.974948 -55.1155 
L 174.098101 -55.1155 
L 174.098101 -387.7555 
L 174.098101 -387.7555 
L 169.974948 -387.7555 
z
"/>
    </defs>
    <g clip-path="url(#pe4a57c3a9d)">
     <use xlink:href="#m0397a7563f" x="0" y="398.34866" style="fill: #1b9e77; fill-opacity: 0.2"/>
    </g>
   </g>
   <g id="PolyCollection_30">
    <defs>
     <path id="mb023288714" d="M 174.098101 -387.7555 
L 174.098101 -55.1155 
L 178.221254 -55.1155 
L 178.221254 -387.7555 
L 178.221254 -387.7555 
L 174.098101 -387.7555 
z
"/>
    </defs>
    <g clip-path="url(#pe4a57c3a9d)">
     <use xlink:href="#mb023288714" x="0" y="398.34866" style="fill: #1b9e77; fill-opacity: 0.2"/>
    </g>
   </g>
   <g id="PolyCollection_31">
    <defs>
     <path id="m18189f8082" d="M 178.221254 -387.7555 
L 178.221254 -55.1155 
L 182.344406 -55.1155 
L 182.344406 -387.7555 
L 182.344406 -387.7555 
L 178.221254 -387.7555 
z
"/>
    </defs>
    <g clip-path="url(#pe4a57c3a9d)">
     <use xlink:href="#m18189f8082" x="0" y="398.34866" style="fill: #1b9e77; fill-opacity: 0.2"/>
    </g>
   </g>
   <g id="PolyCollection_32">
    <defs>
     <path id="m7e9834fe96" d="M 182.344406 -387.7555 
L 182.344406 -55.1155 
L 186.467559 -55.1155 
L 186.467559 -387.7555 
L 186.467559 -387.7555 
L 182.344406 -387.7555 
z
"/>
    </defs>
    <g clip-path="url(#pe4a57c3a9d)">
     <use xlink:href="#m7e9834fe96" x="0" y="398.34866" style="fill: #1b9e77; fill-opacity: 0.2"/>
    </g>
   </g>
   <g id="PolyCollection_33">
    <defs>
     <path id="m8c4b14492d" d="M 186.467559 -387.7555 
L 186.467559 -55.1155 
L 190.590712 -55.1155 
L 190.590712 -387.7555 
L 190.590712 -387.7555 
L 186.467559 -387.7555 
z
"/>
    </defs>
    <g clip-path="url(#pe4a57c3a9d)">
     <use xlink:href="#m8c4b14492d" x="0" y="398.34866" style="fill: #1b9e77; fill-opacity: 0.2"/>
    </g>
   </g>
   <g id="PolyCollection_34">
    <defs>
     <path id="m269aac92db" d="M 190.590712 -387.7555 
L 190.590712 -55.1155 
L 194.713865 -55.1155 
L 194.713865 -387.7555 
L 194.713865 -387.7555 
L 190.590712 -387.7555 
z
"/>
    </defs>
    <g clip-path="url(#pe4a57c3a9d)">
     <use xlink:href="#m269aac92db" x="0" y="398.34866" style="fill: #d95f02; fill-opacity: 0.2"/>
    </g>
   </g>
   <g id="PolyCollection_35">
    <defs>
     <path id="m3da58f4ebb" d="M 194.713865 -387.7555 
L 194.713865 -55.1155 
L 198.837017 -55.1155 
L 198.837017 -387.7555 
L 198.837017 -387.7555 
L 194.713865 -387.7555 
z
"/>
    </defs>
    <g clip-path="url(#pe4a57c3a9d)">
     <use xlink:href="#m3da58f4ebb" x="0" y="398.34866" style="fill: #1b9e77; fill-opacity: 0.2"/>
    </g>
   </g>
   <g id="PolyCollection_36">
    <defs>
     <path id="m8a5f1ba00f" d="M 198.837017 -387.7555 
L 198.837017 -55.1155 
L 202.96017 -55.1155 
L 202.96017 -387.7555 
L 202.96017 -387.7555 
L 198.837017 -387.7555 
z
"/>
    </defs>
    <g clip-path="url(#pe4a57c3a9d)">
     <use xlink:href="#m8a5f1ba00f" x="0" y="398.34866" style="fill: #1b9e77; fill-opacity: 0.2"/>
    </g>
   </g>
   <g id="PolyCollection_37">
    <defs>
     <path id="m83a851dc4a" d="M 202.96017 -387.7555 
L 202.96017 -55.1155 
L 207.083323 -55.1155 
L 207.083323 -387.7555 
L 207.083323 -387.7555 
L 202.96017 -387.7555 
z
"/>
    </defs>
    <g clip-path="url(#pe4a57c3a9d)">
     <use xlink:href="#m83a851dc4a" x="0" y="398.34866" style="fill: #1b9e77; fill-opacity: 0.2"/>
    </g>
   </g>
   <g id="PolyCollection_38">
    <defs>
     <path id="m51efe5f631" d="M 207.083323 -387.7555 
L 207.083323 -55.1155 
L 211.206475 -55.1155 
L 211.206475 -387.7555 
L 211.206475 -387.7555 
L 207.083323 -387.7555 
z
"/>
    </defs>
    <g clip-path="url(#pe4a57c3a9d)">
     <use xlink:href="#m51efe5f631" x="0" y="398.34866" style="fill: #d95f02; fill-opacity: 0.2"/>
    </g>
   </g>
   <g id="PolyCollection_39">
    <defs>
     <path id="m3da98a1c5c" d="M 211.206475 -387.7555 
L 211.206475 -55.1155 
L 215.329628 -55.1155 
L 215.329628 -387.7555 
L 215.329628 -387.7555 
L 211.206475 -387.7555 
z
"/>
    </defs>
    <g clip-path="url(#pe4a57c3a9d)">
     <use xlink:href="#m3da98a1c5c" x="0" y="398.34866" style="fill: #d95f02; fill-opacity: 0.2"/>
    </g>
   </g>
   <g id="PolyCollection_40">
    <defs>
     <path id="mc279586a79" d="M 215.329628 -387.7555 
L 215.329628 -55.1155 
L 219.452781 -55.1155 
L 219.452781 -387.7555 
L 219.452781 -387.7555 
L 215.329628 -387.7555 
z
"/>
    </defs>
    <g clip-path="url(#pe4a57c3a9d)">
     <use xlink:href="#mc279586a79" x="0" y="398.34866" style="fill: #1b9e77; fill-opacity: 0.2"/>
    </g>
   </g>
   <g id="PolyCollection_41">
    <defs>
     <path id="m117e55497f" d="M 219.452781 -387.7555 
L 219.452781 -55.1155 
L 223.575933 -55.1155 
L 223.575933 -387.7555 
L 223.575933 -387.7555 
L 219.452781 -387.7555 
z
"/>
    </defs>
    <g clip-path="url(#pe4a57c3a9d)">
     <use xlink:href="#m117e55497f" x="0" y="398.34866" style="fill: #1b9e77; fill-opacity: 0.2"/>
    </g>
   </g>
   <g id="PolyCollection_42">
    <defs>
     <path id="m6d62c46601" d="M 223.575933 -387.7555 
L 223.575933 -55.1155 
L 227.699086 -55.1155 
L 227.699086 -387.7555 
L 227.699086 -387.7555 
L 223.575933 -387.7555 
z
"/>
    </defs>
    <g clip-path="url(#pe4a57c3a9d)">
     <use xlink:href="#m6d62c46601" x="0" y="398.34866" style="fill: #1b9e77; fill-opacity: 0.2"/>
    </g>
   </g>
   <g id="PolyCollection_43">
    <defs>
     <path id="m3944eb3a72" d="M 227.699086 -387.7555 
L 227.699086 -55.1155 
L 231.822239 -55.1155 
L 231.822239 -387.7555 
L 231.822239 -387.7555 
L 227.699086 -387.7555 
z
"/>
    </defs>
    <g clip-path="url(#pe4a57c3a9d)">
     <use xlink:href="#m3944eb3a72" x="0" y="398.34866" style="fill: #1b9e77; fill-opacity: 0.2"/>
    </g>
   </g>
   <g id="PolyCollection_44">
    <defs>
     <path id="md425879dd5" d="M 231.822239 -387.7555 
L 231.822239 -55.1155 
L 235.945392 -55.1155 
L 235.945392 -387.7555 
L 235.945392 -387.7555 
L 231.822239 -387.7555 
z
"/>
    </defs>
    <g clip-path="url(#pe4a57c3a9d)">
     <use xlink:href="#md425879dd5" x="0" y="398.34866" style="fill: #d95f02; fill-opacity: 0.2"/>
    </g>
   </g>
   <g id="PolyCollection_45">
    <defs>
     <path id="mb2afea186b" d="M 235.945392 -387.7555 
L 235.945392 -55.1155 
L 240.068544 -55.1155 
L 240.068544 -387.7555 
L 240.068544 -387.7555 
L 235.945392 -387.7555 
z
"/>
    </defs>
    <g clip-path="url(#pe4a57c3a9d)">
     <use xlink:href="#mb2afea186b" x="0" y="398.34866" style="fill: #1b9e77; fill-opacity: 0.2"/>
    </g>
   </g>
   <g id="PolyCollection_46">
    <defs>
     <path id="m9f3833af1d" d="M 240.068544 -387.7555 
L 240.068544 -55.1155 
L 244.191697 -55.1155 
L 244.191697 -387.7555 
L 244.191697 -387.7555 
L 240.068544 -387.7555 
z
"/>
    </defs>
    <g clip-path="url(#pe4a57c3a9d)">
     <use xlink:href="#m9f3833af1d" x="0" y="398.34866" style="fill: #1b9e77; fill-opacity: 0.2"/>
    </g>
   </g>
   <g id="PolyCollection_47">
    <defs>
     <path id="md7c3ddbac9" d="M 244.191697 -387.7555 
L 244.191697 -55.1155 
L 248.31485 -55.1155 
L 248.31485 -387.7555 
L 248.31485 -387.7555 
L 244.191697 -387.7555 
z
"/>
    </defs>
    <g clip-path="url(#pe4a57c3a9d)">
     <use xlink:href="#md7c3ddbac9" x="0" y="398.34866" style="fill: #1b9e77; fill-opacity: 0.2"/>
    </g>
   </g>
   <g id="PolyCollection_48">
    <defs>
     <path id="m5f48c07ef2" d="M 248.31485 -387.7555 
L 248.31485 -55.1155 
L 252.438002 -55.1155 
L 252.438002 -387.7555 
L 252.438002 -387.7555 
L 248.31485 -387.7555 
z
"/>
    </defs>
    <g clip-path="url(#pe4a57c3a9d)">
     <use xlink:href="#m5f48c07ef2" x="0" y="398.34866" style="fill: #1b9e77; fill-opacity: 0.2"/>
    </g>
   </g>
   <g id="PolyCollection_49">
    <defs>
     <path id="m3193fa3113" d="M 252.438002 -387.7555 
L 252.438002 -55.1155 
L 256.561155 -55.1155 
L 256.561155 -387.7555 
L 256.561155 -387.7555 
L 252.438002 -387.7555 
z
"/>
    </defs>
    <g clip-path="url(#pe4a57c3a9d)">
     <use xlink:href="#m3193fa3113" x="0" y="398.34866" style="fill: #1b9e77; fill-opacity: 0.2"/>
    </g>
   </g>
   <g id="PolyCollection_50">
    <defs>
     <path id="mc17dc7c3e2" d="M 256.561155 -387.7555 
L 256.561155 -55.1155 
L 260.684308 -55.1155 
L 260.684308 -387.7555 
L 260.684308 -387.7555 
L 256.561155 -387.7555 
z
"/>
    </defs>
    <g clip-path="url(#pe4a57c3a9d)">
     <use xlink:href="#mc17dc7c3e2" x="0" y="398.34866" style="fill: #1b9e77; fill-opacity: 0.2"/>
    </g>
   </g>
   <g id="PolyCollection_51">
    <defs>
     <path id="m78dbc5d4ba" d="M 260.684308 -387.7555 
L 260.684308 -55.1155 
L 264.807461 -55.1155 
L 264.807461 -387.7555 
L 264.807461 -387.7555 
L 260.684308 -387.7555 
z
"/>
    </defs>
    <g clip-path="url(#pe4a57c3a9d)">
     <use xlink:href="#m78dbc5d4ba" x="0" y="398.34866" style="fill: #d95f02; fill-opacity: 0.2"/>
    </g>
   </g>
   <g id="PolyCollection_52">
    <defs>
     <path id="m824b597cbd" d="M 264.807461 -387.7555 
L 264.807461 -55.1155 
L 268.930613 -55.1155 
L 268.930613 -387.7555 
L 268.930613 -387.7555 
L 264.807461 -387.7555 
z
"/>
    </defs>
    <g clip-path="url(#pe4a57c3a9d)">
     <use xlink:href="#m824b597cbd" x="0" y="398.34866" style="fill: #d95f02; fill-opacity: 0.2"/>
    </g>
   </g>
   <g id="PolyCollection_53">
    <defs>
     <path id="m70d96ae426" d="M 268.930613 -387.7555 
L 268.930613 -55.1155 
L 273.053766 -55.1155 
L 273.053766 -387.7555 
L 273.053766 -387.7555 
L 268.930613 -387.7555 
z
"/>
    </defs>
    <g clip-path="url(#pe4a57c3a9d)">
     <use xlink:href="#m70d96ae426" x="0" y="398.34866" style="fill: #1b9e77; fill-opacity: 0.2"/>
    </g>
   </g>
   <g id="PolyCollection_54">
    <defs>
     <path id="m23ae6ae675" d="M 273.053766 -387.7555 
L 273.053766 -55.1155 
L 277.176919 -55.1155 
L 277.176919 -387.7555 
L 277.176919 -387.7555 
L 273.053766 -387.7555 
z
"/>
    </defs>
    <g clip-path="url(#pe4a57c3a9d)">
     <use xlink:href="#m23ae6ae675" x="0" y="398.34866" style="fill: #1b9e77; fill-opacity: 0.2"/>
    </g>
   </g>
   <g id="PolyCollection_55">
    <defs>
     <path id="m87ac963c9b" d="M 277.176919 -387.7555 
L 277.176919 -55.1155 
L 281.300071 -55.1155 
L 281.300071 -387.7555 
L 281.300071 -387.7555 
L 277.176919 -387.7555 
z
"/>
    </defs>
    <g clip-path="url(#pe4a57c3a9d)">
     <use xlink:href="#m87ac963c9b" x="0" y="398.34866" style="fill: #d95f02; fill-opacity: 0.2"/>
    </g>
   </g>
   <g id="PolyCollection_56">
    <defs>
     <path id="mf1379e2535" d="M 281.300071 -387.7555 
L 281.300071 -55.1155 
L 285.423224 -55.1155 
L 285.423224 -387.7555 
L 285.423224 -387.7555 
L 281.300071 -387.7555 
z
"/>
    </defs>
    <g clip-path="url(#pe4a57c3a9d)">
     <use xlink:href="#mf1379e2535" x="0" y="398.34866" style="fill: #d95f02; fill-opacity: 0.2"/>
    </g>
   </g>
   <g id="PolyCollection_57">
    <defs>
     <path id="m6a50034da4" d="M 285.423224 -387.7555 
L 285.423224 -55.1155 
L 289.546377 -55.1155 
L 289.546377 -387.7555 
L 289.546377 -387.7555 
L 285.423224 -387.7555 
z
"/>
    </defs>
    <g clip-path="url(#pe4a57c3a9d)">
     <use xlink:href="#m6a50034da4" x="0" y="398.34866" style="fill: #d95f02; fill-opacity: 0.2"/>
    </g>
   </g>
   <g id="PolyCollection_58">
    <defs>
     <path id="md7d9df1906" d="M 289.546377 -387.7555 
L 289.546377 -55.1155 
L 293.66953 -55.1155 
L 293.66953 -387.7555 
L 293.66953 -387.7555 
L 289.546377 -387.7555 
z
"/>
    </defs>
    <g clip-path="url(#pe4a57c3a9d)">
     <use xlink:href="#md7d9df1906" x="0" y="398.34866" style="fill: #d95f02; fill-opacity: 0.2"/>
    </g>
   </g>
   <g id="PolyCollection_59">
    <defs>
     <path id="m1cf3d0c394" d="M 293.66953 -387.7555 
L 293.66953 -55.1155 
L 297.792682 -55.1155 
L 297.792682 -387.7555 
L 297.792682 -387.7555 
L 293.66953 -387.7555 
z
"/>
    </defs>
    <g clip-path="url(#pe4a57c3a9d)">
     <use xlink:href="#m1cf3d0c394" x="0" y="398.34866" style="fill: #1b9e77; fill-opacity: 0.2"/>
    </g>
   </g>
   <g id="PolyCollection_60">
    <defs>
     <path id="mc49db78ff7" d="M 297.792682 -387.7555 
L 297.792682 -55.1155 
L 301.915835 -55.1155 
L 301.915835 -387.7555 
L 301.915835 -387.7555 
L 297.792682 -387.7555 
z
"/>
    </defs>
    <g clip-path="url(#pe4a57c3a9d)">
     <use xlink:href="#mc49db78ff7" x="0" y="398.34866" style="fill: #d95f02; fill-opacity: 0.2"/>
    </g>
   </g>
   <g id="PolyCollection_61">
    <defs>
     <path id="mdc17ddf981" d="M 301.915835 -387.7555 
L 301.915835 -55.1155 
L 306.038988 -55.1155 
L 306.038988 -387.7555 
L 306.038988 -387.7555 
L 301.915835 -387.7555 
z
"/>
    </defs>
    <g clip-path="url(#pe4a57c3a9d)">
     <use xlink:href="#mdc17ddf981" x="0" y="398.34866" style="fill: #1b9e77; fill-opacity: 0.2"/>
    </g>
   </g>
   <g id="PolyCollection_62">
    <defs>
     <path id="m2e30b64b4d" d="M 306.038988 -387.7555 
L 306.038988 -55.1155 
L 310.16214 -55.1155 
L 310.16214 -387.7555 
L 310.16214 -387.7555 
L 306.038988 -387.7555 
z
"/>
    </defs>
    <g clip-path="url(#pe4a57c3a9d)">
     <use xlink:href="#m2e30b64b4d" x="0" y="398.34866" style="fill: #d95f02; fill-opacity: 0.2"/>
    </g>
   </g>
   <g id="PolyCollection_63">
    <defs>
     <path id="mdcad351398" d="M 310.16214 -387.7555 
L 310.16214 -55.1155 
L 314.285293 -55.1155 
L 314.285293 -387.7555 
L 314.285293 -387.7555 
L 310.16214 -387.7555 
z
"/>
    </defs>
    <g clip-path="url(#pe4a57c3a9d)">
     <use xlink:href="#mdcad351398" x="0" y="398.34866" style="fill: #d95f02; fill-opacity: 0.2"/>
    </g>
   </g>
   <g id="PolyCollection_64">
    <defs>
     <path id="m4a9e58801e" d="M 314.285293 -387.7555 
L 314.285293 -55.1155 
L 318.408446 -55.1155 
L 318.408446 -387.7555 
L 318.408446 -387.7555 
L 314.285293 -387.7555 
z
"/>
    </defs>
    <g clip-path="url(#pe4a57c3a9d)">
     <use xlink:href="#m4a9e58801e" x="0" y="398.34866" style="fill: #d95f02; fill-opacity: 0.2"/>
    </g>
   </g>
   <g id="PolyCollection_65">
    <defs>
     <path id="m7c8a522b07" d="M 318.408446 -387.7555 
L 318.408446 -55.1155 
L 322.531599 -55.1155 
L 322.531599 -387.7555 
L 322.531599 -387.7555 
L 318.408446 -387.7555 
z
"/>
    </defs>
    <g clip-path="url(#pe4a57c3a9d)">
     <use xlink:href="#m7c8a522b07" x="0" y="398.34866" style="fill: #d95f02; fill-opacity: 0.2"/>
    </g>
   </g>
   <g id="PolyCollection_66">
    <defs>
     <path id="m2bf44da96b" d="M 322.531599 -387.7555 
L 322.531599 -55.1155 
L 326.654751 -55.1155 
L 326.654751 -387.7555 
L 326.654751 -387.7555 
L 322.531599 -387.7555 
z
"/>
    </defs>
    <g clip-path="url(#pe4a57c3a9d)">
     <use xlink:href="#m2bf44da96b" x="0" y="398.34866" style="fill: #1b9e77; fill-opacity: 0.2"/>
    </g>
   </g>
   <g id="PolyCollection_67">
    <defs>
     <path id="me68985a970" d="M 326.654751 -387.7555 
L 326.654751 -55.1155 
L 330.777904 -55.1155 
L 330.777904 -387.7555 
L 330.777904 -387.7555 
L 326.654751 -387.7555 
z
"/>
    </defs>
    <g clip-path="url(#pe4a57c3a9d)">
     <use xlink:href="#me68985a970" x="0" y="398.34866" style="fill: #d95f02; fill-opacity: 0.2"/>
    </g>
   </g>
   <g id="PolyCollection_68">
    <defs>
     <path id="ma62f80829b" d="M 330.777904 -387.7555 
L 330.777904 -55.1155 
L 334.901057 -55.1155 
L 334.901057 -387.7555 
L 334.901057 -387.7555 
L 330.777904 -387.7555 
z
"/>
    </defs>
    <g clip-path="url(#pe4a57c3a9d)">
     <use xlink:href="#ma62f80829b" x="0" y="398.34866" style="fill: #1b9e77; fill-opacity: 0.2"/>
    </g>
   </g>
   <g id="PolyCollection_69">
    <defs>
     <path id="m79ecbca70a" d="M 334.901057 -387.7555 
L 334.901057 -55.1155 
L 339.024209 -55.1155 
L 339.024209 -387.7555 
L 339.024209 -387.7555 
L 334.901057 -387.7555 
z
"/>
    </defs>
    <g clip-path="url(#pe4a57c3a9d)">
     <use xlink:href="#m79ecbca70a" x="0" y="398.34866" style="fill: #d95f02; fill-opacity: 0.2"/>
    </g>
   </g>
   <g id="PolyCollection_70">
    <defs>
     <path id="m07b4090330" d="M 339.024209 -387.7555 
L 339.024209 -55.1155 
L 343.147362 -55.1155 
L 343.147362 -387.7555 
L 343.147362 -387.7555 
L 339.024209 -387.7555 
z
"/>
    </defs>
    <g clip-path="url(#pe4a57c3a9d)">
     <use xlink:href="#m07b4090330" x="0" y="398.34866" style="fill: #d95f02; fill-opacity: 0.2"/>
    </g>
   </g>
   <g id="PolyCollection_71">
    <defs>
     <path id="mdaaf2d27c1" d="M 343.147362 -387.7555 
L 343.147362 -55.1155 
L 347.270515 -55.1155 
L 347.270515 -387.7555 
L 347.270515 -387.7555 
L 343.147362 -387.7555 
z
"/>
    </defs>
    <g clip-path="url(#pe4a57c3a9d)">
     <use xlink:href="#mdaaf2d27c1" x="0" y="398.34866" style="fill: #1b9e77; fill-opacity: 0.2"/>
    </g>
   </g>
   <g id="PolyCollection_72">
    <defs>
     <path id="m71de0f24a6" d="M 347.270515 -387.7555 
L 347.270515 -55.1155 
L 351.393667 -55.1155 
L 351.393667 -387.7555 
L 351.393667 -387.7555 
L 347.270515 -387.7555 
z
"/>
    </defs>
    <g clip-path="url(#pe4a57c3a9d)">
     <use xlink:href="#m71de0f24a6" x="0" y="398.34866" style="fill: #1b9e77; fill-opacity: 0.2"/>
    </g>
   </g>
   <g id="PolyCollection_73">
    <defs>
     <path id="mf542efa9b5" d="M 351.393667 -387.7555 
L 351.393667 -55.1155 
L 355.51682 -55.1155 
L 355.51682 -387.7555 
L 355.51682 -387.7555 
L 351.393667 -387.7555 
z
"/>
    </defs>
    <g clip-path="url(#pe4a57c3a9d)">
     <use xlink:href="#mf542efa9b5" x="0" y="398.34866" style="fill: #1b9e77; fill-opacity: 0.2"/>
    </g>
   </g>
   <g id="PolyCollection_74">
    <defs>
     <path id="mbefff6ae0d" d="M 355.51682 -387.7555 
L 355.51682 -55.1155 
L 359.639973 -55.1155 
L 359.639973 -387.7555 
L 359.639973 -387.7555 
L 355.51682 -387.7555 
z
"/>
    </defs>
    <g clip-path="url(#pe4a57c3a9d)">
     <use xlink:href="#mbefff6ae0d" x="0" y="398.34866" style="fill: #d95f02; fill-opacity: 0.2"/>
    </g>
   </g>
   <g id="PolyCollection_75">
    <defs>
     <path id="m3b661a74f4" d="M 359.639973 -387.7555 
L 359.639973 -55.1155 
L 363.763126 -55.1155 
L 363.763126 -387.7555 
L 363.763126 -387.7555 
L 359.639973 -387.7555 
z
"/>
    </defs>
    <g clip-path="url(#pe4a57c3a9d)">
     <use xlink:href="#m3b661a74f4" x="0" y="398.34866" style="fill: #d95f02; fill-opacity: 0.2"/>
    </g>
   </g>
   <g id="PolyCollection_76">
    <defs>
     <path id="mb901b8e3d9" d="M 363.763126 -387.7555 
L 363.763126 -55.1155 
L 367.886278 -55.1155 
L 367.886278 -387.7555 
L 367.886278 -387.7555 
L 363.763126 -387.7555 
z
"/>
    </defs>
    <g clip-path="url(#pe4a57c3a9d)">
     <use xlink:href="#mb901b8e3d9" x="0" y="398.34866" style="fill: #1b9e77; fill-opacity: 0.2"/>
    </g>
   </g>
   <g id="PolyCollection_77">
    <defs>
     <path id="m59580d8442" d="M 367.886278 -387.7555 
L 367.886278 -55.1155 
L 372.009431 -55.1155 
L 372.009431 -387.7555 
L 372.009431 -387.7555 
L 367.886278 -387.7555 
z
"/>
    </defs>
    <g clip-path="url(#pe4a57c3a9d)">
     <use xlink:href="#m59580d8442" x="0" y="398.34866" style="fill: #d95f02; fill-opacity: 0.2"/>
    </g>
   </g>
   <g id="PolyCollection_78">
    <defs>
     <path id="m33839acac0" d="M 372.009431 -387.7555 
L 372.009431 -55.1155 
L 376.132584 -55.1155 
L 376.132584 -387.7555 
L 376.132584 -387.7555 
L 372.009431 -387.7555 
z
"/>
    </defs>
    <g clip-path="url(#pe4a57c3a9d)">
     <use xlink:href="#m33839acac0" x="0" y="398.34866" style="fill: #d95f02; fill-opacity: 0.2"/>
    </g>
   </g>
   <g id="PolyCollection_79">
    <defs>
     <path id="mb85af4a87c" d="M 376.132584 -387.7555 
L 376.132584 -55.1155 
L 380.255736 -55.1155 
L 380.255736 -387.7555 
L 380.255736 -387.7555 
L 376.132584 -387.7555 
z
"/>
    </defs>
    <g clip-path="url(#pe4a57c3a9d)">
     <use xlink:href="#mb85af4a87c" x="0" y="398.34866" style="fill: #d95f02; fill-opacity: 0.2"/>
    </g>
   </g>
   <g id="PolyCollection_80">
    <defs>
     <path id="md67fb82de4" d="M 380.255736 -387.7555 
L 380.255736 -55.1155 
L 384.378889 -55.1155 
L 384.378889 -387.7555 
L 384.378889 -387.7555 
L 380.255736 -387.7555 
z
"/>
    </defs>
    <g clip-path="url(#pe4a57c3a9d)">
     <use xlink:href="#md67fb82de4" x="0" y="398.34866" style="fill: #d95f02; fill-opacity: 0.2"/>
    </g>
   </g>
   <g id="PolyCollection_81">
    <defs>
     <path id="mbccc14021f" d="M 384.378889 -387.7555 
L 384.378889 -55.1155 
L 388.502042 -55.1155 
L 388.502042 -387.7555 
L 388.502042 -387.7555 
L 384.378889 -387.7555 
z
"/>
    </defs>
    <g clip-path="url(#pe4a57c3a9d)">
     <use xlink:href="#mbccc14021f" x="0" y="398.34866" style="fill: #d95f02; fill-opacity: 0.2"/>
    </g>
   </g>
   <g id="PolyCollection_82">
    <defs>
     <path id="mfbecc352cd" d="M 388.502042 -387.7555 
L 388.502042 -55.1155 
L 392.625195 -55.1155 
L 392.625195 -387.7555 
L 392.625195 -387.7555 
L 388.502042 -387.7555 
z
"/>
    </defs>
    <g clip-path="url(#pe4a57c3a9d)">
     <use xlink:href="#mfbecc352cd" x="0" y="398.34866" style="fill: #d95f02; fill-opacity: 0.2"/>
    </g>
   </g>
   <g id="PolyCollection_83">
    <defs>
     <path id="mbd98cd53dd" d="M 392.625195 -387.7555 
L 392.625195 -55.1155 
L 396.748347 -55.1155 
L 396.748347 -387.7555 
L 396.748347 -387.7555 
L 392.625195 -387.7555 
z
"/>
    </defs>
    <g clip-path="url(#pe4a57c3a9d)">
     <use xlink:href="#mbd98cd53dd" x="0" y="398.34866" style="fill: #d95f02; fill-opacity: 0.2"/>
    </g>
   </g>
   <g id="PolyCollection_84">
    <defs>
     <path id="m709c1c8dee" d="M 396.748347 -387.7555 
L 396.748347 -55.1155 
L 400.8715 -55.1155 
L 400.8715 -387.7555 
L 400.8715 -387.7555 
L 396.748347 -387.7555 
z
"/>
    </defs>
    <g clip-path="url(#pe4a57c3a9d)">
     <use xlink:href="#m709c1c8dee" x="0" y="398.34866" style="fill: #1b9e77; fill-opacity: 0.2"/>
    </g>
   </g>
   <g id="matplotlib.axis_1">
    <g id="xtick_1">
     <g id="line2d_1">
      <defs>
       <path id="md427a8a6dc" d="M 0 0 
L 0 4.8 
" style="stroke: #000000"/>
      </defs>
      <g>
       <use xlink:href="#md427a8a6dc" x="66.896131" y="343.23316" style="stroke: #000000"/>
      </g>
     </g>
     <g id="text_1">
      <!-- 0 -->
      <g transform="translate(61.297131 364.90641) scale(0.176 -0.176)">
       <defs>
        <path id="DejaVuSans-30" d="M 2034 4250 
Q 1547 4250 1301 3770 
Q 1056 3291 1056 2328 
Q 1056 1369 1301 889 
Q 1547 409 2034 409 
Q 2525 409 2770 889 
Q 3016 1369 3016 2328 
Q 3016 3291 2770 3770 
Q 2525 4250 2034 4250 
z
M 2034 4750 
Q 2819 4750 3233 4129 
Q 3647 3509 3647 2328 
Q 3647 1150 3233 529 
Q 2819 -91 2034 -91 
Q 1250 -91 836 529 
Q 422 1150 422 2328 
Q 422 3509 836 4129 
Q 1250 4750 2034 4750 
z
" transform="scale(0.015625)"/>
       </defs>
       <use xlink:href="#DejaVuSans-30"/>
      </g>
     </g>
    </g>
    <g id="xtick_2">
     <g id="line2d_2">
      <g>
       <use xlink:href="#md427a8a6dc" x="149.359185" y="343.23316" style="stroke: #000000"/>
      </g>
     </g>
     <g id="text_2">
      <!-- 20 -->
      <g transform="translate(138.161185 364.90641) scale(0.176 -0.176)">
       <defs>
        <path id="DejaVuSans-32" d="M 1228 531 
L 3431 531 
L 3431 0 
L 469 0 
L 469 531 
Q 828 903 1448 1529 
Q 2069 2156 2228 2338 
Q 2531 2678 2651 2914 
Q 2772 3150 2772 3378 
Q 2772 3750 2511 3984 
Q 2250 4219 1831 4219 
Q 1534 4219 1204 4116 
Q 875 4013 500 3803 
L 500 4441 
Q 881 4594 1212 4672 
Q 1544 4750 1819 4750 
Q 2544 4750 2975 4387 
Q 3406 4025 3406 3419 
Q 3406 3131 3298 2873 
Q 3191 2616 2906 2266 
Q 2828 2175 2409 1742 
Q 1991 1309 1228 531 
z
" transform="scale(0.015625)"/>
       </defs>
       <use xlink:href="#DejaVuSans-32"/>
       <use xlink:href="#DejaVuSans-30" x="63.623047"/>
      </g>
     </g>
    </g>
    <g id="xtick_3">
     <g id="line2d_3">
      <g>
       <use xlink:href="#md427a8a6dc" x="231.822239" y="343.23316" style="stroke: #000000"/>
      </g>
     </g>
     <g id="text_3">
      <!-- 40 -->
      <g transform="translate(220.624239 364.90641) scale(0.176 -0.176)">
       <defs>
        <path id="DejaVuSans-34" d="M 2419 4116 
L 825 1625 
L 2419 1625 
L 2419 4116 
z
M 2253 4666 
L 3047 4666 
L 3047 1625 
L 3713 1625 
L 3713 1100 
L 3047 1100 
L 3047 0 
L 2419 0 
L 2419 1100 
L 313 1100 
L 313 1709 
L 2253 4666 
z
" transform="scale(0.015625)"/>
       </defs>
       <use xlink:href="#DejaVuSans-34"/>
       <use xlink:href="#DejaVuSans-30" x="63.623047"/>
      </g>
     </g>
    </g>
    <g id="xtick_4">
     <g id="line2d_4">
      <g>
       <use xlink:href="#md427a8a6dc" x="314.285293" y="343.23316" style="stroke: #000000"/>
      </g>
     </g>
     <g id="text_4">
      <!-- 60 -->
      <g transform="translate(303.087293 364.90641) scale(0.176 -0.176)">
       <defs>
        <path id="DejaVuSans-36" d="M 2113 2584 
Q 1688 2584 1439 2293 
Q 1191 2003 1191 1497 
Q 1191 994 1439 701 
Q 1688 409 2113 409 
Q 2538 409 2786 701 
Q 3034 994 3034 1497 
Q 3034 2003 2786 2293 
Q 2538 2584 2113 2584 
z
M 3366 4563 
L 3366 3988 
Q 3128 4100 2886 4159 
Q 2644 4219 2406 4219 
Q 1781 4219 1451 3797 
Q 1122 3375 1075 2522 
Q 1259 2794 1537 2939 
Q 1816 3084 2150 3084 
Q 2853 3084 3261 2657 
Q 3669 2231 3669 1497 
Q 3669 778 3244 343 
Q 2819 -91 2113 -91 
Q 1303 -91 875 529 
Q 447 1150 447 2328 
Q 447 3434 972 4092 
Q 1497 4750 2381 4750 
Q 2619 4750 2861 4703 
Q 3103 4656 3366 4563 
z
" transform="scale(0.015625)"/>
       </defs>
       <use xlink:href="#DejaVuSans-36"/>
       <use xlink:href="#DejaVuSans-30" x="63.623047"/>
      </g>
     </g>
    </g>
    <g id="xtick_5">
     <g id="line2d_5">
      <g>
       <use xlink:href="#md427a8a6dc" x="396.748347" y="343.23316" style="stroke: #000000"/>
      </g>
     </g>
     <g id="text_5">
      <!-- 80 -->
      <g transform="translate(385.550347 364.90641) scale(0.176 -0.176)">
       <defs>
        <path id="DejaVuSans-38" d="M 2034 2216 
Q 1584 2216 1326 1975 
Q 1069 1734 1069 1313 
Q 1069 891 1326 650 
Q 1584 409 2034 409 
Q 2484 409 2743 651 
Q 3003 894 3003 1313 
Q 3003 1734 2745 1975 
Q 2488 2216 2034 2216 
z
M 1403 2484 
Q 997 2584 770 2862 
Q 544 3141 544 3541 
Q 544 4100 942 4425 
Q 1341 4750 2034 4750 
Q 2731 4750 3128 4425 
Q 3525 4100 3525 3541 
Q 3525 3141 3298 2862 
Q 3072 2584 2669 2484 
Q 3125 2378 3379 2068 
Q 3634 1759 3634 1313 
Q 3634 634 3220 271 
Q 2806 -91 2034 -91 
Q 1263 -91 848 271 
Q 434 634 434 1313 
Q 434 1759 690 2068 
Q 947 2378 1403 2484 
z
M 1172 3481 
Q 1172 3119 1398 2916 
Q 1625 2713 2034 2713 
Q 2441 2713 2670 2916 
Q 2900 3119 2900 3481 
Q 2900 3844 2670 4047 
Q 2441 4250 2034 4250 
Q 1625 4250 1398 4047 
Q 1172 3844 1172 3481 
z
" transform="scale(0.015625)"/>
       </defs>
       <use xlink:href="#DejaVuSans-38"/>
       <use xlink:href="#DejaVuSans-30" x="63.623047"/>
      </g>
     </g>
    </g>
    <g id="text_6">
     <!-- State -->
     <g transform="translate(208.06 387.15566) scale(0.192 -0.192)">
      <defs>
       <path id="DejaVuSans-53" d="M 3425 4513 
L 3425 3897 
Q 3066 4069 2747 4153 
Q 2428 4238 2131 4238 
Q 1616 4238 1336 4038 
Q 1056 3838 1056 3469 
Q 1056 3159 1242 3001 
Q 1428 2844 1947 2747 
L 2328 2669 
Q 3034 2534 3370 2195 
Q 3706 1856 3706 1288 
Q 3706 609 3251 259 
Q 2797 -91 1919 -91 
Q 1588 -91 1214 -16 
Q 841 59 441 206 
L 441 856 
Q 825 641 1194 531 
Q 1563 422 1919 422 
Q 2459 422 2753 634 
Q 3047 847 3047 1241 
Q 3047 1584 2836 1778 
Q 2625 1972 2144 2069 
L 1759 2144 
Q 1053 2284 737 2584 
Q 422 2884 422 3419 
Q 422 4038 858 4394 
Q 1294 4750 2059 4750 
Q 2388 4750 2728 4690 
Q 3069 4631 3425 4513 
z
" transform="scale(0.015625)"/>
       <path id="DejaVuSans-74" d="M 1172 4494 
L 1172 3500 
L 2356 3500 
L 2356 3053 
L 1172 3053 
L 1172 1153 
Q 1172 725 1289 603 
Q 1406 481 1766 481 
L 2356 481 
L 2356 0 
L 1766 0 
Q 1100 0 847 248 
Q 594 497 594 1153 
L 594 3053 
L 172 3053 
L 172 3500 
L 594 3500 
L 594 4494 
L 1172 4494 
z
" transform="scale(0.015625)"/>
       <path id="DejaVuSans-61" d="M 2194 1759 
Q 1497 1759 1228 1600 
Q 959 1441 959 1056 
Q 959 750 1161 570 
Q 1363 391 1709 391 
Q 2188 391 2477 730 
Q 2766 1069 2766 1631 
L 2766 1759 
L 2194 1759 
z
M 3341 1997 
L 3341 0 
L 2766 0 
L 2766 531 
Q 2569 213 2275 61 
Q 1981 -91 1556 -91 
Q 1019 -91 701 211 
Q 384 513 384 1019 
Q 384 1609 779 1909 
Q 1175 2209 1959 2209 
L 2766 2209 
L 2766 2266 
Q 2766 2663 2505 2880 
Q 2244 3097 1772 3097 
Q 1472 3097 1187 3025 
Q 903 2953 641 2809 
L 641 3341 
Q 956 3463 1253 3523 
Q 1550 3584 1831 3584 
Q 2591 3584 2966 3190 
Q 3341 2797 3341 1997 
z
" transform="scale(0.015625)"/>
       <path id="DejaVuSans-65" d="M 3597 1894 
L 3597 1613 
L 953 1613 
Q 991 1019 1311 708 
Q 1631 397 2203 397 
Q 2534 397 2845 478 
Q 3156 559 3463 722 
L 3463 178 
Q 3153 47 2828 -22 
Q 2503 -91 2169 -91 
Q 1331 -91 842 396 
Q 353 884 353 1716 
Q 353 2575 817 3079 
Q 1281 3584 2069 3584 
Q 2775 3584 3186 3129 
Q 3597 2675 3597 1894 
z
M 3022 2063 
Q 3016 2534 2758 2815 
Q 2500 3097 2075 3097 
Q 1594 3097 1305 2825 
Q 1016 2553 972 2059 
L 3022 2063 
z
" transform="scale(0.015625)"/>
      </defs>
      <use xlink:href="#DejaVuSans-53"/>
      <use xlink:href="#DejaVuSans-74" x="63.476562"/>
      <use xlink:href="#DejaVuSans-61" x="102.685547"/>
      <use xlink:href="#DejaVuSans-74" x="163.964844"/>
      <use xlink:href="#DejaVuSans-65" x="203.173828"/>
     </g>
    </g>
   </g>
   <g id="matplotlib.axis_2">
    <g id="ytick_1">
     <g id="line2d_6">
      <defs>
       <path id="m107b77718c" d="M 0 0 
L -4.8 0 
" style="stroke: #000000"/>
      </defs>
      <g>
       <use xlink:href="#m107b77718c" x="66.0715" y="343.23316" style="stroke: #000000"/>
      </g>
     </g>
     <g id="text_7">
      <!-- 0.0 -->
      <g transform="translate(29.782 349.919785) scale(0.176 -0.176)">
       <defs>
        <path id="DejaVuSans-2e" d="M 684 794 
L 1344 794 
L 1344 0 
L 684 0 
L 684 794 
z
" transform="scale(0.015625)"/>
       </defs>
       <use xlink:href="#DejaVuSans-30"/>
       <use xlink:href="#DejaVuSans-2e" x="63.623047"/>
       <use xlink:href="#DejaVuSans-30" x="95.410156"/>
      </g>
     </g>
    </g>
    <g id="ytick_2">
     <g id="line2d_7">
      <g>
       <use xlink:href="#m107b77718c" x="66.0715" y="277.363853" style="stroke: #000000"/>
      </g>
     </g>
     <g id="text_8">
      <!-- 0.2 -->
      <g transform="translate(29.782 284.050478) scale(0.176 -0.176)">
       <use xlink:href="#DejaVuSans-30"/>
       <use xlink:href="#DejaVuSans-2e" x="63.623047"/>
       <use xlink:href="#DejaVuSans-32" x="95.410156"/>
      </g>
     </g>
    </g>
    <g id="ytick_3">
     <g id="line2d_8">
      <g>
       <use xlink:href="#m107b77718c" x="66.0715" y="211.494546" style="stroke: #000000"/>
      </g>
     </g>
     <g id="text_9">
      <!-- 0.4 -->
      <g transform="translate(29.782 218.181171) scale(0.176 -0.176)">
       <use xlink:href="#DejaVuSans-30"/>
       <use xlink:href="#DejaVuSans-2e" x="63.623047"/>
       <use xlink:href="#DejaVuSans-34" x="95.410156"/>
      </g>
     </g>
    </g>
    <g id="ytick_4">
     <g id="line2d_9">
      <g>
       <use xlink:href="#m107b77718c" x="66.0715" y="145.625239" style="stroke: #000000"/>
      </g>
     </g>
     <g id="text_10">
      <!-- 0.6 -->
      <g transform="translate(29.782 152.311864) scale(0.176 -0.176)">
       <use xlink:href="#DejaVuSans-30"/>
       <use xlink:href="#DejaVuSans-2e" x="63.623047"/>
       <use xlink:href="#DejaVuSans-36" x="95.410156"/>
      </g>
     </g>
    </g>
    <g id="ytick_5">
     <g id="line2d_10">
      <g>
       <use xlink:href="#m107b77718c" x="66.0715" y="79.755932" style="stroke: #000000"/>
      </g>
     </g>
     <g id="text_11">
      <!-- 0.8 -->
      <g transform="translate(29.782 86.442557) scale(0.176 -0.176)">
       <use xlink:href="#DejaVuSans-30"/>
       <use xlink:href="#DejaVuSans-2e" x="63.623047"/>
       <use xlink:href="#DejaVuSans-38" x="95.410156"/>
      </g>
     </g>
    </g>
    <g id="ytick_6">
     <g id="line2d_11">
      <g>
       <use xlink:href="#m107b77718c" x="66.0715" y="13.886625" style="stroke: #000000"/>
      </g>
     </g>
     <g id="text_12">
      <!-- 1.0 -->
      <g transform="translate(29.782 20.57325) scale(0.176 -0.176)">
       <defs>
        <path id="DejaVuSans-31" d="M 794 531 
L 1825 531 
L 1825 4091 
L 703 3866 
L 703 4441 
L 1819 4666 
L 2450 4666 
L 2450 531 
L 3481 531 
L 3481 0 
L 794 0 
L 794 531 
z
" transform="scale(0.015625)"/>
       </defs>
       <use xlink:href="#DejaVuSans-31"/>
       <use xlink:href="#DejaVuSans-2e" x="63.623047"/>
       <use xlink:href="#DejaVuSans-30" x="95.410156"/>
      </g>
     </g>
    </g>
    <g id="text_13">
     <!-- Score -->
     <g transform="translate(21.789 203.79766) rotate(-90) scale(0.192 -0.192)">
      <defs>
       <path id="DejaVuSans-63" d="M 3122 3366 
L 3122 2828 
Q 2878 2963 2633 3030 
Q 2388 3097 2138 3097 
Q 1578 3097 1268 2742 
Q 959 2388 959 1747 
Q 959 1106 1268 751 
Q 1578 397 2138 397 
Q 2388 397 2633 464 
Q 2878 531 3122 666 
L 3122 134 
Q 2881 22 2623 -34 
Q 2366 -91 2075 -91 
Q 1284 -91 818 406 
Q 353 903 353 1747 
Q 353 2603 823 3093 
Q 1294 3584 2113 3584 
Q 2378 3584 2631 3529 
Q 2884 3475 3122 3366 
z
" transform="scale(0.015625)"/>
       <path id="DejaVuSans-6f" d="M 1959 3097 
Q 1497 3097 1228 2736 
Q 959 2375 959 1747 
Q 959 1119 1226 758 
Q 1494 397 1959 397 
Q 2419 397 2687 759 
Q 2956 1122 2956 1747 
Q 2956 2369 2687 2733 
Q 2419 3097 1959 3097 
z
M 1959 3584 
Q 2709 3584 3137 3096 
Q 3566 2609 3566 1747 
Q 3566 888 3137 398 
Q 2709 -91 1959 -91 
Q 1206 -91 779 398 
Q 353 888 353 1747 
Q 353 2609 779 3096 
Q 1206 3584 1959 3584 
z
" transform="scale(0.015625)"/>
       <path id="DejaVuSans-72" d="M 2631 2963 
Q 2534 3019 2420 3045 
Q 2306 3072 2169 3072 
Q 1681 3072 1420 2755 
Q 1159 2438 1159 1844 
L 1159 0 
L 581 0 
L 581 3500 
L 1159 3500 
L 1159 2956 
Q 1341 3275 1631 3429 
Q 1922 3584 2338 3584 
Q 2397 3584 2469 3576 
Q 2541 3569 2628 3553 
L 2631 2963 
z
" transform="scale(0.015625)"/>
      </defs>
      <use xlink:href="#DejaVuSans-53"/>
      <use xlink:href="#DejaVuSans-63" x="63.476562"/>
      <use xlink:href="#DejaVuSans-6f" x="118.457031"/>
      <use xlink:href="#DejaVuSans-72" x="179.638672"/>
      <use xlink:href="#DejaVuSans-65" x="218.501953"/>
     </g>
    </g>
   </g>
   <g id="line2d_12">
    <path d="M 66.896131 304.486509 
L 71.019283 266.468178 
L 79.265589 266.468178 
L 83.388741 266.468178 
L 87.511894 257.512829 
L 91.635047 238.94009 
L 99.881352 220.535431 
L 116.373963 202.084645 
L 120.497116 109.696526 
L 132.866574 81.100204 
L 136.989727 57.799496 
L 141.112879 57.799496 
L 145.236032 57.799496 
L 149.359185 57.799496 
L 157.60549 57.799496 
L 165.851796 57.799496 
L 169.974948 57.799496 
L 174.098101 54.214772 
L 178.221254 54.214772 
L 182.344406 57.476608 
L 186.467559 57.476608 
L 190.590712 57.476608 
L 198.837017 56.844869 
L 202.96017 56.844869 
L 215.329628 55.634777 
L 219.452781 55.054942 
L 223.575933 55.054942 
L 227.699086 55.054942 
L 240.068544 55.054942 
L 248.31485 55.054942 
L 256.561155 55.054942 
L 260.684308 62.843542 
L 264.807461 55.054942 
L 268.930613 42.525454 
L 273.053766 42.525454 
L 277.176919 42.525454 
L 281.300071 42.525454 
L 285.423224 46.821278 
L 289.546377 46.821278 
L 293.66953 28.856922 
L 301.915835 28.633485 
L 306.038988 37.752316 
L 318.408446 28.633485 
L 322.531599 28.633485 
L 326.654751 28.633485 
L 330.777904 28.633485 
L 334.901057 27.421414 
L 339.024209 13.886625 
L 343.147362 13.886625 
L 347.270515 13.886625 
L 351.393667 13.886625 
L 355.51682 13.886625 
L 359.639973 13.886625 
L 363.763126 13.886625 
L 367.886278 13.886625 
L 372.009431 13.886625 
L 376.132584 13.886625 
L 384.378889 13.886625 
L 388.502042 13.886625 
L 392.625195 13.886625 
L 396.748347 13.886625 
L 400.8715 13.886625 
" clip-path="url(#pe4a57c3a9d)" style="fill: none; stroke-dasharray: 2,3.3; stroke-dashoffset: 0; stroke: #e41a1c; stroke-width: 2"/>
   </g>
   <g id="line2d_13">
    <path d="M 66.896131 303.312368 
L 71.019283 240.104447 
L 79.265589 240.104447 
L 83.388741 240.104447 
L 87.511894 216.817318 
L 91.635047 216.817318 
L 99.881352 216.817318 
L 116.373963 213.490585 
L 120.497116 213.490585 
L 132.866574 213.490585 
L 136.989727 213.490585 
L 141.112879 213.490585 
L 145.236032 213.490585 
L 149.359185 213.490585 
L 157.60549 213.490585 
L 165.851796 213.490585 
L 169.974948 213.490585 
L 174.098101 200.183655 
L 178.221254 200.183655 
L 182.344406 146.955932 
L 186.467559 146.955932 
L 190.590712 146.955932 
L 198.837017 143.629199 
L 202.96017 143.629199 
L 215.329628 136.975734 
L 219.452781 133.649001 
L 223.575933 133.649001 
L 227.699086 133.649001 
L 240.068544 133.649001 
L 248.31485 133.649001 
L 256.561155 133.649001 
L 260.684308 133.649001 
L 264.807461 133.649001 
L 268.930613 133.649001 
L 273.053766 133.649001 
L 277.176919 133.649001 
L 281.300071 133.649001 
L 285.423224 133.649001 
L 289.546377 133.649001 
L 293.66953 133.649001 
L 301.915835 130.322269 
L 306.038988 130.322269 
L 318.408446 130.322269 
L 322.531599 130.322269 
L 326.654751 130.322269 
L 330.777904 130.322269 
L 334.901057 110.361873 
L 339.024209 107.03514 
L 343.147362 107.03514 
L 347.270515 107.03514 
L 351.393667 107.03514 
L 355.51682 107.03514 
L 359.639973 107.03514 
L 363.763126 107.03514 
L 367.886278 53.807417 
L 372.009431 53.807417 
L 376.132584 53.807417 
L 384.378889 53.807417 
L 388.502042 53.807417 
L 392.625195 53.807417 
L 396.748347 53.807417 
L 400.8715 13.886625 
" clip-path="url(#pe4a57c3a9d)" style="fill: none; stroke-dasharray: 7.4,3.2; stroke-dashoffset: 0; stroke: #377eb8; stroke-width: 2"/>
   </g>
   <g id="line2d_14">
    <path d="M 66.896131 303.9082 
L 71.019283 255.218137 
L 79.265589 255.218137 
L 83.388741 255.218137 
L 87.511894 241.06852 
L 91.635047 228.939385 
L 99.881352 218.704122 
L 116.373963 208.02774 
L 120.497116 176.421278 
L 132.866574 169.658635 
L 136.989727 164.83712 
L 141.112879 164.83712 
L 145.236032 164.83712 
L 149.359185 164.83712 
L 157.60549 164.83712 
L 165.851796 164.83712 
L 169.974948 164.83712 
L 174.098101 151.856119 
L 178.221254 151.856119 
L 182.344406 110.521237 
L 186.467559 110.521237 
L 190.590712 110.521237 
L 198.837017 107.985635 
L 202.96017 107.985635 
L 215.329628 103.003923 
L 219.452781 100.556766 
L 223.575933 100.556766 
L 227.699086 100.556766 
L 240.068544 100.556766 
L 248.31485 100.556766 
L 256.561155 100.556766 
L 260.684308 103.362273 
L 264.807461 100.556766 
L 268.930613 96.223259 
L 273.053766 96.223259 
L 277.176919 96.223259 
L 281.300071 96.223259 
L 285.423224 97.684856 
L 289.546377 97.684856 
L 293.66953 91.73217 
L 301.915835 89.279205 
L 306.038988 92.302467 
L 318.408446 89.279205 
L 322.531599 89.279205 
L 326.654751 89.279205 
L 330.777904 89.279205 
L 334.901057 75.160399 
L 339.024209 68.131937 
L 343.147362 68.131937 
L 347.270515 68.131937 
L 351.393667 68.131937 
L 355.51682 68.131937 
L 359.639973 68.131937 
L 363.763126 68.131937 
L 367.886278 35.134789 
L 372.009431 35.134789 
L 376.132584 35.134789 
L 384.378889 35.134789 
L 388.502042 35.134789 
L 392.625195 35.134789 
L 396.748347 35.134789 
L 400.8715 13.886625 
" clip-path="url(#pe4a57c3a9d)" style="fill: none; stroke: #984ea3; stroke-width: 3; stroke-linecap: square"/>
   </g>
   <g id="patch_3">
    <path d="M 66.0715 343.23316 
L 66.0715 10.59316 
" style="fill: none; stroke: #000000; stroke-linejoin: miter; stroke-linecap: square"/>
   </g>
   <g id="patch_4">
    <path d="M 66.0715 343.23316 
L 400.8715 343.23316 
" style="fill: none; stroke: #000000; stroke-linejoin: miter; stroke-linecap: square"/>
   </g>
   <g id="legend_1">
    <g id="patch_5">
     <path d="M 253.71075 334.43316 
L 388.5515 334.43316 
Q 392.0715 334.43316 392.0715 330.91316 
L 392.0715 255.17266 
Q 392.0715 251.65266 388.5515 251.65266 
L 253.71075 251.65266 
Q 250.19075 251.65266 250.19075 255.17266 
L 250.19075 330.91316 
Q 250.19075 334.43316 253.71075 334.43316 
z
" style="fill: #ffffff; opacity: 0.8; stroke: #cccccc; stroke-width: 0.8; stroke-linejoin: miter"/>
    </g>
    <g id="line2d_15">
     <path d="M 257.23075 265.90591 
L 274.83075 265.90591 
L 292.43075 265.90591 
" style="fill: none; stroke-dasharray: 2,3.3; stroke-dashoffset: 0; stroke: #e41a1c; stroke-width: 2"/>
    </g>
    <g id="text_14">
     <!-- Precision -->
     <g transform="translate(306.51075 272.06591) scale(0.176 -0.176)">
      <defs>
       <path id="DejaVuSans-50" d="M 1259 4147 
L 1259 2394 
L 2053 2394 
Q 2494 2394 2734 2622 
Q 2975 2850 2975 3272 
Q 2975 3691 2734 3919 
Q 2494 4147 2053 4147 
L 1259 4147 
z
M 628 4666 
L 2053 4666 
Q 2838 4666 3239 4311 
Q 3641 3956 3641 3272 
Q 3641 2581 3239 2228 
Q 2838 1875 2053 1875 
L 1259 1875 
L 1259 0 
L 628 0 
L 628 4666 
z
" transform="scale(0.015625)"/>
       <path id="DejaVuSans-69" d="M 603 3500 
L 1178 3500 
L 1178 0 
L 603 0 
L 603 3500 
z
M 603 4863 
L 1178 4863 
L 1178 4134 
L 603 4134 
L 603 4863 
z
" transform="scale(0.015625)"/>
       <path id="DejaVuSans-73" d="M 2834 3397 
L 2834 2853 
Q 2591 2978 2328 3040 
Q 2066 3103 1784 3103 
Q 1356 3103 1142 2972 
Q 928 2841 928 2578 
Q 928 2378 1081 2264 
Q 1234 2150 1697 2047 
L 1894 2003 
Q 2506 1872 2764 1633 
Q 3022 1394 3022 966 
Q 3022 478 2636 193 
Q 2250 -91 1575 -91 
Q 1294 -91 989 -36 
Q 684 19 347 128 
L 347 722 
Q 666 556 975 473 
Q 1284 391 1588 391 
Q 1994 391 2212 530 
Q 2431 669 2431 922 
Q 2431 1156 2273 1281 
Q 2116 1406 1581 1522 
L 1381 1569 
Q 847 1681 609 1914 
Q 372 2147 372 2553 
Q 372 3047 722 3315 
Q 1072 3584 1716 3584 
Q 2034 3584 2315 3537 
Q 2597 3491 2834 3397 
z
" transform="scale(0.015625)"/>
       <path id="DejaVuSans-6e" d="M 3513 2113 
L 3513 0 
L 2938 0 
L 2938 2094 
Q 2938 2591 2744 2837 
Q 2550 3084 2163 3084 
Q 1697 3084 1428 2787 
Q 1159 2491 1159 1978 
L 1159 0 
L 581 0 
L 581 3500 
L 1159 3500 
L 1159 2956 
Q 1366 3272 1645 3428 
Q 1925 3584 2291 3584 
Q 2894 3584 3203 3211 
Q 3513 2838 3513 2113 
z
" transform="scale(0.015625)"/>
      </defs>
      <use xlink:href="#DejaVuSans-50"/>
      <use xlink:href="#DejaVuSans-72" x="58.552734"/>
      <use xlink:href="#DejaVuSans-65" x="97.416016"/>
      <use xlink:href="#DejaVuSans-63" x="158.939453"/>
      <use xlink:href="#DejaVuSans-69" x="213.919922"/>
      <use xlink:href="#DejaVuSans-73" x="241.703125"/>
      <use xlink:href="#DejaVuSans-69" x="293.802734"/>
      <use xlink:href="#DejaVuSans-6f" x="321.585938"/>
      <use xlink:href="#DejaVuSans-6e" x="382.767578"/>
     </g>
    </g>
    <g id="line2d_16">
     <path d="M 257.23075 291.73941 
L 274.83075 291.73941 
L 292.43075 291.73941 
" style="fill: none; stroke-dasharray: 7.4,3.2; stroke-dashoffset: 0; stroke: #377eb8; stroke-width: 2"/>
    </g>
    <g id="text_15">
     <!-- Recall -->
     <g transform="translate(306.51075 297.89941) scale(0.176 -0.176)">
      <defs>
       <path id="DejaVuSans-52" d="M 2841 2188 
Q 3044 2119 3236 1894 
Q 3428 1669 3622 1275 
L 4263 0 
L 3584 0 
L 2988 1197 
Q 2756 1666 2539 1819 
Q 2322 1972 1947 1972 
L 1259 1972 
L 1259 0 
L 628 0 
L 628 4666 
L 2053 4666 
Q 2853 4666 3247 4331 
Q 3641 3997 3641 3322 
Q 3641 2881 3436 2590 
Q 3231 2300 2841 2188 
z
M 1259 4147 
L 1259 2491 
L 2053 2491 
Q 2509 2491 2742 2702 
Q 2975 2913 2975 3322 
Q 2975 3731 2742 3939 
Q 2509 4147 2053 4147 
L 1259 4147 
z
" transform="scale(0.015625)"/>
       <path id="DejaVuSans-6c" d="M 603 4863 
L 1178 4863 
L 1178 0 
L 603 0 
L 603 4863 
z
" transform="scale(0.015625)"/>
      </defs>
      <use xlink:href="#DejaVuSans-52"/>
      <use xlink:href="#DejaVuSans-65" x="64.982422"/>
      <use xlink:href="#DejaVuSans-63" x="126.505859"/>
      <use xlink:href="#DejaVuSans-61" x="181.486328"/>
      <use xlink:href="#DejaVuSans-6c" x="242.765625"/>
      <use xlink:href="#DejaVuSans-6c" x="270.548828"/>
     </g>
    </g>
    <g id="line2d_17">
     <path d="M 257.23075 317.57291 
L 274.83075 317.57291 
L 292.43075 317.57291 
" style="fill: none; stroke: #984ea3; stroke-width: 3; stroke-linecap: square"/>
    </g>
    <g id="text_16">
     <!-- F1 -->
     <g transform="translate(306.51075 323.73291) scale(0.176 -0.176)">
      <defs>
       <path id="DejaVuSans-46" d="M 628 4666 
L 3309 4666 
L 3309 4134 
L 1259 4134 
L 1259 2759 
L 3109 2759 
L 3109 2228 
L 1259 2228 
L 1259 0 
L 628 0 
L 628 4666 
z
" transform="scale(0.015625)"/>
      </defs>
      <use xlink:href="#DejaVuSans-46"/>
      <use xlink:href="#DejaVuSans-31" x="57.519531"/>
     </g>
    </g>
   </g>
  </g>
 </g>
 <defs>
  <clipPath id="pe4a57c3a9d">
   <rect x="66.0715" y="10.59316" width="334.8" height="332.64"/>
  </clipPath>
 </defs>
</svg>
