<?xml version="1.0" encoding="utf-8" standalone="no"?>
<!DOCTYPE svg PUBLIC "-//W3C//DTD SVG 1.1//EN"
  "http://www.w3.org/Graphics/SVG/1.1/DTD/svg11.dtd">
<svg xmlns:xlink="http://www.w3.org/1999/xlink" width="408.0715pt" height="398.34866pt" viewBox="0 0 408.0715 398.34866" xmlns="http://www.w3.org/2000/svg" version="1.1">
 <metadata>
  <rdf:RDF xmlns:dc="http://purl.org/dc/elements/1.1/" xmlns:cc="http://creativecommons.org/ns#" xmlns:rdf="http://www.w3.org/1999/02/22-rdf-syntax-ns#">
   <cc:Work>
    <dc:type rdf:resource="http://purl.org/dc/dcmitype/StillImage"/>
    <dc:date>2024-09-30T11:38:59.656120</dc:date>
    <dc:format>image/svg+xml</dc:format>
    <dc:creator>
     <cc:Agent>
      <dc:title>Matplotlib v3.8.0, https://matplotlib.org/</dc:title>
     </cc:Agent>
    </dc:creator>
   </cc:Work>
  </rdf:RDF>
 </metadata>
 <defs>
  <style type="text/css">*{stroke-linejoin: round; stroke-linecap: butt}</style>
 </defs>
 <g id="figure_1">
  <g id="patch_1">
   <path d="M 0 398.34866 
L 408.0715 398.34866 
L 408.0715 0 
L 0 0 
z
" style="fill: #ffffff"/>
  </g>
  <g id="axes_1">
   <g id="patch_2">
    <path d="M 66.0715 343.23316 
L 400.8715 343.23316 
L 400.8715 10.59316 
L 66.0715 10.59316 
z
" style="fill: #ffffff"/>
   </g>
   <g id="PolyCollection_1"/>
   <g id="PolyCollection_2"/>
   <g id="PolyCollection_3"/>
   <g id="PolyCollection_4">
    <defs>
     <path id="me8db188288" d="M 66.628572 -387.7555 
L 66.628572 -55.1155 
L 69.413929 -55.1155 
L 69.413929 -387.7555 
L 69.413929 -387.7555 
L 66.628572 -387.7555 
z
"/>
    </defs>
    <g clip-path="url(#p2043e16d32)">
     <use xlink:href="#me8db188288" x="0" y="398.34866" style="fill: #1b9e77; fill-opacity: 0.2"/>
    </g>
   </g>
   <g id="PolyCollection_5">
    <defs>
     <path id="m1c34d87c44" d="M 69.413929 -387.7555 
L 69.413929 -55.1155 
L 72.199287 -55.1155 
L 72.199287 -387.7555 
L 72.199287 -387.7555 
L 69.413929 -387.7555 
z
"/>
    </defs>
    <g clip-path="url(#p2043e16d32)">
     <use xlink:href="#m1c34d87c44" x="0" y="398.34866" style="fill: #1b9e77; fill-opacity: 0.2"/>
    </g>
   </g>
   <g id="PolyCollection_6">
    <defs>
     <path id="m6fa170dfa1" d="M 72.199287 -387.7555 
L 72.199287 -55.1155 
L 74.984645 -55.1155 
L 74.984645 -387.7555 
L 74.984645 -387.7555 
L 72.199287 -387.7555 
z
"/>
    </defs>
    <g clip-path="url(#p2043e16d32)">
     <use xlink:href="#m6fa170dfa1" x="0" y="398.34866" style="fill: #1b9e77; fill-opacity: 0.2"/>
    </g>
   </g>
   <g id="PolyCollection_7">
    <defs>
     <path id="m7a4e5c3ef0" d="M 74.984645 -387.7555 
L 74.984645 -55.1155 
L 77.770002 -55.1155 
L 77.770002 -387.7555 
L 77.770002 -387.7555 
L 74.984645 -387.7555 
z
"/>
    </defs>
    <g clip-path="url(#p2043e16d32)">
     <use xlink:href="#m7a4e5c3ef0" x="0" y="398.34866" style="fill: #d95f02; fill-opacity: 0.2"/>
    </g>
   </g>
   <g id="PolyCollection_8">
    <defs>
     <path id="m513a6f16c6" d="M 77.770002 -387.7555 
L 77.770002 -55.1155 
L 80.55536 -55.1155 
L 80.55536 -387.7555 
L 80.55536 -387.7555 
L 77.770002 -387.7555 
z
"/>
    </defs>
    <g clip-path="url(#p2043e16d32)">
     <use xlink:href="#m513a6f16c6" x="0" y="398.34866" style="fill: #1b9e77; fill-opacity: 0.2"/>
    </g>
   </g>
   <g id="PolyCollection_9">
    <defs>
     <path id="m93f7fe8e88" d="M 80.55536 -387.7555 
L 80.55536 -55.1155 
L 83.340718 -55.1155 
L 83.340718 -387.7555 
L 83.340718 -387.7555 
L 80.55536 -387.7555 
z
"/>
    </defs>
    <g clip-path="url(#p2043e16d32)">
     <use xlink:href="#m93f7fe8e88" x="0" y="398.34866" style="fill: #1b9e77; fill-opacity: 0.2"/>
    </g>
   </g>
   <g id="PolyCollection_10">
    <defs>
     <path id="m70214cda6b" d="M 83.340718 -387.7555 
L 83.340718 -55.1155 
L 86.126076 -55.1155 
L 86.126076 -387.7555 
L 86.126076 -387.7555 
L 83.340718 -387.7555 
z
"/>
    </defs>
    <g clip-path="url(#p2043e16d32)">
     <use xlink:href="#m70214cda6b" x="0" y="398.34866" style="fill: #1b9e77; fill-opacity: 0.2"/>
    </g>
   </g>
   <g id="PolyCollection_11">
    <defs>
     <path id="mcbfbd3187d" d="M 86.126076 -387.7555 
L 86.126076 -55.1155 
L 88.911433 -55.1155 
L 88.911433 -387.7555 
L 88.911433 -387.7555 
L 86.126076 -387.7555 
z
"/>
    </defs>
    <g clip-path="url(#p2043e16d32)">
     <use xlink:href="#mcbfbd3187d" x="0" y="398.34866" style="fill: #1b9e77; fill-opacity: 0.2"/>
    </g>
   </g>
   <g id="PolyCollection_12">
    <defs>
     <path id="mc65ac8bdbf" d="M 88.911433 -387.7555 
L 88.911433 -55.1155 
L 91.696791 -55.1155 
L 91.696791 -387.7555 
L 91.696791 -387.7555 
L 88.911433 -387.7555 
z
"/>
    </defs>
    <g clip-path="url(#p2043e16d32)">
     <use xlink:href="#mc65ac8bdbf" x="0" y="398.34866" style="fill: #1b9e77; fill-opacity: 0.2"/>
    </g>
   </g>
   <g id="PolyCollection_13">
    <defs>
     <path id="m29eb1b9712" d="M 91.696791 -387.7555 
L 91.696791 -55.1155 
L 94.482149 -55.1155 
L 94.482149 -387.7555 
L 94.482149 -387.7555 
L 91.696791 -387.7555 
z
"/>
    </defs>
    <g clip-path="url(#p2043e16d32)">
     <use xlink:href="#m29eb1b9712" x="0" y="398.34866" style="fill: #1b9e77; fill-opacity: 0.2"/>
    </g>
   </g>
   <g id="PolyCollection_14">
    <defs>
     <path id="mca0b2039be" d="M 94.482149 -387.7555 
L 94.482149 -55.1155 
L 97.267507 -55.1155 
L 97.267507 -387.7555 
L 97.267507 -387.7555 
L 94.482149 -387.7555 
z
"/>
    </defs>
    <g clip-path="url(#p2043e16d32)">
     <use xlink:href="#mca0b2039be" x="0" y="398.34866" style="fill: #d95f02; fill-opacity: 0.2"/>
    </g>
   </g>
   <g id="PolyCollection_15">
    <defs>
     <path id="mf2b8eb8138" d="M 97.267507 -387.7555 
L 97.267507 -55.1155 
L 100.052864 -55.1155 
L 100.052864 -387.7555 
L 100.052864 -387.7555 
L 97.267507 -387.7555 
z
"/>
    </defs>
    <g clip-path="url(#p2043e16d32)">
     <use xlink:href="#mf2b8eb8138" x="0" y="398.34866" style="fill: #d95f02; fill-opacity: 0.2"/>
    </g>
   </g>
   <g id="PolyCollection_16">
    <defs>
     <path id="mb6b1810675" d="M 100.052864 -387.7555 
L 100.052864 -55.1155 
L 102.838222 -55.1155 
L 102.838222 -387.7555 
L 102.838222 -387.7555 
L 100.052864 -387.7555 
z
"/>
    </defs>
    <g clip-path="url(#p2043e16d32)">
     <use xlink:href="#mb6b1810675" x="0" y="398.34866" style="fill: #d95f02; fill-opacity: 0.2"/>
    </g>
   </g>
   <g id="PolyCollection_17">
    <defs>
     <path id="m2b2a7ac065" d="M 102.838222 -387.7555 
L 102.838222 -55.1155 
L 105.62358 -55.1155 
L 105.62358 -387.7555 
L 105.62358 -387.7555 
L 102.838222 -387.7555 
z
"/>
    </defs>
    <g clip-path="url(#p2043e16d32)">
     <use xlink:href="#m2b2a7ac065" x="0" y="398.34866" style="fill: #d95f02; fill-opacity: 0.2"/>
    </g>
   </g>
   <g id="PolyCollection_18">
    <defs>
     <path id="m895d81b198" d="M 105.62358 -387.7555 
L 105.62358 -55.1155 
L 108.408938 -55.1155 
L 108.408938 -387.7555 
L 108.408938 -387.7555 
L 105.62358 -387.7555 
z
"/>
    </defs>
    <g clip-path="url(#p2043e16d32)">
     <use xlink:href="#m895d81b198" x="0" y="398.34866" style="fill: #d95f02; fill-opacity: 0.2"/>
    </g>
   </g>
   <g id="PolyCollection_19">
    <defs>
     <path id="m2f9cd6e40b" d="M 108.408938 -387.7555 
L 108.408938 -55.1155 
L 111.194295 -55.1155 
L 111.194295 -387.7555 
L 111.194295 -387.7555 
L 108.408938 -387.7555 
z
"/>
    </defs>
    <g clip-path="url(#p2043e16d32)">
     <use xlink:href="#m2f9cd6e40b" x="0" y="398.34866" style="fill: #d95f02; fill-opacity: 0.2"/>
    </g>
   </g>
   <g id="PolyCollection_20">
    <defs>
     <path id="ma1a295ae1b" d="M 111.194295 -387.7555 
L 111.194295 -55.1155 
L 113.979653 -55.1155 
L 113.979653 -387.7555 
L 113.979653 -387.7555 
L 111.194295 -387.7555 
z
"/>
    </defs>
    <g clip-path="url(#p2043e16d32)">
     <use xlink:href="#ma1a295ae1b" x="0" y="398.34866" style="fill: #d95f02; fill-opacity: 0.2"/>
    </g>
   </g>
   <g id="PolyCollection_21">
    <defs>
     <path id="me3937a53a3" d="M 113.979653 -387.7555 
L 113.979653 -55.1155 
L 116.765011 -55.1155 
L 116.765011 -387.7555 
L 116.765011 -387.7555 
L 113.979653 -387.7555 
z
"/>
    </defs>
    <g clip-path="url(#p2043e16d32)">
     <use xlink:href="#me3937a53a3" x="0" y="398.34866" style="fill: #d95f02; fill-opacity: 0.2"/>
    </g>
   </g>
   <g id="PolyCollection_22">
    <defs>
     <path id="mc04fb24f9f" d="M 116.765011 -387.7555 
L 116.765011 -55.1155 
L 119.550369 -55.1155 
L 119.550369 -387.7555 
L 119.550369 -387.7555 
L 116.765011 -387.7555 
z
"/>
    </defs>
    <g clip-path="url(#p2043e16d32)">
     <use xlink:href="#mc04fb24f9f" x="0" y="398.34866" style="fill: #d95f02; fill-opacity: 0.2"/>
    </g>
   </g>
   <g id="PolyCollection_23">
    <defs>
     <path id="m69166496de" d="M 119.550369 -387.7555 
L 119.550369 -55.1155 
L 122.335726 -55.1155 
L 122.335726 -387.7555 
L 122.335726 -387.7555 
L 119.550369 -387.7555 
z
"/>
    </defs>
    <g clip-path="url(#p2043e16d32)">
     <use xlink:href="#m69166496de" x="0" y="398.34866" style="fill: #d95f02; fill-opacity: 0.2"/>
    </g>
   </g>
   <g id="PolyCollection_24">
    <defs>
     <path id="m0049294a42" d="M 122.335726 -387.7555 
L 122.335726 -55.1155 
L 125.121084 -55.1155 
L 125.121084 -387.7555 
L 125.121084 -387.7555 
L 122.335726 -387.7555 
z
"/>
    </defs>
    <g clip-path="url(#p2043e16d32)">
     <use xlink:href="#m0049294a42" x="0" y="398.34866" style="fill: #d95f02; fill-opacity: 0.2"/>
    </g>
   </g>
   <g id="PolyCollection_25">
    <defs>
     <path id="m747637ebcf" d="M 125.121084 -387.7555 
L 125.121084 -55.1155 
L 127.906442 -55.1155 
L 127.906442 -387.7555 
L 127.906442 -387.7555 
L 125.121084 -387.7555 
z
"/>
    </defs>
    <g clip-path="url(#p2043e16d32)">
     <use xlink:href="#m747637ebcf" x="0" y="398.34866" style="fill: #d95f02; fill-opacity: 0.2"/>
    </g>
   </g>
   <g id="PolyCollection_26">
    <defs>
     <path id="mb84d2c3fdd" d="M 127.906442 -387.7555 
L 127.906442 -55.1155 
L 130.6918 -55.1155 
L 130.6918 -387.7555 
L 130.6918 -387.7555 
L 127.906442 -387.7555 
z
"/>
    </defs>
    <g clip-path="url(#p2043e16d32)">
     <use xlink:href="#mb84d2c3fdd" x="0" y="398.34866" style="fill: #d95f02; fill-opacity: 0.2"/>
    </g>
   </g>
   <g id="PolyCollection_27">
    <defs>
     <path id="m5d7e757928" d="M 130.6918 -387.7555 
L 130.6918 -55.1155 
L 133.477157 -55.1155 
L 133.477157 -387.7555 
L 133.477157 -387.7555 
L 130.6918 -387.7555 
z
"/>
    </defs>
    <g clip-path="url(#p2043e16d32)">
     <use xlink:href="#m5d7e757928" x="0" y="398.34866" style="fill: #1b9e77; fill-opacity: 0.2"/>
    </g>
   </g>
   <g id="PolyCollection_28">
    <defs>
     <path id="m292a85b57a" d="M 133.477157 -387.7555 
L 133.477157 -55.1155 
L 136.262515 -55.1155 
L 136.262515 -387.7555 
L 136.262515 -387.7555 
L 133.477157 -387.7555 
z
"/>
    </defs>
    <g clip-path="url(#p2043e16d32)">
     <use xlink:href="#m292a85b57a" x="0" y="398.34866" style="fill: #d95f02; fill-opacity: 0.2"/>
    </g>
   </g>
   <g id="PolyCollection_29">
    <defs>
     <path id="m7aca18cabb" d="M 136.262515 -387.7555 
L 136.262515 -55.1155 
L 139.047873 -55.1155 
L 139.047873 -387.7555 
L 139.047873 -387.7555 
L 136.262515 -387.7555 
z
"/>
    </defs>
    <g clip-path="url(#p2043e16d32)">
     <use xlink:href="#m7aca18cabb" x="0" y="398.34866" style="fill: #d95f02; fill-opacity: 0.2"/>
    </g>
   </g>
   <g id="PolyCollection_30">
    <defs>
     <path id="m0ff1c588db" d="M 139.047873 -387.7555 
L 139.047873 -55.1155 
L 141.83323 -55.1155 
L 141.83323 -387.7555 
L 141.83323 -387.7555 
L 139.047873 -387.7555 
z
"/>
    </defs>
    <g clip-path="url(#p2043e16d32)">
     <use xlink:href="#m0ff1c588db" x="0" y="398.34866" style="fill: #1b9e77; fill-opacity: 0.2"/>
    </g>
   </g>
   <g id="PolyCollection_31">
    <defs>
     <path id="m93ea7d13e5" d="M 141.83323 -387.7555 
L 141.83323 -55.1155 
L 144.618588 -55.1155 
L 144.618588 -387.7555 
L 144.618588 -387.7555 
L 141.83323 -387.7555 
z
"/>
    </defs>
    <g clip-path="url(#p2043e16d32)">
     <use xlink:href="#m93ea7d13e5" x="0" y="398.34866" style="fill: #1b9e77; fill-opacity: 0.2"/>
    </g>
   </g>
   <g id="PolyCollection_32">
    <defs>
     <path id="m19b60c73de" d="M 144.618588 -387.7555 
L 144.618588 -55.1155 
L 147.403946 -55.1155 
L 147.403946 -387.7555 
L 147.403946 -387.7555 
L 144.618588 -387.7555 
z
"/>
    </defs>
    <g clip-path="url(#p2043e16d32)">
     <use xlink:href="#m19b60c73de" x="0" y="398.34866" style="fill: #d95f02; fill-opacity: 0.2"/>
    </g>
   </g>
   <g id="PolyCollection_33">
    <defs>
     <path id="mb0f151f9d4" d="M 147.403946 -387.7555 
L 147.403946 -55.1155 
L 150.189304 -55.1155 
L 150.189304 -387.7555 
L 150.189304 -387.7555 
L 147.403946 -387.7555 
z
"/>
    </defs>
    <g clip-path="url(#p2043e16d32)">
     <use xlink:href="#mb0f151f9d4" x="0" y="398.34866" style="fill: #d95f02; fill-opacity: 0.2"/>
    </g>
   </g>
   <g id="PolyCollection_34">
    <defs>
     <path id="ma755f6b7f4" d="M 150.189304 -387.7555 
L 150.189304 -55.1155 
L 152.974661 -55.1155 
L 152.974661 -387.7555 
L 152.974661 -387.7555 
L 150.189304 -387.7555 
z
"/>
    </defs>
    <g clip-path="url(#p2043e16d32)">
     <use xlink:href="#ma755f6b7f4" x="0" y="398.34866" style="fill: #d95f02; fill-opacity: 0.2"/>
    </g>
   </g>
   <g id="PolyCollection_35">
    <defs>
     <path id="mb068df855c" d="M 152.974661 -387.7555 
L 152.974661 -55.1155 
L 155.760019 -55.1155 
L 155.760019 -387.7555 
L 155.760019 -387.7555 
L 152.974661 -387.7555 
z
"/>
    </defs>
    <g clip-path="url(#p2043e16d32)">
     <use xlink:href="#mb068df855c" x="0" y="398.34866" style="fill: #d95f02; fill-opacity: 0.2"/>
    </g>
   </g>
   <g id="PolyCollection_36">
    <defs>
     <path id="m00edeb8ef7" d="M 155.760019 -387.7555 
L 155.760019 -55.1155 
L 158.545377 -55.1155 
L 158.545377 -387.7555 
L 158.545377 -387.7555 
L 155.760019 -387.7555 
z
"/>
    </defs>
    <g clip-path="url(#p2043e16d32)">
     <use xlink:href="#m00edeb8ef7" x="0" y="398.34866" style="fill: #d95f02; fill-opacity: 0.2"/>
    </g>
   </g>
   <g id="PolyCollection_37">
    <defs>
     <path id="mccf440fec5" d="M 158.545377 -387.7555 
L 158.545377 -55.1155 
L 161.330735 -55.1155 
L 161.330735 -387.7555 
L 161.330735 -387.7555 
L 158.545377 -387.7555 
z
"/>
    </defs>
    <g clip-path="url(#p2043e16d32)">
     <use xlink:href="#mccf440fec5" x="0" y="398.34866" style="fill: #d95f02; fill-opacity: 0.2"/>
    </g>
   </g>
   <g id="PolyCollection_38">
    <defs>
     <path id="m15fe7d361b" d="M 161.330735 -387.7555 
L 161.330735 -55.1155 
L 164.116092 -55.1155 
L 164.116092 -387.7555 
L 164.116092 -387.7555 
L 161.330735 -387.7555 
z
"/>
    </defs>
    <g clip-path="url(#p2043e16d32)">
     <use xlink:href="#m15fe7d361b" x="0" y="398.34866" style="fill: #d95f02; fill-opacity: 0.2"/>
    </g>
   </g>
   <g id="PolyCollection_39">
    <defs>
     <path id="m323d6fcb15" d="M 164.116092 -387.7555 
L 164.116092 -55.1155 
L 166.90145 -55.1155 
L 166.90145 -387.7555 
L 166.90145 -387.7555 
L 164.116092 -387.7555 
z
"/>
    </defs>
    <g clip-path="url(#p2043e16d32)">
     <use xlink:href="#m323d6fcb15" x="0" y="398.34866" style="fill: #d95f02; fill-opacity: 0.2"/>
    </g>
   </g>
   <g id="PolyCollection_40">
    <defs>
     <path id="me383e4ada9" d="M 166.90145 -387.7555 
L 166.90145 -55.1155 
L 169.686808 -55.1155 
L 169.686808 -387.7555 
L 169.686808 -387.7555 
L 166.90145 -387.7555 
z
"/>
    </defs>
    <g clip-path="url(#p2043e16d32)">
     <use xlink:href="#me383e4ada9" x="0" y="398.34866" style="fill: #d95f02; fill-opacity: 0.2"/>
    </g>
   </g>
   <g id="PolyCollection_41">
    <defs>
     <path id="mcd8589e4c5" d="M 169.686808 -387.7555 
L 169.686808 -55.1155 
L 172.472166 -55.1155 
L 172.472166 -387.7555 
L 172.472166 -387.7555 
L 169.686808 -387.7555 
z
"/>
    </defs>
    <g clip-path="url(#p2043e16d32)">
     <use xlink:href="#mcd8589e4c5" x="0" y="398.34866" style="fill: #1b9e77; fill-opacity: 0.2"/>
    </g>
   </g>
   <g id="PolyCollection_42">
    <defs>
     <path id="ma62d3a9a9b" d="M 172.472166 -387.7555 
L 172.472166 -55.1155 
L 175.257523 -55.1155 
L 175.257523 -387.7555 
L 175.257523 -387.7555 
L 172.472166 -387.7555 
z
"/>
    </defs>
    <g clip-path="url(#p2043e16d32)">
     <use xlink:href="#ma62d3a9a9b" x="0" y="398.34866" style="fill: #d95f02; fill-opacity: 0.2"/>
    </g>
   </g>
   <g id="PolyCollection_43">
    <defs>
     <path id="mca1b56ab02" d="M 175.257523 -387.7555 
L 175.257523 -55.1155 
L 178.042881 -55.1155 
L 178.042881 -387.7555 
L 178.042881 -387.7555 
L 175.257523 -387.7555 
z
"/>
    </defs>
    <g clip-path="url(#p2043e16d32)">
     <use xlink:href="#mca1b56ab02" x="0" y="398.34866" style="fill: #d95f02; fill-opacity: 0.2"/>
    </g>
   </g>
   <g id="PolyCollection_44">
    <defs>
     <path id="me20bb1581a" d="M 178.042881 -387.7555 
L 178.042881 -55.1155 
L 180.828239 -55.1155 
L 180.828239 -387.7555 
L 180.828239 -387.7555 
L 178.042881 -387.7555 
z
"/>
    </defs>
    <g clip-path="url(#p2043e16d32)">
     <use xlink:href="#me20bb1581a" x="0" y="398.34866" style="fill: #d95f02; fill-opacity: 0.2"/>
    </g>
   </g>
   <g id="PolyCollection_45">
    <defs>
     <path id="m5e32cbba53" d="M 180.828239 -387.7555 
L 180.828239 -55.1155 
L 183.613597 -55.1155 
L 183.613597 -387.7555 
L 183.613597 -387.7555 
L 180.828239 -387.7555 
z
"/>
    </defs>
    <g clip-path="url(#p2043e16d32)">
     <use xlink:href="#m5e32cbba53" x="0" y="398.34866" style="fill: #d95f02; fill-opacity: 0.2"/>
    </g>
   </g>
   <g id="PolyCollection_46">
    <defs>
     <path id="mc316cc1985" d="M 183.613597 -387.7555 
L 183.613597 -55.1155 
L 186.398954 -55.1155 
L 186.398954 -387.7555 
L 186.398954 -387.7555 
L 183.613597 -387.7555 
z
"/>
    </defs>
    <g clip-path="url(#p2043e16d32)">
     <use xlink:href="#mc316cc1985" x="0" y="398.34866" style="fill: #d95f02; fill-opacity: 0.2"/>
    </g>
   </g>
   <g id="PolyCollection_47">
    <defs>
     <path id="m204c3cc2fc" d="M 186.398954 -387.7555 
L 186.398954 -55.1155 
L 189.184312 -55.1155 
L 189.184312 -387.7555 
L 189.184312 -387.7555 
L 186.398954 -387.7555 
z
"/>
    </defs>
    <g clip-path="url(#p2043e16d32)">
     <use xlink:href="#m204c3cc2fc" x="0" y="398.34866" style="fill: #d95f02; fill-opacity: 0.2"/>
    </g>
   </g>
   <g id="PolyCollection_48">
    <defs>
     <path id="m14917fece3" d="M 189.184312 -387.7555 
L 189.184312 -55.1155 
L 191.96967 -55.1155 
L 191.96967 -387.7555 
L 191.96967 -387.7555 
L 189.184312 -387.7555 
z
"/>
    </defs>
    <g clip-path="url(#p2043e16d32)">
     <use xlink:href="#m14917fece3" x="0" y="398.34866" style="fill: #d95f02; fill-opacity: 0.2"/>
    </g>
   </g>
   <g id="PolyCollection_49">
    <defs>
     <path id="m21480fbf6f" d="M 191.96967 -387.7555 
L 191.96967 -55.1155 
L 194.755027 -55.1155 
L 194.755027 -387.7555 
L 194.755027 -387.7555 
L 191.96967 -387.7555 
z
"/>
    </defs>
    <g clip-path="url(#p2043e16d32)">
     <use xlink:href="#m21480fbf6f" x="0" y="398.34866" style="fill: #1b9e77; fill-opacity: 0.2"/>
    </g>
   </g>
   <g id="PolyCollection_50">
    <defs>
     <path id="me25d16cc43" d="M 194.755027 -387.7555 
L 194.755027 -55.1155 
L 197.540385 -55.1155 
L 197.540385 -387.7555 
L 197.540385 -387.7555 
L 194.755027 -387.7555 
z
"/>
    </defs>
    <g clip-path="url(#p2043e16d32)">
     <use xlink:href="#me25d16cc43" x="0" y="398.34866" style="fill: #d95f02; fill-opacity: 0.2"/>
    </g>
   </g>
   <g id="PolyCollection_51">
    <defs>
     <path id="me61f9bcbfe" d="M 197.540385 -387.7555 
L 197.540385 -55.1155 
L 200.325743 -55.1155 
L 200.325743 -387.7555 
L 200.325743 -387.7555 
L 197.540385 -387.7555 
z
"/>
    </defs>
    <g clip-path="url(#p2043e16d32)">
     <use xlink:href="#me61f9bcbfe" x="0" y="398.34866" style="fill: #d95f02; fill-opacity: 0.2"/>
    </g>
   </g>
   <g id="PolyCollection_52">
    <defs>
     <path id="ma398c670e3" d="M 200.325743 -387.7555 
L 200.325743 -55.1155 
L 203.111101 -55.1155 
L 203.111101 -387.7555 
L 203.111101 -387.7555 
L 200.325743 -387.7555 
z
"/>
    </defs>
    <g clip-path="url(#p2043e16d32)">
     <use xlink:href="#ma398c670e3" x="0" y="398.34866" style="fill: #d95f02; fill-opacity: 0.2"/>
    </g>
   </g>
   <g id="PolyCollection_53">
    <defs>
     <path id="mf9d2ac6434" d="M 203.111101 -387.7555 
L 203.111101 -55.1155 
L 205.896458 -55.1155 
L 205.896458 -387.7555 
L 205.896458 -387.7555 
L 203.111101 -387.7555 
z
"/>
    </defs>
    <g clip-path="url(#p2043e16d32)">
     <use xlink:href="#mf9d2ac6434" x="0" y="398.34866" style="fill: #d95f02; fill-opacity: 0.2"/>
    </g>
   </g>
   <g id="PolyCollection_54">
    <defs>
     <path id="m66ee0a820b" d="M 205.896458 -387.7555 
L 205.896458 -55.1155 
L 208.681816 -55.1155 
L 208.681816 -387.7555 
L 208.681816 -387.7555 
L 205.896458 -387.7555 
z
"/>
    </defs>
    <g clip-path="url(#p2043e16d32)">
     <use xlink:href="#m66ee0a820b" x="0" y="398.34866" style="fill: #d95f02; fill-opacity: 0.2"/>
    </g>
   </g>
   <g id="PolyCollection_55">
    <defs>
     <path id="me67479d714" d="M 208.681816 -387.7555 
L 208.681816 -55.1155 
L 211.467174 -55.1155 
L 211.467174 -387.7555 
L 211.467174 -387.7555 
L 208.681816 -387.7555 
z
"/>
    </defs>
    <g clip-path="url(#p2043e16d32)">
     <use xlink:href="#me67479d714" x="0" y="398.34866" style="fill: #d95f02; fill-opacity: 0.2"/>
    </g>
   </g>
   <g id="PolyCollection_56">
    <defs>
     <path id="m94d4be20ec" d="M 211.467174 -387.7555 
L 211.467174 -55.1155 
L 214.252532 -55.1155 
L 214.252532 -387.7555 
L 214.252532 -387.7555 
L 211.467174 -387.7555 
z
"/>
    </defs>
    <g clip-path="url(#p2043e16d32)">
     <use xlink:href="#m94d4be20ec" x="0" y="398.34866" style="fill: #d95f02; fill-opacity: 0.2"/>
    </g>
   </g>
   <g id="PolyCollection_57">
    <defs>
     <path id="m6c641f3176" d="M 214.252532 -387.7555 
L 214.252532 -55.1155 
L 217.037889 -55.1155 
L 217.037889 -387.7555 
L 217.037889 -387.7555 
L 214.252532 -387.7555 
z
"/>
    </defs>
    <g clip-path="url(#p2043e16d32)">
     <use xlink:href="#m6c641f3176" x="0" y="398.34866" style="fill: #d95f02; fill-opacity: 0.2"/>
    </g>
   </g>
   <g id="PolyCollection_58">
    <defs>
     <path id="mf88994fd8e" d="M 217.037889 -387.7555 
L 217.037889 -55.1155 
L 219.823247 -55.1155 
L 219.823247 -387.7555 
L 219.823247 -387.7555 
L 217.037889 -387.7555 
z
"/>
    </defs>
    <g clip-path="url(#p2043e16d32)">
     <use xlink:href="#mf88994fd8e" x="0" y="398.34866" style="fill: #d95f02; fill-opacity: 0.2"/>
    </g>
   </g>
   <g id="PolyCollection_59">
    <defs>
     <path id="m00a5dd8178" d="M 219.823247 -387.7555 
L 219.823247 -55.1155 
L 222.608605 -55.1155 
L 222.608605 -387.7555 
L 222.608605 -387.7555 
L 219.823247 -387.7555 
z
"/>
    </defs>
    <g clip-path="url(#p2043e16d32)">
     <use xlink:href="#m00a5dd8178" x="0" y="398.34866" style="fill: #d95f02; fill-opacity: 0.2"/>
    </g>
   </g>
   <g id="PolyCollection_60">
    <defs>
     <path id="mc43e00fa46" d="M 222.608605 -387.7555 
L 222.608605 -55.1155 
L 225.393963 -55.1155 
L 225.393963 -387.7555 
L 225.393963 -387.7555 
L 222.608605 -387.7555 
z
"/>
    </defs>
    <g clip-path="url(#p2043e16d32)">
     <use xlink:href="#mc43e00fa46" x="0" y="398.34866" style="fill: #d95f02; fill-opacity: 0.2"/>
    </g>
   </g>
   <g id="PolyCollection_61">
    <defs>
     <path id="m66b512465a" d="M 225.393963 -387.7555 
L 225.393963 -55.1155 
L 228.17932 -55.1155 
L 228.17932 -387.7555 
L 228.17932 -387.7555 
L 225.393963 -387.7555 
z
"/>
    </defs>
    <g clip-path="url(#p2043e16d32)">
     <use xlink:href="#m66b512465a" x="0" y="398.34866" style="fill: #d95f02; fill-opacity: 0.2"/>
    </g>
   </g>
   <g id="PolyCollection_62">
    <defs>
     <path id="m60e7115c2a" d="M 228.17932 -387.7555 
L 228.17932 -55.1155 
L 230.964678 -55.1155 
L 230.964678 -387.7555 
L 230.964678 -387.7555 
L 228.17932 -387.7555 
z
"/>
    </defs>
    <g clip-path="url(#p2043e16d32)">
     <use xlink:href="#m60e7115c2a" x="0" y="398.34866" style="fill: #d95f02; fill-opacity: 0.2"/>
    </g>
   </g>
   <g id="PolyCollection_63">
    <defs>
     <path id="m3df4229ac8" d="M 230.964678 -387.7555 
L 230.964678 -55.1155 
L 233.750036 -55.1155 
L 233.750036 -387.7555 
L 233.750036 -387.7555 
L 230.964678 -387.7555 
z
"/>
    </defs>
    <g clip-path="url(#p2043e16d32)">
     <use xlink:href="#m3df4229ac8" x="0" y="398.34866" style="fill: #d95f02; fill-opacity: 0.2"/>
    </g>
   </g>
   <g id="PolyCollection_64">
    <defs>
     <path id="mb7c0ee7091" d="M 233.750036 -387.7555 
L 233.750036 -55.1155 
L 236.535394 -55.1155 
L 236.535394 -387.7555 
L 236.535394 -387.7555 
L 233.750036 -387.7555 
z
"/>
    </defs>
    <g clip-path="url(#p2043e16d32)">
     <use xlink:href="#mb7c0ee7091" x="0" y="398.34866" style="fill: #d95f02; fill-opacity: 0.2"/>
    </g>
   </g>
   <g id="PolyCollection_65">
    <defs>
     <path id="md837a549b4" d="M 236.535394 -387.7555 
L 236.535394 -55.1155 
L 239.320751 -55.1155 
L 239.320751 -387.7555 
L 239.320751 -387.7555 
L 236.535394 -387.7555 
z
"/>
    </defs>
    <g clip-path="url(#p2043e16d32)">
     <use xlink:href="#md837a549b4" x="0" y="398.34866" style="fill: #d95f02; fill-opacity: 0.2"/>
    </g>
   </g>
   <g id="PolyCollection_66">
    <defs>
     <path id="m427a554748" d="M 239.320751 -387.7555 
L 239.320751 -55.1155 
L 242.106109 -55.1155 
L 242.106109 -387.7555 
L 242.106109 -387.7555 
L 239.320751 -387.7555 
z
"/>
    </defs>
    <g clip-path="url(#p2043e16d32)">
     <use xlink:href="#m427a554748" x="0" y="398.34866" style="fill: #d95f02; fill-opacity: 0.2"/>
    </g>
   </g>
   <g id="PolyCollection_67">
    <defs>
     <path id="m54e38a7e05" d="M 242.106109 -387.7555 
L 242.106109 -55.1155 
L 244.891467 -55.1155 
L 244.891467 -387.7555 
L 244.891467 -387.7555 
L 242.106109 -387.7555 
z
"/>
    </defs>
    <g clip-path="url(#p2043e16d32)">
     <use xlink:href="#m54e38a7e05" x="0" y="398.34866" style="fill: #d95f02; fill-opacity: 0.2"/>
    </g>
   </g>
   <g id="PolyCollection_68">
    <defs>
     <path id="m560cfd0753" d="M 244.891467 -387.7555 
L 244.891467 -55.1155 
L 247.676824 -55.1155 
L 247.676824 -387.7555 
L 247.676824 -387.7555 
L 244.891467 -387.7555 
z
"/>
    </defs>
    <g clip-path="url(#p2043e16d32)">
     <use xlink:href="#m560cfd0753" x="0" y="398.34866" style="fill: #d95f02; fill-opacity: 0.2"/>
    </g>
   </g>
   <g id="PolyCollection_69">
    <defs>
     <path id="m139191b585" d="M 247.676824 -387.7555 
L 247.676824 -55.1155 
L 250.462182 -55.1155 
L 250.462182 -387.7555 
L 250.462182 -387.7555 
L 247.676824 -387.7555 
z
"/>
    </defs>
    <g clip-path="url(#p2043e16d32)">
     <use xlink:href="#m139191b585" x="0" y="398.34866" style="fill: #d95f02; fill-opacity: 0.2"/>
    </g>
   </g>
   <g id="PolyCollection_70">
    <defs>
     <path id="md6f4dda0e2" d="M 250.462182 -387.7555 
L 250.462182 -55.1155 
L 253.24754 -55.1155 
L 253.24754 -387.7555 
L 253.24754 -387.7555 
L 250.462182 -387.7555 
z
"/>
    </defs>
    <g clip-path="url(#p2043e16d32)">
     <use xlink:href="#md6f4dda0e2" x="0" y="398.34866" style="fill: #d95f02; fill-opacity: 0.2"/>
    </g>
   </g>
   <g id="PolyCollection_71">
    <defs>
     <path id="meaede11cfb" d="M 253.24754 -387.7555 
L 253.24754 -55.1155 
L 256.032898 -55.1155 
L 256.032898 -387.7555 
L 256.032898 -387.7555 
L 253.24754 -387.7555 
z
"/>
    </defs>
    <g clip-path="url(#p2043e16d32)">
     <use xlink:href="#meaede11cfb" x="0" y="398.34866" style="fill: #d95f02; fill-opacity: 0.2"/>
    </g>
   </g>
   <g id="PolyCollection_72">
    <defs>
     <path id="m85eea6cd12" d="M 256.032898 -387.7555 
L 256.032898 -55.1155 
L 258.818255 -55.1155 
L 258.818255 -387.7555 
L 258.818255 -387.7555 
L 256.032898 -387.7555 
z
"/>
    </defs>
    <g clip-path="url(#p2043e16d32)">
     <use xlink:href="#m85eea6cd12" x="0" y="398.34866" style="fill: #d95f02; fill-opacity: 0.2"/>
    </g>
   </g>
   <g id="PolyCollection_73">
    <defs>
     <path id="m71f02c5b9d" d="M 258.818255 -387.7555 
L 258.818255 -55.1155 
L 261.603613 -55.1155 
L 261.603613 -387.7555 
L 261.603613 -387.7555 
L 258.818255 -387.7555 
z
"/>
    </defs>
    <g clip-path="url(#p2043e16d32)">
     <use xlink:href="#m71f02c5b9d" x="0" y="398.34866" style="fill: #d95f02; fill-opacity: 0.2"/>
    </g>
   </g>
   <g id="PolyCollection_74">
    <defs>
     <path id="md5ead6938e" d="M 261.603613 -387.7555 
L 261.603613 -55.1155 
L 264.388971 -55.1155 
L 264.388971 -387.7555 
L 264.388971 -387.7555 
L 261.603613 -387.7555 
z
"/>
    </defs>
    <g clip-path="url(#p2043e16d32)">
     <use xlink:href="#md5ead6938e" x="0" y="398.34866" style="fill: #d95f02; fill-opacity: 0.2"/>
    </g>
   </g>
   <g id="PolyCollection_75">
    <defs>
     <path id="mf1153afb98" d="M 264.388971 -387.7555 
L 264.388971 -55.1155 
L 267.174329 -55.1155 
L 267.174329 -387.7555 
L 267.174329 -387.7555 
L 264.388971 -387.7555 
z
"/>
    </defs>
    <g clip-path="url(#p2043e16d32)">
     <use xlink:href="#mf1153afb98" x="0" y="398.34866" style="fill: #d95f02; fill-opacity: 0.2"/>
    </g>
   </g>
   <g id="PolyCollection_76">
    <defs>
     <path id="ma7a69e42f6" d="M 267.174329 -387.7555 
L 267.174329 -55.1155 
L 269.959686 -55.1155 
L 269.959686 -387.7555 
L 269.959686 -387.7555 
L 267.174329 -387.7555 
z
"/>
    </defs>
    <g clip-path="url(#p2043e16d32)">
     <use xlink:href="#ma7a69e42f6" x="0" y="398.34866" style="fill: #d95f02; fill-opacity: 0.2"/>
    </g>
   </g>
   <g id="PolyCollection_77">
    <defs>
     <path id="mda3515bc98" d="M 269.959686 -387.7555 
L 269.959686 -55.1155 
L 272.745044 -55.1155 
L 272.745044 -387.7555 
L 272.745044 -387.7555 
L 269.959686 -387.7555 
z
"/>
    </defs>
    <g clip-path="url(#p2043e16d32)">
     <use xlink:href="#mda3515bc98" x="0" y="398.34866" style="fill: #d95f02; fill-opacity: 0.2"/>
    </g>
   </g>
   <g id="PolyCollection_78">
    <defs>
     <path id="m8b329b067d" d="M 272.745044 -387.7555 
L 272.745044 -55.1155 
L 275.530402 -55.1155 
L 275.530402 -387.7555 
L 275.530402 -387.7555 
L 272.745044 -387.7555 
z
"/>
    </defs>
    <g clip-path="url(#p2043e16d32)">
     <use xlink:href="#m8b329b067d" x="0" y="398.34866" style="fill: #1b9e77; fill-opacity: 0.2"/>
    </g>
   </g>
   <g id="PolyCollection_79">
    <defs>
     <path id="m4260e6fe13" d="M 275.530402 -387.7555 
L 275.530402 -55.1155 
L 278.31576 -55.1155 
L 278.31576 -387.7555 
L 278.31576 -387.7555 
L 275.530402 -387.7555 
z
"/>
    </defs>
    <g clip-path="url(#p2043e16d32)">
     <use xlink:href="#m4260e6fe13" x="0" y="398.34866" style="fill: #d95f02; fill-opacity: 0.2"/>
    </g>
   </g>
   <g id="PolyCollection_80">
    <defs>
     <path id="m5d3e5a1c03" d="M 278.31576 -387.7555 
L 278.31576 -55.1155 
L 281.101117 -55.1155 
L 281.101117 -387.7555 
L 281.101117 -387.7555 
L 278.31576 -387.7555 
z
"/>
    </defs>
    <g clip-path="url(#p2043e16d32)">
     <use xlink:href="#m5d3e5a1c03" x="0" y="398.34866" style="fill: #d95f02; fill-opacity: 0.2"/>
    </g>
   </g>
   <g id="PolyCollection_81">
    <defs>
     <path id="m2b869d2d5d" d="M 281.101117 -387.7555 
L 281.101117 -55.1155 
L 283.886475 -55.1155 
L 283.886475 -387.7555 
L 283.886475 -387.7555 
L 281.101117 -387.7555 
z
"/>
    </defs>
    <g clip-path="url(#p2043e16d32)">
     <use xlink:href="#m2b869d2d5d" x="0" y="398.34866" style="fill: #d95f02; fill-opacity: 0.2"/>
    </g>
   </g>
   <g id="PolyCollection_82">
    <defs>
     <path id="m7dfe559f44" d="M 283.886475 -387.7555 
L 283.886475 -55.1155 
L 286.671833 -55.1155 
L 286.671833 -387.7555 
L 286.671833 -387.7555 
L 283.886475 -387.7555 
z
"/>
    </defs>
    <g clip-path="url(#p2043e16d32)">
     <use xlink:href="#m7dfe559f44" x="0" y="398.34866" style="fill: #d95f02; fill-opacity: 0.2"/>
    </g>
   </g>
   <g id="PolyCollection_83">
    <defs>
     <path id="m6ad80e8185" d="M 286.671833 -387.7555 
L 286.671833 -55.1155 
L 289.457191 -55.1155 
L 289.457191 -387.7555 
L 289.457191 -387.7555 
L 286.671833 -387.7555 
z
"/>
    </defs>
    <g clip-path="url(#p2043e16d32)">
     <use xlink:href="#m6ad80e8185" x="0" y="398.34866" style="fill: #d95f02; fill-opacity: 0.2"/>
    </g>
   </g>
   <g id="PolyCollection_84">
    <defs>
     <path id="m4abda76aa0" d="M 289.457191 -387.7555 
L 289.457191 -55.1155 
L 292.242548 -55.1155 
L 292.242548 -387.7555 
L 292.242548 -387.7555 
L 289.457191 -387.7555 
z
"/>
    </defs>
    <g clip-path="url(#p2043e16d32)">
     <use xlink:href="#m4abda76aa0" x="0" y="398.34866" style="fill: #d95f02; fill-opacity: 0.2"/>
    </g>
   </g>
   <g id="PolyCollection_85">
    <defs>
     <path id="m680823e3bd" d="M 292.242548 -387.7555 
L 292.242548 -55.1155 
L 295.027906 -55.1155 
L 295.027906 -387.7555 
L 295.027906 -387.7555 
L 292.242548 -387.7555 
z
"/>
    </defs>
    <g clip-path="url(#p2043e16d32)">
     <use xlink:href="#m680823e3bd" x="0" y="398.34866" style="fill: #d95f02; fill-opacity: 0.2"/>
    </g>
   </g>
   <g id="PolyCollection_86">
    <defs>
     <path id="m70d31eb210" d="M 295.027906 -387.7555 
L 295.027906 -55.1155 
L 297.813264 -55.1155 
L 297.813264 -387.7555 
L 297.813264 -387.7555 
L 295.027906 -387.7555 
z
"/>
    </defs>
    <g clip-path="url(#p2043e16d32)">
     <use xlink:href="#m70d31eb210" x="0" y="398.34866" style="fill: #d95f02; fill-opacity: 0.2"/>
    </g>
   </g>
   <g id="PolyCollection_87">
    <defs>
     <path id="m6d034c5a48" d="M 297.813264 -387.7555 
L 297.813264 -55.1155 
L 300.598621 -55.1155 
L 300.598621 -387.7555 
L 300.598621 -387.7555 
L 297.813264 -387.7555 
z
"/>
    </defs>
    <g clip-path="url(#p2043e16d32)">
     <use xlink:href="#m6d034c5a48" x="0" y="398.34866" style="fill: #d95f02; fill-opacity: 0.2"/>
    </g>
   </g>
   <g id="PolyCollection_88">
    <defs>
     <path id="mb5722bbb8e" d="M 300.598621 -387.7555 
L 300.598621 -55.1155 
L 303.383979 -55.1155 
L 303.383979 -387.7555 
L 303.383979 -387.7555 
L 300.598621 -387.7555 
z
"/>
    </defs>
    <g clip-path="url(#p2043e16d32)">
     <use xlink:href="#mb5722bbb8e" x="0" y="398.34866" style="fill: #d95f02; fill-opacity: 0.2"/>
    </g>
   </g>
   <g id="PolyCollection_89">
    <defs>
     <path id="m04faeb9638" d="M 303.383979 -387.7555 
L 303.383979 -55.1155 
L 306.169337 -55.1155 
L 306.169337 -387.7555 
L 306.169337 -387.7555 
L 303.383979 -387.7555 
z
"/>
    </defs>
    <g clip-path="url(#p2043e16d32)">
     <use xlink:href="#m04faeb9638" x="0" y="398.34866" style="fill: #d95f02; fill-opacity: 0.2"/>
    </g>
   </g>
   <g id="PolyCollection_90">
    <defs>
     <path id="mb8281061c3" d="M 306.169337 -387.7555 
L 306.169337 -55.1155 
L 308.954695 -55.1155 
L 308.954695 -387.7555 
L 308.954695 -387.7555 
L 306.169337 -387.7555 
z
"/>
    </defs>
    <g clip-path="url(#p2043e16d32)">
     <use xlink:href="#mb8281061c3" x="0" y="398.34866" style="fill: #d95f02; fill-opacity: 0.2"/>
    </g>
   </g>
   <g id="PolyCollection_91">
    <defs>
     <path id="mcfe6b7404c" d="M 308.954695 -387.7555 
L 308.954695 -55.1155 
L 311.740052 -55.1155 
L 311.740052 -387.7555 
L 311.740052 -387.7555 
L 308.954695 -387.7555 
z
"/>
    </defs>
    <g clip-path="url(#p2043e16d32)">
     <use xlink:href="#mcfe6b7404c" x="0" y="398.34866" style="fill: #d95f02; fill-opacity: 0.2"/>
    </g>
   </g>
   <g id="PolyCollection_92">
    <defs>
     <path id="mbec33da544" d="M 311.740052 -387.7555 
L 311.740052 -55.1155 
L 314.52541 -55.1155 
L 314.52541 -387.7555 
L 314.52541 -387.7555 
L 311.740052 -387.7555 
z
"/>
    </defs>
    <g clip-path="url(#p2043e16d32)">
     <use xlink:href="#mbec33da544" x="0" y="398.34866" style="fill: #d95f02; fill-opacity: 0.2"/>
    </g>
   </g>
   <g id="PolyCollection_93">
    <defs>
     <path id="m39c118ff40" d="M 314.52541 -387.7555 
L 314.52541 -55.1155 
L 317.310768 -55.1155 
L 317.310768 -387.7555 
L 317.310768 -387.7555 
L 314.52541 -387.7555 
z
"/>
    </defs>
    <g clip-path="url(#p2043e16d32)">
     <use xlink:href="#m39c118ff40" x="0" y="398.34866" style="fill: #d95f02; fill-opacity: 0.2"/>
    </g>
   </g>
   <g id="PolyCollection_94">
    <defs>
     <path id="maf324a3b5a" d="M 317.310768 -387.7555 
L 317.310768 -55.1155 
L 320.096126 -55.1155 
L 320.096126 -387.7555 
L 320.096126 -387.7555 
L 317.310768 -387.7555 
z
"/>
    </defs>
    <g clip-path="url(#p2043e16d32)">
     <use xlink:href="#maf324a3b5a" x="0" y="398.34866" style="fill: #d95f02; fill-opacity: 0.2"/>
    </g>
   </g>
   <g id="PolyCollection_95">
    <defs>
     <path id="me5e89e680c" d="M 320.096126 -387.7555 
L 320.096126 -55.1155 
L 322.881483 -55.1155 
L 322.881483 -387.7555 
L 322.881483 -387.7555 
L 320.096126 -387.7555 
z
"/>
    </defs>
    <g clip-path="url(#p2043e16d32)">
     <use xlink:href="#me5e89e680c" x="0" y="398.34866" style="fill: #1b9e77; fill-opacity: 0.2"/>
    </g>
   </g>
   <g id="PolyCollection_96">
    <defs>
     <path id="mb8e3eddd74" d="M 322.881483 -387.7555 
L 322.881483 -55.1155 
L 325.666841 -55.1155 
L 325.666841 -387.7555 
L 325.666841 -387.7555 
L 322.881483 -387.7555 
z
"/>
    </defs>
    <g clip-path="url(#p2043e16d32)">
     <use xlink:href="#mb8e3eddd74" x="0" y="398.34866" style="fill: #d95f02; fill-opacity: 0.2"/>
    </g>
   </g>
   <g id="PolyCollection_97">
    <defs>
     <path id="mc3caee35b2" d="M 325.666841 -387.7555 
L 325.666841 -55.1155 
L 328.452199 -55.1155 
L 328.452199 -387.7555 
L 328.452199 -387.7555 
L 325.666841 -387.7555 
z
"/>
    </defs>
    <g clip-path="url(#p2043e16d32)">
     <use xlink:href="#mc3caee35b2" x="0" y="398.34866" style="fill: #d95f02; fill-opacity: 0.2"/>
    </g>
   </g>
   <g id="PolyCollection_98">
    <defs>
     <path id="m98992cba9f" d="M 328.452199 -387.7555 
L 328.452199 -55.1155 
L 331.237557 -55.1155 
L 331.237557 -387.7555 
L 331.237557 -387.7555 
L 328.452199 -387.7555 
z
"/>
    </defs>
    <g clip-path="url(#p2043e16d32)">
     <use xlink:href="#m98992cba9f" x="0" y="398.34866" style="fill: #1b9e77; fill-opacity: 0.2"/>
    </g>
   </g>
   <g id="PolyCollection_99">
    <defs>
     <path id="m0bc1f72d56" d="M 331.237557 -387.7555 
L 331.237557 -55.1155 
L 334.022914 -55.1155 
L 334.022914 -387.7555 
L 334.022914 -387.7555 
L 331.237557 -387.7555 
z
"/>
    </defs>
    <g clip-path="url(#p2043e16d32)">
     <use xlink:href="#m0bc1f72d56" x="0" y="398.34866" style="fill: #d95f02; fill-opacity: 0.2"/>
    </g>
   </g>
   <g id="PolyCollection_100">
    <defs>
     <path id="mb6bde41277" d="M 334.022914 -387.7555 
L 334.022914 -55.1155 
L 336.808272 -55.1155 
L 336.808272 -387.7555 
L 336.808272 -387.7555 
L 334.022914 -387.7555 
z
"/>
    </defs>
    <g clip-path="url(#p2043e16d32)">
     <use xlink:href="#mb6bde41277" x="0" y="398.34866" style="fill: #d95f02; fill-opacity: 0.2"/>
    </g>
   </g>
   <g id="PolyCollection_101">
    <defs>
     <path id="me3257f6e89" d="M 336.808272 -387.7555 
L 336.808272 -55.1155 
L 339.59363 -55.1155 
L 339.59363 -387.7555 
L 339.59363 -387.7555 
L 336.808272 -387.7555 
z
"/>
    </defs>
    <g clip-path="url(#p2043e16d32)">
     <use xlink:href="#me3257f6e89" x="0" y="398.34866" style="fill: #d95f02; fill-opacity: 0.2"/>
    </g>
   </g>
   <g id="PolyCollection_102">
    <defs>
     <path id="m327846160a" d="M 339.59363 -387.7555 
L 339.59363 -55.1155 
L 342.378988 -55.1155 
L 342.378988 -387.7555 
L 342.378988 -387.7555 
L 339.59363 -387.7555 
z
"/>
    </defs>
    <g clip-path="url(#p2043e16d32)">
     <use xlink:href="#m327846160a" x="0" y="398.34866" style="fill: #1b9e77; fill-opacity: 0.2"/>
    </g>
   </g>
   <g id="PolyCollection_103">
    <defs>
     <path id="m63d33b749c" d="M 342.378988 -387.7555 
L 342.378988 -55.1155 
L 345.164345 -55.1155 
L 345.164345 -387.7555 
L 345.164345 -387.7555 
L 342.378988 -387.7555 
z
"/>
    </defs>
    <g clip-path="url(#p2043e16d32)">
     <use xlink:href="#m63d33b749c" x="0" y="398.34866" style="fill: #d95f02; fill-opacity: 0.2"/>
    </g>
   </g>
   <g id="PolyCollection_104">
    <defs>
     <path id="m6468151201" d="M 345.164345 -387.7555 
L 345.164345 -55.1155 
L 347.949703 -55.1155 
L 347.949703 -387.7555 
L 347.949703 -387.7555 
L 345.164345 -387.7555 
z
"/>
    </defs>
    <g clip-path="url(#p2043e16d32)">
     <use xlink:href="#m6468151201" x="0" y="398.34866" style="fill: #d95f02; fill-opacity: 0.2"/>
    </g>
   </g>
   <g id="PolyCollection_105">
    <defs>
     <path id="mda52c8a6e8" d="M 347.949703 -387.7555 
L 347.949703 -55.1155 
L 350.735061 -55.1155 
L 350.735061 -387.7555 
L 350.735061 -387.7555 
L 347.949703 -387.7555 
z
"/>
    </defs>
    <g clip-path="url(#p2043e16d32)">
     <use xlink:href="#mda52c8a6e8" x="0" y="398.34866" style="fill: #d95f02; fill-opacity: 0.2"/>
    </g>
   </g>
   <g id="PolyCollection_106">
    <defs>
     <path id="m7e485040e2" d="M 350.735061 -387.7555 
L 350.735061 -55.1155 
L 353.520418 -55.1155 
L 353.520418 -387.7555 
L 353.520418 -387.7555 
L 350.735061 -387.7555 
z
"/>
    </defs>
    <g clip-path="url(#p2043e16d32)">
     <use xlink:href="#m7e485040e2" x="0" y="398.34866" style="fill: #d95f02; fill-opacity: 0.2"/>
    </g>
   </g>
   <g id="PolyCollection_107">
    <defs>
     <path id="m342ceb047d" d="M 353.520418 -387.7555 
L 353.520418 -55.1155 
L 356.305776 -55.1155 
L 356.305776 -387.7555 
L 356.305776 -387.7555 
L 353.520418 -387.7555 
z
"/>
    </defs>
    <g clip-path="url(#p2043e16d32)">
     <use xlink:href="#m342ceb047d" x="0" y="398.34866" style="fill: #d95f02; fill-opacity: 0.2"/>
    </g>
   </g>
   <g id="PolyCollection_108">
    <defs>
     <path id="ma522cf6f8c" d="M 356.305776 -387.7555 
L 356.305776 -55.1155 
L 359.091134 -55.1155 
L 359.091134 -387.7555 
L 359.091134 -387.7555 
L 356.305776 -387.7555 
z
"/>
    </defs>
    <g clip-path="url(#p2043e16d32)">
     <use xlink:href="#ma522cf6f8c" x="0" y="398.34866" style="fill: #d95f02; fill-opacity: 0.2"/>
    </g>
   </g>
   <g id="PolyCollection_109">
    <defs>
     <path id="m1be39004cc" d="M 359.091134 -387.7555 
L 359.091134 -55.1155 
L 361.876492 -55.1155 
L 361.876492 -387.7555 
L 361.876492 -387.7555 
L 359.091134 -387.7555 
z
"/>
    </defs>
    <g clip-path="url(#p2043e16d32)">
     <use xlink:href="#m1be39004cc" x="0" y="398.34866" style="fill: #d95f02; fill-opacity: 0.2"/>
    </g>
   </g>
   <g id="PolyCollection_110">
    <defs>
     <path id="mddf9a8e7fd" d="M 361.876492 -387.7555 
L 361.876492 -55.1155 
L 364.661849 -55.1155 
L 364.661849 -387.7555 
L 364.661849 -387.7555 
L 361.876492 -387.7555 
z
"/>
    </defs>
    <g clip-path="url(#p2043e16d32)">
     <use xlink:href="#mddf9a8e7fd" x="0" y="398.34866" style="fill: #d95f02; fill-opacity: 0.2"/>
    </g>
   </g>
   <g id="PolyCollection_111">
    <defs>
     <path id="mbb2b75f630" d="M 364.661849 -387.7555 
L 364.661849 -55.1155 
L 367.447207 -55.1155 
L 367.447207 -387.7555 
L 367.447207 -387.7555 
L 364.661849 -387.7555 
z
"/>
    </defs>
    <g clip-path="url(#p2043e16d32)">
     <use xlink:href="#mbb2b75f630" x="0" y="398.34866" style="fill: #1b9e77; fill-opacity: 0.2"/>
    </g>
   </g>
   <g id="PolyCollection_112">
    <defs>
     <path id="m5ed4937bbb" d="M 367.447207 -387.7555 
L 367.447207 -55.1155 
L 370.232565 -55.1155 
L 370.232565 -387.7555 
L 370.232565 -387.7555 
L 367.447207 -387.7555 
z
"/>
    </defs>
    <g clip-path="url(#p2043e16d32)">
     <use xlink:href="#m5ed4937bbb" x="0" y="398.34866" style="fill: #1b9e77; fill-opacity: 0.2"/>
    </g>
   </g>
   <g id="PolyCollection_113">
    <defs>
     <path id="m75ab3136ec" d="M 370.232565 -387.7555 
L 370.232565 -55.1155 
L 373.017923 -55.1155 
L 373.017923 -387.7555 
L 373.017923 -387.7555 
L 370.232565 -387.7555 
z
"/>
    </defs>
    <g clip-path="url(#p2043e16d32)">
     <use xlink:href="#m75ab3136ec" x="0" y="398.34866" style="fill: #d95f02; fill-opacity: 0.2"/>
    </g>
   </g>
   <g id="PolyCollection_114">
    <defs>
     <path id="ma2b45470fd" d="M 373.017923 -387.7555 
L 373.017923 -55.1155 
L 375.80328 -55.1155 
L 375.80328 -387.7555 
L 375.80328 -387.7555 
L 373.017923 -387.7555 
z
"/>
    </defs>
    <g clip-path="url(#p2043e16d32)">
     <use xlink:href="#ma2b45470fd" x="0" y="398.34866" style="fill: #d95f02; fill-opacity: 0.2"/>
    </g>
   </g>
   <g id="PolyCollection_115">
    <defs>
     <path id="me99a93af0d" d="M 375.80328 -387.7555 
L 375.80328 -55.1155 
L 378.588638 -55.1155 
L 378.588638 -387.7555 
L 378.588638 -387.7555 
L 375.80328 -387.7555 
z
"/>
    </defs>
    <g clip-path="url(#p2043e16d32)">
     <use xlink:href="#me99a93af0d" x="0" y="398.34866" style="fill: #1b9e77; fill-opacity: 0.2"/>
    </g>
   </g>
   <g id="PolyCollection_116">
    <defs>
     <path id="mfa5ae65f06" d="M 378.588638 -387.7555 
L 378.588638 -55.1155 
L 381.373996 -55.1155 
L 381.373996 -387.7555 
L 381.373996 -387.7555 
L 378.588638 -387.7555 
z
"/>
    </defs>
    <g clip-path="url(#p2043e16d32)">
     <use xlink:href="#mfa5ae65f06" x="0" y="398.34866" style="fill: #1b9e77; fill-opacity: 0.2"/>
    </g>
   </g>
   <g id="PolyCollection_117">
    <defs>
     <path id="m048d78a8bf" d="M 381.373996 -387.7555 
L 381.373996 -55.1155 
L 384.159354 -55.1155 
L 384.159354 -387.7555 
L 384.159354 -387.7555 
L 381.373996 -387.7555 
z
"/>
    </defs>
    <g clip-path="url(#p2043e16d32)">
     <use xlink:href="#m048d78a8bf" x="0" y="398.34866" style="fill: #d95f02; fill-opacity: 0.2"/>
    </g>
   </g>
   <g id="PolyCollection_118">
    <defs>
     <path id="mb4728b9085" d="M 384.159354 -387.7555 
L 384.159354 -55.1155 
L 386.944711 -55.1155 
L 386.944711 -387.7555 
L 386.944711 -387.7555 
L 384.159354 -387.7555 
z
"/>
    </defs>
    <g clip-path="url(#p2043e16d32)">
     <use xlink:href="#mb4728b9085" x="0" y="398.34866" style="fill: #d95f02; fill-opacity: 0.2"/>
    </g>
   </g>
   <g id="PolyCollection_119">
    <defs>
     <path id="m3543417622" d="M 386.944711 -387.7555 
L 386.944711 -55.1155 
L 389.730069 -55.1155 
L 389.730069 -387.7555 
L 389.730069 -387.7555 
L 386.944711 -387.7555 
z
"/>
    </defs>
    <g clip-path="url(#p2043e16d32)">
     <use xlink:href="#m3543417622" x="0" y="398.34866" style="fill: #1b9e77; fill-opacity: 0.2"/>
    </g>
   </g>
   <g id="PolyCollection_120">
    <defs>
     <path id="mba34e3e70f" d="M 389.730069 -387.7555 
L 389.730069 -55.1155 
L 392.515427 -55.1155 
L 392.515427 -387.7555 
L 392.515427 -387.7555 
L 389.730069 -387.7555 
z
"/>
    </defs>
    <g clip-path="url(#p2043e16d32)">
     <use xlink:href="#mba34e3e70f" x="0" y="398.34866" style="fill: #d95f02; fill-opacity: 0.2"/>
    </g>
   </g>
   <g id="PolyCollection_121">
    <defs>
     <path id="mdcf27109ba" d="M 392.515427 -387.7555 
L 392.515427 -55.1155 
L 395.300785 -55.1155 
L 395.300785 -387.7555 
L 395.300785 -387.7555 
L 392.515427 -387.7555 
z
"/>
    </defs>
    <g clip-path="url(#p2043e16d32)">
     <use xlink:href="#mdcf27109ba" x="0" y="398.34866" style="fill: #d95f02; fill-opacity: 0.2"/>
    </g>
   </g>
   <g id="PolyCollection_122">
    <defs>
     <path id="me8147172b7" d="M 395.300785 -387.7555 
L 395.300785 -55.1155 
L 398.086142 -55.1155 
L 398.086142 -387.7555 
L 398.086142 -387.7555 
L 395.300785 -387.7555 
z
"/>
    </defs>
    <g clip-path="url(#p2043e16d32)">
     <use xlink:href="#me8147172b7" x="0" y="398.34866" style="fill: #d95f02; fill-opacity: 0.2"/>
    </g>
   </g>
   <g id="PolyCollection_123">
    <defs>
     <path id="me46428c103" d="M 398.086142 -387.7555 
L 398.086142 -55.1155 
L 400.8715 -55.1155 
L 400.8715 -387.7555 
L 400.8715 -387.7555 
L 398.086142 -387.7555 
z
"/>
    </defs>
    <g clip-path="url(#p2043e16d32)">
     <use xlink:href="#me46428c103" x="0" y="398.34866" style="fill: #1b9e77; fill-opacity: 0.2"/>
    </g>
   </g>
   <g id="PolyCollection_124">
    <defs>
     <path id="m301100f0f5" d="M 400.8715 -387.7555 
L 400.8715 -55.1155 
L 403.656858 -55.1155 
L 403.656858 -387.7555 
L 403.656858 -387.7555 
L 400.8715 -387.7555 
z
"/>
    </defs>
    <g clip-path="url(#p2043e16d32)">
     <use xlink:href="#m301100f0f5" x="0" y="398.34866" style="fill: #1b9e77; fill-opacity: 0.2"/>
    </g>
   </g>
   <g id="PolyCollection_125">
    <defs>
     <path id="m130a92b7e5" d="M 403.656858 -387.7555 
L 403.656858 -55.1155 
L 406.442215 -55.1155 
L 406.442215 -387.7555 
L 406.442215 -387.7555 
L 403.656858 -387.7555 
z
"/>
    </defs>
    <g clip-path="url(#p2043e16d32)">
     <use xlink:href="#m130a92b7e5" x="0" y="398.34866" style="fill: #1b9e77; fill-opacity: 0.2"/>
    </g>
   </g>
   <g id="PolyCollection_126">
    <defs>
     <path id="mc92de823ce" d="M 406.442215 -387.7555 
L 406.442215 -55.1155 
L 409.227573 -55.1155 
L 409.227573 -387.7555 
L 409.227573 -387.7555 
L 406.442215 -387.7555 
z
"/>
    </defs>
    <g clip-path="url(#p2043e16d32)">
     <use xlink:href="#mc92de823ce" x="0" y="398.34866" style="fill: #d95f02; fill-opacity: 0.2"/>
    </g>
   </g>
   <g id="PolyCollection_127">
    <defs>
     <path id="me6fcccc3a7" d="M 409.227573 -387.7555 
L 409.227573 -55.1155 
L 412.012931 -55.1155 
L 412.012931 -387.7555 
L 412.012931 -387.7555 
L 409.227573 -387.7555 
z
"/>
    </defs>
    <g clip-path="url(#p2043e16d32)">
     <use xlink:href="#me6fcccc3a7" x="0" y="398.34866" style="fill: #d95f02; fill-opacity: 0.2"/>
    </g>
   </g>
   <g id="PolyCollection_128">
    <defs>
     <path id="m5205f5e69a" d="M 412.012931 -387.7555 
L 412.012931 -55.1155 
L 414.798289 -55.1155 
L 414.798289 -387.7555 
L 414.798289 -387.7555 
L 412.012931 -387.7555 
z
"/>
    </defs>
    <g clip-path="url(#p2043e16d32)">
     <use xlink:href="#m5205f5e69a" x="0" y="398.34866" style="fill: #d95f02; fill-opacity: 0.2"/>
    </g>
   </g>
   <g id="PolyCollection_129">
    <defs>
     <path id="m9496d7281a" d="M 414.798289 -387.7555 
L 414.798289 -55.1155 
L 417.583646 -55.1155 
L 417.583646 -387.7555 
L 417.583646 -387.7555 
L 414.798289 -387.7555 
z
"/>
    </defs>
    <g clip-path="url(#p2043e16d32)">
     <use xlink:href="#m9496d7281a" x="0" y="398.34866" style="fill: #d95f02; fill-opacity: 0.2"/>
    </g>
   </g>
   <g id="PolyCollection_130">
    <defs>
     <path id="m3ecf5825c5" d="M 417.583646 -387.7555 
L 417.583646 -55.1155 
L 420.369004 -55.1155 
L 420.369004 -387.7555 
L 420.369004 -387.7555 
L 417.583646 -387.7555 
z
"/>
    </defs>
    <g clip-path="url(#p2043e16d32)">
     <use xlink:href="#m3ecf5825c5" x="0" y="398.34866" style="fill: #d95f02; fill-opacity: 0.2"/>
    </g>
   </g>
   <g id="PolyCollection_131">
    <defs>
     <path id="m1225729429" d="M 420.369004 -387.7555 
L 420.369004 -55.1155 
L 423.154362 -55.1155 
L 423.154362 -387.7555 
L 423.154362 -387.7555 
L 420.369004 -387.7555 
z
"/>
    </defs>
    <g clip-path="url(#p2043e16d32)">
     <use xlink:href="#m1225729429" x="0" y="398.34866" style="fill: #d95f02; fill-opacity: 0.2"/>
    </g>
   </g>
   <g id="PolyCollection_132">
    <defs>
     <path id="m0ea5d9857d" d="M 423.154362 -387.7555 
L 423.154362 -55.1155 
L 425.93972 -55.1155 
L 425.93972 -387.7555 
L 425.93972 -387.7555 
L 423.154362 -387.7555 
z
"/>
    </defs>
    <g clip-path="url(#p2043e16d32)">
     <use xlink:href="#m0ea5d9857d" x="0" y="398.34866" style="fill: #d95f02; fill-opacity: 0.2"/>
    </g>
   </g>
   <g id="PolyCollection_133">
    <defs>
     <path id="m76a91f9a71" d="M 425.93972 -387.7555 
L 425.93972 -55.1155 
L 428.725077 -55.1155 
L 428.725077 -387.7555 
L 428.725077 -387.7555 
L 425.93972 -387.7555 
z
"/>
    </defs>
    <g clip-path="url(#p2043e16d32)">
     <use xlink:href="#m76a91f9a71" x="0" y="398.34866" style="fill: #d95f02; fill-opacity: 0.2"/>
    </g>
   </g>
   <g id="PolyCollection_134">
    <defs>
     <path id="m9a54f1e0ed" d="M 428.725077 -387.7555 
L 428.725077 -55.1155 
L 431.510435 -55.1155 
L 431.510435 -387.7555 
L 431.510435 -387.7555 
L 428.725077 -387.7555 
z
"/>
    </defs>
    <g clip-path="url(#p2043e16d32)">
     <use xlink:href="#m9a54f1e0ed" x="0" y="398.34866" style="fill: #d95f02; fill-opacity: 0.2"/>
    </g>
   </g>
   <g id="PolyCollection_135">
    <defs>
     <path id="m128bba06f3" d="M 431.510435 -387.7555 
L 431.510435 -55.1155 
L 434.295793 -55.1155 
L 434.295793 -387.7555 
L 434.295793 -387.7555 
L 431.510435 -387.7555 
z
"/>
    </defs>
    <g clip-path="url(#p2043e16d32)">
     <use xlink:href="#m128bba06f3" x="0" y="398.34866" style="fill: #1b9e77; fill-opacity: 0.2"/>
    </g>
   </g>
   <g id="PolyCollection_136">
    <defs>
     <path id="m53b5816261" d="M 434.295793 -387.7555 
L 434.295793 -55.1155 
L 437.081151 -55.1155 
L 437.081151 -387.7555 
L 437.081151 -387.7555 
L 434.295793 -387.7555 
z
"/>
    </defs>
    <g clip-path="url(#p2043e16d32)">
     <use xlink:href="#m53b5816261" x="0" y="398.34866" style="fill: #d95f02; fill-opacity: 0.2"/>
    </g>
   </g>
   <g id="PolyCollection_137">
    <defs>
     <path id="m005613bdbb" d="M 437.081151 -387.7555 
L 437.081151 -55.1155 
L 439.866508 -55.1155 
L 439.866508 -387.7555 
L 439.866508 -387.7555 
L 437.081151 -387.7555 
z
"/>
    </defs>
    <g clip-path="url(#p2043e16d32)">
     <use xlink:href="#m005613bdbb" x="0" y="398.34866" style="fill: #d95f02; fill-opacity: 0.2"/>
    </g>
   </g>
   <g id="PolyCollection_138">
    <defs>
     <path id="m2e2059a7e2" d="M 439.866508 -387.7555 
L 439.866508 -55.1155 
L 442.651866 -55.1155 
L 442.651866 -387.7555 
L 442.651866 -387.7555 
L 439.866508 -387.7555 
z
"/>
    </defs>
    <g clip-path="url(#p2043e16d32)">
     <use xlink:href="#m2e2059a7e2" x="0" y="398.34866" style="fill: #d95f02; fill-opacity: 0.2"/>
    </g>
   </g>
   <g id="PolyCollection_139">
    <defs>
     <path id="m5aed1c55ae" d="M 442.651866 -387.7555 
L 442.651866 -55.1155 
L 445.437224 -55.1155 
L 445.437224 -387.7555 
L 445.437224 -387.7555 
L 442.651866 -387.7555 
z
"/>
    </defs>
    <g clip-path="url(#p2043e16d32)">
     <use xlink:href="#m5aed1c55ae" x="0" y="398.34866" style="fill: #d95f02; fill-opacity: 0.2"/>
    </g>
   </g>
   <g id="PolyCollection_140">
    <defs>
     <path id="mce60c623af" d="M 445.437224 -387.7555 
L 445.437224 -55.1155 
L 448.222582 -55.1155 
L 448.222582 -387.7555 
L 448.222582 -387.7555 
L 445.437224 -387.7555 
z
"/>
    </defs>
    <g clip-path="url(#p2043e16d32)">
     <use xlink:href="#mce60c623af" x="0" y="398.34866" style="fill: #d95f02; fill-opacity: 0.2"/>
    </g>
   </g>
   <g id="PolyCollection_141">
    <defs>
     <path id="m175e02b7df" d="M 448.222582 -387.7555 
L 448.222582 -55.1155 
L 451.007939 -55.1155 
L 451.007939 -387.7555 
L 451.007939 -387.7555 
L 448.222582 -387.7555 
z
"/>
    </defs>
    <g clip-path="url(#p2043e16d32)">
     <use xlink:href="#m175e02b7df" x="0" y="398.34866" style="fill: #1b9e77; fill-opacity: 0.2"/>
    </g>
   </g>
   <g id="PolyCollection_142">
    <defs>
     <path id="md9986d225e" d="M 451.007939 -387.7555 
L 451.007939 -55.1155 
L 453.793297 -55.1155 
L 453.793297 -387.7555 
L 453.793297 -387.7555 
L 451.007939 -387.7555 
z
"/>
    </defs>
    <g clip-path="url(#p2043e16d32)">
     <use xlink:href="#md9986d225e" x="0" y="398.34866" style="fill: #d95f02; fill-opacity: 0.2"/>
    </g>
   </g>
   <g id="PolyCollection_143">
    <defs>
     <path id="m6f0f3cb6cc" d="M 453.793297 -387.7555 
L 453.793297 -55.1155 
L 456.578655 -55.1155 
L 456.578655 -387.7555 
L 456.578655 -387.7555 
L 453.793297 -387.7555 
z
"/>
    </defs>
    <g clip-path="url(#p2043e16d32)">
     <use xlink:href="#m6f0f3cb6cc" x="0" y="398.34866" style="fill: #1b9e77; fill-opacity: 0.2"/>
    </g>
   </g>
   <g id="PolyCollection_144">
    <defs>
     <path id="m2ed6118c1d" d="M 456.578655 -387.7555 
L 456.578655 -55.1155 
L 459.364012 -55.1155 
L 459.364012 -387.7555 
L 459.364012 -387.7555 
L 456.578655 -387.7555 
z
"/>
    </defs>
    <g clip-path="url(#p2043e16d32)">
     <use xlink:href="#m2ed6118c1d" x="0" y="398.34866" style="fill: #d95f02; fill-opacity: 0.2"/>
    </g>
   </g>
   <g id="PolyCollection_145">
    <defs>
     <path id="m8d83eda467" d="M 459.364012 -387.7555 
L 459.364012 -55.1155 
L 462.14937 -55.1155 
L 462.14937 -387.7555 
L 462.14937 -387.7555 
L 459.364012 -387.7555 
z
"/>
    </defs>
    <g clip-path="url(#p2043e16d32)">
     <use xlink:href="#m8d83eda467" x="0" y="398.34866" style="fill: #d95f02; fill-opacity: 0.2"/>
    </g>
   </g>
   <g id="PolyCollection_146">
    <defs>
     <path id="m7dab0b5408" d="M 462.14937 -387.7555 
L 462.14937 -55.1155 
L 464.934728 -55.1155 
L 464.934728 -387.7555 
L 464.934728 -387.7555 
L 462.14937 -387.7555 
z
"/>
    </defs>
    <g clip-path="url(#p2043e16d32)">
     <use xlink:href="#m7dab0b5408" x="0" y="398.34866" style="fill: #d95f02; fill-opacity: 0.2"/>
    </g>
   </g>
   <g id="PolyCollection_147">
    <defs>
     <path id="ma26ca49ba6" d="M 464.934728 -387.7555 
L 464.934728 -55.1155 
L 467.720086 -55.1155 
L 467.720086 -387.7555 
L 467.720086 -387.7555 
L 464.934728 -387.7555 
z
"/>
    </defs>
    <g clip-path="url(#p2043e16d32)">
     <use xlink:href="#ma26ca49ba6" x="0" y="398.34866" style="fill: #d95f02; fill-opacity: 0.2"/>
    </g>
   </g>
   <g id="PolyCollection_148">
    <defs>
     <path id="m8e966d0f27" d="M 467.720086 -387.7555 
L 467.720086 -55.1155 
L 470.505443 -55.1155 
L 470.505443 -387.7555 
L 470.505443 -387.7555 
L 467.720086 -387.7555 
z
"/>
    </defs>
    <g clip-path="url(#p2043e16d32)">
     <use xlink:href="#m8e966d0f27" x="0" y="398.34866" style="fill: #d95f02; fill-opacity: 0.2"/>
    </g>
   </g>
   <g id="PolyCollection_149">
    <defs>
     <path id="m6d09d8b680" d="M 470.505443 -387.7555 
L 470.505443 -55.1155 
L 473.290801 -55.1155 
L 473.290801 -387.7555 
L 473.290801 -387.7555 
L 470.505443 -387.7555 
z
"/>
    </defs>
    <g clip-path="url(#p2043e16d32)">
     <use xlink:href="#m6d09d8b680" x="0" y="398.34866" style="fill: #1b9e77; fill-opacity: 0.2"/>
    </g>
   </g>
   <g id="PolyCollection_150">
    <defs>
     <path id="m6addc20cfa" d="M 473.290801 -387.7555 
L 473.290801 -55.1155 
L 476.076159 -55.1155 
L 476.076159 -387.7555 
L 476.076159 -387.7555 
L 473.290801 -387.7555 
z
"/>
    </defs>
    <g clip-path="url(#p2043e16d32)">
     <use xlink:href="#m6addc20cfa" x="0" y="398.34866" style="fill: #1b9e77; fill-opacity: 0.2"/>
    </g>
   </g>
   <g id="PolyCollection_151">
    <defs>
     <path id="m4b5c3b8eb5" d="M 476.076159 -387.7555 
L 476.076159 -55.1155 
L 478.861517 -55.1155 
L 478.861517 -387.7555 
L 478.861517 -387.7555 
L 476.076159 -387.7555 
z
"/>
    </defs>
    <g clip-path="url(#p2043e16d32)">
     <use xlink:href="#m4b5c3b8eb5" x="0" y="398.34866" style="fill: #1b9e77; fill-opacity: 0.2"/>
    </g>
   </g>
   <g id="PolyCollection_152">
    <defs>
     <path id="m353ec47b27" d="M 478.861517 -387.7555 
L 478.861517 -55.1155 
L 481.646874 -55.1155 
L 481.646874 -387.7555 
L 481.646874 -387.7555 
L 478.861517 -387.7555 
z
"/>
    </defs>
    <g clip-path="url(#p2043e16d32)">
     <use xlink:href="#m353ec47b27" x="0" y="398.34866" style="fill: #d95f02; fill-opacity: 0.2"/>
    </g>
   </g>
   <g id="PolyCollection_153">
    <defs>
     <path id="mc0f01b1b91" d="M 481.646874 -387.7555 
L 481.646874 -55.1155 
L 484.432232 -55.1155 
L 484.432232 -387.7555 
L 484.432232 -387.7555 
L 481.646874 -387.7555 
z
"/>
    </defs>
    <g clip-path="url(#p2043e16d32)">
     <use xlink:href="#mc0f01b1b91" x="0" y="398.34866" style="fill: #d95f02; fill-opacity: 0.2"/>
    </g>
   </g>
   <g id="PolyCollection_154">
    <defs>
     <path id="mb0feb4c4cc" d="M 484.432232 -387.7555 
L 484.432232 -55.1155 
L 487.21759 -55.1155 
L 487.21759 -387.7555 
L 487.21759 -387.7555 
L 484.432232 -387.7555 
z
"/>
    </defs>
    <g clip-path="url(#p2043e16d32)">
     <use xlink:href="#mb0feb4c4cc" x="0" y="398.34866" style="fill: #d95f02; fill-opacity: 0.2"/>
    </g>
   </g>
   <g id="PolyCollection_155">
    <defs>
     <path id="mca9b74800d" d="M 487.21759 -387.7555 
L 487.21759 -55.1155 
L 490.002948 -55.1155 
L 490.002948 -387.7555 
L 490.002948 -387.7555 
L 487.21759 -387.7555 
z
"/>
    </defs>
    <g clip-path="url(#p2043e16d32)">
     <use xlink:href="#mca9b74800d" x="0" y="398.34866" style="fill: #d95f02; fill-opacity: 0.2"/>
    </g>
   </g>
   <g id="PolyCollection_156">
    <defs>
     <path id="mbd8b9f71ad" d="M 490.002948 -387.7555 
L 490.002948 -55.1155 
L 492.788305 -55.1155 
L 492.788305 -387.7555 
L 492.788305 -387.7555 
L 490.002948 -387.7555 
z
"/>
    </defs>
    <g clip-path="url(#p2043e16d32)">
     <use xlink:href="#mbd8b9f71ad" x="0" y="398.34866" style="fill: #d95f02; fill-opacity: 0.2"/>
    </g>
   </g>
   <g id="PolyCollection_157">
    <defs>
     <path id="m68dc182ab3" d="M 492.788305 -387.7555 
L 492.788305 -55.1155 
L 495.573663 -55.1155 
L 495.573663 -387.7555 
L 495.573663 -387.7555 
L 492.788305 -387.7555 
z
"/>
    </defs>
    <g clip-path="url(#p2043e16d32)">
     <use xlink:href="#m68dc182ab3" x="0" y="398.34866" style="fill: #d95f02; fill-opacity: 0.2"/>
    </g>
   </g>
   <g id="PolyCollection_158">
    <defs>
     <path id="mba65455f65" d="M 495.573663 -387.7555 
L 495.573663 -55.1155 
L 498.359021 -55.1155 
L 498.359021 -387.7555 
L 498.359021 -387.7555 
L 495.573663 -387.7555 
z
"/>
    </defs>
    <g clip-path="url(#p2043e16d32)">
     <use xlink:href="#mba65455f65" x="0" y="398.34866" style="fill: #d95f02; fill-opacity: 0.2"/>
    </g>
   </g>
   <g id="PolyCollection_159">
    <defs>
     <path id="mb96a8d08b8" d="M 498.359021 -387.7555 
L 498.359021 -55.1155 
L 501.144379 -55.1155 
L 501.144379 -387.7555 
L 501.144379 -387.7555 
L 498.359021 -387.7555 
z
"/>
    </defs>
    <g clip-path="url(#p2043e16d32)">
     <use xlink:href="#mb96a8d08b8" x="0" y="398.34866" style="fill: #d95f02; fill-opacity: 0.2"/>
    </g>
   </g>
   <g id="PolyCollection_160">
    <defs>
     <path id="m812d36dce8" d="M 501.144379 -387.7555 
L 501.144379 -55.1155 
L 503.929736 -55.1155 
L 503.929736 -387.7555 
L 503.929736 -387.7555 
L 501.144379 -387.7555 
z
"/>
    </defs>
    <g clip-path="url(#p2043e16d32)">
     <use xlink:href="#m812d36dce8" x="0" y="398.34866" style="fill: #d95f02; fill-opacity: 0.2"/>
    </g>
   </g>
   <g id="PolyCollection_161">
    <defs>
     <path id="mfff046dc7b" d="M 503.929736 -387.7555 
L 503.929736 -55.1155 
L 506.715094 -55.1155 
L 506.715094 -387.7555 
L 506.715094 -387.7555 
L 503.929736 -387.7555 
z
"/>
    </defs>
    <g clip-path="url(#p2043e16d32)">
     <use xlink:href="#mfff046dc7b" x="0" y="398.34866" style="fill: #d95f02; fill-opacity: 0.2"/>
    </g>
   </g>
   <g id="PolyCollection_162">
    <defs>
     <path id="m0f67c49cca" d="M 506.715094 -387.7555 
L 506.715094 -55.1155 
L 509.500452 -55.1155 
L 509.500452 -387.7555 
L 509.500452 -387.7555 
L 506.715094 -387.7555 
z
"/>
    </defs>
    <g clip-path="url(#p2043e16d32)">
     <use xlink:href="#m0f67c49cca" x="0" y="398.34866" style="fill: #d95f02; fill-opacity: 0.2"/>
    </g>
   </g>
   <g id="PolyCollection_163">
    <defs>
     <path id="maa3eee8079" d="M 509.500452 -387.7555 
L 509.500452 -55.1155 
L 512.285809 -55.1155 
L 512.285809 -387.7555 
L 512.285809 -387.7555 
L 509.500452 -387.7555 
z
"/>
    </defs>
    <g clip-path="url(#p2043e16d32)">
     <use xlink:href="#maa3eee8079" x="0" y="398.34866" style="fill: #1b9e77; fill-opacity: 0.2"/>
    </g>
   </g>
   <g id="PolyCollection_164">
    <defs>
     <path id="mf53536d82a" d="M 512.285809 -387.7555 
L 512.285809 -55.1155 
L 515.071167 -55.1155 
L 515.071167 -387.7555 
L 515.071167 -387.7555 
L 512.285809 -387.7555 
z
"/>
    </defs>
    <g clip-path="url(#p2043e16d32)">
     <use xlink:href="#mf53536d82a" x="0" y="398.34866" style="fill: #1b9e77; fill-opacity: 0.2"/>
    </g>
   </g>
   <g id="PolyCollection_165">
    <defs>
     <path id="m71957a1351" d="M 515.071167 -387.7555 
L 515.071167 -55.1155 
L 517.856525 -55.1155 
L 517.856525 -387.7555 
L 517.856525 -387.7555 
L 515.071167 -387.7555 
z
"/>
    </defs>
    <g clip-path="url(#p2043e16d32)">
     <use xlink:href="#m71957a1351" x="0" y="398.34866" style="fill: #1b9e77; fill-opacity: 0.2"/>
    </g>
   </g>
   <g id="PolyCollection_166">
    <defs>
     <path id="mf0c76ad277" d="M 517.856525 -387.7555 
L 517.856525 -55.1155 
L 520.641883 -55.1155 
L 520.641883 -387.7555 
L 520.641883 -387.7555 
L 517.856525 -387.7555 
z
"/>
    </defs>
    <g clip-path="url(#p2043e16d32)">
     <use xlink:href="#mf0c76ad277" x="0" y="398.34866" style="fill: #1b9e77; fill-opacity: 0.2"/>
    </g>
   </g>
   <g id="PolyCollection_167">
    <defs>
     <path id="m313c90cfd9" d="M 520.641883 -387.7555 
L 520.641883 -55.1155 
L 523.42724 -55.1155 
L 523.42724 -387.7555 
L 523.42724 -387.7555 
L 520.641883 -387.7555 
z
"/>
    </defs>
    <g clip-path="url(#p2043e16d32)">
     <use xlink:href="#m313c90cfd9" x="0" y="398.34866" style="fill: #d95f02; fill-opacity: 0.2"/>
    </g>
   </g>
   <g id="PolyCollection_168">
    <defs>
     <path id="m2e433f33a7" d="M 523.42724 -387.7555 
L 523.42724 -55.1155 
L 526.212598 -55.1155 
L 526.212598 -387.7555 
L 526.212598 -387.7555 
L 523.42724 -387.7555 
z
"/>
    </defs>
    <g clip-path="url(#p2043e16d32)">
     <use xlink:href="#m2e433f33a7" x="0" y="398.34866" style="fill: #1b9e77; fill-opacity: 0.2"/>
    </g>
   </g>
   <g id="PolyCollection_169">
    <defs>
     <path id="mc3e7683cff" d="M 526.212598 -387.7555 
L 526.212598 -55.1155 
L 528.997956 -55.1155 
L 528.997956 -387.7555 
L 528.997956 -387.7555 
L 526.212598 -387.7555 
z
"/>
    </defs>
    <g clip-path="url(#p2043e16d32)">
     <use xlink:href="#mc3e7683cff" x="0" y="398.34866" style="fill: #1b9e77; fill-opacity: 0.2"/>
    </g>
   </g>
   <g id="PolyCollection_170">
    <defs>
     <path id="mea6207ef39" d="M 528.997956 -387.7555 
L 528.997956 -55.1155 
L 531.783314 -55.1155 
L 531.783314 -387.7555 
L 531.783314 -387.7555 
L 528.997956 -387.7555 
z
"/>
    </defs>
    <g clip-path="url(#p2043e16d32)">
     <use xlink:href="#mea6207ef39" x="0" y="398.34866" style="fill: #d95f02; fill-opacity: 0.2"/>
    </g>
   </g>
   <g id="PolyCollection_171">
    <defs>
     <path id="m9ee7e2a857" d="M 531.783314 -387.7555 
L 531.783314 -55.1155 
L 534.568671 -55.1155 
L 534.568671 -387.7555 
L 534.568671 -387.7555 
L 531.783314 -387.7555 
z
"/>
    </defs>
    <g clip-path="url(#p2043e16d32)">
     <use xlink:href="#m9ee7e2a857" x="0" y="398.34866" style="fill: #d95f02; fill-opacity: 0.2"/>
    </g>
   </g>
   <g id="PolyCollection_172">
    <defs>
     <path id="m51dcddc522" d="M 534.568671 -387.7555 
L 534.568671 -55.1155 
L 537.354029 -55.1155 
L 537.354029 -387.7555 
L 537.354029 -387.7555 
L 534.568671 -387.7555 
z
"/>
    </defs>
    <g clip-path="url(#p2043e16d32)">
     <use xlink:href="#m51dcddc522" x="0" y="398.34866" style="fill: #d95f02; fill-opacity: 0.2"/>
    </g>
   </g>
   <g id="PolyCollection_173">
    <defs>
     <path id="m46fafe156a" d="M 537.354029 -387.7555 
L 537.354029 -55.1155 
L 540.139387 -55.1155 
L 540.139387 -387.7555 
L 540.139387 -387.7555 
L 537.354029 -387.7555 
z
"/>
    </defs>
    <g clip-path="url(#p2043e16d32)">
     <use xlink:href="#m46fafe156a" x="0" y="398.34866" style="fill: #1b9e77; fill-opacity: 0.2"/>
    </g>
   </g>
   <g id="PolyCollection_174">
    <defs>
     <path id="m36a851593e" d="M 540.139387 -387.7555 
L 540.139387 -55.1155 
L 542.924745 -55.1155 
L 542.924745 -387.7555 
L 542.924745 -387.7555 
L 540.139387 -387.7555 
z
"/>
    </defs>
    <g clip-path="url(#p2043e16d32)">
     <use xlink:href="#m36a851593e" x="0" y="398.34866" style="fill: #d95f02; fill-opacity: 0.2"/>
    </g>
   </g>
   <g id="PolyCollection_175">
    <defs>
     <path id="m5ee835a3d2" d="M 542.924745 -387.7555 
L 542.924745 -55.1155 
L 545.710102 -55.1155 
L 545.710102 -387.7555 
L 545.710102 -387.7555 
L 542.924745 -387.7555 
z
"/>
    </defs>
    <g clip-path="url(#p2043e16d32)">
     <use xlink:href="#m5ee835a3d2" x="0" y="398.34866" style="fill: #d95f02; fill-opacity: 0.2"/>
    </g>
   </g>
   <g id="PolyCollection_176">
    <defs>
     <path id="mdeb6089eb4" d="M 545.710102 -387.7555 
L 545.710102 -55.1155 
L 548.49546 -55.1155 
L 548.49546 -387.7555 
L 548.49546 -387.7555 
L 545.710102 -387.7555 
z
"/>
    </defs>
    <g clip-path="url(#p2043e16d32)">
     <use xlink:href="#mdeb6089eb4" x="0" y="398.34866" style="fill: #d95f02; fill-opacity: 0.2"/>
    </g>
   </g>
   <g id="PolyCollection_177">
    <defs>
     <path id="mdbacfc6a47" d="M 548.49546 -387.7555 
L 548.49546 -55.1155 
L 551.280818 -55.1155 
L 551.280818 -387.7555 
L 551.280818 -387.7555 
L 548.49546 -387.7555 
z
"/>
    </defs>
    <g clip-path="url(#p2043e16d32)">
     <use xlink:href="#mdbacfc6a47" x="0" y="398.34866" style="fill: #1b9e77; fill-opacity: 0.2"/>
    </g>
   </g>
   <g id="PolyCollection_178">
    <defs>
     <path id="m7938d6d4a3" d="M 551.280818 -387.7555 
L 551.280818 -55.1155 
L 554.066176 -55.1155 
L 554.066176 -387.7555 
L 554.066176 -387.7555 
L 551.280818 -387.7555 
z
"/>
    </defs>
    <g clip-path="url(#p2043e16d32)">
     <use xlink:href="#m7938d6d4a3" x="0" y="398.34866" style="fill: #1b9e77; fill-opacity: 0.2"/>
    </g>
   </g>
   <g id="PolyCollection_179">
    <defs>
     <path id="m208b124072" d="M 554.066176 -387.7555 
L 554.066176 -55.1155 
L 556.851533 -55.1155 
L 556.851533 -387.7555 
L 556.851533 -387.7555 
L 554.066176 -387.7555 
z
"/>
    </defs>
    <g clip-path="url(#p2043e16d32)">
     <use xlink:href="#m208b124072" x="0" y="398.34866" style="fill: #d95f02; fill-opacity: 0.2"/>
    </g>
   </g>
   <g id="PolyCollection_180">
    <defs>
     <path id="mae42c2b6d1" d="M 556.851533 -387.7555 
L 556.851533 -55.1155 
L 559.636891 -55.1155 
L 559.636891 -387.7555 
L 559.636891 -387.7555 
L 556.851533 -387.7555 
z
"/>
    </defs>
    <g clip-path="url(#p2043e16d32)">
     <use xlink:href="#mae42c2b6d1" x="0" y="398.34866" style="fill: #d95f02; fill-opacity: 0.2"/>
    </g>
   </g>
   <g id="PolyCollection_181">
    <defs>
     <path id="m37762504d4" d="M 559.636891 -387.7555 
L 559.636891 -55.1155 
L 562.422249 -55.1155 
L 562.422249 -387.7555 
L 562.422249 -387.7555 
L 559.636891 -387.7555 
z
"/>
    </defs>
    <g clip-path="url(#p2043e16d32)">
     <use xlink:href="#m37762504d4" x="0" y="398.34866" style="fill: #d95f02; fill-opacity: 0.2"/>
    </g>
   </g>
   <g id="matplotlib.axis_1">
    <g id="xtick_1">
     <g id="line2d_1">
      <defs>
       <path id="m392a13f759" d="M 0 0 
L 0 4.8 
" style="stroke: #000000"/>
      </defs>
      <g>
       <use xlink:href="#m392a13f759" x="66.628572" y="343.23316" style="stroke: #000000"/>
      </g>
     </g>
     <g id="text_1">
      <!-- 0 -->
      <g transform="translate(61.029572 364.90641) scale(0.176 -0.176)">
       <defs>
        <path id="DejaVuSans-30" d="M 2034 4250 
Q 1547 4250 1301 3770 
Q 1056 3291 1056 2328 
Q 1056 1369 1301 889 
Q 1547 409 2034 409 
Q 2525 409 2770 889 
Q 3016 1369 3016 2328 
Q 3016 3291 2770 3770 
Q 2525 4250 2034 4250 
z
M 2034 4750 
Q 2819 4750 3233 4129 
Q 3647 3509 3647 2328 
Q 3647 1150 3233 529 
Q 2819 -91 2034 -91 
Q 1250 -91 836 529 
Q 422 1150 422 2328 
Q 422 3509 836 4129 
Q 1250 4750 2034 4750 
z
" transform="scale(0.015625)"/>
       </defs>
       <use xlink:href="#DejaVuSans-30"/>
      </g>
     </g>
    </g>
    <g id="xtick_2">
     <g id="line2d_2">
      <g>
       <use xlink:href="#m392a13f759" x="136.262515" y="343.23316" style="stroke: #000000"/>
      </g>
     </g>
     <g id="text_2">
      <!-- 25 -->
      <g transform="translate(125.064515 364.90641) scale(0.176 -0.176)">
       <defs>
        <path id="DejaVuSans-32" d="M 1228 531 
L 3431 531 
L 3431 0 
L 469 0 
L 469 531 
Q 828 903 1448 1529 
Q 2069 2156 2228 2338 
Q 2531 2678 2651 2914 
Q 2772 3150 2772 3378 
Q 2772 3750 2511 3984 
Q 2250 4219 1831 4219 
Q 1534 4219 1204 4116 
Q 875 4013 500 3803 
L 500 4441 
Q 881 4594 1212 4672 
Q 1544 4750 1819 4750 
Q 2544 4750 2975 4387 
Q 3406 4025 3406 3419 
Q 3406 3131 3298 2873 
Q 3191 2616 2906 2266 
Q 2828 2175 2409 1742 
Q 1991 1309 1228 531 
z
" transform="scale(0.015625)"/>
        <path id="DejaVuSans-35" d="M 691 4666 
L 3169 4666 
L 3169 4134 
L 1269 4134 
L 1269 2991 
Q 1406 3038 1543 3061 
Q 1681 3084 1819 3084 
Q 2600 3084 3056 2656 
Q 3513 2228 3513 1497 
Q 3513 744 3044 326 
Q 2575 -91 1722 -91 
Q 1428 -91 1123 -41 
Q 819 9 494 109 
L 494 744 
Q 775 591 1075 516 
Q 1375 441 1709 441 
Q 2250 441 2565 725 
Q 2881 1009 2881 1497 
Q 2881 1984 2565 2268 
Q 2250 2553 1709 2553 
Q 1456 2553 1204 2497 
Q 953 2441 691 2322 
L 691 4666 
z
" transform="scale(0.015625)"/>
       </defs>
       <use xlink:href="#DejaVuSans-32"/>
       <use xlink:href="#DejaVuSans-35" x="63.623047"/>
      </g>
     </g>
    </g>
    <g id="xtick_3">
     <g id="line2d_3">
      <g>
       <use xlink:href="#m392a13f759" x="205.896458" y="343.23316" style="stroke: #000000"/>
      </g>
     </g>
     <g id="text_3">
      <!-- 50 -->
      <g transform="translate(194.698458 364.90641) scale(0.176 -0.176)">
       <use xlink:href="#DejaVuSans-35"/>
       <use xlink:href="#DejaVuSans-30" x="63.623047"/>
      </g>
     </g>
    </g>
    <g id="xtick_4">
     <g id="line2d_4">
      <g>
       <use xlink:href="#m392a13f759" x="275.530402" y="343.23316" style="stroke: #000000"/>
      </g>
     </g>
     <g id="text_4">
      <!-- 75 -->
      <g transform="translate(264.332402 364.90641) scale(0.176 -0.176)">
       <defs>
        <path id="DejaVuSans-37" d="M 525 4666 
L 3525 4666 
L 3525 4397 
L 1831 0 
L 1172 0 
L 2766 4134 
L 525 4134 
L 525 4666 
z
" transform="scale(0.015625)"/>
       </defs>
       <use xlink:href="#DejaVuSans-37"/>
       <use xlink:href="#DejaVuSans-35" x="63.623047"/>
      </g>
     </g>
    </g>
    <g id="xtick_5">
     <g id="line2d_5">
      <g>
       <use xlink:href="#m392a13f759" x="345.164345" y="343.23316" style="stroke: #000000"/>
      </g>
     </g>
     <g id="text_5">
      <!-- 100 -->
      <g transform="translate(328.367345 364.90641) scale(0.176 -0.176)">
       <defs>
        <path id="DejaVuSans-31" d="M 794 531 
L 1825 531 
L 1825 4091 
L 703 3866 
L 703 4441 
L 1819 4666 
L 2450 4666 
L 2450 531 
L 3481 531 
L 3481 0 
L 794 0 
L 794 531 
z
" transform="scale(0.015625)"/>
       </defs>
       <use xlink:href="#DejaVuSans-31"/>
       <use xlink:href="#DejaVuSans-30" x="63.623047"/>
       <use xlink:href="#DejaVuSans-30" x="127.246094"/>
      </g>
     </g>
    </g>
    <g id="text_6">
     <!-- State -->
     <g transform="translate(208.06 387.15566) scale(0.192 -0.192)">
      <defs>
       <path id="DejaVuSans-53" d="M 3425 4513 
L 3425 3897 
Q 3066 4069 2747 4153 
Q 2428 4238 2131 4238 
Q 1616 4238 1336 4038 
Q 1056 3838 1056 3469 
Q 1056 3159 1242 3001 
Q 1428 2844 1947 2747 
L 2328 2669 
Q 3034 2534 3370 2195 
Q 3706 1856 3706 1288 
Q 3706 609 3251 259 
Q 2797 -91 1919 -91 
Q 1588 -91 1214 -16 
Q 841 59 441 206 
L 441 856 
Q 825 641 1194 531 
Q 1563 422 1919 422 
Q 2459 422 2753 634 
Q 3047 847 3047 1241 
Q 3047 1584 2836 1778 
Q 2625 1972 2144 2069 
L 1759 2144 
Q 1053 2284 737 2584 
Q 422 2884 422 3419 
Q 422 4038 858 4394 
Q 1294 4750 2059 4750 
Q 2388 4750 2728 4690 
Q 3069 4631 3425 4513 
z
" transform="scale(0.015625)"/>
       <path id="DejaVuSans-74" d="M 1172 4494 
L 1172 3500 
L 2356 3500 
L 2356 3053 
L 1172 3053 
L 1172 1153 
Q 1172 725 1289 603 
Q 1406 481 1766 481 
L 2356 481 
L 2356 0 
L 1766 0 
Q 1100 0 847 248 
Q 594 497 594 1153 
L 594 3053 
L 172 3053 
L 172 3500 
L 594 3500 
L 594 4494 
L 1172 4494 
z
" transform="scale(0.015625)"/>
       <path id="DejaVuSans-61" d="M 2194 1759 
Q 1497 1759 1228 1600 
Q 959 1441 959 1056 
Q 959 750 1161 570 
Q 1363 391 1709 391 
Q 2188 391 2477 730 
Q 2766 1069 2766 1631 
L 2766 1759 
L 2194 1759 
z
M 3341 1997 
L 3341 0 
L 2766 0 
L 2766 531 
Q 2569 213 2275 61 
Q 1981 -91 1556 -91 
Q 1019 -91 701 211 
Q 384 513 384 1019 
Q 384 1609 779 1909 
Q 1175 2209 1959 2209 
L 2766 2209 
L 2766 2266 
Q 2766 2663 2505 2880 
Q 2244 3097 1772 3097 
Q 1472 3097 1187 3025 
Q 903 2953 641 2809 
L 641 3341 
Q 956 3463 1253 3523 
Q 1550 3584 1831 3584 
Q 2591 3584 2966 3190 
Q 3341 2797 3341 1997 
z
" transform="scale(0.015625)"/>
       <path id="DejaVuSans-65" d="M 3597 1894 
L 3597 1613 
L 953 1613 
Q 991 1019 1311 708 
Q 1631 397 2203 397 
Q 2534 397 2845 478 
Q 3156 559 3463 722 
L 3463 178 
Q 3153 47 2828 -22 
Q 2503 -91 2169 -91 
Q 1331 -91 842 396 
Q 353 884 353 1716 
Q 353 2575 817 3079 
Q 1281 3584 2069 3584 
Q 2775 3584 3186 3129 
Q 3597 2675 3597 1894 
z
M 3022 2063 
Q 3016 2534 2758 2815 
Q 2500 3097 2075 3097 
Q 1594 3097 1305 2825 
Q 1016 2553 972 2059 
L 3022 2063 
z
" transform="scale(0.015625)"/>
      </defs>
      <use xlink:href="#DejaVuSans-53"/>
      <use xlink:href="#DejaVuSans-74" x="63.476562"/>
      <use xlink:href="#DejaVuSans-61" x="102.685547"/>
      <use xlink:href="#DejaVuSans-74" x="163.964844"/>
      <use xlink:href="#DejaVuSans-65" x="203.173828"/>
     </g>
    </g>
   </g>
   <g id="matplotlib.axis_2">
    <g id="ytick_1">
     <g id="line2d_6">
      <defs>
       <path id="m1d78438c07" d="M 0 0 
L -4.8 0 
" style="stroke: #000000"/>
      </defs>
      <g>
       <use xlink:href="#m1d78438c07" x="66.0715" y="343.23316" style="stroke: #000000"/>
      </g>
     </g>
     <g id="text_7">
      <!-- 0.0 -->
      <g transform="translate(29.782 349.919785) scale(0.176 -0.176)">
       <defs>
        <path id="DejaVuSans-2e" d="M 684 794 
L 1344 794 
L 1344 0 
L 684 0 
L 684 794 
z
" transform="scale(0.015625)"/>
       </defs>
       <use xlink:href="#DejaVuSans-30"/>
       <use xlink:href="#DejaVuSans-2e" x="63.623047"/>
       <use xlink:href="#DejaVuSans-30" x="95.410156"/>
      </g>
     </g>
    </g>
    <g id="ytick_2">
     <g id="line2d_7">
      <g>
       <use xlink:href="#m1d78438c07" x="66.0715" y="277.363853" style="stroke: #000000"/>
      </g>
     </g>
     <g id="text_8">
      <!-- 0.2 -->
      <g transform="translate(29.782 284.050478) scale(0.176 -0.176)">
       <use xlink:href="#DejaVuSans-30"/>
       <use xlink:href="#DejaVuSans-2e" x="63.623047"/>
       <use xlink:href="#DejaVuSans-32" x="95.410156"/>
      </g>
     </g>
    </g>
    <g id="ytick_3">
     <g id="line2d_8">
      <g>
       <use xlink:href="#m1d78438c07" x="66.0715" y="211.494546" style="stroke: #000000"/>
      </g>
     </g>
     <g id="text_9">
      <!-- 0.4 -->
      <g transform="translate(29.782 218.181171) scale(0.176 -0.176)">
       <defs>
        <path id="DejaVuSans-34" d="M 2419 4116 
L 825 1625 
L 2419 1625 
L 2419 4116 
z
M 2253 4666 
L 3047 4666 
L 3047 1625 
L 3713 1625 
L 3713 1100 
L 3047 1100 
L 3047 0 
L 2419 0 
L 2419 1100 
L 313 1100 
L 313 1709 
L 2253 4666 
z
" transform="scale(0.015625)"/>
       </defs>
       <use xlink:href="#DejaVuSans-30"/>
       <use xlink:href="#DejaVuSans-2e" x="63.623047"/>
       <use xlink:href="#DejaVuSans-34" x="95.410156"/>
      </g>
     </g>
    </g>
    <g id="ytick_4">
     <g id="line2d_9">
      <g>
       <use xlink:href="#m1d78438c07" x="66.0715" y="145.625239" style="stroke: #000000"/>
      </g>
     </g>
     <g id="text_10">
      <!-- 0.6 -->
      <g transform="translate(29.782 152.311864) scale(0.176 -0.176)">
       <defs>
        <path id="DejaVuSans-36" d="M 2113 2584 
Q 1688 2584 1439 2293 
Q 1191 2003 1191 1497 
Q 1191 994 1439 701 
Q 1688 409 2113 409 
Q 2538 409 2786 701 
Q 3034 994 3034 1497 
Q 3034 2003 2786 2293 
Q 2538 2584 2113 2584 
z
M 3366 4563 
L 3366 3988 
Q 3128 4100 2886 4159 
Q 2644 4219 2406 4219 
Q 1781 4219 1451 3797 
Q 1122 3375 1075 2522 
Q 1259 2794 1537 2939 
Q 1816 3084 2150 3084 
Q 2853 3084 3261 2657 
Q 3669 2231 3669 1497 
Q 3669 778 3244 343 
Q 2819 -91 2113 -91 
Q 1303 -91 875 529 
Q 447 1150 447 2328 
Q 447 3434 972 4092 
Q 1497 4750 2381 4750 
Q 2619 4750 2861 4703 
Q 3103 4656 3366 4563 
z
" transform="scale(0.015625)"/>
       </defs>
       <use xlink:href="#DejaVuSans-30"/>
       <use xlink:href="#DejaVuSans-2e" x="63.623047"/>
       <use xlink:href="#DejaVuSans-36" x="95.410156"/>
      </g>
     </g>
    </g>
    <g id="ytick_5">
     <g id="line2d_10">
      <g>
       <use xlink:href="#m1d78438c07" x="66.0715" y="79.755932" style="stroke: #000000"/>
      </g>
     </g>
     <g id="text_11">
      <!-- 0.8 -->
      <g transform="translate(29.782 86.442557) scale(0.176 -0.176)">
       <defs>
        <path id="DejaVuSans-38" d="M 2034 2216 
Q 1584 2216 1326 1975 
Q 1069 1734 1069 1313 
Q 1069 891 1326 650 
Q 1584 409 2034 409 
Q 2484 409 2743 651 
Q 3003 894 3003 1313 
Q 3003 1734 2745 1975 
Q 2488 2216 2034 2216 
z
M 1403 2484 
Q 997 2584 770 2862 
Q 544 3141 544 3541 
Q 544 4100 942 4425 
Q 1341 4750 2034 4750 
Q 2731 4750 3128 4425 
Q 3525 4100 3525 3541 
Q 3525 3141 3298 2862 
Q 3072 2584 2669 2484 
Q 3125 2378 3379 2068 
Q 3634 1759 3634 1313 
Q 3634 634 3220 271 
Q 2806 -91 2034 -91 
Q 1263 -91 848 271 
Q 434 634 434 1313 
Q 434 1759 690 2068 
Q 947 2378 1403 2484 
z
M 1172 3481 
Q 1172 3119 1398 2916 
Q 1625 2713 2034 2713 
Q 2441 2713 2670 2916 
Q 2900 3119 2900 3481 
Q 2900 3844 2670 4047 
Q 2441 4250 2034 4250 
Q 1625 4250 1398 4047 
Q 1172 3844 1172 3481 
z
" transform="scale(0.015625)"/>
       </defs>
       <use xlink:href="#DejaVuSans-30"/>
       <use xlink:href="#DejaVuSans-2e" x="63.623047"/>
       <use xlink:href="#DejaVuSans-38" x="95.410156"/>
      </g>
     </g>
    </g>
    <g id="ytick_6">
     <g id="line2d_11">
      <g>
       <use xlink:href="#m1d78438c07" x="66.0715" y="13.886625" style="stroke: #000000"/>
      </g>
     </g>
     <g id="text_12">
      <!-- 1.0 -->
      <g transform="translate(29.782 20.57325) scale(0.176 -0.176)">
       <use xlink:href="#DejaVuSans-31"/>
       <use xlink:href="#DejaVuSans-2e" x="63.623047"/>
       <use xlink:href="#DejaVuSans-30" x="95.410156"/>
      </g>
     </g>
    </g>
    <g id="text_13">
     <!-- Score -->
     <g transform="translate(21.789 203.79766) rotate(-90) scale(0.192 -0.192)">
      <defs>
       <path id="DejaVuSans-63" d="M 3122 3366 
L 3122 2828 
Q 2878 2963 2633 3030 
Q 2388 3097 2138 3097 
Q 1578 3097 1268 2742 
Q 959 2388 959 1747 
Q 959 1106 1268 751 
Q 1578 397 2138 397 
Q 2388 397 2633 464 
Q 2878 531 3122 666 
L 3122 134 
Q 2881 22 2623 -34 
Q 2366 -91 2075 -91 
Q 1284 -91 818 406 
Q 353 903 353 1747 
Q 353 2603 823 3093 
Q 1294 3584 2113 3584 
Q 2378 3584 2631 3529 
Q 2884 3475 3122 3366 
z
" transform="scale(0.015625)"/>
       <path id="DejaVuSans-6f" d="M 1959 3097 
Q 1497 3097 1228 2736 
Q 959 2375 959 1747 
Q 959 1119 1226 758 
Q 1494 397 1959 397 
Q 2419 397 2687 759 
Q 2956 1122 2956 1747 
Q 2956 2369 2687 2733 
Q 2419 3097 1959 3097 
z
M 1959 3584 
Q 2709 3584 3137 3096 
Q 3566 2609 3566 1747 
Q 3566 888 3137 398 
Q 2709 -91 1959 -91 
Q 1206 -91 779 398 
Q 353 888 353 1747 
Q 353 2609 779 3096 
Q 1206 3584 1959 3584 
z
" transform="scale(0.015625)"/>
       <path id="DejaVuSans-72" d="M 2631 2963 
Q 2534 3019 2420 3045 
Q 2306 3072 2169 3072 
Q 1681 3072 1420 2755 
Q 1159 2438 1159 1844 
L 1159 0 
L 581 0 
L 581 3500 
L 1159 3500 
L 1159 2956 
Q 1341 3275 1631 3429 
Q 1922 3584 2338 3584 
Q 2397 3584 2469 3576 
Q 2541 3569 2628 3553 
L 2631 2963 
z
" transform="scale(0.015625)"/>
      </defs>
      <use xlink:href="#DejaVuSans-53"/>
      <use xlink:href="#DejaVuSans-63" x="63.476562"/>
      <use xlink:href="#DejaVuSans-6f" x="118.457031"/>
      <use xlink:href="#DejaVuSans-72" x="179.638672"/>
      <use xlink:href="#DejaVuSans-65" x="218.501953"/>
     </g>
    </g>
   </g>
   <g id="line2d_12">
    <path d="M 72.199287 146.166859 
L 77.770002 146.166859 
L 80.55536 146.166859 
L 83.340718 146.166859 
L 86.126076 146.166859 
L 88.911433 146.166859 
L 91.696791 146.166859 
L 94.482149 146.166859 
L 97.267507 146.166859 
L 100.052864 146.166859 
L 102.838222 146.166859 
L 105.62358 146.166859 
L 108.408938 146.166859 
L 111.194295 146.166859 
L 113.979653 146.166859 
L 116.765011 146.166859 
L 119.550369 146.166859 
L 122.335726 146.166859 
L 125.121084 146.166859 
L 141.83323 147.510732 
L 144.618588 147.510732 
L 152.974661 145.336338 
L 158.545377 143.711159 
L 175.257523 117.086574 
L 178.042881 92.389114 
L 183.613597 91.272638 
L 194.755027 91.272638 
L 214.252532 91.272638 
L 217.037889 91.272638 
L 219.823247 77.169585 
L 222.608605 76.277502 
L 228.17932 76.053546 
L 230.964678 73.107546 
L 236.535394 72.598656 
L 239.320751 72.598656 
L 242.106109 72.598656 
L 244.891467 68.49477 
L 247.676824 67.263477 
L 261.603613 62.870799 
L 264.388971 60.1056 
L 267.174329 50.280169 
L 272.745044 44.273677 
L 275.530402 44.245384 
L 278.31576 42.001573 
L 281.101117 40.866991 
L 283.886475 39.412538 
L 286.671833 39.077436 
L 292.242548 36.74052 
L 295.027906 35.82217 
L 297.813264 33.722984 
L 303.383979 28.289535 
L 308.954695 28.289535 
L 311.740052 28.289535 
L 314.52541 22.989984 
L 317.310768 22.989984 
L 320.096126 22.989984 
L 322.881483 84.573083 
L 328.452199 22.963104 
L 331.237557 24.247383 
L 334.022914 22.711221 
L 339.59363 22.711221 
L 342.378988 23.362157 
L 345.164345 21.954607 
L 347.949703 21.659664 
L 353.520418 21.365236 
L 356.305776 21.083883 
L 361.876492 19.948218 
L 364.661849 18.810892 
L 370.232565 18.810892 
L 373.017923 18.797933 
L 375.80328 18.797933 
L 378.588638 18.659763 
L 381.373996 18.659763 
L 384.159354 18.659763 
L 389.730069 16.411428 
L 395.300785 14.168841 
L 398.086142 13.886625 
L 406.442215 13.886625 
L 409.0715 13.886625 
" clip-path="url(#p2043e16d32)" style="fill: none; stroke-dasharray: 2,3.3; stroke-dashoffset: 0; stroke: #e41a1c; stroke-width: 2"/>
   </g>
   <g id="line2d_13">
    <path d="M 66.628572 343.23316 
L 69.413929 343.23316 
L 72.199287 135.247965 
L 77.770002 135.247965 
L 80.55536 135.247965 
L 83.340718 135.247965 
L 86.126076 135.247965 
L 88.911433 135.247965 
L 91.696791 135.247965 
L 94.482149 135.247965 
L 97.267507 135.247965 
L 100.052864 135.247965 
L 102.838222 135.247965 
L 105.62358 135.247965 
L 108.408938 135.247965 
L 111.194295 135.247965 
L 113.979653 135.247965 
L 116.765011 135.247965 
L 119.550369 135.247965 
L 122.335726 135.247965 
L 125.121084 135.247965 
L 141.83323 133.269247 
L 144.618588 133.269247 
L 152.974661 132.389817 
L 158.545377 132.389817 
L 175.257523 131.730245 
L 178.042881 131.070672 
L 183.613597 130.630957 
L 194.755027 130.630957 
L 214.252532 130.630957 
L 217.037889 130.630957 
L 219.823247 130.630957 
L 222.608605 130.630957 
L 228.17932 130.630957 
L 230.964678 130.630957 
L 236.535394 130.4111 
L 239.320751 130.4111 
L 242.106109 130.4111 
L 244.891467 129.751527 
L 247.676824 129.53167 
L 261.603613 129.311812 
L 264.388971 129.091955 
L 267.174329 129.091955 
L 272.745044 129.091955 
L 275.530402 128.872097 
L 278.31576 128.872097 
L 281.101117 128.872097 
L 283.886475 128.65224 
L 286.671833 128.212525 
L 292.242548 127.992667 
L 295.027906 127.552952 
L 297.813264 127.113237 
L 303.383979 126.89338 
L 308.954695 126.89338 
L 311.740052 126.89338 
L 314.52541 126.673522 
L 317.310768 126.673522 
L 320.096126 126.673522 
L 322.881483 126.01395 
L 328.452199 126.01395 
L 331.237557 119.85794 
L 334.022914 119.638082 
L 339.59363 119.638082 
L 342.378988 98.311905 
L 345.164345 98.092047 
L 347.949703 97.652332 
L 353.520418 97.212617 
L 356.305776 97.212617 
L 361.876492 96.99276 
L 364.661849 96.99276 
L 370.232565 96.99276 
L 373.017923 96.333187 
L 375.80328 96.333187 
L 378.588638 89.07789 
L 381.373996 89.07789 
L 384.159354 89.07789 
L 389.730069 87.099172 
L 395.300785 86.879315 
L 398.086142 86.879315 
L 406.442215 86.219742 
L 409.0715 86.219742 
" clip-path="url(#p2043e16d32)" style="fill: none; stroke-dasharray: 7.4,3.2; stroke-dashoffset: 0; stroke: #377eb8; stroke-width: 2"/>
   </g>
   <g id="line2d_14">
    <path d="M 72.199287 140.854581 
L 77.770002 140.854581 
L 80.55536 140.854581 
L 83.340718 140.854581 
L 86.126076 140.854581 
L 88.911433 140.854581 
L 91.696791 140.854581 
L 94.482149 140.854581 
L 97.267507 140.854581 
L 100.052864 140.854581 
L 102.838222 140.854581 
L 105.62358 140.854581 
L 108.408938 140.854581 
L 111.194295 140.854581 
L 113.979653 140.854581 
L 116.765011 140.854581 
L 119.550369 140.854581 
L 122.335726 140.854581 
L 125.121084 140.854581 
L 141.83323 140.639961 
L 144.618588 140.639961 
L 152.974661 139.068113 
L 158.545377 138.206657 
L 175.257523 124.653397 
L 178.042881 113.345705 
L 183.613597 112.61904 
L 194.755027 112.61904 
L 214.252532 112.61904 
L 217.037889 112.61904 
L 219.823247 106.885776 
L 222.608605 106.534461 
L 228.17932 106.446469 
L 230.964678 105.29659 
L 236.535394 104.961526 
L 239.320751 104.961526 
L 242.106109 104.961526 
L 244.891467 102.966078 
L 247.676824 102.356687 
L 261.603613 100.556766 
L 264.388971 99.384034 
L 267.174329 95.810464 
L 272.745044 93.693273 
L 275.530402 93.534193 
L 278.31576 92.755101 
L 281.101117 92.363729 
L 283.886475 91.713427 
L 286.671833 91.296585 
L 292.242548 90.346683 
L 295.027906 89.730648 
L 297.813264 88.714572 
L 303.383979 86.741676 
L 308.954695 86.741676 
L 311.740052 86.741676 
L 314.52541 84.844998 
L 317.310768 84.844998 
L 320.096126 84.844998 
L 322.881483 107.097908 
L 328.452199 84.367307 
L 331.237557 80.480055 
L 334.022914 79.807736 
L 339.59363 79.807736 
L 342.378988 65.810067 
L 345.164345 65.140478 
L 347.949703 64.747104 
L 353.520418 64.354028 
L 356.305776 64.248472 
L 361.876492 63.681724 
L 364.661849 63.257358 
L 370.232565 63.257358 
L 373.017923 62.826671 
L 375.80328 62.826671 
L 378.588638 58.152969 
L 381.373996 58.152969 
L 384.159354 58.152969 
L 389.730069 56.041009 
L 395.300785 55.039494 
L 398.086142 54.931313 
L 406.442215 54.514675 
L 409.0715 54.514675 
" clip-path="url(#p2043e16d32)" style="fill: none; stroke: #984ea3; stroke-width: 3; stroke-linecap: square"/>
   </g>
   <g id="patch_3">
    <path d="M 66.0715 343.23316 
L 66.0715 10.59316 
" style="fill: none; stroke: #000000; stroke-linejoin: miter; stroke-linecap: square"/>
   </g>
   <g id="patch_4">
    <path d="M 66.0715 343.23316 
L 400.8715 343.23316 
" style="fill: none; stroke: #000000; stroke-linejoin: miter; stroke-linecap: square"/>
   </g>
   <g id="legend_1">
    <g id="patch_5">
     <path d="M 78.3915 334.43316 
L 213.23225 334.43316 
Q 216.75225 334.43316 216.75225 330.91316 
L 216.75225 255.17266 
Q 216.75225 251.65266 213.23225 251.65266 
L 78.3915 251.65266 
Q 74.8715 251.65266 74.8715 255.17266 
L 74.8715 330.91316 
Q 74.8715 334.43316 78.3915 334.43316 
z
" style="fill: #ffffff; opacity: 0.8; stroke: #cccccc; stroke-width: 0.8; stroke-linejoin: miter"/>
    </g>
    <g id="line2d_15">
     <path d="M 81.9115 265.90591 
L 99.5115 265.90591 
L 117.1115 265.90591 
" style="fill: none; stroke-dasharray: 2,3.3; stroke-dashoffset: 0; stroke: #e41a1c; stroke-width: 2"/>
    </g>
    <g id="text_14">
     <!-- Precision -->
     <g transform="translate(131.1915 272.06591) scale(0.176 -0.176)">
      <defs>
       <path id="DejaVuSans-50" d="M 1259 4147 
L 1259 2394 
L 2053 2394 
Q 2494 2394 2734 2622 
Q 2975 2850 2975 3272 
Q 2975 3691 2734 3919 
Q 2494 4147 2053 4147 
L 1259 4147 
z
M 628 4666 
L 2053 4666 
Q 2838 4666 3239 4311 
Q 3641 3956 3641 3272 
Q 3641 2581 3239 2228 
Q 2838 1875 2053 1875 
L 1259 1875 
L 1259 0 
L 628 0 
L 628 4666 
z
" transform="scale(0.015625)"/>
       <path id="DejaVuSans-69" d="M 603 3500 
L 1178 3500 
L 1178 0 
L 603 0 
L 603 3500 
z
M 603 4863 
L 1178 4863 
L 1178 4134 
L 603 4134 
L 603 4863 
z
" transform="scale(0.015625)"/>
       <path id="DejaVuSans-73" d="M 2834 3397 
L 2834 2853 
Q 2591 2978 2328 3040 
Q 2066 3103 1784 3103 
Q 1356 3103 1142 2972 
Q 928 2841 928 2578 
Q 928 2378 1081 2264 
Q 1234 2150 1697 2047 
L 1894 2003 
Q 2506 1872 2764 1633 
Q 3022 1394 3022 966 
Q 3022 478 2636 193 
Q 2250 -91 1575 -91 
Q 1294 -91 989 -36 
Q 684 19 347 128 
L 347 722 
Q 666 556 975 473 
Q 1284 391 1588 391 
Q 1994 391 2212 530 
Q 2431 669 2431 922 
Q 2431 1156 2273 1281 
Q 2116 1406 1581 1522 
L 1381 1569 
Q 847 1681 609 1914 
Q 372 2147 372 2553 
Q 372 3047 722 3315 
Q 1072 3584 1716 3584 
Q 2034 3584 2315 3537 
Q 2597 3491 2834 3397 
z
" transform="scale(0.015625)"/>
       <path id="DejaVuSans-6e" d="M 3513 2113 
L 3513 0 
L 2938 0 
L 2938 2094 
Q 2938 2591 2744 2837 
Q 2550 3084 2163 3084 
Q 1697 3084 1428 2787 
Q 1159 2491 1159 1978 
L 1159 0 
L 581 0 
L 581 3500 
L 1159 3500 
L 1159 2956 
Q 1366 3272 1645 3428 
Q 1925 3584 2291 3584 
Q 2894 3584 3203 3211 
Q 3513 2838 3513 2113 
z
" transform="scale(0.015625)"/>
      </defs>
      <use xlink:href="#DejaVuSans-50"/>
      <use xlink:href="#DejaVuSans-72" x="58.552734"/>
      <use xlink:href="#DejaVuSans-65" x="97.416016"/>
      <use xlink:href="#DejaVuSans-63" x="158.939453"/>
      <use xlink:href="#DejaVuSans-69" x="213.919922"/>
      <use xlink:href="#DejaVuSans-73" x="241.703125"/>
      <use xlink:href="#DejaVuSans-69" x="293.802734"/>
      <use xlink:href="#DejaVuSans-6f" x="321.585938"/>
      <use xlink:href="#DejaVuSans-6e" x="382.767578"/>
     </g>
    </g>
    <g id="line2d_16">
     <path d="M 81.9115 291.73941 
L 99.5115 291.73941 
L 117.1115 291.73941 
" style="fill: none; stroke-dasharray: 7.4,3.2; stroke-dashoffset: 0; stroke: #377eb8; stroke-width: 2"/>
    </g>
    <g id="text_15">
     <!-- Recall -->
     <g transform="translate(131.1915 297.89941) scale(0.176 -0.176)">
      <defs>
       <path id="DejaVuSans-52" d="M 2841 2188 
Q 3044 2119 3236 1894 
Q 3428 1669 3622 1275 
L 4263 0 
L 3584 0 
L 2988 1197 
Q 2756 1666 2539 1819 
Q 2322 1972 1947 1972 
L 1259 1972 
L 1259 0 
L 628 0 
L 628 4666 
L 2053 4666 
Q 2853 4666 3247 4331 
Q 3641 3997 3641 3322 
Q 3641 2881 3436 2590 
Q 3231 2300 2841 2188 
z
M 1259 4147 
L 1259 2491 
L 2053 2491 
Q 2509 2491 2742 2702 
Q 2975 2913 2975 3322 
Q 2975 3731 2742 3939 
Q 2509 4147 2053 4147 
L 1259 4147 
z
" transform="scale(0.015625)"/>
       <path id="DejaVuSans-6c" d="M 603 4863 
L 1178 4863 
L 1178 0 
L 603 0 
L 603 4863 
z
" transform="scale(0.015625)"/>
      </defs>
      <use xlink:href="#DejaVuSans-52"/>
      <use xlink:href="#DejaVuSans-65" x="64.982422"/>
      <use xlink:href="#DejaVuSans-63" x="126.505859"/>
      <use xlink:href="#DejaVuSans-61" x="181.486328"/>
      <use xlink:href="#DejaVuSans-6c" x="242.765625"/>
      <use xlink:href="#DejaVuSans-6c" x="270.548828"/>
     </g>
    </g>
    <g id="line2d_17">
     <path d="M 81.9115 317.57291 
L 99.5115 317.57291 
L 117.1115 317.57291 
" style="fill: none; stroke: #984ea3; stroke-width: 3; stroke-linecap: square"/>
    </g>
    <g id="text_16">
     <!-- F1 -->
     <g transform="translate(131.1915 323.73291) scale(0.176 -0.176)">
      <defs>
       <path id="DejaVuSans-46" d="M 628 4666 
L 3309 4666 
L 3309 4134 
L 1259 4134 
L 1259 2759 
L 3109 2759 
L 3109 2228 
L 1259 2228 
L 1259 0 
L 628 0 
L 628 4666 
z
" transform="scale(0.015625)"/>
      </defs>
      <use xlink:href="#DejaVuSans-46"/>
      <use xlink:href="#DejaVuSans-31" x="57.519531"/>
     </g>
    </g>
   </g>
  </g>
 </g>
 <defs>
  <clipPath id="p2043e16d32">
   <rect x="66.0715" y="10.59316" width="334.8" height="332.64"/>
  </clipPath>
 </defs>
</svg>
