<?xml version="1.0" encoding="utf-8" standalone="no"?>
<!DOCTYPE svg PUBLIC "-//W3C//DTD SVG 1.1//EN"
  "http://www.w3.org/Graphics/SVG/1.1/DTD/svg11.dtd">
<svg xmlns:xlink="http://www.w3.org/1999/xlink" width="408.504227pt" height="398.34866pt" viewBox="0 0 408.504227 398.34866" xmlns="http://www.w3.org/2000/svg" version="1.1">
 <metadata>
  <rdf:RDF xmlns:dc="http://purl.org/dc/elements/1.1/" xmlns:cc="http://creativecommons.org/ns#" xmlns:rdf="http://www.w3.org/1999/02/22-rdf-syntax-ns#">
   <cc:Work>
    <dc:type rdf:resource="http://purl.org/dc/dcmitype/StillImage"/>
    <dc:date>2024-09-30T11:38:57.495809</dc:date>
    <dc:format>image/svg+xml</dc:format>
    <dc:creator>
     <cc:Agent>
      <dc:title>Matplotlib v3.8.0, https://matplotlib.org/</dc:title>
     </cc:Agent>
    </dc:creator>
   </cc:Work>
  </rdf:RDF>
 </metadata>
 <defs>
  <style type="text/css">*{stroke-linejoin: round; stroke-linecap: butt}</style>
 </defs>
 <g id="figure_1">
  <g id="patch_1">
   <path d="M 0 398.34866 
L 408.504227 398.34866 
L 408.504227 0 
L 0 0 
z
" style="fill: #ffffff"/>
  </g>
  <g id="axes_1">
   <g id="patch_2">
    <path d="M 66.0715 343.23316 
L 400.8715 343.23316 
L 400.8715 10.59316 
L 66.0715 10.59316 
z
" style="fill: #ffffff"/>
   </g>
   <g id="PolyCollection_1"/>
   <g id="PolyCollection_2"/>
   <g id="PolyCollection_3"/>
   <g id="PolyCollection_4">
    <defs>
     <path id="m83629bc25f" d="M 67.148027 -387.7555 
L 67.148027 -55.1155 
L 72.530664 -55.1155 
L 72.530664 -387.7555 
L 72.530664 -387.7555 
L 67.148027 -387.7555 
z
"/>
    </defs>
    <g clip-path="url(#pfcf601ce7a)">
     <use xlink:href="#m83629bc25f" x="0" y="398.34866" style="fill: #1b9e77; fill-opacity: 0.2"/>
    </g>
   </g>
   <g id="PolyCollection_5">
    <defs>
     <path id="mb56f244eb2" d="M 72.530664 -387.7555 
L 72.530664 -55.1155 
L 77.913301 -55.1155 
L 77.913301 -387.7555 
L 77.913301 -387.7555 
L 72.530664 -387.7555 
z
"/>
    </defs>
    <g clip-path="url(#pfcf601ce7a)">
     <use xlink:href="#mb56f244eb2" x="0" y="398.34866" style="fill: #1b9e77; fill-opacity: 0.2"/>
    </g>
   </g>
   <g id="PolyCollection_6">
    <defs>
     <path id="m615b6b0b6f" d="M 77.913301 -387.7555 
L 77.913301 -55.1155 
L 83.295937 -55.1155 
L 83.295937 -387.7555 
L 83.295937 -387.7555 
L 77.913301 -387.7555 
z
"/>
    </defs>
    <g clip-path="url(#pfcf601ce7a)">
     <use xlink:href="#m615b6b0b6f" x="0" y="398.34866" style="fill: #1b9e77; fill-opacity: 0.2"/>
    </g>
   </g>
   <g id="PolyCollection_7">
    <defs>
     <path id="m5e113769a5" d="M 83.295937 -387.7555 
L 83.295937 -55.1155 
L 88.678574 -55.1155 
L 88.678574 -387.7555 
L 88.678574 -387.7555 
L 83.295937 -387.7555 
z
"/>
    </defs>
    <g clip-path="url(#pfcf601ce7a)">
     <use xlink:href="#m5e113769a5" x="0" y="398.34866" style="fill: #1b9e77; fill-opacity: 0.2"/>
    </g>
   </g>
   <g id="PolyCollection_8">
    <defs>
     <path id="m36df443a68" d="M 88.678574 -387.7555 
L 88.678574 -55.1155 
L 94.061211 -55.1155 
L 94.061211 -387.7555 
L 94.061211 -387.7555 
L 88.678574 -387.7555 
z
"/>
    </defs>
    <g clip-path="url(#pfcf601ce7a)">
     <use xlink:href="#m36df443a68" x="0" y="398.34866" style="fill: #1b9e77; fill-opacity: 0.2"/>
    </g>
   </g>
   <g id="PolyCollection_9">
    <defs>
     <path id="me93c7c9048" d="M 94.061211 -387.7555 
L 94.061211 -55.1155 
L 99.443847 -55.1155 
L 99.443847 -387.7555 
L 99.443847 -387.7555 
L 94.061211 -387.7555 
z
"/>
    </defs>
    <g clip-path="url(#pfcf601ce7a)">
     <use xlink:href="#me93c7c9048" x="0" y="398.34866" style="fill: #d95f02; fill-opacity: 0.2"/>
    </g>
   </g>
   <g id="PolyCollection_10">
    <defs>
     <path id="mf9b53555a3" d="M 99.443847 -387.7555 
L 99.443847 -55.1155 
L 104.826484 -55.1155 
L 104.826484 -387.7555 
L 104.826484 -387.7555 
L 99.443847 -387.7555 
z
"/>
    </defs>
    <g clip-path="url(#pfcf601ce7a)">
     <use xlink:href="#mf9b53555a3" x="0" y="398.34866" style="fill: #d95f02; fill-opacity: 0.2"/>
    </g>
   </g>
   <g id="PolyCollection_11">
    <defs>
     <path id="me77a0d7e15" d="M 104.826484 -387.7555 
L 104.826484 -55.1155 
L 110.209121 -55.1155 
L 110.209121 -387.7555 
L 110.209121 -387.7555 
L 104.826484 -387.7555 
z
"/>
    </defs>
    <g clip-path="url(#pfcf601ce7a)">
     <use xlink:href="#me77a0d7e15" x="0" y="398.34866" style="fill: #d95f02; fill-opacity: 0.2"/>
    </g>
   </g>
   <g id="PolyCollection_12">
    <defs>
     <path id="meff3f3daf3" d="M 110.209121 -387.7555 
L 110.209121 -55.1155 
L 115.591757 -55.1155 
L 115.591757 -387.7555 
L 115.591757 -387.7555 
L 110.209121 -387.7555 
z
"/>
    </defs>
    <g clip-path="url(#pfcf601ce7a)">
     <use xlink:href="#meff3f3daf3" x="0" y="398.34866" style="fill: #d95f02; fill-opacity: 0.2"/>
    </g>
   </g>
   <g id="PolyCollection_13">
    <defs>
     <path id="m7a43a91b03" d="M 115.591757 -387.7555 
L 115.591757 -55.1155 
L 120.974394 -55.1155 
L 120.974394 -387.7555 
L 120.974394 -387.7555 
L 115.591757 -387.7555 
z
"/>
    </defs>
    <g clip-path="url(#pfcf601ce7a)">
     <use xlink:href="#m7a43a91b03" x="0" y="398.34866" style="fill: #d95f02; fill-opacity: 0.2"/>
    </g>
   </g>
   <g id="PolyCollection_14">
    <defs>
     <path id="mb0595410ac" d="M 120.974394 -387.7555 
L 120.974394 -55.1155 
L 126.357031 -55.1155 
L 126.357031 -387.7555 
L 126.357031 -387.7555 
L 120.974394 -387.7555 
z
"/>
    </defs>
    <g clip-path="url(#pfcf601ce7a)">
     <use xlink:href="#mb0595410ac" x="0" y="398.34866" style="fill: #1b9e77; fill-opacity: 0.2"/>
    </g>
   </g>
   <g id="PolyCollection_15">
    <defs>
     <path id="m7c96e5a397" d="M 126.357031 -387.7555 
L 126.357031 -55.1155 
L 131.739667 -55.1155 
L 131.739667 -387.7555 
L 131.739667 -387.7555 
L 126.357031 -387.7555 
z
"/>
    </defs>
    <g clip-path="url(#pfcf601ce7a)">
     <use xlink:href="#m7c96e5a397" x="0" y="398.34866" style="fill: #1b9e77; fill-opacity: 0.2"/>
    </g>
   </g>
   <g id="PolyCollection_16">
    <defs>
     <path id="ma47c170002" d="M 131.739667 -387.7555 
L 131.739667 -55.1155 
L 137.122304 -55.1155 
L 137.122304 -387.7555 
L 137.122304 -387.7555 
L 131.739667 -387.7555 
z
"/>
    </defs>
    <g clip-path="url(#pfcf601ce7a)">
     <use xlink:href="#ma47c170002" x="0" y="398.34866" style="fill: #d95f02; fill-opacity: 0.2"/>
    </g>
   </g>
   <g id="PolyCollection_17">
    <defs>
     <path id="m4af5753cd8" d="M 137.122304 -387.7555 
L 137.122304 -55.1155 
L 142.504941 -55.1155 
L 142.504941 -387.7555 
L 142.504941 -387.7555 
L 137.122304 -387.7555 
z
"/>
    </defs>
    <g clip-path="url(#pfcf601ce7a)">
     <use xlink:href="#m4af5753cd8" x="0" y="398.34866" style="fill: #d95f02; fill-opacity: 0.2"/>
    </g>
   </g>
   <g id="PolyCollection_18">
    <defs>
     <path id="me08b7e59e5" d="M 142.504941 -387.7555 
L 142.504941 -55.1155 
L 147.887577 -55.1155 
L 147.887577 -387.7555 
L 147.887577 -387.7555 
L 142.504941 -387.7555 
z
"/>
    </defs>
    <g clip-path="url(#pfcf601ce7a)">
     <use xlink:href="#me08b7e59e5" x="0" y="398.34866" style="fill: #d95f02; fill-opacity: 0.2"/>
    </g>
   </g>
   <g id="PolyCollection_19">
    <defs>
     <path id="m684890f35b" d="M 147.887577 -387.7555 
L 147.887577 -55.1155 
L 153.270214 -55.1155 
L 153.270214 -387.7555 
L 153.270214 -387.7555 
L 147.887577 -387.7555 
z
"/>
    </defs>
    <g clip-path="url(#pfcf601ce7a)">
     <use xlink:href="#m684890f35b" x="0" y="398.34866" style="fill: #d95f02; fill-opacity: 0.2"/>
    </g>
   </g>
   <g id="PolyCollection_20">
    <defs>
     <path id="md078e46bf6" d="M 153.270214 -387.7555 
L 153.270214 -55.1155 
L 158.65285 -55.1155 
L 158.65285 -387.7555 
L 158.65285 -387.7555 
L 153.270214 -387.7555 
z
"/>
    </defs>
    <g clip-path="url(#pfcf601ce7a)">
     <use xlink:href="#md078e46bf6" x="0" y="398.34866" style="fill: #d95f02; fill-opacity: 0.2"/>
    </g>
   </g>
   <g id="PolyCollection_21">
    <defs>
     <path id="m2e73580960" d="M 158.65285 -387.7555 
L 158.65285 -55.1155 
L 164.035487 -55.1155 
L 164.035487 -387.7555 
L 164.035487 -387.7555 
L 158.65285 -387.7555 
z
"/>
    </defs>
    <g clip-path="url(#pfcf601ce7a)">
     <use xlink:href="#m2e73580960" x="0" y="398.34866" style="fill: #d95f02; fill-opacity: 0.2"/>
    </g>
   </g>
   <g id="PolyCollection_22">
    <defs>
     <path id="m3a8985aa5f" d="M 164.035487 -387.7555 
L 164.035487 -55.1155 
L 169.418124 -55.1155 
L 169.418124 -387.7555 
L 169.418124 -387.7555 
L 164.035487 -387.7555 
z
"/>
    </defs>
    <g clip-path="url(#pfcf601ce7a)">
     <use xlink:href="#m3a8985aa5f" x="0" y="398.34866" style="fill: #d95f02; fill-opacity: 0.2"/>
    </g>
   </g>
   <g id="PolyCollection_23">
    <defs>
     <path id="m5e3c73072d" d="M 169.418124 -387.7555 
L 169.418124 -55.1155 
L 174.80076 -55.1155 
L 174.80076 -387.7555 
L 174.80076 -387.7555 
L 169.418124 -387.7555 
z
"/>
    </defs>
    <g clip-path="url(#pfcf601ce7a)">
     <use xlink:href="#m5e3c73072d" x="0" y="398.34866" style="fill: #d95f02; fill-opacity: 0.2"/>
    </g>
   </g>
   <g id="PolyCollection_24">
    <defs>
     <path id="m5f0c0ba092" d="M 174.80076 -387.7555 
L 174.80076 -55.1155 
L 180.183397 -55.1155 
L 180.183397 -387.7555 
L 180.183397 -387.7555 
L 174.80076 -387.7555 
z
"/>
    </defs>
    <g clip-path="url(#pfcf601ce7a)">
     <use xlink:href="#m5f0c0ba092" x="0" y="398.34866" style="fill: #d95f02; fill-opacity: 0.2"/>
    </g>
   </g>
   <g id="PolyCollection_25">
    <defs>
     <path id="m186c8b4aa6" d="M 180.183397 -387.7555 
L 180.183397 -55.1155 
L 185.566034 -55.1155 
L 185.566034 -387.7555 
L 185.566034 -387.7555 
L 180.183397 -387.7555 
z
"/>
    </defs>
    <g clip-path="url(#pfcf601ce7a)">
     <use xlink:href="#m186c8b4aa6" x="0" y="398.34866" style="fill: #d95f02; fill-opacity: 0.2"/>
    </g>
   </g>
   <g id="PolyCollection_26">
    <defs>
     <path id="m7abf5656bf" d="M 185.566034 -387.7555 
L 185.566034 -55.1155 
L 190.94867 -55.1155 
L 190.94867 -387.7555 
L 190.94867 -387.7555 
L 185.566034 -387.7555 
z
"/>
    </defs>
    <g clip-path="url(#pfcf601ce7a)">
     <use xlink:href="#m7abf5656bf" x="0" y="398.34866" style="fill: #d95f02; fill-opacity: 0.2"/>
    </g>
   </g>
   <g id="PolyCollection_27">
    <defs>
     <path id="mffbe8c05a3" d="M 190.94867 -387.7555 
L 190.94867 -55.1155 
L 196.331307 -55.1155 
L 196.331307 -387.7555 
L 196.331307 -387.7555 
L 190.94867 -387.7555 
z
"/>
    </defs>
    <g clip-path="url(#pfcf601ce7a)">
     <use xlink:href="#mffbe8c05a3" x="0" y="398.34866" style="fill: #d95f02; fill-opacity: 0.2"/>
    </g>
   </g>
   <g id="PolyCollection_28">
    <defs>
     <path id="me1de68f1c2" d="M 196.331307 -387.7555 
L 196.331307 -55.1155 
L 201.713944 -55.1155 
L 201.713944 -387.7555 
L 201.713944 -387.7555 
L 196.331307 -387.7555 
z
"/>
    </defs>
    <g clip-path="url(#pfcf601ce7a)">
     <use xlink:href="#me1de68f1c2" x="0" y="398.34866" style="fill: #d95f02; fill-opacity: 0.2"/>
    </g>
   </g>
   <g id="PolyCollection_29">
    <defs>
     <path id="m57df5cc22f" d="M 201.713944 -387.7555 
L 201.713944 -55.1155 
L 207.09658 -55.1155 
L 207.09658 -387.7555 
L 207.09658 -387.7555 
L 201.713944 -387.7555 
z
"/>
    </defs>
    <g clip-path="url(#pfcf601ce7a)">
     <use xlink:href="#m57df5cc22f" x="0" y="398.34866" style="fill: #1b9e77; fill-opacity: 0.2"/>
    </g>
   </g>
   <g id="PolyCollection_30">
    <defs>
     <path id="m059237a817" d="M 207.09658 -387.7555 
L 207.09658 -55.1155 
L 212.479217 -55.1155 
L 212.479217 -387.7555 
L 212.479217 -387.7555 
L 207.09658 -387.7555 
z
"/>
    </defs>
    <g clip-path="url(#pfcf601ce7a)">
     <use xlink:href="#m059237a817" x="0" y="398.34866" style="fill: #1b9e77; fill-opacity: 0.2"/>
    </g>
   </g>
   <g id="PolyCollection_31">
    <defs>
     <path id="mfd159c7e29" d="M 212.479217 -387.7555 
L 212.479217 -55.1155 
L 217.861854 -55.1155 
L 217.861854 -387.7555 
L 217.861854 -387.7555 
L 212.479217 -387.7555 
z
"/>
    </defs>
    <g clip-path="url(#pfcf601ce7a)">
     <use xlink:href="#mfd159c7e29" x="0" y="398.34866" style="fill: #1b9e77; fill-opacity: 0.2"/>
    </g>
   </g>
   <g id="PolyCollection_32">
    <defs>
     <path id="m434e75411e" d="M 217.861854 -387.7555 
L 217.861854 -55.1155 
L 223.24449 -55.1155 
L 223.24449 -387.7555 
L 223.24449 -387.7555 
L 217.861854 -387.7555 
z
"/>
    </defs>
    <g clip-path="url(#pfcf601ce7a)">
     <use xlink:href="#m434e75411e" x="0" y="398.34866" style="fill: #1b9e77; fill-opacity: 0.2"/>
    </g>
   </g>
   <g id="PolyCollection_33">
    <defs>
     <path id="m6ed469e5d2" d="M 223.24449 -387.7555 
L 223.24449 -55.1155 
L 228.627127 -55.1155 
L 228.627127 -387.7555 
L 228.627127 -387.7555 
L 223.24449 -387.7555 
z
"/>
    </defs>
    <g clip-path="url(#pfcf601ce7a)">
     <use xlink:href="#m6ed469e5d2" x="0" y="398.34866" style="fill: #1b9e77; fill-opacity: 0.2"/>
    </g>
   </g>
   <g id="PolyCollection_34">
    <defs>
     <path id="md6f9b6b933" d="M 228.627127 -387.7555 
L 228.627127 -55.1155 
L 234.009764 -55.1155 
L 234.009764 -387.7555 
L 234.009764 -387.7555 
L 228.627127 -387.7555 
z
"/>
    </defs>
    <g clip-path="url(#pfcf601ce7a)">
     <use xlink:href="#md6f9b6b933" x="0" y="398.34866" style="fill: #d95f02; fill-opacity: 0.2"/>
    </g>
   </g>
   <g id="PolyCollection_35">
    <defs>
     <path id="m96a6ac458a" d="M 234.009764 -387.7555 
L 234.009764 -55.1155 
L 239.3924 -55.1155 
L 239.3924 -387.7555 
L 239.3924 -387.7555 
L 234.009764 -387.7555 
z
"/>
    </defs>
    <g clip-path="url(#pfcf601ce7a)">
     <use xlink:href="#m96a6ac458a" x="0" y="398.34866" style="fill: #1b9e77; fill-opacity: 0.2"/>
    </g>
   </g>
   <g id="PolyCollection_36">
    <defs>
     <path id="md05574e0a1" d="M 239.3924 -387.7555 
L 239.3924 -55.1155 
L 244.775037 -55.1155 
L 244.775037 -387.7555 
L 244.775037 -387.7555 
L 239.3924 -387.7555 
z
"/>
    </defs>
    <g clip-path="url(#pfcf601ce7a)">
     <use xlink:href="#md05574e0a1" x="0" y="398.34866" style="fill: #1b9e77; fill-opacity: 0.2"/>
    </g>
   </g>
   <g id="PolyCollection_37">
    <defs>
     <path id="ma6a3f068f4" d="M 244.775037 -387.7555 
L 244.775037 -55.1155 
L 250.157674 -55.1155 
L 250.157674 -387.7555 
L 250.157674 -387.7555 
L 244.775037 -387.7555 
z
"/>
    </defs>
    <g clip-path="url(#pfcf601ce7a)">
     <use xlink:href="#ma6a3f068f4" x="0" y="398.34866" style="fill: #1b9e77; fill-opacity: 0.2"/>
    </g>
   </g>
   <g id="PolyCollection_38">
    <defs>
     <path id="mb78238ea6b" d="M 250.157674 -387.7555 
L 250.157674 -55.1155 
L 255.54031 -55.1155 
L 255.54031 -387.7555 
L 255.54031 -387.7555 
L 250.157674 -387.7555 
z
"/>
    </defs>
    <g clip-path="url(#pfcf601ce7a)">
     <use xlink:href="#mb78238ea6b" x="0" y="398.34866" style="fill: #d95f02; fill-opacity: 0.2"/>
    </g>
   </g>
   <g id="PolyCollection_39">
    <defs>
     <path id="m948509ed36" d="M 255.54031 -387.7555 
L 255.54031 -55.1155 
L 260.922947 -55.1155 
L 260.922947 -387.7555 
L 260.922947 -387.7555 
L 255.54031 -387.7555 
z
"/>
    </defs>
    <g clip-path="url(#pfcf601ce7a)">
     <use xlink:href="#m948509ed36" x="0" y="398.34866" style="fill: #d95f02; fill-opacity: 0.2"/>
    </g>
   </g>
   <g id="PolyCollection_40">
    <defs>
     <path id="m3ff4357fb2" d="M 260.922947 -387.7555 
L 260.922947 -55.1155 
L 266.305584 -55.1155 
L 266.305584 -387.7555 
L 266.305584 -387.7555 
L 260.922947 -387.7555 
z
"/>
    </defs>
    <g clip-path="url(#pfcf601ce7a)">
     <use xlink:href="#m3ff4357fb2" x="0" y="398.34866" style="fill: #1b9e77; fill-opacity: 0.2"/>
    </g>
   </g>
   <g id="PolyCollection_41">
    <defs>
     <path id="m8cb807be05" d="M 266.305584 -387.7555 
L 266.305584 -55.1155 
L 271.68822 -55.1155 
L 271.68822 -387.7555 
L 271.68822 -387.7555 
L 266.305584 -387.7555 
z
"/>
    </defs>
    <g clip-path="url(#pfcf601ce7a)">
     <use xlink:href="#m8cb807be05" x="0" y="398.34866" style="fill: #1b9e77; fill-opacity: 0.2"/>
    </g>
   </g>
   <g id="PolyCollection_42">
    <defs>
     <path id="md82b6c08b4" d="M 271.68822 -387.7555 
L 271.68822 -55.1155 
L 277.070857 -55.1155 
L 277.070857 -387.7555 
L 277.070857 -387.7555 
L 271.68822 -387.7555 
z
"/>
    </defs>
    <g clip-path="url(#pfcf601ce7a)">
     <use xlink:href="#md82b6c08b4" x="0" y="398.34866" style="fill: #1b9e77; fill-opacity: 0.2"/>
    </g>
   </g>
   <g id="PolyCollection_43">
    <defs>
     <path id="mcd88607aa2" d="M 277.070857 -387.7555 
L 277.070857 -55.1155 
L 282.453494 -55.1155 
L 282.453494 -387.7555 
L 282.453494 -387.7555 
L 277.070857 -387.7555 
z
"/>
    </defs>
    <g clip-path="url(#pfcf601ce7a)">
     <use xlink:href="#mcd88607aa2" x="0" y="398.34866" style="fill: #1b9e77; fill-opacity: 0.2"/>
    </g>
   </g>
   <g id="PolyCollection_44">
    <defs>
     <path id="m895dbc62b5" d="M 282.453494 -387.7555 
L 282.453494 -55.1155 
L 287.83613 -55.1155 
L 287.83613 -387.7555 
L 287.83613 -387.7555 
L 282.453494 -387.7555 
z
"/>
    </defs>
    <g clip-path="url(#pfcf601ce7a)">
     <use xlink:href="#m895dbc62b5" x="0" y="398.34866" style="fill: #d95f02; fill-opacity: 0.2"/>
    </g>
   </g>
   <g id="PolyCollection_45">
    <defs>
     <path id="me0a4982e53" d="M 287.83613 -387.7555 
L 287.83613 -55.1155 
L 293.218767 -55.1155 
L 293.218767 -387.7555 
L 293.218767 -387.7555 
L 287.83613 -387.7555 
z
"/>
    </defs>
    <g clip-path="url(#pfcf601ce7a)">
     <use xlink:href="#me0a4982e53" x="0" y="398.34866" style="fill: #1b9e77; fill-opacity: 0.2"/>
    </g>
   </g>
   <g id="PolyCollection_46">
    <defs>
     <path id="m73f2e9439a" d="M 293.218767 -387.7555 
L 293.218767 -55.1155 
L 298.601404 -55.1155 
L 298.601404 -387.7555 
L 298.601404 -387.7555 
L 293.218767 -387.7555 
z
"/>
    </defs>
    <g clip-path="url(#pfcf601ce7a)">
     <use xlink:href="#m73f2e9439a" x="0" y="398.34866" style="fill: #1b9e77; fill-opacity: 0.2"/>
    </g>
   </g>
   <g id="PolyCollection_47">
    <defs>
     <path id="ma704e17695" d="M 298.601404 -387.7555 
L 298.601404 -55.1155 
L 303.98404 -55.1155 
L 303.98404 -387.7555 
L 303.98404 -387.7555 
L 298.601404 -387.7555 
z
"/>
    </defs>
    <g clip-path="url(#pfcf601ce7a)">
     <use xlink:href="#ma704e17695" x="0" y="398.34866" style="fill: #1b9e77; fill-opacity: 0.2"/>
    </g>
   </g>
   <g id="PolyCollection_48">
    <defs>
     <path id="mf6abdbaf3d" d="M 303.98404 -387.7555 
L 303.98404 -55.1155 
L 309.366677 -55.1155 
L 309.366677 -387.7555 
L 309.366677 -387.7555 
L 303.98404 -387.7555 
z
"/>
    </defs>
    <g clip-path="url(#pfcf601ce7a)">
     <use xlink:href="#mf6abdbaf3d" x="0" y="398.34866" style="fill: #1b9e77; fill-opacity: 0.2"/>
    </g>
   </g>
   <g id="PolyCollection_49">
    <defs>
     <path id="mcdfd85b8ce" d="M 309.366677 -387.7555 
L 309.366677 -55.1155 
L 314.749314 -55.1155 
L 314.749314 -387.7555 
L 314.749314 -387.7555 
L 309.366677 -387.7555 
z
"/>
    </defs>
    <g clip-path="url(#pfcf601ce7a)">
     <use xlink:href="#mcdfd85b8ce" x="0" y="398.34866" style="fill: #1b9e77; fill-opacity: 0.2"/>
    </g>
   </g>
   <g id="PolyCollection_50">
    <defs>
     <path id="m40ff5f07d0" d="M 314.749314 -387.7555 
L 314.749314 -55.1155 
L 320.13195 -55.1155 
L 320.13195 -387.7555 
L 320.13195 -387.7555 
L 314.749314 -387.7555 
z
"/>
    </defs>
    <g clip-path="url(#pfcf601ce7a)">
     <use xlink:href="#m40ff5f07d0" x="0" y="398.34866" style="fill: #1b9e77; fill-opacity: 0.2"/>
    </g>
   </g>
   <g id="PolyCollection_51">
    <defs>
     <path id="mc67c36de27" d="M 320.13195 -387.7555 
L 320.13195 -55.1155 
L 325.514587 -55.1155 
L 325.514587 -387.7555 
L 325.514587 -387.7555 
L 320.13195 -387.7555 
z
"/>
    </defs>
    <g clip-path="url(#pfcf601ce7a)">
     <use xlink:href="#mc67c36de27" x="0" y="398.34866" style="fill: #d95f02; fill-opacity: 0.2"/>
    </g>
   </g>
   <g id="PolyCollection_52">
    <defs>
     <path id="m93db145ad1" d="M 325.514587 -387.7555 
L 325.514587 -55.1155 
L 330.897223 -55.1155 
L 330.897223 -387.7555 
L 330.897223 -387.7555 
L 325.514587 -387.7555 
z
"/>
    </defs>
    <g clip-path="url(#pfcf601ce7a)">
     <use xlink:href="#m93db145ad1" x="0" y="398.34866" style="fill: #d95f02; fill-opacity: 0.2"/>
    </g>
   </g>
   <g id="PolyCollection_53">
    <defs>
     <path id="ma84f53afde" d="M 330.897223 -387.7555 
L 330.897223 -55.1155 
L 336.27986 -55.1155 
L 336.27986 -387.7555 
L 336.27986 -387.7555 
L 330.897223 -387.7555 
z
"/>
    </defs>
    <g clip-path="url(#pfcf601ce7a)">
     <use xlink:href="#ma84f53afde" x="0" y="398.34866" style="fill: #1b9e77; fill-opacity: 0.2"/>
    </g>
   </g>
   <g id="PolyCollection_54">
    <defs>
     <path id="me28e210dda" d="M 336.27986 -387.7555 
L 336.27986 -55.1155 
L 341.662497 -55.1155 
L 341.662497 -387.7555 
L 341.662497 -387.7555 
L 336.27986 -387.7555 
z
"/>
    </defs>
    <g clip-path="url(#pfcf601ce7a)">
     <use xlink:href="#me28e210dda" x="0" y="398.34866" style="fill: #1b9e77; fill-opacity: 0.2"/>
    </g>
   </g>
   <g id="PolyCollection_55">
    <defs>
     <path id="m89dfc8fbb5" d="M 341.662497 -387.7555 
L 341.662497 -55.1155 
L 347.045133 -55.1155 
L 347.045133 -387.7555 
L 347.045133 -387.7555 
L 341.662497 -387.7555 
z
"/>
    </defs>
    <g clip-path="url(#pfcf601ce7a)">
     <use xlink:href="#m89dfc8fbb5" x="0" y="398.34866" style="fill: #d95f02; fill-opacity: 0.2"/>
    </g>
   </g>
   <g id="PolyCollection_56">
    <defs>
     <path id="mf60040e2b6" d="M 347.045133 -387.7555 
L 347.045133 -55.1155 
L 352.42777 -55.1155 
L 352.42777 -387.7555 
L 352.42777 -387.7555 
L 347.045133 -387.7555 
z
"/>
    </defs>
    <g clip-path="url(#pfcf601ce7a)">
     <use xlink:href="#mf60040e2b6" x="0" y="398.34866" style="fill: #d95f02; fill-opacity: 0.2"/>
    </g>
   </g>
   <g id="PolyCollection_57">
    <defs>
     <path id="mf9fc37182a" d="M 352.42777 -387.7555 
L 352.42777 -55.1155 
L 357.810407 -55.1155 
L 357.810407 -387.7555 
L 357.810407 -387.7555 
L 352.42777 -387.7555 
z
"/>
    </defs>
    <g clip-path="url(#pfcf601ce7a)">
     <use xlink:href="#mf9fc37182a" x="0" y="398.34866" style="fill: #d95f02; fill-opacity: 0.2"/>
    </g>
   </g>
   <g id="PolyCollection_58">
    <defs>
     <path id="m9fb2ffea6c" d="M 357.810407 -387.7555 
L 357.810407 -55.1155 
L 363.193043 -55.1155 
L 363.193043 -387.7555 
L 363.193043 -387.7555 
L 357.810407 -387.7555 
z
"/>
    </defs>
    <g clip-path="url(#pfcf601ce7a)">
     <use xlink:href="#m9fb2ffea6c" x="0" y="398.34866" style="fill: #d95f02; fill-opacity: 0.2"/>
    </g>
   </g>
   <g id="PolyCollection_59">
    <defs>
     <path id="mc1bac872fa" d="M 363.193043 -387.7555 
L 363.193043 -55.1155 
L 368.57568 -55.1155 
L 368.57568 -387.7555 
L 368.57568 -387.7555 
L 363.193043 -387.7555 
z
"/>
    </defs>
    <g clip-path="url(#pfcf601ce7a)">
     <use xlink:href="#mc1bac872fa" x="0" y="398.34866" style="fill: #1b9e77; fill-opacity: 0.2"/>
    </g>
   </g>
   <g id="PolyCollection_60">
    <defs>
     <path id="mff49e78894" d="M 368.57568 -387.7555 
L 368.57568 -55.1155 
L 373.958317 -55.1155 
L 373.958317 -387.7555 
L 373.958317 -387.7555 
L 368.57568 -387.7555 
z
"/>
    </defs>
    <g clip-path="url(#pfcf601ce7a)">
     <use xlink:href="#mff49e78894" x="0" y="398.34866" style="fill: #d95f02; fill-opacity: 0.2"/>
    </g>
   </g>
   <g id="PolyCollection_61">
    <defs>
     <path id="m83cffd5b90" d="M 373.958317 -387.7555 
L 373.958317 -55.1155 
L 379.340953 -55.1155 
L 379.340953 -387.7555 
L 379.340953 -387.7555 
L 373.958317 -387.7555 
z
"/>
    </defs>
    <g clip-path="url(#pfcf601ce7a)">
     <use xlink:href="#m83cffd5b90" x="0" y="398.34866" style="fill: #1b9e77; fill-opacity: 0.2"/>
    </g>
   </g>
   <g id="PolyCollection_62">
    <defs>
     <path id="m1cd266c9d5" d="M 379.340953 -387.7555 
L 379.340953 -55.1155 
L 384.72359 -55.1155 
L 384.72359 -387.7555 
L 384.72359 -387.7555 
L 379.340953 -387.7555 
z
"/>
    </defs>
    <g clip-path="url(#pfcf601ce7a)">
     <use xlink:href="#m1cd266c9d5" x="0" y="398.34866" style="fill: #d95f02; fill-opacity: 0.2"/>
    </g>
   </g>
   <g id="PolyCollection_63">
    <defs>
     <path id="m1de5849b84" d="M 384.72359 -387.7555 
L 384.72359 -55.1155 
L 390.106227 -55.1155 
L 390.106227 -387.7555 
L 390.106227 -387.7555 
L 384.72359 -387.7555 
z
"/>
    </defs>
    <g clip-path="url(#pfcf601ce7a)">
     <use xlink:href="#m1de5849b84" x="0" y="398.34866" style="fill: #d95f02; fill-opacity: 0.2"/>
    </g>
   </g>
   <g id="PolyCollection_64">
    <defs>
     <path id="mfaadc1153f" d="M 390.106227 -387.7555 
L 390.106227 -55.1155 
L 395.488863 -55.1155 
L 395.488863 -387.7555 
L 395.488863 -387.7555 
L 390.106227 -387.7555 
z
"/>
    </defs>
    <g clip-path="url(#pfcf601ce7a)">
     <use xlink:href="#mfaadc1153f" x="0" y="398.34866" style="fill: #d95f02; fill-opacity: 0.2"/>
    </g>
   </g>
   <g id="PolyCollection_65">
    <defs>
     <path id="m0b148214e5" d="M 395.488863 -387.7555 
L 395.488863 -55.1155 
L 400.8715 -55.1155 
L 400.8715 -387.7555 
L 400.8715 -387.7555 
L 395.488863 -387.7555 
z
"/>
    </defs>
    <g clip-path="url(#pfcf601ce7a)">
     <use xlink:href="#m0b148214e5" x="0" y="398.34866" style="fill: #d95f02; fill-opacity: 0.2"/>
    </g>
   </g>
   <g id="PolyCollection_66">
    <defs>
     <path id="ma21beb51f2" d="M 400.8715 -387.7555 
L 400.8715 -55.1155 
L 406.254137 -55.1155 
L 406.254137 -387.7555 
L 406.254137 -387.7555 
L 400.8715 -387.7555 
z
"/>
    </defs>
    <g clip-path="url(#pfcf601ce7a)">
     <use xlink:href="#ma21beb51f2" x="0" y="398.34866" style="fill: #1b9e77; fill-opacity: 0.2"/>
    </g>
   </g>
   <g id="PolyCollection_67">
    <defs>
     <path id="ma09e3064bd" d="M 406.254137 -387.7555 
L 406.254137 -55.1155 
L 411.636773 -55.1155 
L 411.636773 -387.7555 
L 411.636773 -387.7555 
L 406.254137 -387.7555 
z
"/>
    </defs>
    <g clip-path="url(#pfcf601ce7a)">
     <use xlink:href="#ma09e3064bd" x="0" y="398.34866" style="fill: #d95f02; fill-opacity: 0.2"/>
    </g>
   </g>
   <g id="PolyCollection_68">
    <defs>
     <path id="m09cb7056fd" d="M 411.636773 -387.7555 
L 411.636773 -55.1155 
L 417.01941 -55.1155 
L 417.01941 -387.7555 
L 417.01941 -387.7555 
L 411.636773 -387.7555 
z
"/>
    </defs>
    <g clip-path="url(#pfcf601ce7a)">
     <use xlink:href="#m09cb7056fd" x="0" y="398.34866" style="fill: #1b9e77; fill-opacity: 0.2"/>
    </g>
   </g>
   <g id="PolyCollection_69">
    <defs>
     <path id="mea51f41caf" d="M 417.01941 -387.7555 
L 417.01941 -55.1155 
L 422.402047 -55.1155 
L 422.402047 -387.7555 
L 422.402047 -387.7555 
L 417.01941 -387.7555 
z
"/>
    </defs>
    <g clip-path="url(#pfcf601ce7a)">
     <use xlink:href="#mea51f41caf" x="0" y="398.34866" style="fill: #d95f02; fill-opacity: 0.2"/>
    </g>
   </g>
   <g id="PolyCollection_70">
    <defs>
     <path id="m2e51561a75" d="M 422.402047 -387.7555 
L 422.402047 -55.1155 
L 427.784683 -55.1155 
L 427.784683 -387.7555 
L 427.784683 -387.7555 
L 422.402047 -387.7555 
z
"/>
    </defs>
    <g clip-path="url(#pfcf601ce7a)">
     <use xlink:href="#m2e51561a75" x="0" y="398.34866" style="fill: #d95f02; fill-opacity: 0.2"/>
    </g>
   </g>
   <g id="PolyCollection_71">
    <defs>
     <path id="mf00d90739a" d="M 427.784683 -387.7555 
L 427.784683 -55.1155 
L 433.16732 -55.1155 
L 433.16732 -387.7555 
L 433.16732 -387.7555 
L 427.784683 -387.7555 
z
"/>
    </defs>
    <g clip-path="url(#pfcf601ce7a)">
     <use xlink:href="#mf00d90739a" x="0" y="398.34866" style="fill: #1b9e77; fill-opacity: 0.2"/>
    </g>
   </g>
   <g id="PolyCollection_72">
    <defs>
     <path id="m5049d759f1" d="M 433.16732 -387.7555 
L 433.16732 -55.1155 
L 438.549957 -55.1155 
L 438.549957 -387.7555 
L 438.549957 -387.7555 
L 433.16732 -387.7555 
z
"/>
    </defs>
    <g clip-path="url(#pfcf601ce7a)">
     <use xlink:href="#m5049d759f1" x="0" y="398.34866" style="fill: #1b9e77; fill-opacity: 0.2"/>
    </g>
   </g>
   <g id="PolyCollection_73">
    <defs>
     <path id="ma36c0ba007" d="M 438.549957 -387.7555 
L 438.549957 -55.1155 
L 443.932593 -55.1155 
L 443.932593 -387.7555 
L 443.932593 -387.7555 
L 438.549957 -387.7555 
z
"/>
    </defs>
    <g clip-path="url(#pfcf601ce7a)">
     <use xlink:href="#ma36c0ba007" x="0" y="398.34866" style="fill: #1b9e77; fill-opacity: 0.2"/>
    </g>
   </g>
   <g id="PolyCollection_74">
    <defs>
     <path id="m4b0def48e6" d="M 443.932593 -387.7555 
L 443.932593 -55.1155 
L 449.31523 -55.1155 
L 449.31523 -387.7555 
L 449.31523 -387.7555 
L 443.932593 -387.7555 
z
"/>
    </defs>
    <g clip-path="url(#pfcf601ce7a)">
     <use xlink:href="#m4b0def48e6" x="0" y="398.34866" style="fill: #d95f02; fill-opacity: 0.2"/>
    </g>
   </g>
   <g id="PolyCollection_75">
    <defs>
     <path id="med3b0562c9" d="M 449.31523 -387.7555 
L 449.31523 -55.1155 
L 454.697867 -55.1155 
L 454.697867 -387.7555 
L 454.697867 -387.7555 
L 449.31523 -387.7555 
z
"/>
    </defs>
    <g clip-path="url(#pfcf601ce7a)">
     <use xlink:href="#med3b0562c9" x="0" y="398.34866" style="fill: #d95f02; fill-opacity: 0.2"/>
    </g>
   </g>
   <g id="PolyCollection_76">
    <defs>
     <path id="m045acea8e8" d="M 454.697867 -387.7555 
L 454.697867 -55.1155 
L 460.080503 -55.1155 
L 460.080503 -387.7555 
L 460.080503 -387.7555 
L 454.697867 -387.7555 
z
"/>
    </defs>
    <g clip-path="url(#pfcf601ce7a)">
     <use xlink:href="#m045acea8e8" x="0" y="398.34866" style="fill: #1b9e77; fill-opacity: 0.2"/>
    </g>
   </g>
   <g id="PolyCollection_77">
    <defs>
     <path id="m1c8b434c48" d="M 460.080503 -387.7555 
L 460.080503 -55.1155 
L 465.46314 -55.1155 
L 465.46314 -387.7555 
L 465.46314 -387.7555 
L 460.080503 -387.7555 
z
"/>
    </defs>
    <g clip-path="url(#pfcf601ce7a)">
     <use xlink:href="#m1c8b434c48" x="0" y="398.34866" style="fill: #d95f02; fill-opacity: 0.2"/>
    </g>
   </g>
   <g id="PolyCollection_78">
    <defs>
     <path id="me6a02758a0" d="M 465.46314 -387.7555 
L 465.46314 -55.1155 
L 470.845777 -55.1155 
L 470.845777 -387.7555 
L 470.845777 -387.7555 
L 465.46314 -387.7555 
z
"/>
    </defs>
    <g clip-path="url(#pfcf601ce7a)">
     <use xlink:href="#me6a02758a0" x="0" y="398.34866" style="fill: #d95f02; fill-opacity: 0.2"/>
    </g>
   </g>
   <g id="PolyCollection_79">
    <defs>
     <path id="m2123a0f52d" d="M 470.845777 -387.7555 
L 470.845777 -55.1155 
L 476.228413 -55.1155 
L 476.228413 -387.7555 
L 476.228413 -387.7555 
L 470.845777 -387.7555 
z
"/>
    </defs>
    <g clip-path="url(#pfcf601ce7a)">
     <use xlink:href="#m2123a0f52d" x="0" y="398.34866" style="fill: #d95f02; fill-opacity: 0.2"/>
    </g>
   </g>
   <g id="PolyCollection_80">
    <defs>
     <path id="m5dd3fc7302" d="M 476.228413 -387.7555 
L 476.228413 -55.1155 
L 481.61105 -55.1155 
L 481.61105 -387.7555 
L 481.61105 -387.7555 
L 476.228413 -387.7555 
z
"/>
    </defs>
    <g clip-path="url(#pfcf601ce7a)">
     <use xlink:href="#m5dd3fc7302" x="0" y="398.34866" style="fill: #d95f02; fill-opacity: 0.2"/>
    </g>
   </g>
   <g id="PolyCollection_81">
    <defs>
     <path id="m2ef2a8b34c" d="M 481.61105 -387.7555 
L 481.61105 -55.1155 
L 486.993686 -55.1155 
L 486.993686 -387.7555 
L 486.993686 -387.7555 
L 481.61105 -387.7555 
z
"/>
    </defs>
    <g clip-path="url(#pfcf601ce7a)">
     <use xlink:href="#m2ef2a8b34c" x="0" y="398.34866" style="fill: #d95f02; fill-opacity: 0.2"/>
    </g>
   </g>
   <g id="PolyCollection_82">
    <defs>
     <path id="m39fb0462bd" d="M 486.993686 -387.7555 
L 486.993686 -55.1155 
L 492.376323 -55.1155 
L 492.376323 -387.7555 
L 492.376323 -387.7555 
L 486.993686 -387.7555 
z
"/>
    </defs>
    <g clip-path="url(#pfcf601ce7a)">
     <use xlink:href="#m39fb0462bd" x="0" y="398.34866" style="fill: #d95f02; fill-opacity: 0.2"/>
    </g>
   </g>
   <g id="PolyCollection_83">
    <defs>
     <path id="mbc38e53b18" d="M 492.376323 -387.7555 
L 492.376323 -55.1155 
L 497.75896 -55.1155 
L 497.75896 -387.7555 
L 497.75896 -387.7555 
L 492.376323 -387.7555 
z
"/>
    </defs>
    <g clip-path="url(#pfcf601ce7a)">
     <use xlink:href="#mbc38e53b18" x="0" y="398.34866" style="fill: #d95f02; fill-opacity: 0.2"/>
    </g>
   </g>
   <g id="PolyCollection_84">
    <defs>
     <path id="mea93fea84a" d="M 497.75896 -387.7555 
L 497.75896 -55.1155 
L 503.141596 -55.1155 
L 503.141596 -387.7555 
L 503.141596 -387.7555 
L 497.75896 -387.7555 
z
"/>
    </defs>
    <g clip-path="url(#pfcf601ce7a)">
     <use xlink:href="#mea93fea84a" x="0" y="398.34866" style="fill: #1b9e77; fill-opacity: 0.2"/>
    </g>
   </g>
   <g id="matplotlib.axis_1">
    <g id="xtick_1">
     <g id="line2d_1">
      <defs>
       <path id="m43203de48c" d="M 0 0 
L 0 4.8 
" style="stroke: #000000"/>
      </defs>
      <g>
       <use xlink:href="#m43203de48c" x="67.148027" y="343.23316" style="stroke: #000000"/>
      </g>
     </g>
     <g id="text_1">
      <!-- 0 -->
      <g transform="translate(61.549027 364.90641) scale(0.176 -0.176)">
       <defs>
        <path id="DejaVuSans-30" d="M 2034 4250 
Q 1547 4250 1301 3770 
Q 1056 3291 1056 2328 
Q 1056 1369 1301 889 
Q 1547 409 2034 409 
Q 2525 409 2770 889 
Q 3016 1369 3016 2328 
Q 3016 3291 2770 3770 
Q 2525 4250 2034 4250 
z
M 2034 4750 
Q 2819 4750 3233 4129 
Q 3647 3509 3647 2328 
Q 3647 1150 3233 529 
Q 2819 -91 2034 -91 
Q 1250 -91 836 529 
Q 422 1150 422 2328 
Q 422 3509 836 4129 
Q 1250 4750 2034 4750 
z
" transform="scale(0.015625)"/>
       </defs>
       <use xlink:href="#DejaVuSans-30"/>
      </g>
     </g>
    </g>
    <g id="xtick_2">
     <g id="line2d_2">
      <g>
       <use xlink:href="#m43203de48c" x="174.80076" y="343.23316" style="stroke: #000000"/>
      </g>
     </g>
     <g id="text_2">
      <!-- 20 -->
      <g transform="translate(163.60276 364.90641) scale(0.176 -0.176)">
       <defs>
        <path id="DejaVuSans-32" d="M 1228 531 
L 3431 531 
L 3431 0 
L 469 0 
L 469 531 
Q 828 903 1448 1529 
Q 2069 2156 2228 2338 
Q 2531 2678 2651 2914 
Q 2772 3150 2772 3378 
Q 2772 3750 2511 3984 
Q 2250 4219 1831 4219 
Q 1534 4219 1204 4116 
Q 875 4013 500 3803 
L 500 4441 
Q 881 4594 1212 4672 
Q 1544 4750 1819 4750 
Q 2544 4750 2975 4387 
Q 3406 4025 3406 3419 
Q 3406 3131 3298 2873 
Q 3191 2616 2906 2266 
Q 2828 2175 2409 1742 
Q 1991 1309 1228 531 
z
" transform="scale(0.015625)"/>
       </defs>
       <use xlink:href="#DejaVuSans-32"/>
       <use xlink:href="#DejaVuSans-30" x="63.623047"/>
      </g>
     </g>
    </g>
    <g id="xtick_3">
     <g id="line2d_3">
      <g>
       <use xlink:href="#m43203de48c" x="282.453494" y="343.23316" style="stroke: #000000"/>
      </g>
     </g>
     <g id="text_3">
      <!-- 40 -->
      <g transform="translate(271.255494 364.90641) scale(0.176 -0.176)">
       <defs>
        <path id="DejaVuSans-34" d="M 2419 4116 
L 825 1625 
L 2419 1625 
L 2419 4116 
z
M 2253 4666 
L 3047 4666 
L 3047 1625 
L 3713 1625 
L 3713 1100 
L 3047 1100 
L 3047 0 
L 2419 0 
L 2419 1100 
L 313 1100 
L 313 1709 
L 2253 4666 
z
" transform="scale(0.015625)"/>
       </defs>
       <use xlink:href="#DejaVuSans-34"/>
       <use xlink:href="#DejaVuSans-30" x="63.623047"/>
      </g>
     </g>
    </g>
    <g id="xtick_4">
     <g id="line2d_4">
      <g>
       <use xlink:href="#m43203de48c" x="390.106227" y="343.23316" style="stroke: #000000"/>
      </g>
     </g>
     <g id="text_4">
      <!-- 60 -->
      <g transform="translate(378.908227 364.90641) scale(0.176 -0.176)">
       <defs>
        <path id="DejaVuSans-36" d="M 2113 2584 
Q 1688 2584 1439 2293 
Q 1191 2003 1191 1497 
Q 1191 994 1439 701 
Q 1688 409 2113 409 
Q 2538 409 2786 701 
Q 3034 994 3034 1497 
Q 3034 2003 2786 2293 
Q 2538 2584 2113 2584 
z
M 3366 4563 
L 3366 3988 
Q 3128 4100 2886 4159 
Q 2644 4219 2406 4219 
Q 1781 4219 1451 3797 
Q 1122 3375 1075 2522 
Q 1259 2794 1537 2939 
Q 1816 3084 2150 3084 
Q 2853 3084 3261 2657 
Q 3669 2231 3669 1497 
Q 3669 778 3244 343 
Q 2819 -91 2113 -91 
Q 1303 -91 875 529 
Q 447 1150 447 2328 
Q 447 3434 972 4092 
Q 1497 4750 2381 4750 
Q 2619 4750 2861 4703 
Q 3103 4656 3366 4563 
z
" transform="scale(0.015625)"/>
       </defs>
       <use xlink:href="#DejaVuSans-36"/>
       <use xlink:href="#DejaVuSans-30" x="63.623047"/>
      </g>
     </g>
    </g>
    <g id="text_5">
     <!-- State -->
     <g transform="translate(208.06 387.15566) scale(0.192 -0.192)">
      <defs>
       <path id="DejaVuSans-53" d="M 3425 4513 
L 3425 3897 
Q 3066 4069 2747 4153 
Q 2428 4238 2131 4238 
Q 1616 4238 1336 4038 
Q 1056 3838 1056 3469 
Q 1056 3159 1242 3001 
Q 1428 2844 1947 2747 
L 2328 2669 
Q 3034 2534 3370 2195 
Q 3706 1856 3706 1288 
Q 3706 609 3251 259 
Q 2797 -91 1919 -91 
Q 1588 -91 1214 -16 
Q 841 59 441 206 
L 441 856 
Q 825 641 1194 531 
Q 1563 422 1919 422 
Q 2459 422 2753 634 
Q 3047 847 3047 1241 
Q 3047 1584 2836 1778 
Q 2625 1972 2144 2069 
L 1759 2144 
Q 1053 2284 737 2584 
Q 422 2884 422 3419 
Q 422 4038 858 4394 
Q 1294 4750 2059 4750 
Q 2388 4750 2728 4690 
Q 3069 4631 3425 4513 
z
" transform="scale(0.015625)"/>
       <path id="DejaVuSans-74" d="M 1172 4494 
L 1172 3500 
L 2356 3500 
L 2356 3053 
L 1172 3053 
L 1172 1153 
Q 1172 725 1289 603 
Q 1406 481 1766 481 
L 2356 481 
L 2356 0 
L 1766 0 
Q 1100 0 847 248 
Q 594 497 594 1153 
L 594 3053 
L 172 3053 
L 172 3500 
L 594 3500 
L 594 4494 
L 1172 4494 
z
" transform="scale(0.015625)"/>
       <path id="DejaVuSans-61" d="M 2194 1759 
Q 1497 1759 1228 1600 
Q 959 1441 959 1056 
Q 959 750 1161 570 
Q 1363 391 1709 391 
Q 2188 391 2477 730 
Q 2766 1069 2766 1631 
L 2766 1759 
L 2194 1759 
z
M 3341 1997 
L 3341 0 
L 2766 0 
L 2766 531 
Q 2569 213 2275 61 
Q 1981 -91 1556 -91 
Q 1019 -91 701 211 
Q 384 513 384 1019 
Q 384 1609 779 1909 
Q 1175 2209 1959 2209 
L 2766 2209 
L 2766 2266 
Q 2766 2663 2505 2880 
Q 2244 3097 1772 3097 
Q 1472 3097 1187 3025 
Q 903 2953 641 2809 
L 641 3341 
Q 956 3463 1253 3523 
Q 1550 3584 1831 3584 
Q 2591 3584 2966 3190 
Q 3341 2797 3341 1997 
z
" transform="scale(0.015625)"/>
       <path id="DejaVuSans-65" d="M 3597 1894 
L 3597 1613 
L 953 1613 
Q 991 1019 1311 708 
Q 1631 397 2203 397 
Q 2534 397 2845 478 
Q 3156 559 3463 722 
L 3463 178 
Q 3153 47 2828 -22 
Q 2503 -91 2169 -91 
Q 1331 -91 842 396 
Q 353 884 353 1716 
Q 353 2575 817 3079 
Q 1281 3584 2069 3584 
Q 2775 3584 3186 3129 
Q 3597 2675 3597 1894 
z
M 3022 2063 
Q 3016 2534 2758 2815 
Q 2500 3097 2075 3097 
Q 1594 3097 1305 2825 
Q 1016 2553 972 2059 
L 3022 2063 
z
" transform="scale(0.015625)"/>
      </defs>
      <use xlink:href="#DejaVuSans-53"/>
      <use xlink:href="#DejaVuSans-74" x="63.476562"/>
      <use xlink:href="#DejaVuSans-61" x="102.685547"/>
      <use xlink:href="#DejaVuSans-74" x="163.964844"/>
      <use xlink:href="#DejaVuSans-65" x="203.173828"/>
     </g>
    </g>
   </g>
   <g id="matplotlib.axis_2">
    <g id="ytick_1">
     <g id="line2d_5">
      <defs>
       <path id="m7719d4cef4" d="M 0 0 
L -4.8 0 
" style="stroke: #000000"/>
      </defs>
      <g>
       <use xlink:href="#m7719d4cef4" x="66.0715" y="343.23316" style="stroke: #000000"/>
      </g>
     </g>
     <g id="text_6">
      <!-- 0.0 -->
      <g transform="translate(29.782 349.919785) scale(0.176 -0.176)">
       <defs>
        <path id="DejaVuSans-2e" d="M 684 794 
L 1344 794 
L 1344 0 
L 684 0 
L 684 794 
z
" transform="scale(0.015625)"/>
       </defs>
       <use xlink:href="#DejaVuSans-30"/>
       <use xlink:href="#DejaVuSans-2e" x="63.623047"/>
       <use xlink:href="#DejaVuSans-30" x="95.410156"/>
      </g>
     </g>
    </g>
    <g id="ytick_2">
     <g id="line2d_6">
      <g>
       <use xlink:href="#m7719d4cef4" x="66.0715" y="277.363853" style="stroke: #000000"/>
      </g>
     </g>
     <g id="text_7">
      <!-- 0.2 -->
      <g transform="translate(29.782 284.050478) scale(0.176 -0.176)">
       <use xlink:href="#DejaVuSans-30"/>
       <use xlink:href="#DejaVuSans-2e" x="63.623047"/>
       <use xlink:href="#DejaVuSans-32" x="95.410156"/>
      </g>
     </g>
    </g>
    <g id="ytick_3">
     <g id="line2d_7">
      <g>
       <use xlink:href="#m7719d4cef4" x="66.0715" y="211.494546" style="stroke: #000000"/>
      </g>
     </g>
     <g id="text_8">
      <!-- 0.4 -->
      <g transform="translate(29.782 218.181171) scale(0.176 -0.176)">
       <use xlink:href="#DejaVuSans-30"/>
       <use xlink:href="#DejaVuSans-2e" x="63.623047"/>
       <use xlink:href="#DejaVuSans-34" x="95.410156"/>
      </g>
     </g>
    </g>
    <g id="ytick_4">
     <g id="line2d_8">
      <g>
       <use xlink:href="#m7719d4cef4" x="66.0715" y="145.625239" style="stroke: #000000"/>
      </g>
     </g>
     <g id="text_9">
      <!-- 0.6 -->
      <g transform="translate(29.782 152.311864) scale(0.176 -0.176)">
       <use xlink:href="#DejaVuSans-30"/>
       <use xlink:href="#DejaVuSans-2e" x="63.623047"/>
       <use xlink:href="#DejaVuSans-36" x="95.410156"/>
      </g>
     </g>
    </g>
    <g id="ytick_5">
     <g id="line2d_9">
      <g>
       <use xlink:href="#m7719d4cef4" x="66.0715" y="79.755932" style="stroke: #000000"/>
      </g>
     </g>
     <g id="text_10">
      <!-- 0.8 -->
      <g transform="translate(29.782 86.442557) scale(0.176 -0.176)">
       <defs>
        <path id="DejaVuSans-38" d="M 2034 2216 
Q 1584 2216 1326 1975 
Q 1069 1734 1069 1313 
Q 1069 891 1326 650 
Q 1584 409 2034 409 
Q 2484 409 2743 651 
Q 3003 894 3003 1313 
Q 3003 1734 2745 1975 
Q 2488 2216 2034 2216 
z
M 1403 2484 
Q 997 2584 770 2862 
Q 544 3141 544 3541 
Q 544 4100 942 4425 
Q 1341 4750 2034 4750 
Q 2731 4750 3128 4425 
Q 3525 4100 3525 3541 
Q 3525 3141 3298 2862 
Q 3072 2584 2669 2484 
Q 3125 2378 3379 2068 
Q 3634 1759 3634 1313 
Q 3634 634 3220 271 
Q 2806 -91 2034 -91 
Q 1263 -91 848 271 
Q 434 634 434 1313 
Q 434 1759 690 2068 
Q 947 2378 1403 2484 
z
M 1172 3481 
Q 1172 3119 1398 2916 
Q 1625 2713 2034 2713 
Q 2441 2713 2670 2916 
Q 2900 3119 2900 3481 
Q 2900 3844 2670 4047 
Q 2441 4250 2034 4250 
Q 1625 4250 1398 4047 
Q 1172 3844 1172 3481 
z
" transform="scale(0.015625)"/>
       </defs>
       <use xlink:href="#DejaVuSans-30"/>
       <use xlink:href="#DejaVuSans-2e" x="63.623047"/>
       <use xlink:href="#DejaVuSans-38" x="95.410156"/>
      </g>
     </g>
    </g>
    <g id="ytick_6">
     <g id="line2d_10">
      <g>
       <use xlink:href="#m7719d4cef4" x="66.0715" y="13.886625" style="stroke: #000000"/>
      </g>
     </g>
     <g id="text_11">
      <!-- 1.0 -->
      <g transform="translate(29.782 20.57325) scale(0.176 -0.176)">
       <defs>
        <path id="DejaVuSans-31" d="M 794 531 
L 1825 531 
L 1825 4091 
L 703 3866 
L 703 4441 
L 1819 4666 
L 2450 4666 
L 2450 531 
L 3481 531 
L 3481 0 
L 794 0 
L 794 531 
z
" transform="scale(0.015625)"/>
       </defs>
       <use xlink:href="#DejaVuSans-31"/>
       <use xlink:href="#DejaVuSans-2e" x="63.623047"/>
       <use xlink:href="#DejaVuSans-30" x="95.410156"/>
      </g>
     </g>
    </g>
    <g id="text_12">
     <!-- Score -->
     <g transform="translate(21.789 203.79766) rotate(-90) scale(0.192 -0.192)">
      <defs>
       <path id="DejaVuSans-63" d="M 3122 3366 
L 3122 2828 
Q 2878 2963 2633 3030 
Q 2388 3097 2138 3097 
Q 1578 3097 1268 2742 
Q 959 2388 959 1747 
Q 959 1106 1268 751 
Q 1578 397 2138 397 
Q 2388 397 2633 464 
Q 2878 531 3122 666 
L 3122 134 
Q 2881 22 2623 -34 
Q 2366 -91 2075 -91 
Q 1284 -91 818 406 
Q 353 903 353 1747 
Q 353 2603 823 3093 
Q 1294 3584 2113 3584 
Q 2378 3584 2631 3529 
Q 2884 3475 3122 3366 
z
" transform="scale(0.015625)"/>
       <path id="DejaVuSans-6f" d="M 1959 3097 
Q 1497 3097 1228 2736 
Q 959 2375 959 1747 
Q 959 1119 1226 758 
Q 1494 397 1959 397 
Q 2419 397 2687 759 
Q 2956 1122 2956 1747 
Q 2956 2369 2687 2733 
Q 2419 3097 1959 3097 
z
M 1959 3584 
Q 2709 3584 3137 3096 
Q 3566 2609 3566 1747 
Q 3566 888 3137 398 
Q 2709 -91 1959 -91 
Q 1206 -91 779 398 
Q 353 888 353 1747 
Q 353 2609 779 3096 
Q 1206 3584 1959 3584 
z
" transform="scale(0.015625)"/>
       <path id="DejaVuSans-72" d="M 2631 2963 
Q 2534 3019 2420 3045 
Q 2306 3072 2169 3072 
Q 1681 3072 1420 2755 
Q 1159 2438 1159 1844 
L 1159 0 
L 581 0 
L 581 3500 
L 1159 3500 
L 1159 2956 
Q 1341 3275 1631 3429 
Q 1922 3584 2338 3584 
Q 2397 3584 2469 3576 
Q 2541 3569 2628 3553 
L 2631 2963 
z
" transform="scale(0.015625)"/>
      </defs>
      <use xlink:href="#DejaVuSans-53"/>
      <use xlink:href="#DejaVuSans-63" x="63.476562"/>
      <use xlink:href="#DejaVuSans-6f" x="118.457031"/>
      <use xlink:href="#DejaVuSans-72" x="179.638672"/>
      <use xlink:href="#DejaVuSans-65" x="218.501953"/>
     </g>
    </g>
   </g>
   <g id="line2d_11">
    <path d="M 67.148027 304.486509 
L 72.530664 266.468178 
L 83.295937 266.468178 
L 88.678574 266.468178 
L 94.061211 257.512829 
L 99.443847 238.94009 
L 110.209121 220.535431 
L 131.739667 202.084645 
L 137.122304 109.696526 
L 153.270214 81.100204 
L 158.65285 57.799496 
L 164.035487 57.799496 
L 169.418124 57.799496 
L 174.80076 57.799496 
L 185.566034 57.799496 
L 196.331307 57.799496 
L 201.713944 57.799496 
L 207.09658 54.214772 
L 212.479217 54.214772 
L 217.861854 57.476608 
L 223.24449 57.476608 
L 228.627127 57.476608 
L 239.3924 56.844869 
L 244.775037 56.844869 
L 260.922947 55.634777 
L 266.305584 55.054942 
L 271.68822 55.054942 
L 277.070857 55.054942 
L 293.218767 55.054942 
L 303.98404 55.054942 
L 314.749314 55.054942 
L 320.13195 62.843542 
L 325.514587 55.054942 
L 330.897223 42.525454 
L 336.27986 42.525454 
L 341.662497 42.525454 
L 347.045133 42.525454 
L 352.42777 46.821278 
L 357.810407 46.821278 
L 363.193043 28.856922 
L 373.958317 28.633485 
L 379.340953 37.752316 
L 395.488863 28.633485 
L 400.8715 28.633485 
L 406.254137 28.633485 
L 409.504227 28.633485 
" clip-path="url(#pfcf601ce7a)" style="fill: none; stroke-dasharray: 2,3.3; stroke-dashoffset: 0; stroke: #e41a1c; stroke-width: 2"/>
   </g>
   <g id="line2d_12">
    <path d="M 67.148027 303.312368 
L 72.530664 240.104447 
L 83.295937 240.104447 
L 88.678574 240.104447 
L 94.061211 216.817318 
L 99.443847 216.817318 
L 110.209121 216.817318 
L 131.739667 213.490585 
L 137.122304 213.490585 
L 153.270214 213.490585 
L 158.65285 213.490585 
L 164.035487 213.490585 
L 169.418124 213.490585 
L 174.80076 213.490585 
L 185.566034 213.490585 
L 196.331307 213.490585 
L 201.713944 213.490585 
L 207.09658 200.183655 
L 212.479217 200.183655 
L 217.861854 146.955932 
L 223.24449 146.955932 
L 228.627127 146.955932 
L 239.3924 143.629199 
L 244.775037 143.629199 
L 260.922947 136.975734 
L 266.305584 133.649001 
L 271.68822 133.649001 
L 277.070857 133.649001 
L 293.218767 133.649001 
L 303.98404 133.649001 
L 314.749314 133.649001 
L 320.13195 133.649001 
L 325.514587 133.649001 
L 330.897223 133.649001 
L 336.27986 133.649001 
L 341.662497 133.649001 
L 347.045133 133.649001 
L 352.42777 133.649001 
L 357.810407 133.649001 
L 363.193043 133.649001 
L 373.958317 130.322269 
L 379.340953 130.322269 
L 395.488863 130.322269 
L 400.8715 130.322269 
L 406.254137 130.322269 
L 409.504227 130.322269 
" clip-path="url(#pfcf601ce7a)" style="fill: none; stroke-dasharray: 7.4,3.2; stroke-dashoffset: 0; stroke: #377eb8; stroke-width: 2"/>
   </g>
   <g id="line2d_13">
    <path d="M 67.148027 303.9082 
L 72.530664 255.218137 
L 83.295937 255.218137 
L 88.678574 255.218137 
L 94.061211 241.06852 
L 99.443847 228.939385 
L 110.209121 218.704122 
L 131.739667 208.02774 
L 137.122304 176.421278 
L 153.270214 169.658635 
L 158.65285 164.83712 
L 164.035487 164.83712 
L 169.418124 164.83712 
L 174.80076 164.83712 
L 185.566034 164.83712 
L 196.331307 164.83712 
L 201.713944 164.83712 
L 207.09658 151.856119 
L 212.479217 151.856119 
L 217.861854 110.521237 
L 223.24449 110.521237 
L 228.627127 110.521237 
L 239.3924 107.985635 
L 244.775037 107.985635 
L 260.922947 103.003923 
L 266.305584 100.556766 
L 271.68822 100.556766 
L 277.070857 100.556766 
L 293.218767 100.556766 
L 303.98404 100.556766 
L 314.749314 100.556766 
L 320.13195 103.362273 
L 325.514587 100.556766 
L 330.897223 96.223259 
L 336.27986 96.223259 
L 341.662497 96.223259 
L 347.045133 96.223259 
L 352.42777 97.684856 
L 357.810407 97.684856 
L 363.193043 91.73217 
L 373.958317 89.279205 
L 379.340953 92.302467 
L 395.488863 89.279205 
L 400.8715 89.279205 
L 406.254137 89.279205 
L 409.504227 89.279205 
" clip-path="url(#pfcf601ce7a)" style="fill: none; stroke: #984ea3; stroke-width: 3; stroke-linecap: square"/>
   </g>
   <g id="patch_3">
    <path d="M 66.0715 343.23316 
L 66.0715 10.59316 
" style="fill: none; stroke: #000000; stroke-linejoin: miter; stroke-linecap: square"/>
   </g>
   <g id="patch_4">
    <path d="M 66.0715 343.23316 
L 400.8715 343.23316 
" style="fill: none; stroke: #000000; stroke-linejoin: miter; stroke-linecap: square"/>
   </g>
   <g id="legend_1">
    <g id="patch_5">
     <path d="M 253.71075 334.43316 
L 388.5515 334.43316 
Q 392.0715 334.43316 392.0715 330.91316 
L 392.0715 255.17266 
Q 392.0715 251.65266 388.5515 251.65266 
L 253.71075 251.65266 
Q 250.19075 251.65266 250.19075 255.17266 
L 250.19075 330.91316 
Q 250.19075 334.43316 253.71075 334.43316 
z
" style="fill: #ffffff; opacity: 0.8; stroke: #cccccc; stroke-width: 0.8; stroke-linejoin: miter"/>
    </g>
    <g id="line2d_14">
     <path d="M 257.23075 265.90591 
L 274.83075 265.90591 
L 292.43075 265.90591 
" style="fill: none; stroke-dasharray: 2,3.3; stroke-dashoffset: 0; stroke: #e41a1c; stroke-width: 2"/>
    </g>
    <g id="text_13">
     <!-- Precision -->
     <g transform="translate(306.51075 272.06591) scale(0.176 -0.176)">
      <defs>
       <path id="DejaVuSans-50" d="M 1259 4147 
L 1259 2394 
L 2053 2394 
Q 2494 2394 2734 2622 
Q 2975 2850 2975 3272 
Q 2975 3691 2734 3919 
Q 2494 4147 2053 4147 
L 1259 4147 
z
M 628 4666 
L 2053 4666 
Q 2838 4666 3239 4311 
Q 3641 3956 3641 3272 
Q 3641 2581 3239 2228 
Q 2838 1875 2053 1875 
L 1259 1875 
L 1259 0 
L 628 0 
L 628 4666 
z
" transform="scale(0.015625)"/>
       <path id="DejaVuSans-69" d="M 603 3500 
L 1178 3500 
L 1178 0 
L 603 0 
L 603 3500 
z
M 603 4863 
L 1178 4863 
L 1178 4134 
L 603 4134 
L 603 4863 
z
" transform="scale(0.015625)"/>
       <path id="DejaVuSans-73" d="M 2834 3397 
L 2834 2853 
Q 2591 2978 2328 3040 
Q 2066 3103 1784 3103 
Q 1356 3103 1142 2972 
Q 928 2841 928 2578 
Q 928 2378 1081 2264 
Q 1234 2150 1697 2047 
L 1894 2003 
Q 2506 1872 2764 1633 
Q 3022 1394 3022 966 
Q 3022 478 2636 193 
Q 2250 -91 1575 -91 
Q 1294 -91 989 -36 
Q 684 19 347 128 
L 347 722 
Q 666 556 975 473 
Q 1284 391 1588 391 
Q 1994 391 2212 530 
Q 2431 669 2431 922 
Q 2431 1156 2273 1281 
Q 2116 1406 1581 1522 
L 1381 1569 
Q 847 1681 609 1914 
Q 372 2147 372 2553 
Q 372 3047 722 3315 
Q 1072 3584 1716 3584 
Q 2034 3584 2315 3537 
Q 2597 3491 2834 3397 
z
" transform="scale(0.015625)"/>
       <path id="DejaVuSans-6e" d="M 3513 2113 
L 3513 0 
L 2938 0 
L 2938 2094 
Q 2938 2591 2744 2837 
Q 2550 3084 2163 3084 
Q 1697 3084 1428 2787 
Q 1159 2491 1159 1978 
L 1159 0 
L 581 0 
L 581 3500 
L 1159 3500 
L 1159 2956 
Q 1366 3272 1645 3428 
Q 1925 3584 2291 3584 
Q 2894 3584 3203 3211 
Q 3513 2838 3513 2113 
z
" transform="scale(0.015625)"/>
      </defs>
      <use xlink:href="#DejaVuSans-50"/>
      <use xlink:href="#DejaVuSans-72" x="58.552734"/>
      <use xlink:href="#DejaVuSans-65" x="97.416016"/>
      <use xlink:href="#DejaVuSans-63" x="158.939453"/>
      <use xlink:href="#DejaVuSans-69" x="213.919922"/>
      <use xlink:href="#DejaVuSans-73" x="241.703125"/>
      <use xlink:href="#DejaVuSans-69" x="293.802734"/>
      <use xlink:href="#DejaVuSans-6f" x="321.585938"/>
      <use xlink:href="#DejaVuSans-6e" x="382.767578"/>
     </g>
    </g>
    <g id="line2d_15">
     <path d="M 257.23075 291.73941 
L 274.83075 291.73941 
L 292.43075 291.73941 
" style="fill: none; stroke-dasharray: 7.4,3.2; stroke-dashoffset: 0; stroke: #377eb8; stroke-width: 2"/>
    </g>
    <g id="text_14">
     <!-- Recall -->
     <g transform="translate(306.51075 297.89941) scale(0.176 -0.176)">
      <defs>
       <path id="DejaVuSans-52" d="M 2841 2188 
Q 3044 2119 3236 1894 
Q 3428 1669 3622 1275 
L 4263 0 
L 3584 0 
L 2988 1197 
Q 2756 1666 2539 1819 
Q 2322 1972 1947 1972 
L 1259 1972 
L 1259 0 
L 628 0 
L 628 4666 
L 2053 4666 
Q 2853 4666 3247 4331 
Q 3641 3997 3641 3322 
Q 3641 2881 3436 2590 
Q 3231 2300 2841 2188 
z
M 1259 4147 
L 1259 2491 
L 2053 2491 
Q 2509 2491 2742 2702 
Q 2975 2913 2975 3322 
Q 2975 3731 2742 3939 
Q 2509 4147 2053 4147 
L 1259 4147 
z
" transform="scale(0.015625)"/>
       <path id="DejaVuSans-6c" d="M 603 4863 
L 1178 4863 
L 1178 0 
L 603 0 
L 603 4863 
z
" transform="scale(0.015625)"/>
      </defs>
      <use xlink:href="#DejaVuSans-52"/>
      <use xlink:href="#DejaVuSans-65" x="64.982422"/>
      <use xlink:href="#DejaVuSans-63" x="126.505859"/>
      <use xlink:href="#DejaVuSans-61" x="181.486328"/>
      <use xlink:href="#DejaVuSans-6c" x="242.765625"/>
      <use xlink:href="#DejaVuSans-6c" x="270.548828"/>
     </g>
    </g>
    <g id="line2d_16">
     <path d="M 257.23075 317.57291 
L 274.83075 317.57291 
L 292.43075 317.57291 
" style="fill: none; stroke: #984ea3; stroke-width: 3; stroke-linecap: square"/>
    </g>
    <g id="text_15">
     <!-- F1 -->
     <g transform="translate(306.51075 323.73291) scale(0.176 -0.176)">
      <defs>
       <path id="DejaVuSans-46" d="M 628 4666 
L 3309 4666 
L 3309 4134 
L 1259 4134 
L 1259 2759 
L 3109 2759 
L 3109 2228 
L 1259 2228 
L 1259 0 
L 628 0 
L 628 4666 
z
" transform="scale(0.015625)"/>
      </defs>
      <use xlink:href="#DejaVuSans-46"/>
      <use xlink:href="#DejaVuSans-31" x="57.519531"/>
     </g>
    </g>
   </g>
  </g>
 </g>
 <defs>
  <clipPath id="pfcf601ce7a">
   <rect x="66.0715" y="10.59316" width="334.8" height="332.64"/>
  </clipPath>
 </defs>
</svg>
