<?xml version="1.0" encoding="utf-8" standalone="no"?>
<!DOCTYPE svg PUBLIC "-//W3C//DTD SVG 1.1//EN"
  "http://www.w3.org/Graphics/SVG/1.1/DTD/svg11.dtd">
<svg xmlns:xlink="http://www.w3.org/1999/xlink" width="408.0715pt" height="398.34866pt" viewBox="0 0 408.0715 398.34866" xmlns="http://www.w3.org/2000/svg" version="1.1">
 <metadata>
  <rdf:RDF xmlns:dc="http://purl.org/dc/elements/1.1/" xmlns:cc="http://creativecommons.org/ns#" xmlns:rdf="http://www.w3.org/1999/02/22-rdf-syntax-ns#">
   <cc:Work>
    <dc:type rdf:resource="http://purl.org/dc/dcmitype/StillImage"/>
    <dc:date>2024-09-30T11:38:52.963465</dc:date>
    <dc:format>image/svg+xml</dc:format>
    <dc:creator>
     <cc:Agent>
      <dc:title>Matplotlib v3.8.0, https://matplotlib.org/</dc:title>
     </cc:Agent>
    </dc:creator>
   </cc:Work>
  </rdf:RDF>
 </metadata>
 <defs>
  <style type="text/css">*{stroke-linejoin: round; stroke-linecap: butt}</style>
 </defs>
 <g id="figure_1">
  <g id="patch_1">
   <path d="M 0 398.34866 
L 408.0715 398.34866 
L 408.0715 0 
L 0 0 
z
" style="fill: #ffffff"/>
  </g>
  <g id="axes_1">
   <g id="patch_2">
    <path d="M 66.0715 343.23316 
L 400.8715 343.23316 
L 400.8715 10.59316 
L 66.0715 10.59316 
z
" style="fill: #ffffff"/>
   </g>
   <g id="PolyCollection_1"/>
   <g id="PolyCollection_2"/>
   <g id="PolyCollection_3"/>
   <g id="PolyCollection_4">
    <defs>
     <path id="m6febf9de34" d="M 66.927766 -387.7555 
L 66.927766 -55.1155 
L 71.209096 -55.1155 
L 71.209096 -387.7555 
L 71.209096 -387.7555 
L 66.927766 -387.7555 
z
"/>
    </defs>
    <g clip-path="url(#p4a69eefa08)">
     <use xlink:href="#m6febf9de34" x="0" y="398.34866" style="fill: #d95f02; fill-opacity: 0.2"/>
    </g>
   </g>
   <g id="PolyCollection_5">
    <defs>
     <path id="m8c755c3548" d="M 71.209096 -387.7555 
L 71.209096 -55.1155 
L 75.490426 -55.1155 
L 75.490426 -387.7555 
L 75.490426 -387.7555 
L 71.209096 -387.7555 
z
"/>
    </defs>
    <g clip-path="url(#p4a69eefa08)">
     <use xlink:href="#m8c755c3548" x="0" y="398.34866" style="fill: #1b9e77; fill-opacity: 0.2"/>
    </g>
   </g>
   <g id="PolyCollection_6">
    <defs>
     <path id="m339f7c5e28" d="M 75.490426 -387.7555 
L 75.490426 -55.1155 
L 79.771756 -55.1155 
L 79.771756 -387.7555 
L 79.771756 -387.7555 
L 75.490426 -387.7555 
z
"/>
    </defs>
    <g clip-path="url(#p4a69eefa08)">
     <use xlink:href="#m339f7c5e28" x="0" y="398.34866" style="fill: #d95f02; fill-opacity: 0.2"/>
    </g>
   </g>
   <g id="PolyCollection_7">
    <defs>
     <path id="me6c1fb67e8" d="M 79.771756 -387.7555 
L 79.771756 -55.1155 
L 84.053086 -55.1155 
L 84.053086 -387.7555 
L 84.053086 -387.7555 
L 79.771756 -387.7555 
z
"/>
    </defs>
    <g clip-path="url(#p4a69eefa08)">
     <use xlink:href="#me6c1fb67e8" x="0" y="398.34866" style="fill: #d95f02; fill-opacity: 0.2"/>
    </g>
   </g>
   <g id="PolyCollection_8">
    <defs>
     <path id="m6d3122164a" d="M 84.053086 -387.7555 
L 84.053086 -55.1155 
L 88.334416 -55.1155 
L 88.334416 -387.7555 
L 88.334416 -387.7555 
L 84.053086 -387.7555 
z
"/>
    </defs>
    <g clip-path="url(#p4a69eefa08)">
     <use xlink:href="#m6d3122164a" x="0" y="398.34866" style="fill: #d95f02; fill-opacity: 0.2"/>
    </g>
   </g>
   <g id="PolyCollection_9">
    <defs>
     <path id="mcf41fc515a" d="M 88.334416 -387.7555 
L 88.334416 -55.1155 
L 92.615746 -55.1155 
L 92.615746 -387.7555 
L 92.615746 -387.7555 
L 88.334416 -387.7555 
z
"/>
    </defs>
    <g clip-path="url(#p4a69eefa08)">
     <use xlink:href="#mcf41fc515a" x="0" y="398.34866" style="fill: #d95f02; fill-opacity: 0.2"/>
    </g>
   </g>
   <g id="PolyCollection_10">
    <defs>
     <path id="ma080a7ad5a" d="M 92.615746 -387.7555 
L 92.615746 -55.1155 
L 96.897075 -55.1155 
L 96.897075 -387.7555 
L 96.897075 -387.7555 
L 92.615746 -387.7555 
z
"/>
    </defs>
    <g clip-path="url(#p4a69eefa08)">
     <use xlink:href="#ma080a7ad5a" x="0" y="398.34866" style="fill: #d95f02; fill-opacity: 0.2"/>
    </g>
   </g>
   <g id="PolyCollection_11">
    <defs>
     <path id="mfc1569533d" d="M 96.897075 -387.7555 
L 96.897075 -55.1155 
L 101.178405 -55.1155 
L 101.178405 -387.7555 
L 101.178405 -387.7555 
L 96.897075 -387.7555 
z
"/>
    </defs>
    <g clip-path="url(#p4a69eefa08)">
     <use xlink:href="#mfc1569533d" x="0" y="398.34866" style="fill: #d95f02; fill-opacity: 0.2"/>
    </g>
   </g>
   <g id="PolyCollection_12">
    <defs>
     <path id="madb1211d31" d="M 101.178405 -387.7555 
L 101.178405 -55.1155 
L 105.459735 -55.1155 
L 105.459735 -387.7555 
L 105.459735 -387.7555 
L 101.178405 -387.7555 
z
"/>
    </defs>
    <g clip-path="url(#p4a69eefa08)">
     <use xlink:href="#madb1211d31" x="0" y="398.34866" style="fill: #d95f02; fill-opacity: 0.2"/>
    </g>
   </g>
   <g id="PolyCollection_13">
    <defs>
     <path id="m532e59e620" d="M 105.459735 -387.7555 
L 105.459735 -55.1155 
L 109.741065 -55.1155 
L 109.741065 -387.7555 
L 109.741065 -387.7555 
L 105.459735 -387.7555 
z
"/>
    </defs>
    <g clip-path="url(#p4a69eefa08)">
     <use xlink:href="#m532e59e620" x="0" y="398.34866" style="fill: #d95f02; fill-opacity: 0.2"/>
    </g>
   </g>
   <g id="PolyCollection_14">
    <defs>
     <path id="m7c973538ef" d="M 109.741065 -387.7555 
L 109.741065 -55.1155 
L 114.022395 -55.1155 
L 114.022395 -387.7555 
L 114.022395 -387.7555 
L 109.741065 -387.7555 
z
"/>
    </defs>
    <g clip-path="url(#p4a69eefa08)">
     <use xlink:href="#m7c973538ef" x="0" y="398.34866" style="fill: #d95f02; fill-opacity: 0.2"/>
    </g>
   </g>
   <g id="PolyCollection_15">
    <defs>
     <path id="m4786818717" d="M 114.022395 -387.7555 
L 114.022395 -55.1155 
L 118.303725 -55.1155 
L 118.303725 -387.7555 
L 118.303725 -387.7555 
L 114.022395 -387.7555 
z
"/>
    </defs>
    <g clip-path="url(#p4a69eefa08)">
     <use xlink:href="#m4786818717" x="0" y="398.34866" style="fill: #d95f02; fill-opacity: 0.2"/>
    </g>
   </g>
   <g id="PolyCollection_16">
    <defs>
     <path id="m657732fa0a" d="M 118.303725 -387.7555 
L 118.303725 -55.1155 
L 122.585055 -55.1155 
L 122.585055 -387.7555 
L 122.585055 -387.7555 
L 118.303725 -387.7555 
z
"/>
    </defs>
    <g clip-path="url(#p4a69eefa08)">
     <use xlink:href="#m657732fa0a" x="0" y="398.34866" style="fill: #d95f02; fill-opacity: 0.2"/>
    </g>
   </g>
   <g id="PolyCollection_17">
    <defs>
     <path id="mc984e133e3" d="M 122.585055 -387.7555 
L 122.585055 -55.1155 
L 126.866385 -55.1155 
L 126.866385 -387.7555 
L 126.866385 -387.7555 
L 122.585055 -387.7555 
z
"/>
    </defs>
    <g clip-path="url(#p4a69eefa08)">
     <use xlink:href="#mc984e133e3" x="0" y="398.34866" style="fill: #d95f02; fill-opacity: 0.2"/>
    </g>
   </g>
   <g id="PolyCollection_18">
    <defs>
     <path id="mb5b44db79f" d="M 126.866385 -387.7555 
L 126.866385 -55.1155 
L 131.147715 -55.1155 
L 131.147715 -387.7555 
L 131.147715 -387.7555 
L 126.866385 -387.7555 
z
"/>
    </defs>
    <g clip-path="url(#p4a69eefa08)">
     <use xlink:href="#mb5b44db79f" x="0" y="398.34866" style="fill: #d95f02; fill-opacity: 0.2"/>
    </g>
   </g>
   <g id="PolyCollection_19">
    <defs>
     <path id="mb0939c9515" d="M 131.147715 -387.7555 
L 131.147715 -55.1155 
L 135.429045 -55.1155 
L 135.429045 -387.7555 
L 135.429045 -387.7555 
L 131.147715 -387.7555 
z
"/>
    </defs>
    <g clip-path="url(#p4a69eefa08)">
     <use xlink:href="#mb0939c9515" x="0" y="398.34866" style="fill: #d95f02; fill-opacity: 0.2"/>
    </g>
   </g>
   <g id="PolyCollection_20">
    <defs>
     <path id="m579667d4f2" d="M 135.429045 -387.7555 
L 135.429045 -55.1155 
L 139.710375 -55.1155 
L 139.710375 -387.7555 
L 139.710375 -387.7555 
L 135.429045 -387.7555 
z
"/>
    </defs>
    <g clip-path="url(#p4a69eefa08)">
     <use xlink:href="#m579667d4f2" x="0" y="398.34866" style="fill: #d95f02; fill-opacity: 0.2"/>
    </g>
   </g>
   <g id="PolyCollection_21">
    <defs>
     <path id="m04f80176c6" d="M 139.710375 -387.7555 
L 139.710375 -55.1155 
L 143.991705 -55.1155 
L 143.991705 -387.7555 
L 143.991705 -387.7555 
L 139.710375 -387.7555 
z
"/>
    </defs>
    <g clip-path="url(#p4a69eefa08)">
     <use xlink:href="#m04f80176c6" x="0" y="398.34866" style="fill: #d95f02; fill-opacity: 0.2"/>
    </g>
   </g>
   <g id="PolyCollection_22">
    <defs>
     <path id="m53a8df8b8f" d="M 143.991705 -387.7555 
L 143.991705 -55.1155 
L 148.273035 -55.1155 
L 148.273035 -387.7555 
L 148.273035 -387.7555 
L 143.991705 -387.7555 
z
"/>
    </defs>
    <g clip-path="url(#p4a69eefa08)">
     <use xlink:href="#m53a8df8b8f" x="0" y="398.34866" style="fill: #d95f02; fill-opacity: 0.2"/>
    </g>
   </g>
   <g id="PolyCollection_23">
    <defs>
     <path id="m5ff71e60a6" d="M 148.273035 -387.7555 
L 148.273035 -55.1155 
L 152.554364 -55.1155 
L 152.554364 -387.7555 
L 152.554364 -387.7555 
L 148.273035 -387.7555 
z
"/>
    </defs>
    <g clip-path="url(#p4a69eefa08)">
     <use xlink:href="#m5ff71e60a6" x="0" y="398.34866" style="fill: #d95f02; fill-opacity: 0.2"/>
    </g>
   </g>
   <g id="PolyCollection_24">
    <defs>
     <path id="m01de77e850" d="M 152.554364 -387.7555 
L 152.554364 -55.1155 
L 156.835694 -55.1155 
L 156.835694 -387.7555 
L 156.835694 -387.7555 
L 152.554364 -387.7555 
z
"/>
    </defs>
    <g clip-path="url(#p4a69eefa08)">
     <use xlink:href="#m01de77e850" x="0" y="398.34866" style="fill: #d95f02; fill-opacity: 0.2"/>
    </g>
   </g>
   <g id="PolyCollection_25">
    <defs>
     <path id="mde55403ad5" d="M 156.835694 -387.7555 
L 156.835694 -55.1155 
L 161.117024 -55.1155 
L 161.117024 -387.7555 
L 161.117024 -387.7555 
L 156.835694 -387.7555 
z
"/>
    </defs>
    <g clip-path="url(#p4a69eefa08)">
     <use xlink:href="#mde55403ad5" x="0" y="398.34866" style="fill: #d95f02; fill-opacity: 0.2"/>
    </g>
   </g>
   <g id="PolyCollection_26">
    <defs>
     <path id="m073864654d" d="M 161.117024 -387.7555 
L 161.117024 -55.1155 
L 165.398354 -55.1155 
L 165.398354 -387.7555 
L 165.398354 -387.7555 
L 161.117024 -387.7555 
z
"/>
    </defs>
    <g clip-path="url(#p4a69eefa08)">
     <use xlink:href="#m073864654d" x="0" y="398.34866" style="fill: #d95f02; fill-opacity: 0.2"/>
    </g>
   </g>
   <g id="PolyCollection_27">
    <defs>
     <path id="m85976b4bbe" d="M 165.398354 -387.7555 
L 165.398354 -55.1155 
L 169.679684 -55.1155 
L 169.679684 -387.7555 
L 169.679684 -387.7555 
L 165.398354 -387.7555 
z
"/>
    </defs>
    <g clip-path="url(#p4a69eefa08)">
     <use xlink:href="#m85976b4bbe" x="0" y="398.34866" style="fill: #d95f02; fill-opacity: 0.2"/>
    </g>
   </g>
   <g id="PolyCollection_28">
    <defs>
     <path id="m1bd6ce0ec5" d="M 169.679684 -387.7555 
L 169.679684 -55.1155 
L 173.961014 -55.1155 
L 173.961014 -387.7555 
L 173.961014 -387.7555 
L 169.679684 -387.7555 
z
"/>
    </defs>
    <g clip-path="url(#p4a69eefa08)">
     <use xlink:href="#m1bd6ce0ec5" x="0" y="398.34866" style="fill: #d95f02; fill-opacity: 0.2"/>
    </g>
   </g>
   <g id="PolyCollection_29">
    <defs>
     <path id="mc5418de9fd" d="M 173.961014 -387.7555 
L 173.961014 -55.1155 
L 178.242344 -55.1155 
L 178.242344 -387.7555 
L 178.242344 -387.7555 
L 173.961014 -387.7555 
z
"/>
    </defs>
    <g clip-path="url(#p4a69eefa08)">
     <use xlink:href="#mc5418de9fd" x="0" y="398.34866" style="fill: #d95f02; fill-opacity: 0.2"/>
    </g>
   </g>
   <g id="PolyCollection_30">
    <defs>
     <path id="mc62722a462" d="M 178.242344 -387.7555 
L 178.242344 -55.1155 
L 182.523674 -55.1155 
L 182.523674 -387.7555 
L 182.523674 -387.7555 
L 178.242344 -387.7555 
z
"/>
    </defs>
    <g clip-path="url(#p4a69eefa08)">
     <use xlink:href="#mc62722a462" x="0" y="398.34866" style="fill: #d95f02; fill-opacity: 0.2"/>
    </g>
   </g>
   <g id="PolyCollection_31">
    <defs>
     <path id="m703e644888" d="M 182.523674 -387.7555 
L 182.523674 -55.1155 
L 186.805004 -55.1155 
L 186.805004 -387.7555 
L 186.805004 -387.7555 
L 182.523674 -387.7555 
z
"/>
    </defs>
    <g clip-path="url(#p4a69eefa08)">
     <use xlink:href="#m703e644888" x="0" y="398.34866" style="fill: #d95f02; fill-opacity: 0.2"/>
    </g>
   </g>
   <g id="PolyCollection_32">
    <defs>
     <path id="mbefea28de2" d="M 186.805004 -387.7555 
L 186.805004 -55.1155 
L 191.086334 -55.1155 
L 191.086334 -387.7555 
L 191.086334 -387.7555 
L 186.805004 -387.7555 
z
"/>
    </defs>
    <g clip-path="url(#p4a69eefa08)">
     <use xlink:href="#mbefea28de2" x="0" y="398.34866" style="fill: #d95f02; fill-opacity: 0.2"/>
    </g>
   </g>
   <g id="PolyCollection_33">
    <defs>
     <path id="m3cb4c90e12" d="M 191.086334 -387.7555 
L 191.086334 -55.1155 
L 195.367664 -55.1155 
L 195.367664 -387.7555 
L 195.367664 -387.7555 
L 191.086334 -387.7555 
z
"/>
    </defs>
    <g clip-path="url(#p4a69eefa08)">
     <use xlink:href="#m3cb4c90e12" x="0" y="398.34866" style="fill: #d95f02; fill-opacity: 0.2"/>
    </g>
   </g>
   <g id="PolyCollection_34">
    <defs>
     <path id="m8a07c26d6a" d="M 195.367664 -387.7555 
L 195.367664 -55.1155 
L 199.648994 -55.1155 
L 199.648994 -387.7555 
L 199.648994 -387.7555 
L 195.367664 -387.7555 
z
"/>
    </defs>
    <g clip-path="url(#p4a69eefa08)">
     <use xlink:href="#m8a07c26d6a" x="0" y="398.34866" style="fill: #d95f02; fill-opacity: 0.2"/>
    </g>
   </g>
   <g id="PolyCollection_35">
    <defs>
     <path id="m96c974f023" d="M 199.648994 -387.7555 
L 199.648994 -55.1155 
L 203.930324 -55.1155 
L 203.930324 -387.7555 
L 203.930324 -387.7555 
L 199.648994 -387.7555 
z
"/>
    </defs>
    <g clip-path="url(#p4a69eefa08)">
     <use xlink:href="#m96c974f023" x="0" y="398.34866" style="fill: #d95f02; fill-opacity: 0.2"/>
    </g>
   </g>
   <g id="PolyCollection_36">
    <defs>
     <path id="m09845e7f5c" d="M 203.930324 -387.7555 
L 203.930324 -55.1155 
L 208.211653 -55.1155 
L 208.211653 -387.7555 
L 208.211653 -387.7555 
L 203.930324 -387.7555 
z
"/>
    </defs>
    <g clip-path="url(#p4a69eefa08)">
     <use xlink:href="#m09845e7f5c" x="0" y="398.34866" style="fill: #d95f02; fill-opacity: 0.2"/>
    </g>
   </g>
   <g id="PolyCollection_37">
    <defs>
     <path id="m91ccedd55c" d="M 208.211653 -387.7555 
L 208.211653 -55.1155 
L 212.492983 -55.1155 
L 212.492983 -387.7555 
L 212.492983 -387.7555 
L 208.211653 -387.7555 
z
"/>
    </defs>
    <g clip-path="url(#p4a69eefa08)">
     <use xlink:href="#m91ccedd55c" x="0" y="398.34866" style="fill: #d95f02; fill-opacity: 0.2"/>
    </g>
   </g>
   <g id="PolyCollection_38">
    <defs>
     <path id="m649783f7fc" d="M 212.492983 -387.7555 
L 212.492983 -55.1155 
L 216.774313 -55.1155 
L 216.774313 -387.7555 
L 216.774313 -387.7555 
L 212.492983 -387.7555 
z
"/>
    </defs>
    <g clip-path="url(#p4a69eefa08)">
     <use xlink:href="#m649783f7fc" x="0" y="398.34866" style="fill: #d95f02; fill-opacity: 0.2"/>
    </g>
   </g>
   <g id="PolyCollection_39">
    <defs>
     <path id="m74f7b0f648" d="M 216.774313 -387.7555 
L 216.774313 -55.1155 
L 221.055643 -55.1155 
L 221.055643 -387.7555 
L 221.055643 -387.7555 
L 216.774313 -387.7555 
z
"/>
    </defs>
    <g clip-path="url(#p4a69eefa08)">
     <use xlink:href="#m74f7b0f648" x="0" y="398.34866" style="fill: #d95f02; fill-opacity: 0.2"/>
    </g>
   </g>
   <g id="PolyCollection_40">
    <defs>
     <path id="m6227ff278e" d="M 221.055643 -387.7555 
L 221.055643 -55.1155 
L 225.336973 -55.1155 
L 225.336973 -387.7555 
L 225.336973 -387.7555 
L 221.055643 -387.7555 
z
"/>
    </defs>
    <g clip-path="url(#p4a69eefa08)">
     <use xlink:href="#m6227ff278e" x="0" y="398.34866" style="fill: #d95f02; fill-opacity: 0.2"/>
    </g>
   </g>
   <g id="PolyCollection_41">
    <defs>
     <path id="m59346cd883" d="M 225.336973 -387.7555 
L 225.336973 -55.1155 
L 229.618303 -55.1155 
L 229.618303 -387.7555 
L 229.618303 -387.7555 
L 225.336973 -387.7555 
z
"/>
    </defs>
    <g clip-path="url(#p4a69eefa08)">
     <use xlink:href="#m59346cd883" x="0" y="398.34866" style="fill: #d95f02; fill-opacity: 0.2"/>
    </g>
   </g>
   <g id="PolyCollection_42">
    <defs>
     <path id="meb93371996" d="M 229.618303 -387.7555 
L 229.618303 -55.1155 
L 233.899633 -55.1155 
L 233.899633 -387.7555 
L 233.899633 -387.7555 
L 229.618303 -387.7555 
z
"/>
    </defs>
    <g clip-path="url(#p4a69eefa08)">
     <use xlink:href="#meb93371996" x="0" y="398.34866" style="fill: #d95f02; fill-opacity: 0.2"/>
    </g>
   </g>
   <g id="PolyCollection_43">
    <defs>
     <path id="me651be48db" d="M 233.899633 -387.7555 
L 233.899633 -55.1155 
L 238.180963 -55.1155 
L 238.180963 -387.7555 
L 238.180963 -387.7555 
L 233.899633 -387.7555 
z
"/>
    </defs>
    <g clip-path="url(#p4a69eefa08)">
     <use xlink:href="#me651be48db" x="0" y="398.34866" style="fill: #d95f02; fill-opacity: 0.2"/>
    </g>
   </g>
   <g id="PolyCollection_44">
    <defs>
     <path id="mc7244235af" d="M 238.180963 -387.7555 
L 238.180963 -55.1155 
L 242.462293 -55.1155 
L 242.462293 -387.7555 
L 242.462293 -387.7555 
L 238.180963 -387.7555 
z
"/>
    </defs>
    <g clip-path="url(#p4a69eefa08)">
     <use xlink:href="#mc7244235af" x="0" y="398.34866" style="fill: #d95f02; fill-opacity: 0.2"/>
    </g>
   </g>
   <g id="PolyCollection_45">
    <defs>
     <path id="m95368fa155" d="M 242.462293 -387.7555 
L 242.462293 -55.1155 
L 246.743623 -55.1155 
L 246.743623 -387.7555 
L 246.743623 -387.7555 
L 242.462293 -387.7555 
z
"/>
    </defs>
    <g clip-path="url(#p4a69eefa08)">
     <use xlink:href="#m95368fa155" x="0" y="398.34866" style="fill: #d95f02; fill-opacity: 0.2"/>
    </g>
   </g>
   <g id="PolyCollection_46">
    <defs>
     <path id="m08953f3bc6" d="M 246.743623 -387.7555 
L 246.743623 -55.1155 
L 251.024953 -55.1155 
L 251.024953 -387.7555 
L 251.024953 -387.7555 
L 246.743623 -387.7555 
z
"/>
    </defs>
    <g clip-path="url(#p4a69eefa08)">
     <use xlink:href="#m08953f3bc6" x="0" y="398.34866" style="fill: #d95f02; fill-opacity: 0.2"/>
    </g>
   </g>
   <g id="PolyCollection_47">
    <defs>
     <path id="meca2a69f85" d="M 251.024953 -387.7555 
L 251.024953 -55.1155 
L 255.306283 -55.1155 
L 255.306283 -387.7555 
L 255.306283 -387.7555 
L 251.024953 -387.7555 
z
"/>
    </defs>
    <g clip-path="url(#p4a69eefa08)">
     <use xlink:href="#meca2a69f85" x="0" y="398.34866" style="fill: #d95f02; fill-opacity: 0.2"/>
    </g>
   </g>
   <g id="PolyCollection_48">
    <defs>
     <path id="m7942b53f80" d="M 255.306283 -387.7555 
L 255.306283 -55.1155 
L 259.587613 -55.1155 
L 259.587613 -387.7555 
L 259.587613 -387.7555 
L 255.306283 -387.7555 
z
"/>
    </defs>
    <g clip-path="url(#p4a69eefa08)">
     <use xlink:href="#m7942b53f80" x="0" y="398.34866" style="fill: #d95f02; fill-opacity: 0.2"/>
    </g>
   </g>
   <g id="PolyCollection_49">
    <defs>
     <path id="m6fc21bc695" d="M 259.587613 -387.7555 
L 259.587613 -55.1155 
L 263.868942 -55.1155 
L 263.868942 -387.7555 
L 263.868942 -387.7555 
L 259.587613 -387.7555 
z
"/>
    </defs>
    <g clip-path="url(#p4a69eefa08)">
     <use xlink:href="#m6fc21bc695" x="0" y="398.34866" style="fill: #d95f02; fill-opacity: 0.2"/>
    </g>
   </g>
   <g id="PolyCollection_50">
    <defs>
     <path id="m0920b31506" d="M 263.868942 -387.7555 
L 263.868942 -55.1155 
L 268.150272 -55.1155 
L 268.150272 -387.7555 
L 268.150272 -387.7555 
L 263.868942 -387.7555 
z
"/>
    </defs>
    <g clip-path="url(#p4a69eefa08)">
     <use xlink:href="#m0920b31506" x="0" y="398.34866" style="fill: #d95f02; fill-opacity: 0.2"/>
    </g>
   </g>
   <g id="PolyCollection_51">
    <defs>
     <path id="m6ed7e2bdab" d="M 268.150272 -387.7555 
L 268.150272 -55.1155 
L 272.431602 -55.1155 
L 272.431602 -387.7555 
L 272.431602 -387.7555 
L 268.150272 -387.7555 
z
"/>
    </defs>
    <g clip-path="url(#p4a69eefa08)">
     <use xlink:href="#m6ed7e2bdab" x="0" y="398.34866" style="fill: #d95f02; fill-opacity: 0.2"/>
    </g>
   </g>
   <g id="PolyCollection_52">
    <defs>
     <path id="m4ad1c4890d" d="M 272.431602 -387.7555 
L 272.431602 -55.1155 
L 276.712932 -55.1155 
L 276.712932 -387.7555 
L 276.712932 -387.7555 
L 272.431602 -387.7555 
z
"/>
    </defs>
    <g clip-path="url(#p4a69eefa08)">
     <use xlink:href="#m4ad1c4890d" x="0" y="398.34866" style="fill: #d95f02; fill-opacity: 0.2"/>
    </g>
   </g>
   <g id="PolyCollection_53">
    <defs>
     <path id="mef8eda1225" d="M 276.712932 -387.7555 
L 276.712932 -55.1155 
L 280.994262 -55.1155 
L 280.994262 -387.7555 
L 280.994262 -387.7555 
L 276.712932 -387.7555 
z
"/>
    </defs>
    <g clip-path="url(#p4a69eefa08)">
     <use xlink:href="#mef8eda1225" x="0" y="398.34866" style="fill: #1b9e77; fill-opacity: 0.2"/>
    </g>
   </g>
   <g id="PolyCollection_54">
    <defs>
     <path id="mf433f97ca6" d="M 280.994262 -387.7555 
L 280.994262 -55.1155 
L 285.275592 -55.1155 
L 285.275592 -387.7555 
L 285.275592 -387.7555 
L 280.994262 -387.7555 
z
"/>
    </defs>
    <g clip-path="url(#p4a69eefa08)">
     <use xlink:href="#mf433f97ca6" x="0" y="398.34866" style="fill: #d95f02; fill-opacity: 0.2"/>
    </g>
   </g>
   <g id="PolyCollection_55">
    <defs>
     <path id="m7b511429cd" d="M 285.275592 -387.7555 
L 285.275592 -55.1155 
L 289.556922 -55.1155 
L 289.556922 -387.7555 
L 289.556922 -387.7555 
L 285.275592 -387.7555 
z
"/>
    </defs>
    <g clip-path="url(#p4a69eefa08)">
     <use xlink:href="#m7b511429cd" x="0" y="398.34866" style="fill: #d95f02; fill-opacity: 0.2"/>
    </g>
   </g>
   <g id="PolyCollection_56">
    <defs>
     <path id="me45a8124aa" d="M 289.556922 -387.7555 
L 289.556922 -55.1155 
L 293.838252 -55.1155 
L 293.838252 -387.7555 
L 293.838252 -387.7555 
L 289.556922 -387.7555 
z
"/>
    </defs>
    <g clip-path="url(#p4a69eefa08)">
     <use xlink:href="#me45a8124aa" x="0" y="398.34866" style="fill: #d95f02; fill-opacity: 0.2"/>
    </g>
   </g>
   <g id="PolyCollection_57">
    <defs>
     <path id="m8c4d7b6a64" d="M 293.838252 -387.7555 
L 293.838252 -55.1155 
L 298.119582 -55.1155 
L 298.119582 -387.7555 
L 298.119582 -387.7555 
L 293.838252 -387.7555 
z
"/>
    </defs>
    <g clip-path="url(#p4a69eefa08)">
     <use xlink:href="#m8c4d7b6a64" x="0" y="398.34866" style="fill: #d95f02; fill-opacity: 0.2"/>
    </g>
   </g>
   <g id="PolyCollection_58">
    <defs>
     <path id="m30707a38b0" d="M 298.119582 -387.7555 
L 298.119582 -55.1155 
L 302.400912 -55.1155 
L 302.400912 -387.7555 
L 302.400912 -387.7555 
L 298.119582 -387.7555 
z
"/>
    </defs>
    <g clip-path="url(#p4a69eefa08)">
     <use xlink:href="#m30707a38b0" x="0" y="398.34866" style="fill: #1b9e77; fill-opacity: 0.2"/>
    </g>
   </g>
   <g id="PolyCollection_59">
    <defs>
     <path id="m1cce563a0c" d="M 302.400912 -387.7555 
L 302.400912 -55.1155 
L 306.682242 -55.1155 
L 306.682242 -387.7555 
L 306.682242 -387.7555 
L 302.400912 -387.7555 
z
"/>
    </defs>
    <g clip-path="url(#p4a69eefa08)">
     <use xlink:href="#m1cce563a0c" x="0" y="398.34866" style="fill: #d95f02; fill-opacity: 0.2"/>
    </g>
   </g>
   <g id="PolyCollection_60">
    <defs>
     <path id="mdf1355f867" d="M 306.682242 -387.7555 
L 306.682242 -55.1155 
L 310.963572 -55.1155 
L 310.963572 -387.7555 
L 310.963572 -387.7555 
L 306.682242 -387.7555 
z
"/>
    </defs>
    <g clip-path="url(#p4a69eefa08)">
     <use xlink:href="#mdf1355f867" x="0" y="398.34866" style="fill: #d95f02; fill-opacity: 0.2"/>
    </g>
   </g>
   <g id="PolyCollection_61">
    <defs>
     <path id="m55108b0c08" d="M 310.963572 -387.7555 
L 310.963572 -55.1155 
L 315.244902 -55.1155 
L 315.244902 -387.7555 
L 315.244902 -387.7555 
L 310.963572 -387.7555 
z
"/>
    </defs>
    <g clip-path="url(#p4a69eefa08)">
     <use xlink:href="#m55108b0c08" x="0" y="398.34866" style="fill: #d95f02; fill-opacity: 0.2"/>
    </g>
   </g>
   <g id="PolyCollection_62">
    <defs>
     <path id="m924eb4ff09" d="M 315.244902 -387.7555 
L 315.244902 -55.1155 
L 319.526231 -55.1155 
L 319.526231 -387.7555 
L 319.526231 -387.7555 
L 315.244902 -387.7555 
z
"/>
    </defs>
    <g clip-path="url(#p4a69eefa08)">
     <use xlink:href="#m924eb4ff09" x="0" y="398.34866" style="fill: #d95f02; fill-opacity: 0.2"/>
    </g>
   </g>
   <g id="PolyCollection_63">
    <defs>
     <path id="m9a522785e2" d="M 319.526231 -387.7555 
L 319.526231 -55.1155 
L 323.807561 -55.1155 
L 323.807561 -387.7555 
L 323.807561 -387.7555 
L 319.526231 -387.7555 
z
"/>
    </defs>
    <g clip-path="url(#p4a69eefa08)">
     <use xlink:href="#m9a522785e2" x="0" y="398.34866" style="fill: #d95f02; fill-opacity: 0.2"/>
    </g>
   </g>
   <g id="PolyCollection_64">
    <defs>
     <path id="mdcb793e2a5" d="M 323.807561 -387.7555 
L 323.807561 -55.1155 
L 328.088891 -55.1155 
L 328.088891 -387.7555 
L 328.088891 -387.7555 
L 323.807561 -387.7555 
z
"/>
    </defs>
    <g clip-path="url(#p4a69eefa08)">
     <use xlink:href="#mdcb793e2a5" x="0" y="398.34866" style="fill: #d95f02; fill-opacity: 0.2"/>
    </g>
   </g>
   <g id="PolyCollection_65">
    <defs>
     <path id="m3313aff064" d="M 328.088891 -387.7555 
L 328.088891 -55.1155 
L 332.370221 -55.1155 
L 332.370221 -387.7555 
L 332.370221 -387.7555 
L 328.088891 -387.7555 
z
"/>
    </defs>
    <g clip-path="url(#p4a69eefa08)">
     <use xlink:href="#m3313aff064" x="0" y="398.34866" style="fill: #1b9e77; fill-opacity: 0.2"/>
    </g>
   </g>
   <g id="PolyCollection_66">
    <defs>
     <path id="m140eeb2c44" d="M 332.370221 -387.7555 
L 332.370221 -55.1155 
L 336.651551 -55.1155 
L 336.651551 -387.7555 
L 336.651551 -387.7555 
L 332.370221 -387.7555 
z
"/>
    </defs>
    <g clip-path="url(#p4a69eefa08)">
     <use xlink:href="#m140eeb2c44" x="0" y="398.34866" style="fill: #d95f02; fill-opacity: 0.2"/>
    </g>
   </g>
   <g id="PolyCollection_67">
    <defs>
     <path id="mc89c234e3c" d="M 336.651551 -387.7555 
L 336.651551 -55.1155 
L 340.932881 -55.1155 
L 340.932881 -387.7555 
L 340.932881 -387.7555 
L 336.651551 -387.7555 
z
"/>
    </defs>
    <g clip-path="url(#p4a69eefa08)">
     <use xlink:href="#mc89c234e3c" x="0" y="398.34866" style="fill: #d95f02; fill-opacity: 0.2"/>
    </g>
   </g>
   <g id="PolyCollection_68">
    <defs>
     <path id="ma7c762992d" d="M 340.932881 -387.7555 
L 340.932881 -55.1155 
L 345.214211 -55.1155 
L 345.214211 -387.7555 
L 345.214211 -387.7555 
L 340.932881 -387.7555 
z
"/>
    </defs>
    <g clip-path="url(#p4a69eefa08)">
     <use xlink:href="#ma7c762992d" x="0" y="398.34866" style="fill: #d95f02; fill-opacity: 0.2"/>
    </g>
   </g>
   <g id="PolyCollection_69">
    <defs>
     <path id="md1824c6a39" d="M 345.214211 -387.7555 
L 345.214211 -55.1155 
L 349.495541 -55.1155 
L 349.495541 -387.7555 
L 349.495541 -387.7555 
L 345.214211 -387.7555 
z
"/>
    </defs>
    <g clip-path="url(#p4a69eefa08)">
     <use xlink:href="#md1824c6a39" x="0" y="398.34866" style="fill: #d95f02; fill-opacity: 0.2"/>
    </g>
   </g>
   <g id="PolyCollection_70">
    <defs>
     <path id="m0aa987be42" d="M 349.495541 -387.7555 
L 349.495541 -55.1155 
L 353.776871 -55.1155 
L 353.776871 -387.7555 
L 353.776871 -387.7555 
L 349.495541 -387.7555 
z
"/>
    </defs>
    <g clip-path="url(#p4a69eefa08)">
     <use xlink:href="#m0aa987be42" x="0" y="398.34866" style="fill: #d95f02; fill-opacity: 0.2"/>
    </g>
   </g>
   <g id="PolyCollection_71">
    <defs>
     <path id="m9d858e7346" d="M 353.776871 -387.7555 
L 353.776871 -55.1155 
L 358.058201 -55.1155 
L 358.058201 -387.7555 
L 358.058201 -387.7555 
L 353.776871 -387.7555 
z
"/>
    </defs>
    <g clip-path="url(#p4a69eefa08)">
     <use xlink:href="#m9d858e7346" x="0" y="398.34866" style="fill: #1b9e77; fill-opacity: 0.2"/>
    </g>
   </g>
   <g id="PolyCollection_72">
    <defs>
     <path id="md79ad99fed" d="M 358.058201 -387.7555 
L 358.058201 -55.1155 
L 362.339531 -55.1155 
L 362.339531 -387.7555 
L 362.339531 -387.7555 
L 358.058201 -387.7555 
z
"/>
    </defs>
    <g clip-path="url(#p4a69eefa08)">
     <use xlink:href="#md79ad99fed" x="0" y="398.34866" style="fill: #1b9e77; fill-opacity: 0.2"/>
    </g>
   </g>
   <g id="PolyCollection_73">
    <defs>
     <path id="m232f747335" d="M 362.339531 -387.7555 
L 362.339531 -55.1155 
L 366.620861 -55.1155 
L 366.620861 -387.7555 
L 366.620861 -387.7555 
L 362.339531 -387.7555 
z
"/>
    </defs>
    <g clip-path="url(#p4a69eefa08)">
     <use xlink:href="#m232f747335" x="0" y="398.34866" style="fill: #d95f02; fill-opacity: 0.2"/>
    </g>
   </g>
   <g id="PolyCollection_74">
    <defs>
     <path id="m76cdc72b25" d="M 366.620861 -387.7555 
L 366.620861 -55.1155 
L 370.902191 -55.1155 
L 370.902191 -387.7555 
L 370.902191 -387.7555 
L 366.620861 -387.7555 
z
"/>
    </defs>
    <g clip-path="url(#p4a69eefa08)">
     <use xlink:href="#m76cdc72b25" x="0" y="398.34866" style="fill: #1b9e77; fill-opacity: 0.2"/>
    </g>
   </g>
   <g id="PolyCollection_75">
    <defs>
     <path id="ma69466ced0" d="M 370.902191 -387.7555 
L 370.902191 -55.1155 
L 375.18352 -55.1155 
L 375.18352 -387.7555 
L 375.18352 -387.7555 
L 370.902191 -387.7555 
z
"/>
    </defs>
    <g clip-path="url(#p4a69eefa08)">
     <use xlink:href="#ma69466ced0" x="0" y="398.34866" style="fill: #d95f02; fill-opacity: 0.2"/>
    </g>
   </g>
   <g id="PolyCollection_76">
    <defs>
     <path id="m16a541acbb" d="M 375.18352 -387.7555 
L 375.18352 -55.1155 
L 379.46485 -55.1155 
L 379.46485 -387.7555 
L 379.46485 -387.7555 
L 375.18352 -387.7555 
z
"/>
    </defs>
    <g clip-path="url(#p4a69eefa08)">
     <use xlink:href="#m16a541acbb" x="0" y="398.34866" style="fill: #d95f02; fill-opacity: 0.2"/>
    </g>
   </g>
   <g id="PolyCollection_77">
    <defs>
     <path id="m7b0488c589" d="M 379.46485 -387.7555 
L 379.46485 -55.1155 
L 383.74618 -55.1155 
L 383.74618 -387.7555 
L 383.74618 -387.7555 
L 379.46485 -387.7555 
z
"/>
    </defs>
    <g clip-path="url(#p4a69eefa08)">
     <use xlink:href="#m7b0488c589" x="0" y="398.34866" style="fill: #d95f02; fill-opacity: 0.2"/>
    </g>
   </g>
   <g id="PolyCollection_78">
    <defs>
     <path id="m9ffcf46160" d="M 383.74618 -387.7555 
L 383.74618 -55.1155 
L 388.02751 -55.1155 
L 388.02751 -387.7555 
L 388.02751 -387.7555 
L 383.74618 -387.7555 
z
"/>
    </defs>
    <g clip-path="url(#p4a69eefa08)">
     <use xlink:href="#m9ffcf46160" x="0" y="398.34866" style="fill: #d95f02; fill-opacity: 0.2"/>
    </g>
   </g>
   <g id="PolyCollection_79">
    <defs>
     <path id="m8d4bf0fd30" d="M 388.02751 -387.7555 
L 388.02751 -55.1155 
L 392.30884 -55.1155 
L 392.30884 -387.7555 
L 392.30884 -387.7555 
L 388.02751 -387.7555 
z
"/>
    </defs>
    <g clip-path="url(#p4a69eefa08)">
     <use xlink:href="#m8d4bf0fd30" x="0" y="398.34866" style="fill: #d95f02; fill-opacity: 0.2"/>
    </g>
   </g>
   <g id="PolyCollection_80">
    <defs>
     <path id="m5b1415d26f" d="M 392.30884 -387.7555 
L 392.30884 -55.1155 
L 396.59017 -55.1155 
L 396.59017 -387.7555 
L 396.59017 -387.7555 
L 392.30884 -387.7555 
z
"/>
    </defs>
    <g clip-path="url(#p4a69eefa08)">
     <use xlink:href="#m5b1415d26f" x="0" y="398.34866" style="fill: #d95f02; fill-opacity: 0.2"/>
    </g>
   </g>
   <g id="PolyCollection_81">
    <defs>
     <path id="m8bd34ccde7" d="M 396.59017 -387.7555 
L 396.59017 -55.1155 
L 400.8715 -55.1155 
L 400.8715 -387.7555 
L 400.8715 -387.7555 
L 396.59017 -387.7555 
z
"/>
    </defs>
    <g clip-path="url(#p4a69eefa08)">
     <use xlink:href="#m8bd34ccde7" x="0" y="398.34866" style="fill: #1b9e77; fill-opacity: 0.2"/>
    </g>
   </g>
   <g id="PolyCollection_82">
    <defs>
     <path id="mb4188584ef" d="M 400.8715 -387.7555 
L 400.8715 -55.1155 
L 405.15283 -55.1155 
L 405.15283 -387.7555 
L 405.15283 -387.7555 
L 400.8715 -387.7555 
z
"/>
    </defs>
    <g clip-path="url(#p4a69eefa08)">
     <use xlink:href="#mb4188584ef" x="0" y="398.34866" style="fill: #d95f02; fill-opacity: 0.2"/>
    </g>
   </g>
   <g id="PolyCollection_83">
    <defs>
     <path id="md92c4352c0" d="M 405.15283 -387.7555 
L 405.15283 -55.1155 
L 409.43416 -55.1155 
L 409.43416 -387.7555 
L 409.43416 -387.7555 
L 405.15283 -387.7555 
z
"/>
    </defs>
    <g clip-path="url(#p4a69eefa08)">
     <use xlink:href="#md92c4352c0" x="0" y="398.34866" style="fill: #1b9e77; fill-opacity: 0.2"/>
    </g>
   </g>
   <g id="PolyCollection_84">
    <defs>
     <path id="m6bfadc7abe" d="M 409.43416 -387.7555 
L 409.43416 -55.1155 
L 413.71549 -55.1155 
L 413.71549 -387.7555 
L 413.71549 -387.7555 
L 409.43416 -387.7555 
z
"/>
    </defs>
    <g clip-path="url(#p4a69eefa08)">
     <use xlink:href="#m6bfadc7abe" x="0" y="398.34866" style="fill: #d95f02; fill-opacity: 0.2"/>
    </g>
   </g>
   <g id="PolyCollection_85">
    <defs>
     <path id="mf4425ebe11" d="M 413.71549 -387.7555 
L 413.71549 -55.1155 
L 417.99682 -55.1155 
L 417.99682 -387.7555 
L 417.99682 -387.7555 
L 413.71549 -387.7555 
z
"/>
    </defs>
    <g clip-path="url(#p4a69eefa08)">
     <use xlink:href="#mf4425ebe11" x="0" y="398.34866" style="fill: #1b9e77; fill-opacity: 0.2"/>
    </g>
   </g>
   <g id="PolyCollection_86">
    <defs>
     <path id="m3a315077b0" d="M 417.99682 -387.7555 
L 417.99682 -55.1155 
L 422.27815 -55.1155 
L 422.27815 -387.7555 
L 422.27815 -387.7555 
L 417.99682 -387.7555 
z
"/>
    </defs>
    <g clip-path="url(#p4a69eefa08)">
     <use xlink:href="#m3a315077b0" x="0" y="398.34866" style="fill: #1b9e77; fill-opacity: 0.2"/>
    </g>
   </g>
   <g id="PolyCollection_87">
    <defs>
     <path id="mb3d44038b3" d="M 422.27815 -387.7555 
L 422.27815 -55.1155 
L 426.55948 -55.1155 
L 426.55948 -387.7555 
L 426.55948 -387.7555 
L 422.27815 -387.7555 
z
"/>
    </defs>
    <g clip-path="url(#p4a69eefa08)">
     <use xlink:href="#mb3d44038b3" x="0" y="398.34866" style="fill: #1b9e77; fill-opacity: 0.2"/>
    </g>
   </g>
   <g id="PolyCollection_88">
    <defs>
     <path id="m70a7107205" d="M 426.55948 -387.7555 
L 426.55948 -55.1155 
L 430.840809 -55.1155 
L 430.840809 -387.7555 
L 430.840809 -387.7555 
L 426.55948 -387.7555 
z
"/>
    </defs>
    <g clip-path="url(#p4a69eefa08)">
     <use xlink:href="#m70a7107205" x="0" y="398.34866" style="fill: #d95f02; fill-opacity: 0.2"/>
    </g>
   </g>
   <g id="PolyCollection_89">
    <defs>
     <path id="mb6c237d9b2" d="M 430.840809 -387.7555 
L 430.840809 -55.1155 
L 435.122139 -55.1155 
L 435.122139 -387.7555 
L 435.122139 -387.7555 
L 430.840809 -387.7555 
z
"/>
    </defs>
    <g clip-path="url(#p4a69eefa08)">
     <use xlink:href="#mb6c237d9b2" x="0" y="398.34866" style="fill: #d95f02; fill-opacity: 0.2"/>
    </g>
   </g>
   <g id="PolyCollection_90">
    <defs>
     <path id="m09c2bf83d4" d="M 435.122139 -387.7555 
L 435.122139 -55.1155 
L 439.403469 -55.1155 
L 439.403469 -387.7555 
L 439.403469 -387.7555 
L 435.122139 -387.7555 
z
"/>
    </defs>
    <g clip-path="url(#p4a69eefa08)">
     <use xlink:href="#m09c2bf83d4" x="0" y="398.34866" style="fill: #d95f02; fill-opacity: 0.2"/>
    </g>
   </g>
   <g id="PolyCollection_91">
    <defs>
     <path id="m15f6a6894c" d="M 439.403469 -387.7555 
L 439.403469 -55.1155 
L 443.684799 -55.1155 
L 443.684799 -387.7555 
L 443.684799 -387.7555 
L 439.403469 -387.7555 
z
"/>
    </defs>
    <g clip-path="url(#p4a69eefa08)">
     <use xlink:href="#m15f6a6894c" x="0" y="398.34866" style="fill: #d95f02; fill-opacity: 0.2"/>
    </g>
   </g>
   <g id="PolyCollection_92">
    <defs>
     <path id="mf1afe9fe64" d="M 443.684799 -387.7555 
L 443.684799 -55.1155 
L 447.966129 -55.1155 
L 447.966129 -387.7555 
L 447.966129 -387.7555 
L 443.684799 -387.7555 
z
"/>
    </defs>
    <g clip-path="url(#p4a69eefa08)">
     <use xlink:href="#mf1afe9fe64" x="0" y="398.34866" style="fill: #1b9e77; fill-opacity: 0.2"/>
    </g>
   </g>
   <g id="PolyCollection_93">
    <defs>
     <path id="me54500e73c" d="M 447.966129 -387.7555 
L 447.966129 -55.1155 
L 452.247459 -55.1155 
L 452.247459 -387.7555 
L 452.247459 -387.7555 
L 447.966129 -387.7555 
z
"/>
    </defs>
    <g clip-path="url(#p4a69eefa08)">
     <use xlink:href="#me54500e73c" x="0" y="398.34866" style="fill: #d95f02; fill-opacity: 0.2"/>
    </g>
   </g>
   <g id="PolyCollection_94">
    <defs>
     <path id="m7adf402b9a" d="M 452.247459 -387.7555 
L 452.247459 -55.1155 
L 456.528789 -55.1155 
L 456.528789 -387.7555 
L 456.528789 -387.7555 
L 452.247459 -387.7555 
z
"/>
    </defs>
    <g clip-path="url(#p4a69eefa08)">
     <use xlink:href="#m7adf402b9a" x="0" y="398.34866" style="fill: #d95f02; fill-opacity: 0.2"/>
    </g>
   </g>
   <g id="PolyCollection_95">
    <defs>
     <path id="mb10e35e15d" d="M 456.528789 -387.7555 
L 456.528789 -55.1155 
L 460.810119 -55.1155 
L 460.810119 -387.7555 
L 460.810119 -387.7555 
L 456.528789 -387.7555 
z
"/>
    </defs>
    <g clip-path="url(#p4a69eefa08)">
     <use xlink:href="#mb10e35e15d" x="0" y="398.34866" style="fill: #d95f02; fill-opacity: 0.2"/>
    </g>
   </g>
   <g id="matplotlib.axis_1">
    <g id="xtick_1">
     <g id="line2d_1">
      <defs>
       <path id="m1318880476" d="M 0 0 
L 0 4.8 
" style="stroke: #000000"/>
      </defs>
      <g>
       <use xlink:href="#m1318880476" x="66.927766" y="343.23316" style="stroke: #000000"/>
      </g>
     </g>
     <g id="text_1">
      <!-- 0 -->
      <g transform="translate(61.328766 364.90641) scale(0.176 -0.176)">
       <defs>
        <path id="DejaVuSans-30" d="M 2034 4250 
Q 1547 4250 1301 3770 
Q 1056 3291 1056 2328 
Q 1056 1369 1301 889 
Q 1547 409 2034 409 
Q 2525 409 2770 889 
Q 3016 1369 3016 2328 
Q 3016 3291 2770 3770 
Q 2525 4250 2034 4250 
z
M 2034 4750 
Q 2819 4750 3233 4129 
Q 3647 3509 3647 2328 
Q 3647 1150 3233 529 
Q 2819 -91 2034 -91 
Q 1250 -91 836 529 
Q 422 1150 422 2328 
Q 422 3509 836 4129 
Q 1250 4750 2034 4750 
z
" transform="scale(0.015625)"/>
       </defs>
       <use xlink:href="#DejaVuSans-30"/>
      </g>
     </g>
    </g>
    <g id="xtick_2">
     <g id="line2d_2">
      <g>
       <use xlink:href="#m1318880476" x="152.554364" y="343.23316" style="stroke: #000000"/>
      </g>
     </g>
     <g id="text_2">
      <!-- 20 -->
      <g transform="translate(141.356364 364.90641) scale(0.176 -0.176)">
       <defs>
        <path id="DejaVuSans-32" d="M 1228 531 
L 3431 531 
L 3431 0 
L 469 0 
L 469 531 
Q 828 903 1448 1529 
Q 2069 2156 2228 2338 
Q 2531 2678 2651 2914 
Q 2772 3150 2772 3378 
Q 2772 3750 2511 3984 
Q 2250 4219 1831 4219 
Q 1534 4219 1204 4116 
Q 875 4013 500 3803 
L 500 4441 
Q 881 4594 1212 4672 
Q 1544 4750 1819 4750 
Q 2544 4750 2975 4387 
Q 3406 4025 3406 3419 
Q 3406 3131 3298 2873 
Q 3191 2616 2906 2266 
Q 2828 2175 2409 1742 
Q 1991 1309 1228 531 
z
" transform="scale(0.015625)"/>
       </defs>
       <use xlink:href="#DejaVuSans-32"/>
       <use xlink:href="#DejaVuSans-30" x="63.623047"/>
      </g>
     </g>
    </g>
    <g id="xtick_3">
     <g id="line2d_3">
      <g>
       <use xlink:href="#m1318880476" x="238.180963" y="343.23316" style="stroke: #000000"/>
      </g>
     </g>
     <g id="text_3">
      <!-- 40 -->
      <g transform="translate(226.982963 364.90641) scale(0.176 -0.176)">
       <defs>
        <path id="DejaVuSans-34" d="M 2419 4116 
L 825 1625 
L 2419 1625 
L 2419 4116 
z
M 2253 4666 
L 3047 4666 
L 3047 1625 
L 3713 1625 
L 3713 1100 
L 3047 1100 
L 3047 0 
L 2419 0 
L 2419 1100 
L 313 1100 
L 313 1709 
L 2253 4666 
z
" transform="scale(0.015625)"/>
       </defs>
       <use xlink:href="#DejaVuSans-34"/>
       <use xlink:href="#DejaVuSans-30" x="63.623047"/>
      </g>
     </g>
    </g>
    <g id="xtick_4">
     <g id="line2d_4">
      <g>
       <use xlink:href="#m1318880476" x="323.807561" y="343.23316" style="stroke: #000000"/>
      </g>
     </g>
     <g id="text_4">
      <!-- 60 -->
      <g transform="translate(312.609561 364.90641) scale(0.176 -0.176)">
       <defs>
        <path id="DejaVuSans-36" d="M 2113 2584 
Q 1688 2584 1439 2293 
Q 1191 2003 1191 1497 
Q 1191 994 1439 701 
Q 1688 409 2113 409 
Q 2538 409 2786 701 
Q 3034 994 3034 1497 
Q 3034 2003 2786 2293 
Q 2538 2584 2113 2584 
z
M 3366 4563 
L 3366 3988 
Q 3128 4100 2886 4159 
Q 2644 4219 2406 4219 
Q 1781 4219 1451 3797 
Q 1122 3375 1075 2522 
Q 1259 2794 1537 2939 
Q 1816 3084 2150 3084 
Q 2853 3084 3261 2657 
Q 3669 2231 3669 1497 
Q 3669 778 3244 343 
Q 2819 -91 2113 -91 
Q 1303 -91 875 529 
Q 447 1150 447 2328 
Q 447 3434 972 4092 
Q 1497 4750 2381 4750 
Q 2619 4750 2861 4703 
Q 3103 4656 3366 4563 
z
" transform="scale(0.015625)"/>
       </defs>
       <use xlink:href="#DejaVuSans-36"/>
       <use xlink:href="#DejaVuSans-30" x="63.623047"/>
      </g>
     </g>
    </g>
    <g id="text_5">
     <!-- State -->
     <g transform="translate(208.06 387.15566) scale(0.192 -0.192)">
      <defs>
       <path id="DejaVuSans-53" d="M 3425 4513 
L 3425 3897 
Q 3066 4069 2747 4153 
Q 2428 4238 2131 4238 
Q 1616 4238 1336 4038 
Q 1056 3838 1056 3469 
Q 1056 3159 1242 3001 
Q 1428 2844 1947 2747 
L 2328 2669 
Q 3034 2534 3370 2195 
Q 3706 1856 3706 1288 
Q 3706 609 3251 259 
Q 2797 -91 1919 -91 
Q 1588 -91 1214 -16 
Q 841 59 441 206 
L 441 856 
Q 825 641 1194 531 
Q 1563 422 1919 422 
Q 2459 422 2753 634 
Q 3047 847 3047 1241 
Q 3047 1584 2836 1778 
Q 2625 1972 2144 2069 
L 1759 2144 
Q 1053 2284 737 2584 
Q 422 2884 422 3419 
Q 422 4038 858 4394 
Q 1294 4750 2059 4750 
Q 2388 4750 2728 4690 
Q 3069 4631 3425 4513 
z
" transform="scale(0.015625)"/>
       <path id="DejaVuSans-74" d="M 1172 4494 
L 1172 3500 
L 2356 3500 
L 2356 3053 
L 1172 3053 
L 1172 1153 
Q 1172 725 1289 603 
Q 1406 481 1766 481 
L 2356 481 
L 2356 0 
L 1766 0 
Q 1100 0 847 248 
Q 594 497 594 1153 
L 594 3053 
L 172 3053 
L 172 3500 
L 594 3500 
L 594 4494 
L 1172 4494 
z
" transform="scale(0.015625)"/>
       <path id="DejaVuSans-61" d="M 2194 1759 
Q 1497 1759 1228 1600 
Q 959 1441 959 1056 
Q 959 750 1161 570 
Q 1363 391 1709 391 
Q 2188 391 2477 730 
Q 2766 1069 2766 1631 
L 2766 1759 
L 2194 1759 
z
M 3341 1997 
L 3341 0 
L 2766 0 
L 2766 531 
Q 2569 213 2275 61 
Q 1981 -91 1556 -91 
Q 1019 -91 701 211 
Q 384 513 384 1019 
Q 384 1609 779 1909 
Q 1175 2209 1959 2209 
L 2766 2209 
L 2766 2266 
Q 2766 2663 2505 2880 
Q 2244 3097 1772 3097 
Q 1472 3097 1187 3025 
Q 903 2953 641 2809 
L 641 3341 
Q 956 3463 1253 3523 
Q 1550 3584 1831 3584 
Q 2591 3584 2966 3190 
Q 3341 2797 3341 1997 
z
" transform="scale(0.015625)"/>
       <path id="DejaVuSans-65" d="M 3597 1894 
L 3597 1613 
L 953 1613 
Q 991 1019 1311 708 
Q 1631 397 2203 397 
Q 2534 397 2845 478 
Q 3156 559 3463 722 
L 3463 178 
Q 3153 47 2828 -22 
Q 2503 -91 2169 -91 
Q 1331 -91 842 396 
Q 353 884 353 1716 
Q 353 2575 817 3079 
Q 1281 3584 2069 3584 
Q 2775 3584 3186 3129 
Q 3597 2675 3597 1894 
z
M 3022 2063 
Q 3016 2534 2758 2815 
Q 2500 3097 2075 3097 
Q 1594 3097 1305 2825 
Q 1016 2553 972 2059 
L 3022 2063 
z
" transform="scale(0.015625)"/>
      </defs>
      <use xlink:href="#DejaVuSans-53"/>
      <use xlink:href="#DejaVuSans-74" x="63.476562"/>
      <use xlink:href="#DejaVuSans-61" x="102.685547"/>
      <use xlink:href="#DejaVuSans-74" x="163.964844"/>
      <use xlink:href="#DejaVuSans-65" x="203.173828"/>
     </g>
    </g>
   </g>
   <g id="matplotlib.axis_2">
    <g id="ytick_1">
     <g id="line2d_5">
      <defs>
       <path id="m4a4111e5a2" d="M 0 0 
L -4.8 0 
" style="stroke: #000000"/>
      </defs>
      <g>
       <use xlink:href="#m4a4111e5a2" x="66.0715" y="343.23316" style="stroke: #000000"/>
      </g>
     </g>
     <g id="text_6">
      <!-- 0.0 -->
      <g transform="translate(29.782 349.919785) scale(0.176 -0.176)">
       <defs>
        <path id="DejaVuSans-2e" d="M 684 794 
L 1344 794 
L 1344 0 
L 684 0 
L 684 794 
z
" transform="scale(0.015625)"/>
       </defs>
       <use xlink:href="#DejaVuSans-30"/>
       <use xlink:href="#DejaVuSans-2e" x="63.623047"/>
       <use xlink:href="#DejaVuSans-30" x="95.410156"/>
      </g>
     </g>
    </g>
    <g id="ytick_2">
     <g id="line2d_6">
      <g>
       <use xlink:href="#m4a4111e5a2" x="66.0715" y="277.363853" style="stroke: #000000"/>
      </g>
     </g>
     <g id="text_7">
      <!-- 0.2 -->
      <g transform="translate(29.782 284.050478) scale(0.176 -0.176)">
       <use xlink:href="#DejaVuSans-30"/>
       <use xlink:href="#DejaVuSans-2e" x="63.623047"/>
       <use xlink:href="#DejaVuSans-32" x="95.410156"/>
      </g>
     </g>
    </g>
    <g id="ytick_3">
     <g id="line2d_7">
      <g>
       <use xlink:href="#m4a4111e5a2" x="66.0715" y="211.494546" style="stroke: #000000"/>
      </g>
     </g>
     <g id="text_8">
      <!-- 0.4 -->
      <g transform="translate(29.782 218.181171) scale(0.176 -0.176)">
       <use xlink:href="#DejaVuSans-30"/>
       <use xlink:href="#DejaVuSans-2e" x="63.623047"/>
       <use xlink:href="#DejaVuSans-34" x="95.410156"/>
      </g>
     </g>
    </g>
    <g id="ytick_4">
     <g id="line2d_8">
      <g>
       <use xlink:href="#m4a4111e5a2" x="66.0715" y="145.625239" style="stroke: #000000"/>
      </g>
     </g>
     <g id="text_9">
      <!-- 0.6 -->
      <g transform="translate(29.782 152.311864) scale(0.176 -0.176)">
       <use xlink:href="#DejaVuSans-30"/>
       <use xlink:href="#DejaVuSans-2e" x="63.623047"/>
       <use xlink:href="#DejaVuSans-36" x="95.410156"/>
      </g>
     </g>
    </g>
    <g id="ytick_5">
     <g id="line2d_9">
      <g>
       <use xlink:href="#m4a4111e5a2" x="66.0715" y="79.755932" style="stroke: #000000"/>
      </g>
     </g>
     <g id="text_10">
      <!-- 0.8 -->
      <g transform="translate(29.782 86.442557) scale(0.176 -0.176)">
       <defs>
        <path id="DejaVuSans-38" d="M 2034 2216 
Q 1584 2216 1326 1975 
Q 1069 1734 1069 1313 
Q 1069 891 1326 650 
Q 1584 409 2034 409 
Q 2484 409 2743 651 
Q 3003 894 3003 1313 
Q 3003 1734 2745 1975 
Q 2488 2216 2034 2216 
z
M 1403 2484 
Q 997 2584 770 2862 
Q 544 3141 544 3541 
Q 544 4100 942 4425 
Q 1341 4750 2034 4750 
Q 2731 4750 3128 4425 
Q 3525 4100 3525 3541 
Q 3525 3141 3298 2862 
Q 3072 2584 2669 2484 
Q 3125 2378 3379 2068 
Q 3634 1759 3634 1313 
Q 3634 634 3220 271 
Q 2806 -91 2034 -91 
Q 1263 -91 848 271 
Q 434 634 434 1313 
Q 434 1759 690 2068 
Q 947 2378 1403 2484 
z
M 1172 3481 
Q 1172 3119 1398 2916 
Q 1625 2713 2034 2713 
Q 2441 2713 2670 2916 
Q 2900 3119 2900 3481 
Q 2900 3844 2670 4047 
Q 2441 4250 2034 4250 
Q 1625 4250 1398 4047 
Q 1172 3844 1172 3481 
z
" transform="scale(0.015625)"/>
       </defs>
       <use xlink:href="#DejaVuSans-30"/>
       <use xlink:href="#DejaVuSans-2e" x="63.623047"/>
       <use xlink:href="#DejaVuSans-38" x="95.410156"/>
      </g>
     </g>
    </g>
    <g id="ytick_6">
     <g id="line2d_10">
      <g>
       <use xlink:href="#m4a4111e5a2" x="66.0715" y="13.886625" style="stroke: #000000"/>
      </g>
     </g>
     <g id="text_11">
      <!-- 1.0 -->
      <g transform="translate(29.782 20.57325) scale(0.176 -0.176)">
       <defs>
        <path id="DejaVuSans-31" d="M 794 531 
L 1825 531 
L 1825 4091 
L 703 3866 
L 703 4441 
L 1819 4666 
L 2450 4666 
L 2450 531 
L 3481 531 
L 3481 0 
L 794 0 
L 794 531 
z
" transform="scale(0.015625)"/>
       </defs>
       <use xlink:href="#DejaVuSans-31"/>
       <use xlink:href="#DejaVuSans-2e" x="63.623047"/>
       <use xlink:href="#DejaVuSans-30" x="95.410156"/>
      </g>
     </g>
    </g>
    <g id="text_12">
     <!-- Score -->
     <g transform="translate(21.789 203.79766) rotate(-90) scale(0.192 -0.192)">
      <defs>
       <path id="DejaVuSans-63" d="M 3122 3366 
L 3122 2828 
Q 2878 2963 2633 3030 
Q 2388 3097 2138 3097 
Q 1578 3097 1268 2742 
Q 959 2388 959 1747 
Q 959 1106 1268 751 
Q 1578 397 2138 397 
Q 2388 397 2633 464 
Q 2878 531 3122 666 
L 3122 134 
Q 2881 22 2623 -34 
Q 2366 -91 2075 -91 
Q 1284 -91 818 406 
Q 353 903 353 1747 
Q 353 2603 823 3093 
Q 1294 3584 2113 3584 
Q 2378 3584 2631 3529 
Q 2884 3475 3122 3366 
z
" transform="scale(0.015625)"/>
       <path id="DejaVuSans-6f" d="M 1959 3097 
Q 1497 3097 1228 2736 
Q 959 2375 959 1747 
Q 959 1119 1226 758 
Q 1494 397 1959 397 
Q 2419 397 2687 759 
Q 2956 1122 2956 1747 
Q 2956 2369 2687 2733 
Q 2419 3097 1959 3097 
z
M 1959 3584 
Q 2709 3584 3137 3096 
Q 3566 2609 3566 1747 
Q 3566 888 3137 398 
Q 2709 -91 1959 -91 
Q 1206 -91 779 398 
Q 353 888 353 1747 
Q 353 2609 779 3096 
Q 1206 3584 1959 3584 
z
" transform="scale(0.015625)"/>
       <path id="DejaVuSans-72" d="M 2631 2963 
Q 2534 3019 2420 3045 
Q 2306 3072 2169 3072 
Q 1681 3072 1420 2755 
Q 1159 2438 1159 1844 
L 1159 0 
L 581 0 
L 581 3500 
L 1159 3500 
L 1159 2956 
Q 1341 3275 1631 3429 
Q 1922 3584 2338 3584 
Q 2397 3584 2469 3576 
Q 2541 3569 2628 3553 
L 2631 2963 
z
" transform="scale(0.015625)"/>
      </defs>
      <use xlink:href="#DejaVuSans-53"/>
      <use xlink:href="#DejaVuSans-63" x="63.476562"/>
      <use xlink:href="#DejaVuSans-6f" x="118.457031"/>
      <use xlink:href="#DejaVuSans-72" x="179.638672"/>
      <use xlink:href="#DejaVuSans-65" x="218.501953"/>
     </g>
    </g>
   </g>
   <g id="line2d_11">
    <path d="M 66.927766 121.753832 
L 75.490426 121.753832 
L 79.771756 120.566638 
L 84.053086 119.159583 
L 88.334416 118.449365 
L 92.615746 117.707122 
L 96.897075 117.500284 
L 101.178405 111.669772 
L 109.741065 108.839904 
L 118.303725 108.45237 
L 126.866385 108.387657 
L 131.147715 107.256185 
L 135.429045 107.008423 
L 139.710375 107.008423 
L 143.991705 104.496097 
L 161.117024 103.85941 
L 165.398354 101.693745 
L 169.679684 101.370754 
L 173.961014 101.233838 
L 178.242344 92.578336 
L 186.805004 87.817549 
L 191.086334 81.888536 
L 195.367664 80.423321 
L 199.648994 79.20736 
L 212.492983 78.124494 
L 216.774313 77.795779 
L 221.055643 77.960238 
L 225.336973 77.013935 
L 229.618303 56.240633 
L 233.899633 55.841598 
L 238.180963 55.165609 
L 242.462293 54.777901 
L 246.743623 54.764146 
L 251.024953 54.63966 
L 255.306283 51.363218 
L 259.587613 48.863475 
L 263.868942 48.054489 
L 268.150272 47.749972 
L 272.431602 45.187683 
L 280.994262 45.154391 
L 285.275592 44.858286 
L 289.556922 44.759454 
L 298.119582 43.837156 
L 302.400912 43.817289 
L 306.682242 41.597919 
L 310.963572 41.597919 
L 315.244902 41.597919 
L 319.526231 41.597919 
L 323.807561 41.597919 
L 328.088891 41.597919 
L 332.370221 39.494563 
L 336.651551 36.465696 
L 340.932881 36.458662 
L 345.214211 20.788452 
L 349.495541 20.788452 
L 353.776871 17.588371 
L 362.339531 17.585925 
L 366.620861 16.830139 
L 370.902191 16.826247 
L 375.18352 16.826247 
L 379.46485 16.826247 
L 388.02751 16.826247 
L 392.30884 16.826247 
L 396.59017 16.826247 
L 400.8715 16.741314 
L 405.15283 16.741314 
L 409.0715 16.732953 
" clip-path="url(#p4a69eefa08)" style="fill: none; stroke-dasharray: 2,3.3; stroke-dashoffset: 0; stroke: #e41a1c; stroke-width: 2"/>
   </g>
   <g id="line2d_12">
    <path d="M 66.927766 99.059193 
L 75.490426 99.059193 
L 79.771756 98.964662 
L 84.053086 98.964662 
L 88.334416 98.964662 
L 92.615746 98.870131 
L 96.897075 98.7756 
L 101.178405 98.7756 
L 109.741065 98.681069 
L 118.303725 98.681069 
L 126.866385 98.681069 
L 131.147715 98.586537 
L 135.429045 98.397475 
L 139.710375 98.397475 
L 143.991705 98.397475 
L 161.117024 98.019351 
L 165.398354 98.019351 
L 169.679684 97.830288 
L 173.961014 97.830288 
L 178.242344 97.830288 
L 186.805004 97.641226 
L 191.086334 97.641226 
L 195.367664 97.546695 
L 199.648994 97.546695 
L 212.492983 97.452164 
L 216.774313 97.452164 
L 221.055643 97.452164 
L 225.336973 97.263101 
L 229.618303 97.263101 
L 233.899633 97.16857 
L 238.180963 97.16857 
L 242.462293 97.16857 
L 246.743623 97.074039 
L 251.024953 96.884977 
L 255.306283 96.601383 
L 259.587613 96.601383 
L 263.868942 96.601383 
L 268.150272 96.601383 
L 272.431602 96.601383 
L 280.994262 84.595927 
L 285.275592 84.595927 
L 289.556922 84.595927 
L 298.119582 84.312333 
L 302.400912 84.123271 
L 306.682242 83.934209 
L 310.963572 83.934209 
L 315.244902 83.934209 
L 319.526231 83.934209 
L 323.807561 83.934209 
L 328.088891 83.934209 
L 332.370221 60.679545 
L 336.651551 60.679545 
L 340.932881 60.585014 
L 345.214211 60.585014 
L 349.495541 60.585014 
L 353.776871 60.490483 
L 362.339531 60.301421 
L 366.620861 60.20689 
L 370.902191 59.828765 
L 375.18352 59.828765 
L 379.46485 59.828765 
L 388.02751 59.828765 
L 392.30884 59.828765 
L 396.59017 59.828765 
L 400.8715 51.320961 
L 405.15283 51.320961 
L 409.0715 50.455725 
" clip-path="url(#p4a69eefa08)" style="fill: none; stroke-dasharray: 7.4,3.2; stroke-dashoffset: 0; stroke: #377eb8; stroke-width: 2"/>
   </g>
   <g id="line2d_13">
    <path d="M 66.927766 110.959549 
L 75.490426 110.959549 
L 79.771756 110.26534 
L 84.053086 109.497525 
L 88.334416 109.111717 
L 92.615746 108.666197 
L 96.897075 108.510784 
L 101.178405 105.397321 
L 109.741065 103.868225 
L 118.303725 103.666314 
L 126.866385 103.63263 
L 131.147715 102.999554 
L 135.429045 102.780017 
L 139.710375 102.780017 
L 143.991705 101.485243 
L 161.117024 100.974572 
L 165.398354 99.870416 
L 169.679684 99.613384 
L 173.961014 99.543947 
L 178.242344 95.232114 
L 186.805004 92.825698 
L 191.086334 90.009633 
L 195.367664 89.273319 
L 199.648994 88.70695 
L 212.492983 88.153925 
L 216.774313 88.001866 
L 221.055643 88.077918 
L 225.336973 87.538789 
L 229.618303 78.33063 
L 233.899633 78.105889 
L 238.180963 77.818599 
L 242.462293 77.654154 
L 246.743623 77.593272 
L 251.024953 77.430413 
L 255.306283 75.882472 
L 259.587613 74.838623 
L 263.868942 74.502868 
L 268.150272 74.376743 
L 272.431602 73.321079 
L 280.994262 66.272312 
L 285.275592 66.144562 
L 289.556922 66.101953 
L 298.119582 65.541869 
L 302.400912 65.424619 
L 306.682242 64.363722 
L 310.963572 64.363722 
L 315.244902 64.363722 
L 319.526231 64.363722 
L 323.807561 64.363722 
L 328.088891 64.363722 
L 332.370221 50.469801 
L 336.651551 49.070066 
L 340.932881 49.01561 
L 345.214211 41.99543 
L 349.495541 41.99543 
L 353.776871 40.552107 
L 362.339531 40.44275 
L 366.620861 40.062207 
L 370.902191 39.843726 
L 375.18352 39.843726 
L 379.46485 39.843726 
L 388.02751 39.843726 
L 392.30884 39.843726 
L 396.59017 39.843726 
L 400.8715 34.997942 
L 405.15283 34.997942 
L 409.0715 34.512587 
" clip-path="url(#p4a69eefa08)" style="fill: none; stroke: #984ea3; stroke-width: 3; stroke-linecap: square"/>
   </g>
   <g id="patch_3">
    <path d="M 66.0715 343.23316 
L 66.0715 10.59316 
" style="fill: none; stroke: #000000; stroke-linejoin: miter; stroke-linecap: square"/>
   </g>
   <g id="patch_4">
    <path d="M 66.0715 343.23316 
L 400.8715 343.23316 
" style="fill: none; stroke: #000000; stroke-linejoin: miter; stroke-linecap: square"/>
   </g>
   <g id="legend_1">
    <g id="patch_5">
     <path d="M 78.3915 334.43316 
L 213.23225 334.43316 
Q 216.75225 334.43316 216.75225 330.91316 
L 216.75225 255.17266 
Q 216.75225 251.65266 213.23225 251.65266 
L 78.3915 251.65266 
Q 74.8715 251.65266 74.8715 255.17266 
L 74.8715 330.91316 
Q 74.8715 334.43316 78.3915 334.43316 
z
" style="fill: #ffffff; opacity: 0.8; stroke: #cccccc; stroke-width: 0.8; stroke-linejoin: miter"/>
    </g>
    <g id="line2d_14">
     <path d="M 81.9115 265.90591 
L 99.5115 265.90591 
L 117.1115 265.90591 
" style="fill: none; stroke-dasharray: 2,3.3; stroke-dashoffset: 0; stroke: #e41a1c; stroke-width: 2"/>
    </g>
    <g id="text_13">
     <!-- Precision -->
     <g transform="translate(131.1915 272.06591) scale(0.176 -0.176)">
      <defs>
       <path id="DejaVuSans-50" d="M 1259 4147 
L 1259 2394 
L 2053 2394 
Q 2494 2394 2734 2622 
Q 2975 2850 2975 3272 
Q 2975 3691 2734 3919 
Q 2494 4147 2053 4147 
L 1259 4147 
z
M 628 4666 
L 2053 4666 
Q 2838 4666 3239 4311 
Q 3641 3956 3641 3272 
Q 3641 2581 3239 2228 
Q 2838 1875 2053 1875 
L 1259 1875 
L 1259 0 
L 628 0 
L 628 4666 
z
" transform="scale(0.015625)"/>
       <path id="DejaVuSans-69" d="M 603 3500 
L 1178 3500 
L 1178 0 
L 603 0 
L 603 3500 
z
M 603 4863 
L 1178 4863 
L 1178 4134 
L 603 4134 
L 603 4863 
z
" transform="scale(0.015625)"/>
       <path id="DejaVuSans-73" d="M 2834 3397 
L 2834 2853 
Q 2591 2978 2328 3040 
Q 2066 3103 1784 3103 
Q 1356 3103 1142 2972 
Q 928 2841 928 2578 
Q 928 2378 1081 2264 
Q 1234 2150 1697 2047 
L 1894 2003 
Q 2506 1872 2764 1633 
Q 3022 1394 3022 966 
Q 3022 478 2636 193 
Q 2250 -91 1575 -91 
Q 1294 -91 989 -36 
Q 684 19 347 128 
L 347 722 
Q 666 556 975 473 
Q 1284 391 1588 391 
Q 1994 391 2212 530 
Q 2431 669 2431 922 
Q 2431 1156 2273 1281 
Q 2116 1406 1581 1522 
L 1381 1569 
Q 847 1681 609 1914 
Q 372 2147 372 2553 
Q 372 3047 722 3315 
Q 1072 3584 1716 3584 
Q 2034 3584 2315 3537 
Q 2597 3491 2834 3397 
z
" transform="scale(0.015625)"/>
       <path id="DejaVuSans-6e" d="M 3513 2113 
L 3513 0 
L 2938 0 
L 2938 2094 
Q 2938 2591 2744 2837 
Q 2550 3084 2163 3084 
Q 1697 3084 1428 2787 
Q 1159 2491 1159 1978 
L 1159 0 
L 581 0 
L 581 3500 
L 1159 3500 
L 1159 2956 
Q 1366 3272 1645 3428 
Q 1925 3584 2291 3584 
Q 2894 3584 3203 3211 
Q 3513 2838 3513 2113 
z
" transform="scale(0.015625)"/>
      </defs>
      <use xlink:href="#DejaVuSans-50"/>
      <use xlink:href="#DejaVuSans-72" x="58.552734"/>
      <use xlink:href="#DejaVuSans-65" x="97.416016"/>
      <use xlink:href="#DejaVuSans-63" x="158.939453"/>
      <use xlink:href="#DejaVuSans-69" x="213.919922"/>
      <use xlink:href="#DejaVuSans-73" x="241.703125"/>
      <use xlink:href="#DejaVuSans-69" x="293.802734"/>
      <use xlink:href="#DejaVuSans-6f" x="321.585938"/>
      <use xlink:href="#DejaVuSans-6e" x="382.767578"/>
     </g>
    </g>
    <g id="line2d_15">
     <path d="M 81.9115 291.73941 
L 99.5115 291.73941 
L 117.1115 291.73941 
" style="fill: none; stroke-dasharray: 7.4,3.2; stroke-dashoffset: 0; stroke: #377eb8; stroke-width: 2"/>
    </g>
    <g id="text_14">
     <!-- Recall -->
     <g transform="translate(131.1915 297.89941) scale(0.176 -0.176)">
      <defs>
       <path id="DejaVuSans-52" d="M 2841 2188 
Q 3044 2119 3236 1894 
Q 3428 1669 3622 1275 
L 4263 0 
L 3584 0 
L 2988 1197 
Q 2756 1666 2539 1819 
Q 2322 1972 1947 1972 
L 1259 1972 
L 1259 0 
L 628 0 
L 628 4666 
L 2053 4666 
Q 2853 4666 3247 4331 
Q 3641 3997 3641 3322 
Q 3641 2881 3436 2590 
Q 3231 2300 2841 2188 
z
M 1259 4147 
L 1259 2491 
L 2053 2491 
Q 2509 2491 2742 2702 
Q 2975 2913 2975 3322 
Q 2975 3731 2742 3939 
Q 2509 4147 2053 4147 
L 1259 4147 
z
" transform="scale(0.015625)"/>
       <path id="DejaVuSans-6c" d="M 603 4863 
L 1178 4863 
L 1178 0 
L 603 0 
L 603 4863 
z
" transform="scale(0.015625)"/>
      </defs>
      <use xlink:href="#DejaVuSans-52"/>
      <use xlink:href="#DejaVuSans-65" x="64.982422"/>
      <use xlink:href="#DejaVuSans-63" x="126.505859"/>
      <use xlink:href="#DejaVuSans-61" x="181.486328"/>
      <use xlink:href="#DejaVuSans-6c" x="242.765625"/>
      <use xlink:href="#DejaVuSans-6c" x="270.548828"/>
     </g>
    </g>
    <g id="line2d_16">
     <path d="M 81.9115 317.57291 
L 99.5115 317.57291 
L 117.1115 317.57291 
" style="fill: none; stroke: #984ea3; stroke-width: 3; stroke-linecap: square"/>
    </g>
    <g id="text_15">
     <!-- F1 -->
     <g transform="translate(131.1915 323.73291) scale(0.176 -0.176)">
      <defs>
       <path id="DejaVuSans-46" d="M 628 4666 
L 3309 4666 
L 3309 4134 
L 1259 4134 
L 1259 2759 
L 3109 2759 
L 3109 2228 
L 1259 2228 
L 1259 0 
L 628 0 
L 628 4666 
z
" transform="scale(0.015625)"/>
      </defs>
      <use xlink:href="#DejaVuSans-46"/>
      <use xlink:href="#DejaVuSans-31" x="57.519531"/>
     </g>
    </g>
   </g>
  </g>
 </g>
 <defs>
  <clipPath id="p4a69eefa08">
   <rect x="66.0715" y="10.59316" width="334.8" height="332.64"/>
  </clipPath>
 </defs>
</svg>
