<?xml version="1.0" encoding="utf-8" standalone="no"?>
<!DOCTYPE svg PUBLIC "-//W3C//DTD SVG 1.1//EN"
  "http://www.w3.org/Graphics/SVG/1.1/DTD/svg11.dtd">
<svg xmlns:xlink="http://www.w3.org/1999/xlink" width="408.0715pt" height="398.34866pt" viewBox="0 0 408.0715 398.34866" xmlns="http://www.w3.org/2000/svg" version="1.1">
 <metadata>
  <rdf:RDF xmlns:dc="http://purl.org/dc/elements/1.1/" xmlns:cc="http://creativecommons.org/ns#" xmlns:rdf="http://www.w3.org/1999/02/22-rdf-syntax-ns#">
   <cc:Work>
    <dc:type rdf:resource="http://purl.org/dc/dcmitype/StillImage"/>
    <dc:date>2024-09-30T11:38:59.081959</dc:date>
    <dc:format>image/svg+xml</dc:format>
    <dc:creator>
     <cc:Agent>
      <dc:title>Matplotlib v3.8.0, https://matplotlib.org/</dc:title>
     </cc:Agent>
    </dc:creator>
   </cc:Work>
  </rdf:RDF>
 </metadata>
 <defs>
  <style type="text/css">*{stroke-linejoin: round; stroke-linecap: butt}</style>
 </defs>
 <g id="figure_1">
  <g id="patch_1">
   <path d="M 0 398.34866 
L 408.0715 398.34866 
L 408.0715 0 
L 0 0 
z
" style="fill: #ffffff"/>
  </g>
  <g id="axes_1">
   <g id="patch_2">
    <path d="M 66.0715 343.23316 
L 400.8715 343.23316 
L 400.8715 10.59316 
L 66.0715 10.59316 
z
" style="fill: #ffffff"/>
   </g>
   <g id="PolyCollection_1"/>
   <g id="PolyCollection_2"/>
   <g id="PolyCollection_3"/>
   <g id="PolyCollection_4">
    <defs>
     <path id="ma09f40d195" d="M 66.642831 -387.7555 
L 66.642831 -55.1155 
L 69.499486 -55.1155 
L 69.499486 -387.7555 
L 69.499486 -387.7555 
L 66.642831 -387.7555 
z
"/>
    </defs>
    <g clip-path="url(#p90ef4e1ae6)">
     <use xlink:href="#ma09f40d195" x="0" y="398.34866" style="fill: #1b9e77; fill-opacity: 0.2"/>
    </g>
   </g>
   <g id="PolyCollection_5">
    <defs>
     <path id="md614578411" d="M 69.499486 -387.7555 
L 69.499486 -55.1155 
L 72.356142 -55.1155 
L 72.356142 -387.7555 
L 72.356142 -387.7555 
L 69.499486 -387.7555 
z
"/>
    </defs>
    <g clip-path="url(#p90ef4e1ae6)">
     <use xlink:href="#md614578411" x="0" y="398.34866" style="fill: #1b9e77; fill-opacity: 0.2"/>
    </g>
   </g>
   <g id="PolyCollection_6">
    <defs>
     <path id="m71bfe00683" d="M 72.356142 -387.7555 
L 72.356142 -55.1155 
L 75.212797 -55.1155 
L 75.212797 -387.7555 
L 75.212797 -387.7555 
L 72.356142 -387.7555 
z
"/>
    </defs>
    <g clip-path="url(#p90ef4e1ae6)">
     <use xlink:href="#m71bfe00683" x="0" y="398.34866" style="fill: #1b9e77; fill-opacity: 0.2"/>
    </g>
   </g>
   <g id="PolyCollection_7">
    <defs>
     <path id="ma108d2032f" d="M 75.212797 -387.7555 
L 75.212797 -55.1155 
L 78.069452 -55.1155 
L 78.069452 -387.7555 
L 78.069452 -387.7555 
L 75.212797 -387.7555 
z
"/>
    </defs>
    <g clip-path="url(#p90ef4e1ae6)">
     <use xlink:href="#ma108d2032f" x="0" y="398.34866" style="fill: #1b9e77; fill-opacity: 0.2"/>
    </g>
   </g>
   <g id="PolyCollection_8">
    <defs>
     <path id="m8c801d2246" d="M 78.069452 -387.7555 
L 78.069452 -55.1155 
L 80.926108 -55.1155 
L 80.926108 -387.7555 
L 80.926108 -387.7555 
L 78.069452 -387.7555 
z
"/>
    </defs>
    <g clip-path="url(#p90ef4e1ae6)">
     <use xlink:href="#m8c801d2246" x="0" y="398.34866" style="fill: #1b9e77; fill-opacity: 0.2"/>
    </g>
   </g>
   <g id="PolyCollection_9">
    <defs>
     <path id="m707bd4e77c" d="M 80.926108 -387.7555 
L 80.926108 -55.1155 
L 83.782763 -55.1155 
L 83.782763 -387.7555 
L 83.782763 -387.7555 
L 80.926108 -387.7555 
z
"/>
    </defs>
    <g clip-path="url(#p90ef4e1ae6)">
     <use xlink:href="#m707bd4e77c" x="0" y="398.34866" style="fill: #d95f02; fill-opacity: 0.2"/>
    </g>
   </g>
   <g id="PolyCollection_10">
    <defs>
     <path id="m27949aadf1" d="M 83.782763 -387.7555 
L 83.782763 -55.1155 
L 86.639418 -55.1155 
L 86.639418 -387.7555 
L 86.639418 -387.7555 
L 83.782763 -387.7555 
z
"/>
    </defs>
    <g clip-path="url(#p90ef4e1ae6)">
     <use xlink:href="#m27949aadf1" x="0" y="398.34866" style="fill: #d95f02; fill-opacity: 0.2"/>
    </g>
   </g>
   <g id="PolyCollection_11">
    <defs>
     <path id="m80a99464f8" d="M 86.639418 -387.7555 
L 86.639418 -55.1155 
L 89.496073 -55.1155 
L 89.496073 -387.7555 
L 89.496073 -387.7555 
L 86.639418 -387.7555 
z
"/>
    </defs>
    <g clip-path="url(#p90ef4e1ae6)">
     <use xlink:href="#m80a99464f8" x="0" y="398.34866" style="fill: #d95f02; fill-opacity: 0.2"/>
    </g>
   </g>
   <g id="PolyCollection_12">
    <defs>
     <path id="m430f2435e3" d="M 89.496073 -387.7555 
L 89.496073 -55.1155 
L 92.352729 -55.1155 
L 92.352729 -387.7555 
L 92.352729 -387.7555 
L 89.496073 -387.7555 
z
"/>
    </defs>
    <g clip-path="url(#p90ef4e1ae6)">
     <use xlink:href="#m430f2435e3" x="0" y="398.34866" style="fill: #1b9e77; fill-opacity: 0.2"/>
    </g>
   </g>
   <g id="PolyCollection_13">
    <defs>
     <path id="mc4d1fe976c" d="M 92.352729 -387.7555 
L 92.352729 -55.1155 
L 95.209384 -55.1155 
L 95.209384 -387.7555 
L 95.209384 -387.7555 
L 92.352729 -387.7555 
z
"/>
    </defs>
    <g clip-path="url(#p90ef4e1ae6)">
     <use xlink:href="#mc4d1fe976c" x="0" y="398.34866" style="fill: #d95f02; fill-opacity: 0.2"/>
    </g>
   </g>
   <g id="PolyCollection_14">
    <defs>
     <path id="m874ade04c3" d="M 95.209384 -387.7555 
L 95.209384 -55.1155 
L 98.066039 -55.1155 
L 98.066039 -387.7555 
L 98.066039 -387.7555 
L 95.209384 -387.7555 
z
"/>
    </defs>
    <g clip-path="url(#p90ef4e1ae6)">
     <use xlink:href="#m874ade04c3" x="0" y="398.34866" style="fill: #d95f02; fill-opacity: 0.2"/>
    </g>
   </g>
   <g id="PolyCollection_15">
    <defs>
     <path id="mf3a603ef4a" d="M 98.066039 -387.7555 
L 98.066039 -55.1155 
L 100.922695 -55.1155 
L 100.922695 -387.7555 
L 100.922695 -387.7555 
L 98.066039 -387.7555 
z
"/>
    </defs>
    <g clip-path="url(#p90ef4e1ae6)">
     <use xlink:href="#mf3a603ef4a" x="0" y="398.34866" style="fill: #d95f02; fill-opacity: 0.2"/>
    </g>
   </g>
   <g id="PolyCollection_16">
    <defs>
     <path id="md7add448ee" d="M 100.922695 -387.7555 
L 100.922695 -55.1155 
L 103.77935 -55.1155 
L 103.77935 -387.7555 
L 103.77935 -387.7555 
L 100.922695 -387.7555 
z
"/>
    </defs>
    <g clip-path="url(#p90ef4e1ae6)">
     <use xlink:href="#md7add448ee" x="0" y="398.34866" style="fill: #d95f02; fill-opacity: 0.2"/>
    </g>
   </g>
   <g id="PolyCollection_17">
    <defs>
     <path id="m1c96ae8c83" d="M 103.77935 -387.7555 
L 103.77935 -55.1155 
L 106.636005 -55.1155 
L 106.636005 -387.7555 
L 106.636005 -387.7555 
L 103.77935 -387.7555 
z
"/>
    </defs>
    <g clip-path="url(#p90ef4e1ae6)">
     <use xlink:href="#m1c96ae8c83" x="0" y="398.34866" style="fill: #d95f02; fill-opacity: 0.2"/>
    </g>
   </g>
   <g id="PolyCollection_18">
    <defs>
     <path id="m66935025aa" d="M 106.636005 -387.7555 
L 106.636005 -55.1155 
L 109.49266 -55.1155 
L 109.49266 -387.7555 
L 109.49266 -387.7555 
L 106.636005 -387.7555 
z
"/>
    </defs>
    <g clip-path="url(#p90ef4e1ae6)">
     <use xlink:href="#m66935025aa" x="0" y="398.34866" style="fill: #1b9e77; fill-opacity: 0.2"/>
    </g>
   </g>
   <g id="PolyCollection_19">
    <defs>
     <path id="m40c48a2c2a" d="M 109.49266 -387.7555 
L 109.49266 -55.1155 
L 112.349316 -55.1155 
L 112.349316 -387.7555 
L 112.349316 -387.7555 
L 109.49266 -387.7555 
z
"/>
    </defs>
    <g clip-path="url(#p90ef4e1ae6)">
     <use xlink:href="#m40c48a2c2a" x="0" y="398.34866" style="fill: #d95f02; fill-opacity: 0.2"/>
    </g>
   </g>
   <g id="PolyCollection_20">
    <defs>
     <path id="m819fa5075e" d="M 112.349316 -387.7555 
L 112.349316 -55.1155 
L 115.205971 -55.1155 
L 115.205971 -387.7555 
L 115.205971 -387.7555 
L 112.349316 -387.7555 
z
"/>
    </defs>
    <g clip-path="url(#p90ef4e1ae6)">
     <use xlink:href="#m819fa5075e" x="0" y="398.34866" style="fill: #d95f02; fill-opacity: 0.2"/>
    </g>
   </g>
   <g id="PolyCollection_21">
    <defs>
     <path id="m4ebeb77c8b" d="M 115.205971 -387.7555 
L 115.205971 -55.1155 
L 118.062626 -55.1155 
L 118.062626 -387.7555 
L 118.062626 -387.7555 
L 115.205971 -387.7555 
z
"/>
    </defs>
    <g clip-path="url(#p90ef4e1ae6)">
     <use xlink:href="#m4ebeb77c8b" x="0" y="398.34866" style="fill: #1b9e77; fill-opacity: 0.2"/>
    </g>
   </g>
   <g id="PolyCollection_22">
    <defs>
     <path id="m8a8506ee98" d="M 118.062626 -387.7555 
L 118.062626 -55.1155 
L 120.919282 -55.1155 
L 120.919282 -387.7555 
L 120.919282 -387.7555 
L 118.062626 -387.7555 
z
"/>
    </defs>
    <g clip-path="url(#p90ef4e1ae6)">
     <use xlink:href="#m8a8506ee98" x="0" y="398.34866" style="fill: #d95f02; fill-opacity: 0.2"/>
    </g>
   </g>
   <g id="PolyCollection_23">
    <defs>
     <path id="m079d02b584" d="M 120.919282 -387.7555 
L 120.919282 -55.1155 
L 123.775937 -55.1155 
L 123.775937 -387.7555 
L 123.775937 -387.7555 
L 120.919282 -387.7555 
z
"/>
    </defs>
    <g clip-path="url(#p90ef4e1ae6)">
     <use xlink:href="#m079d02b584" x="0" y="398.34866" style="fill: #d95f02; fill-opacity: 0.2"/>
    </g>
   </g>
   <g id="PolyCollection_24">
    <defs>
     <path id="m02a10f5d34" d="M 123.775937 -387.7555 
L 123.775937 -55.1155 
L 126.632592 -55.1155 
L 126.632592 -387.7555 
L 126.632592 -387.7555 
L 123.775937 -387.7555 
z
"/>
    </defs>
    <g clip-path="url(#p90ef4e1ae6)">
     <use xlink:href="#m02a10f5d34" x="0" y="398.34866" style="fill: #d95f02; fill-opacity: 0.2"/>
    </g>
   </g>
   <g id="PolyCollection_25">
    <defs>
     <path id="md538f162d1" d="M 126.632592 -387.7555 
L 126.632592 -55.1155 
L 129.489247 -55.1155 
L 129.489247 -387.7555 
L 129.489247 -387.7555 
L 126.632592 -387.7555 
z
"/>
    </defs>
    <g clip-path="url(#p90ef4e1ae6)">
     <use xlink:href="#md538f162d1" x="0" y="398.34866" style="fill: #d95f02; fill-opacity: 0.2"/>
    </g>
   </g>
   <g id="PolyCollection_26">
    <defs>
     <path id="md990507570" d="M 129.489247 -387.7555 
L 129.489247 -55.1155 
L 132.345903 -55.1155 
L 132.345903 -387.7555 
L 132.345903 -387.7555 
L 129.489247 -387.7555 
z
"/>
    </defs>
    <g clip-path="url(#p90ef4e1ae6)">
     <use xlink:href="#md990507570" x="0" y="398.34866" style="fill: #d95f02; fill-opacity: 0.2"/>
    </g>
   </g>
   <g id="PolyCollection_27">
    <defs>
     <path id="mdf7fedfb9b" d="M 132.345903 -387.7555 
L 132.345903 -55.1155 
L 135.202558 -55.1155 
L 135.202558 -387.7555 
L 135.202558 -387.7555 
L 132.345903 -387.7555 
z
"/>
    </defs>
    <g clip-path="url(#p90ef4e1ae6)">
     <use xlink:href="#mdf7fedfb9b" x="0" y="398.34866" style="fill: #d95f02; fill-opacity: 0.2"/>
    </g>
   </g>
   <g id="PolyCollection_28">
    <defs>
     <path id="m7b7f3a514d" d="M 135.202558 -387.7555 
L 135.202558 -55.1155 
L 138.059213 -55.1155 
L 138.059213 -387.7555 
L 138.059213 -387.7555 
L 135.202558 -387.7555 
z
"/>
    </defs>
    <g clip-path="url(#p90ef4e1ae6)">
     <use xlink:href="#m7b7f3a514d" x="0" y="398.34866" style="fill: #d95f02; fill-opacity: 0.2"/>
    </g>
   </g>
   <g id="PolyCollection_29">
    <defs>
     <path id="m8285a5676c" d="M 138.059213 -387.7555 
L 138.059213 -55.1155 
L 140.915869 -55.1155 
L 140.915869 -387.7555 
L 140.915869 -387.7555 
L 138.059213 -387.7555 
z
"/>
    </defs>
    <g clip-path="url(#p90ef4e1ae6)">
     <use xlink:href="#m8285a5676c" x="0" y="398.34866" style="fill: #d95f02; fill-opacity: 0.2"/>
    </g>
   </g>
   <g id="PolyCollection_30">
    <defs>
     <path id="md0296b6186" d="M 140.915869 -387.7555 
L 140.915869 -55.1155 
L 143.772524 -55.1155 
L 143.772524 -387.7555 
L 143.772524 -387.7555 
L 140.915869 -387.7555 
z
"/>
    </defs>
    <g clip-path="url(#p90ef4e1ae6)">
     <use xlink:href="#md0296b6186" x="0" y="398.34866" style="fill: #d95f02; fill-opacity: 0.2"/>
    </g>
   </g>
   <g id="PolyCollection_31">
    <defs>
     <path id="m569eceafa0" d="M 143.772524 -387.7555 
L 143.772524 -55.1155 
L 146.629179 -55.1155 
L 146.629179 -387.7555 
L 146.629179 -387.7555 
L 143.772524 -387.7555 
z
"/>
    </defs>
    <g clip-path="url(#p90ef4e1ae6)">
     <use xlink:href="#m569eceafa0" x="0" y="398.34866" style="fill: #d95f02; fill-opacity: 0.2"/>
    </g>
   </g>
   <g id="PolyCollection_32">
    <defs>
     <path id="m8d50ff85a8" d="M 146.629179 -387.7555 
L 146.629179 -55.1155 
L 149.485834 -55.1155 
L 149.485834 -387.7555 
L 149.485834 -387.7555 
L 146.629179 -387.7555 
z
"/>
    </defs>
    <g clip-path="url(#p90ef4e1ae6)">
     <use xlink:href="#m8d50ff85a8" x="0" y="398.34866" style="fill: #d95f02; fill-opacity: 0.2"/>
    </g>
   </g>
   <g id="PolyCollection_33">
    <defs>
     <path id="mc2cebff509" d="M 149.485834 -387.7555 
L 149.485834 -55.1155 
L 152.34249 -55.1155 
L 152.34249 -387.7555 
L 152.34249 -387.7555 
L 149.485834 -387.7555 
z
"/>
    </defs>
    <g clip-path="url(#p90ef4e1ae6)">
     <use xlink:href="#mc2cebff509" x="0" y="398.34866" style="fill: #d95f02; fill-opacity: 0.2"/>
    </g>
   </g>
   <g id="PolyCollection_34">
    <defs>
     <path id="m72283830ff" d="M 152.34249 -387.7555 
L 152.34249 -55.1155 
L 155.199145 -55.1155 
L 155.199145 -387.7555 
L 155.199145 -387.7555 
L 152.34249 -387.7555 
z
"/>
    </defs>
    <g clip-path="url(#p90ef4e1ae6)">
     <use xlink:href="#m72283830ff" x="0" y="398.34866" style="fill: #d95f02; fill-opacity: 0.2"/>
    </g>
   </g>
   <g id="PolyCollection_35">
    <defs>
     <path id="m0816c9ee71" d="M 155.199145 -387.7555 
L 155.199145 -55.1155 
L 158.0558 -55.1155 
L 158.0558 -387.7555 
L 158.0558 -387.7555 
L 155.199145 -387.7555 
z
"/>
    </defs>
    <g clip-path="url(#p90ef4e1ae6)">
     <use xlink:href="#m0816c9ee71" x="0" y="398.34866" style="fill: #d95f02; fill-opacity: 0.2"/>
    </g>
   </g>
   <g id="PolyCollection_36">
    <defs>
     <path id="m9509f6457d" d="M 158.0558 -387.7555 
L 158.0558 -55.1155 
L 160.912456 -55.1155 
L 160.912456 -387.7555 
L 160.912456 -387.7555 
L 158.0558 -387.7555 
z
"/>
    </defs>
    <g clip-path="url(#p90ef4e1ae6)">
     <use xlink:href="#m9509f6457d" x="0" y="398.34866" style="fill: #1b9e77; fill-opacity: 0.2"/>
    </g>
   </g>
   <g id="PolyCollection_37">
    <defs>
     <path id="mcff4702603" d="M 160.912456 -387.7555 
L 160.912456 -55.1155 
L 163.769111 -55.1155 
L 163.769111 -387.7555 
L 163.769111 -387.7555 
L 160.912456 -387.7555 
z
"/>
    </defs>
    <g clip-path="url(#p90ef4e1ae6)">
     <use xlink:href="#mcff4702603" x="0" y="398.34866" style="fill: #d95f02; fill-opacity: 0.2"/>
    </g>
   </g>
   <g id="PolyCollection_38">
    <defs>
     <path id="m31279339a4" d="M 163.769111 -387.7555 
L 163.769111 -55.1155 
L 166.625766 -55.1155 
L 166.625766 -387.7555 
L 166.625766 -387.7555 
L 163.769111 -387.7555 
z
"/>
    </defs>
    <g clip-path="url(#p90ef4e1ae6)">
     <use xlink:href="#m31279339a4" x="0" y="398.34866" style="fill: #d95f02; fill-opacity: 0.2"/>
    </g>
   </g>
   <g id="PolyCollection_39">
    <defs>
     <path id="m32236f8c53" d="M 166.625766 -387.7555 
L 166.625766 -55.1155 
L 169.482422 -55.1155 
L 169.482422 -387.7555 
L 169.482422 -387.7555 
L 166.625766 -387.7555 
z
"/>
    </defs>
    <g clip-path="url(#p90ef4e1ae6)">
     <use xlink:href="#m32236f8c53" x="0" y="398.34866" style="fill: #d95f02; fill-opacity: 0.2"/>
    </g>
   </g>
   <g id="PolyCollection_40">
    <defs>
     <path id="m8ee64cc652" d="M 169.482422 -387.7555 
L 169.482422 -55.1155 
L 172.339077 -55.1155 
L 172.339077 -387.7555 
L 172.339077 -387.7555 
L 169.482422 -387.7555 
z
"/>
    </defs>
    <g clip-path="url(#p90ef4e1ae6)">
     <use xlink:href="#m8ee64cc652" x="0" y="398.34866" style="fill: #d95f02; fill-opacity: 0.2"/>
    </g>
   </g>
   <g id="PolyCollection_41">
    <defs>
     <path id="mecc76c1726" d="M 172.339077 -387.7555 
L 172.339077 -55.1155 
L 175.195732 -55.1155 
L 175.195732 -387.7555 
L 175.195732 -387.7555 
L 172.339077 -387.7555 
z
"/>
    </defs>
    <g clip-path="url(#p90ef4e1ae6)">
     <use xlink:href="#mecc76c1726" x="0" y="398.34866" style="fill: #d95f02; fill-opacity: 0.2"/>
    </g>
   </g>
   <g id="PolyCollection_42">
    <defs>
     <path id="m86b60a9352" d="M 175.195732 -387.7555 
L 175.195732 -55.1155 
L 178.052387 -55.1155 
L 178.052387 -387.7555 
L 178.052387 -387.7555 
L 175.195732 -387.7555 
z
"/>
    </defs>
    <g clip-path="url(#p90ef4e1ae6)">
     <use xlink:href="#m86b60a9352" x="0" y="398.34866" style="fill: #d95f02; fill-opacity: 0.2"/>
    </g>
   </g>
   <g id="PolyCollection_43">
    <defs>
     <path id="m4fead07e3f" d="M 178.052387 -387.7555 
L 178.052387 -55.1155 
L 180.909043 -55.1155 
L 180.909043 -387.7555 
L 180.909043 -387.7555 
L 178.052387 -387.7555 
z
"/>
    </defs>
    <g clip-path="url(#p90ef4e1ae6)">
     <use xlink:href="#m4fead07e3f" x="0" y="398.34866" style="fill: #d95f02; fill-opacity: 0.2"/>
    </g>
   </g>
   <g id="PolyCollection_44">
    <defs>
     <path id="m5b26bd04ec" d="M 180.909043 -387.7555 
L 180.909043 -55.1155 
L 183.765698 -55.1155 
L 183.765698 -387.7555 
L 183.765698 -387.7555 
L 180.909043 -387.7555 
z
"/>
    </defs>
    <g clip-path="url(#p90ef4e1ae6)">
     <use xlink:href="#m5b26bd04ec" x="0" y="398.34866" style="fill: #d95f02; fill-opacity: 0.2"/>
    </g>
   </g>
   <g id="PolyCollection_45">
    <defs>
     <path id="maa36a6b088" d="M 183.765698 -387.7555 
L 183.765698 -55.1155 
L 186.622353 -55.1155 
L 186.622353 -387.7555 
L 186.622353 -387.7555 
L 183.765698 -387.7555 
z
"/>
    </defs>
    <g clip-path="url(#p90ef4e1ae6)">
     <use xlink:href="#maa36a6b088" x="0" y="398.34866" style="fill: #d95f02; fill-opacity: 0.2"/>
    </g>
   </g>
   <g id="PolyCollection_46">
    <defs>
     <path id="m614026c007" d="M 186.622353 -387.7555 
L 186.622353 -55.1155 
L 189.479009 -55.1155 
L 189.479009 -387.7555 
L 189.479009 -387.7555 
L 186.622353 -387.7555 
z
"/>
    </defs>
    <g clip-path="url(#p90ef4e1ae6)">
     <use xlink:href="#m614026c007" x="0" y="398.34866" style="fill: #d95f02; fill-opacity: 0.2"/>
    </g>
   </g>
   <g id="PolyCollection_47">
    <defs>
     <path id="m93b0d8766d" d="M 189.479009 -387.7555 
L 189.479009 -55.1155 
L 192.335664 -55.1155 
L 192.335664 -387.7555 
L 192.335664 -387.7555 
L 189.479009 -387.7555 
z
"/>
    </defs>
    <g clip-path="url(#p90ef4e1ae6)">
     <use xlink:href="#m93b0d8766d" x="0" y="398.34866" style="fill: #d95f02; fill-opacity: 0.2"/>
    </g>
   </g>
   <g id="PolyCollection_48">
    <defs>
     <path id="m7580a09365" d="M 192.335664 -387.7555 
L 192.335664 -55.1155 
L 195.192319 -55.1155 
L 195.192319 -387.7555 
L 195.192319 -387.7555 
L 192.335664 -387.7555 
z
"/>
    </defs>
    <g clip-path="url(#p90ef4e1ae6)">
     <use xlink:href="#m7580a09365" x="0" y="398.34866" style="fill: #d95f02; fill-opacity: 0.2"/>
    </g>
   </g>
   <g id="PolyCollection_49">
    <defs>
     <path id="m4641bcd332" d="M 195.192319 -387.7555 
L 195.192319 -55.1155 
L 198.048974 -55.1155 
L 198.048974 -387.7555 
L 198.048974 -387.7555 
L 195.192319 -387.7555 
z
"/>
    </defs>
    <g clip-path="url(#p90ef4e1ae6)">
     <use xlink:href="#m4641bcd332" x="0" y="398.34866" style="fill: #d95f02; fill-opacity: 0.2"/>
    </g>
   </g>
   <g id="PolyCollection_50">
    <defs>
     <path id="m59841619dd" d="M 198.048974 -387.7555 
L 198.048974 -55.1155 
L 200.90563 -55.1155 
L 200.90563 -387.7555 
L 200.90563 -387.7555 
L 198.048974 -387.7555 
z
"/>
    </defs>
    <g clip-path="url(#p90ef4e1ae6)">
     <use xlink:href="#m59841619dd" x="0" y="398.34866" style="fill: #d95f02; fill-opacity: 0.2"/>
    </g>
   </g>
   <g id="PolyCollection_51">
    <defs>
     <path id="m5fb1a04fc9" d="M 200.90563 -387.7555 
L 200.90563 -55.1155 
L 203.762285 -55.1155 
L 203.762285 -387.7555 
L 203.762285 -387.7555 
L 200.90563 -387.7555 
z
"/>
    </defs>
    <g clip-path="url(#p90ef4e1ae6)">
     <use xlink:href="#m5fb1a04fc9" x="0" y="398.34866" style="fill: #d95f02; fill-opacity: 0.2"/>
    </g>
   </g>
   <g id="PolyCollection_52">
    <defs>
     <path id="mda6094db60" d="M 203.762285 -387.7555 
L 203.762285 -55.1155 
L 206.61894 -55.1155 
L 206.61894 -387.7555 
L 206.61894 -387.7555 
L 203.762285 -387.7555 
z
"/>
    </defs>
    <g clip-path="url(#p90ef4e1ae6)">
     <use xlink:href="#mda6094db60" x="0" y="398.34866" style="fill: #d95f02; fill-opacity: 0.2"/>
    </g>
   </g>
   <g id="PolyCollection_53">
    <defs>
     <path id="m5c05dc1813" d="M 206.61894 -387.7555 
L 206.61894 -55.1155 
L 209.475596 -55.1155 
L 209.475596 -387.7555 
L 209.475596 -387.7555 
L 206.61894 -387.7555 
z
"/>
    </defs>
    <g clip-path="url(#p90ef4e1ae6)">
     <use xlink:href="#m5c05dc1813" x="0" y="398.34866" style="fill: #d95f02; fill-opacity: 0.2"/>
    </g>
   </g>
   <g id="PolyCollection_54">
    <defs>
     <path id="mceb9c54bb5" d="M 209.475596 -387.7555 
L 209.475596 -55.1155 
L 212.332251 -55.1155 
L 212.332251 -387.7555 
L 212.332251 -387.7555 
L 209.475596 -387.7555 
z
"/>
    </defs>
    <g clip-path="url(#p90ef4e1ae6)">
     <use xlink:href="#mceb9c54bb5" x="0" y="398.34866" style="fill: #d95f02; fill-opacity: 0.2"/>
    </g>
   </g>
   <g id="PolyCollection_55">
    <defs>
     <path id="m62d4aaf20e" d="M 212.332251 -387.7555 
L 212.332251 -55.1155 
L 215.188906 -55.1155 
L 215.188906 -387.7555 
L 215.188906 -387.7555 
L 212.332251 -387.7555 
z
"/>
    </defs>
    <g clip-path="url(#p90ef4e1ae6)">
     <use xlink:href="#m62d4aaf20e" x="0" y="398.34866" style="fill: #d95f02; fill-opacity: 0.2"/>
    </g>
   </g>
   <g id="PolyCollection_56">
    <defs>
     <path id="me9bb3e5391" d="M 215.188906 -387.7555 
L 215.188906 -55.1155 
L 218.045561 -55.1155 
L 218.045561 -387.7555 
L 218.045561 -387.7555 
L 215.188906 -387.7555 
z
"/>
    </defs>
    <g clip-path="url(#p90ef4e1ae6)">
     <use xlink:href="#me9bb3e5391" x="0" y="398.34866" style="fill: #d95f02; fill-opacity: 0.2"/>
    </g>
   </g>
   <g id="PolyCollection_57">
    <defs>
     <path id="m3b14b4889b" d="M 218.045561 -387.7555 
L 218.045561 -55.1155 
L 220.902217 -55.1155 
L 220.902217 -387.7555 
L 220.902217 -387.7555 
L 218.045561 -387.7555 
z
"/>
    </defs>
    <g clip-path="url(#p90ef4e1ae6)">
     <use xlink:href="#m3b14b4889b" x="0" y="398.34866" style="fill: #d95f02; fill-opacity: 0.2"/>
    </g>
   </g>
   <g id="PolyCollection_58">
    <defs>
     <path id="m5a6bf8f803" d="M 220.902217 -387.7555 
L 220.902217 -55.1155 
L 223.758872 -55.1155 
L 223.758872 -387.7555 
L 223.758872 -387.7555 
L 220.902217 -387.7555 
z
"/>
    </defs>
    <g clip-path="url(#p90ef4e1ae6)">
     <use xlink:href="#m5a6bf8f803" x="0" y="398.34866" style="fill: #d95f02; fill-opacity: 0.2"/>
    </g>
   </g>
   <g id="PolyCollection_59">
    <defs>
     <path id="m39ba390f2c" d="M 223.758872 -387.7555 
L 223.758872 -55.1155 
L 226.615527 -55.1155 
L 226.615527 -387.7555 
L 226.615527 -387.7555 
L 223.758872 -387.7555 
z
"/>
    </defs>
    <g clip-path="url(#p90ef4e1ae6)">
     <use xlink:href="#m39ba390f2c" x="0" y="398.34866" style="fill: #d95f02; fill-opacity: 0.2"/>
    </g>
   </g>
   <g id="PolyCollection_60">
    <defs>
     <path id="m9496e8c5ed" d="M 226.615527 -387.7555 
L 226.615527 -55.1155 
L 229.472183 -55.1155 
L 229.472183 -387.7555 
L 229.472183 -387.7555 
L 226.615527 -387.7555 
z
"/>
    </defs>
    <g clip-path="url(#p90ef4e1ae6)">
     <use xlink:href="#m9496e8c5ed" x="0" y="398.34866" style="fill: #1b9e77; fill-opacity: 0.2"/>
    </g>
   </g>
   <g id="PolyCollection_61">
    <defs>
     <path id="mbe245c17ce" d="M 229.472183 -387.7555 
L 229.472183 -55.1155 
L 232.328838 -55.1155 
L 232.328838 -387.7555 
L 232.328838 -387.7555 
L 229.472183 -387.7555 
z
"/>
    </defs>
    <g clip-path="url(#p90ef4e1ae6)">
     <use xlink:href="#mbe245c17ce" x="0" y="398.34866" style="fill: #d95f02; fill-opacity: 0.2"/>
    </g>
   </g>
   <g id="PolyCollection_62">
    <defs>
     <path id="mcae8d0c25d" d="M 232.328838 -387.7555 
L 232.328838 -55.1155 
L 235.185493 -55.1155 
L 235.185493 -387.7555 
L 235.185493 -387.7555 
L 232.328838 -387.7555 
z
"/>
    </defs>
    <g clip-path="url(#p90ef4e1ae6)">
     <use xlink:href="#mcae8d0c25d" x="0" y="398.34866" style="fill: #d95f02; fill-opacity: 0.2"/>
    </g>
   </g>
   <g id="PolyCollection_63">
    <defs>
     <path id="mf2b17bd142" d="M 235.185493 -387.7555 
L 235.185493 -55.1155 
L 238.042148 -55.1155 
L 238.042148 -387.7555 
L 238.042148 -387.7555 
L 235.185493 -387.7555 
z
"/>
    </defs>
    <g clip-path="url(#p90ef4e1ae6)">
     <use xlink:href="#mf2b17bd142" x="0" y="398.34866" style="fill: #1b9e77; fill-opacity: 0.2"/>
    </g>
   </g>
   <g id="PolyCollection_64">
    <defs>
     <path id="mdaa6af33de" d="M 238.042148 -387.7555 
L 238.042148 -55.1155 
L 240.898804 -55.1155 
L 240.898804 -387.7555 
L 240.898804 -387.7555 
L 238.042148 -387.7555 
z
"/>
    </defs>
    <g clip-path="url(#p90ef4e1ae6)">
     <use xlink:href="#mdaa6af33de" x="0" y="398.34866" style="fill: #d95f02; fill-opacity: 0.2"/>
    </g>
   </g>
   <g id="PolyCollection_65">
    <defs>
     <path id="m9ef8666f08" d="M 240.898804 -387.7555 
L 240.898804 -55.1155 
L 243.755459 -55.1155 
L 243.755459 -387.7555 
L 243.755459 -387.7555 
L 240.898804 -387.7555 
z
"/>
    </defs>
    <g clip-path="url(#p90ef4e1ae6)">
     <use xlink:href="#m9ef8666f08" x="0" y="398.34866" style="fill: #1b9e77; fill-opacity: 0.2"/>
    </g>
   </g>
   <g id="PolyCollection_66">
    <defs>
     <path id="m8c1dddc461" d="M 243.755459 -387.7555 
L 243.755459 -55.1155 
L 246.612114 -55.1155 
L 246.612114 -387.7555 
L 246.612114 -387.7555 
L 243.755459 -387.7555 
z
"/>
    </defs>
    <g clip-path="url(#p90ef4e1ae6)">
     <use xlink:href="#m8c1dddc461" x="0" y="398.34866" style="fill: #1b9e77; fill-opacity: 0.2"/>
    </g>
   </g>
   <g id="PolyCollection_67">
    <defs>
     <path id="ma0001e368e" d="M 246.612114 -387.7555 
L 246.612114 -55.1155 
L 249.46877 -55.1155 
L 249.46877 -387.7555 
L 249.46877 -387.7555 
L 246.612114 -387.7555 
z
"/>
    </defs>
    <g clip-path="url(#p90ef4e1ae6)">
     <use xlink:href="#ma0001e368e" x="0" y="398.34866" style="fill: #d95f02; fill-opacity: 0.2"/>
    </g>
   </g>
   <g id="PolyCollection_68">
    <defs>
     <path id="m121ddffd18" d="M 249.46877 -387.7555 
L 249.46877 -55.1155 
L 252.325425 -55.1155 
L 252.325425 -387.7555 
L 252.325425 -387.7555 
L 249.46877 -387.7555 
z
"/>
    </defs>
    <g clip-path="url(#p90ef4e1ae6)">
     <use xlink:href="#m121ddffd18" x="0" y="398.34866" style="fill: #d95f02; fill-opacity: 0.2"/>
    </g>
   </g>
   <g id="PolyCollection_69">
    <defs>
     <path id="m5f4c522d0c" d="M 252.325425 -387.7555 
L 252.325425 -55.1155 
L 255.18208 -55.1155 
L 255.18208 -387.7555 
L 255.18208 -387.7555 
L 252.325425 -387.7555 
z
"/>
    </defs>
    <g clip-path="url(#p90ef4e1ae6)">
     <use xlink:href="#m5f4c522d0c" x="0" y="398.34866" style="fill: #d95f02; fill-opacity: 0.2"/>
    </g>
   </g>
   <g id="PolyCollection_70">
    <defs>
     <path id="mf1ad2edf07" d="M 255.18208 -387.7555 
L 255.18208 -55.1155 
L 258.038735 -55.1155 
L 258.038735 -387.7555 
L 258.038735 -387.7555 
L 255.18208 -387.7555 
z
"/>
    </defs>
    <g clip-path="url(#p90ef4e1ae6)">
     <use xlink:href="#mf1ad2edf07" x="0" y="398.34866" style="fill: #d95f02; fill-opacity: 0.2"/>
    </g>
   </g>
   <g id="PolyCollection_71">
    <defs>
     <path id="mf44dcfafe5" d="M 258.038735 -387.7555 
L 258.038735 -55.1155 
L 260.895391 -55.1155 
L 260.895391 -387.7555 
L 260.895391 -387.7555 
L 258.038735 -387.7555 
z
"/>
    </defs>
    <g clip-path="url(#p90ef4e1ae6)">
     <use xlink:href="#mf44dcfafe5" x="0" y="398.34866" style="fill: #1b9e77; fill-opacity: 0.2"/>
    </g>
   </g>
   <g id="PolyCollection_72">
    <defs>
     <path id="mb3322250ae" d="M 260.895391 -387.7555 
L 260.895391 -55.1155 
L 263.752046 -55.1155 
L 263.752046 -387.7555 
L 263.752046 -387.7555 
L 260.895391 -387.7555 
z
"/>
    </defs>
    <g clip-path="url(#p90ef4e1ae6)">
     <use xlink:href="#mb3322250ae" x="0" y="398.34866" style="fill: #1b9e77; fill-opacity: 0.2"/>
    </g>
   </g>
   <g id="PolyCollection_73">
    <defs>
     <path id="m480ef7c2a7" d="M 263.752046 -387.7555 
L 263.752046 -55.1155 
L 266.608701 -55.1155 
L 266.608701 -387.7555 
L 266.608701 -387.7555 
L 263.752046 -387.7555 
z
"/>
    </defs>
    <g clip-path="url(#p90ef4e1ae6)">
     <use xlink:href="#m480ef7c2a7" x="0" y="398.34866" style="fill: #d95f02; fill-opacity: 0.2"/>
    </g>
   </g>
   <g id="PolyCollection_74">
    <defs>
     <path id="mc75b64c396" d="M 266.608701 -387.7555 
L 266.608701 -55.1155 
L 269.465357 -55.1155 
L 269.465357 -387.7555 
L 269.465357 -387.7555 
L 266.608701 -387.7555 
z
"/>
    </defs>
    <g clip-path="url(#p90ef4e1ae6)">
     <use xlink:href="#mc75b64c396" x="0" y="398.34866" style="fill: #d95f02; fill-opacity: 0.2"/>
    </g>
   </g>
   <g id="PolyCollection_75">
    <defs>
     <path id="m902d5ebbb9" d="M 269.465357 -387.7555 
L 269.465357 -55.1155 
L 272.322012 -55.1155 
L 272.322012 -387.7555 
L 272.322012 -387.7555 
L 269.465357 -387.7555 
z
"/>
    </defs>
    <g clip-path="url(#p90ef4e1ae6)">
     <use xlink:href="#m902d5ebbb9" x="0" y="398.34866" style="fill: #d95f02; fill-opacity: 0.2"/>
    </g>
   </g>
   <g id="PolyCollection_76">
    <defs>
     <path id="m1409b85f5a" d="M 272.322012 -387.7555 
L 272.322012 -55.1155 
L 275.178667 -55.1155 
L 275.178667 -387.7555 
L 275.178667 -387.7555 
L 272.322012 -387.7555 
z
"/>
    </defs>
    <g clip-path="url(#p90ef4e1ae6)">
     <use xlink:href="#m1409b85f5a" x="0" y="398.34866" style="fill: #d95f02; fill-opacity: 0.2"/>
    </g>
   </g>
   <g id="PolyCollection_77">
    <defs>
     <path id="ma473465bae" d="M 275.178667 -387.7555 
L 275.178667 -55.1155 
L 278.035323 -55.1155 
L 278.035323 -387.7555 
L 278.035323 -387.7555 
L 275.178667 -387.7555 
z
"/>
    </defs>
    <g clip-path="url(#p90ef4e1ae6)">
     <use xlink:href="#ma473465bae" x="0" y="398.34866" style="fill: #1b9e77; fill-opacity: 0.2"/>
    </g>
   </g>
   <g id="PolyCollection_78">
    <defs>
     <path id="mdddce3edd8" d="M 278.035323 -387.7555 
L 278.035323 -55.1155 
L 280.891978 -55.1155 
L 280.891978 -387.7555 
L 280.891978 -387.7555 
L 278.035323 -387.7555 
z
"/>
    </defs>
    <g clip-path="url(#p90ef4e1ae6)">
     <use xlink:href="#mdddce3edd8" x="0" y="398.34866" style="fill: #d95f02; fill-opacity: 0.2"/>
    </g>
   </g>
   <g id="PolyCollection_79">
    <defs>
     <path id="mf0c2b15857" d="M 280.891978 -387.7555 
L 280.891978 -55.1155 
L 283.748633 -55.1155 
L 283.748633 -387.7555 
L 283.748633 -387.7555 
L 280.891978 -387.7555 
z
"/>
    </defs>
    <g clip-path="url(#p90ef4e1ae6)">
     <use xlink:href="#mf0c2b15857" x="0" y="398.34866" style="fill: #d95f02; fill-opacity: 0.2"/>
    </g>
   </g>
   <g id="PolyCollection_80">
    <defs>
     <path id="maa67edfe84" d="M 283.748633 -387.7555 
L 283.748633 -55.1155 
L 286.605288 -55.1155 
L 286.605288 -387.7555 
L 286.605288 -387.7555 
L 283.748633 -387.7555 
z
"/>
    </defs>
    <g clip-path="url(#p90ef4e1ae6)">
     <use xlink:href="#maa67edfe84" x="0" y="398.34866" style="fill: #d95f02; fill-opacity: 0.2"/>
    </g>
   </g>
   <g id="PolyCollection_81">
    <defs>
     <path id="m901770fead" d="M 286.605288 -387.7555 
L 286.605288 -55.1155 
L 289.461944 -55.1155 
L 289.461944 -387.7555 
L 289.461944 -387.7555 
L 286.605288 -387.7555 
z
"/>
    </defs>
    <g clip-path="url(#p90ef4e1ae6)">
     <use xlink:href="#m901770fead" x="0" y="398.34866" style="fill: #d95f02; fill-opacity: 0.2"/>
    </g>
   </g>
   <g id="PolyCollection_82">
    <defs>
     <path id="m5cce0cb5a3" d="M 289.461944 -387.7555 
L 289.461944 -55.1155 
L 292.318599 -55.1155 
L 292.318599 -387.7555 
L 292.318599 -387.7555 
L 289.461944 -387.7555 
z
"/>
    </defs>
    <g clip-path="url(#p90ef4e1ae6)">
     <use xlink:href="#m5cce0cb5a3" x="0" y="398.34866" style="fill: #d95f02; fill-opacity: 0.2"/>
    </g>
   </g>
   <g id="PolyCollection_83">
    <defs>
     <path id="m6430202857" d="M 292.318599 -387.7555 
L 292.318599 -55.1155 
L 295.175254 -55.1155 
L 295.175254 -387.7555 
L 295.175254 -387.7555 
L 292.318599 -387.7555 
z
"/>
    </defs>
    <g clip-path="url(#p90ef4e1ae6)">
     <use xlink:href="#m6430202857" x="0" y="398.34866" style="fill: #1b9e77; fill-opacity: 0.2"/>
    </g>
   </g>
   <g id="PolyCollection_84">
    <defs>
     <path id="m56aef1d354" d="M 295.175254 -387.7555 
L 295.175254 -55.1155 
L 298.03191 -55.1155 
L 298.03191 -387.7555 
L 298.03191 -387.7555 
L 295.175254 -387.7555 
z
"/>
    </defs>
    <g clip-path="url(#p90ef4e1ae6)">
     <use xlink:href="#m56aef1d354" x="0" y="398.34866" style="fill: #d95f02; fill-opacity: 0.2"/>
    </g>
   </g>
   <g id="PolyCollection_85">
    <defs>
     <path id="m94891de7c0" d="M 298.03191 -387.7555 
L 298.03191 -55.1155 
L 300.888565 -55.1155 
L 300.888565 -387.7555 
L 300.888565 -387.7555 
L 298.03191 -387.7555 
z
"/>
    </defs>
    <g clip-path="url(#p90ef4e1ae6)">
     <use xlink:href="#m94891de7c0" x="0" y="398.34866" style="fill: #d95f02; fill-opacity: 0.2"/>
    </g>
   </g>
   <g id="PolyCollection_86">
    <defs>
     <path id="me5d3bd0d98" d="M 300.888565 -387.7555 
L 300.888565 -55.1155 
L 303.74522 -55.1155 
L 303.74522 -387.7555 
L 303.74522 -387.7555 
L 300.888565 -387.7555 
z
"/>
    </defs>
    <g clip-path="url(#p90ef4e1ae6)">
     <use xlink:href="#me5d3bd0d98" x="0" y="398.34866" style="fill: #1b9e77; fill-opacity: 0.2"/>
    </g>
   </g>
   <g id="PolyCollection_87">
    <defs>
     <path id="m30f7e3ed71" d="M 303.74522 -387.7555 
L 303.74522 -55.1155 
L 306.601875 -55.1155 
L 306.601875 -387.7555 
L 306.601875 -387.7555 
L 303.74522 -387.7555 
z
"/>
    </defs>
    <g clip-path="url(#p90ef4e1ae6)">
     <use xlink:href="#m30f7e3ed71" x="0" y="398.34866" style="fill: #d95f02; fill-opacity: 0.2"/>
    </g>
   </g>
   <g id="PolyCollection_88">
    <defs>
     <path id="mabd9a9a752" d="M 306.601875 -387.7555 
L 306.601875 -55.1155 
L 309.458531 -55.1155 
L 309.458531 -387.7555 
L 309.458531 -387.7555 
L 306.601875 -387.7555 
z
"/>
    </defs>
    <g clip-path="url(#p90ef4e1ae6)">
     <use xlink:href="#mabd9a9a752" x="0" y="398.34866" style="fill: #d95f02; fill-opacity: 0.2"/>
    </g>
   </g>
   <g id="PolyCollection_89">
    <defs>
     <path id="m5d9ff8776a" d="M 309.458531 -387.7555 
L 309.458531 -55.1155 
L 312.315186 -55.1155 
L 312.315186 -387.7555 
L 312.315186 -387.7555 
L 309.458531 -387.7555 
z
"/>
    </defs>
    <g clip-path="url(#p90ef4e1ae6)">
     <use xlink:href="#m5d9ff8776a" x="0" y="398.34866" style="fill: #d95f02; fill-opacity: 0.2"/>
    </g>
   </g>
   <g id="PolyCollection_90">
    <defs>
     <path id="m951e0edc1d" d="M 312.315186 -387.7555 
L 312.315186 -55.1155 
L 315.171841 -55.1155 
L 315.171841 -387.7555 
L 315.171841 -387.7555 
L 312.315186 -387.7555 
z
"/>
    </defs>
    <g clip-path="url(#p90ef4e1ae6)">
     <use xlink:href="#m951e0edc1d" x="0" y="398.34866" style="fill: #d95f02; fill-opacity: 0.2"/>
    </g>
   </g>
   <g id="PolyCollection_91">
    <defs>
     <path id="mbc0d5bb283" d="M 315.171841 -387.7555 
L 315.171841 -55.1155 
L 318.028497 -55.1155 
L 318.028497 -387.7555 
L 318.028497 -387.7555 
L 315.171841 -387.7555 
z
"/>
    </defs>
    <g clip-path="url(#p90ef4e1ae6)">
     <use xlink:href="#mbc0d5bb283" x="0" y="398.34866" style="fill: #d95f02; fill-opacity: 0.2"/>
    </g>
   </g>
   <g id="PolyCollection_92">
    <defs>
     <path id="mb1f9166732" d="M 318.028497 -387.7555 
L 318.028497 -55.1155 
L 320.885152 -55.1155 
L 320.885152 -387.7555 
L 320.885152 -387.7555 
L 318.028497 -387.7555 
z
"/>
    </defs>
    <g clip-path="url(#p90ef4e1ae6)">
     <use xlink:href="#mb1f9166732" x="0" y="398.34866" style="fill: #d95f02; fill-opacity: 0.2"/>
    </g>
   </g>
   <g id="PolyCollection_93">
    <defs>
     <path id="ma10449cff8" d="M 320.885152 -387.7555 
L 320.885152 -55.1155 
L 323.741807 -55.1155 
L 323.741807 -387.7555 
L 323.741807 -387.7555 
L 320.885152 -387.7555 
z
"/>
    </defs>
    <g clip-path="url(#p90ef4e1ae6)">
     <use xlink:href="#ma10449cff8" x="0" y="398.34866" style="fill: #d95f02; fill-opacity: 0.2"/>
    </g>
   </g>
   <g id="PolyCollection_94">
    <defs>
     <path id="m7d977c7e1a" d="M 323.741807 -387.7555 
L 323.741807 -55.1155 
L 326.598462 -55.1155 
L 326.598462 -387.7555 
L 326.598462 -387.7555 
L 323.741807 -387.7555 
z
"/>
    </defs>
    <g clip-path="url(#p90ef4e1ae6)">
     <use xlink:href="#m7d977c7e1a" x="0" y="398.34866" style="fill: #1b9e77; fill-opacity: 0.2"/>
    </g>
   </g>
   <g id="PolyCollection_95">
    <defs>
     <path id="me477045a51" d="M 326.598462 -387.7555 
L 326.598462 -55.1155 
L 329.455118 -55.1155 
L 329.455118 -387.7555 
L 329.455118 -387.7555 
L 326.598462 -387.7555 
z
"/>
    </defs>
    <g clip-path="url(#p90ef4e1ae6)">
     <use xlink:href="#me477045a51" x="0" y="398.34866" style="fill: #d95f02; fill-opacity: 0.2"/>
    </g>
   </g>
   <g id="PolyCollection_96">
    <defs>
     <path id="m9fbc2770b4" d="M 329.455118 -387.7555 
L 329.455118 -55.1155 
L 332.311773 -55.1155 
L 332.311773 -387.7555 
L 332.311773 -387.7555 
L 329.455118 -387.7555 
z
"/>
    </defs>
    <g clip-path="url(#p90ef4e1ae6)">
     <use xlink:href="#m9fbc2770b4" x="0" y="398.34866" style="fill: #d95f02; fill-opacity: 0.2"/>
    </g>
   </g>
   <g id="PolyCollection_97">
    <defs>
     <path id="meb4b116554" d="M 332.311773 -387.7555 
L 332.311773 -55.1155 
L 335.168428 -55.1155 
L 335.168428 -387.7555 
L 335.168428 -387.7555 
L 332.311773 -387.7555 
z
"/>
    </defs>
    <g clip-path="url(#p90ef4e1ae6)">
     <use xlink:href="#meb4b116554" x="0" y="398.34866" style="fill: #1b9e77; fill-opacity: 0.2"/>
    </g>
   </g>
   <g id="PolyCollection_98">
    <defs>
     <path id="mc60a00721d" d="M 335.168428 -387.7555 
L 335.168428 -55.1155 
L 338.025084 -55.1155 
L 338.025084 -387.7555 
L 338.025084 -387.7555 
L 335.168428 -387.7555 
z
"/>
    </defs>
    <g clip-path="url(#p90ef4e1ae6)">
     <use xlink:href="#mc60a00721d" x="0" y="398.34866" style="fill: #d95f02; fill-opacity: 0.2"/>
    </g>
   </g>
   <g id="PolyCollection_99">
    <defs>
     <path id="m4142d738ae" d="M 338.025084 -387.7555 
L 338.025084 -55.1155 
L 340.881739 -55.1155 
L 340.881739 -387.7555 
L 340.881739 -387.7555 
L 338.025084 -387.7555 
z
"/>
    </defs>
    <g clip-path="url(#p90ef4e1ae6)">
     <use xlink:href="#m4142d738ae" x="0" y="398.34866" style="fill: #d95f02; fill-opacity: 0.2"/>
    </g>
   </g>
   <g id="PolyCollection_100">
    <defs>
     <path id="me8c3dfd735" d="M 340.881739 -387.7555 
L 340.881739 -55.1155 
L 343.738394 -55.1155 
L 343.738394 -387.7555 
L 343.738394 -387.7555 
L 340.881739 -387.7555 
z
"/>
    </defs>
    <g clip-path="url(#p90ef4e1ae6)">
     <use xlink:href="#me8c3dfd735" x="0" y="398.34866" style="fill: #d95f02; fill-opacity: 0.2"/>
    </g>
   </g>
   <g id="PolyCollection_101">
    <defs>
     <path id="m71f26078d9" d="M 343.738394 -387.7555 
L 343.738394 -55.1155 
L 346.595049 -55.1155 
L 346.595049 -387.7555 
L 346.595049 -387.7555 
L 343.738394 -387.7555 
z
"/>
    </defs>
    <g clip-path="url(#p90ef4e1ae6)">
     <use xlink:href="#m71f26078d9" x="0" y="398.34866" style="fill: #d95f02; fill-opacity: 0.2"/>
    </g>
   </g>
   <g id="PolyCollection_102">
    <defs>
     <path id="m702ac4b2de" d="M 346.595049 -387.7555 
L 346.595049 -55.1155 
L 349.451705 -55.1155 
L 349.451705 -387.7555 
L 349.451705 -387.7555 
L 346.595049 -387.7555 
z
"/>
    </defs>
    <g clip-path="url(#p90ef4e1ae6)">
     <use xlink:href="#m702ac4b2de" x="0" y="398.34866" style="fill: #d95f02; fill-opacity: 0.2"/>
    </g>
   </g>
   <g id="PolyCollection_103">
    <defs>
     <path id="m1f124e76b2" d="M 349.451705 -387.7555 
L 349.451705 -55.1155 
L 352.30836 -55.1155 
L 352.30836 -387.7555 
L 352.30836 -387.7555 
L 349.451705 -387.7555 
z
"/>
    </defs>
    <g clip-path="url(#p90ef4e1ae6)">
     <use xlink:href="#m1f124e76b2" x="0" y="398.34866" style="fill: #d95f02; fill-opacity: 0.2"/>
    </g>
   </g>
   <g id="PolyCollection_104">
    <defs>
     <path id="m6524bb26af" d="M 352.30836 -387.7555 
L 352.30836 -55.1155 
L 355.165015 -55.1155 
L 355.165015 -387.7555 
L 355.165015 -387.7555 
L 352.30836 -387.7555 
z
"/>
    </defs>
    <g clip-path="url(#p90ef4e1ae6)">
     <use xlink:href="#m6524bb26af" x="0" y="398.34866" style="fill: #d95f02; fill-opacity: 0.2"/>
    </g>
   </g>
   <g id="PolyCollection_105">
    <defs>
     <path id="mf44a0e3a09" d="M 355.165015 -387.7555 
L 355.165015 -55.1155 
L 358.021671 -55.1155 
L 358.021671 -387.7555 
L 358.021671 -387.7555 
L 355.165015 -387.7555 
z
"/>
    </defs>
    <g clip-path="url(#p90ef4e1ae6)">
     <use xlink:href="#mf44a0e3a09" x="0" y="398.34866" style="fill: #d95f02; fill-opacity: 0.2"/>
    </g>
   </g>
   <g id="PolyCollection_106">
    <defs>
     <path id="m28ae4a544a" d="M 358.021671 -387.7555 
L 358.021671 -55.1155 
L 360.878326 -55.1155 
L 360.878326 -387.7555 
L 360.878326 -387.7555 
L 358.021671 -387.7555 
z
"/>
    </defs>
    <g clip-path="url(#p90ef4e1ae6)">
     <use xlink:href="#m28ae4a544a" x="0" y="398.34866" style="fill: #d95f02; fill-opacity: 0.2"/>
    </g>
   </g>
   <g id="PolyCollection_107">
    <defs>
     <path id="m0d952db594" d="M 360.878326 -387.7555 
L 360.878326 -55.1155 
L 363.734981 -55.1155 
L 363.734981 -387.7555 
L 363.734981 -387.7555 
L 360.878326 -387.7555 
z
"/>
    </defs>
    <g clip-path="url(#p90ef4e1ae6)">
     <use xlink:href="#m0d952db594" x="0" y="398.34866" style="fill: #d95f02; fill-opacity: 0.2"/>
    </g>
   </g>
   <g id="PolyCollection_108">
    <defs>
     <path id="mc869743781" d="M 363.734981 -387.7555 
L 363.734981 -55.1155 
L 366.591637 -55.1155 
L 366.591637 -387.7555 
L 366.591637 -387.7555 
L 363.734981 -387.7555 
z
"/>
    </defs>
    <g clip-path="url(#p90ef4e1ae6)">
     <use xlink:href="#mc869743781" x="0" y="398.34866" style="fill: #d95f02; fill-opacity: 0.2"/>
    </g>
   </g>
   <g id="PolyCollection_109">
    <defs>
     <path id="m73ac0d61a4" d="M 366.591637 -387.7555 
L 366.591637 -55.1155 
L 369.448292 -55.1155 
L 369.448292 -387.7555 
L 369.448292 -387.7555 
L 366.591637 -387.7555 
z
"/>
    </defs>
    <g clip-path="url(#p90ef4e1ae6)">
     <use xlink:href="#m73ac0d61a4" x="0" y="398.34866" style="fill: #d95f02; fill-opacity: 0.2"/>
    </g>
   </g>
   <g id="PolyCollection_110">
    <defs>
     <path id="m6630cd2472" d="M 369.448292 -387.7555 
L 369.448292 -55.1155 
L 372.304947 -55.1155 
L 372.304947 -387.7555 
L 372.304947 -387.7555 
L 369.448292 -387.7555 
z
"/>
    </defs>
    <g clip-path="url(#p90ef4e1ae6)">
     <use xlink:href="#m6630cd2472" x="0" y="398.34866" style="fill: #d95f02; fill-opacity: 0.2"/>
    </g>
   </g>
   <g id="PolyCollection_111">
    <defs>
     <path id="m7066fb3113" d="M 372.304947 -387.7555 
L 372.304947 -55.1155 
L 375.161602 -55.1155 
L 375.161602 -387.7555 
L 375.161602 -387.7555 
L 372.304947 -387.7555 
z
"/>
    </defs>
    <g clip-path="url(#p90ef4e1ae6)">
     <use xlink:href="#m7066fb3113" x="0" y="398.34866" style="fill: #d95f02; fill-opacity: 0.2"/>
    </g>
   </g>
   <g id="PolyCollection_112">
    <defs>
     <path id="m2fff109a21" d="M 375.161602 -387.7555 
L 375.161602 -55.1155 
L 378.018258 -55.1155 
L 378.018258 -387.7555 
L 378.018258 -387.7555 
L 375.161602 -387.7555 
z
"/>
    </defs>
    <g clip-path="url(#p90ef4e1ae6)">
     <use xlink:href="#m2fff109a21" x="0" y="398.34866" style="fill: #d95f02; fill-opacity: 0.2"/>
    </g>
   </g>
   <g id="PolyCollection_113">
    <defs>
     <path id="m35c6370a16" d="M 378.018258 -387.7555 
L 378.018258 -55.1155 
L 380.874913 -55.1155 
L 380.874913 -387.7555 
L 380.874913 -387.7555 
L 378.018258 -387.7555 
z
"/>
    </defs>
    <g clip-path="url(#p90ef4e1ae6)">
     <use xlink:href="#m35c6370a16" x="0" y="398.34866" style="fill: #d95f02; fill-opacity: 0.2"/>
    </g>
   </g>
   <g id="PolyCollection_114">
    <defs>
     <path id="m21a6523503" d="M 380.874913 -387.7555 
L 380.874913 -55.1155 
L 383.731568 -55.1155 
L 383.731568 -387.7555 
L 383.731568 -387.7555 
L 380.874913 -387.7555 
z
"/>
    </defs>
    <g clip-path="url(#p90ef4e1ae6)">
     <use xlink:href="#m21a6523503" x="0" y="398.34866" style="fill: #d95f02; fill-opacity: 0.2"/>
    </g>
   </g>
   <g id="PolyCollection_115">
    <defs>
     <path id="m9c78a0eeb8" d="M 383.731568 -387.7555 
L 383.731568 -55.1155 
L 386.588224 -55.1155 
L 386.588224 -387.7555 
L 386.588224 -387.7555 
L 383.731568 -387.7555 
z
"/>
    </defs>
    <g clip-path="url(#p90ef4e1ae6)">
     <use xlink:href="#m9c78a0eeb8" x="0" y="398.34866" style="fill: #d95f02; fill-opacity: 0.2"/>
    </g>
   </g>
   <g id="PolyCollection_116">
    <defs>
     <path id="m38fcad13ee" d="M 386.588224 -387.7555 
L 386.588224 -55.1155 
L 389.444879 -55.1155 
L 389.444879 -387.7555 
L 389.444879 -387.7555 
L 386.588224 -387.7555 
z
"/>
    </defs>
    <g clip-path="url(#p90ef4e1ae6)">
     <use xlink:href="#m38fcad13ee" x="0" y="398.34866" style="fill: #d95f02; fill-opacity: 0.2"/>
    </g>
   </g>
   <g id="PolyCollection_117">
    <defs>
     <path id="m1424086e7b" d="M 389.444879 -387.7555 
L 389.444879 -55.1155 
L 392.301534 -55.1155 
L 392.301534 -387.7555 
L 392.301534 -387.7555 
L 389.444879 -387.7555 
z
"/>
    </defs>
    <g clip-path="url(#p90ef4e1ae6)">
     <use xlink:href="#m1424086e7b" x="0" y="398.34866" style="fill: #1b9e77; fill-opacity: 0.2"/>
    </g>
   </g>
   <g id="PolyCollection_118">
    <defs>
     <path id="me200486318" d="M 392.301534 -387.7555 
L 392.301534 -55.1155 
L 395.158189 -55.1155 
L 395.158189 -387.7555 
L 395.158189 -387.7555 
L 392.301534 -387.7555 
z
"/>
    </defs>
    <g clip-path="url(#p90ef4e1ae6)">
     <use xlink:href="#me200486318" x="0" y="398.34866" style="fill: #d95f02; fill-opacity: 0.2"/>
    </g>
   </g>
   <g id="PolyCollection_119">
    <defs>
     <path id="m1e02d93e5d" d="M 395.158189 -387.7555 
L 395.158189 -55.1155 
L 398.014845 -55.1155 
L 398.014845 -387.7555 
L 398.014845 -387.7555 
L 395.158189 -387.7555 
z
"/>
    </defs>
    <g clip-path="url(#p90ef4e1ae6)">
     <use xlink:href="#m1e02d93e5d" x="0" y="398.34866" style="fill: #d95f02; fill-opacity: 0.2"/>
    </g>
   </g>
   <g id="PolyCollection_120">
    <defs>
     <path id="m8190041360" d="M 398.014845 -387.7555 
L 398.014845 -55.1155 
L 400.8715 -55.1155 
L 400.8715 -387.7555 
L 400.8715 -387.7555 
L 398.014845 -387.7555 
z
"/>
    </defs>
    <g clip-path="url(#p90ef4e1ae6)">
     <use xlink:href="#m8190041360" x="0" y="398.34866" style="fill: #d95f02; fill-opacity: 0.2"/>
    </g>
   </g>
   <g id="PolyCollection_121">
    <defs>
     <path id="m1c38556c20" d="M 400.8715 -387.7555 
L 400.8715 -55.1155 
L 403.728155 -55.1155 
L 403.728155 -387.7555 
L 403.728155 -387.7555 
L 400.8715 -387.7555 
z
"/>
    </defs>
    <g clip-path="url(#p90ef4e1ae6)">
     <use xlink:href="#m1c38556c20" x="0" y="398.34866" style="fill: #d95f02; fill-opacity: 0.2"/>
    </g>
   </g>
   <g id="PolyCollection_122">
    <defs>
     <path id="mc152a5e998" d="M 403.728155 -387.7555 
L 403.728155 -55.1155 
L 406.584811 -55.1155 
L 406.584811 -387.7555 
L 406.584811 -387.7555 
L 403.728155 -387.7555 
z
"/>
    </defs>
    <g clip-path="url(#p90ef4e1ae6)">
     <use xlink:href="#mc152a5e998" x="0" y="398.34866" style="fill: #d95f02; fill-opacity: 0.2"/>
    </g>
   </g>
   <g id="PolyCollection_123">
    <defs>
     <path id="m7579486282" d="M 406.584811 -387.7555 
L 406.584811 -55.1155 
L 409.441466 -55.1155 
L 409.441466 -387.7555 
L 409.441466 -387.7555 
L 406.584811 -387.7555 
z
"/>
    </defs>
    <g clip-path="url(#p90ef4e1ae6)">
     <use xlink:href="#m7579486282" x="0" y="398.34866" style="fill: #d95f02; fill-opacity: 0.2"/>
    </g>
   </g>
   <g id="PolyCollection_124">
    <defs>
     <path id="m1c7cf1ab3f" d="M 409.441466 -387.7555 
L 409.441466 -55.1155 
L 412.298121 -55.1155 
L 412.298121 -387.7555 
L 412.298121 -387.7555 
L 409.441466 -387.7555 
z
"/>
    </defs>
    <g clip-path="url(#p90ef4e1ae6)">
     <use xlink:href="#m1c7cf1ab3f" x="0" y="398.34866" style="fill: #d95f02; fill-opacity: 0.2"/>
    </g>
   </g>
   <g id="PolyCollection_125">
    <defs>
     <path id="mdfa0076bda" d="M 412.298121 -387.7555 
L 412.298121 -55.1155 
L 415.154776 -55.1155 
L 415.154776 -387.7555 
L 415.154776 -387.7555 
L 412.298121 -387.7555 
z
"/>
    </defs>
    <g clip-path="url(#p90ef4e1ae6)">
     <use xlink:href="#mdfa0076bda" x="0" y="398.34866" style="fill: #d95f02; fill-opacity: 0.2"/>
    </g>
   </g>
   <g id="PolyCollection_126">
    <defs>
     <path id="mc2435cb797" d="M 415.154776 -387.7555 
L 415.154776 -55.1155 
L 418.011432 -55.1155 
L 418.011432 -387.7555 
L 418.011432 -387.7555 
L 415.154776 -387.7555 
z
"/>
    </defs>
    <g clip-path="url(#p90ef4e1ae6)">
     <use xlink:href="#mc2435cb797" x="0" y="398.34866" style="fill: #d95f02; fill-opacity: 0.2"/>
    </g>
   </g>
   <g id="PolyCollection_127">
    <defs>
     <path id="m70f692c5f7" d="M 418.011432 -387.7555 
L 418.011432 -55.1155 
L 420.868087 -55.1155 
L 420.868087 -387.7555 
L 420.868087 -387.7555 
L 418.011432 -387.7555 
z
"/>
    </defs>
    <g clip-path="url(#p90ef4e1ae6)">
     <use xlink:href="#m70f692c5f7" x="0" y="398.34866" style="fill: #d95f02; fill-opacity: 0.2"/>
    </g>
   </g>
   <g id="PolyCollection_128">
    <defs>
     <path id="m1c8a38874a" d="M 420.868087 -387.7555 
L 420.868087 -55.1155 
L 423.724742 -55.1155 
L 423.724742 -387.7555 
L 423.724742 -387.7555 
L 420.868087 -387.7555 
z
"/>
    </defs>
    <g clip-path="url(#p90ef4e1ae6)">
     <use xlink:href="#m1c8a38874a" x="0" y="398.34866" style="fill: #d95f02; fill-opacity: 0.2"/>
    </g>
   </g>
   <g id="PolyCollection_129">
    <defs>
     <path id="mdac78e3ef5" d="M 423.724742 -387.7555 
L 423.724742 -55.1155 
L 426.581398 -55.1155 
L 426.581398 -387.7555 
L 426.581398 -387.7555 
L 423.724742 -387.7555 
z
"/>
    </defs>
    <g clip-path="url(#p90ef4e1ae6)">
     <use xlink:href="#mdac78e3ef5" x="0" y="398.34866" style="fill: #d95f02; fill-opacity: 0.2"/>
    </g>
   </g>
   <g id="PolyCollection_130">
    <defs>
     <path id="mc7c3a99fdb" d="M 426.581398 -387.7555 
L 426.581398 -55.1155 
L 429.438053 -55.1155 
L 429.438053 -387.7555 
L 429.438053 -387.7555 
L 426.581398 -387.7555 
z
"/>
    </defs>
    <g clip-path="url(#p90ef4e1ae6)">
     <use xlink:href="#mc7c3a99fdb" x="0" y="398.34866" style="fill: #d95f02; fill-opacity: 0.2"/>
    </g>
   </g>
   <g id="PolyCollection_131">
    <defs>
     <path id="mf102029ff8" d="M 429.438053 -387.7555 
L 429.438053 -55.1155 
L 432.294708 -55.1155 
L 432.294708 -387.7555 
L 432.294708 -387.7555 
L 429.438053 -387.7555 
z
"/>
    </defs>
    <g clip-path="url(#p90ef4e1ae6)">
     <use xlink:href="#mf102029ff8" x="0" y="398.34866" style="fill: #d95f02; fill-opacity: 0.2"/>
    </g>
   </g>
   <g id="PolyCollection_132">
    <defs>
     <path id="maf448fc857" d="M 432.294708 -387.7555 
L 432.294708 -55.1155 
L 435.151363 -55.1155 
L 435.151363 -387.7555 
L 435.151363 -387.7555 
L 432.294708 -387.7555 
z
"/>
    </defs>
    <g clip-path="url(#p90ef4e1ae6)">
     <use xlink:href="#maf448fc857" x="0" y="398.34866" style="fill: #d95f02; fill-opacity: 0.2"/>
    </g>
   </g>
   <g id="PolyCollection_133">
    <defs>
     <path id="m72c622fca0" d="M 435.151363 -387.7555 
L 435.151363 -55.1155 
L 438.008019 -55.1155 
L 438.008019 -387.7555 
L 438.008019 -387.7555 
L 435.151363 -387.7555 
z
"/>
    </defs>
    <g clip-path="url(#p90ef4e1ae6)">
     <use xlink:href="#m72c622fca0" x="0" y="398.34866" style="fill: #d95f02; fill-opacity: 0.2"/>
    </g>
   </g>
   <g id="PolyCollection_134">
    <defs>
     <path id="m8704eceb7d" d="M 438.008019 -387.7555 
L 438.008019 -55.1155 
L 440.864674 -55.1155 
L 440.864674 -387.7555 
L 440.864674 -387.7555 
L 438.008019 -387.7555 
z
"/>
    </defs>
    <g clip-path="url(#p90ef4e1ae6)">
     <use xlink:href="#m8704eceb7d" x="0" y="398.34866" style="fill: #d95f02; fill-opacity: 0.2"/>
    </g>
   </g>
   <g id="PolyCollection_135">
    <defs>
     <path id="m2fb9c5a547" d="M 440.864674 -387.7555 
L 440.864674 -55.1155 
L 443.721329 -55.1155 
L 443.721329 -387.7555 
L 443.721329 -387.7555 
L 440.864674 -387.7555 
z
"/>
    </defs>
    <g clip-path="url(#p90ef4e1ae6)">
     <use xlink:href="#m2fb9c5a547" x="0" y="398.34866" style="fill: #d95f02; fill-opacity: 0.2"/>
    </g>
   </g>
   <g id="PolyCollection_136">
    <defs>
     <path id="mfb7ba765f0" d="M 443.721329 -387.7555 
L 443.721329 -55.1155 
L 446.577985 -55.1155 
L 446.577985 -387.7555 
L 446.577985 -387.7555 
L 443.721329 -387.7555 
z
"/>
    </defs>
    <g clip-path="url(#p90ef4e1ae6)">
     <use xlink:href="#mfb7ba765f0" x="0" y="398.34866" style="fill: #1b9e77; fill-opacity: 0.2"/>
    </g>
   </g>
   <g id="PolyCollection_137">
    <defs>
     <path id="mdc631d797a" d="M 446.577985 -387.7555 
L 446.577985 -55.1155 
L 449.43464 -55.1155 
L 449.43464 -387.7555 
L 449.43464 -387.7555 
L 446.577985 -387.7555 
z
"/>
    </defs>
    <g clip-path="url(#p90ef4e1ae6)">
     <use xlink:href="#mdc631d797a" x="0" y="398.34866" style="fill: #d95f02; fill-opacity: 0.2"/>
    </g>
   </g>
   <g id="PolyCollection_138">
    <defs>
     <path id="m1f96137b2c" d="M 449.43464 -387.7555 
L 449.43464 -55.1155 
L 452.291295 -55.1155 
L 452.291295 -387.7555 
L 452.291295 -387.7555 
L 449.43464 -387.7555 
z
"/>
    </defs>
    <g clip-path="url(#p90ef4e1ae6)">
     <use xlink:href="#m1f96137b2c" x="0" y="398.34866" style="fill: #d95f02; fill-opacity: 0.2"/>
    </g>
   </g>
   <g id="PolyCollection_139">
    <defs>
     <path id="mc6f2e0f07f" d="M 452.291295 -387.7555 
L 452.291295 -55.1155 
L 455.147951 -55.1155 
L 455.147951 -387.7555 
L 455.147951 -387.7555 
L 452.291295 -387.7555 
z
"/>
    </defs>
    <g clip-path="url(#p90ef4e1ae6)">
     <use xlink:href="#mc6f2e0f07f" x="0" y="398.34866" style="fill: #d95f02; fill-opacity: 0.2"/>
    </g>
   </g>
   <g id="PolyCollection_140">
    <defs>
     <path id="m7a3c157ee3" d="M 455.147951 -387.7555 
L 455.147951 -55.1155 
L 458.004606 -55.1155 
L 458.004606 -387.7555 
L 458.004606 -387.7555 
L 455.147951 -387.7555 
z
"/>
    </defs>
    <g clip-path="url(#p90ef4e1ae6)">
     <use xlink:href="#m7a3c157ee3" x="0" y="398.34866" style="fill: #1b9e77; fill-opacity: 0.2"/>
    </g>
   </g>
   <g id="PolyCollection_141">
    <defs>
     <path id="m6bab64d6e1" d="M 458.004606 -387.7555 
L 458.004606 -55.1155 
L 460.861261 -55.1155 
L 460.861261 -387.7555 
L 460.861261 -387.7555 
L 458.004606 -387.7555 
z
"/>
    </defs>
    <g clip-path="url(#p90ef4e1ae6)">
     <use xlink:href="#m6bab64d6e1" x="0" y="398.34866" style="fill: #d95f02; fill-opacity: 0.2"/>
    </g>
   </g>
   <g id="PolyCollection_142">
    <defs>
     <path id="m097152d6b7" d="M 460.861261 -387.7555 
L 460.861261 -55.1155 
L 463.717916 -55.1155 
L 463.717916 -387.7555 
L 463.717916 -387.7555 
L 460.861261 -387.7555 
z
"/>
    </defs>
    <g clip-path="url(#p90ef4e1ae6)">
     <use xlink:href="#m097152d6b7" x="0" y="398.34866" style="fill: #d95f02; fill-opacity: 0.2"/>
    </g>
   </g>
   <g id="PolyCollection_143">
    <defs>
     <path id="m665591d600" d="M 463.717916 -387.7555 
L 463.717916 -55.1155 
L 466.574572 -55.1155 
L 466.574572 -387.7555 
L 466.574572 -387.7555 
L 463.717916 -387.7555 
z
"/>
    </defs>
    <g clip-path="url(#p90ef4e1ae6)">
     <use xlink:href="#m665591d600" x="0" y="398.34866" style="fill: #d95f02; fill-opacity: 0.2"/>
    </g>
   </g>
   <g id="PolyCollection_144">
    <defs>
     <path id="m119889ee9c" d="M 466.574572 -387.7555 
L 466.574572 -55.1155 
L 469.431227 -55.1155 
L 469.431227 -387.7555 
L 469.431227 -387.7555 
L 466.574572 -387.7555 
z
"/>
    </defs>
    <g clip-path="url(#p90ef4e1ae6)">
     <use xlink:href="#m119889ee9c" x="0" y="398.34866" style="fill: #d95f02; fill-opacity: 0.2"/>
    </g>
   </g>
   <g id="PolyCollection_145">
    <defs>
     <path id="mc684a47694" d="M 469.431227 -387.7555 
L 469.431227 -55.1155 
L 472.287882 -55.1155 
L 472.287882 -387.7555 
L 472.287882 -387.7555 
L 469.431227 -387.7555 
z
"/>
    </defs>
    <g clip-path="url(#p90ef4e1ae6)">
     <use xlink:href="#mc684a47694" x="0" y="398.34866" style="fill: #d95f02; fill-opacity: 0.2"/>
    </g>
   </g>
   <g id="PolyCollection_146">
    <defs>
     <path id="m94c80d5011" d="M 472.287882 -387.7555 
L 472.287882 -55.1155 
L 475.144538 -55.1155 
L 475.144538 -387.7555 
L 475.144538 -387.7555 
L 472.287882 -387.7555 
z
"/>
    </defs>
    <g clip-path="url(#p90ef4e1ae6)">
     <use xlink:href="#m94c80d5011" x="0" y="398.34866" style="fill: #d95f02; fill-opacity: 0.2"/>
    </g>
   </g>
   <g id="PolyCollection_147">
    <defs>
     <path id="m4445ec5fa9" d="M 475.144538 -387.7555 
L 475.144538 -55.1155 
L 478.001193 -55.1155 
L 478.001193 -387.7555 
L 478.001193 -387.7555 
L 475.144538 -387.7555 
z
"/>
    </defs>
    <g clip-path="url(#p90ef4e1ae6)">
     <use xlink:href="#m4445ec5fa9" x="0" y="398.34866" style="fill: #1b9e77; fill-opacity: 0.2"/>
    </g>
   </g>
   <g id="PolyCollection_148">
    <defs>
     <path id="m7ebbe674b5" d="M 478.001193 -387.7555 
L 478.001193 -55.1155 
L 480.857848 -55.1155 
L 480.857848 -387.7555 
L 480.857848 -387.7555 
L 478.001193 -387.7555 
z
"/>
    </defs>
    <g clip-path="url(#p90ef4e1ae6)">
     <use xlink:href="#m7ebbe674b5" x="0" y="398.34866" style="fill: #1b9e77; fill-opacity: 0.2"/>
    </g>
   </g>
   <g id="PolyCollection_149">
    <defs>
     <path id="m800751445c" d="M 480.857848 -387.7555 
L 480.857848 -55.1155 
L 483.714503 -55.1155 
L 483.714503 -387.7555 
L 483.714503 -387.7555 
L 480.857848 -387.7555 
z
"/>
    </defs>
    <g clip-path="url(#p90ef4e1ae6)">
     <use xlink:href="#m800751445c" x="0" y="398.34866" style="fill: #1b9e77; fill-opacity: 0.2"/>
    </g>
   </g>
   <g id="PolyCollection_150">
    <defs>
     <path id="m3fcc4a5c8b" d="M 483.714503 -387.7555 
L 483.714503 -55.1155 
L 486.571159 -55.1155 
L 486.571159 -387.7555 
L 486.571159 -387.7555 
L 483.714503 -387.7555 
z
"/>
    </defs>
    <g clip-path="url(#p90ef4e1ae6)">
     <use xlink:href="#m3fcc4a5c8b" x="0" y="398.34866" style="fill: #d95f02; fill-opacity: 0.2"/>
    </g>
   </g>
   <g id="PolyCollection_151">
    <defs>
     <path id="m8ef40dbaad" d="M 486.571159 -387.7555 
L 486.571159 -55.1155 
L 489.427814 -55.1155 
L 489.427814 -387.7555 
L 489.427814 -387.7555 
L 486.571159 -387.7555 
z
"/>
    </defs>
    <g clip-path="url(#p90ef4e1ae6)">
     <use xlink:href="#m8ef40dbaad" x="0" y="398.34866" style="fill: #d95f02; fill-opacity: 0.2"/>
    </g>
   </g>
   <g id="PolyCollection_152">
    <defs>
     <path id="m60a5d5a1f8" d="M 489.427814 -387.7555 
L 489.427814 -55.1155 
L 492.284469 -55.1155 
L 492.284469 -387.7555 
L 492.284469 -387.7555 
L 489.427814 -387.7555 
z
"/>
    </defs>
    <g clip-path="url(#p90ef4e1ae6)">
     <use xlink:href="#m60a5d5a1f8" x="0" y="398.34866" style="fill: #d95f02; fill-opacity: 0.2"/>
    </g>
   </g>
   <g id="PolyCollection_153">
    <defs>
     <path id="m389c173b23" d="M 492.284469 -387.7555 
L 492.284469 -55.1155 
L 495.141125 -55.1155 
L 495.141125 -387.7555 
L 495.141125 -387.7555 
L 492.284469 -387.7555 
z
"/>
    </defs>
    <g clip-path="url(#p90ef4e1ae6)">
     <use xlink:href="#m389c173b23" x="0" y="398.34866" style="fill: #d95f02; fill-opacity: 0.2"/>
    </g>
   </g>
   <g id="PolyCollection_154">
    <defs>
     <path id="m583527b23b" d="M 495.141125 -387.7555 
L 495.141125 -55.1155 
L 497.99778 -55.1155 
L 497.99778 -387.7555 
L 497.99778 -387.7555 
L 495.141125 -387.7555 
z
"/>
    </defs>
    <g clip-path="url(#p90ef4e1ae6)">
     <use xlink:href="#m583527b23b" x="0" y="398.34866" style="fill: #1b9e77; fill-opacity: 0.2"/>
    </g>
   </g>
   <g id="PolyCollection_155">
    <defs>
     <path id="m7068d97574" d="M 497.99778 -387.7555 
L 497.99778 -55.1155 
L 500.854435 -55.1155 
L 500.854435 -387.7555 
L 500.854435 -387.7555 
L 497.99778 -387.7555 
z
"/>
    </defs>
    <g clip-path="url(#p90ef4e1ae6)">
     <use xlink:href="#m7068d97574" x="0" y="398.34866" style="fill: #1b9e77; fill-opacity: 0.2"/>
    </g>
   </g>
   <g id="PolyCollection_156">
    <defs>
     <path id="mfba9550ac7" d="M 500.854435 -387.7555 
L 500.854435 -55.1155 
L 503.71109 -55.1155 
L 503.71109 -387.7555 
L 503.71109 -387.7555 
L 500.854435 -387.7555 
z
"/>
    </defs>
    <g clip-path="url(#p90ef4e1ae6)">
     <use xlink:href="#mfba9550ac7" x="0" y="398.34866" style="fill: #d95f02; fill-opacity: 0.2"/>
    </g>
   </g>
   <g id="PolyCollection_157">
    <defs>
     <path id="mca1b83ef1b" d="M 503.71109 -387.7555 
L 503.71109 -55.1155 
L 506.567746 -55.1155 
L 506.567746 -387.7555 
L 506.567746 -387.7555 
L 503.71109 -387.7555 
z
"/>
    </defs>
    <g clip-path="url(#p90ef4e1ae6)">
     <use xlink:href="#mca1b83ef1b" x="0" y="398.34866" style="fill: #1b9e77; fill-opacity: 0.2"/>
    </g>
   </g>
   <g id="PolyCollection_158">
    <defs>
     <path id="m83b4018536" d="M 506.567746 -387.7555 
L 506.567746 -55.1155 
L 509.424401 -55.1155 
L 509.424401 -387.7555 
L 509.424401 -387.7555 
L 506.567746 -387.7555 
z
"/>
    </defs>
    <g clip-path="url(#p90ef4e1ae6)">
     <use xlink:href="#m83b4018536" x="0" y="398.34866" style="fill: #d95f02; fill-opacity: 0.2"/>
    </g>
   </g>
   <g id="PolyCollection_159">
    <defs>
     <path id="m7e2e2b8a64" d="M 509.424401 -387.7555 
L 509.424401 -55.1155 
L 512.281056 -55.1155 
L 512.281056 -387.7555 
L 512.281056 -387.7555 
L 509.424401 -387.7555 
z
"/>
    </defs>
    <g clip-path="url(#p90ef4e1ae6)">
     <use xlink:href="#m7e2e2b8a64" x="0" y="398.34866" style="fill: #1b9e77; fill-opacity: 0.2"/>
    </g>
   </g>
   <g id="PolyCollection_160">
    <defs>
     <path id="meba601079a" d="M 512.281056 -387.7555 
L 512.281056 -55.1155 
L 515.137712 -55.1155 
L 515.137712 -387.7555 
L 515.137712 -387.7555 
L 512.281056 -387.7555 
z
"/>
    </defs>
    <g clip-path="url(#p90ef4e1ae6)">
     <use xlink:href="#meba601079a" x="0" y="398.34866" style="fill: #d95f02; fill-opacity: 0.2"/>
    </g>
   </g>
   <g id="PolyCollection_161">
    <defs>
     <path id="m70031646c7" d="M 515.137712 -387.7555 
L 515.137712 -55.1155 
L 517.994367 -55.1155 
L 517.994367 -387.7555 
L 517.994367 -387.7555 
L 515.137712 -387.7555 
z
"/>
    </defs>
    <g clip-path="url(#p90ef4e1ae6)">
     <use xlink:href="#m70031646c7" x="0" y="398.34866" style="fill: #1b9e77; fill-opacity: 0.2"/>
    </g>
   </g>
   <g id="PolyCollection_162">
    <defs>
     <path id="m1a90bd8384" d="M 517.994367 -387.7555 
L 517.994367 -55.1155 
L 520.851022 -55.1155 
L 520.851022 -387.7555 
L 520.851022 -387.7555 
L 517.994367 -387.7555 
z
"/>
    </defs>
    <g clip-path="url(#p90ef4e1ae6)">
     <use xlink:href="#m1a90bd8384" x="0" y="398.34866" style="fill: #d95f02; fill-opacity: 0.2"/>
    </g>
   </g>
   <g id="PolyCollection_163">
    <defs>
     <path id="m20951bfa5e" d="M 520.851022 -387.7555 
L 520.851022 -55.1155 
L 523.707677 -55.1155 
L 523.707677 -387.7555 
L 523.707677 -387.7555 
L 520.851022 -387.7555 
z
"/>
    </defs>
    <g clip-path="url(#p90ef4e1ae6)">
     <use xlink:href="#m20951bfa5e" x="0" y="398.34866" style="fill: #1b9e77; fill-opacity: 0.2"/>
    </g>
   </g>
   <g id="PolyCollection_164">
    <defs>
     <path id="m207c20c3de" d="M 523.707677 -387.7555 
L 523.707677 -55.1155 
L 526.564333 -55.1155 
L 526.564333 -387.7555 
L 526.564333 -387.7555 
L 523.707677 -387.7555 
z
"/>
    </defs>
    <g clip-path="url(#p90ef4e1ae6)">
     <use xlink:href="#m207c20c3de" x="0" y="398.34866" style="fill: #d95f02; fill-opacity: 0.2"/>
    </g>
   </g>
   <g id="PolyCollection_165">
    <defs>
     <path id="m87fb05051b" d="M 526.564333 -387.7555 
L 526.564333 -55.1155 
L 529.420988 -55.1155 
L 529.420988 -387.7555 
L 529.420988 -387.7555 
L 526.564333 -387.7555 
z
"/>
    </defs>
    <g clip-path="url(#p90ef4e1ae6)">
     <use xlink:href="#m87fb05051b" x="0" y="398.34866" style="fill: #1b9e77; fill-opacity: 0.2"/>
    </g>
   </g>
   <g id="PolyCollection_166">
    <defs>
     <path id="mc981590eab" d="M 529.420988 -387.7555 
L 529.420988 -55.1155 
L 532.277643 -55.1155 
L 532.277643 -387.7555 
L 532.277643 -387.7555 
L 529.420988 -387.7555 
z
"/>
    </defs>
    <g clip-path="url(#p90ef4e1ae6)">
     <use xlink:href="#mc981590eab" x="0" y="398.34866" style="fill: #d95f02; fill-opacity: 0.2"/>
    </g>
   </g>
   <g id="PolyCollection_167">
    <defs>
     <path id="mfa202d4b6d" d="M 532.277643 -387.7555 
L 532.277643 -55.1155 
L 535.134299 -55.1155 
L 535.134299 -387.7555 
L 535.134299 -387.7555 
L 532.277643 -387.7555 
z
"/>
    </defs>
    <g clip-path="url(#p90ef4e1ae6)">
     <use xlink:href="#mfa202d4b6d" x="0" y="398.34866" style="fill: #d95f02; fill-opacity: 0.2"/>
    </g>
   </g>
   <g id="PolyCollection_168">
    <defs>
     <path id="m45736dda3d" d="M 535.134299 -387.7555 
L 535.134299 -55.1155 
L 537.990954 -55.1155 
L 537.990954 -387.7555 
L 537.990954 -387.7555 
L 535.134299 -387.7555 
z
"/>
    </defs>
    <g clip-path="url(#p90ef4e1ae6)">
     <use xlink:href="#m45736dda3d" x="0" y="398.34866" style="fill: #1b9e77; fill-opacity: 0.2"/>
    </g>
   </g>
   <g id="PolyCollection_169">
    <defs>
     <path id="m701e191f82" d="M 537.990954 -387.7555 
L 537.990954 -55.1155 
L 540.847609 -55.1155 
L 540.847609 -387.7555 
L 540.847609 -387.7555 
L 537.990954 -387.7555 
z
"/>
    </defs>
    <g clip-path="url(#p90ef4e1ae6)">
     <use xlink:href="#m701e191f82" x="0" y="398.34866" style="fill: #d95f02; fill-opacity: 0.2"/>
    </g>
   </g>
   <g id="PolyCollection_170">
    <defs>
     <path id="mb184b18535" d="M 540.847609 -387.7555 
L 540.847609 -55.1155 
L 543.704265 -55.1155 
L 543.704265 -387.7555 
L 543.704265 -387.7555 
L 540.847609 -387.7555 
z
"/>
    </defs>
    <g clip-path="url(#p90ef4e1ae6)">
     <use xlink:href="#mb184b18535" x="0" y="398.34866" style="fill: #d95f02; fill-opacity: 0.2"/>
    </g>
   </g>
   <g id="PolyCollection_171">
    <defs>
     <path id="ma3631688c9" d="M 543.704265 -387.7555 
L 543.704265 -55.1155 
L 546.56092 -55.1155 
L 546.56092 -387.7555 
L 546.56092 -387.7555 
L 543.704265 -387.7555 
z
"/>
    </defs>
    <g clip-path="url(#p90ef4e1ae6)">
     <use xlink:href="#ma3631688c9" x="0" y="398.34866" style="fill: #1b9e77; fill-opacity: 0.2"/>
    </g>
   </g>
   <g id="PolyCollection_172">
    <defs>
     <path id="mf68afd039c" d="M 546.56092 -387.7555 
L 546.56092 -55.1155 
L 549.417575 -55.1155 
L 549.417575 -387.7555 
L 549.417575 -387.7555 
L 546.56092 -387.7555 
z
"/>
    </defs>
    <g clip-path="url(#p90ef4e1ae6)">
     <use xlink:href="#mf68afd039c" x="0" y="398.34866" style="fill: #1b9e77; fill-opacity: 0.2"/>
    </g>
   </g>
   <g id="PolyCollection_173">
    <defs>
     <path id="m3cbfba1257" d="M 549.417575 -387.7555 
L 549.417575 -55.1155 
L 552.27423 -55.1155 
L 552.27423 -387.7555 
L 552.27423 -387.7555 
L 549.417575 -387.7555 
z
"/>
    </defs>
    <g clip-path="url(#p90ef4e1ae6)">
     <use xlink:href="#m3cbfba1257" x="0" y="398.34866" style="fill: #d95f02; fill-opacity: 0.2"/>
    </g>
   </g>
   <g id="PolyCollection_174">
    <defs>
     <path id="m7f602a01ef" d="M 552.27423 -387.7555 
L 552.27423 -55.1155 
L 555.130886 -55.1155 
L 555.130886 -387.7555 
L 555.130886 -387.7555 
L 552.27423 -387.7555 
z
"/>
    </defs>
    <g clip-path="url(#p90ef4e1ae6)">
     <use xlink:href="#m7f602a01ef" x="0" y="398.34866" style="fill: #d95f02; fill-opacity: 0.2"/>
    </g>
   </g>
   <g id="PolyCollection_175">
    <defs>
     <path id="m08ffee2ab4" d="M 555.130886 -387.7555 
L 555.130886 -55.1155 
L 557.987541 -55.1155 
L 557.987541 -387.7555 
L 557.987541 -387.7555 
L 555.130886 -387.7555 
z
"/>
    </defs>
    <g clip-path="url(#p90ef4e1ae6)">
     <use xlink:href="#m08ffee2ab4" x="0" y="398.34866" style="fill: #d95f02; fill-opacity: 0.2"/>
    </g>
   </g>
   <g id="PolyCollection_176">
    <defs>
     <path id="m1e51011dbc" d="M 557.987541 -387.7555 
L 557.987541 -55.1155 
L 560.844196 -55.1155 
L 560.844196 -387.7555 
L 560.844196 -387.7555 
L 557.987541 -387.7555 
z
"/>
    </defs>
    <g clip-path="url(#p90ef4e1ae6)">
     <use xlink:href="#m1e51011dbc" x="0" y="398.34866" style="fill: #1b9e77; fill-opacity: 0.2"/>
    </g>
   </g>
   <g id="matplotlib.axis_1">
    <g id="xtick_1">
     <g id="line2d_1">
      <defs>
       <path id="m90debe9dae" d="M 0 0 
L 0 4.8 
" style="stroke: #000000"/>
      </defs>
      <g>
       <use xlink:href="#m90debe9dae" x="66.642831" y="343.23316" style="stroke: #000000"/>
      </g>
     </g>
     <g id="text_1">
      <!-- 0 -->
      <g transform="translate(61.043831 364.90641) scale(0.176 -0.176)">
       <defs>
        <path id="DejaVuSans-30" d="M 2034 4250 
Q 1547 4250 1301 3770 
Q 1056 3291 1056 2328 
Q 1056 1369 1301 889 
Q 1547 409 2034 409 
Q 2525 409 2770 889 
Q 3016 1369 3016 2328 
Q 3016 3291 2770 3770 
Q 2525 4250 2034 4250 
z
M 2034 4750 
Q 2819 4750 3233 4129 
Q 3647 3509 3647 2328 
Q 3647 1150 3233 529 
Q 2819 -91 2034 -91 
Q 1250 -91 836 529 
Q 422 1150 422 2328 
Q 422 3509 836 4129 
Q 1250 4750 2034 4750 
z
" transform="scale(0.015625)"/>
       </defs>
       <use xlink:href="#DejaVuSans-30"/>
      </g>
     </g>
    </g>
    <g id="xtick_2">
     <g id="line2d_2">
      <g>
       <use xlink:href="#m90debe9dae" x="123.775937" y="343.23316" style="stroke: #000000"/>
      </g>
     </g>
     <g id="text_2">
      <!-- 20 -->
      <g transform="translate(112.577937 364.90641) scale(0.176 -0.176)">
       <defs>
        <path id="DejaVuSans-32" d="M 1228 531 
L 3431 531 
L 3431 0 
L 469 0 
L 469 531 
Q 828 903 1448 1529 
Q 2069 2156 2228 2338 
Q 2531 2678 2651 2914 
Q 2772 3150 2772 3378 
Q 2772 3750 2511 3984 
Q 2250 4219 1831 4219 
Q 1534 4219 1204 4116 
Q 875 4013 500 3803 
L 500 4441 
Q 881 4594 1212 4672 
Q 1544 4750 1819 4750 
Q 2544 4750 2975 4387 
Q 3406 4025 3406 3419 
Q 3406 3131 3298 2873 
Q 3191 2616 2906 2266 
Q 2828 2175 2409 1742 
Q 1991 1309 1228 531 
z
" transform="scale(0.015625)"/>
       </defs>
       <use xlink:href="#DejaVuSans-32"/>
       <use xlink:href="#DejaVuSans-30" x="63.623047"/>
      </g>
     </g>
    </g>
    <g id="xtick_3">
     <g id="line2d_3">
      <g>
       <use xlink:href="#m90debe9dae" x="180.909043" y="343.23316" style="stroke: #000000"/>
      </g>
     </g>
     <g id="text_3">
      <!-- 40 -->
      <g transform="translate(169.711043 364.90641) scale(0.176 -0.176)">
       <defs>
        <path id="DejaVuSans-34" d="M 2419 4116 
L 825 1625 
L 2419 1625 
L 2419 4116 
z
M 2253 4666 
L 3047 4666 
L 3047 1625 
L 3713 1625 
L 3713 1100 
L 3047 1100 
L 3047 0 
L 2419 0 
L 2419 1100 
L 313 1100 
L 313 1709 
L 2253 4666 
z
" transform="scale(0.015625)"/>
       </defs>
       <use xlink:href="#DejaVuSans-34"/>
       <use xlink:href="#DejaVuSans-30" x="63.623047"/>
      </g>
     </g>
    </g>
    <g id="xtick_4">
     <g id="line2d_4">
      <g>
       <use xlink:href="#m90debe9dae" x="238.042148" y="343.23316" style="stroke: #000000"/>
      </g>
     </g>
     <g id="text_4">
      <!-- 60 -->
      <g transform="translate(226.844148 364.90641) scale(0.176 -0.176)">
       <defs>
        <path id="DejaVuSans-36" d="M 2113 2584 
Q 1688 2584 1439 2293 
Q 1191 2003 1191 1497 
Q 1191 994 1439 701 
Q 1688 409 2113 409 
Q 2538 409 2786 701 
Q 3034 994 3034 1497 
Q 3034 2003 2786 2293 
Q 2538 2584 2113 2584 
z
M 3366 4563 
L 3366 3988 
Q 3128 4100 2886 4159 
Q 2644 4219 2406 4219 
Q 1781 4219 1451 3797 
Q 1122 3375 1075 2522 
Q 1259 2794 1537 2939 
Q 1816 3084 2150 3084 
Q 2853 3084 3261 2657 
Q 3669 2231 3669 1497 
Q 3669 778 3244 343 
Q 2819 -91 2113 -91 
Q 1303 -91 875 529 
Q 447 1150 447 2328 
Q 447 3434 972 4092 
Q 1497 4750 2381 4750 
Q 2619 4750 2861 4703 
Q 3103 4656 3366 4563 
z
" transform="scale(0.015625)"/>
       </defs>
       <use xlink:href="#DejaVuSans-36"/>
       <use xlink:href="#DejaVuSans-30" x="63.623047"/>
      </g>
     </g>
    </g>
    <g id="xtick_5">
     <g id="line2d_5">
      <g>
       <use xlink:href="#m90debe9dae" x="295.175254" y="343.23316" style="stroke: #000000"/>
      </g>
     </g>
     <g id="text_5">
      <!-- 80 -->
      <g transform="translate(283.977254 364.90641) scale(0.176 -0.176)">
       <defs>
        <path id="DejaVuSans-38" d="M 2034 2216 
Q 1584 2216 1326 1975 
Q 1069 1734 1069 1313 
Q 1069 891 1326 650 
Q 1584 409 2034 409 
Q 2484 409 2743 651 
Q 3003 894 3003 1313 
Q 3003 1734 2745 1975 
Q 2488 2216 2034 2216 
z
M 1403 2484 
Q 997 2584 770 2862 
Q 544 3141 544 3541 
Q 544 4100 942 4425 
Q 1341 4750 2034 4750 
Q 2731 4750 3128 4425 
Q 3525 4100 3525 3541 
Q 3525 3141 3298 2862 
Q 3072 2584 2669 2484 
Q 3125 2378 3379 2068 
Q 3634 1759 3634 1313 
Q 3634 634 3220 271 
Q 2806 -91 2034 -91 
Q 1263 -91 848 271 
Q 434 634 434 1313 
Q 434 1759 690 2068 
Q 947 2378 1403 2484 
z
M 1172 3481 
Q 1172 3119 1398 2916 
Q 1625 2713 2034 2713 
Q 2441 2713 2670 2916 
Q 2900 3119 2900 3481 
Q 2900 3844 2670 4047 
Q 2441 4250 2034 4250 
Q 1625 4250 1398 4047 
Q 1172 3844 1172 3481 
z
" transform="scale(0.015625)"/>
       </defs>
       <use xlink:href="#DejaVuSans-38"/>
       <use xlink:href="#DejaVuSans-30" x="63.623047"/>
      </g>
     </g>
    </g>
    <g id="xtick_6">
     <g id="line2d_6">
      <g>
       <use xlink:href="#m90debe9dae" x="352.30836" y="343.23316" style="stroke: #000000"/>
      </g>
     </g>
     <g id="text_6">
      <!-- 100 -->
      <g transform="translate(335.51136 364.90641) scale(0.176 -0.176)">
       <defs>
        <path id="DejaVuSans-31" d="M 794 531 
L 1825 531 
L 1825 4091 
L 703 3866 
L 703 4441 
L 1819 4666 
L 2450 4666 
L 2450 531 
L 3481 531 
L 3481 0 
L 794 0 
L 794 531 
z
" transform="scale(0.015625)"/>
       </defs>
       <use xlink:href="#DejaVuSans-31"/>
       <use xlink:href="#DejaVuSans-30" x="63.623047"/>
       <use xlink:href="#DejaVuSans-30" x="127.246094"/>
      </g>
     </g>
    </g>
    <g id="text_7">
     <!-- State -->
     <g transform="translate(208.06 387.15566) scale(0.192 -0.192)">
      <defs>
       <path id="DejaVuSans-53" d="M 3425 4513 
L 3425 3897 
Q 3066 4069 2747 4153 
Q 2428 4238 2131 4238 
Q 1616 4238 1336 4038 
Q 1056 3838 1056 3469 
Q 1056 3159 1242 3001 
Q 1428 2844 1947 2747 
L 2328 2669 
Q 3034 2534 3370 2195 
Q 3706 1856 3706 1288 
Q 3706 609 3251 259 
Q 2797 -91 1919 -91 
Q 1588 -91 1214 -16 
Q 841 59 441 206 
L 441 856 
Q 825 641 1194 531 
Q 1563 422 1919 422 
Q 2459 422 2753 634 
Q 3047 847 3047 1241 
Q 3047 1584 2836 1778 
Q 2625 1972 2144 2069 
L 1759 2144 
Q 1053 2284 737 2584 
Q 422 2884 422 3419 
Q 422 4038 858 4394 
Q 1294 4750 2059 4750 
Q 2388 4750 2728 4690 
Q 3069 4631 3425 4513 
z
" transform="scale(0.015625)"/>
       <path id="DejaVuSans-74" d="M 1172 4494 
L 1172 3500 
L 2356 3500 
L 2356 3053 
L 1172 3053 
L 1172 1153 
Q 1172 725 1289 603 
Q 1406 481 1766 481 
L 2356 481 
L 2356 0 
L 1766 0 
Q 1100 0 847 248 
Q 594 497 594 1153 
L 594 3053 
L 172 3053 
L 172 3500 
L 594 3500 
L 594 4494 
L 1172 4494 
z
" transform="scale(0.015625)"/>
       <path id="DejaVuSans-61" d="M 2194 1759 
Q 1497 1759 1228 1600 
Q 959 1441 959 1056 
Q 959 750 1161 570 
Q 1363 391 1709 391 
Q 2188 391 2477 730 
Q 2766 1069 2766 1631 
L 2766 1759 
L 2194 1759 
z
M 3341 1997 
L 3341 0 
L 2766 0 
L 2766 531 
Q 2569 213 2275 61 
Q 1981 -91 1556 -91 
Q 1019 -91 701 211 
Q 384 513 384 1019 
Q 384 1609 779 1909 
Q 1175 2209 1959 2209 
L 2766 2209 
L 2766 2266 
Q 2766 2663 2505 2880 
Q 2244 3097 1772 3097 
Q 1472 3097 1187 3025 
Q 903 2953 641 2809 
L 641 3341 
Q 956 3463 1253 3523 
Q 1550 3584 1831 3584 
Q 2591 3584 2966 3190 
Q 3341 2797 3341 1997 
z
" transform="scale(0.015625)"/>
       <path id="DejaVuSans-65" d="M 3597 1894 
L 3597 1613 
L 953 1613 
Q 991 1019 1311 708 
Q 1631 397 2203 397 
Q 2534 397 2845 478 
Q 3156 559 3463 722 
L 3463 178 
Q 3153 47 2828 -22 
Q 2503 -91 2169 -91 
Q 1331 -91 842 396 
Q 353 884 353 1716 
Q 353 2575 817 3079 
Q 1281 3584 2069 3584 
Q 2775 3584 3186 3129 
Q 3597 2675 3597 1894 
z
M 3022 2063 
Q 3016 2534 2758 2815 
Q 2500 3097 2075 3097 
Q 1594 3097 1305 2825 
Q 1016 2553 972 2059 
L 3022 2063 
z
" transform="scale(0.015625)"/>
      </defs>
      <use xlink:href="#DejaVuSans-53"/>
      <use xlink:href="#DejaVuSans-74" x="63.476562"/>
      <use xlink:href="#DejaVuSans-61" x="102.685547"/>
      <use xlink:href="#DejaVuSans-74" x="163.964844"/>
      <use xlink:href="#DejaVuSans-65" x="203.173828"/>
     </g>
    </g>
   </g>
   <g id="matplotlib.axis_2">
    <g id="ytick_1">
     <g id="line2d_7">
      <defs>
       <path id="mbbbc80441b" d="M 0 0 
L -4.8 0 
" style="stroke: #000000"/>
      </defs>
      <g>
       <use xlink:href="#mbbbc80441b" x="66.0715" y="343.23316" style="stroke: #000000"/>
      </g>
     </g>
     <g id="text_8">
      <!-- 0.0 -->
      <g transform="translate(29.782 349.919785) scale(0.176 -0.176)">
       <defs>
        <path id="DejaVuSans-2e" d="M 684 794 
L 1344 794 
L 1344 0 
L 684 0 
L 684 794 
z
" transform="scale(0.015625)"/>
       </defs>
       <use xlink:href="#DejaVuSans-30"/>
       <use xlink:href="#DejaVuSans-2e" x="63.623047"/>
       <use xlink:href="#DejaVuSans-30" x="95.410156"/>
      </g>
     </g>
    </g>
    <g id="ytick_2">
     <g id="line2d_8">
      <g>
       <use xlink:href="#mbbbc80441b" x="66.0715" y="277.363853" style="stroke: #000000"/>
      </g>
     </g>
     <g id="text_9">
      <!-- 0.2 -->
      <g transform="translate(29.782 284.050478) scale(0.176 -0.176)">
       <use xlink:href="#DejaVuSans-30"/>
       <use xlink:href="#DejaVuSans-2e" x="63.623047"/>
       <use xlink:href="#DejaVuSans-32" x="95.410156"/>
      </g>
     </g>
    </g>
    <g id="ytick_3">
     <g id="line2d_9">
      <g>
       <use xlink:href="#mbbbc80441b" x="66.0715" y="211.494546" style="stroke: #000000"/>
      </g>
     </g>
     <g id="text_10">
      <!-- 0.4 -->
      <g transform="translate(29.782 218.181171) scale(0.176 -0.176)">
       <use xlink:href="#DejaVuSans-30"/>
       <use xlink:href="#DejaVuSans-2e" x="63.623047"/>
       <use xlink:href="#DejaVuSans-34" x="95.410156"/>
      </g>
     </g>
    </g>
    <g id="ytick_4">
     <g id="line2d_10">
      <g>
       <use xlink:href="#mbbbc80441b" x="66.0715" y="145.625239" style="stroke: #000000"/>
      </g>
     </g>
     <g id="text_11">
      <!-- 0.6 -->
      <g transform="translate(29.782 152.311864) scale(0.176 -0.176)">
       <use xlink:href="#DejaVuSans-30"/>
       <use xlink:href="#DejaVuSans-2e" x="63.623047"/>
       <use xlink:href="#DejaVuSans-36" x="95.410156"/>
      </g>
     </g>
    </g>
    <g id="ytick_5">
     <g id="line2d_11">
      <g>
       <use xlink:href="#mbbbc80441b" x="66.0715" y="79.755932" style="stroke: #000000"/>
      </g>
     </g>
     <g id="text_12">
      <!-- 0.8 -->
      <g transform="translate(29.782 86.442557) scale(0.176 -0.176)">
       <use xlink:href="#DejaVuSans-30"/>
       <use xlink:href="#DejaVuSans-2e" x="63.623047"/>
       <use xlink:href="#DejaVuSans-38" x="95.410156"/>
      </g>
     </g>
    </g>
    <g id="ytick_6">
     <g id="line2d_12">
      <g>
       <use xlink:href="#mbbbc80441b" x="66.0715" y="13.886625" style="stroke: #000000"/>
      </g>
     </g>
     <g id="text_13">
      <!-- 1.0 -->
      <g transform="translate(29.782 20.57325) scale(0.176 -0.176)">
       <use xlink:href="#DejaVuSans-31"/>
       <use xlink:href="#DejaVuSans-2e" x="63.623047"/>
       <use xlink:href="#DejaVuSans-30" x="95.410156"/>
      </g>
     </g>
    </g>
    <g id="text_14">
     <!-- Score -->
     <g transform="translate(21.789 203.79766) rotate(-90) scale(0.192 -0.192)">
      <defs>
       <path id="DejaVuSans-63" d="M 3122 3366 
L 3122 2828 
Q 2878 2963 2633 3030 
Q 2388 3097 2138 3097 
Q 1578 3097 1268 2742 
Q 959 2388 959 1747 
Q 959 1106 1268 751 
Q 1578 397 2138 397 
Q 2388 397 2633 464 
Q 2878 531 3122 666 
L 3122 134 
Q 2881 22 2623 -34 
Q 2366 -91 2075 -91 
Q 1284 -91 818 406 
Q 353 903 353 1747 
Q 353 2603 823 3093 
Q 1294 3584 2113 3584 
Q 2378 3584 2631 3529 
Q 2884 3475 3122 3366 
z
" transform="scale(0.015625)"/>
       <path id="DejaVuSans-6f" d="M 1959 3097 
Q 1497 3097 1228 2736 
Q 959 2375 959 1747 
Q 959 1119 1226 758 
Q 1494 397 1959 397 
Q 2419 397 2687 759 
Q 2956 1122 2956 1747 
Q 2956 2369 2687 2733 
Q 2419 3097 1959 3097 
z
M 1959 3584 
Q 2709 3584 3137 3096 
Q 3566 2609 3566 1747 
Q 3566 888 3137 398 
Q 2709 -91 1959 -91 
Q 1206 -91 779 398 
Q 353 888 353 1747 
Q 353 2609 779 3096 
Q 1206 3584 1959 3584 
z
" transform="scale(0.015625)"/>
       <path id="DejaVuSans-72" d="M 2631 2963 
Q 2534 3019 2420 3045 
Q 2306 3072 2169 3072 
Q 1681 3072 1420 2755 
Q 1159 2438 1159 1844 
L 1159 0 
L 581 0 
L 581 3500 
L 1159 3500 
L 1159 2956 
Q 1341 3275 1631 3429 
Q 1922 3584 2338 3584 
Q 2397 3584 2469 3576 
Q 2541 3569 2628 3553 
L 2631 2963 
z
" transform="scale(0.015625)"/>
      </defs>
      <use xlink:href="#DejaVuSans-53"/>
      <use xlink:href="#DejaVuSans-63" x="63.476562"/>
      <use xlink:href="#DejaVuSans-6f" x="118.457031"/>
      <use xlink:href="#DejaVuSans-72" x="179.638672"/>
      <use xlink:href="#DejaVuSans-65" x="218.501953"/>
     </g>
    </g>
   </g>
   <g id="line2d_13">
    <path d="M 78.069452 142.450064 
L 80.926108 142.450064 
L 83.782763 142.450064 
L 86.639418 133.219798 
L 92.352729 133.219798 
L 95.209384 129.576117 
L 98.066039 129.52238 
L 100.922695 127.37653 
L 109.49266 127.073334 
L 118.062626 126.049284 
L 123.775937 120.363842 
L 126.632592 120.102392 
L 129.489247 119.398695 
L 135.202558 116.993254 
L 138.059213 116.484335 
L 140.915869 112.62826 
L 143.772524 112.316125 
L 146.629179 104.829715 
L 149.485834 101.811718 
L 160.912456 104.706968 
L 163.769111 103.275551 
L 166.625766 89.721749 
L 169.482422 88.694793 
L 172.339077 83.71858 
L 175.195732 81.557887 
L 178.052387 79.677023 
L 180.909043 79.657325 
L 183.765698 79.341287 
L 195.192319 69.374913 
L 198.048974 67.402859 
L 200.90563 66.259141 
L 203.762285 65.997763 
L 212.332251 65.298336 
L 215.188906 62.285972 
L 218.045561 59.178403 
L 220.902217 59.178403 
L 223.758872 57.507976 
L 226.615527 55.9263 
L 229.472183 80.010605 
L 238.042148 64.184721 
L 246.612114 69.821961 
L 260.895391 69.821961 
L 263.752046 71.737671 
L 266.608701 69.589494 
L 269.465357 68.258614 
L 272.322012 67.886625 
L 275.178667 64.707814 
L 278.035323 64.59682 
L 280.891978 64.112197 
L 283.748633 63.869487 
L 286.605288 63.333721 
L 289.461944 61.079019 
L 292.318599 60.767074 
L 295.175254 60.847357 
L 303.74522 60.389929 
L 306.601875 60.389929 
L 312.315186 60.389929 
L 318.028497 60.389929 
L 320.885152 60.389929 
L 323.741807 60.389929 
L 326.598462 58.372224 
L 335.168428 67.654251 
L 338.025084 59.02051 
L 340.881739 58.160244 
L 343.738394 58.01824 
L 346.595049 55.871077 
L 349.451705 54.930566 
L 352.30836 48.777541 
L 392.301534 53.289258 
L 395.158189 51.155442 
L 398.014845 48.475147 
L 400.8715 48.466333 
L 403.728155 45.644133 
L 406.584811 45.491013 
L 409.0715 44.921752 
" clip-path="url(#p90ef4e1ae6)" style="fill: none; stroke-dasharray: 2,3.3; stroke-dashoffset: 0; stroke: #e41a1c; stroke-width: 2"/>
   </g>
   <g id="line2d_14">
    <path d="M 66.642831 343.23316 
L 69.499486 343.23316 
L 72.356142 343.23316 
L 75.212797 343.23316 
L 78.069452 121.433614 
L 80.926108 121.433614 
L 83.782763 121.433614 
L 86.639418 121.433614 
L 92.352729 121.433614 
L 95.209384 121.433614 
L 98.066039 121.433614 
L 100.922695 121.347645 
L 109.49266 121.261676 
L 118.062626 121.00377 
L 123.775937 121.00377 
L 126.632592 120.917801 
L 129.489247 120.917801 
L 135.202558 120.831832 
L 138.059213 120.745863 
L 140.915869 120.573926 
L 143.772524 120.573926 
L 146.629179 120.573926 
L 149.485834 120.401988 
L 160.912456 113.610452 
L 163.769111 113.610452 
L 166.625766 113.610452 
L 169.482422 113.610452 
L 172.339077 113.524483 
L 175.195732 113.524483 
L 178.052387 113.524483 
L 180.909043 113.438514 
L 183.765698 113.438514 
L 195.192319 113.266576 
L 198.048974 113.266576 
L 200.90563 113.180608 
L 203.762285 113.180608 
L 212.332251 113.180608 
L 215.188906 113.180608 
L 218.045561 113.00867 
L 220.902217 113.00867 
L 223.758872 112.922701 
L 226.615527 112.922701 
L 229.472183 94.439406 
L 238.042148 94.267468 
L 246.612114 84.381054 
L 260.895391 84.381054 
L 263.752046 77.761455 
L 266.608701 77.589518 
L 269.465357 77.589518 
L 272.322012 77.589518 
L 275.178667 77.503549 
L 278.035323 76.815798 
L 280.891978 76.643861 
L 283.748633 76.557892 
L 286.605288 76.557892 
L 289.461944 76.471923 
L 292.318599 76.471923 
L 295.175254 69.766355 
L 303.74522 69.766355 
L 306.601875 69.766355 
L 312.315186 69.766355 
L 318.028497 69.766355 
L 320.885152 69.766355 
L 323.741807 69.766355 
L 326.598462 55.323594 
L 335.168428 44.491524 
L 338.025084 44.405555 
L 340.881739 44.319586 
L 343.738394 44.319586 
L 346.595049 44.319586 
L 349.451705 44.319586 
L 352.30836 44.319586 
L 392.301534 41.482615 
L 395.158189 41.396646 
L 398.014845 41.396646 
L 400.8715 41.310677 
L 403.728155 41.13874 
L 406.584811 41.13874 
L 409.0715 41.13874 
" clip-path="url(#p90ef4e1ae6)" style="fill: none; stroke-dasharray: 7.4,3.2; stroke-dashoffset: 0; stroke: #377eb8; stroke-width: 2"/>
   </g>
   <g id="line2d_15">
    <path d="M 78.069452 132.464448 
L 80.926108 132.464448 
L 83.782763 132.464448 
L 86.639418 127.487556 
L 92.352729 127.487556 
L 95.209384 125.580993 
L 98.066039 125.553114 
L 100.922695 124.403605 
L 109.49266 124.20605 
L 118.062626 123.555494 
L 123.775937 120.684266 
L 126.632592 120.510843 
L 129.489247 120.160834 
L 135.202558 118.928965 
L 138.059213 118.635312 
L 140.915869 116.670736 
L 143.772524 116.520196 
L 146.629179 112.970634 
L 149.485834 111.479062 
L 160.912456 109.243375 
L 163.769111 108.556731 
L 166.625766 102.256692 
L 169.482422 101.793721 
L 172.339077 99.529493 
L 175.195732 98.580966 
L 178.052387 97.762047 
L 180.909043 97.704422 
L 183.765698 97.56739 
L 195.192319 93.232598 
L 198.048974 92.414091 
L 200.90563 91.890987 
L 203.762285 91.783423 
L 212.332251 91.496134 
L 215.188906 90.267796 
L 218.045561 88.910778 
L 220.902217 88.910778 
L 223.758872 88.190707 
L 226.615527 87.562523 
L 229.472183 87.42831 
L 238.042148 80.083052 
L 246.612114 77.300627 
L 260.895391 77.300627 
L 263.752046 74.783351 
L 266.608701 73.648844 
L 269.465357 73.00459 
L 272.322012 72.825084 
L 275.178667 71.256099 
L 278.035323 70.843272 
L 280.891978 70.521917 
L 283.748633 70.361111 
L 286.605288 70.105784 
L 289.461944 68.991298 
L 292.318599 68.844034 
L 295.175254 65.378412 
L 303.74522 65.157161 
L 306.601875 65.157161 
L 312.315186 65.157161 
L 318.028497 65.157161 
L 320.885152 65.157161 
L 323.741807 65.157161 
L 326.598462 56.856022 
L 335.168428 56.539971 
L 338.025084 51.896207 
L 340.881739 51.403929 
L 343.738394 51.32954 
L 346.595049 50.209132 
L 349.451705 49.720946 
L 352.30836 46.56531 
L 392.301534 47.503731 
L 395.158189 46.356219 
L 398.014845 44.977889 
L 400.8715 44.931411 
L 403.728155 43.408361 
L 406.584811 43.330666 
L 409.0715 43.042518 
" clip-path="url(#p90ef4e1ae6)" style="fill: none; stroke: #984ea3; stroke-width: 3; stroke-linecap: square"/>
   </g>
   <g id="patch_3">
    <path d="M 66.0715 343.23316 
L 66.0715 10.59316 
" style="fill: none; stroke: #000000; stroke-linejoin: miter; stroke-linecap: square"/>
   </g>
   <g id="patch_4">
    <path d="M 66.0715 343.23316 
L 400.8715 343.23316 
" style="fill: none; stroke: #000000; stroke-linejoin: miter; stroke-linecap: square"/>
   </g>
   <g id="legend_1">
    <g id="patch_5">
     <path d="M 253.71075 334.43316 
L 388.5515 334.43316 
Q 392.0715 334.43316 392.0715 330.91316 
L 392.0715 255.17266 
Q 392.0715 251.65266 388.5515 251.65266 
L 253.71075 251.65266 
Q 250.19075 251.65266 250.19075 255.17266 
L 250.19075 330.91316 
Q 250.19075 334.43316 253.71075 334.43316 
z
" style="fill: #ffffff; opacity: 0.8; stroke: #cccccc; stroke-width: 0.8; stroke-linejoin: miter"/>
    </g>
    <g id="line2d_16">
     <path d="M 257.23075 265.90591 
L 274.83075 265.90591 
L 292.43075 265.90591 
" style="fill: none; stroke-dasharray: 2,3.3; stroke-dashoffset: 0; stroke: #e41a1c; stroke-width: 2"/>
    </g>
    <g id="text_15">
     <!-- Precision -->
     <g transform="translate(306.51075 272.06591) scale(0.176 -0.176)">
      <defs>
       <path id="DejaVuSans-50" d="M 1259 4147 
L 1259 2394 
L 2053 2394 
Q 2494 2394 2734 2622 
Q 2975 2850 2975 3272 
Q 2975 3691 2734 3919 
Q 2494 4147 2053 4147 
L 1259 4147 
z
M 628 4666 
L 2053 4666 
Q 2838 4666 3239 4311 
Q 3641 3956 3641 3272 
Q 3641 2581 3239 2228 
Q 2838 1875 2053 1875 
L 1259 1875 
L 1259 0 
L 628 0 
L 628 4666 
z
" transform="scale(0.015625)"/>
       <path id="DejaVuSans-69" d="M 603 3500 
L 1178 3500 
L 1178 0 
L 603 0 
L 603 3500 
z
M 603 4863 
L 1178 4863 
L 1178 4134 
L 603 4134 
L 603 4863 
z
" transform="scale(0.015625)"/>
       <path id="DejaVuSans-73" d="M 2834 3397 
L 2834 2853 
Q 2591 2978 2328 3040 
Q 2066 3103 1784 3103 
Q 1356 3103 1142 2972 
Q 928 2841 928 2578 
Q 928 2378 1081 2264 
Q 1234 2150 1697 2047 
L 1894 2003 
Q 2506 1872 2764 1633 
Q 3022 1394 3022 966 
Q 3022 478 2636 193 
Q 2250 -91 1575 -91 
Q 1294 -91 989 -36 
Q 684 19 347 128 
L 347 722 
Q 666 556 975 473 
Q 1284 391 1588 391 
Q 1994 391 2212 530 
Q 2431 669 2431 922 
Q 2431 1156 2273 1281 
Q 2116 1406 1581 1522 
L 1381 1569 
Q 847 1681 609 1914 
Q 372 2147 372 2553 
Q 372 3047 722 3315 
Q 1072 3584 1716 3584 
Q 2034 3584 2315 3537 
Q 2597 3491 2834 3397 
z
" transform="scale(0.015625)"/>
       <path id="DejaVuSans-6e" d="M 3513 2113 
L 3513 0 
L 2938 0 
L 2938 2094 
Q 2938 2591 2744 2837 
Q 2550 3084 2163 3084 
Q 1697 3084 1428 2787 
Q 1159 2491 1159 1978 
L 1159 0 
L 581 0 
L 581 3500 
L 1159 3500 
L 1159 2956 
Q 1366 3272 1645 3428 
Q 1925 3584 2291 3584 
Q 2894 3584 3203 3211 
Q 3513 2838 3513 2113 
z
" transform="scale(0.015625)"/>
      </defs>
      <use xlink:href="#DejaVuSans-50"/>
      <use xlink:href="#DejaVuSans-72" x="58.552734"/>
      <use xlink:href="#DejaVuSans-65" x="97.416016"/>
      <use xlink:href="#DejaVuSans-63" x="158.939453"/>
      <use xlink:href="#DejaVuSans-69" x="213.919922"/>
      <use xlink:href="#DejaVuSans-73" x="241.703125"/>
      <use xlink:href="#DejaVuSans-69" x="293.802734"/>
      <use xlink:href="#DejaVuSans-6f" x="321.585938"/>
      <use xlink:href="#DejaVuSans-6e" x="382.767578"/>
     </g>
    </g>
    <g id="line2d_17">
     <path d="M 257.23075 291.73941 
L 274.83075 291.73941 
L 292.43075 291.73941 
" style="fill: none; stroke-dasharray: 7.4,3.2; stroke-dashoffset: 0; stroke: #377eb8; stroke-width: 2"/>
    </g>
    <g id="text_16">
     <!-- Recall -->
     <g transform="translate(306.51075 297.89941) scale(0.176 -0.176)">
      <defs>
       <path id="DejaVuSans-52" d="M 2841 2188 
Q 3044 2119 3236 1894 
Q 3428 1669 3622 1275 
L 4263 0 
L 3584 0 
L 2988 1197 
Q 2756 1666 2539 1819 
Q 2322 1972 1947 1972 
L 1259 1972 
L 1259 0 
L 628 0 
L 628 4666 
L 2053 4666 
Q 2853 4666 3247 4331 
Q 3641 3997 3641 3322 
Q 3641 2881 3436 2590 
Q 3231 2300 2841 2188 
z
M 1259 4147 
L 1259 2491 
L 2053 2491 
Q 2509 2491 2742 2702 
Q 2975 2913 2975 3322 
Q 2975 3731 2742 3939 
Q 2509 4147 2053 4147 
L 1259 4147 
z
" transform="scale(0.015625)"/>
       <path id="DejaVuSans-6c" d="M 603 4863 
L 1178 4863 
L 1178 0 
L 603 0 
L 603 4863 
z
" transform="scale(0.015625)"/>
      </defs>
      <use xlink:href="#DejaVuSans-52"/>
      <use xlink:href="#DejaVuSans-65" x="64.982422"/>
      <use xlink:href="#DejaVuSans-63" x="126.505859"/>
      <use xlink:href="#DejaVuSans-61" x="181.486328"/>
      <use xlink:href="#DejaVuSans-6c" x="242.765625"/>
      <use xlink:href="#DejaVuSans-6c" x="270.548828"/>
     </g>
    </g>
    <g id="line2d_18">
     <path d="M 257.23075 317.57291 
L 274.83075 317.57291 
L 292.43075 317.57291 
" style="fill: none; stroke: #984ea3; stroke-width: 3; stroke-linecap: square"/>
    </g>
    <g id="text_17">
     <!-- F1 -->
     <g transform="translate(306.51075 323.73291) scale(0.176 -0.176)">
      <defs>
       <path id="DejaVuSans-46" d="M 628 4666 
L 3309 4666 
L 3309 4134 
L 1259 4134 
L 1259 2759 
L 3109 2759 
L 3109 2228 
L 1259 2228 
L 1259 0 
L 628 0 
L 628 4666 
z
" transform="scale(0.015625)"/>
      </defs>
      <use xlink:href="#DejaVuSans-46"/>
      <use xlink:href="#DejaVuSans-31" x="57.519531"/>
     </g>
    </g>
   </g>
  </g>
 </g>
 <defs>
  <clipPath id="p90ef4e1ae6">
   <rect x="66.0715" y="10.59316" width="334.8" height="332.64"/>
  </clipPath>
 </defs>
</svg>
