<?xml version="1.0" encoding="utf-8" standalone="no"?>
<!DOCTYPE svg PUBLIC "-//W3C//DTD SVG 1.1//EN"
  "http://www.w3.org/Graphics/SVG/1.1/DTD/svg11.dtd">
<svg xmlns:xlink="http://www.w3.org/1999/xlink" width="413.798912pt" height="398.34866pt" viewBox="0 0 413.798912 398.34866" xmlns="http://www.w3.org/2000/svg" version="1.1">
 <metadata>
  <rdf:RDF xmlns:dc="http://purl.org/dc/elements/1.1/" xmlns:cc="http://creativecommons.org/ns#" xmlns:rdf="http://www.w3.org/1999/02/22-rdf-syntax-ns#">
   <cc:Work>
    <dc:type rdf:resource="http://purl.org/dc/dcmitype/StillImage"/>
    <dc:date>2024-10-01T11:02:27.399611</dc:date>
    <dc:format>image/svg+xml</dc:format>
    <dc:creator>
     <cc:Agent>
      <dc:title>Matplotlib v3.8.0, https://matplotlib.org/</dc:title>
     </cc:Agent>
    </dc:creator>
   </cc:Work>
  </rdf:RDF>
 </metadata>
 <defs>
  <style type="text/css">*{stroke-linejoin: round; stroke-linecap: butt}</style>
 </defs>
 <g id="figure_1">
  <g id="patch_1">
   <path d="M 0 398.34866 
L 413.798912 398.34866 
L 413.798912 0 
L 0 0 
z
" style="fill: #ffffff"/>
  </g>
  <g id="axes_1">
   <g id="patch_2">
    <path d="M 66.0715 343.23316 
L 400.8715 343.23316 
L 400.8715 10.59316 
L 66.0715 10.59316 
z
" style="fill: #ffffff"/>
   </g>
   <g id="PolyCollection_1"/>
   <g id="PolyCollection_2"/>
   <g id="PolyCollection_3"/>
   <g id="PolyCollection_4">
    <defs>
     <path id="m52647999f3" d="M 67.165618 -387.7555 
L 67.165618 -55.1155 
L 72.636206 -55.1155 
L 72.636206 -387.7555 
L 72.636206 -387.7555 
L 67.165618 -387.7555 
z
"/>
    </defs>
    <g clip-path="url(#pba296952d2)">
     <use xlink:href="#m52647999f3" x="0" y="398.34866" style="fill: #1b9e77; fill-opacity: 0.2"/>
    </g>
   </g>
   <g id="PolyCollection_5">
    <defs>
     <path id="m21b0790377" d="M 72.636206 -387.7555 
L 72.636206 -55.1155 
L 78.106794 -55.1155 
L 78.106794 -387.7555 
L 78.106794 -387.7555 
L 72.636206 -387.7555 
z
"/>
    </defs>
    <g clip-path="url(#pba296952d2)">
     <use xlink:href="#m21b0790377" x="0" y="398.34866" style="fill: #1b9e77; fill-opacity: 0.2"/>
    </g>
   </g>
   <g id="PolyCollection_6">
    <defs>
     <path id="m17cea35adc" d="M 78.106794 -387.7555 
L 78.106794 -55.1155 
L 83.577382 -55.1155 
L 83.577382 -387.7555 
L 83.577382 -387.7555 
L 78.106794 -387.7555 
z
"/>
    </defs>
    <g clip-path="url(#pba296952d2)">
     <use xlink:href="#m17cea35adc" x="0" y="398.34866" style="fill: #1b9e77; fill-opacity: 0.2"/>
    </g>
   </g>
   <g id="PolyCollection_7">
    <defs>
     <path id="m7fbe888b7e" d="M 83.577382 -387.7555 
L 83.577382 -55.1155 
L 89.047971 -55.1155 
L 89.047971 -387.7555 
L 89.047971 -387.7555 
L 83.577382 -387.7555 
z
"/>
    </defs>
    <g clip-path="url(#pba296952d2)">
     <use xlink:href="#m7fbe888b7e" x="0" y="398.34866" style="fill: #d95f02; fill-opacity: 0.2"/>
    </g>
   </g>
   <g id="PolyCollection_8">
    <defs>
     <path id="mbde6e849b9" d="M 89.047971 -387.7555 
L 89.047971 -55.1155 
L 94.518559 -55.1155 
L 94.518559 -387.7555 
L 94.518559 -387.7555 
L 89.047971 -387.7555 
z
"/>
    </defs>
    <g clip-path="url(#pba296952d2)">
     <use xlink:href="#mbde6e849b9" x="0" y="398.34866" style="fill: #1b9e77; fill-opacity: 0.2"/>
    </g>
   </g>
   <g id="PolyCollection_9">
    <defs>
     <path id="maa43777d08" d="M 94.518559 -387.7555 
L 94.518559 -55.1155 
L 99.989147 -55.1155 
L 99.989147 -387.7555 
L 99.989147 -387.7555 
L 94.518559 -387.7555 
z
"/>
    </defs>
    <g clip-path="url(#pba296952d2)">
     <use xlink:href="#maa43777d08" x="0" y="398.34866" style="fill: #1b9e77; fill-opacity: 0.2"/>
    </g>
   </g>
   <g id="PolyCollection_10">
    <defs>
     <path id="ma336b1c778" d="M 99.989147 -387.7555 
L 99.989147 -55.1155 
L 105.459735 -55.1155 
L 105.459735 -387.7555 
L 105.459735 -387.7555 
L 99.989147 -387.7555 
z
"/>
    </defs>
    <g clip-path="url(#pba296952d2)">
     <use xlink:href="#ma336b1c778" x="0" y="398.34866" style="fill: #1b9e77; fill-opacity: 0.2"/>
    </g>
   </g>
   <g id="PolyCollection_11">
    <defs>
     <path id="mc4b25c972e" d="M 105.459735 -387.7555 
L 105.459735 -55.1155 
L 110.930324 -55.1155 
L 110.930324 -387.7555 
L 110.930324 -387.7555 
L 105.459735 -387.7555 
z
"/>
    </defs>
    <g clip-path="url(#pba296952d2)">
     <use xlink:href="#mc4b25c972e" x="0" y="398.34866" style="fill: #1b9e77; fill-opacity: 0.2"/>
    </g>
   </g>
   <g id="PolyCollection_12">
    <defs>
     <path id="mfafbb452f7" d="M 110.930324 -387.7555 
L 110.930324 -55.1155 
L 116.400912 -55.1155 
L 116.400912 -387.7555 
L 116.400912 -387.7555 
L 110.930324 -387.7555 
z
"/>
    </defs>
    <g clip-path="url(#pba296952d2)">
     <use xlink:href="#mfafbb452f7" x="0" y="398.34866" style="fill: #d95f02; fill-opacity: 0.2"/>
    </g>
   </g>
   <g id="PolyCollection_13">
    <defs>
     <path id="ma5ec9b6bb2" d="M 116.400912 -387.7555 
L 116.400912 -55.1155 
L 121.8715 -55.1155 
L 121.8715 -387.7555 
L 121.8715 -387.7555 
L 116.400912 -387.7555 
z
"/>
    </defs>
    <g clip-path="url(#pba296952d2)">
     <use xlink:href="#ma5ec9b6bb2" x="0" y="398.34866" style="fill: #d95f02; fill-opacity: 0.2"/>
    </g>
   </g>
   <g id="PolyCollection_14">
    <defs>
     <path id="m1c9e1b5e2f" d="M 121.8715 -387.7555 
L 121.8715 -55.1155 
L 127.342088 -55.1155 
L 127.342088 -387.7555 
L 127.342088 -387.7555 
L 121.8715 -387.7555 
z
"/>
    </defs>
    <g clip-path="url(#pba296952d2)">
     <use xlink:href="#m1c9e1b5e2f" x="0" y="398.34866" style="fill: #d95f02; fill-opacity: 0.2"/>
    </g>
   </g>
   <g id="PolyCollection_15">
    <defs>
     <path id="m6cf3f539d2" d="M 127.342088 -387.7555 
L 127.342088 -55.1155 
L 132.812676 -55.1155 
L 132.812676 -387.7555 
L 132.812676 -387.7555 
L 127.342088 -387.7555 
z
"/>
    </defs>
    <g clip-path="url(#pba296952d2)">
     <use xlink:href="#m6cf3f539d2" x="0" y="398.34866" style="fill: #d95f02; fill-opacity: 0.2"/>
    </g>
   </g>
   <g id="PolyCollection_16">
    <defs>
     <path id="m549c5c65b2" d="M 132.812676 -387.7555 
L 132.812676 -55.1155 
L 138.283265 -55.1155 
L 138.283265 -387.7555 
L 138.283265 -387.7555 
L 132.812676 -387.7555 
z
"/>
    </defs>
    <g clip-path="url(#pba296952d2)">
     <use xlink:href="#m549c5c65b2" x="0" y="398.34866" style="fill: #d95f02; fill-opacity: 0.2"/>
    </g>
   </g>
   <g id="PolyCollection_17">
    <defs>
     <path id="m8b22395a0d" d="M 138.283265 -387.7555 
L 138.283265 -55.1155 
L 143.753853 -55.1155 
L 143.753853 -387.7555 
L 143.753853 -387.7555 
L 138.283265 -387.7555 
z
"/>
    </defs>
    <g clip-path="url(#pba296952d2)">
     <use xlink:href="#m8b22395a0d" x="0" y="398.34866" style="fill: #d95f02; fill-opacity: 0.2"/>
    </g>
   </g>
   <g id="PolyCollection_18">
    <defs>
     <path id="mf1a5839b6d" d="M 143.753853 -387.7555 
L 143.753853 -55.1155 
L 149.224441 -55.1155 
L 149.224441 -387.7555 
L 149.224441 -387.7555 
L 143.753853 -387.7555 
z
"/>
    </defs>
    <g clip-path="url(#pba296952d2)">
     <use xlink:href="#mf1a5839b6d" x="0" y="398.34866" style="fill: #d95f02; fill-opacity: 0.2"/>
    </g>
   </g>
   <g id="PolyCollection_19">
    <defs>
     <path id="m0cd88bf3ed" d="M 149.224441 -387.7555 
L 149.224441 -55.1155 
L 154.695029 -55.1155 
L 154.695029 -387.7555 
L 154.695029 -387.7555 
L 149.224441 -387.7555 
z
"/>
    </defs>
    <g clip-path="url(#pba296952d2)">
     <use xlink:href="#m0cd88bf3ed" x="0" y="398.34866" style="fill: #d95f02; fill-opacity: 0.2"/>
    </g>
   </g>
   <g id="PolyCollection_20">
    <defs>
     <path id="m84a3689fab" d="M 154.695029 -387.7555 
L 154.695029 -55.1155 
L 160.165618 -55.1155 
L 160.165618 -387.7555 
L 160.165618 -387.7555 
L 154.695029 -387.7555 
z
"/>
    </defs>
    <g clip-path="url(#pba296952d2)">
     <use xlink:href="#m84a3689fab" x="0" y="398.34866" style="fill: #d95f02; fill-opacity: 0.2"/>
    </g>
   </g>
   <g id="PolyCollection_21">
    <defs>
     <path id="mc66630a604" d="M 160.165618 -387.7555 
L 160.165618 -55.1155 
L 165.636206 -55.1155 
L 165.636206 -387.7555 
L 165.636206 -387.7555 
L 160.165618 -387.7555 
z
"/>
    </defs>
    <g clip-path="url(#pba296952d2)">
     <use xlink:href="#mc66630a604" x="0" y="398.34866" style="fill: #d95f02; fill-opacity: 0.2"/>
    </g>
   </g>
   <g id="PolyCollection_22">
    <defs>
     <path id="m5c219196d3" d="M 165.636206 -387.7555 
L 165.636206 -55.1155 
L 171.106794 -55.1155 
L 171.106794 -387.7555 
L 171.106794 -387.7555 
L 165.636206 -387.7555 
z
"/>
    </defs>
    <g clip-path="url(#pba296952d2)">
     <use xlink:href="#m5c219196d3" x="0" y="398.34866" style="fill: #d95f02; fill-opacity: 0.2"/>
    </g>
   </g>
   <g id="PolyCollection_23">
    <defs>
     <path id="mf47f06de71" d="M 171.106794 -387.7555 
L 171.106794 -55.1155 
L 176.577382 -55.1155 
L 176.577382 -387.7555 
L 176.577382 -387.7555 
L 171.106794 -387.7555 
z
"/>
    </defs>
    <g clip-path="url(#pba296952d2)">
     <use xlink:href="#mf47f06de71" x="0" y="398.34866" style="fill: #d95f02; fill-opacity: 0.2"/>
    </g>
   </g>
   <g id="PolyCollection_24">
    <defs>
     <path id="m9a5857f49c" d="M 176.577382 -387.7555 
L 176.577382 -55.1155 
L 182.047971 -55.1155 
L 182.047971 -387.7555 
L 182.047971 -387.7555 
L 176.577382 -387.7555 
z
"/>
    </defs>
    <g clip-path="url(#pba296952d2)">
     <use xlink:href="#m9a5857f49c" x="0" y="398.34866" style="fill: #d95f02; fill-opacity: 0.2"/>
    </g>
   </g>
   <g id="PolyCollection_25">
    <defs>
     <path id="m8ddf28b29d" d="M 182.047971 -387.7555 
L 182.047971 -55.1155 
L 187.518559 -55.1155 
L 187.518559 -387.7555 
L 187.518559 -387.7555 
L 182.047971 -387.7555 
z
"/>
    </defs>
    <g clip-path="url(#pba296952d2)">
     <use xlink:href="#m8ddf28b29d" x="0" y="398.34866" style="fill: #d95f02; fill-opacity: 0.2"/>
    </g>
   </g>
   <g id="PolyCollection_26">
    <defs>
     <path id="m056783b6c8" d="M 187.518559 -387.7555 
L 187.518559 -55.1155 
L 192.989147 -55.1155 
L 192.989147 -387.7555 
L 192.989147 -387.7555 
L 187.518559 -387.7555 
z
"/>
    </defs>
    <g clip-path="url(#pba296952d2)">
     <use xlink:href="#m056783b6c8" x="0" y="398.34866" style="fill: #d95f02; fill-opacity: 0.2"/>
    </g>
   </g>
   <g id="PolyCollection_27">
    <defs>
     <path id="m20ba3a41dc" d="M 192.989147 -387.7555 
L 192.989147 -55.1155 
L 198.459735 -55.1155 
L 198.459735 -387.7555 
L 198.459735 -387.7555 
L 192.989147 -387.7555 
z
"/>
    </defs>
    <g clip-path="url(#pba296952d2)">
     <use xlink:href="#m20ba3a41dc" x="0" y="398.34866" style="fill: #d95f02; fill-opacity: 0.2"/>
    </g>
   </g>
   <g id="PolyCollection_28">
    <defs>
     <path id="m1a5bb73c30" d="M 198.459735 -387.7555 
L 198.459735 -55.1155 
L 203.930324 -55.1155 
L 203.930324 -387.7555 
L 203.930324 -387.7555 
L 198.459735 -387.7555 
z
"/>
    </defs>
    <g clip-path="url(#pba296952d2)">
     <use xlink:href="#m1a5bb73c30" x="0" y="398.34866" style="fill: #1b9e77; fill-opacity: 0.2"/>
    </g>
   </g>
   <g id="PolyCollection_29">
    <defs>
     <path id="m88b4c5a380" d="M 203.930324 -387.7555 
L 203.930324 -55.1155 
L 209.400912 -55.1155 
L 209.400912 -387.7555 
L 209.400912 -387.7555 
L 203.930324 -387.7555 
z
"/>
    </defs>
    <g clip-path="url(#pba296952d2)">
     <use xlink:href="#m88b4c5a380" x="0" y="398.34866" style="fill: #1b9e77; fill-opacity: 0.2"/>
    </g>
   </g>
   <g id="PolyCollection_30">
    <defs>
     <path id="m76b20a7718" d="M 209.400912 -387.7555 
L 209.400912 -55.1155 
L 214.8715 -55.1155 
L 214.8715 -387.7555 
L 214.8715 -387.7555 
L 209.400912 -387.7555 
z
"/>
    </defs>
    <g clip-path="url(#pba296952d2)">
     <use xlink:href="#m76b20a7718" x="0" y="398.34866" style="fill: #1b9e77; fill-opacity: 0.2"/>
    </g>
   </g>
   <g id="PolyCollection_31">
    <defs>
     <path id="m7ced6a443a" d="M 214.8715 -387.7555 
L 214.8715 -55.1155 
L 220.342088 -55.1155 
L 220.342088 -387.7555 
L 220.342088 -387.7555 
L 214.8715 -387.7555 
z
"/>
    </defs>
    <g clip-path="url(#pba296952d2)">
     <use xlink:href="#m7ced6a443a" x="0" y="398.34866" style="fill: #1b9e77; fill-opacity: 0.2"/>
    </g>
   </g>
   <g id="PolyCollection_32">
    <defs>
     <path id="m81dcfddf63" d="M 220.342088 -387.7555 
L 220.342088 -55.1155 
L 225.812676 -55.1155 
L 225.812676 -387.7555 
L 225.812676 -387.7555 
L 220.342088 -387.7555 
z
"/>
    </defs>
    <g clip-path="url(#pba296952d2)">
     <use xlink:href="#m81dcfddf63" x="0" y="398.34866" style="fill: #1b9e77; fill-opacity: 0.2"/>
    </g>
   </g>
   <g id="PolyCollection_33">
    <defs>
     <path id="m36466ebd4c" d="M 225.812676 -387.7555 
L 225.812676 -55.1155 
L 231.283265 -55.1155 
L 231.283265 -387.7555 
L 231.283265 -387.7555 
L 225.812676 -387.7555 
z
"/>
    </defs>
    <g clip-path="url(#pba296952d2)">
     <use xlink:href="#m36466ebd4c" x="0" y="398.34866" style="fill: #1b9e77; fill-opacity: 0.2"/>
    </g>
   </g>
   <g id="PolyCollection_34">
    <defs>
     <path id="m5ed7398197" d="M 231.283265 -387.7555 
L 231.283265 -55.1155 
L 236.753853 -55.1155 
L 236.753853 -387.7555 
L 236.753853 -387.7555 
L 231.283265 -387.7555 
z
"/>
    </defs>
    <g clip-path="url(#pba296952d2)">
     <use xlink:href="#m5ed7398197" x="0" y="398.34866" style="fill: #1b9e77; fill-opacity: 0.2"/>
    </g>
   </g>
   <g id="PolyCollection_35">
    <defs>
     <path id="mb958f72f36" d="M 236.753853 -387.7555 
L 236.753853 -55.1155 
L 242.224441 -55.1155 
L 242.224441 -387.7555 
L 242.224441 -387.7555 
L 236.753853 -387.7555 
z
"/>
    </defs>
    <g clip-path="url(#pba296952d2)">
     <use xlink:href="#mb958f72f36" x="0" y="398.34866" style="fill: #d95f02; fill-opacity: 0.2"/>
    </g>
   </g>
   <g id="PolyCollection_36">
    <defs>
     <path id="m988a289ff8" d="M 242.224441 -387.7555 
L 242.224441 -55.1155 
L 247.695029 -55.1155 
L 247.695029 -387.7555 
L 247.695029 -387.7555 
L 242.224441 -387.7555 
z
"/>
    </defs>
    <g clip-path="url(#pba296952d2)">
     <use xlink:href="#m988a289ff8" x="0" y="398.34866" style="fill: #d95f02; fill-opacity: 0.2"/>
    </g>
   </g>
   <g id="PolyCollection_37">
    <defs>
     <path id="m0937fab5d0" d="M 247.695029 -387.7555 
L 247.695029 -55.1155 
L 253.165618 -55.1155 
L 253.165618 -387.7555 
L 253.165618 -387.7555 
L 247.695029 -387.7555 
z
"/>
    </defs>
    <g clip-path="url(#pba296952d2)">
     <use xlink:href="#m0937fab5d0" x="0" y="398.34866" style="fill: #d95f02; fill-opacity: 0.2"/>
    </g>
   </g>
   <g id="PolyCollection_38">
    <defs>
     <path id="mf0f4757c9a" d="M 253.165618 -387.7555 
L 253.165618 -55.1155 
L 258.636206 -55.1155 
L 258.636206 -387.7555 
L 258.636206 -387.7555 
L 253.165618 -387.7555 
z
"/>
    </defs>
    <g clip-path="url(#pba296952d2)">
     <use xlink:href="#mf0f4757c9a" x="0" y="398.34866" style="fill: #1b9e77; fill-opacity: 0.2"/>
    </g>
   </g>
   <g id="PolyCollection_39">
    <defs>
     <path id="m715f123455" d="M 258.636206 -387.7555 
L 258.636206 -55.1155 
L 264.106794 -55.1155 
L 264.106794 -387.7555 
L 264.106794 -387.7555 
L 258.636206 -387.7555 
z
"/>
    </defs>
    <g clip-path="url(#pba296952d2)">
     <use xlink:href="#m715f123455" x="0" y="398.34866" style="fill: #d95f02; fill-opacity: 0.2"/>
    </g>
   </g>
   <g id="PolyCollection_40">
    <defs>
     <path id="mc13d8ca84e" d="M 264.106794 -387.7555 
L 264.106794 -55.1155 
L 269.577382 -55.1155 
L 269.577382 -387.7555 
L 269.577382 -387.7555 
L 264.106794 -387.7555 
z
"/>
    </defs>
    <g clip-path="url(#pba296952d2)">
     <use xlink:href="#mc13d8ca84e" x="0" y="398.34866" style="fill: #1b9e77; fill-opacity: 0.2"/>
    </g>
   </g>
   <g id="PolyCollection_41">
    <defs>
     <path id="m3e66e5f290" d="M 269.577382 -387.7555 
L 269.577382 -55.1155 
L 275.047971 -55.1155 
L 275.047971 -387.7555 
L 275.047971 -387.7555 
L 269.577382 -387.7555 
z
"/>
    </defs>
    <g clip-path="url(#pba296952d2)">
     <use xlink:href="#m3e66e5f290" x="0" y="398.34866" style="fill: #d95f02; fill-opacity: 0.2"/>
    </g>
   </g>
   <g id="PolyCollection_42">
    <defs>
     <path id="m58dd9d7060" d="M 275.047971 -387.7555 
L 275.047971 -55.1155 
L 280.518559 -55.1155 
L 280.518559 -387.7555 
L 280.518559 -387.7555 
L 275.047971 -387.7555 
z
"/>
    </defs>
    <g clip-path="url(#pba296952d2)">
     <use xlink:href="#m58dd9d7060" x="0" y="398.34866" style="fill: #d95f02; fill-opacity: 0.2"/>
    </g>
   </g>
   <g id="PolyCollection_43">
    <defs>
     <path id="mbfd767c66a" d="M 280.518559 -387.7555 
L 280.518559 -55.1155 
L 285.989147 -55.1155 
L 285.989147 -387.7555 
L 285.989147 -387.7555 
L 280.518559 -387.7555 
z
"/>
    </defs>
    <g clip-path="url(#pba296952d2)">
     <use xlink:href="#mbfd767c66a" x="0" y="398.34866" style="fill: #d95f02; fill-opacity: 0.2"/>
    </g>
   </g>
   <g id="PolyCollection_44">
    <defs>
     <path id="m5954fd63f1" d="M 285.989147 -387.7555 
L 285.989147 -55.1155 
L 291.459735 -55.1155 
L 291.459735 -387.7555 
L 291.459735 -387.7555 
L 285.989147 -387.7555 
z
"/>
    </defs>
    <g clip-path="url(#pba296952d2)">
     <use xlink:href="#m5954fd63f1" x="0" y="398.34866" style="fill: #1b9e77; fill-opacity: 0.2"/>
    </g>
   </g>
   <g id="PolyCollection_45">
    <defs>
     <path id="m223a02bb21" d="M 291.459735 -387.7555 
L 291.459735 -55.1155 
L 296.930324 -55.1155 
L 296.930324 -387.7555 
L 296.930324 -387.7555 
L 291.459735 -387.7555 
z
"/>
    </defs>
    <g clip-path="url(#pba296952d2)">
     <use xlink:href="#m223a02bb21" x="0" y="398.34866" style="fill: #1b9e77; fill-opacity: 0.2"/>
    </g>
   </g>
   <g id="PolyCollection_46">
    <defs>
     <path id="m828e4f6183" d="M 296.930324 -387.7555 
L 296.930324 -55.1155 
L 302.400912 -55.1155 
L 302.400912 -387.7555 
L 302.400912 -387.7555 
L 296.930324 -387.7555 
z
"/>
    </defs>
    <g clip-path="url(#pba296952d2)">
     <use xlink:href="#m828e4f6183" x="0" y="398.34866" style="fill: #1b9e77; fill-opacity: 0.2"/>
    </g>
   </g>
   <g id="PolyCollection_47">
    <defs>
     <path id="ma63f651b07" d="M 302.400912 -387.7555 
L 302.400912 -55.1155 
L 307.8715 -55.1155 
L 307.8715 -387.7555 
L 307.8715 -387.7555 
L 302.400912 -387.7555 
z
"/>
    </defs>
    <g clip-path="url(#pba296952d2)">
     <use xlink:href="#ma63f651b07" x="0" y="398.34866" style="fill: #1b9e77; fill-opacity: 0.2"/>
    </g>
   </g>
   <g id="PolyCollection_48">
    <defs>
     <path id="m49d9fc0aa6" d="M 307.8715 -387.7555 
L 307.8715 -55.1155 
L 313.342088 -55.1155 
L 313.342088 -387.7555 
L 313.342088 -387.7555 
L 307.8715 -387.7555 
z
"/>
    </defs>
    <g clip-path="url(#pba296952d2)">
     <use xlink:href="#m49d9fc0aa6" x="0" y="398.34866" style="fill: #1b9e77; fill-opacity: 0.2"/>
    </g>
   </g>
   <g id="PolyCollection_49">
    <defs>
     <path id="m6e51d538b9" d="M 313.342088 -387.7555 
L 313.342088 -55.1155 
L 318.812676 -55.1155 
L 318.812676 -387.7555 
L 318.812676 -387.7555 
L 313.342088 -387.7555 
z
"/>
    </defs>
    <g clip-path="url(#pba296952d2)">
     <use xlink:href="#m6e51d538b9" x="0" y="398.34866" style="fill: #d95f02; fill-opacity: 0.2"/>
    </g>
   </g>
   <g id="PolyCollection_50">
    <defs>
     <path id="m419f7df74d" d="M 318.812676 -387.7555 
L 318.812676 -55.1155 
L 324.283265 -55.1155 
L 324.283265 -387.7555 
L 324.283265 -387.7555 
L 318.812676 -387.7555 
z
"/>
    </defs>
    <g clip-path="url(#pba296952d2)">
     <use xlink:href="#m419f7df74d" x="0" y="398.34866" style="fill: #1b9e77; fill-opacity: 0.2"/>
    </g>
   </g>
   <g id="PolyCollection_51">
    <defs>
     <path id="me4a474790e" d="M 324.283265 -387.7555 
L 324.283265 -55.1155 
L 329.753853 -55.1155 
L 329.753853 -387.7555 
L 329.753853 -387.7555 
L 324.283265 -387.7555 
z
"/>
    </defs>
    <g clip-path="url(#pba296952d2)">
     <use xlink:href="#me4a474790e" x="0" y="398.34866" style="fill: #1b9e77; fill-opacity: 0.2"/>
    </g>
   </g>
   <g id="PolyCollection_52">
    <defs>
     <path id="me245765204" d="M 329.753853 -387.7555 
L 329.753853 -55.1155 
L 335.224441 -55.1155 
L 335.224441 -387.7555 
L 335.224441 -387.7555 
L 329.753853 -387.7555 
z
"/>
    </defs>
    <g clip-path="url(#pba296952d2)">
     <use xlink:href="#me245765204" x="0" y="398.34866" style="fill: #d95f02; fill-opacity: 0.2"/>
    </g>
   </g>
   <g id="PolyCollection_53">
    <defs>
     <path id="m5390ba7b7d" d="M 335.224441 -387.7555 
L 335.224441 -55.1155 
L 340.695029 -55.1155 
L 340.695029 -387.7555 
L 340.695029 -387.7555 
L 335.224441 -387.7555 
z
"/>
    </defs>
    <g clip-path="url(#pba296952d2)">
     <use xlink:href="#m5390ba7b7d" x="0" y="398.34866" style="fill: #d95f02; fill-opacity: 0.2"/>
    </g>
   </g>
   <g id="PolyCollection_54">
    <defs>
     <path id="m1660eb69b2" d="M 340.695029 -387.7555 
L 340.695029 -55.1155 
L 346.165618 -55.1155 
L 346.165618 -387.7555 
L 346.165618 -387.7555 
L 340.695029 -387.7555 
z
"/>
    </defs>
    <g clip-path="url(#pba296952d2)">
     <use xlink:href="#m1660eb69b2" x="0" y="398.34866" style="fill: #d95f02; fill-opacity: 0.2"/>
    </g>
   </g>
   <g id="PolyCollection_55">
    <defs>
     <path id="ma989020af2" d="M 346.165618 -387.7555 
L 346.165618 -55.1155 
L 351.636206 -55.1155 
L 351.636206 -387.7555 
L 351.636206 -387.7555 
L 346.165618 -387.7555 
z
"/>
    </defs>
    <g clip-path="url(#pba296952d2)">
     <use xlink:href="#ma989020af2" x="0" y="398.34866" style="fill: #d95f02; fill-opacity: 0.2"/>
    </g>
   </g>
   <g id="PolyCollection_56">
    <defs>
     <path id="mc5346f7e66" d="M 351.636206 -387.7555 
L 351.636206 -55.1155 
L 357.106794 -55.1155 
L 357.106794 -387.7555 
L 357.106794 -387.7555 
L 351.636206 -387.7555 
z
"/>
    </defs>
    <g clip-path="url(#pba296952d2)">
     <use xlink:href="#mc5346f7e66" x="0" y="398.34866" style="fill: #1b9e77; fill-opacity: 0.2"/>
    </g>
   </g>
   <g id="PolyCollection_57">
    <defs>
     <path id="m46cb18fcd8" d="M 357.106794 -387.7555 
L 357.106794 -55.1155 
L 362.577382 -55.1155 
L 362.577382 -387.7555 
L 362.577382 -387.7555 
L 357.106794 -387.7555 
z
"/>
    </defs>
    <g clip-path="url(#pba296952d2)">
     <use xlink:href="#m46cb18fcd8" x="0" y="398.34866" style="fill: #d95f02; fill-opacity: 0.2"/>
    </g>
   </g>
   <g id="PolyCollection_58">
    <defs>
     <path id="ma4c032e00e" d="M 362.577382 -387.7555 
L 362.577382 -55.1155 
L 368.047971 -55.1155 
L 368.047971 -387.7555 
L 368.047971 -387.7555 
L 362.577382 -387.7555 
z
"/>
    </defs>
    <g clip-path="url(#pba296952d2)">
     <use xlink:href="#ma4c032e00e" x="0" y="398.34866" style="fill: #1b9e77; fill-opacity: 0.2"/>
    </g>
   </g>
   <g id="PolyCollection_59">
    <defs>
     <path id="m81465d7658" d="M 368.047971 -387.7555 
L 368.047971 -55.1155 
L 373.518559 -55.1155 
L 373.518559 -387.7555 
L 373.518559 -387.7555 
L 368.047971 -387.7555 
z
"/>
    </defs>
    <g clip-path="url(#pba296952d2)">
     <use xlink:href="#m81465d7658" x="0" y="398.34866" style="fill: #1b9e77; fill-opacity: 0.2"/>
    </g>
   </g>
   <g id="PolyCollection_60">
    <defs>
     <path id="m89449c25b1" d="M 373.518559 -387.7555 
L 373.518559 -55.1155 
L 378.989147 -55.1155 
L 378.989147 -387.7555 
L 378.989147 -387.7555 
L 373.518559 -387.7555 
z
"/>
    </defs>
    <g clip-path="url(#pba296952d2)">
     <use xlink:href="#m89449c25b1" x="0" y="398.34866" style="fill: #1b9e77; fill-opacity: 0.2"/>
    </g>
   </g>
   <g id="PolyCollection_61">
    <defs>
     <path id="mfa172ac805" d="M 378.989147 -387.7555 
L 378.989147 -55.1155 
L 384.459735 -55.1155 
L 384.459735 -387.7555 
L 384.459735 -387.7555 
L 378.989147 -387.7555 
z
"/>
    </defs>
    <g clip-path="url(#pba296952d2)">
     <use xlink:href="#mfa172ac805" x="0" y="398.34866" style="fill: #1b9e77; fill-opacity: 0.2"/>
    </g>
   </g>
   <g id="PolyCollection_62">
    <defs>
     <path id="mf41dbb3297" d="M 384.459735 -387.7555 
L 384.459735 -55.1155 
L 389.930324 -55.1155 
L 389.930324 -387.7555 
L 389.930324 -387.7555 
L 384.459735 -387.7555 
z
"/>
    </defs>
    <g clip-path="url(#pba296952d2)">
     <use xlink:href="#mf41dbb3297" x="0" y="398.34866" style="fill: #1b9e77; fill-opacity: 0.2"/>
    </g>
   </g>
   <g id="PolyCollection_63">
    <defs>
     <path id="ma54e45f4bb" d="M 389.930324 -387.7555 
L 389.930324 -55.1155 
L 395.400912 -55.1155 
L 395.400912 -387.7555 
L 395.400912 -387.7555 
L 389.930324 -387.7555 
z
"/>
    </defs>
    <g clip-path="url(#pba296952d2)">
     <use xlink:href="#ma54e45f4bb" x="0" y="398.34866" style="fill: #1b9e77; fill-opacity: 0.2"/>
    </g>
   </g>
   <g id="PolyCollection_64">
    <defs>
     <path id="md2df86d389" d="M 395.400912 -387.7555 
L 395.400912 -55.1155 
L 400.8715 -55.1155 
L 400.8715 -387.7555 
L 400.8715 -387.7555 
L 395.400912 -387.7555 
z
"/>
    </defs>
    <g clip-path="url(#pba296952d2)">
     <use xlink:href="#md2df86d389" x="0" y="398.34866" style="fill: #1b9e77; fill-opacity: 0.2"/>
    </g>
   </g>
   <g id="matplotlib.axis_1">
    <g id="xtick_1">
     <g id="line2d_1">
      <defs>
       <path id="md1e63c3034" d="M 0 0 
L 0 4.8 
" style="stroke: #000000"/>
      </defs>
      <g>
       <use xlink:href="#md1e63c3034" x="67.165618" y="343.23316" style="stroke: #000000"/>
      </g>
     </g>
     <g id="text_1">
      <!-- 0 -->
      <g transform="translate(61.566618 364.90641) scale(0.176 -0.176)">
       <defs>
        <path id="DejaVuSans-30" d="M 2034 4250 
Q 1547 4250 1301 3770 
Q 1056 3291 1056 2328 
Q 1056 1369 1301 889 
Q 1547 409 2034 409 
Q 2525 409 2770 889 
Q 3016 1369 3016 2328 
Q 3016 3291 2770 3770 
Q 2525 4250 2034 4250 
z
M 2034 4750 
Q 2819 4750 3233 4129 
Q 3647 3509 3647 2328 
Q 3647 1150 3233 529 
Q 2819 -91 2034 -91 
Q 1250 -91 836 529 
Q 422 1150 422 2328 
Q 422 3509 836 4129 
Q 1250 4750 2034 4750 
z
" transform="scale(0.015625)"/>
       </defs>
       <use xlink:href="#DejaVuSans-30"/>
      </g>
     </g>
    </g>
    <g id="xtick_2">
     <g id="line2d_2">
      <g>
       <use xlink:href="#md1e63c3034" x="176.577382" y="343.23316" style="stroke: #000000"/>
      </g>
     </g>
     <g id="text_2">
      <!-- 20 -->
      <g transform="translate(165.379382 364.90641) scale(0.176 -0.176)">
       <defs>
        <path id="DejaVuSans-32" d="M 1228 531 
L 3431 531 
L 3431 0 
L 469 0 
L 469 531 
Q 828 903 1448 1529 
Q 2069 2156 2228 2338 
Q 2531 2678 2651 2914 
Q 2772 3150 2772 3378 
Q 2772 3750 2511 3984 
Q 2250 4219 1831 4219 
Q 1534 4219 1204 4116 
Q 875 4013 500 3803 
L 500 4441 
Q 881 4594 1212 4672 
Q 1544 4750 1819 4750 
Q 2544 4750 2975 4387 
Q 3406 4025 3406 3419 
Q 3406 3131 3298 2873 
Q 3191 2616 2906 2266 
Q 2828 2175 2409 1742 
Q 1991 1309 1228 531 
z
" transform="scale(0.015625)"/>
       </defs>
       <use xlink:href="#DejaVuSans-32"/>
       <use xlink:href="#DejaVuSans-30" x="63.623047"/>
      </g>
     </g>
    </g>
    <g id="xtick_3">
     <g id="line2d_3">
      <g>
       <use xlink:href="#md1e63c3034" x="285.989147" y="343.23316" style="stroke: #000000"/>
      </g>
     </g>
     <g id="text_3">
      <!-- 40 -->
      <g transform="translate(274.791147 364.90641) scale(0.176 -0.176)">
       <defs>
        <path id="DejaVuSans-34" d="M 2419 4116 
L 825 1625 
L 2419 1625 
L 2419 4116 
z
M 2253 4666 
L 3047 4666 
L 3047 1625 
L 3713 1625 
L 3713 1100 
L 3047 1100 
L 3047 0 
L 2419 0 
L 2419 1100 
L 313 1100 
L 313 1709 
L 2253 4666 
z
" transform="scale(0.015625)"/>
       </defs>
       <use xlink:href="#DejaVuSans-34"/>
       <use xlink:href="#DejaVuSans-30" x="63.623047"/>
      </g>
     </g>
    </g>
    <g id="xtick_4">
     <g id="line2d_4">
      <g>
       <use xlink:href="#md1e63c3034" x="395.400912" y="343.23316" style="stroke: #000000"/>
      </g>
     </g>
     <g id="text_4">
      <!-- 60 -->
      <g transform="translate(384.202912 364.90641) scale(0.176 -0.176)">
       <defs>
        <path id="DejaVuSans-36" d="M 2113 2584 
Q 1688 2584 1439 2293 
Q 1191 2003 1191 1497 
Q 1191 994 1439 701 
Q 1688 409 2113 409 
Q 2538 409 2786 701 
Q 3034 994 3034 1497 
Q 3034 2003 2786 2293 
Q 2538 2584 2113 2584 
z
M 3366 4563 
L 3366 3988 
Q 3128 4100 2886 4159 
Q 2644 4219 2406 4219 
Q 1781 4219 1451 3797 
Q 1122 3375 1075 2522 
Q 1259 2794 1537 2939 
Q 1816 3084 2150 3084 
Q 2853 3084 3261 2657 
Q 3669 2231 3669 1497 
Q 3669 778 3244 343 
Q 2819 -91 2113 -91 
Q 1303 -91 875 529 
Q 447 1150 447 2328 
Q 447 3434 972 4092 
Q 1497 4750 2381 4750 
Q 2619 4750 2861 4703 
Q 3103 4656 3366 4563 
z
" transform="scale(0.015625)"/>
       </defs>
       <use xlink:href="#DejaVuSans-36"/>
       <use xlink:href="#DejaVuSans-30" x="63.623047"/>
      </g>
     </g>
    </g>
    <g id="text_5">
     <!-- State -->
     <g transform="translate(208.06 387.15566) scale(0.192 -0.192)">
      <defs>
       <path id="DejaVuSans-53" d="M 3425 4513 
L 3425 3897 
Q 3066 4069 2747 4153 
Q 2428 4238 2131 4238 
Q 1616 4238 1336 4038 
Q 1056 3838 1056 3469 
Q 1056 3159 1242 3001 
Q 1428 2844 1947 2747 
L 2328 2669 
Q 3034 2534 3370 2195 
Q 3706 1856 3706 1288 
Q 3706 609 3251 259 
Q 2797 -91 1919 -91 
Q 1588 -91 1214 -16 
Q 841 59 441 206 
L 441 856 
Q 825 641 1194 531 
Q 1563 422 1919 422 
Q 2459 422 2753 634 
Q 3047 847 3047 1241 
Q 3047 1584 2836 1778 
Q 2625 1972 2144 2069 
L 1759 2144 
Q 1053 2284 737 2584 
Q 422 2884 422 3419 
Q 422 4038 858 4394 
Q 1294 4750 2059 4750 
Q 2388 4750 2728 4690 
Q 3069 4631 3425 4513 
z
" transform="scale(0.015625)"/>
       <path id="DejaVuSans-74" d="M 1172 4494 
L 1172 3500 
L 2356 3500 
L 2356 3053 
L 1172 3053 
L 1172 1153 
Q 1172 725 1289 603 
Q 1406 481 1766 481 
L 2356 481 
L 2356 0 
L 1766 0 
Q 1100 0 847 248 
Q 594 497 594 1153 
L 594 3053 
L 172 3053 
L 172 3500 
L 594 3500 
L 594 4494 
L 1172 4494 
z
" transform="scale(0.015625)"/>
       <path id="DejaVuSans-61" d="M 2194 1759 
Q 1497 1759 1228 1600 
Q 959 1441 959 1056 
Q 959 750 1161 570 
Q 1363 391 1709 391 
Q 2188 391 2477 730 
Q 2766 1069 2766 1631 
L 2766 1759 
L 2194 1759 
z
M 3341 1997 
L 3341 0 
L 2766 0 
L 2766 531 
Q 2569 213 2275 61 
Q 1981 -91 1556 -91 
Q 1019 -91 701 211 
Q 384 513 384 1019 
Q 384 1609 779 1909 
Q 1175 2209 1959 2209 
L 2766 2209 
L 2766 2266 
Q 2766 2663 2505 2880 
Q 2244 3097 1772 3097 
Q 1472 3097 1187 3025 
Q 903 2953 641 2809 
L 641 3341 
Q 956 3463 1253 3523 
Q 1550 3584 1831 3584 
Q 2591 3584 2966 3190 
Q 3341 2797 3341 1997 
z
" transform="scale(0.015625)"/>
       <path id="DejaVuSans-65" d="M 3597 1894 
L 3597 1613 
L 953 1613 
Q 991 1019 1311 708 
Q 1631 397 2203 397 
Q 2534 397 2845 478 
Q 3156 559 3463 722 
L 3463 178 
Q 3153 47 2828 -22 
Q 2503 -91 2169 -91 
Q 1331 -91 842 396 
Q 353 884 353 1716 
Q 353 2575 817 3079 
Q 1281 3584 2069 3584 
Q 2775 3584 3186 3129 
Q 3597 2675 3597 1894 
z
M 3022 2063 
Q 3016 2534 2758 2815 
Q 2500 3097 2075 3097 
Q 1594 3097 1305 2825 
Q 1016 2553 972 2059 
L 3022 2063 
z
" transform="scale(0.015625)"/>
      </defs>
      <use xlink:href="#DejaVuSans-53"/>
      <use xlink:href="#DejaVuSans-74" x="63.476562"/>
      <use xlink:href="#DejaVuSans-61" x="102.685547"/>
      <use xlink:href="#DejaVuSans-74" x="163.964844"/>
      <use xlink:href="#DejaVuSans-65" x="203.173828"/>
     </g>
    </g>
   </g>
   <g id="matplotlib.axis_2">
    <g id="ytick_1">
     <g id="line2d_5">
      <defs>
       <path id="m1171975dce" d="M 0 0 
L -4.8 0 
" style="stroke: #000000"/>
      </defs>
      <g>
       <use xlink:href="#m1171975dce" x="66.0715" y="343.23316" style="stroke: #000000"/>
      </g>
     </g>
     <g id="text_6">
      <!-- 0.0 -->
      <g transform="translate(29.782 349.919785) scale(0.176 -0.176)">
       <defs>
        <path id="DejaVuSans-2e" d="M 684 794 
L 1344 794 
L 1344 0 
L 684 0 
L 684 794 
z
" transform="scale(0.015625)"/>
       </defs>
       <use xlink:href="#DejaVuSans-30"/>
       <use xlink:href="#DejaVuSans-2e" x="63.623047"/>
       <use xlink:href="#DejaVuSans-30" x="95.410156"/>
      </g>
     </g>
    </g>
    <g id="ytick_2">
     <g id="line2d_6">
      <g>
       <use xlink:href="#m1171975dce" x="66.0715" y="277.363853" style="stroke: #000000"/>
      </g>
     </g>
     <g id="text_7">
      <!-- 0.2 -->
      <g transform="translate(29.782 284.050478) scale(0.176 -0.176)">
       <use xlink:href="#DejaVuSans-30"/>
       <use xlink:href="#DejaVuSans-2e" x="63.623047"/>
       <use xlink:href="#DejaVuSans-32" x="95.410156"/>
      </g>
     </g>
    </g>
    <g id="ytick_3">
     <g id="line2d_7">
      <g>
       <use xlink:href="#m1171975dce" x="66.0715" y="211.494546" style="stroke: #000000"/>
      </g>
     </g>
     <g id="text_8">
      <!-- 0.4 -->
      <g transform="translate(29.782 218.181171) scale(0.176 -0.176)">
       <use xlink:href="#DejaVuSans-30"/>
       <use xlink:href="#DejaVuSans-2e" x="63.623047"/>
       <use xlink:href="#DejaVuSans-34" x="95.410156"/>
      </g>
     </g>
    </g>
    <g id="ytick_4">
     <g id="line2d_8">
      <g>
       <use xlink:href="#m1171975dce" x="66.0715" y="145.625239" style="stroke: #000000"/>
      </g>
     </g>
     <g id="text_9">
      <!-- 0.6 -->
      <g transform="translate(29.782 152.311864) scale(0.176 -0.176)">
       <use xlink:href="#DejaVuSans-30"/>
       <use xlink:href="#DejaVuSans-2e" x="63.623047"/>
       <use xlink:href="#DejaVuSans-36" x="95.410156"/>
      </g>
     </g>
    </g>
    <g id="ytick_5">
     <g id="line2d_9">
      <g>
       <use xlink:href="#m1171975dce" x="66.0715" y="79.755932" style="stroke: #000000"/>
      </g>
     </g>
     <g id="text_10">
      <!-- 0.8 -->
      <g transform="translate(29.782 86.442557) scale(0.176 -0.176)">
       <defs>
        <path id="DejaVuSans-38" d="M 2034 2216 
Q 1584 2216 1326 1975 
Q 1069 1734 1069 1313 
Q 1069 891 1326 650 
Q 1584 409 2034 409 
Q 2484 409 2743 651 
Q 3003 894 3003 1313 
Q 3003 1734 2745 1975 
Q 2488 2216 2034 2216 
z
M 1403 2484 
Q 997 2584 770 2862 
Q 544 3141 544 3541 
Q 544 4100 942 4425 
Q 1341 4750 2034 4750 
Q 2731 4750 3128 4425 
Q 3525 4100 3525 3541 
Q 3525 3141 3298 2862 
Q 3072 2584 2669 2484 
Q 3125 2378 3379 2068 
Q 3634 1759 3634 1313 
Q 3634 634 3220 271 
Q 2806 -91 2034 -91 
Q 1263 -91 848 271 
Q 434 634 434 1313 
Q 434 1759 690 2068 
Q 947 2378 1403 2484 
z
M 1172 3481 
Q 1172 3119 1398 2916 
Q 1625 2713 2034 2713 
Q 2441 2713 2670 2916 
Q 2900 3119 2900 3481 
Q 2900 3844 2670 4047 
Q 2441 4250 2034 4250 
Q 1625 4250 1398 4047 
Q 1172 3844 1172 3481 
z
" transform="scale(0.015625)"/>
       </defs>
       <use xlink:href="#DejaVuSans-30"/>
       <use xlink:href="#DejaVuSans-2e" x="63.623047"/>
       <use xlink:href="#DejaVuSans-38" x="95.410156"/>
      </g>
     </g>
    </g>
    <g id="ytick_6">
     <g id="line2d_10">
      <g>
       <use xlink:href="#m1171975dce" x="66.0715" y="13.886625" style="stroke: #000000"/>
      </g>
     </g>
     <g id="text_11">
      <!-- 1.0 -->
      <g transform="translate(29.782 20.57325) scale(0.176 -0.176)">
       <defs>
        <path id="DejaVuSans-31" d="M 794 531 
L 1825 531 
L 1825 4091 
L 703 3866 
L 703 4441 
L 1819 4666 
L 2450 4666 
L 2450 531 
L 3481 531 
L 3481 0 
L 794 0 
L 794 531 
z
" transform="scale(0.015625)"/>
       </defs>
       <use xlink:href="#DejaVuSans-31"/>
       <use xlink:href="#DejaVuSans-2e" x="63.623047"/>
       <use xlink:href="#DejaVuSans-30" x="95.410156"/>
      </g>
     </g>
    </g>
    <g id="text_12">
     <!-- Score -->
     <g transform="translate(21.789 203.79766) rotate(-90) scale(0.192 -0.192)">
      <defs>
       <path id="DejaVuSans-63" d="M 3122 3366 
L 3122 2828 
Q 2878 2963 2633 3030 
Q 2388 3097 2138 3097 
Q 1578 3097 1268 2742 
Q 959 2388 959 1747 
Q 959 1106 1268 751 
Q 1578 397 2138 397 
Q 2388 397 2633 464 
Q 2878 531 3122 666 
L 3122 134 
Q 2881 22 2623 -34 
Q 2366 -91 2075 -91 
Q 1284 -91 818 406 
Q 353 903 353 1747 
Q 353 2603 823 3093 
Q 1294 3584 2113 3584 
Q 2378 3584 2631 3529 
Q 2884 3475 3122 3366 
z
" transform="scale(0.015625)"/>
       <path id="DejaVuSans-6f" d="M 1959 3097 
Q 1497 3097 1228 2736 
Q 959 2375 959 1747 
Q 959 1119 1226 758 
Q 1494 397 1959 397 
Q 2419 397 2687 759 
Q 2956 1122 2956 1747 
Q 2956 2369 2687 2733 
Q 2419 3097 1959 3097 
z
M 1959 3584 
Q 2709 3584 3137 3096 
Q 3566 2609 3566 1747 
Q 3566 888 3137 398 
Q 2709 -91 1959 -91 
Q 1206 -91 779 398 
Q 353 888 353 1747 
Q 353 2609 779 3096 
Q 1206 3584 1959 3584 
z
" transform="scale(0.015625)"/>
       <path id="DejaVuSans-72" d="M 2631 2963 
Q 2534 3019 2420 3045 
Q 2306 3072 2169 3072 
Q 1681 3072 1420 2755 
Q 1159 2438 1159 1844 
L 1159 0 
L 581 0 
L 581 3500 
L 1159 3500 
L 1159 2956 
Q 1341 3275 1631 3429 
Q 1922 3584 2338 3584 
Q 2397 3584 2469 3576 
Q 2541 3569 2628 3553 
L 2631 2963 
z
" transform="scale(0.015625)"/>
      </defs>
      <use xlink:href="#DejaVuSans-53"/>
      <use xlink:href="#DejaVuSans-63" x="63.476562"/>
      <use xlink:href="#DejaVuSans-6f" x="118.457031"/>
      <use xlink:href="#DejaVuSans-72" x="179.638672"/>
      <use xlink:href="#DejaVuSans-65" x="218.501953"/>
     </g>
    </g>
   </g>
   <g id="line2d_11">
    <path d="M 83.577382 220.086195 
L 89.047971 189.299453 
L 94.518559 189.299453 
L 99.989147 185.567265 
L 105.459735 181.990585 
L 110.930324 181.990585 
L 116.400912 181.990585 
L 121.8715 181.990585 
L 127.342088 66.817318 
L 132.812676 66.817318 
L 138.283265 66.817318 
L 143.753853 66.817318 
L 149.224441 66.817318 
L 154.695029 66.817318 
L 160.165618 45.554561 
L 165.636206 45.554561 
L 171.106794 13.886625 
L 176.577382 13.886625 
L 182.047971 13.886625 
L 187.518559 13.886625 
L 192.989147 13.886625 
L 198.459735 13.886625 
L 203.930324 13.886625 
L 209.400912 13.886625 
L 214.8715 13.886625 
L 220.342088 13.886625 
L 225.812676 13.886625 
L 231.283265 13.886625 
L 236.753853 13.886625 
L 242.224441 13.886625 
L 247.695029 13.886625 
L 253.165618 13.886625 
L 258.636206 13.886625 
L 264.106794 13.886625 
L 269.577382 173.716561 
L 275.047971 96.475053 
L 280.518559 15.225432 
L 285.989147 13.886625 
L 291.459735 13.886625 
L 296.930324 13.886625 
L 302.400912 13.886625 
L 307.8715 13.886625 
L 313.342088 13.886625 
L 318.812676 13.886625 
L 324.283265 13.886625 
L 329.753853 13.886625 
L 335.224441 13.886625 
L 340.695029 13.886625 
L 346.165618 13.886625 
L 351.636206 13.886625 
L 357.106794 13.886625 
L 362.577382 13.886625 
L 368.047971 13.886625 
L 373.518559 13.886625 
L 378.989147 13.886625 
L 384.459735 13.886625 
L 389.930324 13.886625 
L 395.400912 13.886625 
L 400.8715 13.886625 
" clip-path="url(#pba296952d2)" style="fill: none; stroke-dasharray: 2,3.3; stroke-dashoffset: 0; stroke: #e41a1c; stroke-width: 2"/>
   </g>
   <g id="line2d_12">
    <path d="M 67.165618 343.23316 
L 72.636206 343.23316 
L 78.106794 343.23316 
L 83.577382 299.924594 
L 89.047971 299.924594 
L 94.518559 299.924594 
L 99.989147 297.910242 
L 105.459735 295.89589 
L 110.930324 295.89589 
L 116.400912 295.89589 
L 121.8715 295.89589 
L 127.342088 295.89589 
L 132.812676 295.89589 
L 138.283265 295.89589 
L 143.753853 295.89589 
L 149.224441 295.89589 
L 154.695029 295.89589 
L 160.165618 295.89589 
L 165.636206 295.89589 
L 171.106794 295.89589 
L 176.577382 295.89589 
L 182.047971 295.89589 
L 187.518559 295.89589 
L 192.989147 295.89589 
L 198.459735 295.89589 
L 203.930324 192.156768 
L 209.400912 186.113712 
L 214.8715 186.113712 
L 220.342088 186.113712 
L 225.812676 167.984545 
L 231.283265 145.826674 
L 236.753853 145.826674 
L 242.224441 145.826674 
L 247.695029 145.826674 
L 253.165618 145.826674 
L 258.636206 120.647275 
L 264.106794 120.647275 
L 269.577382 96.475053 
L 275.047971 96.475053 
L 280.518559 96.475053 
L 285.989147 96.475053 
L 291.459735 83.381765 
L 296.930324 81.367413 
L 302.400912 43.094727 
L 307.8715 43.094727 
L 313.342088 42.087552 
L 318.812676 42.087552 
L 324.283265 42.087552 
L 329.753853 42.087552 
L 335.224441 42.087552 
L 340.695029 42.087552 
L 346.165618 42.087552 
L 351.636206 42.087552 
L 357.106794 42.087552 
L 362.577382 42.087552 
L 368.047971 42.087552 
L 373.518559 42.087552 
L 378.989147 42.087552 
L 384.459735 42.087552 
L 389.930324 42.087552 
L 395.400912 42.087552 
L 400.8715 13.886625 
" clip-path="url(#pba296952d2)" style="fill: none; stroke-dasharray: 7.4,3.2; stroke-dashoffset: 0; stroke: #377eb8; stroke-width: 2"/>
   </g>
   <g id="line2d_13">
    <path d="M 83.577382 279.15216 
L 89.047971 275.634587 
L 94.518559 275.634587 
L 99.989147 272.826537 
L 105.459735 270.045041 
L 110.930324 270.045041 
L 116.400912 270.045041 
L 121.8715 270.045041 
L 127.342088 262.401373 
L 132.812676 262.401373 
L 138.283265 262.401373 
L 143.753853 262.401373 
L 149.224441 262.401373 
L 154.695029 262.401373 
L 160.165618 261.548267 
L 165.636206 261.548267 
L 171.106794 260.456223 
L 176.577382 260.456223 
L 182.047971 260.456223 
L 187.518559 260.456223 
L 192.989147 260.456223 
L 198.459735 260.456223 
L 203.930324 136.096974 
L 209.400912 130.487572 
L 214.8715 130.487572 
L 220.342088 130.487572 
L 225.812676 114.465507 
L 231.283265 96.38069 
L 236.753853 96.38069 
L 242.224441 96.38069 
L 247.695029 96.38069 
L 253.165618 96.38069 
L 258.636206 77.592342 
L 264.106794 77.592342 
L 269.577382 142.262049 
L 275.047971 96.475053 
L 280.518559 61.593017 
L 285.989147 61.100639 
L 291.459735 52.732627 
L 296.930324 51.478137 
L 302.400912 29.168304 
L 307.8715 29.168304 
L 313.342088 28.61778 
L 318.812676 28.61778 
L 324.283265 28.61778 
L 329.753853 28.61778 
L 335.224441 28.61778 
L 340.695029 28.61778 
L 346.165618 28.61778 
L 351.636206 28.61778 
L 357.106794 28.61778 
L 362.577382 28.61778 
L 368.047971 28.61778 
L 373.518559 28.61778 
L 378.989147 28.61778 
L 384.459735 28.61778 
L 389.930324 28.61778 
L 395.400912 28.61778 
L 400.8715 13.886625 
" clip-path="url(#pba296952d2)" style="fill: none; stroke: #984ea3; stroke-width: 3; stroke-linecap: square"/>
   </g>
   <g id="patch_3">
    <path d="M 66.0715 343.23316 
L 66.0715 10.59316 
" style="fill: none; stroke: #000000; stroke-linejoin: miter; stroke-linecap: square"/>
   </g>
   <g id="patch_4">
    <path d="M 66.0715 343.23316 
L 400.8715 343.23316 
" style="fill: none; stroke: #000000; stroke-linejoin: miter; stroke-linecap: square"/>
   </g>
   <g id="legend_1">
    <g id="patch_5">
     <path d="M 253.71075 334.43316 
L 388.5515 334.43316 
Q 392.0715 334.43316 392.0715 330.91316 
L 392.0715 255.17266 
Q 392.0715 251.65266 388.5515 251.65266 
L 253.71075 251.65266 
Q 250.19075 251.65266 250.19075 255.17266 
L 250.19075 330.91316 
Q 250.19075 334.43316 253.71075 334.43316 
z
" style="fill: #ffffff; opacity: 0.8; stroke: #cccccc; stroke-width: 0.8; stroke-linejoin: miter"/>
    </g>
    <g id="line2d_14">
     <path d="M 257.23075 265.90591 
L 274.83075 265.90591 
L 292.43075 265.90591 
" style="fill: none; stroke-dasharray: 2,3.3; stroke-dashoffset: 0; stroke: #e41a1c; stroke-width: 2"/>
    </g>
    <g id="text_13">
     <!-- Precision -->
     <g transform="translate(306.51075 272.06591) scale(0.176 -0.176)">
      <defs>
       <path id="DejaVuSans-50" d="M 1259 4147 
L 1259 2394 
L 2053 2394 
Q 2494 2394 2734 2622 
Q 2975 2850 2975 3272 
Q 2975 3691 2734 3919 
Q 2494 4147 2053 4147 
L 1259 4147 
z
M 628 4666 
L 2053 4666 
Q 2838 4666 3239 4311 
Q 3641 3956 3641 3272 
Q 3641 2581 3239 2228 
Q 2838 1875 2053 1875 
L 1259 1875 
L 1259 0 
L 628 0 
L 628 4666 
z
" transform="scale(0.015625)"/>
       <path id="DejaVuSans-69" d="M 603 3500 
L 1178 3500 
L 1178 0 
L 603 0 
L 603 3500 
z
M 603 4863 
L 1178 4863 
L 1178 4134 
L 603 4134 
L 603 4863 
z
" transform="scale(0.015625)"/>
       <path id="DejaVuSans-73" d="M 2834 3397 
L 2834 2853 
Q 2591 2978 2328 3040 
Q 2066 3103 1784 3103 
Q 1356 3103 1142 2972 
Q 928 2841 928 2578 
Q 928 2378 1081 2264 
Q 1234 2150 1697 2047 
L 1894 2003 
Q 2506 1872 2764 1633 
Q 3022 1394 3022 966 
Q 3022 478 2636 193 
Q 2250 -91 1575 -91 
Q 1294 -91 989 -36 
Q 684 19 347 128 
L 347 722 
Q 666 556 975 473 
Q 1284 391 1588 391 
Q 1994 391 2212 530 
Q 2431 669 2431 922 
Q 2431 1156 2273 1281 
Q 2116 1406 1581 1522 
L 1381 1569 
Q 847 1681 609 1914 
Q 372 2147 372 2553 
Q 372 3047 722 3315 
Q 1072 3584 1716 3584 
Q 2034 3584 2315 3537 
Q 2597 3491 2834 3397 
z
" transform="scale(0.015625)"/>
       <path id="DejaVuSans-6e" d="M 3513 2113 
L 3513 0 
L 2938 0 
L 2938 2094 
Q 2938 2591 2744 2837 
Q 2550 3084 2163 3084 
Q 1697 3084 1428 2787 
Q 1159 2491 1159 1978 
L 1159 0 
L 581 0 
L 581 3500 
L 1159 3500 
L 1159 2956 
Q 1366 3272 1645 3428 
Q 1925 3584 2291 3584 
Q 2894 3584 3203 3211 
Q 3513 2838 3513 2113 
z
" transform="scale(0.015625)"/>
      </defs>
      <use xlink:href="#DejaVuSans-50"/>
      <use xlink:href="#DejaVuSans-72" x="58.552734"/>
      <use xlink:href="#DejaVuSans-65" x="97.416016"/>
      <use xlink:href="#DejaVuSans-63" x="158.939453"/>
      <use xlink:href="#DejaVuSans-69" x="213.919922"/>
      <use xlink:href="#DejaVuSans-73" x="241.703125"/>
      <use xlink:href="#DejaVuSans-69" x="293.802734"/>
      <use xlink:href="#DejaVuSans-6f" x="321.585938"/>
      <use xlink:href="#DejaVuSans-6e" x="382.767578"/>
     </g>
    </g>
    <g id="line2d_15">
     <path d="M 257.23075 291.73941 
L 274.83075 291.73941 
L 292.43075 291.73941 
" style="fill: none; stroke-dasharray: 7.4,3.2; stroke-dashoffset: 0; stroke: #377eb8; stroke-width: 2"/>
    </g>
    <g id="text_14">
     <!-- Recall -->
     <g transform="translate(306.51075 297.89941) scale(0.176 -0.176)">
      <defs>
       <path id="DejaVuSans-52" d="M 2841 2188 
Q 3044 2119 3236 1894 
Q 3428 1669 3622 1275 
L 4263 0 
L 3584 0 
L 2988 1197 
Q 2756 1666 2539 1819 
Q 2322 1972 1947 1972 
L 1259 1972 
L 1259 0 
L 628 0 
L 628 4666 
L 2053 4666 
Q 2853 4666 3247 4331 
Q 3641 3997 3641 3322 
Q 3641 2881 3436 2590 
Q 3231 2300 2841 2188 
z
M 1259 4147 
L 1259 2491 
L 2053 2491 
Q 2509 2491 2742 2702 
Q 2975 2913 2975 3322 
Q 2975 3731 2742 3939 
Q 2509 4147 2053 4147 
L 1259 4147 
z
" transform="scale(0.015625)"/>
       <path id="DejaVuSans-6c" d="M 603 4863 
L 1178 4863 
L 1178 0 
L 603 0 
L 603 4863 
z
" transform="scale(0.015625)"/>
      </defs>
      <use xlink:href="#DejaVuSans-52"/>
      <use xlink:href="#DejaVuSans-65" x="64.982422"/>
      <use xlink:href="#DejaVuSans-63" x="126.505859"/>
      <use xlink:href="#DejaVuSans-61" x="181.486328"/>
      <use xlink:href="#DejaVuSans-6c" x="242.765625"/>
      <use xlink:href="#DejaVuSans-6c" x="270.548828"/>
     </g>
    </g>
    <g id="line2d_16">
     <path d="M 257.23075 317.57291 
L 274.83075 317.57291 
L 292.43075 317.57291 
" style="fill: none; stroke: #984ea3; stroke-width: 3; stroke-linecap: square"/>
    </g>
    <g id="text_15">
     <!-- F1 -->
     <g transform="translate(306.51075 323.73291) scale(0.176 -0.176)">
      <defs>
       <path id="DejaVuSans-46" d="M 628 4666 
L 3309 4666 
L 3309 4134 
L 1259 4134 
L 1259 2759 
L 3109 2759 
L 3109 2228 
L 1259 2228 
L 1259 0 
L 628 0 
L 628 4666 
z
" transform="scale(0.015625)"/>
      </defs>
      <use xlink:href="#DejaVuSans-46"/>
      <use xlink:href="#DejaVuSans-31" x="57.519531"/>
     </g>
    </g>
   </g>
  </g>
 </g>
 <defs>
  <clipPath id="pba296952d2">
   <rect x="66.0715" y="10.59316" width="334.8" height="332.64"/>
  </clipPath>
 </defs>
</svg>
