<?xml version="1.0" encoding="utf-8" standalone="no"?>
<!DOCTYPE svg PUBLIC "-//W3C//DTD SVG 1.1//EN"
  "http://www.w3.org/Graphics/SVG/1.1/DTD/svg11.dtd">
<svg xmlns:xlink="http://www.w3.org/1999/xlink" width="408.0715pt" height="398.34866pt" viewBox="0 0 408.0715 398.34866" xmlns="http://www.w3.org/2000/svg" version="1.1">
 <metadata>
  <rdf:RDF xmlns:dc="http://purl.org/dc/elements/1.1/" xmlns:cc="http://creativecommons.org/ns#" xmlns:rdf="http://www.w3.org/1999/02/22-rdf-syntax-ns#">
   <cc:Work>
    <dc:type rdf:resource="http://purl.org/dc/dcmitype/StillImage"/>
    <dc:date>2024-10-01T11:03:46.742438</dc:date>
    <dc:format>image/svg+xml</dc:format>
    <dc:creator>
     <cc:Agent>
      <dc:title>Matplotlib v3.8.0, https://matplotlib.org/</dc:title>
     </cc:Agent>
    </dc:creator>
   </cc:Work>
  </rdf:RDF>
 </metadata>
 <defs>
  <style type="text/css">*{stroke-linejoin: round; stroke-linecap: butt}</style>
 </defs>
 <g id="figure_1">
  <g id="patch_1">
   <path d="M 0 398.34866 
L 408.0715 398.34866 
L 408.0715 0 
L 0 0 
z
" style="fill: #ffffff"/>
  </g>
  <g id="axes_1">
   <g id="patch_2">
    <path d="M 66.0715 343.23316 
L 400.8715 343.23316 
L 400.8715 10.59316 
L 66.0715 10.59316 
z
" style="fill: #ffffff"/>
   </g>
   <g id="PolyCollection_1"/>
   <g id="PolyCollection_2"/>
   <g id="PolyCollection_3"/>
   <g id="PolyCollection_4">
    <defs>
     <path id="m09ca9b69ef" d="M 66.822173 -387.7555 
L 66.822173 -55.1155 
L 70.575536 -55.1155 
L 70.575536 -387.7555 
L 70.575536 -387.7555 
L 66.822173 -387.7555 
z
"/>
    </defs>
    <g clip-path="url(#p69a6a15f5b)">
     <use xlink:href="#m09ca9b69ef" x="0" y="398.34866" style="fill: #1b9e77; fill-opacity: 0.2"/>
    </g>
   </g>
   <g id="PolyCollection_5">
    <defs>
     <path id="m78d6edc1a1" d="M 70.575536 -387.7555 
L 70.575536 -55.1155 
L 74.328899 -55.1155 
L 74.328899 -387.7555 
L 74.328899 -387.7555 
L 70.575536 -387.7555 
z
"/>
    </defs>
    <g clip-path="url(#p69a6a15f5b)">
     <use xlink:href="#m78d6edc1a1" x="0" y="398.34866" style="fill: #d95f02; fill-opacity: 0.2"/>
    </g>
   </g>
   <g id="PolyCollection_6">
    <defs>
     <path id="mf5bd33e416" d="M 74.328899 -387.7555 
L 74.328899 -55.1155 
L 78.082262 -55.1155 
L 78.082262 -387.7555 
L 78.082262 -387.7555 
L 74.328899 -387.7555 
z
"/>
    </defs>
    <g clip-path="url(#p69a6a15f5b)">
     <use xlink:href="#mf5bd33e416" x="0" y="398.34866" style="fill: #1b9e77; fill-opacity: 0.2"/>
    </g>
   </g>
   <g id="PolyCollection_7">
    <defs>
     <path id="m6e8aa4e86b" d="M 78.082262 -387.7555 
L 78.082262 -55.1155 
L 81.835626 -55.1155 
L 81.835626 -387.7555 
L 81.835626 -387.7555 
L 78.082262 -387.7555 
z
"/>
    </defs>
    <g clip-path="url(#p69a6a15f5b)">
     <use xlink:href="#m6e8aa4e86b" x="0" y="398.34866" style="fill: #1b9e77; fill-opacity: 0.2"/>
    </g>
   </g>
   <g id="PolyCollection_8">
    <defs>
     <path id="m17750f94e8" d="M 81.835626 -387.7555 
L 81.835626 -55.1155 
L 85.588989 -55.1155 
L 85.588989 -387.7555 
L 85.588989 -387.7555 
L 81.835626 -387.7555 
z
"/>
    </defs>
    <g clip-path="url(#p69a6a15f5b)">
     <use xlink:href="#m17750f94e8" x="0" y="398.34866" style="fill: #1b9e77; fill-opacity: 0.2"/>
    </g>
   </g>
   <g id="PolyCollection_9">
    <defs>
     <path id="m92f0bcae27" d="M 85.588989 -387.7555 
L 85.588989 -55.1155 
L 89.342352 -55.1155 
L 89.342352 -387.7555 
L 89.342352 -387.7555 
L 85.588989 -387.7555 
z
"/>
    </defs>
    <g clip-path="url(#p69a6a15f5b)">
     <use xlink:href="#m92f0bcae27" x="0" y="398.34866" style="fill: #1b9e77; fill-opacity: 0.2"/>
    </g>
   </g>
   <g id="PolyCollection_10">
    <defs>
     <path id="m319774c67b" d="M 89.342352 -387.7555 
L 89.342352 -55.1155 
L 93.095715 -55.1155 
L 93.095715 -387.7555 
L 93.095715 -387.7555 
L 89.342352 -387.7555 
z
"/>
    </defs>
    <g clip-path="url(#p69a6a15f5b)">
     <use xlink:href="#m319774c67b" x="0" y="398.34866" style="fill: #1b9e77; fill-opacity: 0.2"/>
    </g>
   </g>
   <g id="PolyCollection_11">
    <defs>
     <path id="m15649c9d2d" d="M 93.095715 -387.7555 
L 93.095715 -55.1155 
L 96.849078 -55.1155 
L 96.849078 -387.7555 
L 96.849078 -387.7555 
L 93.095715 -387.7555 
z
"/>
    </defs>
    <g clip-path="url(#p69a6a15f5b)">
     <use xlink:href="#m15649c9d2d" x="0" y="398.34866" style="fill: #d95f02; fill-opacity: 0.2"/>
    </g>
   </g>
   <g id="PolyCollection_12">
    <defs>
     <path id="m95fe6a761b" d="M 96.849078 -387.7555 
L 96.849078 -55.1155 
L 100.602442 -55.1155 
L 100.602442 -387.7555 
L 100.602442 -387.7555 
L 96.849078 -387.7555 
z
"/>
    </defs>
    <g clip-path="url(#p69a6a15f5b)">
     <use xlink:href="#m95fe6a761b" x="0" y="398.34866" style="fill: #d95f02; fill-opacity: 0.2"/>
    </g>
   </g>
   <g id="PolyCollection_13">
    <defs>
     <path id="mc570fb4a37" d="M 100.602442 -387.7555 
L 100.602442 -55.1155 
L 104.355805 -55.1155 
L 104.355805 -387.7555 
L 104.355805 -387.7555 
L 100.602442 -387.7555 
z
"/>
    </defs>
    <g clip-path="url(#p69a6a15f5b)">
     <use xlink:href="#mc570fb4a37" x="0" y="398.34866" style="fill: #d95f02; fill-opacity: 0.2"/>
    </g>
   </g>
   <g id="PolyCollection_14">
    <defs>
     <path id="mb7a638ea5a" d="M 104.355805 -387.7555 
L 104.355805 -55.1155 
L 108.109168 -55.1155 
L 108.109168 -387.7555 
L 108.109168 -387.7555 
L 104.355805 -387.7555 
z
"/>
    </defs>
    <g clip-path="url(#p69a6a15f5b)">
     <use xlink:href="#mb7a638ea5a" x="0" y="398.34866" style="fill: #d95f02; fill-opacity: 0.2"/>
    </g>
   </g>
   <g id="PolyCollection_15">
    <defs>
     <path id="me0cbc766a3" d="M 108.109168 -387.7555 
L 108.109168 -55.1155 
L 111.862531 -55.1155 
L 111.862531 -387.7555 
L 111.862531 -387.7555 
L 108.109168 -387.7555 
z
"/>
    </defs>
    <g clip-path="url(#p69a6a15f5b)">
     <use xlink:href="#me0cbc766a3" x="0" y="398.34866" style="fill: #1b9e77; fill-opacity: 0.2"/>
    </g>
   </g>
   <g id="PolyCollection_16">
    <defs>
     <path id="mdd4534de16" d="M 111.862531 -387.7555 
L 111.862531 -55.1155 
L 115.615895 -55.1155 
L 115.615895 -387.7555 
L 115.615895 -387.7555 
L 111.862531 -387.7555 
z
"/>
    </defs>
    <g clip-path="url(#p69a6a15f5b)">
     <use xlink:href="#mdd4534de16" x="0" y="398.34866" style="fill: #d95f02; fill-opacity: 0.2"/>
    </g>
   </g>
   <g id="PolyCollection_17">
    <defs>
     <path id="m5ede1481e4" d="M 115.615895 -387.7555 
L 115.615895 -55.1155 
L 119.369258 -55.1155 
L 119.369258 -387.7555 
L 119.369258 -387.7555 
L 115.615895 -387.7555 
z
"/>
    </defs>
    <g clip-path="url(#p69a6a15f5b)">
     <use xlink:href="#m5ede1481e4" x="0" y="398.34866" style="fill: #d95f02; fill-opacity: 0.2"/>
    </g>
   </g>
   <g id="PolyCollection_18">
    <defs>
     <path id="mebc468f95f" d="M 119.369258 -387.7555 
L 119.369258 -55.1155 
L 123.122621 -55.1155 
L 123.122621 -387.7555 
L 123.122621 -387.7555 
L 119.369258 -387.7555 
z
"/>
    </defs>
    <g clip-path="url(#p69a6a15f5b)">
     <use xlink:href="#mebc468f95f" x="0" y="398.34866" style="fill: #1b9e77; fill-opacity: 0.2"/>
    </g>
   </g>
   <g id="PolyCollection_19">
    <defs>
     <path id="m58e78e189f" d="M 123.122621 -387.7555 
L 123.122621 -55.1155 
L 126.875984 -55.1155 
L 126.875984 -387.7555 
L 126.875984 -387.7555 
L 123.122621 -387.7555 
z
"/>
    </defs>
    <g clip-path="url(#p69a6a15f5b)">
     <use xlink:href="#m58e78e189f" x="0" y="398.34866" style="fill: #1b9e77; fill-opacity: 0.2"/>
    </g>
   </g>
   <g id="PolyCollection_20">
    <defs>
     <path id="m11b5d7f5f8" d="M 126.875984 -387.7555 
L 126.875984 -55.1155 
L 130.629348 -55.1155 
L 130.629348 -387.7555 
L 130.629348 -387.7555 
L 126.875984 -387.7555 
z
"/>
    </defs>
    <g clip-path="url(#p69a6a15f5b)">
     <use xlink:href="#m11b5d7f5f8" x="0" y="398.34866" style="fill: #d95f02; fill-opacity: 0.2"/>
    </g>
   </g>
   <g id="PolyCollection_21">
    <defs>
     <path id="mb235d6693a" d="M 130.629348 -387.7555 
L 130.629348 -55.1155 
L 134.382711 -55.1155 
L 134.382711 -387.7555 
L 134.382711 -387.7555 
L 130.629348 -387.7555 
z
"/>
    </defs>
    <g clip-path="url(#p69a6a15f5b)">
     <use xlink:href="#mb235d6693a" x="0" y="398.34866" style="fill: #d95f02; fill-opacity: 0.2"/>
    </g>
   </g>
   <g id="PolyCollection_22">
    <defs>
     <path id="md2e1088b0f" d="M 134.382711 -387.7555 
L 134.382711 -55.1155 
L 138.136074 -55.1155 
L 138.136074 -387.7555 
L 138.136074 -387.7555 
L 134.382711 -387.7555 
z
"/>
    </defs>
    <g clip-path="url(#p69a6a15f5b)">
     <use xlink:href="#md2e1088b0f" x="0" y="398.34866" style="fill: #1b9e77; fill-opacity: 0.2"/>
    </g>
   </g>
   <g id="PolyCollection_23">
    <defs>
     <path id="m7d89b3176d" d="M 138.136074 -387.7555 
L 138.136074 -55.1155 
L 141.889437 -55.1155 
L 141.889437 -387.7555 
L 141.889437 -387.7555 
L 138.136074 -387.7555 
z
"/>
    </defs>
    <g clip-path="url(#p69a6a15f5b)">
     <use xlink:href="#m7d89b3176d" x="0" y="398.34866" style="fill: #1b9e77; fill-opacity: 0.2"/>
    </g>
   </g>
   <g id="PolyCollection_24">
    <defs>
     <path id="m0df3cfc521" d="M 141.889437 -387.7555 
L 141.889437 -55.1155 
L 145.6428 -55.1155 
L 145.6428 -387.7555 
L 145.6428 -387.7555 
L 141.889437 -387.7555 
z
"/>
    </defs>
    <g clip-path="url(#p69a6a15f5b)">
     <use xlink:href="#m0df3cfc521" x="0" y="398.34866" style="fill: #d95f02; fill-opacity: 0.2"/>
    </g>
   </g>
   <g id="PolyCollection_25">
    <defs>
     <path id="me57514eefa" d="M 145.6428 -387.7555 
L 145.6428 -55.1155 
L 149.396164 -55.1155 
L 149.396164 -387.7555 
L 149.396164 -387.7555 
L 145.6428 -387.7555 
z
"/>
    </defs>
    <g clip-path="url(#p69a6a15f5b)">
     <use xlink:href="#me57514eefa" x="0" y="398.34866" style="fill: #1b9e77; fill-opacity: 0.2"/>
    </g>
   </g>
   <g id="PolyCollection_26">
    <defs>
     <path id="m2064adda19" d="M 149.396164 -387.7555 
L 149.396164 -55.1155 
L 153.149527 -55.1155 
L 153.149527 -387.7555 
L 153.149527 -387.7555 
L 149.396164 -387.7555 
z
"/>
    </defs>
    <g clip-path="url(#p69a6a15f5b)">
     <use xlink:href="#m2064adda19" x="0" y="398.34866" style="fill: #d95f02; fill-opacity: 0.2"/>
    </g>
   </g>
   <g id="PolyCollection_27">
    <defs>
     <path id="m4ee81346b3" d="M 153.149527 -387.7555 
L 153.149527 -55.1155 
L 156.90289 -55.1155 
L 156.90289 -387.7555 
L 156.90289 -387.7555 
L 153.149527 -387.7555 
z
"/>
    </defs>
    <g clip-path="url(#p69a6a15f5b)">
     <use xlink:href="#m4ee81346b3" x="0" y="398.34866" style="fill: #d95f02; fill-opacity: 0.2"/>
    </g>
   </g>
   <g id="PolyCollection_28">
    <defs>
     <path id="m299ffaca70" d="M 156.90289 -387.7555 
L 156.90289 -55.1155 
L 160.656253 -55.1155 
L 160.656253 -387.7555 
L 160.656253 -387.7555 
L 156.90289 -387.7555 
z
"/>
    </defs>
    <g clip-path="url(#p69a6a15f5b)">
     <use xlink:href="#m299ffaca70" x="0" y="398.34866" style="fill: #d95f02; fill-opacity: 0.2"/>
    </g>
   </g>
   <g id="PolyCollection_29">
    <defs>
     <path id="ma8d64b40c6" d="M 160.656253 -387.7555 
L 160.656253 -55.1155 
L 164.409617 -55.1155 
L 164.409617 -387.7555 
L 164.409617 -387.7555 
L 160.656253 -387.7555 
z
"/>
    </defs>
    <g clip-path="url(#p69a6a15f5b)">
     <use xlink:href="#ma8d64b40c6" x="0" y="398.34866" style="fill: #d95f02; fill-opacity: 0.2"/>
    </g>
   </g>
   <g id="PolyCollection_30">
    <defs>
     <path id="mef77daf842" d="M 164.409617 -387.7555 
L 164.409617 -55.1155 
L 168.16298 -55.1155 
L 168.16298 -387.7555 
L 168.16298 -387.7555 
L 164.409617 -387.7555 
z
"/>
    </defs>
    <g clip-path="url(#p69a6a15f5b)">
     <use xlink:href="#mef77daf842" x="0" y="398.34866" style="fill: #1b9e77; fill-opacity: 0.2"/>
    </g>
   </g>
   <g id="PolyCollection_31">
    <defs>
     <path id="m4a8eb384ac" d="M 168.16298 -387.7555 
L 168.16298 -55.1155 
L 171.916343 -55.1155 
L 171.916343 -387.7555 
L 171.916343 -387.7555 
L 168.16298 -387.7555 
z
"/>
    </defs>
    <g clip-path="url(#p69a6a15f5b)">
     <use xlink:href="#m4a8eb384ac" x="0" y="398.34866" style="fill: #d95f02; fill-opacity: 0.2"/>
    </g>
   </g>
   <g id="PolyCollection_32">
    <defs>
     <path id="m9b1d00814f" d="M 171.916343 -387.7555 
L 171.916343 -55.1155 
L 175.669706 -55.1155 
L 175.669706 -387.7555 
L 175.669706 -387.7555 
L 171.916343 -387.7555 
z
"/>
    </defs>
    <g clip-path="url(#p69a6a15f5b)">
     <use xlink:href="#m9b1d00814f" x="0" y="398.34866" style="fill: #d95f02; fill-opacity: 0.2"/>
    </g>
   </g>
   <g id="PolyCollection_33">
    <defs>
     <path id="m87b375e4c9" d="M 175.669706 -387.7555 
L 175.669706 -55.1155 
L 179.42307 -55.1155 
L 179.42307 -387.7555 
L 179.42307 -387.7555 
L 175.669706 -387.7555 
z
"/>
    </defs>
    <g clip-path="url(#p69a6a15f5b)">
     <use xlink:href="#m87b375e4c9" x="0" y="398.34866" style="fill: #d95f02; fill-opacity: 0.2"/>
    </g>
   </g>
   <g id="PolyCollection_34">
    <defs>
     <path id="me7269ac4f1" d="M 179.42307 -387.7555 
L 179.42307 -55.1155 
L 183.176433 -55.1155 
L 183.176433 -387.7555 
L 183.176433 -387.7555 
L 179.42307 -387.7555 
z
"/>
    </defs>
    <g clip-path="url(#p69a6a15f5b)">
     <use xlink:href="#me7269ac4f1" x="0" y="398.34866" style="fill: #d95f02; fill-opacity: 0.2"/>
    </g>
   </g>
   <g id="PolyCollection_35">
    <defs>
     <path id="m3a36a02774" d="M 183.176433 -387.7555 
L 183.176433 -55.1155 
L 186.929796 -55.1155 
L 186.929796 -387.7555 
L 186.929796 -387.7555 
L 183.176433 -387.7555 
z
"/>
    </defs>
    <g clip-path="url(#p69a6a15f5b)">
     <use xlink:href="#m3a36a02774" x="0" y="398.34866" style="fill: #d95f02; fill-opacity: 0.2"/>
    </g>
   </g>
   <g id="PolyCollection_36">
    <defs>
     <path id="m360beceb29" d="M 186.929796 -387.7555 
L 186.929796 -55.1155 
L 190.683159 -55.1155 
L 190.683159 -387.7555 
L 190.683159 -387.7555 
L 186.929796 -387.7555 
z
"/>
    </defs>
    <g clip-path="url(#p69a6a15f5b)">
     <use xlink:href="#m360beceb29" x="0" y="398.34866" style="fill: #d95f02; fill-opacity: 0.2"/>
    </g>
   </g>
   <g id="PolyCollection_37">
    <defs>
     <path id="m1ac1a9e544" d="M 190.683159 -387.7555 
L 190.683159 -55.1155 
L 194.436522 -55.1155 
L 194.436522 -387.7555 
L 194.436522 -387.7555 
L 190.683159 -387.7555 
z
"/>
    </defs>
    <g clip-path="url(#p69a6a15f5b)">
     <use xlink:href="#m1ac1a9e544" x="0" y="398.34866" style="fill: #d95f02; fill-opacity: 0.2"/>
    </g>
   </g>
   <g id="PolyCollection_38">
    <defs>
     <path id="me24dbcff08" d="M 194.436522 -387.7555 
L 194.436522 -55.1155 
L 198.189886 -55.1155 
L 198.189886 -387.7555 
L 198.189886 -387.7555 
L 194.436522 -387.7555 
z
"/>
    </defs>
    <g clip-path="url(#p69a6a15f5b)">
     <use xlink:href="#me24dbcff08" x="0" y="398.34866" style="fill: #d95f02; fill-opacity: 0.2"/>
    </g>
   </g>
   <g id="PolyCollection_39">
    <defs>
     <path id="m9257ca5e31" d="M 198.189886 -387.7555 
L 198.189886 -55.1155 
L 201.943249 -55.1155 
L 201.943249 -387.7555 
L 201.943249 -387.7555 
L 198.189886 -387.7555 
z
"/>
    </defs>
    <g clip-path="url(#p69a6a15f5b)">
     <use xlink:href="#m9257ca5e31" x="0" y="398.34866" style="fill: #d95f02; fill-opacity: 0.2"/>
    </g>
   </g>
   <g id="PolyCollection_40">
    <defs>
     <path id="mf2c674f0fa" d="M 201.943249 -387.7555 
L 201.943249 -55.1155 
L 205.696612 -55.1155 
L 205.696612 -387.7555 
L 205.696612 -387.7555 
L 201.943249 -387.7555 
z
"/>
    </defs>
    <g clip-path="url(#p69a6a15f5b)">
     <use xlink:href="#mf2c674f0fa" x="0" y="398.34866" style="fill: #d95f02; fill-opacity: 0.2"/>
    </g>
   </g>
   <g id="PolyCollection_41">
    <defs>
     <path id="mf01296f3d7" d="M 205.696612 -387.7555 
L 205.696612 -55.1155 
L 209.449975 -55.1155 
L 209.449975 -387.7555 
L 209.449975 -387.7555 
L 205.696612 -387.7555 
z
"/>
    </defs>
    <g clip-path="url(#p69a6a15f5b)">
     <use xlink:href="#mf01296f3d7" x="0" y="398.34866" style="fill: #1b9e77; fill-opacity: 0.2"/>
    </g>
   </g>
   <g id="PolyCollection_42">
    <defs>
     <path id="mb2cd2ebcd1" d="M 209.449975 -387.7555 
L 209.449975 -55.1155 
L 213.203339 -55.1155 
L 213.203339 -387.7555 
L 213.203339 -387.7555 
L 209.449975 -387.7555 
z
"/>
    </defs>
    <g clip-path="url(#p69a6a15f5b)">
     <use xlink:href="#mb2cd2ebcd1" x="0" y="398.34866" style="fill: #d95f02; fill-opacity: 0.2"/>
    </g>
   </g>
   <g id="PolyCollection_43">
    <defs>
     <path id="me84223e172" d="M 213.203339 -387.7555 
L 213.203339 -55.1155 
L 216.956702 -55.1155 
L 216.956702 -387.7555 
L 216.956702 -387.7555 
L 213.203339 -387.7555 
z
"/>
    </defs>
    <g clip-path="url(#p69a6a15f5b)">
     <use xlink:href="#me84223e172" x="0" y="398.34866" style="fill: #d95f02; fill-opacity: 0.2"/>
    </g>
   </g>
   <g id="PolyCollection_44">
    <defs>
     <path id="m9cc1f335fb" d="M 216.956702 -387.7555 
L 216.956702 -55.1155 
L 220.710065 -55.1155 
L 220.710065 -387.7555 
L 220.710065 -387.7555 
L 216.956702 -387.7555 
z
"/>
    </defs>
    <g clip-path="url(#p69a6a15f5b)">
     <use xlink:href="#m9cc1f335fb" x="0" y="398.34866" style="fill: #d95f02; fill-opacity: 0.2"/>
    </g>
   </g>
   <g id="PolyCollection_45">
    <defs>
     <path id="me99f25d281" d="M 220.710065 -387.7555 
L 220.710065 -55.1155 
L 224.463428 -55.1155 
L 224.463428 -387.7555 
L 224.463428 -387.7555 
L 220.710065 -387.7555 
z
"/>
    </defs>
    <g clip-path="url(#p69a6a15f5b)">
     <use xlink:href="#me99f25d281" x="0" y="398.34866" style="fill: #d95f02; fill-opacity: 0.2"/>
    </g>
   </g>
   <g id="PolyCollection_46">
    <defs>
     <path id="m99457e6419" d="M 224.463428 -387.7555 
L 224.463428 -55.1155 
L 228.216791 -55.1155 
L 228.216791 -387.7555 
L 228.216791 -387.7555 
L 224.463428 -387.7555 
z
"/>
    </defs>
    <g clip-path="url(#p69a6a15f5b)">
     <use xlink:href="#m99457e6419" x="0" y="398.34866" style="fill: #d95f02; fill-opacity: 0.2"/>
    </g>
   </g>
   <g id="PolyCollection_47">
    <defs>
     <path id="m005126f89c" d="M 228.216791 -387.7555 
L 228.216791 -55.1155 
L 231.970155 -55.1155 
L 231.970155 -387.7555 
L 231.970155 -387.7555 
L 228.216791 -387.7555 
z
"/>
    </defs>
    <g clip-path="url(#p69a6a15f5b)">
     <use xlink:href="#m005126f89c" x="0" y="398.34866" style="fill: #d95f02; fill-opacity: 0.2"/>
    </g>
   </g>
   <g id="PolyCollection_48">
    <defs>
     <path id="mc5f92606b8" d="M 231.970155 -387.7555 
L 231.970155 -55.1155 
L 235.723518 -55.1155 
L 235.723518 -387.7555 
L 235.723518 -387.7555 
L 231.970155 -387.7555 
z
"/>
    </defs>
    <g clip-path="url(#p69a6a15f5b)">
     <use xlink:href="#mc5f92606b8" x="0" y="398.34866" style="fill: #d95f02; fill-opacity: 0.2"/>
    </g>
   </g>
   <g id="PolyCollection_49">
    <defs>
     <path id="m2ea72be19c" d="M 235.723518 -387.7555 
L 235.723518 -55.1155 
L 239.476881 -55.1155 
L 239.476881 -387.7555 
L 239.476881 -387.7555 
L 235.723518 -387.7555 
z
"/>
    </defs>
    <g clip-path="url(#p69a6a15f5b)">
     <use xlink:href="#m2ea72be19c" x="0" y="398.34866" style="fill: #d95f02; fill-opacity: 0.2"/>
    </g>
   </g>
   <g id="PolyCollection_50">
    <defs>
     <path id="mb2aac9ac24" d="M 239.476881 -387.7555 
L 239.476881 -55.1155 
L 243.230244 -55.1155 
L 243.230244 -387.7555 
L 243.230244 -387.7555 
L 239.476881 -387.7555 
z
"/>
    </defs>
    <g clip-path="url(#p69a6a15f5b)">
     <use xlink:href="#mb2aac9ac24" x="0" y="398.34866" style="fill: #1b9e77; fill-opacity: 0.2"/>
    </g>
   </g>
   <g id="PolyCollection_51">
    <defs>
     <path id="mcdf3439ddc" d="M 243.230244 -387.7555 
L 243.230244 -55.1155 
L 246.983608 -55.1155 
L 246.983608 -387.7555 
L 246.983608 -387.7555 
L 243.230244 -387.7555 
z
"/>
    </defs>
    <g clip-path="url(#p69a6a15f5b)">
     <use xlink:href="#mcdf3439ddc" x="0" y="398.34866" style="fill: #d95f02; fill-opacity: 0.2"/>
    </g>
   </g>
   <g id="PolyCollection_52">
    <defs>
     <path id="m13ea7c1a66" d="M 246.983608 -387.7555 
L 246.983608 -55.1155 
L 250.736971 -55.1155 
L 250.736971 -387.7555 
L 250.736971 -387.7555 
L 246.983608 -387.7555 
z
"/>
    </defs>
    <g clip-path="url(#p69a6a15f5b)">
     <use xlink:href="#m13ea7c1a66" x="0" y="398.34866" style="fill: #1b9e77; fill-opacity: 0.2"/>
    </g>
   </g>
   <g id="PolyCollection_53">
    <defs>
     <path id="m2d6a6f2a5d" d="M 250.736971 -387.7555 
L 250.736971 -55.1155 
L 254.490334 -55.1155 
L 254.490334 -387.7555 
L 254.490334 -387.7555 
L 250.736971 -387.7555 
z
"/>
    </defs>
    <g clip-path="url(#p69a6a15f5b)">
     <use xlink:href="#m2d6a6f2a5d" x="0" y="398.34866" style="fill: #d95f02; fill-opacity: 0.2"/>
    </g>
   </g>
   <g id="PolyCollection_54">
    <defs>
     <path id="m3da1cb3200" d="M 254.490334 -387.7555 
L 254.490334 -55.1155 
L 258.243697 -55.1155 
L 258.243697 -387.7555 
L 258.243697 -387.7555 
L 254.490334 -387.7555 
z
"/>
    </defs>
    <g clip-path="url(#p69a6a15f5b)">
     <use xlink:href="#m3da1cb3200" x="0" y="398.34866" style="fill: #1b9e77; fill-opacity: 0.2"/>
    </g>
   </g>
   <g id="PolyCollection_55">
    <defs>
     <path id="ma51a49d57e" d="M 258.243697 -387.7555 
L 258.243697 -55.1155 
L 261.997061 -55.1155 
L 261.997061 -387.7555 
L 261.997061 -387.7555 
L 258.243697 -387.7555 
z
"/>
    </defs>
    <g clip-path="url(#p69a6a15f5b)">
     <use xlink:href="#ma51a49d57e" x="0" y="398.34866" style="fill: #d95f02; fill-opacity: 0.2"/>
    </g>
   </g>
   <g id="PolyCollection_56">
    <defs>
     <path id="mb4ca0cd2e4" d="M 261.997061 -387.7555 
L 261.997061 -55.1155 
L 265.750424 -55.1155 
L 265.750424 -387.7555 
L 265.750424 -387.7555 
L 261.997061 -387.7555 
z
"/>
    </defs>
    <g clip-path="url(#p69a6a15f5b)">
     <use xlink:href="#mb4ca0cd2e4" x="0" y="398.34866" style="fill: #1b9e77; fill-opacity: 0.2"/>
    </g>
   </g>
   <g id="PolyCollection_57">
    <defs>
     <path id="mcdfa6da353" d="M 265.750424 -387.7555 
L 265.750424 -55.1155 
L 269.503787 -55.1155 
L 269.503787 -387.7555 
L 269.503787 -387.7555 
L 265.750424 -387.7555 
z
"/>
    </defs>
    <g clip-path="url(#p69a6a15f5b)">
     <use xlink:href="#mcdfa6da353" x="0" y="398.34866" style="fill: #1b9e77; fill-opacity: 0.2"/>
    </g>
   </g>
   <g id="PolyCollection_58">
    <defs>
     <path id="m0b30834a47" d="M 269.503787 -387.7555 
L 269.503787 -55.1155 
L 273.25715 -55.1155 
L 273.25715 -387.7555 
L 273.25715 -387.7555 
L 269.503787 -387.7555 
z
"/>
    </defs>
    <g clip-path="url(#p69a6a15f5b)">
     <use xlink:href="#m0b30834a47" x="0" y="398.34866" style="fill: #d95f02; fill-opacity: 0.2"/>
    </g>
   </g>
   <g id="PolyCollection_59">
    <defs>
     <path id="mac30f1e0c1" d="M 273.25715 -387.7555 
L 273.25715 -55.1155 
L 277.010513 -55.1155 
L 277.010513 -387.7555 
L 277.010513 -387.7555 
L 273.25715 -387.7555 
z
"/>
    </defs>
    <g clip-path="url(#p69a6a15f5b)">
     <use xlink:href="#mac30f1e0c1" x="0" y="398.34866" style="fill: #1b9e77; fill-opacity: 0.2"/>
    </g>
   </g>
   <g id="PolyCollection_60">
    <defs>
     <path id="m10063c7349" d="M 277.010513 -387.7555 
L 277.010513 -55.1155 
L 280.763877 -55.1155 
L 280.763877 -387.7555 
L 280.763877 -387.7555 
L 277.010513 -387.7555 
z
"/>
    </defs>
    <g clip-path="url(#p69a6a15f5b)">
     <use xlink:href="#m10063c7349" x="0" y="398.34866" style="fill: #d95f02; fill-opacity: 0.2"/>
    </g>
   </g>
   <g id="PolyCollection_61">
    <defs>
     <path id="mbb7f0aa0d4" d="M 280.763877 -387.7555 
L 280.763877 -55.1155 
L 284.51724 -55.1155 
L 284.51724 -387.7555 
L 284.51724 -387.7555 
L 280.763877 -387.7555 
z
"/>
    </defs>
    <g clip-path="url(#p69a6a15f5b)">
     <use xlink:href="#mbb7f0aa0d4" x="0" y="398.34866" style="fill: #1b9e77; fill-opacity: 0.2"/>
    </g>
   </g>
   <g id="PolyCollection_62">
    <defs>
     <path id="m271e989d44" d="M 284.51724 -387.7555 
L 284.51724 -55.1155 
L 288.270603 -55.1155 
L 288.270603 -387.7555 
L 288.270603 -387.7555 
L 284.51724 -387.7555 
z
"/>
    </defs>
    <g clip-path="url(#p69a6a15f5b)">
     <use xlink:href="#m271e989d44" x="0" y="398.34866" style="fill: #d95f02; fill-opacity: 0.2"/>
    </g>
   </g>
   <g id="PolyCollection_63">
    <defs>
     <path id="m49a3899047" d="M 288.270603 -387.7555 
L 288.270603 -55.1155 
L 292.023966 -55.1155 
L 292.023966 -387.7555 
L 292.023966 -387.7555 
L 288.270603 -387.7555 
z
"/>
    </defs>
    <g clip-path="url(#p69a6a15f5b)">
     <use xlink:href="#m49a3899047" x="0" y="398.34866" style="fill: #d95f02; fill-opacity: 0.2"/>
    </g>
   </g>
   <g id="PolyCollection_64">
    <defs>
     <path id="m851fcee954" d="M 292.023966 -387.7555 
L 292.023966 -55.1155 
L 295.77733 -55.1155 
L 295.77733 -387.7555 
L 295.77733 -387.7555 
L 292.023966 -387.7555 
z
"/>
    </defs>
    <g clip-path="url(#p69a6a15f5b)">
     <use xlink:href="#m851fcee954" x="0" y="398.34866" style="fill: #d95f02; fill-opacity: 0.2"/>
    </g>
   </g>
   <g id="PolyCollection_65">
    <defs>
     <path id="m2f2c0418b9" d="M 295.77733 -387.7555 
L 295.77733 -55.1155 
L 299.530693 -55.1155 
L 299.530693 -387.7555 
L 299.530693 -387.7555 
L 295.77733 -387.7555 
z
"/>
    </defs>
    <g clip-path="url(#p69a6a15f5b)">
     <use xlink:href="#m2f2c0418b9" x="0" y="398.34866" style="fill: #1b9e77; fill-opacity: 0.2"/>
    </g>
   </g>
   <g id="PolyCollection_66">
    <defs>
     <path id="mfe9f9fa5ba" d="M 299.530693 -387.7555 
L 299.530693 -55.1155 
L 303.284056 -55.1155 
L 303.284056 -387.7555 
L 303.284056 -387.7555 
L 299.530693 -387.7555 
z
"/>
    </defs>
    <g clip-path="url(#p69a6a15f5b)">
     <use xlink:href="#mfe9f9fa5ba" x="0" y="398.34866" style="fill: #1b9e77; fill-opacity: 0.2"/>
    </g>
   </g>
   <g id="PolyCollection_67">
    <defs>
     <path id="mce94e0e8a9" d="M 303.284056 -387.7555 
L 303.284056 -55.1155 
L 307.037419 -55.1155 
L 307.037419 -387.7555 
L 307.037419 -387.7555 
L 303.284056 -387.7555 
z
"/>
    </defs>
    <g clip-path="url(#p69a6a15f5b)">
     <use xlink:href="#mce94e0e8a9" x="0" y="398.34866" style="fill: #1b9e77; fill-opacity: 0.2"/>
    </g>
   </g>
   <g id="PolyCollection_68">
    <defs>
     <path id="m14c8d1e1e7" d="M 307.037419 -387.7555 
L 307.037419 -55.1155 
L 310.790783 -55.1155 
L 310.790783 -387.7555 
L 310.790783 -387.7555 
L 307.037419 -387.7555 
z
"/>
    </defs>
    <g clip-path="url(#p69a6a15f5b)">
     <use xlink:href="#m14c8d1e1e7" x="0" y="398.34866" style="fill: #d95f02; fill-opacity: 0.2"/>
    </g>
   </g>
   <g id="PolyCollection_69">
    <defs>
     <path id="mb55a371ceb" d="M 310.790783 -387.7555 
L 310.790783 -55.1155 
L 314.544146 -55.1155 
L 314.544146 -387.7555 
L 314.544146 -387.7555 
L 310.790783 -387.7555 
z
"/>
    </defs>
    <g clip-path="url(#p69a6a15f5b)">
     <use xlink:href="#mb55a371ceb" x="0" y="398.34866" style="fill: #1b9e77; fill-opacity: 0.2"/>
    </g>
   </g>
   <g id="PolyCollection_70">
    <defs>
     <path id="m652f3dc050" d="M 314.544146 -387.7555 
L 314.544146 -55.1155 
L 318.297509 -55.1155 
L 318.297509 -387.7555 
L 318.297509 -387.7555 
L 314.544146 -387.7555 
z
"/>
    </defs>
    <g clip-path="url(#p69a6a15f5b)">
     <use xlink:href="#m652f3dc050" x="0" y="398.34866" style="fill: #d95f02; fill-opacity: 0.2"/>
    </g>
   </g>
   <g id="PolyCollection_71">
    <defs>
     <path id="mec56586eab" d="M 318.297509 -387.7555 
L 318.297509 -55.1155 
L 322.050872 -55.1155 
L 322.050872 -387.7555 
L 322.050872 -387.7555 
L 318.297509 -387.7555 
z
"/>
    </defs>
    <g clip-path="url(#p69a6a15f5b)">
     <use xlink:href="#mec56586eab" x="0" y="398.34866" style="fill: #d95f02; fill-opacity: 0.2"/>
    </g>
   </g>
   <g id="PolyCollection_72">
    <defs>
     <path id="mdbde9a98e1" d="M 322.050872 -387.7555 
L 322.050872 -55.1155 
L 325.804235 -55.1155 
L 325.804235 -387.7555 
L 325.804235 -387.7555 
L 322.050872 -387.7555 
z
"/>
    </defs>
    <g clip-path="url(#p69a6a15f5b)">
     <use xlink:href="#mdbde9a98e1" x="0" y="398.34866" style="fill: #1b9e77; fill-opacity: 0.2"/>
    </g>
   </g>
   <g id="PolyCollection_73">
    <defs>
     <path id="m2802702e88" d="M 325.804235 -387.7555 
L 325.804235 -55.1155 
L 329.557599 -55.1155 
L 329.557599 -387.7555 
L 329.557599 -387.7555 
L 325.804235 -387.7555 
z
"/>
    </defs>
    <g clip-path="url(#p69a6a15f5b)">
     <use xlink:href="#m2802702e88" x="0" y="398.34866" style="fill: #1b9e77; fill-opacity: 0.2"/>
    </g>
   </g>
   <g id="PolyCollection_74">
    <defs>
     <path id="m60ea12e888" d="M 329.557599 -387.7555 
L 329.557599 -55.1155 
L 333.310962 -55.1155 
L 333.310962 -387.7555 
L 333.310962 -387.7555 
L 329.557599 -387.7555 
z
"/>
    </defs>
    <g clip-path="url(#p69a6a15f5b)">
     <use xlink:href="#m60ea12e888" x="0" y="398.34866" style="fill: #1b9e77; fill-opacity: 0.2"/>
    </g>
   </g>
   <g id="PolyCollection_75">
    <defs>
     <path id="m95af79ffce" d="M 333.310962 -387.7555 
L 333.310962 -55.1155 
L 337.064325 -55.1155 
L 337.064325 -387.7555 
L 337.064325 -387.7555 
L 333.310962 -387.7555 
z
"/>
    </defs>
    <g clip-path="url(#p69a6a15f5b)">
     <use xlink:href="#m95af79ffce" x="0" y="398.34866" style="fill: #1b9e77; fill-opacity: 0.2"/>
    </g>
   </g>
   <g id="PolyCollection_76">
    <defs>
     <path id="m62fbd3b1bc" d="M 337.064325 -387.7555 
L 337.064325 -55.1155 
L 340.817688 -55.1155 
L 340.817688 -387.7555 
L 340.817688 -387.7555 
L 337.064325 -387.7555 
z
"/>
    </defs>
    <g clip-path="url(#p69a6a15f5b)">
     <use xlink:href="#m62fbd3b1bc" x="0" y="398.34866" style="fill: #d95f02; fill-opacity: 0.2"/>
    </g>
   </g>
   <g id="PolyCollection_77">
    <defs>
     <path id="m855fccbc45" d="M 340.817688 -387.7555 
L 340.817688 -55.1155 
L 344.571052 -55.1155 
L 344.571052 -387.7555 
L 344.571052 -387.7555 
L 340.817688 -387.7555 
z
"/>
    </defs>
    <g clip-path="url(#p69a6a15f5b)">
     <use xlink:href="#m855fccbc45" x="0" y="398.34866" style="fill: #d95f02; fill-opacity: 0.2"/>
    </g>
   </g>
   <g id="PolyCollection_78">
    <defs>
     <path id="m4b4a6c66c3" d="M 344.571052 -387.7555 
L 344.571052 -55.1155 
L 348.324415 -55.1155 
L 348.324415 -387.7555 
L 348.324415 -387.7555 
L 344.571052 -387.7555 
z
"/>
    </defs>
    <g clip-path="url(#p69a6a15f5b)">
     <use xlink:href="#m4b4a6c66c3" x="0" y="398.34866" style="fill: #1b9e77; fill-opacity: 0.2"/>
    </g>
   </g>
   <g id="PolyCollection_79">
    <defs>
     <path id="m18e8c142c6" d="M 348.324415 -387.7555 
L 348.324415 -55.1155 
L 352.077778 -55.1155 
L 352.077778 -387.7555 
L 352.077778 -387.7555 
L 348.324415 -387.7555 
z
"/>
    </defs>
    <g clip-path="url(#p69a6a15f5b)">
     <use xlink:href="#m18e8c142c6" x="0" y="398.34866" style="fill: #1b9e77; fill-opacity: 0.2"/>
    </g>
   </g>
   <g id="PolyCollection_80">
    <defs>
     <path id="m16b563bd76" d="M 352.077778 -387.7555 
L 352.077778 -55.1155 
L 355.831141 -55.1155 
L 355.831141 -387.7555 
L 355.831141 -387.7555 
L 352.077778 -387.7555 
z
"/>
    </defs>
    <g clip-path="url(#p69a6a15f5b)">
     <use xlink:href="#m16b563bd76" x="0" y="398.34866" style="fill: #1b9e77; fill-opacity: 0.2"/>
    </g>
   </g>
   <g id="PolyCollection_81">
    <defs>
     <path id="me96269c059" d="M 355.831141 -387.7555 
L 355.831141 -55.1155 
L 359.584504 -55.1155 
L 359.584504 -387.7555 
L 359.584504 -387.7555 
L 355.831141 -387.7555 
z
"/>
    </defs>
    <g clip-path="url(#p69a6a15f5b)">
     <use xlink:href="#me96269c059" x="0" y="398.34866" style="fill: #1b9e77; fill-opacity: 0.2"/>
    </g>
   </g>
   <g id="PolyCollection_82">
    <defs>
     <path id="m93e1c03c63" d="M 359.584504 -387.7555 
L 359.584504 -55.1155 
L 363.337868 -55.1155 
L 363.337868 -387.7555 
L 363.337868 -387.7555 
L 359.584504 -387.7555 
z
"/>
    </defs>
    <g clip-path="url(#p69a6a15f5b)">
     <use xlink:href="#m93e1c03c63" x="0" y="398.34866" style="fill: #1b9e77; fill-opacity: 0.2"/>
    </g>
   </g>
   <g id="PolyCollection_83">
    <defs>
     <path id="m480512ce11" d="M 363.337868 -387.7555 
L 363.337868 -55.1155 
L 367.091231 -55.1155 
L 367.091231 -387.7555 
L 367.091231 -387.7555 
L 363.337868 -387.7555 
z
"/>
    </defs>
    <g clip-path="url(#p69a6a15f5b)">
     <use xlink:href="#m480512ce11" x="0" y="398.34866" style="fill: #1b9e77; fill-opacity: 0.2"/>
    </g>
   </g>
   <g id="PolyCollection_84">
    <defs>
     <path id="mc5d1b232ba" d="M 367.091231 -387.7555 
L 367.091231 -55.1155 
L 370.844594 -55.1155 
L 370.844594 -387.7555 
L 370.844594 -387.7555 
L 367.091231 -387.7555 
z
"/>
    </defs>
    <g clip-path="url(#p69a6a15f5b)">
     <use xlink:href="#mc5d1b232ba" x="0" y="398.34866" style="fill: #1b9e77; fill-opacity: 0.2"/>
    </g>
   </g>
   <g id="PolyCollection_85">
    <defs>
     <path id="ma8a1b6b78e" d="M 370.844594 -387.7555 
L 370.844594 -55.1155 
L 374.597957 -55.1155 
L 374.597957 -387.7555 
L 374.597957 -387.7555 
L 370.844594 -387.7555 
z
"/>
    </defs>
    <g clip-path="url(#p69a6a15f5b)">
     <use xlink:href="#ma8a1b6b78e" x="0" y="398.34866" style="fill: #d95f02; fill-opacity: 0.2"/>
    </g>
   </g>
   <g id="PolyCollection_86">
    <defs>
     <path id="mbeb7e185d6" d="M 374.597957 -387.7555 
L 374.597957 -55.1155 
L 378.351321 -55.1155 
L 378.351321 -387.7555 
L 378.351321 -387.7555 
L 374.597957 -387.7555 
z
"/>
    </defs>
    <g clip-path="url(#p69a6a15f5b)">
     <use xlink:href="#mbeb7e185d6" x="0" y="398.34866" style="fill: #1b9e77; fill-opacity: 0.2"/>
    </g>
   </g>
   <g id="PolyCollection_87">
    <defs>
     <path id="mc8ee5ee407" d="M 378.351321 -387.7555 
L 378.351321 -55.1155 
L 382.104684 -55.1155 
L 382.104684 -387.7555 
L 382.104684 -387.7555 
L 378.351321 -387.7555 
z
"/>
    </defs>
    <g clip-path="url(#p69a6a15f5b)">
     <use xlink:href="#mc8ee5ee407" x="0" y="398.34866" style="fill: #1b9e77; fill-opacity: 0.2"/>
    </g>
   </g>
   <g id="PolyCollection_88">
    <defs>
     <path id="maf826f07df" d="M 382.104684 -387.7555 
L 382.104684 -55.1155 
L 385.858047 -55.1155 
L 385.858047 -387.7555 
L 385.858047 -387.7555 
L 382.104684 -387.7555 
z
"/>
    </defs>
    <g clip-path="url(#p69a6a15f5b)">
     <use xlink:href="#maf826f07df" x="0" y="398.34866" style="fill: #1b9e77; fill-opacity: 0.2"/>
    </g>
   </g>
   <g id="PolyCollection_89">
    <defs>
     <path id="m24c37fad63" d="M 385.858047 -387.7555 
L 385.858047 -55.1155 
L 389.61141 -55.1155 
L 389.61141 -387.7555 
L 389.61141 -387.7555 
L 385.858047 -387.7555 
z
"/>
    </defs>
    <g clip-path="url(#p69a6a15f5b)">
     <use xlink:href="#m24c37fad63" x="0" y="398.34866" style="fill: #1b9e77; fill-opacity: 0.2"/>
    </g>
   </g>
   <g id="PolyCollection_90">
    <defs>
     <path id="m326a88706a" d="M 389.61141 -387.7555 
L 389.61141 -55.1155 
L 393.364774 -55.1155 
L 393.364774 -387.7555 
L 393.364774 -387.7555 
L 389.61141 -387.7555 
z
"/>
    </defs>
    <g clip-path="url(#p69a6a15f5b)">
     <use xlink:href="#m326a88706a" x="0" y="398.34866" style="fill: #1b9e77; fill-opacity: 0.2"/>
    </g>
   </g>
   <g id="PolyCollection_91">
    <defs>
     <path id="m1e49b5c2b4" d="M 393.364774 -387.7555 
L 393.364774 -55.1155 
L 397.118137 -55.1155 
L 397.118137 -387.7555 
L 397.118137 -387.7555 
L 393.364774 -387.7555 
z
"/>
    </defs>
    <g clip-path="url(#p69a6a15f5b)">
     <use xlink:href="#m1e49b5c2b4" x="0" y="398.34866" style="fill: #d95f02; fill-opacity: 0.2"/>
    </g>
   </g>
   <g id="PolyCollection_92">
    <defs>
     <path id="mcd9a055823" d="M 397.118137 -387.7555 
L 397.118137 -55.1155 
L 400.8715 -55.1155 
L 400.8715 -387.7555 
L 400.8715 -387.7555 
L 397.118137 -387.7555 
z
"/>
    </defs>
    <g clip-path="url(#p69a6a15f5b)">
     <use xlink:href="#mcd9a055823" x="0" y="398.34866" style="fill: #1b9e77; fill-opacity: 0.2"/>
    </g>
   </g>
   <g id="matplotlib.axis_1">
    <g id="xtick_1">
     <g id="line2d_1">
      <defs>
       <path id="m6e9b7fe13e" d="M 0 0 
L 0 4.8 
" style="stroke: #000000"/>
      </defs>
      <g>
       <use xlink:href="#m6e9b7fe13e" x="66.822173" y="343.23316" style="stroke: #000000"/>
      </g>
     </g>
     <g id="text_1">
      <!-- 0 -->
      <g transform="translate(61.223173 364.90641) scale(0.176 -0.176)">
       <defs>
        <path id="DejaVuSans-30" d="M 2034 4250 
Q 1547 4250 1301 3770 
Q 1056 3291 1056 2328 
Q 1056 1369 1301 889 
Q 1547 409 2034 409 
Q 2525 409 2770 889 
Q 3016 1369 3016 2328 
Q 3016 3291 2770 3770 
Q 2525 4250 2034 4250 
z
M 2034 4750 
Q 2819 4750 3233 4129 
Q 3647 3509 3647 2328 
Q 3647 1150 3233 529 
Q 2819 -91 2034 -91 
Q 1250 -91 836 529 
Q 422 1150 422 2328 
Q 422 3509 836 4129 
Q 1250 4750 2034 4750 
z
" transform="scale(0.015625)"/>
       </defs>
       <use xlink:href="#DejaVuSans-30"/>
      </g>
     </g>
    </g>
    <g id="xtick_2">
     <g id="line2d_2">
      <g>
       <use xlink:href="#m6e9b7fe13e" x="141.889437" y="343.23316" style="stroke: #000000"/>
      </g>
     </g>
     <g id="text_2">
      <!-- 20 -->
      <g transform="translate(130.691437 364.90641) scale(0.176 -0.176)">
       <defs>
        <path id="DejaVuSans-32" d="M 1228 531 
L 3431 531 
L 3431 0 
L 469 0 
L 469 531 
Q 828 903 1448 1529 
Q 2069 2156 2228 2338 
Q 2531 2678 2651 2914 
Q 2772 3150 2772 3378 
Q 2772 3750 2511 3984 
Q 2250 4219 1831 4219 
Q 1534 4219 1204 4116 
Q 875 4013 500 3803 
L 500 4441 
Q 881 4594 1212 4672 
Q 1544 4750 1819 4750 
Q 2544 4750 2975 4387 
Q 3406 4025 3406 3419 
Q 3406 3131 3298 2873 
Q 3191 2616 2906 2266 
Q 2828 2175 2409 1742 
Q 1991 1309 1228 531 
z
" transform="scale(0.015625)"/>
       </defs>
       <use xlink:href="#DejaVuSans-32"/>
       <use xlink:href="#DejaVuSans-30" x="63.623047"/>
      </g>
     </g>
    </g>
    <g id="xtick_3">
     <g id="line2d_3">
      <g>
       <use xlink:href="#m6e9b7fe13e" x="216.956702" y="343.23316" style="stroke: #000000"/>
      </g>
     </g>
     <g id="text_3">
      <!-- 40 -->
      <g transform="translate(205.758702 364.90641) scale(0.176 -0.176)">
       <defs>
        <path id="DejaVuSans-34" d="M 2419 4116 
L 825 1625 
L 2419 1625 
L 2419 4116 
z
M 2253 4666 
L 3047 4666 
L 3047 1625 
L 3713 1625 
L 3713 1100 
L 3047 1100 
L 3047 0 
L 2419 0 
L 2419 1100 
L 313 1100 
L 313 1709 
L 2253 4666 
z
" transform="scale(0.015625)"/>
       </defs>
       <use xlink:href="#DejaVuSans-34"/>
       <use xlink:href="#DejaVuSans-30" x="63.623047"/>
      </g>
     </g>
    </g>
    <g id="xtick_4">
     <g id="line2d_4">
      <g>
       <use xlink:href="#m6e9b7fe13e" x="292.023966" y="343.23316" style="stroke: #000000"/>
      </g>
     </g>
     <g id="text_4">
      <!-- 60 -->
      <g transform="translate(280.825966 364.90641) scale(0.176 -0.176)">
       <defs>
        <path id="DejaVuSans-36" d="M 2113 2584 
Q 1688 2584 1439 2293 
Q 1191 2003 1191 1497 
Q 1191 994 1439 701 
Q 1688 409 2113 409 
Q 2538 409 2786 701 
Q 3034 994 3034 1497 
Q 3034 2003 2786 2293 
Q 2538 2584 2113 2584 
z
M 3366 4563 
L 3366 3988 
Q 3128 4100 2886 4159 
Q 2644 4219 2406 4219 
Q 1781 4219 1451 3797 
Q 1122 3375 1075 2522 
Q 1259 2794 1537 2939 
Q 1816 3084 2150 3084 
Q 2853 3084 3261 2657 
Q 3669 2231 3669 1497 
Q 3669 778 3244 343 
Q 2819 -91 2113 -91 
Q 1303 -91 875 529 
Q 447 1150 447 2328 
Q 447 3434 972 4092 
Q 1497 4750 2381 4750 
Q 2619 4750 2861 4703 
Q 3103 4656 3366 4563 
z
" transform="scale(0.015625)"/>
       </defs>
       <use xlink:href="#DejaVuSans-36"/>
       <use xlink:href="#DejaVuSans-30" x="63.623047"/>
      </g>
     </g>
    </g>
    <g id="xtick_5">
     <g id="line2d_5">
      <g>
       <use xlink:href="#m6e9b7fe13e" x="367.091231" y="343.23316" style="stroke: #000000"/>
      </g>
     </g>
     <g id="text_5">
      <!-- 80 -->
      <g transform="translate(355.893231 364.90641) scale(0.176 -0.176)">
       <defs>
        <path id="DejaVuSans-38" d="M 2034 2216 
Q 1584 2216 1326 1975 
Q 1069 1734 1069 1313 
Q 1069 891 1326 650 
Q 1584 409 2034 409 
Q 2484 409 2743 651 
Q 3003 894 3003 1313 
Q 3003 1734 2745 1975 
Q 2488 2216 2034 2216 
z
M 1403 2484 
Q 997 2584 770 2862 
Q 544 3141 544 3541 
Q 544 4100 942 4425 
Q 1341 4750 2034 4750 
Q 2731 4750 3128 4425 
Q 3525 4100 3525 3541 
Q 3525 3141 3298 2862 
Q 3072 2584 2669 2484 
Q 3125 2378 3379 2068 
Q 3634 1759 3634 1313 
Q 3634 634 3220 271 
Q 2806 -91 2034 -91 
Q 1263 -91 848 271 
Q 434 634 434 1313 
Q 434 1759 690 2068 
Q 947 2378 1403 2484 
z
M 1172 3481 
Q 1172 3119 1398 2916 
Q 1625 2713 2034 2713 
Q 2441 2713 2670 2916 
Q 2900 3119 2900 3481 
Q 2900 3844 2670 4047 
Q 2441 4250 2034 4250 
Q 1625 4250 1398 4047 
Q 1172 3844 1172 3481 
z
" transform="scale(0.015625)"/>
       </defs>
       <use xlink:href="#DejaVuSans-38"/>
       <use xlink:href="#DejaVuSans-30" x="63.623047"/>
      </g>
     </g>
    </g>
    <g id="text_6">
     <!-- State -->
     <g transform="translate(208.06 387.15566) scale(0.192 -0.192)">
      <defs>
       <path id="DejaVuSans-53" d="M 3425 4513 
L 3425 3897 
Q 3066 4069 2747 4153 
Q 2428 4238 2131 4238 
Q 1616 4238 1336 4038 
Q 1056 3838 1056 3469 
Q 1056 3159 1242 3001 
Q 1428 2844 1947 2747 
L 2328 2669 
Q 3034 2534 3370 2195 
Q 3706 1856 3706 1288 
Q 3706 609 3251 259 
Q 2797 -91 1919 -91 
Q 1588 -91 1214 -16 
Q 841 59 441 206 
L 441 856 
Q 825 641 1194 531 
Q 1563 422 1919 422 
Q 2459 422 2753 634 
Q 3047 847 3047 1241 
Q 3047 1584 2836 1778 
Q 2625 1972 2144 2069 
L 1759 2144 
Q 1053 2284 737 2584 
Q 422 2884 422 3419 
Q 422 4038 858 4394 
Q 1294 4750 2059 4750 
Q 2388 4750 2728 4690 
Q 3069 4631 3425 4513 
z
" transform="scale(0.015625)"/>
       <path id="DejaVuSans-74" d="M 1172 4494 
L 1172 3500 
L 2356 3500 
L 2356 3053 
L 1172 3053 
L 1172 1153 
Q 1172 725 1289 603 
Q 1406 481 1766 481 
L 2356 481 
L 2356 0 
L 1766 0 
Q 1100 0 847 248 
Q 594 497 594 1153 
L 594 3053 
L 172 3053 
L 172 3500 
L 594 3500 
L 594 4494 
L 1172 4494 
z
" transform="scale(0.015625)"/>
       <path id="DejaVuSans-61" d="M 2194 1759 
Q 1497 1759 1228 1600 
Q 959 1441 959 1056 
Q 959 750 1161 570 
Q 1363 391 1709 391 
Q 2188 391 2477 730 
Q 2766 1069 2766 1631 
L 2766 1759 
L 2194 1759 
z
M 3341 1997 
L 3341 0 
L 2766 0 
L 2766 531 
Q 2569 213 2275 61 
Q 1981 -91 1556 -91 
Q 1019 -91 701 211 
Q 384 513 384 1019 
Q 384 1609 779 1909 
Q 1175 2209 1959 2209 
L 2766 2209 
L 2766 2266 
Q 2766 2663 2505 2880 
Q 2244 3097 1772 3097 
Q 1472 3097 1187 3025 
Q 903 2953 641 2809 
L 641 3341 
Q 956 3463 1253 3523 
Q 1550 3584 1831 3584 
Q 2591 3584 2966 3190 
Q 3341 2797 3341 1997 
z
" transform="scale(0.015625)"/>
       <path id="DejaVuSans-65" d="M 3597 1894 
L 3597 1613 
L 953 1613 
Q 991 1019 1311 708 
Q 1631 397 2203 397 
Q 2534 397 2845 478 
Q 3156 559 3463 722 
L 3463 178 
Q 3153 47 2828 -22 
Q 2503 -91 2169 -91 
Q 1331 -91 842 396 
Q 353 884 353 1716 
Q 353 2575 817 3079 
Q 1281 3584 2069 3584 
Q 2775 3584 3186 3129 
Q 3597 2675 3597 1894 
z
M 3022 2063 
Q 3016 2534 2758 2815 
Q 2500 3097 2075 3097 
Q 1594 3097 1305 2825 
Q 1016 2553 972 2059 
L 3022 2063 
z
" transform="scale(0.015625)"/>
      </defs>
      <use xlink:href="#DejaVuSans-53"/>
      <use xlink:href="#DejaVuSans-74" x="63.476562"/>
      <use xlink:href="#DejaVuSans-61" x="102.685547"/>
      <use xlink:href="#DejaVuSans-74" x="163.964844"/>
      <use xlink:href="#DejaVuSans-65" x="203.173828"/>
     </g>
    </g>
   </g>
   <g id="matplotlib.axis_2">
    <g id="ytick_1">
     <g id="line2d_6">
      <defs>
       <path id="m1be17727a2" d="M 0 0 
L -4.8 0 
" style="stroke: #000000"/>
      </defs>
      <g>
       <use xlink:href="#m1be17727a2" x="66.0715" y="343.23316" style="stroke: #000000"/>
      </g>
     </g>
     <g id="text_7">
      <!-- 0.0 -->
      <g transform="translate(29.782 349.919785) scale(0.176 -0.176)">
       <defs>
        <path id="DejaVuSans-2e" d="M 684 794 
L 1344 794 
L 1344 0 
L 684 0 
L 684 794 
z
" transform="scale(0.015625)"/>
       </defs>
       <use xlink:href="#DejaVuSans-30"/>
       <use xlink:href="#DejaVuSans-2e" x="63.623047"/>
       <use xlink:href="#DejaVuSans-30" x="95.410156"/>
      </g>
     </g>
    </g>
    <g id="ytick_2">
     <g id="line2d_7">
      <g>
       <use xlink:href="#m1be17727a2" x="66.0715" y="277.363853" style="stroke: #000000"/>
      </g>
     </g>
     <g id="text_8">
      <!-- 0.2 -->
      <g transform="translate(29.782 284.050478) scale(0.176 -0.176)">
       <use xlink:href="#DejaVuSans-30"/>
       <use xlink:href="#DejaVuSans-2e" x="63.623047"/>
       <use xlink:href="#DejaVuSans-32" x="95.410156"/>
      </g>
     </g>
    </g>
    <g id="ytick_3">
     <g id="line2d_8">
      <g>
       <use xlink:href="#m1be17727a2" x="66.0715" y="211.494546" style="stroke: #000000"/>
      </g>
     </g>
     <g id="text_9">
      <!-- 0.4 -->
      <g transform="translate(29.782 218.181171) scale(0.176 -0.176)">
       <use xlink:href="#DejaVuSans-30"/>
       <use xlink:href="#DejaVuSans-2e" x="63.623047"/>
       <use xlink:href="#DejaVuSans-34" x="95.410156"/>
      </g>
     </g>
    </g>
    <g id="ytick_4">
     <g id="line2d_9">
      <g>
       <use xlink:href="#m1be17727a2" x="66.0715" y="145.625239" style="stroke: #000000"/>
      </g>
     </g>
     <g id="text_10">
      <!-- 0.6 -->
      <g transform="translate(29.782 152.311864) scale(0.176 -0.176)">
       <use xlink:href="#DejaVuSans-30"/>
       <use xlink:href="#DejaVuSans-2e" x="63.623047"/>
       <use xlink:href="#DejaVuSans-36" x="95.410156"/>
      </g>
     </g>
    </g>
    <g id="ytick_5">
     <g id="line2d_10">
      <g>
       <use xlink:href="#m1be17727a2" x="66.0715" y="79.755932" style="stroke: #000000"/>
      </g>
     </g>
     <g id="text_11">
      <!-- 0.8 -->
      <g transform="translate(29.782 86.442557) scale(0.176 -0.176)">
       <use xlink:href="#DejaVuSans-30"/>
       <use xlink:href="#DejaVuSans-2e" x="63.623047"/>
       <use xlink:href="#DejaVuSans-38" x="95.410156"/>
      </g>
     </g>
    </g>
    <g id="ytick_6">
     <g id="line2d_11">
      <g>
       <use xlink:href="#m1be17727a2" x="66.0715" y="13.886625" style="stroke: #000000"/>
      </g>
     </g>
     <g id="text_12">
      <!-- 1.0 -->
      <g transform="translate(29.782 20.57325) scale(0.176 -0.176)">
       <defs>
        <path id="DejaVuSans-31" d="M 794 531 
L 1825 531 
L 1825 4091 
L 703 3866 
L 703 4441 
L 1819 4666 
L 2450 4666 
L 2450 531 
L 3481 531 
L 3481 0 
L 794 0 
L 794 531 
z
" transform="scale(0.015625)"/>
       </defs>
       <use xlink:href="#DejaVuSans-31"/>
       <use xlink:href="#DejaVuSans-2e" x="63.623047"/>
       <use xlink:href="#DejaVuSans-30" x="95.410156"/>
      </g>
     </g>
    </g>
    <g id="text_13">
     <!-- Score -->
     <g transform="translate(21.789 203.79766) rotate(-90) scale(0.192 -0.192)">
      <defs>
       <path id="DejaVuSans-63" d="M 3122 3366 
L 3122 2828 
Q 2878 2963 2633 3030 
Q 2388 3097 2138 3097 
Q 1578 3097 1268 2742 
Q 959 2388 959 1747 
Q 959 1106 1268 751 
Q 1578 397 2138 397 
Q 2388 397 2633 464 
Q 2878 531 3122 666 
L 3122 134 
Q 2881 22 2623 -34 
Q 2366 -91 2075 -91 
Q 1284 -91 818 406 
Q 353 903 353 1747 
Q 353 2603 823 3093 
Q 1294 3584 2113 3584 
Q 2378 3584 2631 3529 
Q 2884 3475 3122 3366 
z
" transform="scale(0.015625)"/>
       <path id="DejaVuSans-6f" d="M 1959 3097 
Q 1497 3097 1228 2736 
Q 959 2375 959 1747 
Q 959 1119 1226 758 
Q 1494 397 1959 397 
Q 2419 397 2687 759 
Q 2956 1122 2956 1747 
Q 2956 2369 2687 2733 
Q 2419 3097 1959 3097 
z
M 1959 3584 
Q 2709 3584 3137 3096 
Q 3566 2609 3566 1747 
Q 3566 888 3137 398 
Q 2709 -91 1959 -91 
Q 1206 -91 779 398 
Q 353 888 353 1747 
Q 353 2609 779 3096 
Q 1206 3584 1959 3584 
z
" transform="scale(0.015625)"/>
       <path id="DejaVuSans-72" d="M 2631 2963 
Q 2534 3019 2420 3045 
Q 2306 3072 2169 3072 
Q 1681 3072 1420 2755 
Q 1159 2438 1159 1844 
L 1159 0 
L 581 0 
L 581 3500 
L 1159 3500 
L 1159 2956 
Q 1341 3275 1631 3429 
Q 1922 3584 2338 3584 
Q 2397 3584 2469 3576 
Q 2541 3569 2628 3553 
L 2631 2963 
z
" transform="scale(0.015625)"/>
      </defs>
      <use xlink:href="#DejaVuSans-53"/>
      <use xlink:href="#DejaVuSans-63" x="63.476562"/>
      <use xlink:href="#DejaVuSans-6f" x="118.457031"/>
      <use xlink:href="#DejaVuSans-72" x="179.638672"/>
      <use xlink:href="#DejaVuSans-65" x="218.501953"/>
     </g>
    </g>
   </g>
   <g id="line2d_12">
    <path d="M 89.342352 53.094546 
L 93.095715 53.094546 
L 96.849078 53.094546 
L 100.602442 53.094546 
L 104.355805 53.094546 
L 108.109168 53.094546 
L 111.862531 28.20604 
L 119.369258 28.20604 
L 123.122621 25.906572 
L 126.875984 33.374586 
L 130.629348 23.806701 
L 138.136074 23.806701 
L 141.889437 140.395272 
L 145.6428 139.25079 
L 149.396164 139.318603 
L 156.90289 138.447173 
L 160.656253 137.125973 
L 168.16298 137.125973 
L 175.669706 128.345622 
L 183.176433 124.666823 
L 186.929796 122.661627 
L 190.683159 110.940435 
L 194.436522 89.956166 
L 201.943249 83.268962 
L 209.449975 132.245536 
L 213.203339 70.008456 
L 216.956702 68.158176 
L 224.463428 63.176583 
L 228.216791 57.342071 
L 231.970155 55.246422 
L 235.723518 45.478619 
L 243.230244 24.836766 
L 246.983608 13.886625 
L 250.736971 13.886625 
L 254.490334 13.886625 
L 258.243697 13.886625 
L 265.750424 13.886625 
L 269.503787 13.886625 
L 277.010513 92.157252 
L 307.037419 13.886625 
L 314.544146 13.886625 
L 325.804235 13.886625 
L 333.310962 13.886625 
L 337.064325 13.886625 
L 348.324415 13.886625 
L 352.077778 13.886625 
L 359.584504 13.886625 
L 367.091231 13.886625 
L 393.364774 20.982062 
L 397.118137 13.886625 
L 400.8715 13.886625 
" clip-path="url(#p69a6a15f5b)" style="fill: none; stroke-dasharray: 2,3.3; stroke-dashoffset: 0; stroke: #e41a1c; stroke-width: 2"/>
   </g>
   <g id="line2d_13">
    <path d="M 66.822173 343.23316 
L 70.575536 343.23316 
L 81.835626 343.23316 
L 85.588989 343.23316 
L 89.342352 321.036763 
L 93.095715 321.036763 
L 96.849078 321.036763 
L 100.602442 321.036763 
L 104.355805 321.036763 
L 108.109168 321.036763 
L 111.862531 277.243872 
L 119.369258 277.243872 
L 123.122621 264.046015 
L 126.875984 247.848644 
L 130.629348 246.648839 
L 138.136074 246.648839 
L 141.889437 171.06111 
L 145.6428 170.461207 
L 149.396164 168.661499 
L 156.90289 168.661499 
L 160.656253 168.661499 
L 168.16298 168.661499 
L 175.669706 168.661499 
L 183.176433 168.061597 
L 186.929796 168.061597 
L 190.683159 168.061597 
L 194.436522 167.461694 
L 201.943249 165.661986 
L 209.449975 121.869095 
L 213.203339 121.269193 
L 216.956702 121.269193 
L 224.463428 118.26968 
L 228.216791 118.26968 
L 231.970155 117.669777 
L 235.723518 117.069874 
L 243.230244 116.469972 
L 246.983608 116.469972 
L 250.736971 96.673186 
L 254.490334 96.673186 
L 258.243697 49.280879 
L 265.750424 48.680977 
L 269.503787 46.881269 
L 277.010513 46.881269 
L 307.037419 46.281366 
L 314.544146 46.281366 
L 325.804235 46.281366 
L 333.310962 26.48458 
L 337.064325 24.684872 
L 348.324415 24.684872 
L 352.077778 23.485067 
L 359.584504 23.485067 
L 367.091231 23.485067 
L 393.364774 16.286235 
L 397.118137 16.286235 
L 400.8715 13.886625 
" clip-path="url(#p69a6a15f5b)" style="fill: none; stroke-dasharray: 7.4,3.2; stroke-dashoffset: 0; stroke: #377eb8; stroke-width: 2"/>
   </g>
   <g id="line2d_14">
    <path d="M 89.342352 301.995184 
L 93.095715 301.995184 
L 96.849078 301.995184 
L 100.602442 301.995184 
L 104.355805 301.995184 
L 108.109168 301.995184 
L 111.862531 234.11232 
L 119.369258 234.11232 
L 123.122621 216.487554 
L 126.875984 197.366589 
L 130.629348 194.912063 
L 138.136074 194.912063 
L 141.889437 156.982016 
L 145.6428 156.148738 
L 149.396164 155.127484 
L 156.90289 154.757562 
L 160.656253 154.199942 
L 168.16298 154.199942 
L 175.669706 150.590262 
L 183.176433 148.755529 
L 186.929796 147.965773 
L 190.683159 143.504835 
L 194.436522 135.709429 
L 201.943249 132.223259 
L 209.449975 127.181833 
L 213.203339 98.292018 
L 216.956702 97.551269 
L 224.463428 93.728209 
L 228.216791 91.439173 
L 231.970155 90.25196 
L 235.723518 86.165575 
L 243.230244 78.354457 
L 246.983608 74.639869 
L 250.736971 61.230189 
L 254.490334 61.230189 
L 258.243697 32.58869 
L 265.750424 32.254028 
L 269.503787 31.253892 
L 277.010513 71.391575 
L 307.037419 30.921791 
L 314.544146 30.921791 
L 325.804235 30.921791 
L 333.310962 20.308424 
L 337.064325 19.375734 
L 348.324415 19.375734 
L 352.077778 18.756814 
L 359.584504 18.756814 
L 367.091231 18.756814 
L 393.364774 18.651132 
L 397.118137 15.090817 
L 400.8715 13.886625 
" clip-path="url(#p69a6a15f5b)" style="fill: none; stroke: #984ea3; stroke-width: 3; stroke-linecap: square"/>
   </g>
   <g id="patch_3">
    <path d="M 66.0715 343.23316 
L 66.0715 10.59316 
" style="fill: none; stroke: #000000; stroke-linejoin: miter; stroke-linecap: square"/>
   </g>
   <g id="patch_4">
    <path d="M 66.0715 343.23316 
L 400.8715 343.23316 
" style="fill: none; stroke: #000000; stroke-linejoin: miter; stroke-linecap: square"/>
   </g>
   <g id="legend_1">
    <g id="patch_5">
     <path d="M 253.71075 334.43316 
L 388.5515 334.43316 
Q 392.0715 334.43316 392.0715 330.91316 
L 392.0715 255.17266 
Q 392.0715 251.65266 388.5515 251.65266 
L 253.71075 251.65266 
Q 250.19075 251.65266 250.19075 255.17266 
L 250.19075 330.91316 
Q 250.19075 334.43316 253.71075 334.43316 
z
" style="fill: #ffffff; opacity: 0.8; stroke: #cccccc; stroke-width: 0.8; stroke-linejoin: miter"/>
    </g>
    <g id="line2d_15">
     <path d="M 257.23075 265.90591 
L 274.83075 265.90591 
L 292.43075 265.90591 
" style="fill: none; stroke-dasharray: 2,3.3; stroke-dashoffset: 0; stroke: #e41a1c; stroke-width: 2"/>
    </g>
    <g id="text_14">
     <!-- Precision -->
     <g transform="translate(306.51075 272.06591) scale(0.176 -0.176)">
      <defs>
       <path id="DejaVuSans-50" d="M 1259 4147 
L 1259 2394 
L 2053 2394 
Q 2494 2394 2734 2622 
Q 2975 2850 2975 3272 
Q 2975 3691 2734 3919 
Q 2494 4147 2053 4147 
L 1259 4147 
z
M 628 4666 
L 2053 4666 
Q 2838 4666 3239 4311 
Q 3641 3956 3641 3272 
Q 3641 2581 3239 2228 
Q 2838 1875 2053 1875 
L 1259 1875 
L 1259 0 
L 628 0 
L 628 4666 
z
" transform="scale(0.015625)"/>
       <path id="DejaVuSans-69" d="M 603 3500 
L 1178 3500 
L 1178 0 
L 603 0 
L 603 3500 
z
M 603 4863 
L 1178 4863 
L 1178 4134 
L 603 4134 
L 603 4863 
z
" transform="scale(0.015625)"/>
       <path id="DejaVuSans-73" d="M 2834 3397 
L 2834 2853 
Q 2591 2978 2328 3040 
Q 2066 3103 1784 3103 
Q 1356 3103 1142 2972 
Q 928 2841 928 2578 
Q 928 2378 1081 2264 
Q 1234 2150 1697 2047 
L 1894 2003 
Q 2506 1872 2764 1633 
Q 3022 1394 3022 966 
Q 3022 478 2636 193 
Q 2250 -91 1575 -91 
Q 1294 -91 989 -36 
Q 684 19 347 128 
L 347 722 
Q 666 556 975 473 
Q 1284 391 1588 391 
Q 1994 391 2212 530 
Q 2431 669 2431 922 
Q 2431 1156 2273 1281 
Q 2116 1406 1581 1522 
L 1381 1569 
Q 847 1681 609 1914 
Q 372 2147 372 2553 
Q 372 3047 722 3315 
Q 1072 3584 1716 3584 
Q 2034 3584 2315 3537 
Q 2597 3491 2834 3397 
z
" transform="scale(0.015625)"/>
       <path id="DejaVuSans-6e" d="M 3513 2113 
L 3513 0 
L 2938 0 
L 2938 2094 
Q 2938 2591 2744 2837 
Q 2550 3084 2163 3084 
Q 1697 3084 1428 2787 
Q 1159 2491 1159 1978 
L 1159 0 
L 581 0 
L 581 3500 
L 1159 3500 
L 1159 2956 
Q 1366 3272 1645 3428 
Q 1925 3584 2291 3584 
Q 2894 3584 3203 3211 
Q 3513 2838 3513 2113 
z
" transform="scale(0.015625)"/>
      </defs>
      <use xlink:href="#DejaVuSans-50"/>
      <use xlink:href="#DejaVuSans-72" x="58.552734"/>
      <use xlink:href="#DejaVuSans-65" x="97.416016"/>
      <use xlink:href="#DejaVuSans-63" x="158.939453"/>
      <use xlink:href="#DejaVuSans-69" x="213.919922"/>
      <use xlink:href="#DejaVuSans-73" x="241.703125"/>
      <use xlink:href="#DejaVuSans-69" x="293.802734"/>
      <use xlink:href="#DejaVuSans-6f" x="321.585938"/>
      <use xlink:href="#DejaVuSans-6e" x="382.767578"/>
     </g>
    </g>
    <g id="line2d_16">
     <path d="M 257.23075 291.73941 
L 274.83075 291.73941 
L 292.43075 291.73941 
" style="fill: none; stroke-dasharray: 7.4,3.2; stroke-dashoffset: 0; stroke: #377eb8; stroke-width: 2"/>
    </g>
    <g id="text_15">
     <!-- Recall -->
     <g transform="translate(306.51075 297.89941) scale(0.176 -0.176)">
      <defs>
       <path id="DejaVuSans-52" d="M 2841 2188 
Q 3044 2119 3236 1894 
Q 3428 1669 3622 1275 
L 4263 0 
L 3584 0 
L 2988 1197 
Q 2756 1666 2539 1819 
Q 2322 1972 1947 1972 
L 1259 1972 
L 1259 0 
L 628 0 
L 628 4666 
L 2053 4666 
Q 2853 4666 3247 4331 
Q 3641 3997 3641 3322 
Q 3641 2881 3436 2590 
Q 3231 2300 2841 2188 
z
M 1259 4147 
L 1259 2491 
L 2053 2491 
Q 2509 2491 2742 2702 
Q 2975 2913 2975 3322 
Q 2975 3731 2742 3939 
Q 2509 4147 2053 4147 
L 1259 4147 
z
" transform="scale(0.015625)"/>
       <path id="DejaVuSans-6c" d="M 603 4863 
L 1178 4863 
L 1178 0 
L 603 0 
L 603 4863 
z
" transform="scale(0.015625)"/>
      </defs>
      <use xlink:href="#DejaVuSans-52"/>
      <use xlink:href="#DejaVuSans-65" x="64.982422"/>
      <use xlink:href="#DejaVuSans-63" x="126.505859"/>
      <use xlink:href="#DejaVuSans-61" x="181.486328"/>
      <use xlink:href="#DejaVuSans-6c" x="242.765625"/>
      <use xlink:href="#DejaVuSans-6c" x="270.548828"/>
     </g>
    </g>
    <g id="line2d_17">
     <path d="M 257.23075 317.57291 
L 274.83075 317.57291 
L 292.43075 317.57291 
" style="fill: none; stroke: #984ea3; stroke-width: 3; stroke-linecap: square"/>
    </g>
    <g id="text_16">
     <!-- F1 -->
     <g transform="translate(306.51075 323.73291) scale(0.176 -0.176)">
      <defs>
       <path id="DejaVuSans-46" d="M 628 4666 
L 3309 4666 
L 3309 4134 
L 1259 4134 
L 1259 2759 
L 3109 2759 
L 3109 2228 
L 1259 2228 
L 1259 0 
L 628 0 
L 628 4666 
z
" transform="scale(0.015625)"/>
      </defs>
      <use xlink:href="#DejaVuSans-46"/>
      <use xlink:href="#DejaVuSans-31" x="57.519531"/>
     </g>
    </g>
   </g>
  </g>
 </g>
 <defs>
  <clipPath id="p69a6a15f5b">
   <rect x="66.0715" y="10.59316" width="334.8" height="332.64"/>
  </clipPath>
 </defs>
</svg>
