<?xml version="1.0" encoding="utf-8" standalone="no"?>
<!DOCTYPE svg PUBLIC "-//W3C//DTD SVG 1.1//EN"
  "http://www.w3.org/Graphics/SVG/1.1/DTD/svg11.dtd">
<svg xmlns:xlink="http://www.w3.org/1999/xlink" width="408.0715pt" height="398.34866pt" viewBox="0 0 408.0715 398.34866" xmlns="http://www.w3.org/2000/svg" version="1.1">
 <metadata>
  <rdf:RDF xmlns:dc="http://purl.org/dc/elements/1.1/" xmlns:cc="http://creativecommons.org/ns#" xmlns:rdf="http://www.w3.org/1999/02/22-rdf-syntax-ns#">
   <cc:Work>
    <dc:type rdf:resource="http://purl.org/dc/dcmitype/StillImage"/>
    <dc:date>2024-10-01T11:02:26.025010</dc:date>
    <dc:format>image/svg+xml</dc:format>
    <dc:creator>
     <cc:Agent>
      <dc:title>Matplotlib v3.8.0, https://matplotlib.org/</dc:title>
     </cc:Agent>
    </dc:creator>
   </cc:Work>
  </rdf:RDF>
 </metadata>
 <defs>
  <style type="text/css">*{stroke-linejoin: round; stroke-linecap: butt}</style>
 </defs>
 <g id="figure_1">
  <g id="patch_1">
   <path d="M 0 398.34866 
L 408.0715 398.34866 
L 408.0715 0 
L 0 0 
z
" style="fill: #ffffff"/>
  </g>
  <g id="axes_1">
   <g id="patch_2">
    <path d="M 66.0715 343.23316 
L 400.8715 343.23316 
L 400.8715 10.59316 
L 66.0715 10.59316 
z
" style="fill: #ffffff"/>
   </g>
   <g id="PolyCollection_1"/>
   <g id="PolyCollection_2"/>
   <g id="PolyCollection_3"/>
   <g id="PolyCollection_4">
    <defs>
     <path id="m711de264ff" d="M 66.822173 -387.7555 
L 66.822173 -55.1155 
L 70.575536 -55.1155 
L 70.575536 -387.7555 
L 70.575536 -387.7555 
L 66.822173 -387.7555 
z
"/>
    </defs>
    <g clip-path="url(#p572124f0f5)">
     <use xlink:href="#m711de264ff" x="0" y="398.34866" style="fill: #1b9e77; fill-opacity: 0.2"/>
    </g>
   </g>
   <g id="PolyCollection_5">
    <defs>
     <path id="m265f628dec" d="M 70.575536 -387.7555 
L 70.575536 -55.1155 
L 74.328899 -55.1155 
L 74.328899 -387.7555 
L 74.328899 -387.7555 
L 70.575536 -387.7555 
z
"/>
    </defs>
    <g clip-path="url(#p572124f0f5)">
     <use xlink:href="#m265f628dec" x="0" y="398.34866" style="fill: #d95f02; fill-opacity: 0.2"/>
    </g>
   </g>
   <g id="PolyCollection_6">
    <defs>
     <path id="mfa0f537985" d="M 74.328899 -387.7555 
L 74.328899 -55.1155 
L 78.082262 -55.1155 
L 78.082262 -387.7555 
L 78.082262 -387.7555 
L 74.328899 -387.7555 
z
"/>
    </defs>
    <g clip-path="url(#p572124f0f5)">
     <use xlink:href="#mfa0f537985" x="0" y="398.34866" style="fill: #1b9e77; fill-opacity: 0.2"/>
    </g>
   </g>
   <g id="PolyCollection_7">
    <defs>
     <path id="mae0829fd3d" d="M 78.082262 -387.7555 
L 78.082262 -55.1155 
L 81.835626 -55.1155 
L 81.835626 -387.7555 
L 81.835626 -387.7555 
L 78.082262 -387.7555 
z
"/>
    </defs>
    <g clip-path="url(#p572124f0f5)">
     <use xlink:href="#mae0829fd3d" x="0" y="398.34866" style="fill: #1b9e77; fill-opacity: 0.2"/>
    </g>
   </g>
   <g id="PolyCollection_8">
    <defs>
     <path id="m15f7063f80" d="M 81.835626 -387.7555 
L 81.835626 -55.1155 
L 85.588989 -55.1155 
L 85.588989 -387.7555 
L 85.588989 -387.7555 
L 81.835626 -387.7555 
z
"/>
    </defs>
    <g clip-path="url(#p572124f0f5)">
     <use xlink:href="#m15f7063f80" x="0" y="398.34866" style="fill: #1b9e77; fill-opacity: 0.2"/>
    </g>
   </g>
   <g id="PolyCollection_9">
    <defs>
     <path id="m3809714661" d="M 85.588989 -387.7555 
L 85.588989 -55.1155 
L 89.342352 -55.1155 
L 89.342352 -387.7555 
L 89.342352 -387.7555 
L 85.588989 -387.7555 
z
"/>
    </defs>
    <g clip-path="url(#p572124f0f5)">
     <use xlink:href="#m3809714661" x="0" y="398.34866" style="fill: #1b9e77; fill-opacity: 0.2"/>
    </g>
   </g>
   <g id="PolyCollection_10">
    <defs>
     <path id="m2c05acc7f0" d="M 89.342352 -387.7555 
L 89.342352 -55.1155 
L 93.095715 -55.1155 
L 93.095715 -387.7555 
L 93.095715 -387.7555 
L 89.342352 -387.7555 
z
"/>
    </defs>
    <g clip-path="url(#p572124f0f5)">
     <use xlink:href="#m2c05acc7f0" x="0" y="398.34866" style="fill: #d95f02; fill-opacity: 0.2"/>
    </g>
   </g>
   <g id="PolyCollection_11">
    <defs>
     <path id="m2f59e54b05" d="M 93.095715 -387.7555 
L 93.095715 -55.1155 
L 96.849078 -55.1155 
L 96.849078 -387.7555 
L 96.849078 -387.7555 
L 93.095715 -387.7555 
z
"/>
    </defs>
    <g clip-path="url(#p572124f0f5)">
     <use xlink:href="#m2f59e54b05" x="0" y="398.34866" style="fill: #d95f02; fill-opacity: 0.2"/>
    </g>
   </g>
   <g id="PolyCollection_12">
    <defs>
     <path id="mb3cd1f5ada" d="M 96.849078 -387.7555 
L 96.849078 -55.1155 
L 100.602442 -55.1155 
L 100.602442 -387.7555 
L 100.602442 -387.7555 
L 96.849078 -387.7555 
z
"/>
    </defs>
    <g clip-path="url(#p572124f0f5)">
     <use xlink:href="#mb3cd1f5ada" x="0" y="398.34866" style="fill: #d95f02; fill-opacity: 0.2"/>
    </g>
   </g>
   <g id="PolyCollection_13">
    <defs>
     <path id="m9268713f3e" d="M 100.602442 -387.7555 
L 100.602442 -55.1155 
L 104.355805 -55.1155 
L 104.355805 -387.7555 
L 104.355805 -387.7555 
L 100.602442 -387.7555 
z
"/>
    </defs>
    <g clip-path="url(#p572124f0f5)">
     <use xlink:href="#m9268713f3e" x="0" y="398.34866" style="fill: #d95f02; fill-opacity: 0.2"/>
    </g>
   </g>
   <g id="PolyCollection_14">
    <defs>
     <path id="m009d908abb" d="M 104.355805 -387.7555 
L 104.355805 -55.1155 
L 108.109168 -55.1155 
L 108.109168 -387.7555 
L 108.109168 -387.7555 
L 104.355805 -387.7555 
z
"/>
    </defs>
    <g clip-path="url(#p572124f0f5)">
     <use xlink:href="#m009d908abb" x="0" y="398.34866" style="fill: #1b9e77; fill-opacity: 0.2"/>
    </g>
   </g>
   <g id="PolyCollection_15">
    <defs>
     <path id="m4b96e60940" d="M 108.109168 -387.7555 
L 108.109168 -55.1155 
L 111.862531 -55.1155 
L 111.862531 -387.7555 
L 111.862531 -387.7555 
L 108.109168 -387.7555 
z
"/>
    </defs>
    <g clip-path="url(#p572124f0f5)">
     <use xlink:href="#m4b96e60940" x="0" y="398.34866" style="fill: #d95f02; fill-opacity: 0.2"/>
    </g>
   </g>
   <g id="PolyCollection_16">
    <defs>
     <path id="m4d1534b073" d="M 111.862531 -387.7555 
L 111.862531 -55.1155 
L 115.615895 -55.1155 
L 115.615895 -387.7555 
L 115.615895 -387.7555 
L 111.862531 -387.7555 
z
"/>
    </defs>
    <g clip-path="url(#p572124f0f5)">
     <use xlink:href="#m4d1534b073" x="0" y="398.34866" style="fill: #1b9e77; fill-opacity: 0.2"/>
    </g>
   </g>
   <g id="PolyCollection_17">
    <defs>
     <path id="md4d6113633" d="M 115.615895 -387.7555 
L 115.615895 -55.1155 
L 119.369258 -55.1155 
L 119.369258 -387.7555 
L 119.369258 -387.7555 
L 115.615895 -387.7555 
z
"/>
    </defs>
    <g clip-path="url(#p572124f0f5)">
     <use xlink:href="#md4d6113633" x="0" y="398.34866" style="fill: #d95f02; fill-opacity: 0.2"/>
    </g>
   </g>
   <g id="PolyCollection_18">
    <defs>
     <path id="m8e2c5afc4c" d="M 119.369258 -387.7555 
L 119.369258 -55.1155 
L 123.122621 -55.1155 
L 123.122621 -387.7555 
L 123.122621 -387.7555 
L 119.369258 -387.7555 
z
"/>
    </defs>
    <g clip-path="url(#p572124f0f5)">
     <use xlink:href="#m8e2c5afc4c" x="0" y="398.34866" style="fill: #1b9e77; fill-opacity: 0.2"/>
    </g>
   </g>
   <g id="PolyCollection_19">
    <defs>
     <path id="m9fbd050041" d="M 123.122621 -387.7555 
L 123.122621 -55.1155 
L 126.875984 -55.1155 
L 126.875984 -387.7555 
L 126.875984 -387.7555 
L 123.122621 -387.7555 
z
"/>
    </defs>
    <g clip-path="url(#p572124f0f5)">
     <use xlink:href="#m9fbd050041" x="0" y="398.34866" style="fill: #d95f02; fill-opacity: 0.2"/>
    </g>
   </g>
   <g id="PolyCollection_20">
    <defs>
     <path id="mdd2e8f814c" d="M 126.875984 -387.7555 
L 126.875984 -55.1155 
L 130.629348 -55.1155 
L 130.629348 -387.7555 
L 130.629348 -387.7555 
L 126.875984 -387.7555 
z
"/>
    </defs>
    <g clip-path="url(#p572124f0f5)">
     <use xlink:href="#mdd2e8f814c" x="0" y="398.34866" style="fill: #d95f02; fill-opacity: 0.2"/>
    </g>
   </g>
   <g id="PolyCollection_21">
    <defs>
     <path id="m94a5b9ea2a" d="M 130.629348 -387.7555 
L 130.629348 -55.1155 
L 134.382711 -55.1155 
L 134.382711 -387.7555 
L 134.382711 -387.7555 
L 130.629348 -387.7555 
z
"/>
    </defs>
    <g clip-path="url(#p572124f0f5)">
     <use xlink:href="#m94a5b9ea2a" x="0" y="398.34866" style="fill: #1b9e77; fill-opacity: 0.2"/>
    </g>
   </g>
   <g id="PolyCollection_22">
    <defs>
     <path id="mb89d3f2fb9" d="M 134.382711 -387.7555 
L 134.382711 -55.1155 
L 138.136074 -55.1155 
L 138.136074 -387.7555 
L 138.136074 -387.7555 
L 134.382711 -387.7555 
z
"/>
    </defs>
    <g clip-path="url(#p572124f0f5)">
     <use xlink:href="#mb89d3f2fb9" x="0" y="398.34866" style="fill: #1b9e77; fill-opacity: 0.2"/>
    </g>
   </g>
   <g id="PolyCollection_23">
    <defs>
     <path id="m6384ea36d7" d="M 138.136074 -387.7555 
L 138.136074 -55.1155 
L 141.889437 -55.1155 
L 141.889437 -387.7555 
L 141.889437 -387.7555 
L 138.136074 -387.7555 
z
"/>
    </defs>
    <g clip-path="url(#p572124f0f5)">
     <use xlink:href="#m6384ea36d7" x="0" y="398.34866" style="fill: #d95f02; fill-opacity: 0.2"/>
    </g>
   </g>
   <g id="PolyCollection_24">
    <defs>
     <path id="m4bbb025a54" d="M 141.889437 -387.7555 
L 141.889437 -55.1155 
L 145.6428 -55.1155 
L 145.6428 -387.7555 
L 145.6428 -387.7555 
L 141.889437 -387.7555 
z
"/>
    </defs>
    <g clip-path="url(#p572124f0f5)">
     <use xlink:href="#m4bbb025a54" x="0" y="398.34866" style="fill: #1b9e77; fill-opacity: 0.2"/>
    </g>
   </g>
   <g id="PolyCollection_25">
    <defs>
     <path id="m8d732a8bfa" d="M 145.6428 -387.7555 
L 145.6428 -55.1155 
L 149.396164 -55.1155 
L 149.396164 -387.7555 
L 149.396164 -387.7555 
L 145.6428 -387.7555 
z
"/>
    </defs>
    <g clip-path="url(#p572124f0f5)">
     <use xlink:href="#m8d732a8bfa" x="0" y="398.34866" style="fill: #d95f02; fill-opacity: 0.2"/>
    </g>
   </g>
   <g id="PolyCollection_26">
    <defs>
     <path id="m13811819a3" d="M 149.396164 -387.7555 
L 149.396164 -55.1155 
L 153.149527 -55.1155 
L 153.149527 -387.7555 
L 153.149527 -387.7555 
L 149.396164 -387.7555 
z
"/>
    </defs>
    <g clip-path="url(#p572124f0f5)">
     <use xlink:href="#m13811819a3" x="0" y="398.34866" style="fill: #d95f02; fill-opacity: 0.2"/>
    </g>
   </g>
   <g id="PolyCollection_27">
    <defs>
     <path id="m597abea5f4" d="M 153.149527 -387.7555 
L 153.149527 -55.1155 
L 156.90289 -55.1155 
L 156.90289 -387.7555 
L 156.90289 -387.7555 
L 153.149527 -387.7555 
z
"/>
    </defs>
    <g clip-path="url(#p572124f0f5)">
     <use xlink:href="#m597abea5f4" x="0" y="398.34866" style="fill: #d95f02; fill-opacity: 0.2"/>
    </g>
   </g>
   <g id="PolyCollection_28">
    <defs>
     <path id="m2ac65b5795" d="M 156.90289 -387.7555 
L 156.90289 -55.1155 
L 160.656253 -55.1155 
L 160.656253 -387.7555 
L 160.656253 -387.7555 
L 156.90289 -387.7555 
z
"/>
    </defs>
    <g clip-path="url(#p572124f0f5)">
     <use xlink:href="#m2ac65b5795" x="0" y="398.34866" style="fill: #d95f02; fill-opacity: 0.2"/>
    </g>
   </g>
   <g id="PolyCollection_29">
    <defs>
     <path id="m5a067298da" d="M 160.656253 -387.7555 
L 160.656253 -55.1155 
L 164.409617 -55.1155 
L 164.409617 -387.7555 
L 164.409617 -387.7555 
L 160.656253 -387.7555 
z
"/>
    </defs>
    <g clip-path="url(#p572124f0f5)">
     <use xlink:href="#m5a067298da" x="0" y="398.34866" style="fill: #1b9e77; fill-opacity: 0.2"/>
    </g>
   </g>
   <g id="PolyCollection_30">
    <defs>
     <path id="m49654ad7e9" d="M 164.409617 -387.7555 
L 164.409617 -55.1155 
L 168.16298 -55.1155 
L 168.16298 -387.7555 
L 168.16298 -387.7555 
L 164.409617 -387.7555 
z
"/>
    </defs>
    <g clip-path="url(#p572124f0f5)">
     <use xlink:href="#m49654ad7e9" x="0" y="398.34866" style="fill: #d95f02; fill-opacity: 0.2"/>
    </g>
   </g>
   <g id="PolyCollection_31">
    <defs>
     <path id="m6099cad5bf" d="M 168.16298 -387.7555 
L 168.16298 -55.1155 
L 171.916343 -55.1155 
L 171.916343 -387.7555 
L 171.916343 -387.7555 
L 168.16298 -387.7555 
z
"/>
    </defs>
    <g clip-path="url(#p572124f0f5)">
     <use xlink:href="#m6099cad5bf" x="0" y="398.34866" style="fill: #d95f02; fill-opacity: 0.2"/>
    </g>
   </g>
   <g id="PolyCollection_32">
    <defs>
     <path id="mca06818bb2" d="M 171.916343 -387.7555 
L 171.916343 -55.1155 
L 175.669706 -55.1155 
L 175.669706 -387.7555 
L 175.669706 -387.7555 
L 171.916343 -387.7555 
z
"/>
    </defs>
    <g clip-path="url(#p572124f0f5)">
     <use xlink:href="#mca06818bb2" x="0" y="398.34866" style="fill: #d95f02; fill-opacity: 0.2"/>
    </g>
   </g>
   <g id="PolyCollection_33">
    <defs>
     <path id="m8859dd4a56" d="M 175.669706 -387.7555 
L 175.669706 -55.1155 
L 179.42307 -55.1155 
L 179.42307 -387.7555 
L 179.42307 -387.7555 
L 175.669706 -387.7555 
z
"/>
    </defs>
    <g clip-path="url(#p572124f0f5)">
     <use xlink:href="#m8859dd4a56" x="0" y="398.34866" style="fill: #d95f02; fill-opacity: 0.2"/>
    </g>
   </g>
   <g id="PolyCollection_34">
    <defs>
     <path id="m276fb0b157" d="M 179.42307 -387.7555 
L 179.42307 -55.1155 
L 183.176433 -55.1155 
L 183.176433 -387.7555 
L 183.176433 -387.7555 
L 179.42307 -387.7555 
z
"/>
    </defs>
    <g clip-path="url(#p572124f0f5)">
     <use xlink:href="#m276fb0b157" x="0" y="398.34866" style="fill: #d95f02; fill-opacity: 0.2"/>
    </g>
   </g>
   <g id="PolyCollection_35">
    <defs>
     <path id="m348e068b26" d="M 183.176433 -387.7555 
L 183.176433 -55.1155 
L 186.929796 -55.1155 
L 186.929796 -387.7555 
L 186.929796 -387.7555 
L 183.176433 -387.7555 
z
"/>
    </defs>
    <g clip-path="url(#p572124f0f5)">
     <use xlink:href="#m348e068b26" x="0" y="398.34866" style="fill: #d95f02; fill-opacity: 0.2"/>
    </g>
   </g>
   <g id="PolyCollection_36">
    <defs>
     <path id="m712e1ac96d" d="M 186.929796 -387.7555 
L 186.929796 -55.1155 
L 190.683159 -55.1155 
L 190.683159 -387.7555 
L 190.683159 -387.7555 
L 186.929796 -387.7555 
z
"/>
    </defs>
    <g clip-path="url(#p572124f0f5)">
     <use xlink:href="#m712e1ac96d" x="0" y="398.34866" style="fill: #d95f02; fill-opacity: 0.2"/>
    </g>
   </g>
   <g id="PolyCollection_37">
    <defs>
     <path id="m1a84222cf9" d="M 190.683159 -387.7555 
L 190.683159 -55.1155 
L 194.436522 -55.1155 
L 194.436522 -387.7555 
L 194.436522 -387.7555 
L 190.683159 -387.7555 
z
"/>
    </defs>
    <g clip-path="url(#p572124f0f5)">
     <use xlink:href="#m1a84222cf9" x="0" y="398.34866" style="fill: #d95f02; fill-opacity: 0.2"/>
    </g>
   </g>
   <g id="PolyCollection_38">
    <defs>
     <path id="m34455e31a4" d="M 194.436522 -387.7555 
L 194.436522 -55.1155 
L 198.189886 -55.1155 
L 198.189886 -387.7555 
L 198.189886 -387.7555 
L 194.436522 -387.7555 
z
"/>
    </defs>
    <g clip-path="url(#p572124f0f5)">
     <use xlink:href="#m34455e31a4" x="0" y="398.34866" style="fill: #d95f02; fill-opacity: 0.2"/>
    </g>
   </g>
   <g id="PolyCollection_39">
    <defs>
     <path id="md3c9c48b3a" d="M 198.189886 -387.7555 
L 198.189886 -55.1155 
L 201.943249 -55.1155 
L 201.943249 -387.7555 
L 201.943249 -387.7555 
L 198.189886 -387.7555 
z
"/>
    </defs>
    <g clip-path="url(#p572124f0f5)">
     <use xlink:href="#md3c9c48b3a" x="0" y="398.34866" style="fill: #d95f02; fill-opacity: 0.2"/>
    </g>
   </g>
   <g id="PolyCollection_40">
    <defs>
     <path id="m60a5677980" d="M 201.943249 -387.7555 
L 201.943249 -55.1155 
L 205.696612 -55.1155 
L 205.696612 -387.7555 
L 205.696612 -387.7555 
L 201.943249 -387.7555 
z
"/>
    </defs>
    <g clip-path="url(#p572124f0f5)">
     <use xlink:href="#m60a5677980" x="0" y="398.34866" style="fill: #d95f02; fill-opacity: 0.2"/>
    </g>
   </g>
   <g id="PolyCollection_41">
    <defs>
     <path id="mb1669d4909" d="M 205.696612 -387.7555 
L 205.696612 -55.1155 
L 209.449975 -55.1155 
L 209.449975 -387.7555 
L 209.449975 -387.7555 
L 205.696612 -387.7555 
z
"/>
    </defs>
    <g clip-path="url(#p572124f0f5)">
     <use xlink:href="#mb1669d4909" x="0" y="398.34866" style="fill: #d95f02; fill-opacity: 0.2"/>
    </g>
   </g>
   <g id="PolyCollection_42">
    <defs>
     <path id="m5ba7d11b3b" d="M 209.449975 -387.7555 
L 209.449975 -55.1155 
L 213.203339 -55.1155 
L 213.203339 -387.7555 
L 213.203339 -387.7555 
L 209.449975 -387.7555 
z
"/>
    </defs>
    <g clip-path="url(#p572124f0f5)">
     <use xlink:href="#m5ba7d11b3b" x="0" y="398.34866" style="fill: #d95f02; fill-opacity: 0.2"/>
    </g>
   </g>
   <g id="PolyCollection_43">
    <defs>
     <path id="m783e216496" d="M 213.203339 -387.7555 
L 213.203339 -55.1155 
L 216.956702 -55.1155 
L 216.956702 -387.7555 
L 216.956702 -387.7555 
L 213.203339 -387.7555 
z
"/>
    </defs>
    <g clip-path="url(#p572124f0f5)">
     <use xlink:href="#m783e216496" x="0" y="398.34866" style="fill: #d95f02; fill-opacity: 0.2"/>
    </g>
   </g>
   <g id="PolyCollection_44">
    <defs>
     <path id="mf72aa336d6" d="M 216.956702 -387.7555 
L 216.956702 -55.1155 
L 220.710065 -55.1155 
L 220.710065 -387.7555 
L 220.710065 -387.7555 
L 216.956702 -387.7555 
z
"/>
    </defs>
    <g clip-path="url(#p572124f0f5)">
     <use xlink:href="#mf72aa336d6" x="0" y="398.34866" style="fill: #d95f02; fill-opacity: 0.2"/>
    </g>
   </g>
   <g id="PolyCollection_45">
    <defs>
     <path id="mf4f3a515ed" d="M 220.710065 -387.7555 
L 220.710065 -55.1155 
L 224.463428 -55.1155 
L 224.463428 -387.7555 
L 224.463428 -387.7555 
L 220.710065 -387.7555 
z
"/>
    </defs>
    <g clip-path="url(#p572124f0f5)">
     <use xlink:href="#mf4f3a515ed" x="0" y="398.34866" style="fill: #d95f02; fill-opacity: 0.2"/>
    </g>
   </g>
   <g id="PolyCollection_46">
    <defs>
     <path id="m0acdbf4ed7" d="M 224.463428 -387.7555 
L 224.463428 -55.1155 
L 228.216791 -55.1155 
L 228.216791 -387.7555 
L 228.216791 -387.7555 
L 224.463428 -387.7555 
z
"/>
    </defs>
    <g clip-path="url(#p572124f0f5)">
     <use xlink:href="#m0acdbf4ed7" x="0" y="398.34866" style="fill: #1b9e77; fill-opacity: 0.2"/>
    </g>
   </g>
   <g id="PolyCollection_47">
    <defs>
     <path id="mddf8c11441" d="M 228.216791 -387.7555 
L 228.216791 -55.1155 
L 231.970155 -55.1155 
L 231.970155 -387.7555 
L 231.970155 -387.7555 
L 228.216791 -387.7555 
z
"/>
    </defs>
    <g clip-path="url(#p572124f0f5)">
     <use xlink:href="#mddf8c11441" x="0" y="398.34866" style="fill: #d95f02; fill-opacity: 0.2"/>
    </g>
   </g>
   <g id="PolyCollection_48">
    <defs>
     <path id="macef0483dc" d="M 231.970155 -387.7555 
L 231.970155 -55.1155 
L 235.723518 -55.1155 
L 235.723518 -387.7555 
L 235.723518 -387.7555 
L 231.970155 -387.7555 
z
"/>
    </defs>
    <g clip-path="url(#p572124f0f5)">
     <use xlink:href="#macef0483dc" x="0" y="398.34866" style="fill: #d95f02; fill-opacity: 0.2"/>
    </g>
   </g>
   <g id="PolyCollection_49">
    <defs>
     <path id="m5b9f157198" d="M 235.723518 -387.7555 
L 235.723518 -55.1155 
L 239.476881 -55.1155 
L 239.476881 -387.7555 
L 239.476881 -387.7555 
L 235.723518 -387.7555 
z
"/>
    </defs>
    <g clip-path="url(#p572124f0f5)">
     <use xlink:href="#m5b9f157198" x="0" y="398.34866" style="fill: #1b9e77; fill-opacity: 0.2"/>
    </g>
   </g>
   <g id="PolyCollection_50">
    <defs>
     <path id="m9737b58519" d="M 239.476881 -387.7555 
L 239.476881 -55.1155 
L 243.230244 -55.1155 
L 243.230244 -387.7555 
L 243.230244 -387.7555 
L 239.476881 -387.7555 
z
"/>
    </defs>
    <g clip-path="url(#p572124f0f5)">
     <use xlink:href="#m9737b58519" x="0" y="398.34866" style="fill: #d95f02; fill-opacity: 0.2"/>
    </g>
   </g>
   <g id="PolyCollection_51">
    <defs>
     <path id="md372890c08" d="M 243.230244 -387.7555 
L 243.230244 -55.1155 
L 246.983608 -55.1155 
L 246.983608 -387.7555 
L 246.983608 -387.7555 
L 243.230244 -387.7555 
z
"/>
    </defs>
    <g clip-path="url(#p572124f0f5)">
     <use xlink:href="#md372890c08" x="0" y="398.34866" style="fill: #1b9e77; fill-opacity: 0.2"/>
    </g>
   </g>
   <g id="PolyCollection_52">
    <defs>
     <path id="mf5b342958b" d="M 246.983608 -387.7555 
L 246.983608 -55.1155 
L 250.736971 -55.1155 
L 250.736971 -387.7555 
L 250.736971 -387.7555 
L 246.983608 -387.7555 
z
"/>
    </defs>
    <g clip-path="url(#p572124f0f5)">
     <use xlink:href="#mf5b342958b" x="0" y="398.34866" style="fill: #d95f02; fill-opacity: 0.2"/>
    </g>
   </g>
   <g id="PolyCollection_53">
    <defs>
     <path id="m9a0e969b7a" d="M 250.736971 -387.7555 
L 250.736971 -55.1155 
L 254.490334 -55.1155 
L 254.490334 -387.7555 
L 254.490334 -387.7555 
L 250.736971 -387.7555 
z
"/>
    </defs>
    <g clip-path="url(#p572124f0f5)">
     <use xlink:href="#m9a0e969b7a" x="0" y="398.34866" style="fill: #1b9e77; fill-opacity: 0.2"/>
    </g>
   </g>
   <g id="PolyCollection_54">
    <defs>
     <path id="mc4c4fbc07f" d="M 254.490334 -387.7555 
L 254.490334 -55.1155 
L 258.243697 -55.1155 
L 258.243697 -387.7555 
L 258.243697 -387.7555 
L 254.490334 -387.7555 
z
"/>
    </defs>
    <g clip-path="url(#p572124f0f5)">
     <use xlink:href="#mc4c4fbc07f" x="0" y="398.34866" style="fill: #d95f02; fill-opacity: 0.2"/>
    </g>
   </g>
   <g id="PolyCollection_55">
    <defs>
     <path id="m3f20a97e79" d="M 258.243697 -387.7555 
L 258.243697 -55.1155 
L 261.997061 -55.1155 
L 261.997061 -387.7555 
L 261.997061 -387.7555 
L 258.243697 -387.7555 
z
"/>
    </defs>
    <g clip-path="url(#p572124f0f5)">
     <use xlink:href="#m3f20a97e79" x="0" y="398.34866" style="fill: #1b9e77; fill-opacity: 0.2"/>
    </g>
   </g>
   <g id="PolyCollection_56">
    <defs>
     <path id="mab4b7cfd23" d="M 261.997061 -387.7555 
L 261.997061 -55.1155 
L 265.750424 -55.1155 
L 265.750424 -387.7555 
L 265.750424 -387.7555 
L 261.997061 -387.7555 
z
"/>
    </defs>
    <g clip-path="url(#p572124f0f5)">
     <use xlink:href="#mab4b7cfd23" x="0" y="398.34866" style="fill: #1b9e77; fill-opacity: 0.2"/>
    </g>
   </g>
   <g id="PolyCollection_57">
    <defs>
     <path id="m2fa827d699" d="M 265.750424 -387.7555 
L 265.750424 -55.1155 
L 269.503787 -55.1155 
L 269.503787 -387.7555 
L 269.503787 -387.7555 
L 265.750424 -387.7555 
z
"/>
    </defs>
    <g clip-path="url(#p572124f0f5)">
     <use xlink:href="#m2fa827d699" x="0" y="398.34866" style="fill: #d95f02; fill-opacity: 0.2"/>
    </g>
   </g>
   <g id="PolyCollection_58">
    <defs>
     <path id="m5898630192" d="M 269.503787 -387.7555 
L 269.503787 -55.1155 
L 273.25715 -55.1155 
L 273.25715 -387.7555 
L 273.25715 -387.7555 
L 269.503787 -387.7555 
z
"/>
    </defs>
    <g clip-path="url(#p572124f0f5)">
     <use xlink:href="#m5898630192" x="0" y="398.34866" style="fill: #d95f02; fill-opacity: 0.2"/>
    </g>
   </g>
   <g id="PolyCollection_59">
    <defs>
     <path id="m8dfdace2d6" d="M 273.25715 -387.7555 
L 273.25715 -55.1155 
L 277.010513 -55.1155 
L 277.010513 -387.7555 
L 277.010513 -387.7555 
L 273.25715 -387.7555 
z
"/>
    </defs>
    <g clip-path="url(#p572124f0f5)">
     <use xlink:href="#m8dfdace2d6" x="0" y="398.34866" style="fill: #d95f02; fill-opacity: 0.2"/>
    </g>
   </g>
   <g id="PolyCollection_60">
    <defs>
     <path id="m0356624e1a" d="M 277.010513 -387.7555 
L 277.010513 -55.1155 
L 280.763877 -55.1155 
L 280.763877 -387.7555 
L 280.763877 -387.7555 
L 277.010513 -387.7555 
z
"/>
    </defs>
    <g clip-path="url(#p572124f0f5)">
     <use xlink:href="#m0356624e1a" x="0" y="398.34866" style="fill: #1b9e77; fill-opacity: 0.2"/>
    </g>
   </g>
   <g id="PolyCollection_61">
    <defs>
     <path id="md1ce65ab99" d="M 280.763877 -387.7555 
L 280.763877 -55.1155 
L 284.51724 -55.1155 
L 284.51724 -387.7555 
L 284.51724 -387.7555 
L 280.763877 -387.7555 
z
"/>
    </defs>
    <g clip-path="url(#p572124f0f5)">
     <use xlink:href="#md1ce65ab99" x="0" y="398.34866" style="fill: #1b9e77; fill-opacity: 0.2"/>
    </g>
   </g>
   <g id="PolyCollection_62">
    <defs>
     <path id="mca1dfa07f2" d="M 284.51724 -387.7555 
L 284.51724 -55.1155 
L 288.270603 -55.1155 
L 288.270603 -387.7555 
L 288.270603 -387.7555 
L 284.51724 -387.7555 
z
"/>
    </defs>
    <g clip-path="url(#p572124f0f5)">
     <use xlink:href="#mca1dfa07f2" x="0" y="398.34866" style="fill: #1b9e77; fill-opacity: 0.2"/>
    </g>
   </g>
   <g id="PolyCollection_63">
    <defs>
     <path id="m68ba81a57b" d="M 288.270603 -387.7555 
L 288.270603 -55.1155 
L 292.023966 -55.1155 
L 292.023966 -387.7555 
L 292.023966 -387.7555 
L 288.270603 -387.7555 
z
"/>
    </defs>
    <g clip-path="url(#p572124f0f5)">
     <use xlink:href="#m68ba81a57b" x="0" y="398.34866" style="fill: #d95f02; fill-opacity: 0.2"/>
    </g>
   </g>
   <g id="PolyCollection_64">
    <defs>
     <path id="m0a34e516b4" d="M 292.023966 -387.7555 
L 292.023966 -55.1155 
L 295.77733 -55.1155 
L 295.77733 -387.7555 
L 295.77733 -387.7555 
L 292.023966 -387.7555 
z
"/>
    </defs>
    <g clip-path="url(#p572124f0f5)">
     <use xlink:href="#m0a34e516b4" x="0" y="398.34866" style="fill: #d95f02; fill-opacity: 0.2"/>
    </g>
   </g>
   <g id="PolyCollection_65">
    <defs>
     <path id="mab7b728bdb" d="M 295.77733 -387.7555 
L 295.77733 -55.1155 
L 299.530693 -55.1155 
L 299.530693 -387.7555 
L 299.530693 -387.7555 
L 295.77733 -387.7555 
z
"/>
    </defs>
    <g clip-path="url(#p572124f0f5)">
     <use xlink:href="#mab7b728bdb" x="0" y="398.34866" style="fill: #1b9e77; fill-opacity: 0.2"/>
    </g>
   </g>
   <g id="PolyCollection_66">
    <defs>
     <path id="md9632f0ffa" d="M 299.530693 -387.7555 
L 299.530693 -55.1155 
L 303.284056 -55.1155 
L 303.284056 -387.7555 
L 303.284056 -387.7555 
L 299.530693 -387.7555 
z
"/>
    </defs>
    <g clip-path="url(#p572124f0f5)">
     <use xlink:href="#md9632f0ffa" x="0" y="398.34866" style="fill: #1b9e77; fill-opacity: 0.2"/>
    </g>
   </g>
   <g id="PolyCollection_67">
    <defs>
     <path id="m65423c4f80" d="M 303.284056 -387.7555 
L 303.284056 -55.1155 
L 307.037419 -55.1155 
L 307.037419 -387.7555 
L 307.037419 -387.7555 
L 303.284056 -387.7555 
z
"/>
    </defs>
    <g clip-path="url(#p572124f0f5)">
     <use xlink:href="#m65423c4f80" x="0" y="398.34866" style="fill: #1b9e77; fill-opacity: 0.2"/>
    </g>
   </g>
   <g id="PolyCollection_68">
    <defs>
     <path id="m806e8bcb4b" d="M 307.037419 -387.7555 
L 307.037419 -55.1155 
L 310.790783 -55.1155 
L 310.790783 -387.7555 
L 310.790783 -387.7555 
L 307.037419 -387.7555 
z
"/>
    </defs>
    <g clip-path="url(#p572124f0f5)">
     <use xlink:href="#m806e8bcb4b" x="0" y="398.34866" style="fill: #1b9e77; fill-opacity: 0.2"/>
    </g>
   </g>
   <g id="PolyCollection_69">
    <defs>
     <path id="md2cda5af61" d="M 310.790783 -387.7555 
L 310.790783 -55.1155 
L 314.544146 -55.1155 
L 314.544146 -387.7555 
L 314.544146 -387.7555 
L 310.790783 -387.7555 
z
"/>
    </defs>
    <g clip-path="url(#p572124f0f5)">
     <use xlink:href="#md2cda5af61" x="0" y="398.34866" style="fill: #d95f02; fill-opacity: 0.2"/>
    </g>
   </g>
   <g id="PolyCollection_70">
    <defs>
     <path id="m4273ce91da" d="M 314.544146 -387.7555 
L 314.544146 -55.1155 
L 318.297509 -55.1155 
L 318.297509 -387.7555 
L 318.297509 -387.7555 
L 314.544146 -387.7555 
z
"/>
    </defs>
    <g clip-path="url(#p572124f0f5)">
     <use xlink:href="#m4273ce91da" x="0" y="398.34866" style="fill: #d95f02; fill-opacity: 0.2"/>
    </g>
   </g>
   <g id="PolyCollection_71">
    <defs>
     <path id="ma447bf0e95" d="M 318.297509 -387.7555 
L 318.297509 -55.1155 
L 322.050872 -55.1155 
L 322.050872 -387.7555 
L 322.050872 -387.7555 
L 318.297509 -387.7555 
z
"/>
    </defs>
    <g clip-path="url(#p572124f0f5)">
     <use xlink:href="#ma447bf0e95" x="0" y="398.34866" style="fill: #d95f02; fill-opacity: 0.2"/>
    </g>
   </g>
   <g id="PolyCollection_72">
    <defs>
     <path id="m7bee3b14b5" d="M 322.050872 -387.7555 
L 322.050872 -55.1155 
L 325.804235 -55.1155 
L 325.804235 -387.7555 
L 325.804235 -387.7555 
L 322.050872 -387.7555 
z
"/>
    </defs>
    <g clip-path="url(#p572124f0f5)">
     <use xlink:href="#m7bee3b14b5" x="0" y="398.34866" style="fill: #d95f02; fill-opacity: 0.2"/>
    </g>
   </g>
   <g id="PolyCollection_73">
    <defs>
     <path id="mffef3961a8" d="M 325.804235 -387.7555 
L 325.804235 -55.1155 
L 329.557599 -55.1155 
L 329.557599 -387.7555 
L 329.557599 -387.7555 
L 325.804235 -387.7555 
z
"/>
    </defs>
    <g clip-path="url(#p572124f0f5)">
     <use xlink:href="#mffef3961a8" x="0" y="398.34866" style="fill: #d95f02; fill-opacity: 0.2"/>
    </g>
   </g>
   <g id="PolyCollection_74">
    <defs>
     <path id="m6fa8bdbe29" d="M 329.557599 -387.7555 
L 329.557599 -55.1155 
L 333.310962 -55.1155 
L 333.310962 -387.7555 
L 333.310962 -387.7555 
L 329.557599 -387.7555 
z
"/>
    </defs>
    <g clip-path="url(#p572124f0f5)">
     <use xlink:href="#m6fa8bdbe29" x="0" y="398.34866" style="fill: #1b9e77; fill-opacity: 0.2"/>
    </g>
   </g>
   <g id="PolyCollection_75">
    <defs>
     <path id="m79514dea4b" d="M 333.310962 -387.7555 
L 333.310962 -55.1155 
L 337.064325 -55.1155 
L 337.064325 -387.7555 
L 337.064325 -387.7555 
L 333.310962 -387.7555 
z
"/>
    </defs>
    <g clip-path="url(#p572124f0f5)">
     <use xlink:href="#m79514dea4b" x="0" y="398.34866" style="fill: #1b9e77; fill-opacity: 0.2"/>
    </g>
   </g>
   <g id="PolyCollection_76">
    <defs>
     <path id="m816aaf4e78" d="M 337.064325 -387.7555 
L 337.064325 -55.1155 
L 340.817688 -55.1155 
L 340.817688 -387.7555 
L 340.817688 -387.7555 
L 337.064325 -387.7555 
z
"/>
    </defs>
    <g clip-path="url(#p572124f0f5)">
     <use xlink:href="#m816aaf4e78" x="0" y="398.34866" style="fill: #1b9e77; fill-opacity: 0.2"/>
    </g>
   </g>
   <g id="PolyCollection_77">
    <defs>
     <path id="m4f0e2042f3" d="M 340.817688 -387.7555 
L 340.817688 -55.1155 
L 344.571052 -55.1155 
L 344.571052 -387.7555 
L 344.571052 -387.7555 
L 340.817688 -387.7555 
z
"/>
    </defs>
    <g clip-path="url(#p572124f0f5)">
     <use xlink:href="#m4f0e2042f3" x="0" y="398.34866" style="fill: #1b9e77; fill-opacity: 0.2"/>
    </g>
   </g>
   <g id="PolyCollection_78">
    <defs>
     <path id="m5d53708895" d="M 344.571052 -387.7555 
L 344.571052 -55.1155 
L 348.324415 -55.1155 
L 348.324415 -387.7555 
L 348.324415 -387.7555 
L 344.571052 -387.7555 
z
"/>
    </defs>
    <g clip-path="url(#p572124f0f5)">
     <use xlink:href="#m5d53708895" x="0" y="398.34866" style="fill: #1b9e77; fill-opacity: 0.2"/>
    </g>
   </g>
   <g id="PolyCollection_79">
    <defs>
     <path id="m0ef3bd4fb1" d="M 348.324415 -387.7555 
L 348.324415 -55.1155 
L 352.077778 -55.1155 
L 352.077778 -387.7555 
L 352.077778 -387.7555 
L 348.324415 -387.7555 
z
"/>
    </defs>
    <g clip-path="url(#p572124f0f5)">
     <use xlink:href="#m0ef3bd4fb1" x="0" y="398.34866" style="fill: #1b9e77; fill-opacity: 0.2"/>
    </g>
   </g>
   <g id="PolyCollection_80">
    <defs>
     <path id="m3b0c76817c" d="M 352.077778 -387.7555 
L 352.077778 -55.1155 
L 355.831141 -55.1155 
L 355.831141 -387.7555 
L 355.831141 -387.7555 
L 352.077778 -387.7555 
z
"/>
    </defs>
    <g clip-path="url(#p572124f0f5)">
     <use xlink:href="#m3b0c76817c" x="0" y="398.34866" style="fill: #1b9e77; fill-opacity: 0.2"/>
    </g>
   </g>
   <g id="PolyCollection_81">
    <defs>
     <path id="m4ec4847096" d="M 355.831141 -387.7555 
L 355.831141 -55.1155 
L 359.584504 -55.1155 
L 359.584504 -387.7555 
L 359.584504 -387.7555 
L 355.831141 -387.7555 
z
"/>
    </defs>
    <g clip-path="url(#p572124f0f5)">
     <use xlink:href="#m4ec4847096" x="0" y="398.34866" style="fill: #1b9e77; fill-opacity: 0.2"/>
    </g>
   </g>
   <g id="PolyCollection_82">
    <defs>
     <path id="m162496414c" d="M 359.584504 -387.7555 
L 359.584504 -55.1155 
L 363.337868 -55.1155 
L 363.337868 -387.7555 
L 363.337868 -387.7555 
L 359.584504 -387.7555 
z
"/>
    </defs>
    <g clip-path="url(#p572124f0f5)">
     <use xlink:href="#m162496414c" x="0" y="398.34866" style="fill: #1b9e77; fill-opacity: 0.2"/>
    </g>
   </g>
   <g id="PolyCollection_83">
    <defs>
     <path id="m6bd30e9d22" d="M 363.337868 -387.7555 
L 363.337868 -55.1155 
L 367.091231 -55.1155 
L 367.091231 -387.7555 
L 367.091231 -387.7555 
L 363.337868 -387.7555 
z
"/>
    </defs>
    <g clip-path="url(#p572124f0f5)">
     <use xlink:href="#m6bd30e9d22" x="0" y="398.34866" style="fill: #1b9e77; fill-opacity: 0.2"/>
    </g>
   </g>
   <g id="PolyCollection_84">
    <defs>
     <path id="m8fffa2a283" d="M 367.091231 -387.7555 
L 367.091231 -55.1155 
L 370.844594 -55.1155 
L 370.844594 -387.7555 
L 370.844594 -387.7555 
L 367.091231 -387.7555 
z
"/>
    </defs>
    <g clip-path="url(#p572124f0f5)">
     <use xlink:href="#m8fffa2a283" x="0" y="398.34866" style="fill: #1b9e77; fill-opacity: 0.2"/>
    </g>
   </g>
   <g id="PolyCollection_85">
    <defs>
     <path id="m1ba23adb26" d="M 370.844594 -387.7555 
L 370.844594 -55.1155 
L 374.597957 -55.1155 
L 374.597957 -387.7555 
L 374.597957 -387.7555 
L 370.844594 -387.7555 
z
"/>
    </defs>
    <g clip-path="url(#p572124f0f5)">
     <use xlink:href="#m1ba23adb26" x="0" y="398.34866" style="fill: #d95f02; fill-opacity: 0.2"/>
    </g>
   </g>
   <g id="PolyCollection_86">
    <defs>
     <path id="m8eb5ac9381" d="M 374.597957 -387.7555 
L 374.597957 -55.1155 
L 378.351321 -55.1155 
L 378.351321 -387.7555 
L 378.351321 -387.7555 
L 374.597957 -387.7555 
z
"/>
    </defs>
    <g clip-path="url(#p572124f0f5)">
     <use xlink:href="#m8eb5ac9381" x="0" y="398.34866" style="fill: #1b9e77; fill-opacity: 0.2"/>
    </g>
   </g>
   <g id="PolyCollection_87">
    <defs>
     <path id="m79d8f87cb8" d="M 378.351321 -387.7555 
L 378.351321 -55.1155 
L 382.104684 -55.1155 
L 382.104684 -387.7555 
L 382.104684 -387.7555 
L 378.351321 -387.7555 
z
"/>
    </defs>
    <g clip-path="url(#p572124f0f5)">
     <use xlink:href="#m79d8f87cb8" x="0" y="398.34866" style="fill: #1b9e77; fill-opacity: 0.2"/>
    </g>
   </g>
   <g id="PolyCollection_88">
    <defs>
     <path id="mf242033865" d="M 382.104684 -387.7555 
L 382.104684 -55.1155 
L 385.858047 -55.1155 
L 385.858047 -387.7555 
L 385.858047 -387.7555 
L 382.104684 -387.7555 
z
"/>
    </defs>
    <g clip-path="url(#p572124f0f5)">
     <use xlink:href="#mf242033865" x="0" y="398.34866" style="fill: #d95f02; fill-opacity: 0.2"/>
    </g>
   </g>
   <g id="PolyCollection_89">
    <defs>
     <path id="md17c11c987" d="M 385.858047 -387.7555 
L 385.858047 -55.1155 
L 389.61141 -55.1155 
L 389.61141 -387.7555 
L 389.61141 -387.7555 
L 385.858047 -387.7555 
z
"/>
    </defs>
    <g clip-path="url(#p572124f0f5)">
     <use xlink:href="#md17c11c987" x="0" y="398.34866" style="fill: #1b9e77; fill-opacity: 0.2"/>
    </g>
   </g>
   <g id="PolyCollection_90">
    <defs>
     <path id="meed5f9f681" d="M 389.61141 -387.7555 
L 389.61141 -55.1155 
L 393.364774 -55.1155 
L 393.364774 -387.7555 
L 393.364774 -387.7555 
L 389.61141 -387.7555 
z
"/>
    </defs>
    <g clip-path="url(#p572124f0f5)">
     <use xlink:href="#meed5f9f681" x="0" y="398.34866" style="fill: #1b9e77; fill-opacity: 0.2"/>
    </g>
   </g>
   <g id="PolyCollection_91">
    <defs>
     <path id="md368be2705" d="M 393.364774 -387.7555 
L 393.364774 -55.1155 
L 397.118137 -55.1155 
L 397.118137 -387.7555 
L 397.118137 -387.7555 
L 393.364774 -387.7555 
z
"/>
    </defs>
    <g clip-path="url(#p572124f0f5)">
     <use xlink:href="#md368be2705" x="0" y="398.34866" style="fill: #1b9e77; fill-opacity: 0.2"/>
    </g>
   </g>
   <g id="PolyCollection_92">
    <defs>
     <path id="mbeaf93c583" d="M 397.118137 -387.7555 
L 397.118137 -55.1155 
L 400.8715 -55.1155 
L 400.8715 -387.7555 
L 400.8715 -387.7555 
L 397.118137 -387.7555 
z
"/>
    </defs>
    <g clip-path="url(#p572124f0f5)">
     <use xlink:href="#mbeaf93c583" x="0" y="398.34866" style="fill: #1b9e77; fill-opacity: 0.2"/>
    </g>
   </g>
   <g id="matplotlib.axis_1">
    <g id="xtick_1">
     <g id="line2d_1">
      <defs>
       <path id="m6f2b90be0f" d="M 0 0 
L 0 4.8 
" style="stroke: #000000"/>
      </defs>
      <g>
       <use xlink:href="#m6f2b90be0f" x="66.822173" y="343.23316" style="stroke: #000000"/>
      </g>
     </g>
     <g id="text_1">
      <!-- 0 -->
      <g transform="translate(61.223173 364.90641) scale(0.176 -0.176)">
       <defs>
        <path id="DejaVuSans-30" d="M 2034 4250 
Q 1547 4250 1301 3770 
Q 1056 3291 1056 2328 
Q 1056 1369 1301 889 
Q 1547 409 2034 409 
Q 2525 409 2770 889 
Q 3016 1369 3016 2328 
Q 3016 3291 2770 3770 
Q 2525 4250 2034 4250 
z
M 2034 4750 
Q 2819 4750 3233 4129 
Q 3647 3509 3647 2328 
Q 3647 1150 3233 529 
Q 2819 -91 2034 -91 
Q 1250 -91 836 529 
Q 422 1150 422 2328 
Q 422 3509 836 4129 
Q 1250 4750 2034 4750 
z
" transform="scale(0.015625)"/>
       </defs>
       <use xlink:href="#DejaVuSans-30"/>
      </g>
     </g>
    </g>
    <g id="xtick_2">
     <g id="line2d_2">
      <g>
       <use xlink:href="#m6f2b90be0f" x="141.889437" y="343.23316" style="stroke: #000000"/>
      </g>
     </g>
     <g id="text_2">
      <!-- 20 -->
      <g transform="translate(130.691437 364.90641) scale(0.176 -0.176)">
       <defs>
        <path id="DejaVuSans-32" d="M 1228 531 
L 3431 531 
L 3431 0 
L 469 0 
L 469 531 
Q 828 903 1448 1529 
Q 2069 2156 2228 2338 
Q 2531 2678 2651 2914 
Q 2772 3150 2772 3378 
Q 2772 3750 2511 3984 
Q 2250 4219 1831 4219 
Q 1534 4219 1204 4116 
Q 875 4013 500 3803 
L 500 4441 
Q 881 4594 1212 4672 
Q 1544 4750 1819 4750 
Q 2544 4750 2975 4387 
Q 3406 4025 3406 3419 
Q 3406 3131 3298 2873 
Q 3191 2616 2906 2266 
Q 2828 2175 2409 1742 
Q 1991 1309 1228 531 
z
" transform="scale(0.015625)"/>
       </defs>
       <use xlink:href="#DejaVuSans-32"/>
       <use xlink:href="#DejaVuSans-30" x="63.623047"/>
      </g>
     </g>
    </g>
    <g id="xtick_3">
     <g id="line2d_3">
      <g>
       <use xlink:href="#m6f2b90be0f" x="216.956702" y="343.23316" style="stroke: #000000"/>
      </g>
     </g>
     <g id="text_3">
      <!-- 40 -->
      <g transform="translate(205.758702 364.90641) scale(0.176 -0.176)">
       <defs>
        <path id="DejaVuSans-34" d="M 2419 4116 
L 825 1625 
L 2419 1625 
L 2419 4116 
z
M 2253 4666 
L 3047 4666 
L 3047 1625 
L 3713 1625 
L 3713 1100 
L 3047 1100 
L 3047 0 
L 2419 0 
L 2419 1100 
L 313 1100 
L 313 1709 
L 2253 4666 
z
" transform="scale(0.015625)"/>
       </defs>
       <use xlink:href="#DejaVuSans-34"/>
       <use xlink:href="#DejaVuSans-30" x="63.623047"/>
      </g>
     </g>
    </g>
    <g id="xtick_4">
     <g id="line2d_4">
      <g>
       <use xlink:href="#m6f2b90be0f" x="292.023966" y="343.23316" style="stroke: #000000"/>
      </g>
     </g>
     <g id="text_4">
      <!-- 60 -->
      <g transform="translate(280.825966 364.90641) scale(0.176 -0.176)">
       <defs>
        <path id="DejaVuSans-36" d="M 2113 2584 
Q 1688 2584 1439 2293 
Q 1191 2003 1191 1497 
Q 1191 994 1439 701 
Q 1688 409 2113 409 
Q 2538 409 2786 701 
Q 3034 994 3034 1497 
Q 3034 2003 2786 2293 
Q 2538 2584 2113 2584 
z
M 3366 4563 
L 3366 3988 
Q 3128 4100 2886 4159 
Q 2644 4219 2406 4219 
Q 1781 4219 1451 3797 
Q 1122 3375 1075 2522 
Q 1259 2794 1537 2939 
Q 1816 3084 2150 3084 
Q 2853 3084 3261 2657 
Q 3669 2231 3669 1497 
Q 3669 778 3244 343 
Q 2819 -91 2113 -91 
Q 1303 -91 875 529 
Q 447 1150 447 2328 
Q 447 3434 972 4092 
Q 1497 4750 2381 4750 
Q 2619 4750 2861 4703 
Q 3103 4656 3366 4563 
z
" transform="scale(0.015625)"/>
       </defs>
       <use xlink:href="#DejaVuSans-36"/>
       <use xlink:href="#DejaVuSans-30" x="63.623047"/>
      </g>
     </g>
    </g>
    <g id="xtick_5">
     <g id="line2d_5">
      <g>
       <use xlink:href="#m6f2b90be0f" x="367.091231" y="343.23316" style="stroke: #000000"/>
      </g>
     </g>
     <g id="text_5">
      <!-- 80 -->
      <g transform="translate(355.893231 364.90641) scale(0.176 -0.176)">
       <defs>
        <path id="DejaVuSans-38" d="M 2034 2216 
Q 1584 2216 1326 1975 
Q 1069 1734 1069 1313 
Q 1069 891 1326 650 
Q 1584 409 2034 409 
Q 2484 409 2743 651 
Q 3003 894 3003 1313 
Q 3003 1734 2745 1975 
Q 2488 2216 2034 2216 
z
M 1403 2484 
Q 997 2584 770 2862 
Q 544 3141 544 3541 
Q 544 4100 942 4425 
Q 1341 4750 2034 4750 
Q 2731 4750 3128 4425 
Q 3525 4100 3525 3541 
Q 3525 3141 3298 2862 
Q 3072 2584 2669 2484 
Q 3125 2378 3379 2068 
Q 3634 1759 3634 1313 
Q 3634 634 3220 271 
Q 2806 -91 2034 -91 
Q 1263 -91 848 271 
Q 434 634 434 1313 
Q 434 1759 690 2068 
Q 947 2378 1403 2484 
z
M 1172 3481 
Q 1172 3119 1398 2916 
Q 1625 2713 2034 2713 
Q 2441 2713 2670 2916 
Q 2900 3119 2900 3481 
Q 2900 3844 2670 4047 
Q 2441 4250 2034 4250 
Q 1625 4250 1398 4047 
Q 1172 3844 1172 3481 
z
" transform="scale(0.015625)"/>
       </defs>
       <use xlink:href="#DejaVuSans-38"/>
       <use xlink:href="#DejaVuSans-30" x="63.623047"/>
      </g>
     </g>
    </g>
    <g id="text_6">
     <!-- State -->
     <g transform="translate(208.06 387.15566) scale(0.192 -0.192)">
      <defs>
       <path id="DejaVuSans-53" d="M 3425 4513 
L 3425 3897 
Q 3066 4069 2747 4153 
Q 2428 4238 2131 4238 
Q 1616 4238 1336 4038 
Q 1056 3838 1056 3469 
Q 1056 3159 1242 3001 
Q 1428 2844 1947 2747 
L 2328 2669 
Q 3034 2534 3370 2195 
Q 3706 1856 3706 1288 
Q 3706 609 3251 259 
Q 2797 -91 1919 -91 
Q 1588 -91 1214 -16 
Q 841 59 441 206 
L 441 856 
Q 825 641 1194 531 
Q 1563 422 1919 422 
Q 2459 422 2753 634 
Q 3047 847 3047 1241 
Q 3047 1584 2836 1778 
Q 2625 1972 2144 2069 
L 1759 2144 
Q 1053 2284 737 2584 
Q 422 2884 422 3419 
Q 422 4038 858 4394 
Q 1294 4750 2059 4750 
Q 2388 4750 2728 4690 
Q 3069 4631 3425 4513 
z
" transform="scale(0.015625)"/>
       <path id="DejaVuSans-74" d="M 1172 4494 
L 1172 3500 
L 2356 3500 
L 2356 3053 
L 1172 3053 
L 1172 1153 
Q 1172 725 1289 603 
Q 1406 481 1766 481 
L 2356 481 
L 2356 0 
L 1766 0 
Q 1100 0 847 248 
Q 594 497 594 1153 
L 594 3053 
L 172 3053 
L 172 3500 
L 594 3500 
L 594 4494 
L 1172 4494 
z
" transform="scale(0.015625)"/>
       <path id="DejaVuSans-61" d="M 2194 1759 
Q 1497 1759 1228 1600 
Q 959 1441 959 1056 
Q 959 750 1161 570 
Q 1363 391 1709 391 
Q 2188 391 2477 730 
Q 2766 1069 2766 1631 
L 2766 1759 
L 2194 1759 
z
M 3341 1997 
L 3341 0 
L 2766 0 
L 2766 531 
Q 2569 213 2275 61 
Q 1981 -91 1556 -91 
Q 1019 -91 701 211 
Q 384 513 384 1019 
Q 384 1609 779 1909 
Q 1175 2209 1959 2209 
L 2766 2209 
L 2766 2266 
Q 2766 2663 2505 2880 
Q 2244 3097 1772 3097 
Q 1472 3097 1187 3025 
Q 903 2953 641 2809 
L 641 3341 
Q 956 3463 1253 3523 
Q 1550 3584 1831 3584 
Q 2591 3584 2966 3190 
Q 3341 2797 3341 1997 
z
" transform="scale(0.015625)"/>
       <path id="DejaVuSans-65" d="M 3597 1894 
L 3597 1613 
L 953 1613 
Q 991 1019 1311 708 
Q 1631 397 2203 397 
Q 2534 397 2845 478 
Q 3156 559 3463 722 
L 3463 178 
Q 3153 47 2828 -22 
Q 2503 -91 2169 -91 
Q 1331 -91 842 396 
Q 353 884 353 1716 
Q 353 2575 817 3079 
Q 1281 3584 2069 3584 
Q 2775 3584 3186 3129 
Q 3597 2675 3597 1894 
z
M 3022 2063 
Q 3016 2534 2758 2815 
Q 2500 3097 2075 3097 
Q 1594 3097 1305 2825 
Q 1016 2553 972 2059 
L 3022 2063 
z
" transform="scale(0.015625)"/>
      </defs>
      <use xlink:href="#DejaVuSans-53"/>
      <use xlink:href="#DejaVuSans-74" x="63.476562"/>
      <use xlink:href="#DejaVuSans-61" x="102.685547"/>
      <use xlink:href="#DejaVuSans-74" x="163.964844"/>
      <use xlink:href="#DejaVuSans-65" x="203.173828"/>
     </g>
    </g>
   </g>
   <g id="matplotlib.axis_2">
    <g id="ytick_1">
     <g id="line2d_6">
      <defs>
       <path id="m2ff81872f7" d="M 0 0 
L -4.8 0 
" style="stroke: #000000"/>
      </defs>
      <g>
       <use xlink:href="#m2ff81872f7" x="66.0715" y="343.23316" style="stroke: #000000"/>
      </g>
     </g>
     <g id="text_7">
      <!-- 0.0 -->
      <g transform="translate(29.782 349.919785) scale(0.176 -0.176)">
       <defs>
        <path id="DejaVuSans-2e" d="M 684 794 
L 1344 794 
L 1344 0 
L 684 0 
L 684 794 
z
" transform="scale(0.015625)"/>
       </defs>
       <use xlink:href="#DejaVuSans-30"/>
       <use xlink:href="#DejaVuSans-2e" x="63.623047"/>
       <use xlink:href="#DejaVuSans-30" x="95.410156"/>
      </g>
     </g>
    </g>
    <g id="ytick_2">
     <g id="line2d_7">
      <g>
       <use xlink:href="#m2ff81872f7" x="66.0715" y="277.363853" style="stroke: #000000"/>
      </g>
     </g>
     <g id="text_8">
      <!-- 0.2 -->
      <g transform="translate(29.782 284.050478) scale(0.176 -0.176)">
       <use xlink:href="#DejaVuSans-30"/>
       <use xlink:href="#DejaVuSans-2e" x="63.623047"/>
       <use xlink:href="#DejaVuSans-32" x="95.410156"/>
      </g>
     </g>
    </g>
    <g id="ytick_3">
     <g id="line2d_8">
      <g>
       <use xlink:href="#m2ff81872f7" x="66.0715" y="211.494546" style="stroke: #000000"/>
      </g>
     </g>
     <g id="text_9">
      <!-- 0.4 -->
      <g transform="translate(29.782 218.181171) scale(0.176 -0.176)">
       <use xlink:href="#DejaVuSans-30"/>
       <use xlink:href="#DejaVuSans-2e" x="63.623047"/>
       <use xlink:href="#DejaVuSans-34" x="95.410156"/>
      </g>
     </g>
    </g>
    <g id="ytick_4">
     <g id="line2d_9">
      <g>
       <use xlink:href="#m2ff81872f7" x="66.0715" y="145.625239" style="stroke: #000000"/>
      </g>
     </g>
     <g id="text_10">
      <!-- 0.6 -->
      <g transform="translate(29.782 152.311864) scale(0.176 -0.176)">
       <use xlink:href="#DejaVuSans-30"/>
       <use xlink:href="#DejaVuSans-2e" x="63.623047"/>
       <use xlink:href="#DejaVuSans-36" x="95.410156"/>
      </g>
     </g>
    </g>
    <g id="ytick_5">
     <g id="line2d_10">
      <g>
       <use xlink:href="#m2ff81872f7" x="66.0715" y="79.755932" style="stroke: #000000"/>
      </g>
     </g>
     <g id="text_11">
      <!-- 0.8 -->
      <g transform="translate(29.782 86.442557) scale(0.176 -0.176)">
       <use xlink:href="#DejaVuSans-30"/>
       <use xlink:href="#DejaVuSans-2e" x="63.623047"/>
       <use xlink:href="#DejaVuSans-38" x="95.410156"/>
      </g>
     </g>
    </g>
    <g id="ytick_6">
     <g id="line2d_11">
      <g>
       <use xlink:href="#m2ff81872f7" x="66.0715" y="13.886625" style="stroke: #000000"/>
      </g>
     </g>
     <g id="text_12">
      <!-- 1.0 -->
      <g transform="translate(29.782 20.57325) scale(0.176 -0.176)">
       <defs>
        <path id="DejaVuSans-31" d="M 794 531 
L 1825 531 
L 1825 4091 
L 703 3866 
L 703 4441 
L 1819 4666 
L 2450 4666 
L 2450 531 
L 3481 531 
L 3481 0 
L 794 0 
L 794 531 
z
" transform="scale(0.015625)"/>
       </defs>
       <use xlink:href="#DejaVuSans-31"/>
       <use xlink:href="#DejaVuSans-2e" x="63.623047"/>
       <use xlink:href="#DejaVuSans-30" x="95.410156"/>
      </g>
     </g>
    </g>
    <g id="text_13">
     <!-- Score -->
     <g transform="translate(21.789 203.79766) rotate(-90) scale(0.192 -0.192)">
      <defs>
       <path id="DejaVuSans-63" d="M 3122 3366 
L 3122 2828 
Q 2878 2963 2633 3030 
Q 2388 3097 2138 3097 
Q 1578 3097 1268 2742 
Q 959 2388 959 1747 
Q 959 1106 1268 751 
Q 1578 397 2138 397 
Q 2388 397 2633 464 
Q 2878 531 3122 666 
L 3122 134 
Q 2881 22 2623 -34 
Q 2366 -91 2075 -91 
Q 1284 -91 818 406 
Q 353 903 353 1747 
Q 353 2603 823 3093 
Q 1294 3584 2113 3584 
Q 2378 3584 2631 3529 
Q 2884 3475 3122 3366 
z
" transform="scale(0.015625)"/>
       <path id="DejaVuSans-6f" d="M 1959 3097 
Q 1497 3097 1228 2736 
Q 959 2375 959 1747 
Q 959 1119 1226 758 
Q 1494 397 1959 397 
Q 2419 397 2687 759 
Q 2956 1122 2956 1747 
Q 2956 2369 2687 2733 
Q 2419 3097 1959 3097 
z
M 1959 3584 
Q 2709 3584 3137 3096 
Q 3566 2609 3566 1747 
Q 3566 888 3137 398 
Q 2709 -91 1959 -91 
Q 1206 -91 779 398 
Q 353 888 353 1747 
Q 353 2609 779 3096 
Q 1206 3584 1959 3584 
z
" transform="scale(0.015625)"/>
       <path id="DejaVuSans-72" d="M 2631 2963 
Q 2534 3019 2420 3045 
Q 2306 3072 2169 3072 
Q 1681 3072 1420 2755 
Q 1159 2438 1159 1844 
L 1159 0 
L 581 0 
L 581 3500 
L 1159 3500 
L 1159 2956 
Q 1341 3275 1631 3429 
Q 1922 3584 2338 3584 
Q 2397 3584 2469 3576 
Q 2541 3569 2628 3553 
L 2631 2963 
z
" transform="scale(0.015625)"/>
      </defs>
      <use xlink:href="#DejaVuSans-53"/>
      <use xlink:href="#DejaVuSans-63" x="63.476562"/>
      <use xlink:href="#DejaVuSans-6f" x="118.457031"/>
      <use xlink:href="#DejaVuSans-72" x="179.638672"/>
      <use xlink:href="#DejaVuSans-65" x="218.501953"/>
     </g>
    </g>
   </g>
   <g id="line2d_12">
    <path d="M 85.588989 53.094546 
L 89.342352 53.094546 
L 93.095715 53.094546 
L 96.849078 53.094546 
L 100.602442 53.094546 
L 104.355805 53.094546 
L 108.109168 28.20604 
L 111.862531 28.20604 
L 115.615895 30.838285 
L 119.369258 25.906572 
L 123.122621 33.374586 
L 126.875984 23.806701 
L 130.629348 23.806701 
L 134.382711 23.806701 
L 138.136074 140.395272 
L 141.889437 139.25079 
L 145.6428 139.318603 
L 149.396164 138.447173 
L 153.149527 138.447173 
L 156.90289 137.125973 
L 160.656253 137.125973 
L 164.409617 137.125973 
L 168.16298 136.681777 
L 171.916343 128.345622 
L 175.669706 125.162438 
L 179.42307 124.666823 
L 183.176433 122.661627 
L 186.929796 110.940435 
L 190.683159 89.956166 
L 194.436522 86.689543 
L 198.189886 83.268962 
L 201.943249 64.70009 
L 205.696612 64.70009 
L 209.449975 64.70009 
L 213.203339 64.70009 
L 216.956702 64.70009 
L 220.710065 64.70009 
L 224.463428 64.70009 
L 228.216791 55.246422 
L 231.970155 45.478619 
L 235.723518 24.864843 
L 239.476881 24.836766 
L 243.230244 13.886625 
L 246.983608 13.886625 
L 250.736971 13.886625 
L 254.490334 13.886625 
L 258.243697 13.886625 
L 261.997061 13.886625 
L 265.750424 13.886625 
L 269.503787 13.886625 
L 273.25715 13.886625 
L 277.010513 13.886625 
L 280.763877 13.886625 
L 284.51724 13.886625 
L 288.270603 13.886625 
L 292.023966 13.886625 
L 295.77733 13.886625 
L 299.530693 13.886625 
L 303.284056 13.886625 
L 307.037419 13.886625 
L 310.790783 13.886625 
L 314.544146 13.886625 
L 318.297509 13.886625 
L 322.050872 13.886625 
L 325.804235 13.886625 
L 329.557599 13.886625 
L 333.310962 13.886625 
L 337.064325 13.886625 
L 340.817688 13.886625 
L 344.571052 13.886625 
L 348.324415 13.886625 
L 352.077778 13.886625 
L 355.831141 13.886625 
L 359.584504 13.886625 
L 363.337868 13.886625 
L 367.091231 13.886625 
L 370.844594 13.886625 
L 374.597957 13.886625 
L 378.351321 13.886625 
L 382.104684 13.886625 
L 385.858047 13.886625 
L 389.61141 13.886625 
L 393.364774 13.886625 
L 397.118137 13.886625 
L 400.8715 13.886625 
" clip-path="url(#p572124f0f5)" style="fill: none; stroke-dasharray: 2,3.3; stroke-dashoffset: 0; stroke: #e41a1c; stroke-width: 2"/>
   </g>
   <g id="line2d_13">
    <path d="M 66.822173 343.23316 
L 70.575536 343.23316 
L 74.328899 343.23316 
L 78.082262 343.23316 
L 81.835626 343.23316 
L 85.588989 321.036763 
L 89.342352 321.036763 
L 93.095715 321.036763 
L 96.849078 321.036763 
L 100.602442 321.036763 
L 104.355805 321.036763 
L 108.109168 277.243872 
L 111.862531 277.243872 
L 115.615895 265.845723 
L 119.369258 264.046015 
L 123.122621 247.848644 
L 126.875984 246.648839 
L 130.629348 246.648839 
L 134.382711 246.648839 
L 138.136074 171.06111 
L 141.889437 170.461207 
L 145.6428 168.661499 
L 149.396164 168.661499 
L 153.149527 168.661499 
L 156.90289 168.661499 
L 160.656253 168.661499 
L 164.409617 168.661499 
L 168.16298 168.661499 
L 171.916343 168.661499 
L 175.669706 168.061597 
L 179.42307 168.061597 
L 183.176433 168.061597 
L 186.929796 168.061597 
L 190.683159 167.461694 
L 194.436522 165.661986 
L 198.189886 165.661986 
L 201.943249 165.661986 
L 205.696612 165.661986 
L 209.449975 165.661986 
L 213.203339 165.661986 
L 216.956702 165.661986 
L 220.710065 165.661986 
L 224.463428 165.661986 
L 228.216791 117.669777 
L 231.970155 117.069874 
L 235.723518 117.069874 
L 239.476881 116.469972 
L 243.230244 116.469972 
L 246.983608 96.673186 
L 250.736971 96.673186 
L 254.490334 49.280879 
L 258.243697 49.280879 
L 261.997061 49.280879 
L 265.750424 46.881269 
L 269.503787 46.881269 
L 273.25715 46.881269 
L 277.010513 46.881269 
L 280.763877 46.881269 
L 284.51724 46.881269 
L 288.270603 46.881269 
L 292.023966 46.881269 
L 295.77733 46.881269 
L 299.530693 46.881269 
L 303.284056 28.88419 
L 307.037419 28.88419 
L 310.790783 25.284775 
L 314.544146 25.284775 
L 318.297509 25.284775 
L 322.050872 25.284775 
L 325.804235 25.284775 
L 329.557599 25.284775 
L 333.310962 25.284775 
L 337.064325 25.284775 
L 340.817688 25.284775 
L 344.571052 25.284775 
L 348.324415 25.284775 
L 352.077778 23.485067 
L 355.831141 23.485067 
L 359.584504 23.485067 
L 363.337868 23.485067 
L 367.091231 23.485067 
L 370.844594 23.485067 
L 374.597957 23.485067 
L 378.351321 23.485067 
L 382.104684 23.485067 
L 385.858047 23.485067 
L 389.61141 23.485067 
L 393.364774 23.485067 
L 397.118137 23.485067 
L 400.8715 13.886625 
" clip-path="url(#p572124f0f5)" style="fill: none; stroke-dasharray: 7.4,3.2; stroke-dashoffset: 0; stroke: #377eb8; stroke-width: 2"/>
   </g>
   <g id="line2d_14">
    <path d="M 85.588989 301.995184 
L 89.342352 301.995184 
L 93.095715 301.995184 
L 96.849078 301.995184 
L 100.602442 301.995184 
L 104.355805 301.995184 
L 108.109168 234.11232 
L 111.862531 234.11232 
L 115.615895 219.187312 
L 119.369258 216.487554 
L 123.122621 197.366589 
L 126.875984 194.912063 
L 130.629348 194.912063 
L 134.382711 194.912063 
L 138.136074 156.982016 
L 141.889437 156.148738 
L 145.6428 155.127484 
L 149.396164 154.757562 
L 153.149527 154.757562 
L 156.90289 154.199942 
L 160.656253 154.199942 
L 164.409617 154.199942 
L 168.16298 154.013334 
L 171.916343 150.590262 
L 175.669706 148.951972 
L 179.42307 148.755529 
L 183.176433 147.965773 
L 186.929796 143.504835 
L 190.683159 135.709429 
L 194.436522 133.358942 
L 198.189886 132.223259 
L 201.943249 126.355353 
L 205.696612 126.355353 
L 209.449975 126.355353 
L 213.203339 126.355353 
L 216.956702 126.355353 
L 220.710065 126.355353 
L 224.463428 126.355353 
L 228.216791 90.25196 
L 231.970155 86.165575 
L 235.723518 78.773855 
L 239.476881 78.354457 
L 243.230244 74.639869 
L 246.983608 61.230189 
L 250.736971 61.230189 
L 254.490334 32.58869 
L 258.243697 32.58869 
L 261.997061 32.58869 
L 265.750424 31.253892 
L 269.503787 31.253892 
L 273.25715 31.253892 
L 277.010513 31.253892 
L 280.763877 31.253892 
L 284.51724 31.253892 
L 288.270603 31.253892 
L 292.023966 31.253892 
L 295.77733 31.253892 
L 299.530693 31.253892 
L 303.284056 21.560123 
L 307.037419 21.560123 
L 310.790783 19.686054 
L 314.544146 19.686054 
L 318.297509 19.686054 
L 322.050872 19.686054 
L 325.804235 19.686054 
L 329.557599 19.686054 
L 333.310962 19.686054 
L 337.064325 19.686054 
L 340.817688 19.686054 
L 344.571052 19.686054 
L 348.324415 19.686054 
L 352.077778 18.756814 
L 355.831141 18.756814 
L 359.584504 18.756814 
L 363.337868 18.756814 
L 367.091231 18.756814 
L 370.844594 18.756814 
L 374.597957 18.756814 
L 378.351321 18.756814 
L 382.104684 18.756814 
L 385.858047 18.756814 
L 389.61141 18.756814 
L 393.364774 18.756814 
L 397.118137 18.756814 
L 400.8715 13.886625 
" clip-path="url(#p572124f0f5)" style="fill: none; stroke: #984ea3; stroke-width: 3; stroke-linecap: square"/>
   </g>
   <g id="patch_3">
    <path d="M 66.0715 343.23316 
L 66.0715 10.59316 
" style="fill: none; stroke: #000000; stroke-linejoin: miter; stroke-linecap: square"/>
   </g>
   <g id="patch_4">
    <path d="M 66.0715 343.23316 
L 400.8715 343.23316 
" style="fill: none; stroke: #000000; stroke-linejoin: miter; stroke-linecap: square"/>
   </g>
   <g id="legend_1">
    <g id="patch_5">
     <path d="M 253.71075 334.43316 
L 388.5515 334.43316 
Q 392.0715 334.43316 392.0715 330.91316 
L 392.0715 255.17266 
Q 392.0715 251.65266 388.5515 251.65266 
L 253.71075 251.65266 
Q 250.19075 251.65266 250.19075 255.17266 
L 250.19075 330.91316 
Q 250.19075 334.43316 253.71075 334.43316 
z
" style="fill: #ffffff; opacity: 0.8; stroke: #cccccc; stroke-width: 0.8; stroke-linejoin: miter"/>
    </g>
    <g id="line2d_15">
     <path d="M 257.23075 265.90591 
L 274.83075 265.90591 
L 292.43075 265.90591 
" style="fill: none; stroke-dasharray: 2,3.3; stroke-dashoffset: 0; stroke: #e41a1c; stroke-width: 2"/>
    </g>
    <g id="text_14">
     <!-- Precision -->
     <g transform="translate(306.51075 272.06591) scale(0.176 -0.176)">
      <defs>
       <path id="DejaVuSans-50" d="M 1259 4147 
L 1259 2394 
L 2053 2394 
Q 2494 2394 2734 2622 
Q 2975 2850 2975 3272 
Q 2975 3691 2734 3919 
Q 2494 4147 2053 4147 
L 1259 4147 
z
M 628 4666 
L 2053 4666 
Q 2838 4666 3239 4311 
Q 3641 3956 3641 3272 
Q 3641 2581 3239 2228 
Q 2838 1875 2053 1875 
L 1259 1875 
L 1259 0 
L 628 0 
L 628 4666 
z
" transform="scale(0.015625)"/>
       <path id="DejaVuSans-69" d="M 603 3500 
L 1178 3500 
L 1178 0 
L 603 0 
L 603 3500 
z
M 603 4863 
L 1178 4863 
L 1178 4134 
L 603 4134 
L 603 4863 
z
" transform="scale(0.015625)"/>
       <path id="DejaVuSans-73" d="M 2834 3397 
L 2834 2853 
Q 2591 2978 2328 3040 
Q 2066 3103 1784 3103 
Q 1356 3103 1142 2972 
Q 928 2841 928 2578 
Q 928 2378 1081 2264 
Q 1234 2150 1697 2047 
L 1894 2003 
Q 2506 1872 2764 1633 
Q 3022 1394 3022 966 
Q 3022 478 2636 193 
Q 2250 -91 1575 -91 
Q 1294 -91 989 -36 
Q 684 19 347 128 
L 347 722 
Q 666 556 975 473 
Q 1284 391 1588 391 
Q 1994 391 2212 530 
Q 2431 669 2431 922 
Q 2431 1156 2273 1281 
Q 2116 1406 1581 1522 
L 1381 1569 
Q 847 1681 609 1914 
Q 372 2147 372 2553 
Q 372 3047 722 3315 
Q 1072 3584 1716 3584 
Q 2034 3584 2315 3537 
Q 2597 3491 2834 3397 
z
" transform="scale(0.015625)"/>
       <path id="DejaVuSans-6e" d="M 3513 2113 
L 3513 0 
L 2938 0 
L 2938 2094 
Q 2938 2591 2744 2837 
Q 2550 3084 2163 3084 
Q 1697 3084 1428 2787 
Q 1159 2491 1159 1978 
L 1159 0 
L 581 0 
L 581 3500 
L 1159 3500 
L 1159 2956 
Q 1366 3272 1645 3428 
Q 1925 3584 2291 3584 
Q 2894 3584 3203 3211 
Q 3513 2838 3513 2113 
z
" transform="scale(0.015625)"/>
      </defs>
      <use xlink:href="#DejaVuSans-50"/>
      <use xlink:href="#DejaVuSans-72" x="58.552734"/>
      <use xlink:href="#DejaVuSans-65" x="97.416016"/>
      <use xlink:href="#DejaVuSans-63" x="158.939453"/>
      <use xlink:href="#DejaVuSans-69" x="213.919922"/>
      <use xlink:href="#DejaVuSans-73" x="241.703125"/>
      <use xlink:href="#DejaVuSans-69" x="293.802734"/>
      <use xlink:href="#DejaVuSans-6f" x="321.585938"/>
      <use xlink:href="#DejaVuSans-6e" x="382.767578"/>
     </g>
    </g>
    <g id="line2d_16">
     <path d="M 257.23075 291.73941 
L 274.83075 291.73941 
L 292.43075 291.73941 
" style="fill: none; stroke-dasharray: 7.4,3.2; stroke-dashoffset: 0; stroke: #377eb8; stroke-width: 2"/>
    </g>
    <g id="text_15">
     <!-- Recall -->
     <g transform="translate(306.51075 297.89941) scale(0.176 -0.176)">
      <defs>
       <path id="DejaVuSans-52" d="M 2841 2188 
Q 3044 2119 3236 1894 
Q 3428 1669 3622 1275 
L 4263 0 
L 3584 0 
L 2988 1197 
Q 2756 1666 2539 1819 
Q 2322 1972 1947 1972 
L 1259 1972 
L 1259 0 
L 628 0 
L 628 4666 
L 2053 4666 
Q 2853 4666 3247 4331 
Q 3641 3997 3641 3322 
Q 3641 2881 3436 2590 
Q 3231 2300 2841 2188 
z
M 1259 4147 
L 1259 2491 
L 2053 2491 
Q 2509 2491 2742 2702 
Q 2975 2913 2975 3322 
Q 2975 3731 2742 3939 
Q 2509 4147 2053 4147 
L 1259 4147 
z
" transform="scale(0.015625)"/>
       <path id="DejaVuSans-6c" d="M 603 4863 
L 1178 4863 
L 1178 0 
L 603 0 
L 603 4863 
z
" transform="scale(0.015625)"/>
      </defs>
      <use xlink:href="#DejaVuSans-52"/>
      <use xlink:href="#DejaVuSans-65" x="64.982422"/>
      <use xlink:href="#DejaVuSans-63" x="126.505859"/>
      <use xlink:href="#DejaVuSans-61" x="181.486328"/>
      <use xlink:href="#DejaVuSans-6c" x="242.765625"/>
      <use xlink:href="#DejaVuSans-6c" x="270.548828"/>
     </g>
    </g>
    <g id="line2d_17">
     <path d="M 257.23075 317.57291 
L 274.83075 317.57291 
L 292.43075 317.57291 
" style="fill: none; stroke: #984ea3; stroke-width: 3; stroke-linecap: square"/>
    </g>
    <g id="text_16">
     <!-- F1 -->
     <g transform="translate(306.51075 323.73291) scale(0.176 -0.176)">
      <defs>
       <path id="DejaVuSans-46" d="M 628 4666 
L 3309 4666 
L 3309 4134 
L 1259 4134 
L 1259 2759 
L 3109 2759 
L 3109 2228 
L 1259 2228 
L 1259 0 
L 628 0 
L 628 4666 
z
" transform="scale(0.015625)"/>
      </defs>
      <use xlink:href="#DejaVuSans-46"/>
      <use xlink:href="#DejaVuSans-31" x="57.519531"/>
     </g>
    </g>
   </g>
  </g>
 </g>
 <defs>
  <clipPath id="p572124f0f5">
   <rect x="66.0715" y="10.59316" width="334.8" height="332.64"/>
  </clipPath>
 </defs>
</svg>
